<?xml version="1.0" encoding="UTF-8"?>
<svg version="1.1" xmlns="http://www.w3.org/2000/svg" width="512" height="512">
<path d="M0 0 C27.72 0 55.44 0 84 0 C84 27.39 84 54.78 84 83 C78.39 83 72.78 83 67 83 C67 88.28 67 93.56 67 99 C68.45704346 98.97905273 69.91408691 98.95810547 71.4152832 98.93652344 C76.8627729 98.86368153 82.31022023 98.81804007 87.75805664 98.78027344 C90.10806538 98.76025825 92.45802496 98.73303756 94.80786133 98.69824219 C98.20145867 98.64927876 101.59439296 98.62692941 104.98828125 98.609375 C106.02519608 98.58872986 107.0621109 98.56808472 108.13044739 98.54681396 C120.23396337 98.54315796 129.58744118 102.65803816 138.12890625 111.10546875 C149.86923743 123.6674069 150.29827014 136.72206811 150.1953125 153.16015625 C150.19157687 154.91849099 150.1887325 156.67682783 150.18673706 158.43516541 C150.17914389 163.03662991 150.15953303 167.63796579 150.1373291 172.23937988 C150.11677712 176.94537619 150.10771544 181.65139351 150.09765625 186.35742188 C150.07628259 195.57167984 150.04113619 204.78580904 150 214 C160.56 214 171.12 214 182 214 C182 209.05 182 204.1 182 199 C176.39 199 170.78 199 165 199 C165 171.28 165 143.56 165 115 C192.72 115 220.44 115 249 115 C249 142.72 249 170.44 249 199 C243.39 199 237.78 199 232 199 C232 203.95 232 208.9 232 214 C233.33063477 213.98428955 234.66126953 213.9685791 236.03222656 213.95239258 C241.01946847 213.89765372 246.00668439 213.86349147 250.99414062 213.83520508 C253.14327476 213.82021787 255.29237883 213.79982113 257.44140625 213.77368164 C275.12962078 213.56408616 289.38713261 213.6752493 303.2890625 226.03515625 C313.8361322 236.91799408 315.20368017 249.56323642 315.3125 264 C315.34150391 265.25167969 315.37050781 266.50335938 315.40039062 267.79296875 C315.48322586 280.09081524 313.28059694 290.6605032 305 300 C304.04011759 301.16539248 303.08165635 302.33195783 302.125 303.5 C301.42375 304.325 300.7225 305.15 300 306 C300.44730469 306.40089844 300.89460938 306.80179687 301.35546875 307.21484375 C310.42363147 315.74162362 314.99524495 326.17072835 315.38768005 338.61982727 C315.40838431 341.15964031 315.41285137 343.69961977 315.40405273 346.23950195 C315.40976697 347.64844297 315.41673527 349.05737936 315.42485046 350.46630859 C315.44268373 354.26612254 315.44163185 358.06570431 315.43590808 361.86554742 C315.43280101 365.05103126 315.43892566 368.23647148 315.44494683 371.42194909 C315.45895903 378.94499245 315.45745923 386.46792218 315.44604492 393.9909668 C315.43457499 401.7208985 315.44862785 409.45048279 315.4754414 417.18036872 C315.49768344 423.84486193 315.50421649 430.50924677 315.49836498 437.17377442 C315.49501347 441.14185199 315.49728862 445.10970713 315.51461601 449.07775307 C315.53021891 452.81345314 315.52598418 456.54864373 315.50731087 460.28432465 C315.50193841 462.2868024 315.5160381 464.28930377 315.53100586 466.29173279 C315.42246979 479.79477587 312.10693264 490.8774862 303 501 C295.48840257 508.11157153 286.20249193 512.10670496 275.89842224 512.14717102 C274.64669724 512.15432632 273.39497223 512.16148163 272.10531616 512.16885376 C270.72052027 512.17169387 269.33572411 512.17440562 267.95092773 512.17700195 C266.49037007 512.18326962 265.02981399 512.18991669 263.56925964 512.19691467 C258.77404891 512.21792769 253.97883797 512.22831695 249.18359375 512.23828125 C247.52956692 512.24233034 245.87554025 512.24644731 244.22151375 512.25063133 C236.44686613 512.26967978 228.67222796 512.28390952 220.89756149 512.2922433 C211.9408696 512.30200392 202.98442561 512.32829405 194.027821 512.36874419 C187.09429041 512.39897614 180.16083057 512.41371901 173.22723538 512.41702431 C169.09143092 512.41936743 164.95589139 512.42823052 160.820158 512.45348549 C156.92371962 512.47689452 153.02771817 512.48094849 149.13122749 512.47072411 C147.70871648 512.47023167 146.28618302 512.47646488 144.86373901 512.49028015 C130.93743773 512.61786201 121.06399478 509.56751749 110.90625 500.03515625 C101.02799877 489.84360228 98.82793146 478.25631534 98.90234375 464.5703125 C98.90335083 463.69173584 98.90435791 462.81315918 98.90539551 461.90795898 C98.91060118 458.64695925 98.92456234 455.38597822 98.9375 452.125 C98.958125 444.82375 98.97875 437.5225 99 430 C72.27 430 45.54 430 18 430 C18.11836693 446.99208966 18.11836693 446.99208966 18.27026367 463.98388672 C18.27903506 466.1324824 18.28667745 468.28108312 18.29296875 470.4296875 C18.3159906 472.06949585 18.3159906 472.06949585 18.33947754 473.74243164 C18.34323845 484.89228591 15.90706908 494.55232861 8.25 502.91015625 C-0.35982281 511.08601622 -9.54846272 512.59662675 -21.10961914 512.51757812 C-22.38409409 512.5245874 -23.65856903 512.53159668 -24.97166443 512.53881836 C-28.43866594 512.55691372 -31.90518654 512.55004265 -35.37219548 512.53730202 C-39.01681421 512.52710428 -42.6613945 512.53658614 -46.30601501 512.54284668 C-52.42291584 512.55010261 -58.53962282 512.54058872 -64.65649414 512.52148438 C-71.70943188 512.49970966 -78.76190711 512.50677933 -85.8148337 512.52879 C-91.89244809 512.54699126 -97.96992395 512.54947964 -104.04755682 512.53903532 C-107.66785501 512.53282747 -111.28793638 512.53188959 -114.90822029 512.54518127 C-118.94568023 512.55897213 -122.98235311 512.53981346 -127.01977539 512.51757812 C-128.20600494 512.52567505 -129.3922345 512.53377197 -130.6144104 512.54211426 C-140.31099238 512.44345673 -148.81911864 509.76759323 -156 503 C-164.24442992 493.04848812 -165.44638414 483.35805623 -165.38818359 470.73461914 C-165.39225578 469.31110737 -165.39760128 467.88759877 -165.40411377 466.46409607 C-165.41771763 462.62102516 -165.41251729 458.77819755 -165.40297651 454.93512273 C-165.39534229 450.89859093 -165.40243606 446.86207895 -165.40713501 442.82554626 C-165.41258228 436.04780364 -165.40542868 429.27015931 -165.39111328 422.49243164 C-165.37479531 414.67673834 -165.38007316 406.86127996 -165.3965925 399.04559237 C-165.41024465 392.31492905 -165.41210867 385.58433609 -165.40427649 378.85366338 C-165.39961955 374.84267579 -165.39892009 370.8317983 -165.40888596 366.82081795 C-165.41760763 363.04745023 -165.41143983 359.27438272 -165.39420319 355.50104713 C-165.38840018 353.47056099 -165.39720976 351.4400492 -165.40658569 349.40957642 C-165.31517651 336.12733226 -161.90247445 325.38398625 -153 315.3125 C-147.31568567 309.94468425 -139.51288474 307.07367757 -132.4921875 303.84765625 C-125.53276155 300.55317514 -121.12551037 296.05760407 -118 289 C-117.17435657 286.34114829 -116.57474351 283.73003166 -116 281 C-117.03125 280.938125 -118.0625 280.87625 -119.125 280.8125 C-123.80309919 279.83160824 -125.71171732 278.43775007 -129 275 C-132.48008636 268.79205497 -132.48486907 263.07742832 -132.4375 256.0625 C-132.4674707 254.49338867 -132.4674707 254.49338867 -132.49804688 252.89257812 C-132.49397852 246.41982091 -131.80586092 241.36303235 -128 236 C-123.86773831 232.06931205 -120.74367071 230.86822018 -115.11328125 230.90234375 C-114.17548828 230.90556641 -113.23769531 230.90878906 -112.27148438 230.91210938 C-110.80678711 230.92467773 -110.80678711 230.92467773 -109.3125 230.9375 C-108.32443359 230.94201172 -107.33636719 230.94652344 -106.31835938 230.95117188 C-103.87888042 230.9629568 -101.43943259 230.98089217 -99 231 C-99 225.72 -99 220.44 -99 215 C-104.28 215 -109.56 215 -115 215 C-115 187.61 -115 160.22 -115 132 C-98.5 132 -82 132 -65 132 C-64.01 128.04 -64.01 128.04 -63 124 C-58.03880984 112.87950913 -50.41513015 105.41929362 -39.05566406 100.9152832 C-32.92935125 98.73113154 -27.44078703 98.48090457 -20.98828125 98.609375 C-19.89404343 98.61503479 -18.7998056 98.62069458 -17.67240906 98.62652588 C-14.21863808 98.64870157 -10.76595101 98.69886278 -7.3125 98.75 C-4.95379115 98.77008928 -2.59506585 98.78833577 -0.23632812 98.8046875 C5.50952456 98.8485047 11.25457929 98.91740064 17 99 C17 93.72 17 88.44 17 83 C11.39 83 5.78 83 0 83 C0 55.61 0 28.22 0 0 Z " fill="#010101" transform="translate(181,0)"/>
<path d="M0 0 C54.45 0 108.9 0 165 0 C165 16.83 165 33.66 165 51 C161.37 52.32 157.74 53.64 154 55 C143.03068981 61.20632024 136.54076509 69.86309982 133 82 C132.4438152 86.86389062 132.35872683 91.62042137 132.45800781 96.51000977 C132.50015879 98.69573405 132.49903194 100.87838685 132.4921875 103.06445312 C132.52550056 110.44570575 132.8744584 117.18512016 136 124 C136.37640625 124.85851562 136.7528125 125.71703125 137.140625 126.6015625 C140.05594027 131.91893331 143.48757952 135.95572689 148 140 C147.13375 140.969375 146.2675 141.93875 145.375 142.9375 C143.06932327 145.65198467 140.87462288 148.407956 138.8125 151.3125 C138.11060547 152.29669922 138.11060547 152.29669922 137.39453125 153.30078125 C132.15730312 163.43782506 132.52616668 173.79302166 132.48828125 184.9140625 C132.47278809 186.53215828 132.45598644 188.15024206 132.43786621 189.76831055 C132.38027435 195.72040844 132.34786615 201.67272856 132.3125 207.625 C132.1578125 227.610625 132.1578125 227.610625 132 248 C104.61 248 77.22 248 49 248 C48.8125 210.75 48.8125 210.75 48.79223633 199.05761719 C48.76229897 195.55041326 48.76229897 195.55041326 48.72587585 192.04327393 C48.71293397 190.50051717 48.70949877 188.95766033 48.71403503 187.41485596 C48.74386806 173.29675581 46.31454376 161.48191972 36 151 C31.14198387 146.84014188 25.83145951 144.45534681 19.9375 142.0625 C10.57926832 138.15987536 5.07733336 133.67881556 0.83203125 124.37890625 C-0.18088231 121.48282944 -0.40014861 119.04112945 0 116 C0.60328125 115.75765625 1.2065625 115.5153125 1.828125 115.265625 C9.33408103 112.12394166 9.33408103 112.12394166 14.07666016 105.72802734 C15.73846937 100.81817642 15.36908089 95.76278667 15.375 90.625 C15.41173828 88.95824219 15.41173828 88.95824219 15.44921875 87.2578125 C15.47286998 80.63546891 15.25134738 76.21443579 11 71 C5.29816981 66.5547515 0.1346079 66.35634749 -6.9375 66.25 C-7.90751953 66.22035156 -8.87753906 66.19070312 -9.87695312 66.16015625 C-12.25086548 66.08999135 -14.6254343 66.04266964 -17 66 C-17 60.72 -17 55.44 -17 50 C-11.39 50 -5.78 50 0 50 C0 33.5 0 17 0 0 Z " fill="#E2E5E9" transform="translate(149,165)"/>
<path d="M0 0 C49.17 0 98.34 0 149 0 C149.103125 22.275 149.20625 44.55 149.3125 67.5 C149.35802002 74.52732422 149.40354004 81.55464844 149.45043945 88.79492188 C149.47302246 97.39160156 149.47302246 97.39160156 149.47721863 101.41906738 C149.48186766 104.22558448 149.50056644 107.03162631 149.52787781 109.8380127 C149.56230916 113.42380869 149.57243148 117.00891888 149.56536138 120.59486485 C149.56753271 122.52370017 149.59428151 124.45246058 149.62214375 126.38109589 C149.57930285 133.55255877 148.8022337 138.49667603 144 144 C140.21930338 147.44710574 136.918949 148.12380441 131.89616394 148.14717102 C130.31270927 148.15790398 130.31270927 148.15790398 128.69726562 148.16885376 C126.96029419 148.17288712 126.96029419 148.17288712 125.18823242 148.17700195 C123.96848221 148.18357315 122.74873199 148.19014435 121.49201965 148.19691467 C117.4465002 148.21666208 113.40102039 148.2283144 109.35546875 148.23828125 C107.96166781 148.24232956 106.56786708 148.24644651 105.17406654 148.25063133 C98.62587733 148.26967743 92.07769936 148.28391007 85.52948779 148.2922433 C77.97522802 148.3020161 70.42126124 148.32833882 62.86710471 148.36874419 C57.02495807 148.39891832 51.18289536 148.41371336 45.34067231 148.41702431 C41.85277285 148.41937321 38.36518659 148.42831226 34.87737083 148.45348549 C30.9848025 148.48112681 27.09261889 148.47693107 23.19995117 148.4699707 C21.47208878 148.48918579 21.47208878 148.48918579 19.70932007 148.50878906 C13.48516665 148.468173 9.71043308 148.21358798 5 144 C0.95298057 139.51546496 -0.12575702 136.4463683 -0.12025452 130.47615051 C-0.12163201 129.33008992 -0.12300951 128.18402933 -0.12442875 127.00323963 C-0.12083064 125.73993667 -0.11723253 124.4766337 -0.11352539 123.17504883 C-0.11321908 121.81300961 -0.1133525 120.45097023 -0.11389065 119.08893108 C-0.11411659 115.43846244 -0.10831689 111.78802653 -0.10128021 108.13756561 C-0.09558914 104.71325069 -0.0953173 101.28894376 -0.09460449 97.86462402 C-0.08935526 87.84724501 -0.07539413 77.82987209 -0.0625 67.8125 C-0.041875 45.434375 -0.02125 23.05625 0 0 Z " fill="#FCE8A5" transform="translate(33,347)"/>
<path d="M0 0 C1.41366701 -0.00678715 2.82732516 -0.01569641 4.2409668 -0.02655029 C8.05732248 -0.04922269 11.87299757 -0.04055744 15.68936419 -0.02465487 C19.69788011 -0.01193029 23.70634062 -0.02375431 27.71485901 -0.03158569 C34.44559102 -0.04066434 41.17604809 -0.02874259 47.90673828 -0.00488281 C55.66804416 0.02231419 63.42869292 0.01351785 71.18998283 -0.01401484 C77.87397394 -0.03676931 84.55776822 -0.03987486 91.24178559 -0.02682149 C95.22489779 -0.0190602 99.20770205 -0.01789278 103.19079399 -0.03450394 C106.93809591 -0.04904195 110.68455827 -0.03875948 114.43177032 -0.01003265 C116.44793573 -0.00036214 118.46417287 -0.01504289 120.4803009 -0.03067017 C129.10980022 0.06899325 136.2136664 1.40124212 142.73343563 7.40225792 C150.08780331 15.18542053 150.26638851 23.04940262 150.23046875 33.31811523 C150.23617782 34.70192514 150.24314416 36.08573035 150.25126648 37.4695282 C150.26915716 41.21353571 150.26803689 44.95730832 150.26232409 48.70134568 C150.25922525 51.83477027 150.26533264 54.96815019 150.27136284 58.1015684 C150.28539401 65.49930958 150.2838595 72.89693525 150.27246094 80.29467773 C150.26099032 87.90702484 150.27504064 95.5190192 150.30185741 103.13131982 C150.3240692 109.68360513 150.33063922 116.23578016 150.324781 122.78810042 C150.32142215 126.69408884 150.32375417 130.59985138 150.34103203 134.50580788 C150.35658609 138.18236636 150.35245311 141.85840592 150.33372688 145.53494453 C150.32832877 147.51297965 150.34249192 149.49103853 150.35742188 151.46902466 C150.27177043 161.90696678 148.36597348 169.81650843 140.80297852 177.27197266 C138.29773403 179.01475143 135.72185833 179.72687963 132.82641602 180.64697266 C132.824991 179.60508789 132.82356598 178.56320312 132.82209778 177.48974609 C132.80532926 167.60527155 132.76225782 157.72120352 132.69432545 147.83694458 C132.66023303 142.7569606 132.63497332 137.6772717 132.63085938 132.59716797 C132.62653803 127.68204178 132.5977619 122.76757923 132.55298424 117.85266113 C132.54013061 115.99031459 132.53565776 114.12788813 132.54026222 112.26550293 C132.57869171 91.97634468 127.96240407 73.31926404 113.33032227 58.35400391 C111.82641602 56.64697266 111.82641602 56.64697266 111.82641602 54.64697266 C111.24633789 54.38271484 110.66625977 54.11845703 110.06860352 53.84619141 C107.73462833 52.59788064 105.96533998 51.17169984 103.95141602 49.45947266 C88.4687419 37.24167875 70.17341699 33.39137524 50.82641602 34.64697266 C31.63529893 37.05772624 14.272808 45.6152088 1.82641602 60.64697266 C-11.65425855 78.49201561 -14.44279069 96.72580067 -14.58764648 118.53759766 C-14.60639382 120.33649549 -14.62596978 122.13538486 -14.64633179 123.93426514 C-14.69728279 128.62928233 -14.73710472 133.32432791 -14.7744751 138.01947021 C-14.8147492 142.82636321 -14.86573378 147.63314189 -14.91577148 152.43994141 C-15.01209125 161.84220442 -15.0966342 171.24453254 -15.17358398 180.64697266 C-22.62179395 177.76049555 -27.12614128 173.79937896 -30.44702148 166.47900391 C-31.90631844 162.7993788 -32.30251435 159.97116632 -32.31402588 156.03182983 C-32.31973602 154.86273071 -32.32544617 153.69363159 -32.33132935 152.48910522 C-32.3324472 151.20492706 -32.33356506 149.9207489 -32.3347168 148.59765625 C-32.33934588 147.23252224 -32.34437066 145.86738952 -32.34976196 144.5022583 C-32.36288328 140.79120669 -32.36933093 137.08017318 -32.37377262 133.369102 C-32.37670508 131.04850109 -32.38081032 128.7279051 -32.38527679 126.40730667 C-32.39895388 119.14096391 -32.40861829 111.87463242 -32.41247869 104.60827768 C-32.41695365 96.23173153 -32.43447446 87.85534903 -32.46347928 79.47885263 C-32.48513743 72.99802233 -32.49518524 66.51723791 -32.4965198 60.03637183 C-32.4975653 56.16894274 -32.50341796 52.30166743 -32.52133942 48.43427658 C-32.53789074 44.79152435 -32.53994167 41.1490403 -32.53120041 37.50626373 C-32.53007009 35.54349305 -32.54373467 33.58073099 -32.55795288 31.61801147 C-32.51405627 22.26970068 -31.60078021 14.20127029 -24.93608952 7.20401573 C-17.26223156 0.42473069 -9.96444309 -0.07711615 0 0 Z " fill="#E9BE9A" transform="translate(329.173583984375,313.35302734375)"/>
<path d="M0 0 C1.38056755 -0.00898748 2.76112759 -0.01919799 4.14167786 -0.03053284 C7.87752779 -0.05694224 11.61317133 -0.06406259 15.3491056 -0.0659802 C17.68853166 -0.06811863 20.02790595 -0.07453475 22.36731911 -0.08247185 C30.5443922 -0.11019935 38.72131896 -0.12248113 46.8984375 -0.12011719 C54.49497431 -0.11831738 62.09087028 -0.14993005 69.68724507 -0.19734818 C76.22937581 -0.23671552 82.77129836 -0.25266294 89.31354648 -0.25075096 C93.21191744 -0.24998986 97.10971888 -0.25832587 101.00797081 -0.29028511 C104.67978559 -0.31956759 108.35049597 -0.31940731 112.02235222 -0.29773521 C113.99289244 -0.29315767 115.96343443 -0.31797485 117.93380737 -0.34405518 C126.55364178 -0.25375521 133.17386518 1.55049985 140.3605957 6.43579102 C148.2137235 14.46801389 148.74768899 22.27464636 148.7980957 33.12329102 C148.8309668 34.35241211 148.86383789 35.5815332 148.89770508 36.84790039 C148.94904203 45.59851676 147.72436378 52.77485946 141.57519531 59.34277344 C136.46695839 64.07508277 131.2086351 66.8053814 124.15690613 66.8302002 C122.93319809 66.84154999 121.70949005 66.85289978 120.44869995 66.86459351 C119.10577326 66.86195057 117.76284719 66.85897941 116.41992188 66.85571289 C114.99522742 66.86305829 113.57053891 66.87164589 112.14585876 66.88137817 C108.28617581 66.90355623 104.4267066 66.90652665 100.56696868 66.90463066 C97.33905539 66.90451076 94.11118705 66.91308307 90.8832863 66.92140818 C83.26363157 66.9406298 75.64408639 66.94353099 68.02441406 66.93676758 C60.17854901 66.93013113 52.3331546 66.95297771 44.48738497 66.99008131 C37.7389564 67.02083085 30.99067879 67.03213256 24.2421816 67.0282445 C20.21710325 67.02618199 16.19239104 67.03157815 12.16737938 67.05613708 C8.37913884 67.07848837 4.5916601 67.07645795 0.8034153 67.05620956 C-0.58122735 67.05281394 -1.96592211 67.05782597 -3.35049438 67.07219315 C-12.65306059 67.16200663 -19.53008233 66.22245558 -26.4818697 59.70967865 C-33.7616371 52.17410132 -34.1622208 43.54301163 -34.1394043 33.56079102 C-34.16776367 32.4405957 -34.19612305 31.32040039 -34.2253418 30.16625977 C-34.24535728 21.58962521 -32.59725107 14.70339076 -26.64916992 8.28979492 C-18.44060003 0.48740038 -10.94737727 -0.01159352 0 0 Z " fill="#EAC09B" transform="translate(330.639404296875,230.564208984375)"/>
<path d="M0 0 C4.05958559 3.33788148 7.6288976 7.12695166 10.8125 11.3125 C10.8125 11.9725 10.8125 12.6325 10.8125 13.3125 C11.6375 13.395 12.4625 13.4775 13.3125 13.5625 C21.61436809 15.34147173 27.53978515 19.69907347 32.8125 26.3125 C38.56226212 35.91915701 40.71752375 45.33706379 38.05859375 56.46875 C36.63952783 60.52004409 35.19754074 63.7954453 32.625 67.25 C30.65589101 70.57711519 30.52153457 72.20821016 30.3125 76 C29.62499938 87.58725006 25.49472964 95.57693091 16.8125 103.3125 C9.72322882 108.48745759 4.14667762 110.44834112 -4.625 110.5 C-5.71683594 110.51417969 -6.80867188 110.52835937 -7.93359375 110.54296875 C-11.32533738 110.30273721 -13.99271704 109.42685467 -17.1875 108.3125 C-20.20769764 108.56585353 -20.20769764 108.56585353 -23.1875 109.3125 C-34.1616008 111.55720244 -43.29045285 110.50715519 -52.875 104.625 C-60.27338783 99.37910479 -64.90006624 92.06869804 -67.1875 83.3125 C-67.38353952 81.08718656 -67.52774206 78.85681368 -67.625 76.625 C-67.87342926 71.45040027 -68.63673585 68.81649891 -71.91015625 64.87890625 C-77.52541 57.99292229 -76.9341412 48.64930727 -76.39892578 40.24316406 C-75.93894257 36.0427631 -74.47825127 32.80928543 -72.1875 29.3125 C-71.76339844 28.61898437 -71.33929688 27.92546875 -70.90234375 27.2109375 C-66.35763156 20.45083636 -59.88947889 15.91632857 -52.1875 13.3125 C-50.8675 13.3125 -49.5475 13.3125 -48.1875 13.3125 C-47.94 12.590625 -47.6925 11.86875 -47.4375 11.125 C-43.71858781 2.75744758 -35.84786701 -1.80700103 -27.625 -5.125 C-17.22365235 -6.82703871 -9.29362547 -4.92015466 0 0 Z " fill="#040302" transform="translate(126.1875,368.6875)"/>
<path d="M0 0 C1.21391922 -0.00852997 2.42783844 -0.01705994 3.67854309 -0.02584839 C5.01565565 -0.02514943 6.3527681 -0.0242264 7.68988037 -0.02310181 C9.10457208 -0.0290893 10.51926053 -0.03589536 11.9339447 -0.04345703 C15.77092493 -0.06110452 19.60781591 -0.06581196 23.4448328 -0.0670886 C25.84485103 -0.06851178 28.2448467 -0.0727846 30.64485931 -0.07808304 C39.02592912 -0.0965811 47.40693536 -0.10475417 55.7880249 -0.10317993 C63.58664907 -0.10197947 71.38499606 -0.12306351 79.18355012 -0.15466726 C85.88948176 -0.18086959 92.59532312 -0.19154553 99.30130553 -0.19026911 C103.30176144 -0.18976052 107.3019711 -0.19538608 111.30237579 -0.21662521 C115.06834359 -0.23607388 118.83383198 -0.23608738 122.59981728 -0.22159195 C124.62936872 -0.21852351 126.65892055 -0.23513491 128.68840027 -0.25247192 C137.04293863 -0.19526811 143.67679092 0.75097999 150.25921631 6.16195679 C158.00038494 15.61696623 157.95452881 19.82186252 157.95452881 33.26742554 C103.17452881 33.26742554 48.39452881 33.26742554 -8.04547119 33.26742554 C-8.04547119 27.65742554 -8.04547119 22.04742554 -8.04547119 16.26742554 C-12.66547119 16.26742554 -17.28547119 16.26742554 -22.04547119 16.26742554 C-19.78078834 9.47337699 -19.78078834 9.47337699 -15.73297119 6.01742554 C-14.97371338 5.35226929 -14.21445557 4.68711304 -13.43218994 4.00180054 C-9.05962463 0.82435537 -5.36163062 0.01706632 0 0 Z " fill="#C9CED5" transform="translate(156.04547119140625,115.73257446289063)"/>
<path d="M0 0 C13.2756785 9.18480275 22.46365419 22.42469386 25.64744568 38.36587524 C26.1952801 42.24803054 26.25739112 46.04821688 26.23852539 49.95849609 C26.23867142 50.75916504 26.23881744 51.55983398 26.2389679 52.38476562 C26.2382748 55.01435109 26.23051076 57.6438645 26.22265625 60.2734375 C26.22078993 62.10332195 26.21936704 63.93320691 26.21836853 65.76309204 C26.21456023 70.56676628 26.2047444 75.37041003 26.19366455 80.17407227 C26.18341411 85.08088773 26.17886314 89.98770815 26.17382812 94.89453125 C26.16312056 104.51303635 26.14553747 114.13151086 26.125 123.75 C20.515 123.75 14.905 123.75 9.125 123.75 C9.1156543 121.25775879 9.10630859 118.76551758 9.09667969 116.19775391 C9.06281389 107.935488 9.00721177 99.67346934 8.94109726 91.41140175 C8.90169767 86.40527722 8.8694724 81.39932662 8.85400391 76.39306641 C8.8387877 71.55583389 8.80425449 66.71907977 8.75669098 61.882061 C8.74192822 60.04266915 8.73396193 58.20320898 8.73311615 56.36375809 C8.81378432 42.57167177 8.81378432 42.57167177 4.125 29.75 C3.66738281 28.85925781 3.20976562 27.96851563 2.73828125 27.05078125 C-3.35670818 17.73441602 -12.06135537 11.56279774 -22.875 8.75 C-35.23429942 7.47396614 -45.65941343 8.94607837 -55.8671875 16.34765625 C-57.875 17.75 -57.875 17.75 -60.0078125 18.68359375 C-62.39334897 20.0460445 -62.79715301 21.25298781 -63.875 23.75 C-65.37843368 26.15222555 -66.90116624 28.54055767 -68.4375 30.921875 C-71.59184487 37.12770568 -72.1738481 43.35297105 -72.19384766 50.18554688 C-72.20389328 50.98650787 -72.2139389 51.78746887 -72.22428894 52.61270142 C-72.25491022 55.2313777 -72.27209687 57.84995276 -72.2890625 60.46875 C-72.30779113 62.2957851 -72.32736579 64.1228117 -72.3477478 65.9498291 C-72.39889596 70.73696872 -72.43861397 75.52413632 -72.47589111 80.31140137 C-72.51603978 85.20506618 -72.56708238 90.0986163 -72.6171875 94.9921875 C-72.71374163 104.57805212 -72.79720359 114.16396478 -72.875 123.75 C-78.485 123.75 -84.095 123.75 -89.875 123.75 C-89.96584716 113.31760175 -90.03902853 102.8854719 -90.08224869 92.45276546 C-90.10300601 87.60694971 -90.1311033 82.7614217 -90.17675781 77.91577148 C-90.22064318 73.22784717 -90.2442259 68.5401973 -90.25450897 63.85208321 C-90.26182457 62.07535045 -90.27610691 60.29863044 -90.29792023 58.52201653 C-90.53456476 38.42460556 -86.55426685 22.07747046 -72.25 7 C-52.45019548 -11.75770954 -23.1541505 -13.68199802 0 0 Z " fill="#F5D16D" transform="translate(419.875,372.25)"/>
<path d="M0 0 C5.05662418 2.24952483 8.40952589 5.33213686 10.8046875 10.3515625 C11.43127843 12.7550531 11.6517899 14.85423511 11.8046875 17.3515625 C12.44535156 17.31675781 13.08601563 17.28195312 13.74609375 17.24609375 C19.49142101 17.0662847 23.71688163 17.35873552 28.8046875 20.3515625 C33.42184557 24.84879438 34.9786543 28.21445305 35.1171875 34.6015625 C35.06289306 40.07926821 34.70386783 43.24716215 30.8046875 47.3515625 C29.70389042 48.16862191 28.59964673 48.98105611 27.4921875 49.7890625 C26.161875 51.0575 26.161875 51.0575 24.8046875 52.3515625 C24.83630608 55.67231266 24.83630608 55.67231266 25.8046875 59.3515625 C26.28160331 65.36070175 26.37032406 70.24081677 22.8046875 75.3515625 C18.44817889 79.73187717 14.71792426 81.50275781 8.5546875 81.7265625 C2.64911511 81.71876122 0.32169818 79.94673427 -4.1953125 76.3515625 C-7.27750474 76.68867728 -8.60411201 77.62687645 -11.2578125 79.4140625 C-15.99540504 82.20148225 -20.85777145 82.14977483 -26.1953125 81.3515625 C-31.45624032 78.76892521 -34.73062744 75.13446412 -37.4453125 69.9765625 C-39.21432785 63.78500877 -37.88363269 58.36620318 -36.1953125 52.3515625 C-37.1028125 51.8359375 -38.0103125 51.3203125 -38.9453125 50.7890625 C-43.51236143 47.76595682 -45.48179051 43.49212846 -47.1953125 38.3515625 C-47.7088953 32.18856887 -47.09805584 28.24189029 -43.1953125 23.3515625 C-38.86364323 19.07514411 -35.6078476 17.28048978 -29.5703125 16.7890625 C-28.06597656 16.66337891 -28.06597656 16.66337891 -26.53125 16.53515625 C-25.76039062 16.47457031 -24.98953125 16.41398437 -24.1953125 16.3515625 C-23.98777344 15.69929688 -23.78023437 15.04703125 -23.56640625 14.375 C-19.69230306 3.38486627 -12.09093657 -3.57134425 0 0 Z " fill="#EA7082" transform="translate(113.1953125,380.6484375)"/>
<path d="M0 0 C16.5 0 33 0 50 0 C50.99 3.96 51.98 7.92 53 12 C58.31285531 25.92334496 66.64634881 33.81848787 80 40 C81.81715031 40.84422847 83.62981726 41.69818522 85.4375 42.5625 C86.24058594 42.93503906 87.04367188 43.30757813 87.87109375 43.69140625 C90 45 90 45 93 49 C48.12 49 3.24 49 -43 49 C-37.3902439 43.3902439 -37.3902439 43.3902439 -34.4375 42.0625 C-33.41462891 41.57910156 -33.41462891 41.57910156 -32.37109375 41.0859375 C-31.19740234 40.54839844 -31.19740234 40.54839844 -30 40 C-16.38456193 33.732867 -8.0265698 27.02987038 -2.1875 12.9375 C-0.63991673 8.2363046 -0.63991673 8.2363046 0 0 Z " fill="#EECEB3" transform="translate(82,281)"/>
<path d="M0 0 C5.54739795 3.42312084 10.51705525 8.53684045 12.65231323 14.71656799 C13.60809301 18.75515013 13.83105791 22.49024612 13.78955078 26.60913086 C13.78984283 27.38068512 13.79013489 28.15223938 13.79043579 28.94717407 C13.78905271 31.47401541 13.77354018 34.00055451 13.7578125 36.52734375 C13.75407873 38.28853698 13.75123348 40.04973229 13.74923706 41.81092834 C13.74162927 46.42886162 13.72200549 51.04666755 13.6998291 55.66455078 C13.67930898 60.38377154 13.67022219 65.10301304 13.66015625 69.82226562 C13.63875672 79.06907515 13.60359804 88.31575702 13.5625 97.5625 C7.9525 97.5625 2.3425 97.5625 -3.4375 97.5625 C-3.4375 70.1725 -3.4375 42.7825 -3.4375 14.5625 C-8.7175 14.5625 -13.9975 14.5625 -19.4375 14.5625 C-19.4375 41.9525 -19.4375 69.3425 -19.4375 97.5625 C-25.0475 97.5625 -30.6575 97.5625 -36.4375 97.5625 C-36.5507804 87.30452433 -36.64237647 77.04696888 -36.69656086 66.78850746 C-36.72257599 62.02429457 -36.75782496 57.26053442 -36.81469727 52.49658203 C-36.86930724 47.8929542 -36.89898124 43.2897599 -36.91188622 38.68583298 C-36.92107437 36.9356441 -36.93901622 35.18547705 -36.96615028 33.4354744 C-37.12992901 22.42774379 -36.86600251 13.87048057 -29.33984375 5.125 C-28.69144531 4.609375 -28.04304688 4.09375 -27.375 3.5625 C-26.39853516 2.758125 -26.39853516 2.758125 -25.40234375 1.9375 C-18.50984865 -2.88587629 -7.78769883 -3.40420368 0 0 Z " fill="#F6E2A1" transform="translate(399.4375,398.4375)"/>
<path d="M0 0 C16.5 0 33 0 50 0 C50 16.5 50 33 50 50 C33.5 50 17 50 0 50 C0 33.5 0 17 0 0 Z " fill="#A6ADB8" transform="translate(363,132)"/>
<path d="M0 0 C16.5 0 33 0 50 0 C50 16.17 50 32.34 50 49 C33.5 49 17 49 0 49 C0 32.83 0 16.66 0 0 Z " fill="#4EBEE6" transform="translate(198,17)"/>
<path d="M0 0 C16.17 0 32.34 0 49 0 C49 16.17 49 32.34 49 49 C32.83 49 16.66 49 0 49 C0 32.83 0 16.66 0 0 Z " fill="#A9B1BC" transform="translate(83,149)"/>
<path d="M0 0 C5.02016669 3.77647259 8.18108032 8.70552177 10.16015625 14.625 C11.28316597 22.98255651 10.04085627 29.71067497 5.16015625 36.625 C0.43555944 42.04911235 -5.1426621 44.93083522 -12.21875 45.9765625 C-19.03965273 46.38218739 -24.25713503 44.50577742 -29.83984375 40.625 C-35.34155481 35.6724431 -38.37630308 30.96934627 -39.17578125 23.4765625 C-39.27491578 15.28805042 -38.68038877 9.74337168 -33.00390625 3.65625 C-23.80417021 -4.94426951 -11.03315395 -6.31491088 0 0 Z " fill="#030101" transform="translate(121.83984375,400.375)"/>
<path d="M0 0 C32.67 0 65.34 0 99 0 C99 5.28 99 10.56 99 16 C66.33 16 33.66 16 0 16 C0 10.72 0 5.44 0 0 Z " fill="#000000" transform="translate(182,182)"/>
<path d="M0 0 C27.39 0 54.78 0 83 0 C83 5.28 83 10.56 83 16 C55.61 16 28.22 16 0 16 C0 10.72 0 5.44 0 0 Z " fill="#EAC09B" transform="translate(66,248)"/>
<path d="M0 0 C27.06 0 54.12 0 82 0 C82 5.28 82 10.56 82 16 C54.94 16 27.88 16 0 16 C0 10.72 0 5.44 0 0 Z " fill="#000000" transform="translate(182,281)"/>
<path d="M0 0 C27.06 0 54.12 0 82 0 C82 5.28 82 10.56 82 16 C54.94 16 27.88 16 0 16 C0 10.72 0 5.44 0 0 Z " fill="#000000" transform="translate(182,248)"/>
<path d="M0 0 C27.06 0 54.12 0 82 0 C82 5.28 82 10.56 82 16 C54.94 16 27.88 16 0 16 C0 10.72 0 5.44 0 0 Z " fill="#000000" transform="translate(182,215)"/>
<path d="M0 0 C5.28 0 10.56 0 16 0 C16 5.61 16 11.22 16 17 C10.72 17 5.44 17 0 17 C0 11.39 0 5.78 0 0 Z " fill="#C6CBD3" transform="translate(380,198)"/>
<path d="M0 0 C5.28 0 10.56 0 16 0 C16 5.28 16 10.56 16 16 C10.72 16 5.44 16 0 16 C0 10.72 0 5.44 0 0 Z " fill="#CACFD7" transform="translate(99,215)"/>
<path d="M0 0 C5.28 0 10.56 0 16 0 C16 5.28 16 10.56 16 16 C10.72 16 5.44 16 0 16 C0 10.72 0 5.44 0 0 Z " fill="#69D6F4" transform="translate(215,83)"/>
<path d="M0 0 C1.9375 1.0625 1.9375 1.0625 3 3 C3.63852859 7.9485966 3.74271661 9.89717837 0.9375 14.0625 C-2 16 -2 16 -5.5625 16.125 C-9.64328346 14.78947087 -10.92555322 13.73400421 -13 10 C-13.625 7 -13.625 7 -13 4 C-8.82319948 -0.78803962 -6.3628125 -1.92084906 0 0 Z " fill="#070707" transform="translate(112,166)"/>
<path d="M0 0 C3.76991795 0.70685962 5.40418092 1.74418215 8 4.5625 C9.25610015 8.2522942 9.34352813 9.82636829 7.6875 13.375 C6 15.5625 6 15.5625 4 16.5625 C-0.37362014 17.05762681 -2.31955244 17.05473866 -5.9375 14.4375 C-8 11.5625 -8 11.5625 -8.625 8.5625 C-7.58351809 3.56338683 -5.03644185 0.94433285 0 0 Z " fill="#E45161" transform="translate(107,412.4375)"/>
<path d="M0 0 C4.10703441 0.85563217 5.55401113 2.24378009 8 5.625 C8.62491523 9.58279649 8.61006839 11.63363886 6.5 15.0625 C2.97873756 17.26328902 0.04560357 17.42914661 -4 16.625 C-6.5 15.0625 -6.5 15.0625 -8 12.625 C-8.5625 9.1875 -8.5625 9.1875 -8 5.625 C-5.55401113 2.24378009 -4.10703441 0.85563217 0 0 Z " fill="#020506" transform="translate(223,32.375)"/>
<path d="M0 0 C1.90625 0.4140625 1.90625 0.4140625 4.40625 1.9765625 C6.51631839 5.40542364 6.53116523 7.45626601 5.90625 11.4140625 C3.46026113 14.79528241 2.01328441 16.18343033 -2.09375 17.0390625 C-6.1680856 16.19024258 -7.63780875 14.73680654 -10.09375 11.4140625 C-10.80335213 7.62951782 -10.37176176 5.94691837 -8.59375 2.5390625 C-5.55206021 -0.04637382 -3.89367767 -0.27604431 0 0 Z " fill="#030303" transform="translate(390.09375,148.5859375)"/>
</svg>
