<?xml version="1.0" encoding="UTF-8"?>
<svg version="1.1" xmlns="http://www.w3.org/2000/svg" width="512" height="512">
<path d="M0 0 C0.92305435 -0.00686325 1.8461087 -0.0137265 2.7971344 -0.02079773 C5.82723681 -0.03899465 8.85681794 -0.03523841 11.88696289 -0.02954102 C14.00631375 -0.03410615 16.12566313 -0.03941271 18.24501038 -0.04542542 C22.67902657 -0.05434253 27.11286251 -0.05194919 31.546875 -0.04199219 C37.21378399 -0.03050322 42.88006978 -0.05072044 48.54689693 -0.07990932 C52.92139095 -0.09830247 57.29573647 -0.09797265 61.67025948 -0.0922718 C63.75893592 -0.09211898 65.84762268 -0.09813114 67.93626213 -0.11056328 C70.86284769 -0.1255306 73.78829256 -0.114754 76.71484375 -0.09765625 C77.56758881 -0.10732422 78.42033386 -0.11699219 79.29891968 -0.12695312 C87.86742751 -0.0227396 95.32298423 3.21481781 101.50653076 9.17102051 C108.42080985 17.231107 110.3544366 29.65729939 113.03149414 39.74780273 C113.4472318 41.29067685 113.86368837 42.83335741 114.28082275 44.37585449 C115.36609414 48.39671638 116.44152549 52.42014409 117.51483154 56.44421387 C118.61184402 60.54968298 119.71867958 64.65250165 120.82446289 68.75561523 C122.43585908 74.74062168 124.04382283 80.72652928 125.64379883 86.71459961 C126.12414581 88.51229797 126.12414581 88.51229797 126.61419678 90.34631348 C126.88081116 91.35536743 127.14742554 92.36442139 127.42211914 93.40405273 C127.61864075 94.13370239 127.81516235 94.86335205 128.01763916 95.6151123 C129.35726778 101.54004286 128.2511909 106.13612602 125.42211914 111.40405273 C121.51148478 116.18371696 117.10284176 119.01883395 110.94387817 119.66342163 C108.0373101 119.75011338 105.14604217 119.7414277 102.23852539 119.69702148 C101.18301987 119.69277664 100.12751434 119.6885318 99.0400238 119.68415833 C95.68795643 119.66744323 92.33650304 119.62980362 88.98461914 119.59155273 C86.7040289 119.57649666 84.42342918 119.56280987 82.14282227 119.55053711 C76.56883102 119.52012246 70.99615767 119.4613857 65.42211914 119.40405273 C65.42211914 130.29405273 65.42211914 141.18405273 65.42211914 152.40405273 C74.18704374 152.24686986 74.18704374 152.24686986 82.95092773 152.04370117 C91.9276748 151.96305223 98.66660175 153.33938597 106.23461914 158.21655273 C113.52570771 165.5076413 116.5728418 173.80123096 116.60961914 184.15405273 C116.51680664 185.76280273 116.51680664 185.76280273 116.42211914 187.40405273 C117.72149414 187.61030273 119.02086914 187.81655273 120.35961914 188.02905273 C128.15197099 189.78110669 133.94404588 194.38519726 139.13305664 200.30249023 C143.63441767 207.64107276 143.94204446 214.48560543 143.92211914 222.90405273 C143.95047852 223.99331055 143.97883789 225.08256836 144.00805664 226.20483398 C144.02512967 233.26453149 143.05184851 237.97104482 138.42211914 243.40405273 C134.10134857 247.7248233 130.15301279 249.61902029 124.42211914 251.40405273 C123.43211914 251.40405273 122.44211914 251.40405273 121.42211914 251.40405273 C121.42580631 252.18427764 121.42949348 252.96450254 121.43329239 253.76837063 C121.52171996 272.77351072 121.58786596 291.77860962 121.62936783 310.78391171 C121.64997249 319.97483151 121.67805293 329.16561379 121.72387695 338.35644531 C121.76380899 346.36936922 121.78956718 354.3821935 121.79847312 362.39521414 C121.80367712 366.6361036 121.81586442 370.8767081 121.84503937 375.11750603 C121.87230929 379.11399711 121.88054095 383.11008746 121.87454987 387.10666275 C121.87564495 388.56871917 121.88352991 390.03078982 121.89894104 391.49276543 C121.9813894 399.72198804 121.62460294 406.21947866 117.42211914 413.40405273 C116.86524414 414.45592773 116.30836914 415.50780273 115.73461914 416.59155273 C111.38414201 421.88267357 104.37174301 426.81581088 97.48461914 427.84155273 C94.42211914 427.40405273 94.42211914 427.40405273 92.37524414 424.92749023 C88.14309064 421.31112626 84.51212644 421.62591497 79.10961914 421.59155273 C78.17827148 421.56641602 77.24692383 421.5412793 76.28735352 421.51538086 C73.99851728 421.45669275 71.71158488 421.42028105 69.42211914 421.40405273 C69.31899414 422.18780273 69.21586914 422.97155273 69.10961914 423.77905273 C68.42211914 426.40405273 68.42211914 426.40405273 65.42211914 428.40405273 C62.60522312 428.6570524 62.60522312 428.6570524 59.09945583 428.66132164 C58.1287868 428.66658075 58.1287868 428.66658075 57.13850829 428.67194611 C54.95508312 428.68130124 52.77192228 428.67632631 50.58848572 428.67147827 C49.01322272 428.6752125 47.43796157 428.67981311 45.86270338 428.68520892 C41.52196368 428.69748311 37.18130079 428.69717325 32.84054768 428.69482017 C28.16346166 428.6944131 23.48640064 428.70544083 18.80932617 428.7149353 C9.6402017 428.73157195 0.47110293 428.73704611 -8.69803537 428.73816006 C-16.1516393 428.73910955 -23.60523474 428.7432149 -31.05883598 428.74956131 C-52.1847326 428.76718325 -73.31060887 428.77639903 -94.43651289 428.77490036 C-95.57620876 428.77482045 -96.71590462 428.77474054 -97.89013672 428.7746582 C-99.03122257 428.77457644 -100.17230842 428.77449468 -101.34797262 428.77441044 C-119.8320937 428.77359792 -138.3161332 428.79272458 -156.80023069 428.82093494 C-175.77328798 428.84966321 -194.7463055 428.86347517 -213.71938509 428.86174738 C-224.37370427 428.86108332 -235.02793802 428.86658233 -245.68223763 428.88810349 C-254.75634191 428.90631482 -263.83032207 428.91066321 -272.90443671 428.89708464 C-277.53351742 428.89055394 -282.16236001 428.89044132 -286.79141808 428.90779114 C-291.03251993 428.9235231 -295.27319488 428.92065701 -299.51428633 428.90322287 C-301.04532194 428.90015317 -302.57638941 428.90378429 -304.10738743 428.91494302 C-315.98398283 428.99574474 -325.07676565 427.51062214 -333.89428711 419.11889648 C-342.07648971 410.78482005 -343.02679558 402.4381588 -342.93864441 391.0844574 C-342.94120768 389.86803608 -342.94377096 388.65161475 -342.94641191 387.39833218 C-342.95048157 384.04360182 -342.94117294 380.68940296 -342.92607772 377.33473718 C-342.91307106 373.70909514 -342.91751008 370.08346827 -342.91978455 366.45780945 C-342.92135437 360.18333015 -342.91197573 353.90894474 -342.89507103 347.63448906 C-342.87064596 338.56279714 -342.86287218 329.49115043 -342.85910705 320.41942919 C-342.85254807 305.69967839 -342.83260192 290.97997758 -342.80419922 276.26025391 C-342.77664433 261.96500905 -342.75541775 247.66977779 -342.74267578 233.37451172 C-342.74188761 232.49272554 -342.74109944 231.61093936 -342.74028739 230.70243239 C-342.73637215 226.27858309 -342.73258106 221.8547337 -342.72885168 217.43088424 C-342.69777298 180.75523845 -342.64495225 144.07964949 -342.57788086 107.40405273 C-343.17971191 107.42145508 -343.78154297 107.43885742 -344.40161133 107.45678711 C-345.19970215 107.47032227 -345.99779297 107.48385742 -346.82006836 107.49780273 C-347.60752441 107.51520508 -348.39498047 107.53260742 -349.20629883 107.55053711 C-355.30156604 107.17405365 -359.4565211 103.83447487 -363.45288086 99.46655273 C-369.18859013 92.75710678 -368.9434135 86.18510596 -368.95288086 77.71655273 C-368.98961914 76.01595703 -368.98961914 76.01595703 -369.02709961 74.28100586 C-369.05664826 65.7365222 -367.76864301 58.8416253 -362.71850586 51.81811523 C-355.32003514 44.81708302 -348.48017503 41.27515248 -338.20678711 41.16577148 C-337.48804916 41.15769974 -336.76931122 41.14962799 -336.02879333 41.14131165 C-334.50994258 41.12749726 -332.99106112 41.11676329 -331.47216797 41.10888672 C-329.15199155 41.09163905 -326.83322821 41.04772921 -324.51342773 41.00366211 C-323.03622464 40.99353735 -321.55900948 40.98502057 -320.08178711 40.97827148 C-319.3900087 40.9607634 -318.69823029 40.94325531 -317.98548889 40.92521667 C-314.60834715 40.94040042 -312.84880318 41.20224735 -310.10888672 43.24316406 C-308.57788086 45.40405273 -308.57788086 45.40405273 -308.57788086 48.40405273 C-301.64788086 48.40405273 -294.71788086 48.40405273 -287.57788086 48.40405273 C-286.91788086 46.75405273 -286.25788086 45.10405273 -285.57788086 43.40405273 C-283.57788086 41.40405273 -283.57788086 41.40405273 -281.73930061 41.15565574 C-280.98669491 41.15641518 -280.23408922 41.15717462 -279.45867729 41.15795708 C-278.59081309 41.15397498 -277.72294889 41.14999288 -276.82878578 41.14589012 C-275.86965628 41.1517158 -274.91052679 41.15754148 -273.92233276 41.1635437 C-272.90790293 41.16183485 -271.89347309 41.160126 -270.84830296 41.15836537 C-267.42719992 41.15505422 -264.00629024 41.16610088 -260.58520508 41.17700195 C-258.14159144 41.17756572 -255.69797746 41.17725019 -253.25436401 41.17611694 C-247.98216104 41.17566056 -242.71001899 41.18135694 -237.43783188 41.19259262 C-229.81508674 41.20882708 -222.19236556 41.21405352 -214.56960501 41.2165686 C-202.20304669 41.22094894 -189.83651471 41.23426721 -177.4699707 41.25317383 C-165.45499809 41.27152388 -153.44003262 41.28568466 -141.42504883 41.29418945 C-140.31467464 41.29497762 -140.31467464 41.29497762 -139.18186866 41.29578172 C-135.4683603 41.29839174 -131.75485189 41.30091917 -128.04134345 41.30340552 C-97.2201701 41.32414857 -66.39902947 41.35953167 -35.57788086 41.40405273 C-35.34612907 39.74098083 -35.34612907 39.74098083 -35.10969543 38.04431152 C-34.49733537 33.85272064 -33.45841315 29.95818677 -32.26538086 25.90405273 C-31.96470703 24.82317383 -31.96470703 24.82317383 -31.65795898 23.72045898 C-29.73003075 17.11894622 -27.13816666 11.26215198 -21.82788086 6.65405273 C-20.90749023 5.82647461 -20.90749023 5.82647461 -19.96850586 4.98217773 C-13.53761701 0.73695045 -7.49566761 -0.03947598 0 0 Z M-23.57788086 119.40405273 C-23.57788086 131.28405273 -23.57788086 143.16405273 -23.57788086 155.40405273 C-21.26788086 154.74405273 -18.95788086 154.08405273 -16.57788086 153.40405273 C-14.31429561 153.18956806 -12.04214269 153.05283417 -9.76928711 152.98999023 C-8.09008179 152.93657471 -8.09008179 152.93657471 -6.37695312 152.88208008 C-4.97888428 152.84808105 -3.58081543 152.81408203 -2.14038086 152.77905273 C2.33524414 152.65530273 6.81086914 152.53155273 11.42211914 152.40405273 C11.42211914 141.51405273 11.42211914 130.62405273 11.42211914 119.40405273 C-0.12788086 119.40405273 -11.67788086 119.40405273 -23.57788086 119.40405273 Z " fill="#020101" transform="translate(368.577880859375,41.595947265625)"/>
<path d="M0 0 C35.33037711 -0.16016216 70.66068086 -0.28353703 105.99134449 -0.35745731 C110.16081554 -0.36621243 114.33028588 -0.37527267 118.49975586 -0.38452148 C119.32983521 -0.38635766 120.15991457 -0.38819383 121.01514784 -0.39008565 C134.46225612 -0.42055917 147.90915529 -0.47575893 161.35613944 -0.54006957 C175.15021191 -0.60549081 188.94417474 -0.64440307 202.73839599 -0.65861946 C211.25283837 -0.66823267 219.76668974 -0.69861237 228.28095023 -0.75541527 C234.11659775 -0.79236862 239.95193899 -0.80361186 245.78769507 -0.79450964 C249.15696889 -0.79001784 252.52437397 -0.80078582 255.89360809 -0.83443832 C259.54482915 -0.86912813 263.19349556 -0.86094633 266.84477234 -0.84178162 C267.91189176 -0.86217151 268.97901118 -0.8825614 270.07846755 -0.90356916 C277.1570698 -0.80272798 277.1570698 -0.80272798 279.58479273 1.50920856 C280.82220173 3.36511135 280.82220173 3.36511135 281.71248847 5.20537513 C283.32247811 7.74380329 283.32247811 7.74380329 289 10 C289 33.43 289 56.86 289 81 C278.11 81 267.22 81 256 81 C255.6875 65.9375 255.6875 65.9375 255.61206055 61.22631836 C255.57894775 59.98503174 255.54583496 58.74374512 255.51171875 57.46484375 C255.47244263 55.57173462 255.47244263 55.57173462 255.43237305 53.64038086 C254.6625535 47.15885672 251.98003692 41.37395441 247 37 C239.03599337 31.42554181 229.23058776 32.42887996 219.97094727 32.46655273 C218.14349676 32.45948757 216.31605211 32.45074004 214.48861694 32.44044495 C209.54432475 32.41800838 204.60035355 32.42087727 199.65602994 32.42976642 C195.52091279 32.43488888 191.38585529 32.42757354 187.25074428 32.42029434 C177.49222339 32.40331355 167.73385895 32.40684288 157.9753418 32.42358398 C147.92377359 32.44050535 137.87263968 32.42466633 127.82111889 32.3923611 C119.17538486 32.36563158 110.52978574 32.35839824 101.88401455 32.36687618 C96.72719522 32.37179534 91.57063712 32.36964446 86.41385078 32.34908867 C81.56351734 32.33067862 76.71380668 32.3367552 71.86350632 32.36128807 C70.08905151 32.36627901 68.31454882 32.36285103 66.54013252 32.35013962 C56.4943606 32.28389711 47.17917189 32.25679811 39.37171268 39.51340389 C34.96667943 44.4880753 33.75079951 48.24251343 33.69360352 54.81298828 C33.68528 55.49001297 33.67695648 56.16703766 33.66838074 56.86457825 C33.6443158 59.09988189 33.63551057 61.33489308 33.62890625 63.5703125 C33.61993312 65.13247766 33.61081115 66.69464196 33.60154724 68.25680542 C33.58506132 71.53352949 33.5773586 74.81015149 33.57446289 78.08691406 C33.56909727 82.26308721 33.53149245 86.43828469 33.48571873 90.61418343 C33.45579943 93.84350984 33.44873604 97.07260629 33.44773674 100.30205917 C33.44355931 101.84010127 33.43122564 103.37814564 33.41021919 104.91604996 C33.29967802 113.71342829 33.40799936 121.73393213 39 129 C44.92536483 133.91383604 50.01656434 135.12326463 57.63548279 135.13130188 C58.63374615 135.13447545 58.63374615 135.13447545 59.65217644 135.13771313 C61.88068304 135.14370141 64.10913282 135.14271383 66.33764648 135.1418457 C67.93601579 135.14487792 69.53438423 135.14839955 71.13275146 135.15237427 C74.5741784 135.16025792 78.01559499 135.16540613 81.45702934 135.16866493 C86.89855494 135.17457735 92.34001522 135.19111917 97.7815094 135.21000671 C99.64462562 135.21634387 101.50774189 135.2226695 103.37085819 135.22898388 C104.77030947 135.2337326 104.77030947 135.2337326 106.1980325 135.23857725 C118.86581552 135.28065645 131.53356773 135.31364033 144.20141602 135.32592773 C152.74764747 135.33430245 161.29371682 135.35676922 169.83986717 135.3952834 C174.36220203 135.41506014 178.88429447 135.42744321 183.40667534 135.42244911 C187.65936773 135.41780981 191.91160018 135.43156838 196.16419983 135.45946121 C197.72465569 135.4663845 199.28515899 135.46648731 200.84561348 135.45926094 C202.97680208 135.45038832 205.10646862 135.46603722 207.23753357 135.48774719 C208.42974738 135.49013555 209.62196119 135.4925239 210.8503027 135.49498463 C214.6231461 136.09991384 216.23473434 137.43125365 219 140 C222.52824646 142.16247364 224.52008391 142.25334732 229 143 C229 151.58 229 160.16 229 169 C225.68831284 169.00213753 225.68831284 169.00213753 222.3097229 169.00431824 C201.50410665 169.02011908 180.69867755 169.06346147 159.8931675 169.13209057 C149.19682164 169.16671306 138.50060429 169.1920925 127.80419922 169.19555664 C118.47894398 169.19860034 109.15391777 169.21914543 99.82875097 169.26052457 C94.89313258 169.28181934 89.95783952 169.29447326 85.02217484 169.28615379 C80.37136834 169.27859139 75.72121981 169.29452516 71.07053375 169.32806015 C69.36866825 169.33626709 67.66673699 169.33607456 65.96487808 169.32659721 C56.1055584 169.27715209 47.02683457 169.40796408 39.36904335 176.51329327 C34.96885154 181.49254157 33.75081459 185.24078138 33.69360352 191.81298828 C33.68528 192.49001297 33.67695648 193.16703766 33.66838074 193.86457825 C33.6443158 196.09988189 33.63551057 198.33489308 33.62890625 200.5703125 C33.61993312 202.13247766 33.61081115 203.69464196 33.60154724 205.25680542 C33.58506132 208.53352949 33.5773586 211.81015149 33.57446289 215.08691406 C33.56909727 219.26308721 33.53149245 223.43828469 33.48571873 227.61418343 C33.45579943 230.84350984 33.44873604 234.07260629 33.44773674 237.30205917 C33.44355931 238.84010127 33.43122564 240.37814564 33.41021919 241.91604996 C33.29967802 250.71342829 33.40799936 258.73393213 39 266 C45.13883623 271.09086538 50.35229792 272.11934231 58.23858643 272.15821838 C58.96887645 272.16315636 59.69916646 272.16809434 60.45158648 272.17318195 C62.89903716 272.18854198 65.34646162 272.19691352 67.79394531 272.20532227 C69.54820994 272.21490196 71.30247227 272.2249121 73.05673218 272.23532104 C77.82079145 272.26236621 82.58486062 272.2833779 87.3489542 272.30332303 C92.32711659 272.32518495 97.30524846 272.35257264 102.28338623 272.37937927 C111.71096682 272.42930335 121.13856436 272.47424326 130.56617808 272.51740164 C141.29885583 272.56677643 152.03150296 272.62169367 162.7641511 272.67708123 C184.84273888 272.79089691 206.92135589 272.89773688 229 273 C229.02187378 273.88353149 229.02187378 273.88353149 229.04418945 274.78491211 C229.11953764 277.50303802 229.21590384 280.22004942 229.3125 282.9375 C229.33505859 283.86369141 229.35761719 284.78988281 229.38085938 285.74414062 C229.5947348 291.28545842 230.35548504 295.94751507 232.36791992 301.12719727 C233 303 233 303 233 306 C204.43649003 306.09341982 175.87300294 306.16396777 147.30937099 306.20724869 C134.04693433 306.22787845 120.78459256 306.25600714 107.5222168 306.30175781 C95.96343376 306.34161269 84.40471944 306.3674298 72.8458696 306.37635398 C66.72489768 306.38157096 60.60412237 306.39384174 54.48321342 306.42292023 C48.72209281 306.45006776 42.96124984 306.4584462 37.20007133 306.45243073 C35.08570853 306.45353124 32.97133645 306.46148887 30.85702896 306.4768219 C27.96895606 306.49673912 25.08192979 306.49193255 22.1938324 306.48101807 C21.35821366 306.49266943 20.52259493 306.5043208 19.66165441 306.51632524 C13.97269915 306.4582593 10.69316062 305.25042503 6 302 C1.90895372 297.57724726 -0.2512716 293.98777505 -0.24609566 287.9319191 C-0.25007775 286.90332 -0.25405985 285.8747209 -0.25816262 284.81495214 C-0.25233693 283.68655565 -0.24651125 282.55815917 -0.24050903 281.39556885 C-0.24221788 280.19567031 -0.24392673 278.99577177 -0.24568737 277.75951266 C-0.24841492 274.42780143 -0.24215356 271.09632446 -0.23213124 267.76464152 C-0.223503 264.17231292 -0.22641646 260.57999169 -0.22793579 256.98765564 C-0.22898504 250.76331107 -0.22270428 244.5390084 -0.21146011 238.31467438 C-0.19521348 229.31531264 -0.18999797 220.31597118 -0.18748413 211.31659636 C-0.18310571 196.71609832 -0.16979263 182.11562262 -0.15087891 167.51513672 C-0.1325239 153.33121859 -0.11836554 139.14730652 -0.10986328 124.96337891 C-0.10933783 124.0892401 -0.10881239 123.21510129 -0.10827102 122.31447342 C-0.10566096 117.92922312 -0.10313354 113.54397277 -0.10064721 109.1587224 C-0.07991014 72.77246583 -0.04468062 36.38623465 0 0 Z " fill="#DFB698" transform="translate(41,149)"/>
<path d="M0 0 C62.7 0 125.4 0 190 0 C190.061875 24.62625 190.12375 49.2525 190.1875 74.625 C190.22846802 86.289646 190.22846802 86.289646 190.27026367 98.18994141 C190.28381348 107.68432617 190.28381348 107.68432617 190.28633118 112.12875366 C190.28912667 115.23355538 190.30037117 118.33820329 190.31672668 121.44296265 C190.33732038 125.40480169 190.34347047 129.36641741 190.33921683 133.32830501 C190.34010615 134.7813526 190.34604552 136.23440808 190.35764539 137.68740964 C190.37260579 139.65284737 190.36717048 141.6184086 190.36076355 143.58389282 C190.36352893 144.68451365 190.36629431 145.78513447 190.36914349 146.91910744 C189.7592446 152.00935832 187.90332441 155.15689722 184.1875 158.625 C181 161 181 161 177.75 162.9375 C174.33789811 165.08893906 174.33789811 165.08893906 173 171 C166.4 171 159.8 171 153 171 C152.01 168.525 152.01 168.525 151 166 C148.3850386 163.3850386 147.28151959 163.74771142 143.63677979 163.74171448 C142.49837646 163.73488647 141.35997314 163.72805847 140.18707275 163.72102356 C138.30444733 163.72485298 138.30444733 163.72485298 136.38378906 163.72875977 C134.36191403 163.72073645 132.34003901 163.71271073 130.31816435 163.70459449 C128.14052764 163.6977291 125.96293292 163.69573857 123.78528595 163.69503975 C119.24674237 163.69310168 114.70835204 163.67506175 110.16986084 163.65428162 C98.89323123 163.60505051 87.61655978 163.57422914 76.33984375 163.55297852 C67.58371382 163.53644972 58.82771462 163.51360754 50.0716722 163.46995777 C45.56233051 163.44819421 41.05323719 163.44012244 36.54384661 163.44235051 C33.73337651 163.44068073 30.92306769 163.42661305 28.11265564 163.40913773 C26.19346781 163.4008912 24.27423412 163.40746043 22.3550415 163.414505 C15.49997899 163.35697916 10.35858976 163.16143984 5.13671875 158.24609375 C4.41935547 157.35083984 4.41935547 157.35083984 3.6875 156.4375 C3.19636719 155.83808594 2.70523437 155.23867188 2.19921875 154.62109375 C-0.2241412 151.34521629 -0.12360186 149.06384263 -0.12025452 145.02694702 C-0.12163201 143.75631598 -0.12300951 142.48568493 -0.12442875 141.17654991 C-0.1208817 139.75490675 -0.1172438 138.33326382 -0.11352539 136.91162109 C-0.1132192 135.39951899 -0.11335231 133.88741675 -0.11389065 132.37531471 C-0.11411692 128.3166294 -0.10831036 124.25797342 -0.10128021 120.19929504 C-0.09559603 116.394337 -0.09531768 112.58938619 -0.09460449 108.78442383 C-0.08935184 97.64794532 -0.07539076 86.51147229 -0.0625 75.375 C-0.041875 50.50125 -0.02125 25.6275 0 0 Z " fill="#CBE7F8" transform="translate(285,292)"/>
<path d="M0 0 C0.72297734 -0.00427212 1.44595468 -0.00854425 2.19084042 -0.01294583 C4.60818288 -0.02116771 7.02378178 0.00629301 9.44096375 0.03364563 C11.17566894 0.03505629 12.91037711 0.03426378 14.64508057 0.03143311 C19.35150759 0.02999823 24.05729776 0.05939956 28.76357675 0.09430289 C33.68295836 0.12555445 38.6023545 0.12849619 43.52182007 0.13442993 C52.8361938 0.14997189 62.15027418 0.19100519 71.46451873 0.24117738 C82.06898638 0.29705982 92.67346802 0.32455459 103.27804625 0.34965456 C125.09125988 0.40192077 146.90407136 0.49361697 168.71708679 0.60127258 C168.71708679 25.02127258 168.71708679 49.44127258 168.71708679 74.60127258 C145.70823175 74.69151428 122.69951965 74.76522042 99.69053268 74.80852127 C89.00742515 74.82915964 78.32443524 74.85730461 67.6414032 74.9030304 C58.33169263 74.94285911 49.02206723 74.96869612 39.71227384 74.97762656 C34.78130378 74.98284803 29.85057743 74.99514684 24.91968536 75.02419281 C20.28055693 75.05129927 15.64177311 75.05972726 11.00257301 75.05370331 C9.29814851 75.05480569 7.59371274 75.062788 5.88935661 75.07809448 C3.56504823 75.09794846 1.24204694 75.09322953 -1.08229065 75.08229065 C-2.38386234 75.08597782 -3.68543404 75.08966499 -5.0264473 75.0934639 C-8.28291321 74.60127258 -8.28291321 74.60127258 -10.70078564 72.75339794 C-12.85076957 69.82883292 -12.79656373 67.87107291 -12.81636047 64.25971985 C-12.83219681 62.97481155 -12.84803314 61.68990326 -12.86434937 60.36605835 C-12.86050764 58.96659482 -12.85546845 57.56713413 -12.84931946 56.16767883 C-12.85455608 54.72805377 -12.8608327 53.28843215 -12.86810303 51.84881592 C-12.87850506 48.83343854 -12.87394979 45.81853311 -12.85932922 42.80317688 C-12.84214944 38.94474026 -12.86562499 35.08779395 -12.90081882 31.22952366 C-12.92281424 28.2568277 -12.92134627 25.2844871 -12.91305351 22.31173515 C-12.91223498 20.88960575 -12.91907985 19.46745 -12.93382454 18.0453968 C-12.9513026 16.05440359 -12.93338936 14.06319553 -12.91401672 12.07221985 C-12.91305496 10.94066971 -12.9120932 9.80911957 -12.91110229 8.64328003 C-11.44143718 1.52642251 -6.65421728 -0.02371425 0 0 Z " fill="#FAF0CE" transform="translate(101.28291320800781,332.3987274169922)"/>
<path d="M0 0 C0.74803438 -0.00779995 1.49606875 -0.01559991 2.26677084 -0.02363622 C4.76904902 -0.04355308 7.26980574 -0.02779415 9.77209473 -0.01205444 C11.56766141 -0.01883075 13.36322114 -0.02773395 15.1587677 -0.03860474 C20.0327921 -0.06140321 24.90628745 -0.05255947 29.78032112 -0.03670931 C34.88025466 -0.02405319 39.98014281 -0.03578962 45.08007812 -0.04364014 C53.6446547 -0.05273753 62.20901572 -0.0407464 70.77355957 -0.01693726 C80.6763332 0.01027415 90.57859213 0.00146006 100.48135328 -0.02606928 C108.98256827 -0.04875676 117.48362828 -0.05196219 125.98486376 -0.03887594 C131.06276416 -0.03107945 136.14042262 -0.03004531 141.2183075 -0.04655838 C145.99226673 -0.06099858 150.76556219 -0.05098967 155.53944969 -0.0220871 C157.29180486 -0.01547387 159.04421586 -0.01737803 160.79654884 -0.02840042 C163.1884443 -0.04205899 165.57821106 -0.02493951 167.9699707 0 C169.0110738 -0.01673041 169.0110738 -0.01673041 170.07320929 -0.03379881 C173.85815577 0.04279343 175.42029347 0.58337516 178.41919708 2.97274208 C181.04946529 6.36236208 181.06694601 8.21390453 180.9732666 12.46694946 C180.95715332 13.75923462 180.94104004 15.05151978 180.92443848 16.38296509 C180.88266809 17.73779978 180.84034344 19.09261749 180.79748535 20.44741821 C180.77238604 21.82172688 180.74957571 23.19607937 180.72912598 24.57046509 C180.67024996 27.92639797 180.58804955 31.28009911 180.48498535 34.63491821 C179.67964355 34.68390259 178.87430176 34.73288696 178.04455566 34.78335571 C176.97817871 34.85812134 175.91180176 34.93288696 174.81311035 35.00991821 C173.23384766 35.11433228 173.23384766 35.11433228 171.62268066 35.22085571 C163.22230792 36.32940163 157.33387659 40.88580968 152.10998535 47.34194946 C147.75556843 53.48628296 147.28855471 59.04278094 146.9185791 66.41616821 C146.87567749 67.20668579 146.83277588 67.99720337 146.78857422 68.81167603 C146.68376036 70.75256478 146.58388216 72.69371897 146.48498535 74.63491821 C126.34462035 74.72831166 106.20429922 74.79887292 86.06376266 74.8421669 C76.71239743 74.86280233 67.36116664 74.89094161 58.0098877 74.93667603 C49.86040669 74.97651383 41.71102305 75.00234389 33.56144738 75.01127219 C29.24526688 75.01649215 24.92936494 75.0287811 20.61327362 75.05783844 C16.55195844 75.08495939 12.49103695 75.09337003 8.42963982 75.08734894 C6.93807016 75.08845068 5.44648754 75.09642461 3.95499611 75.11174011 C1.92022824 75.13161191 -0.1147502 75.12447945 -2.14959717 75.11593628 C-3.2889333 75.11962345 -4.42826942 75.12331062 -5.60213089 75.12710953 C-9.17336748 74.52367603 -10.34830501 73.48809766 -12.51501465 70.63491821 C-13.02967834 67.71989441 -13.02967834 67.71989441 -13.04846191 64.29336548 C-13.06429825 63.00845718 -13.08013458 61.72354889 -13.09645081 60.39970398 C-13.09260908 59.00024045 -13.08756989 57.60077976 -13.0814209 56.20132446 C-13.08665752 54.7616994 -13.09293414 53.32207778 -13.10020447 51.88246155 C-13.1106065 48.86708417 -13.10605123 45.85217874 -13.09143066 42.83682251 C-13.07425088 38.97838589 -13.09772643 35.12143958 -13.13292027 31.26316929 C-13.15491568 28.29047333 -13.15344771 25.31813273 -13.14515495 22.34538078 C-13.14433642 20.92325138 -13.15118129 19.50109563 -13.16592598 18.07904243 C-13.18340404 16.08804922 -13.1654908 14.09684116 -13.14611816 12.10586548 C-13.1451564 10.97431534 -13.14419464 9.8427652 -13.14320374 8.67692566 C-11.66604958 1.52380243 -6.61598046 -0.10631808 0 0 Z " fill="#F9EFCD" transform="translate(101.5150146484375,195.36508178710938)"/>
<path d="M0 0 C7.26 0 14.52 0 22 0 C22.99 2.475 22.99 2.475 24 5 C26.37099884 7.37099884 26.82353252 7.25177199 30.04111671 7.26171303 C30.89156394 7.26917852 31.74201116 7.27664401 32.61822951 7.28433573 C33.55790426 7.282401 34.49757901 7.28046626 35.46572876 7.2784729 C36.95674687 7.2871615 36.95674687 7.2871615 38.47788656 7.29602563 C41.82985376 7.31311704 45.18168405 7.31590998 48.53369141 7.31884766 C50.92804811 7.32813953 53.32240155 7.33830707 55.7167511 7.34928894 C60.88251896 7.37100174 66.04826724 7.38658733 71.21406937 7.39665604 C78.68300287 7.4112243 86.15186701 7.43675583 93.62075989 7.46498732 C105.73771482 7.51048909 117.85467971 7.54708987 129.97167969 7.578125 C141.74415844 7.60829671 153.51661278 7.6426406 165.2890625 7.68261719 C166.01437698 7.68507874 166.73969146 7.68754028 167.48698516 7.69007643 C171.12557344 7.70245076 174.76416144 7.71490734 178.4027493 7.72740483 C208.60179948 7.83102329 238.80087732 7.92006202 269 8 C266 20 263 32 260 44 C221.9942997 44.09151603 183.98861598 44.16201863 145.98282783 44.20426132 C141.49791043 44.20926426 137.01299325 44.21444154 132.52807617 44.21972656 C131.63519391 44.2207758 130.74231164 44.22182505 129.82237234 44.22290608 C115.35686351 44.24032069 100.89141814 44.27186418 86.42594699 44.30861118 C71.58773397 44.34599125 56.74955424 44.36822963 41.91129607 44.37635398 C32.75213437 44.38184785 23.59315202 44.39921197 14.43404552 44.43166587 C8.15692343 44.45277756 1.87989434 44.45920765 -4.39726069 44.45400551 C-8.02120506 44.45143848 -11.64483559 44.45542781 -15.26872444 44.4768219 C-19.19511034 44.49983294 -23.12108502 44.49197042 -27.04753113 44.48101807 C-28.19636046 44.49266943 -29.34518979 44.5043208 -30.52883214 44.51632524 C-38.23446595 44.45796127 -38.23446595 44.45796127 -42.1845293 42.09493637 C-45.79666929 37.92675924 -45.25310925 34.04765474 -45.3125 28.75 C-45.34150391 27.90308594 -45.37050781 27.05617188 -45.40039062 26.18359375 C-45.4568972 20.5937898 -44.74197779 17.42357666 -41 13 C-36.26292928 8.82686627 -33.8740946 7.88379795 -27.6015625 7.82421875 C-25.67570312 7.78844727 -25.67570312 7.78844727 -23.7109375 7.75195312 C-21.66785902 7.71685459 -19.62537439 7.68750246 -17.58203125 7.67407227 C-15.60915512 7.65856973 -13.63654187 7.61671204 -11.6640625 7.57421875 C-9.89216553 7.55234497 -9.89216553 7.55234497 -8.08447266 7.5300293 C-4.40262396 6.89734816 -3.24314886 5.93219681 -1 3 C-0.67 2.01 -0.34 1.02 0 0 Z " fill="#57616D" transform="translate(60,90)"/>
<path d="M0 0 C0.85872208 -0.0049649 1.71744415 -0.00992981 2.60218811 -0.01504517 C5.45192254 -0.0296868 8.30160127 -0.03647286 11.15136719 -0.04199219 C13.12953697 -0.04774293 15.10770673 -0.05350068 17.08587646 -0.05926514 C21.23873149 -0.06978146 25.39156712 -0.07561968 29.54443359 -0.07910156 C34.86193515 -0.08458112 40.17917998 -0.10859501 45.4966011 -0.13707352 C49.58529402 -0.15571404 53.67392535 -0.1609063 57.76265717 -0.16243744 C59.72263743 -0.16546237 61.68261666 -0.17348553 63.64255524 -0.18662262 C66.38820286 -0.20370911 69.13322679 -0.20179626 71.87890625 -0.1953125 C72.68640823 -0.20452728 73.49391022 -0.21374207 74.32588196 -0.22323608 C79.18376926 -0.18736537 82.48011712 0.49532878 86.69824219 3.16113281 C91.05878576 8.16593688 92.35689486 14.06928031 94.01074219 20.34863281 C94.30779053 21.44071045 94.60483887 22.53278809 94.91088867 23.65795898 C97.40228791 32.87436642 99.77039996 42.1239346 102.12744141 51.37548828 C104.16046471 59.29169542 106.40088801 67.12130838 108.92114258 74.89672852 C110.24909469 79.10593983 111.09376157 82.68551873 110.69824219 87.16113281 C109.69824219 88.16113281 109.69824219 88.16113281 107.27944088 88.28418064 C105.65478075 88.28279795 105.65478075 88.28279795 103.99729919 88.28138733 C102.75904388 88.28276199 101.52078857 88.28413666 100.24501038 88.28555298 C98.86019874 88.28201337 97.47538734 88.27837855 96.09057617 88.2746582 C94.64217124 88.27437634 93.19376617 88.27453405 91.74536133 88.27510071 C87.80131905 88.27538871 83.85730691 88.26949161 79.91327167 88.26252675 C75.7959475 88.25629359 71.67862271 88.25568944 67.56129456 88.25450134 C59.75918356 88.25138791 51.95708651 88.24317437 44.15498167 88.23315185 C35.27483915 88.22199107 26.39469597 88.21648035 17.51454818 88.21145642 C-0.75756173 88.20099177 -19.02965865 88.18339211 -37.30175781 88.16113281 C-37.39305042 82.76800164 -36.72507333 78.2399903 -35.17675781 73.09863281 C-34.71372275 71.49860239 -34.25152014 69.89833088 -33.79003906 68.29785156 C-33.54592285 67.46044434 -33.30180664 66.62303711 -33.05029297 65.76025391 C-31.77265264 61.3239333 -30.57170645 56.8669669 -29.36425781 52.41113281 C-28.85785921 50.55302942 -28.3513477 48.69495679 -27.84472656 46.83691406 C-26.80095635 43.00223633 -25.76267976 39.1661172 -24.72753906 35.32910156 C-23.48734063 30.73458002 -22.22732055 26.14585486 -20.95703125 21.55957031 C-20.36703928 19.40007662 -19.80325989 17.23576324 -19.24707031 15.06738281 C-17.46881056 8.54219828 -16.18945117 4.74494616 -10.30175781 1.16113281 C-7.07490271 -0.45229474 -3.54562018 0.00485962 0 0 Z " fill="#F4EC84" transform="translate(370.3017578125,56.8388671875)"/>
<path d="M0 0 C0.9718222 -0.00700928 1.94364441 -0.01401855 2.94491577 -0.02124023 C6.13748276 -0.03875542 9.32915348 -0.02721922 12.52172852 -0.01367188 C14.75318063 -0.01636886 16.9846316 -0.020253 19.21607971 -0.02526855 C23.88554102 -0.03115504 28.55469555 -0.02262857 33.22412109 -0.00390625 C39.19371468 0.01886914 45.16258829 0.00576322 51.13215542 -0.01819611 C55.73827993 -0.03268816 60.34423531 -0.02803218 64.95036507 -0.01768494 C67.15067697 -0.01502639 69.35100448 -0.01825653 71.55129814 -0.02760315 C74.63356745 -0.03782321 77.7146905 -0.02219027 80.796875 0 C81.69637375 -0.00809692 82.5958725 -0.01619385 83.52262878 -0.02453613 C91.04486426 0.075207 97.00727287 2.07577917 102.83813477 6.89257812 C108.21945602 13.54009261 108.43037549 19.14900878 108.43188477 27.41601562 C108.43949829 28.56494293 108.44711182 29.71387024 108.45495605 30.89761353 C108.46574146 33.32332186 108.46861653 35.74907656 108.46411133 38.17480469 C108.46313986 41.87318936 108.50476614 45.56949315 108.54907227 49.26757812 C108.55428028 51.62955299 108.55696744 53.99153502 108.55688477 56.35351562 C108.57328003 57.45271332 108.58967529 58.55191101 108.60656738 59.68441772 C108.54503415 66.56901436 107.51188921 71.22918473 102.96313477 76.51757812 C99.11213165 80.29432949 96.11969279 82.63511047 90.66290283 82.66474915 C89.30869232 82.6754821 89.30869232 82.6754821 87.92712402 82.68643188 C86.43722961 82.69046524 86.43722961 82.69046524 84.91723633 82.69458008 C83.87319641 82.70115128 82.82915649 82.70772247 81.753479 82.7144928 C78.28690525 82.73425712 74.82037489 82.74589554 71.35375977 82.75585938 C69.58046925 82.76197267 69.58046925 82.76197267 67.77135468 82.76820946 C61.51399407 82.78908381 55.25665549 82.80337949 48.99926758 82.81274414 C42.5315742 82.82380992 36.06422475 82.8582083 29.59665298 82.89791584 C24.6278214 82.92404596 19.65907217 82.93243281 14.69017792 82.93602562 C12.30594307 82.94090107 9.92171214 82.95254214 7.53754425 82.97106361 C4.20028859 82.99537698 0.86392821 82.99450384 -2.47338867 82.98754883 C-3.45855469 83.00035889 -4.4437207 83.01316895 -5.45874023 83.02636719 C-12.76761685 82.97084562 -16.24882441 80.92543157 -21.78686523 76.14257812 C-26.87488638 70.20655345 -26.34401651 63.44847525 -26.33764648 56.02148438 C-26.34193161 54.91457748 -26.34621674 53.80767059 -26.35063171 52.66722107 C-26.3563625 50.33145836 -26.35688452 47.99567781 -26.35253906 45.65991211 C-26.34937924 42.09588038 -26.37285445 38.53267921 -26.39819336 34.96875 C-26.40046656 32.6946625 -26.40116975 30.42057278 -26.40014648 28.14648438 C-26.40935623 27.08587296 -26.41856598 26.02526154 -26.42805481 24.93251038 C-26.38252138 17.61384866 -25.58437023 12.64736997 -20.84936523 6.83007812 C-14.22093744 1.3800375 -8.48403406 -0.07619837 0 0 Z " fill="#A0DAFA" transform="translate(339.036865234375,331.482421875)"/>
<path d="M0 0 C0.87068981 -0.0055344 1.74137961 -0.01106879 2.63845396 -0.0167709 C5.54966683 -0.03036055 8.46001988 -0.01541729 11.37121582 -0.00050354 C13.46086491 -0.00428732 15.55051149 -0.00978785 17.64015198 -0.01687622 C23.3116129 -0.03084026 28.98277076 -0.01965421 34.65421486 -0.00316501 C40.58914047 0.01068346 46.52404844 0.00422564 52.45898438 0.0007019 C62.42570887 -0.00200037 72.39231295 0.01147697 82.35900879 0.03465271 C93.88227827 0.06126248 105.4053464 0.06300957 116.92863607 0.05126435 C128.01316498 0.04048553 139.09762104 0.04667448 150.18214417 0.06081963 C154.89972149 0.06657851 159.6172455 0.06649749 164.33482361 0.06175423 C169.89002011 0.0569823 175.44499612 0.06709528 181.00015068 0.08870888 C183.03912551 0.09427394 185.07812154 0.09474462 187.11709785 0.08975601 C189.90000599 0.0838011 192.68224044 0.09631245 195.46508789 0.11352539 C196.27229011 0.10751535 197.07949233 0.1015053 197.91115522 0.09531313 C202.74700083 0.14971695 206.02956086 0.85950312 210.23254395 3.50120544 C214.8938487 8.54045383 215.47549953 12.71396428 215.60754395 19.37620544 C215.66361816 20.43774841 215.66361816 20.43774841 215.7208252 21.52073669 C215.78252543 25.20218379 215.44743395 27.20530079 213.26959324 30.20419884 C209.13229934 33.33335168 206.17252963 33.20183903 201.11631775 33.13612366 C200.19606861 33.14392361 199.27581946 33.15172356 198.32768399 33.15975988 C195.24274817 33.17971056 192.15904174 33.16390302 189.07409668 33.1481781 C186.86312133 33.15495278 184.65215162 33.16385507 182.44119263 33.17472839 C176.4350729 33.19754442 170.42938206 33.18867594 164.42325473 33.17283297 C158.14304355 33.16018765 151.86286946 33.17191013 145.58265686 33.17976379 C134.36082977 33.18944674 123.13917977 33.17389526 111.91739435 33.14846711 C101.74150436 33.12612294 91.56589951 33.13001318 81.39001465 33.15306091 C69.5726295 33.17981401 57.75538247 33.18978146 45.93796116 33.17499959 C39.68247794 33.16719553 33.42719119 33.16619004 27.1717205 33.18268204 C21.29222508 33.19709979 15.4132695 33.18715384 9.53383255 33.15821075 C7.37307826 33.1515859 5.21227872 33.15352135 3.05154228 33.16452408 C0.10767204 33.17813533 -2.83445514 33.16111707 -5.7782135 33.13612366 C-6.6386149 33.14727727 -7.49901631 33.15843087 -8.38549048 33.16992247 C-14.16655772 33.07434355 -14.16655772 33.07434355 -17.29693508 30.08858299 C-18.70758227 27.6065532 -19.27917338 26.30979429 -19.29870605 23.50511169 C-19.3038623 22.7813031 -19.30901855 22.05749451 -19.31433105 21.31175232 C-19.29112793 20.19896912 -19.29112793 20.19896912 -19.26745605 19.06370544 C-19.2829248 18.32571716 -19.29839355 17.58772888 -19.31433105 16.82737732 C-19.27730875 11.62111604 -18.27006064 8.55838909 -14.76745605 4.50120544 C-9.76676782 0.38607823 -6.19866297 -0.07375872 0 0 Z " fill="#FAF0CE" transform="translate(281.7674560546875,244.49879455566406)"/>
<path d="M0 0 C68.6503125 -0.2165625 68.6503125 -0.2165625 138.6875 -0.4375 C153.15553467 -0.50122803 167.62356934 -0.56495605 182.5300293 -0.63061523 C200.15393066 -0.66223145 200.15393066 -0.66223145 208.39607239 -0.66810608 C214.17105449 -0.67464595 219.94556502 -0.70037278 225.72041321 -0.73902893 C232.37716714 -0.78352274 239.03346726 -0.80386698 245.69037108 -0.79411465 C249.09762699 -0.78988889 252.5030532 -0.80055829 255.91026247 -0.83450592 C259.55593578 -0.86915258 263.19904434 -0.86099924 266.84477234 -0.84178162 C267.91158643 -0.86217027 268.97840052 -0.88255892 270.0775423 -0.90356541 C277.15704476 -0.80275183 277.15704476 -0.80275183 279.58479273 1.50920856 C280.82220173 3.36511135 280.82220173 3.36511135 281.71248847 5.20537513 C283.32247811 7.74380329 283.32247811 7.74380329 289 10 C289 33.43 289 56.86 289 81 C278.11 81 267.22 81 256 81 C256 71.43 256 61.86 256 52 C256.33 52 256.66 52 257 52 C257 53.98 257 55.96 257 58 C267.23 58 277.46 58 288 58 C288 46.12 288 34.24 288 22 C193.29 22 98.58 22 1 22 C1 111.43 1 200.86 1 293 C0.67 293 0.34 293 0 293 C0 196.31 0 99.62 0 0 Z " fill="#D69983" transform="translate(41,149)"/>
<path d="M0 0 C0.9718222 -0.00700928 1.94364441 -0.01401855 2.94491577 -0.02124023 C6.13748276 -0.03875542 9.32915348 -0.02721922 12.52172852 -0.01367188 C14.75318063 -0.01636886 16.9846316 -0.020253 19.21607971 -0.02526855 C23.88554102 -0.03115504 28.55469555 -0.02262857 33.22412109 -0.00390625 C39.19371468 0.01886914 45.16258829 0.00576322 51.13215542 -0.01819611 C55.73827993 -0.03268816 60.34423531 -0.02803218 64.95036507 -0.01768494 C67.15067697 -0.01502639 69.35100448 -0.01825653 71.55129814 -0.02760315 C74.63356745 -0.03782321 77.7146905 -0.02219027 80.796875 0 C81.69637375 -0.00809692 82.5958725 -0.01619385 83.52262878 -0.02453613 C91.04486426 0.075207 97.00727287 2.07577917 102.83813477 6.89257812 C108.21945602 13.54009261 108.43037549 19.14900878 108.43188477 27.41601562 C108.43949829 28.56494293 108.44711182 29.71387024 108.45495605 30.89761353 C108.46574146 33.32332186 108.46861653 35.74907656 108.46411133 38.17480469 C108.46313986 41.87318936 108.50476614 45.56949315 108.54907227 49.26757812 C108.55428028 51.62955299 108.55696744 53.99153502 108.55688477 56.35351562 C108.57328003 57.45271332 108.58967529 58.55191101 108.60656738 59.68441772 C108.54503415 66.56901436 107.51188921 71.22918473 102.96313477 76.51757812 C99.11213165 80.29432949 96.11969279 82.63511047 90.66290283 82.66474915 C89.30869232 82.6754821 89.30869232 82.6754821 87.92712402 82.68643188 C86.43722961 82.69046524 86.43722961 82.69046524 84.91723633 82.69458008 C83.87319641 82.70115128 82.82915649 82.70772247 81.753479 82.7144928 C78.28690525 82.73425712 74.82037489 82.74589554 71.35375977 82.75585938 C69.58046925 82.76197267 69.58046925 82.76197267 67.77135468 82.76820946 C61.51399407 82.78908381 55.25665549 82.80337949 48.99926758 82.81274414 C42.5315742 82.82380992 36.06422475 82.8582083 29.59665298 82.89791584 C24.6278214 82.92404596 19.65907217 82.93243281 14.69017792 82.93602562 C12.30594307 82.94090107 9.92171214 82.95254214 7.53754425 82.97106361 C4.20028859 82.99537698 0.86392821 82.99450384 -2.47338867 82.98754883 C-3.45855469 83.00035889 -4.4437207 83.01316895 -5.45874023 83.02636719 C-12.76761685 82.97084562 -16.24882441 80.92543157 -21.78686523 76.14257812 C-26.87488638 70.20655345 -26.34401651 63.44847525 -26.33764648 56.02148438 C-26.34193161 54.91457748 -26.34621674 53.80767059 -26.35063171 52.66722107 C-26.3563625 50.33145836 -26.35688452 47.99567781 -26.35253906 45.65991211 C-26.34937924 42.09588038 -26.37285445 38.53267921 -26.39819336 34.96875 C-26.40046656 32.6946625 -26.40116975 30.42057278 -26.40014648 28.14648438 C-26.40935623 27.08587296 -26.41856598 26.02526154 -26.42805481 24.93251038 C-26.38252138 17.61384866 -25.58437023 12.64736997 -20.84936523 6.83007812 C-14.22093744 1.3800375 -8.48403406 -0.07619837 0 0 Z M-11.03686523 18.51757812 C-11.48317104 20.69750954 -11.48317104 20.69750954 -11.40917969 23.14086914 C-11.41540848 24.07516251 -11.42163727 25.00945587 -11.42805481 25.97206116 C-11.41884506 26.97837082 -11.40963531 27.98468048 -11.40014648 29.02148438 C-11.40064499 30.0557103 -11.40114349 31.08993622 -11.4016571 32.15550232 C-11.39931621 34.34188763 -11.38958682 36.52827561 -11.37304688 38.71459961 C-11.34943338 42.07039339 -11.35248852 45.42539416 -11.35913086 48.78125 C-11.35355497 50.90299955 -11.34644566 53.02474574 -11.33764648 55.14648438 C-11.33855789 56.15481827 -11.3394693 57.16315216 -11.34040833 58.20204163 C-11.33087631 59.13318283 -11.3213443 60.06432404 -11.31152344 61.02368164 C-11.30691605 61.84514175 -11.30230865 62.66660187 -11.29756165 63.51295471 C-11.21430865 65.74680971 -11.21430865 65.74680971 -9.03686523 67.51757812 C-7.1712672 67.82014953 -7.1712672 67.82014953 -5.01342773 67.77154541 C-3.75151611 67.78000488 -3.75151611 67.78000488 -2.46411133 67.78863525 C-1.53937012 67.78458679 -0.61462891 67.78053833 0.33813477 67.77636719 C1.31057129 67.77987183 2.28300781 67.78337646 3.28491211 67.7869873 C6.51105817 67.79581614 9.73698634 67.78995137 12.96313477 67.78320312 C15.1975102 67.78454944 17.43188534 67.78648969 19.66625977 67.78900146 C24.35378808 67.79195429 29.04124028 67.78764996 33.72875977 67.77832031 C39.74835264 67.76692573 45.76776719 67.77348435 51.78735352 67.78546524 C56.40260165 67.79267954 61.01780725 67.79039789 65.63305664 67.78520966 C67.85310894 67.78387197 70.07316505 67.78552501 72.29321289 67.79016876 C75.3916248 67.79522691 78.4897447 67.78753371 81.58813477 67.77636719 C82.97524658 67.78243988 82.97524658 67.78243988 84.39038086 67.78863525 C85.23165527 67.78299561 86.07292969 67.77735596 86.93969727 67.77154541 C88.03918701 67.77041433 88.03918701 67.77041433 89.16088867 67.76926041 C91.21555099 67.66683733 91.21555099 67.66683733 92.96313477 65.51757812 C93.2754458 63.43844581 93.2754458 63.43844581 93.23779297 61.02368164 C93.24732498 60.09254044 93.25685699 59.16139923 93.26667786 58.20204163 C93.26576645 57.19370773 93.26485504 56.18537384 93.26391602 55.14648438 C93.2703437 53.59658058 93.2703437 53.59658058 93.27690125 52.0153656 C93.2826516 49.82722711 93.28313964 47.6390695 93.27880859 45.45092773 C93.27565085 42.09716254 93.29909186 38.74428088 93.32446289 35.390625 C93.32673597 33.26757924 93.32743934 31.1445311 93.32641602 29.02148438 C93.33562576 28.01517471 93.34483551 27.00886505 93.35432434 25.97206116 C93.34809555 25.03776779 93.34186676 24.10347443 93.33544922 23.14086914 C93.33639336 21.90748558 93.33639336 21.90748558 93.33735657 20.64918518 C92.86450123 17.95575107 92.07475521 17.21449314 89.96313477 15.51757812 C88.03866568 15.06977281 88.03866568 15.06977281 85.90209961 15.1366272 C85.077724 15.12816772 84.25334839 15.11970825 83.4039917 15.11099243 C82.50311829 15.11706512 81.60224487 15.12313782 80.67407227 15.12939453 C79.72260315 15.12413757 78.77113403 15.11888062 77.79083252 15.11346436 C74.63976721 15.10024004 71.48920538 15.10901117 68.33813477 15.11914062 C66.15242414 15.11712059 63.96671417 15.11420975 61.78100586 15.11044312 C57.19777008 15.10601646 52.61470957 15.1124619 48.03149414 15.12646484 C42.14983164 15.14355678 36.2685798 15.13371745 30.38693237 15.11574745 C25.87285251 15.10491891 21.35887037 15.10835171 16.8447876 15.11613083 C14.6758011 15.1181354 12.5068058 15.11566458 10.33782959 15.10869217 C7.30904558 15.10109309 4.28093126 15.11266049 1.25219727 15.12939453 C0.35132385 15.12332184 -0.54954956 15.11724915 -1.47772217 15.11099243 C-2.30209778 15.1194519 -3.12647339 15.12791138 -3.97583008 15.1366272 C-4.69185394 15.13775827 -5.40787781 15.13888935 -6.14559937 15.1400547 C-8.60463672 15.63091335 -9.50224292 16.57216541 -11.03686523 18.51757812 Z " fill="#030405" transform="translate(339.036865234375,331.482421875)"/>
<path d="M0 0 C62.7 0 125.4 0 190 0 C190 7.59 190 15.18 190 23 C127.3 23 64.6 23 0 23 C0 15.41 0 7.82 0 0 Z " fill="#A1DBFA" transform="translate(285,292)"/>
<path d="M0 0 C1.50863365 -0.01051392 1.50863365 -0.01051392 3.04774475 -0.02124023 C6.3575538 -0.03878183 9.66650129 -0.02721148 12.97631836 -0.01367188 C15.28364729 -0.01636767 17.59097512 -0.02025081 19.89830017 -0.02526855 C24.72755783 -0.03115825 29.55651905 -0.02261655 34.38574219 -0.00390625 C40.57200464 0.01889537 46.75757338 0.0057486 52.94381046 -0.01819611 C57.70593992 -0.03265719 62.46790517 -0.02804679 67.2300396 -0.01768494 C69.51098144 -0.0150192 71.79193827 -0.01828201 74.07286263 -0.02760315 C77.26121597 -0.03777486 80.44844875 -0.02225836 83.63671875 0 C85.04658051 -0.01214539 85.04658051 -0.01214539 86.48492432 -0.02453613 C93.39903554 0.06477441 96.83318387 2.05822803 102.12866211 6.51757812 C103.75366211 9.51757812 103.75366211 9.51757812 103.75366211 21.51757812 C62.83366211 21.51757812 21.91366211 21.51757812 -20.24633789 21.51757812 C-20.24633789 9.51757812 -20.24633789 9.51757812 -17.24633789 4.51757812 C-11.56548879 0.26659216 -6.95726484 -0.06006336 0 0 Z " fill="#A2A2A2" transform="translate(365.246337890625,208.482421875)"/>
<path d="M0 0 C58.08 0 116.16 0 176 0 C176 24.42 176 48.84 176 74 C168.41 74 160.82 74 153 74 C153 49.91 153 25.82 153 1 C102.51 1 52.02 1 0 1 C0 0.67 0 0.34 0 0 Z " fill="#F4DCBA" transform="translate(94,333)"/>
<path d="M0 0 C0 7.59 0 15.18 0 23 C-2.660625 23.0928125 -2.660625 23.0928125 -5.375 23.1875 C-14.1950995 23.96574407 -20.3353768 26.87692744 -26.4375 33.3125 C-33.93001444 42.57240192 -33.54712285 51.40634506 -34 63 C-41.59 63 -49.18 63 -57 63 C-57.48653094 45.64706326 -55.01813287 30.80691095 -43.3125 17.1875 C-31.24819608 4.6723626 -17.1113357 0 0 0 Z " fill="#F9DFBC" transform="translate(282,207)"/>
<path d="M0 0 C0.68666245 -0.00700928 1.37332489 -0.01401855 2.08079529 -0.02124023 C4.34529338 -0.038812 6.6085366 -0.02720182 8.87304688 -0.01367188 C10.4495874 -0.01636706 12.0261263 -0.0202497 13.60266113 -0.02526855 C16.90470221 -0.03116244 20.2063101 -0.02260466 23.50830078 -0.00390625 C27.73880748 0.01888381 31.96829915 0.00576006 36.19876862 -0.01819611 C39.4536299 -0.03265739 42.70825094 -0.02804671 45.96311951 -0.01768494 C47.52282329 -0.01501853 49.08254895 -0.01828442 50.64222717 -0.02760315 C52.8232695 -0.0377749 55.00267334 -0.02226229 57.18359375 0 C58.42395386 0.00318237 59.66431396 0.00636475 60.94226074 0.00964355 C64.67311272 0.61132857 65.85795284 1.52046862 68.09179688 4.51757812 C68.65429688 7.45507812 68.65429688 7.45507812 68.09179688 10.51757812 C65.51465012 13.75857326 64.01865591 15.33489275 59.90466309 16.14576721 C58.10527283 16.14720985 58.10527283 16.14720985 56.26953125 16.14868164 C55.60383621 16.15583694 54.93814117 16.16299225 54.25227356 16.17036438 C52.06265587 16.18720505 49.8750994 16.16788014 47.68554688 16.14648438 C46.15767244 16.14731352 44.62979809 16.14977463 43.10192871 16.15379333 C39.90410422 16.15664812 36.70698138 16.1419827 33.50927734 16.11450195 C29.41673401 16.08041862 25.32544488 16.0864398 21.23284149 16.10516453 C18.07913823 16.11574915 14.92572524 16.10678365 11.77204895 16.09177971 C10.26342125 16.0866081 8.75476311 16.08706731 7.24613953 16.09332466 C5.13478764 16.09879505 3.02521178 16.07834834 0.9140625 16.05102539 C-0.28553101 16.04482681 -1.48512451 16.03862823 -2.72106934 16.03224182 C-6.55108772 15.41376404 -8.23144828 14.29162197 -10.90820312 11.51757812 C-11.47070312 8.01757812 -11.47070312 8.01757812 -10.90820312 4.51757812 C-7.74966233 0.21056449 -5.18697829 0.01330815 0 0 Z " fill="#040404" transform="translate(156.908203125,362.482421875)"/>
<path d="M0 0 C0.68666245 -0.00700928 1.37332489 -0.01401855 2.08079529 -0.02124023 C4.34529338 -0.038812 6.6085366 -0.02720182 8.87304688 -0.01367188 C10.4495874 -0.01636706 12.0261263 -0.0202497 13.60266113 -0.02526855 C16.90470221 -0.03116244 20.2063101 -0.02260466 23.50830078 -0.00390625 C27.73880748 0.01888381 31.96829915 0.00576006 36.19876862 -0.01819611 C39.4536299 -0.03265739 42.70825094 -0.02804671 45.96311951 -0.01768494 C47.52282329 -0.01501853 49.08254895 -0.01828442 50.64222717 -0.02760315 C52.8232695 -0.0377749 55.00267334 -0.02226229 57.18359375 0 C58.42395386 0.00318237 59.66431396 0.00636475 60.94226074 0.00964355 C64.67311272 0.61132857 65.85795284 1.52046862 68.09179688 4.51757812 C68.65429688 7.45507812 68.65429688 7.45507812 68.09179688 10.51757812 C65.51465012 13.75857326 64.01865591 15.33489275 59.90466309 16.14576721 C58.10527283 16.14720985 58.10527283 16.14720985 56.26953125 16.14868164 C55.60383621 16.15583694 54.93814117 16.16299225 54.25227356 16.17036438 C52.06265587 16.18720505 49.8750994 16.16788014 47.68554688 16.14648438 C46.15767244 16.14731352 44.62979809 16.14977463 43.10192871 16.15379333 C39.90410422 16.15664812 36.70698138 16.1419827 33.50927734 16.11450195 C29.41673401 16.08041862 25.32544488 16.0864398 21.23284149 16.10516453 C18.07913823 16.11574915 14.92572524 16.10678365 11.77204895 16.09177971 C10.26342125 16.0866081 8.75476311 16.08706731 7.24613953 16.09332466 C5.13478764 16.09879505 3.02521178 16.07834834 0.9140625 16.05102539 C-0.28553101 16.04482681 -1.48512451 16.03862823 -2.72106934 16.03224182 C-6.55108772 15.41376404 -8.23144828 14.29162197 -10.90820312 11.51757812 C-11.47070312 8.01757812 -11.47070312 8.01757812 -10.90820312 4.51757812 C-7.74966233 0.21056449 -5.18697829 0.01330815 0 0 Z " fill="#040404" transform="translate(156.908203125,225.482421875)"/>
<path d="M0 0 C58.08 0 116.16 0 176 0 C176.33 6.93 176.66 13.86 177 21 C177.99 23.97 178.98 26.94 180 30 C180 30.99 180 31.98 180 33 C107.4 33 34.8 33 -40 33 C-40 32.67 -40 32.34 -40 32 C24.68 32 89.36 32 156 32 C155.01 29.525 155.01 29.525 154 27 C152.57415533 18.44493196 153 9.67307455 153 1 C102.51 1 52.02 1 0 1 C0 0.67 0 0.34 0 0 Z " fill="#C28F79" transform="translate(94,422)"/>
<path d="M0 0 C20.90539571 -0.0934164 41.81075704 -0.16396601 62.71631908 -0.20724869 C72.42301089 -0.22787922 82.12957305 -0.25600922 91.83618164 -0.30175781 C100.29587255 -0.34161052 108.75546957 -0.36742924 117.21525174 -0.37635398 C121.69522142 -0.38157139 126.1749225 -0.39384434 130.65480614 -0.42292023 C134.87124724 -0.45006464 139.08730902 -0.45844702 143.30382919 -0.45243073 C144.85141753 -0.4535314 146.39901851 -0.46149131 147.9465313 -0.4768219 C150.06033484 -0.4967358 152.1727079 -0.4919357 154.2865448 -0.48101807 C155.4692052 -0.48470524 156.6518656 -0.48839241 157.87036419 -0.49219131 C161.63622331 0.10005752 163.2408857 1.43808746 166 4 C169.52824646 6.16247364 171.52008391 6.25334732 176 7 C176 15.58 176 24.16 176 33 C168.41 33 160.82 33 153 33 C152.67 29.7 152.34 26.4 152 23 C150.03882741 20.27770266 150.03882741 20.27770266 147.3125 18.4375 C141.28867366 13.57011023 136.90333853 8.61335414 135 1 C90.45 1 45.9 1 0 1 C0 0.67 0 0.34 0 0 Z " fill="#D09680" transform="translate(94,285)"/>
<path d="M0 0 C7.26 0 14.52 0 22 0 C22 11.22 22 22.44 22 34 C14.74 34 7.48 34 0 34 C0 22.78 0 11.56 0 0 Z " fill="#58626E" transform="translate(396,160)"/>
<path d="M0 0 C5.50641113 0.25463173 5.50641113 0.25463173 7.6856842 1.86671448 C9.25492825 3.98540266 9.34944864 5.10807359 9.36889648 7.72631836 C9.38158066 8.55405258 9.39426483 9.3817868 9.40733337 10.23460388 C9.40439774 11.12527054 9.4014621 12.01593719 9.3984375 12.93359375 C9.40367935 13.8520961 9.4089212 14.77059845 9.4143219 15.7169342 C9.42074534 17.6595051 9.41940094 19.60211487 9.41088867 21.54467773 C9.40238504 24.51681859 9.43112481 27.4870338 9.46289062 30.45898438 C9.46450288 32.34635359 9.46392464 34.23372621 9.4609375 36.12109375 C9.47778847 37.45405739 9.47778847 37.45405739 9.49497986 38.81394958 C9.42563432 44.95599929 9.42563432 44.95599929 7.11743164 48.15063477 C4.12089613 50.15954045 2.50320062 50.24365228 -1.03515625 49.59375 C-3.69647549 47.60443653 -5.69616132 46.00440559 -6.49758911 42.66943359 C-6.6801701 40.34857061 -6.70208929 38.07776549 -6.6640625 35.75 C-6.66647446 34.90328735 -6.66888641 34.05657471 -6.67137146 33.1842041 C-6.67039456 31.39895939 -6.65703822 29.6136838 -6.63208008 27.82861328 C-6.59776185 25.1021392 -6.6114296 22.37890688 -6.63085938 19.65234375 C-6.62396058 17.91404876 -6.6142879 16.1757621 -6.6015625 14.4375 C-6.60652237 13.62591431 -6.61148224 12.81432861 -6.61659241 11.97814941 C-6.53407116 7.99550891 -6.30911765 6.02670435 -4.12695312 2.578125 C-2.03515625 0.59375 -2.03515625 0.59375 0 0 Z " fill="#070704" transform="translate(405.03515625,76.40625)"/>
<path d="M0 0 C2.375 1.5625 2.375 1.5625 4 4 C4.5625 7.5 4.5625 7.5 4 11 C1.58140437 13.69500656 -0.00763965 14.80636871 -3.5625 15.5 C-6.9249123 14.8102744 -8.0486167 13.81866476 -10 11 C-10.56783945 7.02512383 -10.62340519 4.93510779 -8.375 1.5625 C-5.28314769 -0.47161336 -3.63632575 -0.60605429 0 0 Z " fill="#050708" transform="translate(383,366)"/>
</svg>
