<?xml version="1.0" encoding="UTF-8"?>
<svg version="1.1" xmlns="http://www.w3.org/2000/svg" width="512" height="512">
<path d="M0 0 C11.73375399 9.20675577 17.62784639 19.01716772 22 33 C27.43739049 34.64658527 32.73296503 35.64550811 38 33 C40.00437134 30.17664777 41.40866136 27.23666784 42.93017578 24.1277771 C46.58109232 16.93764207 50.76448862 9.15356843 58.84152222 6.46572876 C68.14115766 4.14802314 77.88130578 4.41788927 87.39208984 4.74072266 C91.65808221 4.88359253 95.88525421 4.79919148 100.14990139 4.65444469 C124.50698299 3.95616122 124.50698299 3.95616122 131.6191597 9.1919899 C137.06303545 14.35361502 140.21703436 20.77219137 143.43383789 27.4519043 C145.29789521 31.02481744 146.13870515 32.63370209 149.87815857 34.2240448 C155.67731452 35.23218449 161.22369059 35.00014552 167.02319336 34.07788086 C167.67553955 34.05218018 168.32788574 34.02647949 169 34 C171 36 171 36 171.22705078 39.43994141 C171.22673369 40.91051979 171.21540987 42.38112142 171.1953125 43.8515625 C171.19106766 45.01261002 171.19106766 45.01261002 171.18673706 46.19711304 C171.17552754 48.67323157 171.15042203 51.1489905 171.125 53.625 C171.11497118 55.30207812 171.10584516 56.97916189 171.09765625 58.65625 C171.07558574 62.77097223 171.04105102 66.88542511 171 71 C172.17030762 71.43082886 172.17030762 71.43082886 173.36425781 71.87036133 C176.82442406 73.35333551 178.00422981 74.8059148 180 78 C180.99244279 80.89321107 181.6376636 83.81857655 182.25 86.8125 C182.42273438 87.60076172 182.59546875 88.38902344 182.7734375 89.20117188 C183.19459378 91.1314715 183.59900484 93.06541164 184 95 C184.7115625 94.71382813 185.423125 94.42765625 186.15625 94.1328125 C187.0946875 93.75898437 188.033125 93.38515625 189 93 C189.8765625 92.64679688 190.753125 92.29359375 191.65625 91.9296875 C202.52458967 87.89884724 213.22188102 87.36575992 224 92 C237.26842407 98.40827912 245.33803934 108.26791554 250.25 121.9375 C251.94900563 127.27429592 252.75286431 132.41473341 253 138 C253.65226562 137.71125 254.30453125 137.4225 254.9765625 137.125 C264.27849502 133.17373663 264.27849502 133.17373663 269 134 C271.18696213 137.2804432 271.25031491 138.21428161 271.25168228 142.0152483 C271.25689778 143.05760633 271.26211327 144.09996437 271.26748681 145.17390901 C271.26302537 146.3229053 271.25856392 147.47190158 271.25396729 148.65571594 C271.25708727 149.873467 271.26020725 151.09121807 271.26342177 152.34587067 C271.27003488 155.73261416 271.26763289 159.11913689 271.26144934 162.50586712 C271.25693573 166.15643087 271.26390353 169.80697492 271.26940918 173.45753479 C271.27831945 180.61470084 271.27637306 187.77182502 271.2705839 194.92899273 C271.26606995 200.75069681 271.26545336 206.57238914 271.26763153 212.39409447 C271.267938 213.22225425 271.26824446 214.05041403 271.26856022 214.90366956 C271.26919967 216.58612473 271.2698481 218.26857989 271.2705054 219.95103505 C271.27621448 235.74522401 271.26964378 251.53938981 271.25890467 267.33357497 C271.2499868 280.86733313 271.25150549 294.40105693 271.26074219 307.93481445 C271.27146601 323.6548439 271.27564596 339.37485294 271.26951766 355.09488553 C271.26888059 356.77456772 271.26825185 358.45424992 271.26763153 360.13393211 C271.26732298 360.96031026 271.26701443 361.78668841 271.26669653 362.63810832 C271.26497456 368.44297659 271.26787432 374.24783187 271.27259064 380.05269814 C271.27822376 387.14196773 271.27663298 394.23119309 271.26602915 401.32045767 C271.26080216 404.93328802 271.25866417 408.54604485 271.26532745 412.15887451 C271.27246462 416.08844516 271.26389527 420.0178976 271.25396729 423.94746399 C271.25842873 425.07192234 271.26289017 426.19638069 271.26748681 427.35491353 C271.17904427 445.51729128 267.78029635 460.82255032 256 475 C255.47921875 475.64582031 254.9584375 476.29164063 254.421875 476.95703125 C249.22323299 482.7726838 242.07518745 486.85335282 235 490 C234.24494171 490.34379951 233.48988342 490.68759903 232.71194458 491.04181671 C220.57848648 495.61584128 207.60887715 494.55971359 194.84375 494.51757812 C192.08462222 494.52080535 189.32552101 494.52998547 186.56640625 494.53881836 C179.87345541 494.55652923 173.18068483 494.55279699 166.48772717 494.5411678 C161.0442934 494.5321043 155.60090986 494.53092203 150.1574707 494.53526306 C148.99176505 494.53618246 148.99176505 494.53618246 147.80250978 494.53712043 C146.22337022 494.53839944 144.64423067 494.53969629 143.06509113 494.5410108 C128.28568698 494.55239482 113.50638234 494.53933719 98.72699451 494.51780933 C86.06794654 494.49994032 73.40904533 494.50304504 60.75 494.52148438 C46.02055194 494.54292969 31.29119093 494.55129639 16.56172943 494.53903532 C14.98866273 494.53776123 13.41559602 494.53650375 11.8425293 494.53526306 C11.0687143 494.53464596 10.2948993 494.53402886 9.49763536 494.53339306 C4.06586637 494.52995112 -1.36584704 494.53574345 -6.79760742 494.54518127 C-13.4244868 494.55644345 -20.05117686 494.55327319 -26.67803478 494.5320583 C-30.05400866 494.52160393 -33.42940925 494.51951128 -36.80541992 494.53065491 C-62.87430855 494.60874594 -62.87430855 494.60874594 -73 490 C-74.45339783 489.34780865 -74.45339783 489.34780865 -75.93615723 488.68244171 C-90.54620792 481.75697041 -100.07275234 469.5366641 -105.921875 454.796875 C-108.70118987 445.00885306 -109.29389436 435.15383031 -109.25396729 425.02975464 C-109.25708727 423.79161455 -109.26020725 422.55347447 -109.26342177 421.27781498 C-109.26996491 417.88102504 -109.26768358 414.4844599 -109.26144934 411.08768415 C-109.2568914 407.4095585 -109.26392472 403.73145134 -109.26940918 400.05332947 C-109.27826677 392.86646703 -109.27639823 385.67964655 -109.2705839 378.49278252 C-109.26605656 372.65406064 -109.26545912 366.81535048 -109.26763153 360.97662735 C-109.267938 360.14387115 -109.26824446 359.31111496 -109.26856022 358.45312373 C-109.26919969 356.76122386 -109.26984812 355.069324 -109.2705054 353.37742414 C-109.27619711 337.54489595 -109.26966718 321.71239099 -109.25890467 305.87986661 C-109.2499537 292.29099325 -109.25153613 278.70215402 -109.26074219 265.11328125 C-109.27143692 249.319672 -109.27566524 233.526083 -109.26951766 217.73247063 C-109.26888057 216.05005209 -109.26825183 214.36763354 -109.26763153 212.685215 C-109.26732298 211.85747478 -109.26701443 211.02973457 -109.26669653 210.17691132 C-109.26496842 204.33920745 -109.26788683 198.50151642 -109.27259064 192.66381454 C-109.27818987 185.55910173 -109.27670257 178.45443313 -109.26602915 171.34972541 C-109.26076204 167.72401155 -109.25873354 164.09837152 -109.26532745 160.47265816 C-109.27235652 156.54853304 -109.26398183 152.62452966 -109.25396729 148.70040894 C-109.25842873 147.54683958 -109.26289017 146.39327022 -109.26748681 145.20474422 C-109.26227132 144.15828609 -109.25705582 143.11182796 -109.25168228 142.03365898 C-109.25135758 141.12747853 -109.25103287 140.22129808 -109.25069833 139.28765762 C-109 137 -109 137 -107 134 C-102.8298272 133.28801928 -100.01746145 134.30919049 -96.28515625 136.02734375 C-95.48086182 136.394646 -94.67656738 136.76194824 -93.84790039 137.14038086 C-93.23809326 137.42405518 -92.62828613 137.70772949 -92 138 C-91.99191315 136.85122879 -91.98382629 135.70245758 -91.97549438 134.51887512 C-91.89772239 123.64759863 -91.80990695 112.77644253 -91.71247292 101.90532398 C-91.66270839 96.31752272 -91.61637787 90.72973857 -91.578125 85.1418457 C-91.54101996 79.74064123 -91.49459441 74.33958724 -91.44193649 68.9385128 C-91.42352563 66.88667145 -91.40836962 64.834798 -91.39665604 62.78290749 C-91.26736137 40.90022629 -89.52853654 21.97996817 -73.75 5.3125 C-54.06425253 -13.61483509 -22.149912 -16.14498456 0 0 Z " fill="#FBC14C" transform="translate(175,14)"/>
<path d="M0 0 C11.73375399 9.20675577 17.62784639 19.01716772 22 33 C27.43739049 34.64658527 32.73296503 35.64550811 38 33 C40.00437134 30.17664777 41.40866136 27.23666784 42.93017578 24.1277771 C46.58109232 16.93764207 50.76448862 9.15356843 58.84152222 6.46572876 C68.14115766 4.14802314 77.88130578 4.41788927 87.39208984 4.74072266 C91.65808221 4.88359253 95.88525421 4.79919148 100.14990139 4.65444469 C124.50698299 3.95616122 124.50698299 3.95616122 131.6191597 9.1919899 C137.06303545 14.35361502 140.21703436 20.77219137 143.43383789 27.4519043 C145.29789521 31.02481744 146.13870515 32.63370209 149.87815857 34.2240448 C155.67731452 35.23218449 161.22369059 35.00014552 167.02319336 34.07788086 C167.67553955 34.05218018 168.32788574 34.02647949 169 34 C171 36 171 36 171.22705078 39.43994141 C171.22673369 40.91051979 171.21540987 42.38112142 171.1953125 43.8515625 C171.19106766 45.01261002 171.19106766 45.01261002 171.18673706 46.19711304 C171.17552754 48.67323157 171.15042203 51.1489905 171.125 53.625 C171.11497118 55.30207812 171.10584516 56.97916189 171.09765625 58.65625 C171.07558574 62.77097223 171.04105102 66.88542511 171 71 C172.17030762 71.43082886 172.17030762 71.43082886 173.36425781 71.87036133 C176.82442406 73.35333551 178.00422981 74.8059148 180 78 C180.99244279 80.89321107 181.6376636 83.81857655 182.25 86.8125 C182.42273438 87.60076172 182.59546875 88.38902344 182.7734375 89.20117188 C183.19459378 91.1314715 183.59900484 93.06541164 184 95 C184.7115625 94.71382813 185.423125 94.42765625 186.15625 94.1328125 C187.0946875 93.75898437 188.033125 93.38515625 189 93 C189.8765625 92.64679688 190.753125 92.29359375 191.65625 91.9296875 C202.52458967 87.89884724 213.22188102 87.36575992 224 92 C237.26842407 98.40827912 245.33803934 108.26791554 250.25 121.9375 C251.94900563 127.27429592 252.75286431 132.41473341 253 138 C253.65226562 137.71125 254.30453125 137.4225 254.9765625 137.125 C264.27849502 133.17373663 264.27849502 133.17373663 269 134 C271.18696213 137.2804432 271.25031491 138.21428161 271.25168228 142.0152483 C271.25689778 143.05760633 271.26211327 144.09996437 271.26748681 145.17390901 C271.26302537 146.3229053 271.25856392 147.47190158 271.25396729 148.65571594 C271.25708727 149.873467 271.26020725 151.09121807 271.26342177 152.34587067 C271.27003488 155.73261416 271.26763289 159.11913689 271.26144934 162.50586712 C271.25693573 166.15643087 271.26390353 169.80697492 271.26940918 173.45753479 C271.27831945 180.61470084 271.27637306 187.77182502 271.2705839 194.92899273 C271.26606995 200.75069681 271.26545336 206.57238914 271.26763153 212.39409447 C271.267938 213.22225425 271.26824446 214.05041403 271.26856022 214.90366956 C271.26919967 216.58612473 271.2698481 218.26857989 271.2705054 219.95103505 C271.27621448 235.74522401 271.26964378 251.53938981 271.25890467 267.33357497 C271.2499868 280.86733313 271.25150549 294.40105693 271.26074219 307.93481445 C271.27146601 323.6548439 271.27564596 339.37485294 271.26951766 355.09488553 C271.26888059 356.77456772 271.26825185 358.45424992 271.26763153 360.13393211 C271.26732298 360.96031026 271.26701443 361.78668841 271.26669653 362.63810832 C271.26497456 368.44297659 271.26787432 374.24783187 271.27259064 380.05269814 C271.27822376 387.14196773 271.27663298 394.23119309 271.26602915 401.32045767 C271.26080216 404.93328802 271.25866417 408.54604485 271.26532745 412.15887451 C271.27246462 416.08844516 271.26389527 420.0178976 271.25396729 423.94746399 C271.25842873 425.07192234 271.26289017 426.19638069 271.26748681 427.35491353 C271.17904427 445.51729128 267.78029635 460.82255032 256 475 C255.47921875 475.64582031 254.9584375 476.29164063 254.421875 476.95703125 C249.22323299 482.7726838 242.07518745 486.85335282 235 490 C234.24494171 490.34379951 233.48988342 490.68759903 232.71194458 491.04181671 C220.57848648 495.61584128 207.60887715 494.55971359 194.84375 494.51757812 C192.08462222 494.52080535 189.32552101 494.52998547 186.56640625 494.53881836 C179.87345541 494.55652923 173.18068483 494.55279699 166.48772717 494.5411678 C161.0442934 494.5321043 155.60090986 494.53092203 150.1574707 494.53526306 C148.99176505 494.53618246 148.99176505 494.53618246 147.80250978 494.53712043 C146.22337022 494.53839944 144.64423067 494.53969629 143.06509113 494.5410108 C128.28568698 494.55239482 113.50638234 494.53933719 98.72699451 494.51780933 C86.06794654 494.49994032 73.40904533 494.50304504 60.75 494.52148438 C46.02055194 494.54292969 31.29119093 494.55129639 16.56172943 494.53903532 C14.98866273 494.53776123 13.41559602 494.53650375 11.8425293 494.53526306 C11.0687143 494.53464596 10.2948993 494.53402886 9.49763536 494.53339306 C4.06586637 494.52995112 -1.36584704 494.53574345 -6.79760742 494.54518127 C-13.4244868 494.55644345 -20.05117686 494.55327319 -26.67803478 494.5320583 C-30.05400866 494.52160393 -33.42940925 494.51951128 -36.80541992 494.53065491 C-62.87430855 494.60874594 -62.87430855 494.60874594 -73 490 C-74.45339783 489.34780865 -74.45339783 489.34780865 -75.93615723 488.68244171 C-90.54620792 481.75697041 -100.07275234 469.5366641 -105.921875 454.796875 C-108.70118987 445.00885306 -109.29389436 435.15383031 -109.25396729 425.02975464 C-109.25708727 423.79161455 -109.26020725 422.55347447 -109.26342177 421.27781498 C-109.26996491 417.88102504 -109.26768358 414.4844599 -109.26144934 411.08768415 C-109.2568914 407.4095585 -109.26392472 403.73145134 -109.26940918 400.05332947 C-109.27826677 392.86646703 -109.27639823 385.67964655 -109.2705839 378.49278252 C-109.26605656 372.65406064 -109.26545912 366.81535048 -109.26763153 360.97662735 C-109.267938 360.14387115 -109.26824446 359.31111496 -109.26856022 358.45312373 C-109.26919969 356.76122386 -109.26984812 355.069324 -109.2705054 353.37742414 C-109.27619711 337.54489595 -109.26966718 321.71239099 -109.25890467 305.87986661 C-109.2499537 292.29099325 -109.25153613 278.70215402 -109.26074219 265.11328125 C-109.27143692 249.319672 -109.27566524 233.526083 -109.26951766 217.73247063 C-109.26888057 216.05005209 -109.26825183 214.36763354 -109.26763153 212.685215 C-109.26732298 211.85747478 -109.26701443 211.02973457 -109.26669653 210.17691132 C-109.26496842 204.33920745 -109.26788683 198.50151642 -109.27259064 192.66381454 C-109.27818987 185.55910173 -109.27670257 178.45443313 -109.26602915 171.34972541 C-109.26076204 167.72401155 -109.25873354 164.09837152 -109.26532745 160.47265816 C-109.27235652 156.54853304 -109.26398183 152.62452966 -109.25396729 148.70040894 C-109.25842873 147.54683958 -109.26289017 146.39327022 -109.26748681 145.20474422 C-109.26227132 144.15828609 -109.25705582 143.11182796 -109.25168228 142.03365898 C-109.25135758 141.12747853 -109.25103287 140.22129808 -109.25069833 139.28765762 C-109 137 -109 137 -107 134 C-102.8298272 133.28801928 -100.01746145 134.30919049 -96.28515625 136.02734375 C-95.48086182 136.394646 -94.67656738 136.76194824 -93.84790039 137.14038086 C-93.23809326 137.42405518 -92.62828613 137.70772949 -92 138 C-91.99191315 136.85122879 -91.98382629 135.70245758 -91.97549438 134.51887512 C-91.89772239 123.64759863 -91.80990695 112.77644253 -91.71247292 101.90532398 C-91.66270839 96.31752272 -91.61637787 90.72973857 -91.578125 85.1418457 C-91.54101996 79.74064123 -91.49459441 74.33958724 -91.44193649 68.9385128 C-91.42352563 66.88667145 -91.40836962 64.834798 -91.39665604 62.78290749 C-91.26736137 40.90022629 -89.52853654 21.97996817 -73.75 5.3125 C-54.06425253 -13.61483509 -22.149912 -16.14498456 0 0 Z M-49.953125 145.66015625 C-51.13003906 146.20607422 -52.30695313 146.75199219 -53.51953125 147.31445312 C-55.38383326 148.18486903 -57.2452109 149.06020777 -59.10107422 149.94848633 C-60.89853498 150.80554896 -62.70702422 151.63935873 -64.515625 152.47265625 C-65.59102539 152.98062744 -66.66642578 153.48859863 -67.77441406 154.01196289 C-73.2977811 155.70383894 -77.89213862 154.33664864 -82.98828125 151.93359375 C-83.85904297 151.53076172 -84.72980469 151.12792969 -85.62695312 150.71289062 C-86.51318359 150.29201172 -87.39941406 149.87113281 -88.3125 149.4375 C-90.09876611 148.59967127 -91.88645867 147.76487486 -93.67578125 146.93359375 C-94.45864502 146.56290771 -95.24150879 146.19222168 -96.0480957 145.81030273 C-97.95562376 144.87219691 -97.95562376 144.87219691 -100 145 C-100.09163003 182.74213176 -100.16207652 220.48424671 -100.20426132 258.22646726 C-100.20926392 262.68605323 -100.21444123 267.14563897 -100.21972656 271.60522461 C-100.2207758 272.49301778 -100.22182505 273.38081094 -100.22290608 274.29550693 C-100.24029362 288.6553805 -100.27182219 303.01518977 -100.30861118 317.37502524 C-100.3460666 332.11835579 -100.36824557 346.86165275 -100.37635398 361.60502893 C-100.38183222 370.69660763 -100.39911138 379.78800457 -100.43166587 388.87952731 C-100.45287061 395.12073153 -100.45918661 401.36184228 -100.45400551 407.60307988 C-100.45145295 411.19966316 -100.45526215 414.79592964 -100.4768219 418.39245605 C-100.50009067 422.30290513 -100.49190152 426.21294841 -100.48101807 430.12345886 C-100.49266943 431.24509452 -100.5043208 432.36673017 -100.51632524 433.52235478 C-100.40593683 448.2691256 -94.98786891 461.27382684 -85.0390625 472.12109375 C-76.68747924 479.81670974 -64.79760411 486.11880787 -53.24096489 486.12863445 C-52.2812339 486.1318589 -51.32150291 486.13508335 -50.33268917 486.1384055 C-49.28115095 486.1368569 -48.22961273 486.1353083 -47.14620972 486.13371277 C-46.02687078 486.13597833 -44.90753184 486.13824388 -43.75427353 486.14057809 C-39.98965505 486.14692684 -36.22507248 486.14608815 -32.46044922 486.14526367 C-29.76675786 486.14825468 -27.07306935 486.15162864 -24.37937927 486.15544128 C-17.81259113 486.16375076 -11.24581197 486.16649629 -4.67901902 486.16705366 C0.66071383 486.16752884 6.00044372 486.16958367 11.34017563 486.17275429 C26.48370822 486.18156294 41.62723372 486.18617352 56.7707689 486.18542381 C57.58730383 486.18538386 58.40383877 486.1853439 59.24511719 486.18530273 C60.06265114 486.18526185 60.88018509 486.18522097 61.7224928 486.18517885 C74.96217453 486.18477269 88.20182778 486.19433423 101.44150127 486.2084411 C115.04024745 486.22281599 128.63897975 486.22971062 142.23773372 486.22884732 C149.87052861 486.22851566 157.50329366 486.23124914 165.1360817 486.24202538 C171.63731157 486.25114519 178.13849809 486.25329361 184.6397316 486.24651595 C187.95438362 486.24325772 191.26888493 486.24426205 194.58353996 486.2518692 C198.18386982 486.2595957 201.78398262 486.25493966 205.38430786 486.24723816 C206.42246175 486.25238172 207.46061564 486.25752529 208.53022873 486.26282471 C223.45699365 486.19244669 237.10400896 481.75510848 248.0390625 471.2265625 C259.28441052 458.45794025 262.16262146 445.37598938 262.12025452 428.9209137 C262.12110894 427.70620122 262.12196337 426.49148875 262.12284368 425.23996681 C262.12420309 421.88089453 262.12108889 418.52188087 262.11606562 415.16281569 C262.11173874 411.53577467 262.11320913 407.90873538 262.1139679 404.2816925 C262.11449171 398.00175614 262.11135976 391.72183018 262.10573006 385.44189644 C262.0975958 376.36221723 262.09499786 367.28254304 262.09374207 358.20286059 C262.09155458 343.4709309 262.0849027 328.73900676 262.07543945 314.00708008 C262.0662575 299.69816109 262.0591805 285.38924361 262.05493164 271.08032227 C262.05466892 270.19801064 262.05440619 269.31569901 262.05413551 268.40665067 C262.05283045 263.98026003 262.05156675 259.55386938 262.05032361 255.12747872 C262.03996043 218.41831523 262.02235034 181.70915805 262 145 C260.57974869 145.45798306 259.16081483 145.92005271 257.74243164 146.38378906 C256.95212051 146.64065491 256.16180939 146.89752075 255.34754944 147.16217041 C251.24552583 148.62616376 247.4215956 150.67694724 243.59570312 152.74609375 C238.81447582 155.13923181 235.0449647 155.52651669 230 154 C224.76426906 151.85153698 219.72864961 149.30069591 214.66796875 146.7734375 C213.64058594 146.2784375 212.61320312 145.7834375 211.5546875 145.2734375 C210.63155762 144.81372559 209.70842773 144.35401367 208.75732422 143.88037109 C203.42311298 142.17723972 199.22386372 144.14660358 194.41015625 146.5390625 C193.37826172 147.03664062 192.34636719 147.53421875 191.28320312 148.046875 C189.13611642 149.09893447 186.99285853 150.15884419 184.85351562 151.2265625 C174.88935747 156.00040745 174.88935747 156.00040745 169 154 C163.84353347 151.77545683 158.82404259 149.28925117 153.8046875 146.7734375 C146.18834845 142.96881112 146.18834845 142.96881112 138 144 C132.84346674 146.22436839 127.82403285 148.71075371 122.8046875 151.2265625 C112.89167654 155.99673319 112.89167654 155.99673319 107 154 C101.81404773 151.77637084 96.76793952 149.28522463 91.71679688 146.7734375 C90.68490234 146.2784375 89.65300781 145.7834375 88.58984375 145.2734375 C87.66034912 144.81372559 86.73085449 144.35401367 85.77319336 143.88037109 C80.43355242 142.18526191 76.25702514 144.13110646 71.4453125 146.5390625 C70.41792969 147.03664062 69.39054688 147.53421875 68.33203125 148.046875 C66.19718435 149.0973965 64.06692094 150.15728517 61.94140625 151.2265625 C52.2036755 155.90652321 52.2036755 155.90652321 47.11376953 154.76416016 C41.08334324 152.58406842 35.39599453 149.63396195 29.66796875 146.7734375 C28.64058594 146.2784375 27.61320312 145.7834375 26.5546875 145.2734375 C25.63155762 144.81372559 24.70842773 144.35401367 23.75732422 143.88037109 C18.42311298 142.17723972 14.22386372 144.14660358 9.41015625 146.5390625 C7.86231445 147.28542969 7.86231445 147.28542969 6.28320312 148.046875 C4.13611642 149.09893447 1.99285853 150.15884419 -0.14648438 151.2265625 C-10.07011044 155.98098846 -10.07011044 155.98098846 -16 154 C-20.31000659 152.26929498 -24.5323466 150.38130919 -28.75 148.4375 C-30.99253156 147.41041546 -33.23722819 146.38804097 -35.484375 145.37109375 C-36.47147461 144.91661865 -37.45857422 144.46214355 -38.47558594 143.99389648 C-43.12590996 142.16300005 -45.63337338 143.60655179 -49.953125 145.66015625 Z " fill="#6A0789" transform="translate(175,14)"/>
<path d="M0 0 C1.22783203 0.49306641 1.22783203 0.49306641 2.48046875 0.99609375 C16.30913929 7.19219574 23.8628287 17.95363444 29.23828125 31.67578125 C31.0740931 37.27736101 31.13738798 42.54141304 31.11352539 48.38012695 C31.11367142 49.31719986 31.11381744 50.25427277 31.1139679 51.21974182 C31.11327264 54.30927872 31.10549832 57.39875492 31.09765625 60.48828125 C31.0957907 62.63347847 31.09436744 64.77867611 31.09336853 66.9238739 C31.08955417 72.56435324 31.07973309 78.20480674 31.06866455 83.84527588 C31.0584272 89.60322724 31.05386593 95.36118278 31.04882812 101.11914062 C31.03810987 112.41277175 31.02104641 123.70638373 31 135 C27.08592773 136.81814105 23.16831756 138.62852845 19.25 140.4375 C18.13882813 140.95376953 17.02765625 141.47003906 15.8828125 142.00195312 C14.81289062 142.49501953 13.74296875 142.98808594 12.640625 143.49609375 C11.65610352 143.95169678 10.67158203 144.4072998 9.65722656 144.87670898 C3.8693283 147.32343077 3.8693283 147.32343077 0.05493164 145.90429688 C-1.06534424 145.34806641 -2.18562012 144.79183594 -3.33984375 144.21875 C-4.5800624 143.61845708 -5.82029727 143.0181977 -7.06054688 142.41796875 C-9.00214085 141.46031554 -10.94137742 140.4980708 -12.87963867 139.53369141 C-14.75683871 138.60474311 -16.64154129 137.69257599 -18.52734375 136.78125 C-19.64874756 136.22501953 -20.77015137 135.66878906 -21.92553711 135.09570312 C-26.39210913 133.50386836 -28.59200636 134.36764995 -32.81152344 136.26269531 C-33.81731445 136.77928711 -34.82310547 137.29587891 -35.859375 137.828125 C-36.97570312 138.37984375 -38.09203125 138.9315625 -39.2421875 139.5 C-41.57453506 140.66357651 -43.89765269 141.84584677 -46.2109375 143.046875 C-55.77577405 147.70835856 -55.77577405 147.70835856 -61.265625 145.921875 C-64.57692308 144.42307692 -64.57692308 144.42307692 -66 143 C-66.11140411 139.87221214 -66.15740869 136.76630858 -66.16113281 133.63769531 C-66.16609772 132.65381332 -66.17106262 131.66993134 -66.17617798 130.65623474 C-66.19085584 127.38019116 -66.19761463 124.10419616 -66.203125 120.828125 C-66.20887649 118.55141193 -66.21463422 116.27469888 -66.22039795 113.99798584 C-66.23092706 109.20942967 -66.23675568 104.42089035 -66.24023438 99.63232422 C-66.24569107 93.52294829 -66.26965016 87.41379841 -66.29820633 81.30449295 C-66.31692743 76.5927264 -66.32204357 71.88101293 -66.32357025 67.16921234 C-66.32658131 64.91916431 -66.33455703 62.66911687 -66.34775543 60.41910553 C-66.45439045 40.82438436 -65.54353094 25.275221 -51.5078125 10.359375 C-37.73407168 -2.59909767 -17.73332026 -7.3615632 0 0 Z " fill="#FD9D70" transform="translate(159,15)"/>
<path d="M0 0 C0.04579412 37.53842688 0.08102769 75.07684954 0.10213066 112.61529871 C0.10463202 117.0487083 0.10722067 121.48211784 0.10986328 125.91552734 C0.1103879 126.79812621 0.11091252 127.68072508 0.11145304 128.59006937 C0.12015175 142.87434574 0.1359188 157.15860599 0.15430559 171.44287281 C0.17301948 186.10370097 0.18411988 200.7645207 0.18817699 215.42536032 C0.19091895 224.4692887 0.1995742 233.51317149 0.21583293 242.55708583 C0.22641819 248.76181041 0.22959713 254.96651148 0.22700275 261.17124443 C0.22572387 264.74913531 0.22766175 268.32694663 0.23841095 271.9048233 C0.24999759 275.78996139 0.24596313 279.6749967 0.24050903 283.56015015 C0.24633472 284.68274243 0.2521604 285.80533471 0.25816262 286.96194494 C0.20067366 302.13501589 -4.0417269 315.89300014 -14.7734375 327.0390625 C-25.572187 336.54954013 -36.79144745 340.55459083 -51 341 C-48.26325139 338.90244665 -45.46433245 336.98579377 -42.5625 335.125 C-38.93695171 332.7138919 -35.9312451 330.24813646 -33 327 C-32.54238281 326.56945312 -32.08476562 326.13890625 -31.61328125 325.6953125 C-24.24182227 318.22711521 -18.89254703 305.36572057 -18.8613348 294.9319191 C-18.85586036 293.90332 -18.85038591 292.8747209 -18.84474558 291.81495214 C-18.84376747 290.68655565 -18.84278936 289.55815917 -18.84178162 288.39556885 C-18.83684364 287.19567031 -18.83190566 285.99577177 -18.82681805 284.75951266 C-18.81410216 281.42787986 -18.80581951 278.0962889 -18.79939139 274.76464152 C-18.79138608 271.17230073 -18.77768874 267.57998116 -18.76467896 263.98765564 C-18.74291808 257.76333531 -18.72477216 251.53901283 -18.70907402 245.31467438 C-18.68637186 236.31530056 -18.65822951 227.31595024 -18.62875474 218.31659636 C-18.58108308 203.71612019 -18.53781774 189.11563441 -18.49731445 174.51513672 C-18.45795736 160.33120984 -18.41653062 146.1472915 -18.37231445 131.96337891 C-18.36959018 131.0892401 -18.36686591 130.21510129 -18.36405908 129.31447342 C-18.35037957 124.92922297 -18.3366593 120.54397266 -18.32291877 116.1587224 C-18.20896069 79.77249933 -18.10214984 43.38625804 -18 7 C-15.37690901 5.82887054 -12.75171858 4.66294036 -10.125 3.5 C-9.37863281 3.16613281 -8.63226563 2.83226562 -7.86328125 2.48828125 C-7.14785156 2.17246094 -6.43242187 1.85664063 -5.6953125 1.53125 C-5.03547363 1.23798828 -4.37563477 0.94472656 -3.69580078 0.64257812 C-2 0 -2 0 0 0 Z " fill="#DEA32E" transform="translate(437,159)"/>
<path d="M0 0 C1.44108183 0.4744298 2.88165897 0.95039277 4.32202148 1.42700195 C5.52543434 1.82433281 5.52543434 1.82433281 6.75315857 2.22969055 C9.25640077 3.0879047 11.65902288 4.08113752 14.0625 5.1875 C14.81660156 5.53167969 15.57070312 5.87585938 16.34765625 6.23046875 C16.89292969 6.48441406 17.43820313 6.73835937 18 7 C18.06941478 16.74419823 18.12276776 26.48833795 18.15543652 36.23273277 C18.17111343 40.75713184 18.19238839 45.28136214 18.22631836 49.80566406 C18.25883996 54.16932465 18.27683774 58.53282261 18.28463173 62.896595 C18.29018824 64.56403795 18.30103834 66.23147169 18.31719017 67.89884567 C18.33886932 70.22882289 18.34197101 72.55812227 18.34057617 74.88818359 C18.351362 75.58229843 18.36214783 76.27641327 18.3732605 76.99156189 C18.36076355 78.91220093 18.36076355 78.91220093 18 82 C16.515 82.99 16.515 82.99 15 84 C14.53215787 86.9732244 14.53215787 86.9732244 14.6015625 90.46875 C14.59769531 91.76167969 14.59382813 93.05460937 14.58984375 94.38671875 C14.59612793 95.06138184 14.60241211 95.73604492 14.60888672 96.43115234 C14.62494187 98.49253583 14.60904403 100.5519589 14.58984375 102.61328125 C14.59371094 103.90621094 14.59757812 105.19914062 14.6015625 106.53125 C14.60494629 107.72298828 14.60833008 108.91472656 14.61181641 110.14257812 C14.73991699 111.08552734 14.86801758 112.02847656 15 113 C15.99 113.66 16.98 114.32 18 115 C18.29605758 117.47213706 18.39409029 119.69509406 18.36508179 122.1696167 C18.36820078 122.91690481 18.37131978 123.66419293 18.3745333 124.43412614 C18.38150773 126.95205178 18.36711334 129.4694152 18.35302734 131.98730469 C18.35385773 133.78752249 18.35607263 135.58774012 18.35957336 137.38795471 C18.36453446 141.27362152 18.36040163 145.15913772 18.34955978 149.04479218 C18.33322399 155.19856503 18.34165505 161.35214817 18.35440063 167.50592041 C18.38454927 183.90696567 18.38312549 200.30797815 18.36414778 216.70903707 C18.35178373 227.47043939 18.35377098 238.23162722 18.38253558 248.99300504 C18.39771158 255.09924696 18.3903694 261.20490498 18.36582541 267.31111002 C18.35568881 271.13044164 18.36652008 274.94951118 18.38294029 278.76881218 C18.38636601 280.52707572 18.38140688 282.28538102 18.36697197 284.04358864 C18.25166743 299.02865618 21.02515905 311.51859551 30 324 C30.55429688 324.54269531 31.10859375 325.08539063 31.6796875 325.64453125 C33 327 33 327 33 329 C33.86625 329.40412109 33.86625 329.40412109 34.75 329.81640625 C37.03158039 331.0166126 38.95688611 332.36925047 41 333.9375 C41.99 334.69353516 41.99 334.69353516 43 335.46484375 C43.66 335.97144531 44.32 336.47804688 45 337 C46.33222233 338.00147963 47.66523793 339.00190783 49 340 C36.63917322 341.09495513 27.23229132 336.68504116 17.5390625 329.2265625 C7.74571245 320.63854784 0.71255385 308.48474601 -0.18289971 295.30875492 C-0.25143906 292.11245388 -0.25690118 288.9217385 -0.24050903 285.72473145 C-0.24221788 284.50099744 -0.24392673 283.27726344 -0.24568737 282.01644659 C-0.24840347 278.63676506 -0.24218574 275.25731726 -0.23213124 271.87766409 C-0.22346928 268.22678235 -0.22641884 264.57590744 -0.22793579 260.92501831 C-0.22898291 254.60525312 -0.22272443 248.28552932 -0.21146011 241.96577454 C-0.19518457 232.82855139 -0.18999501 223.6913482 -0.18748413 214.55411214 C-0.18311025 199.72844623 -0.16980948 184.90280238 -0.15087891 170.07714844 C-0.13251216 155.67806102 -0.11835954 141.27897959 -0.10986328 126.87988281 C-0.10933783 125.99185992 -0.10881239 125.10383702 -0.10827102 124.18890435 C-0.10566088 119.73381622 -0.10313348 115.27872806 -0.10064721 110.82363987 C-0.07992427 73.88241102 -0.0447071 36.94120723 0 0 Z " fill="#FBDF69" transform="translate(75,159)"/>
<path d="M0 0 C43.89 0 87.78 0 133 0 C133.99 2.64 134.98 5.28 136 8 C135.35933594 7.8453125 134.71867188 7.690625 134.05859375 7.53125 C119.02475462 4.92000847 107.94962182 7.05459882 95.38671875 15.82421875 C86.78814428 22.71752971 80.89077226 33.1545303 79 44 C78.50154247 48.99938096 78.19416143 53.97858382 78 59 C72.91220235 57.05773088 68.11299732 54.59415567 63.25390625 52.14453125 C58.62289628 50.51561658 55.50123138 51.37033602 51.02734375 53.24682617 C50.00769531 53.75705322 48.98804688 54.26728027 47.9375 54.79296875 C46.81085938 55.34017578 45.68421875 55.88738281 44.5234375 56.45117188 C42.16981374 57.61102305 39.82083647 58.78034996 37.4765625 59.95898438 C36.34992188 60.50232422 35.22328125 61.04566406 34.0625 61.60546875 C33.04285156 62.11231201 32.02320313 62.61915527 30.97265625 63.14135742 C22.38227293 65.62266312 3.20909759 53.45868072 0 52 C0 34.84 0 17.68 0 0 Z " fill="#526EA9" transform="translate(198,98)"/>
<path d="M0 0 C9.01366686 2.0103608 15.86130358 -1.96257728 23.49609375 -6.15234375 C31.03450498 -10.127448 40.66895923 -10.49502511 48.85546875 -8.19921875 C61.07793445 -2.5446281 68.27188381 6.77361365 73 19 C74.61271324 24.7805083 74.10997228 31.03705861 74 37 C72.80650569 37.73305995 71.59417909 38.43550171 70.375 39.125 C69.70210937 39.51945312 69.02921875 39.91390625 68.3359375 40.3203125 C63.57447747 41.70575405 58.60640822 38.4314432 54.33984375 36.36328125 C53.29892578 35.86892578 52.25800781 35.37457031 51.18554688 34.86523438 C49.01242785 33.8263711 46.84315521 32.77942492 44.67773438 31.72460938 C43.63810547 31.23412109 42.59847656 30.74363281 41.52734375 30.23828125 C40.58624756 29.78493408 39.64515137 29.33158691 38.67553711 28.86450195 C33.64691309 27.23968604 29.81065307 29.3811634 25.18359375 31.46875 C24.08982422 31.95730469 22.99605469 32.44585937 21.86914062 32.94921875 C20.73669922 33.46097656 19.60425781 33.97273438 18.4375 34.5 C16.18750626 35.51332673 13.93625427 36.52386553 11.68359375 37.53125 C10.68900146 37.98048828 9.69440918 38.42972656 8.66967773 38.89257812 C2.82912059 41.31532776 2.82912059 41.31532776 -1.21484375 39.77734375 C-2.46116448 39.17518501 -3.70181038 38.56118396 -4.9375 37.9375 C-5.92242432 37.46183594 -5.92242432 37.46183594 -6.92724609 36.9765625 C-9.59058309 35.69006245 -12.24090741 34.37827035 -14.88818359 33.05908203 C-16.62847726 32.19526951 -18.37660055 31.34728594 -20.125 30.5 C-21.13820313 29.9946875 -22.15140625 29.489375 -23.1953125 28.96875 C-28.36248776 27.18398752 -32.31947224 29.46789187 -37.03515625 31.7578125 C-38.74348633 32.57185547 -38.74348633 32.57185547 -40.48632812 33.40234375 C-42.87667265 34.55378224 -45.26469101 35.71006193 -47.65039062 36.87109375 C-48.78798828 37.41121094 -49.92558594 37.95132813 -51.09765625 38.5078125 C-52.13414307 39.00941895 -53.17062988 39.51102539 -54.23852539 40.02783203 C-57.10226507 41.03600208 -58.23146187 41.11305095 -61 40 C-61.50319031 23.93518356 -60.07752249 12.48568541 -48.6875 0.25 C-33.57044389 -14.19518695 -15.8619488 -10.57463253 0 0 Z " fill="#FD4296" transform="translate(345,121)"/>
<path d="M0 0 C45.87 0 91.74 0 139 0 C139 9.9 139 19.8 139 30 C138.01 30.33 137.02 30.66 136 31 C136 31.66 136 32.32 136 33 C91.12 33 46.24 33 0 33 C0 22.11 0 11.22 0 0 Z " fill="#526EA9" transform="translate(198,57)"/>
<path d="M0 0 C2.4375 0.1875 2.4375 0.1875 3.4375 1.1875 C3.53998366 4.25482281 3.57634525 7.29977465 3.57121277 10.36766052 C3.57347833 11.34307283 3.57574388 12.31848514 3.57807809 13.32345539 C3.58444944 16.6185621 3.58358673 19.91362802 3.58276367 23.20874023 C3.5857532 25.56029311 3.58915525 27.91184549 3.59294128 30.26339722 C3.60180625 36.67029537 3.60412044 43.07718019 3.60475707 49.48408389 C3.60533263 54.15068164 3.60848091 58.81727711 3.61159355 63.48387377 C3.61990472 76.02421376 3.62363503 88.56454663 3.62292381 101.10488927 C3.62288386 101.81769036 3.6228439 102.53049145 3.62280273 103.26489258 C3.62276185 103.97855939 3.62272097 104.69222619 3.62267885 105.42751927 C3.62227226 116.99796763 3.63184409 128.56838347 3.6459411 140.13882243 C3.6602864 152.0062563 3.66721231 163.87367429 3.66634732 175.74111706 C3.66601471 182.40901819 3.66898242 189.07688717 3.67952538 195.74477959 C3.68916524 202.01308733 3.68931397 208.28132282 3.68200874 214.54963303 C3.68095777 216.85636436 3.68335587 219.1631001 3.6893692 221.46982384 C3.69702005 224.60675446 3.69249052 227.74343118 3.68473816 230.88035583 C3.68988172 231.80378468 3.69502529 232.72721352 3.70032471 233.67862505 C3.66577116 239.95922884 3.66577116 239.95922884 1.4375 242.1875 C-1.125 241.9375 -1.125 241.9375 -3.5625 241.1875 C-5.28677595 237.73894811 -4.70263677 233.75852108 -4.69621277 229.9630127 C-4.69847833 228.99491307 -4.70074388 228.02681344 -4.70307809 227.02937746 C-4.70944008 223.76501577 -4.70858733 220.50069536 -4.70776367 217.23632812 C-4.71075376 214.90433193 -4.71415593 212.57233623 -4.71794128 210.24034119 C-4.72679995 203.89135162 -4.72912016 197.54237551 -4.72975707 191.19338036 C-4.73070448 185.90220321 -4.73438077 180.61102924 -4.73792917 175.31985331 C-4.74575656 163.55635008 -4.74859714 151.79285272 -4.74792381 140.02934712 C-4.74788386 139.32308542 -4.7478439 138.61682372 -4.74780273 137.88916016 C-4.74776185 137.18204008 -4.74772097 136.47492 -4.74767885 135.74637204 C-4.74727217 124.27945156 -4.75684685 112.81256387 -4.7709411 101.34565288 C-4.78528628 89.58214847 -4.79221233 77.81866008 -4.79134732 66.05514669 C-4.79109164 59.44650398 -4.79398138 52.83789838 -4.80452538 46.22926331 C-4.81416503 40.01757563 -4.81431412 33.80596087 -4.80700874 27.59427071 C-4.80595779 25.30850176 -4.80835577 23.02272837 -4.8143692 20.73696709 C-4.8220202 17.62855308 -4.81749045 14.5203953 -4.80973816 11.4119873 C-4.81488172 10.49702248 -4.82002529 9.58205766 -4.82532471 8.63936663 C-4.77930052 0.34970492 -4.77930052 0.34970492 0 0 Z " fill="#6E0C86" transform="translate(356.5625,211.8125)"/>
<path d="M0 0 C4.55555556 0.55555556 4.55555556 0.55555556 6 2 C6.10247756 5.05469862 6.13884571 8.08693338 6.13371277 11.14219666 C6.13597833 12.11352541 6.13824388 13.08485417 6.14057809 14.08561713 C6.14694941 17.36690435 6.14608673 20.6481506 6.14526367 23.92944336 C6.14825321 26.27114414 6.15165525 28.61284443 6.15544128 30.95454407 C6.16430623 37.33458359 6.16662043 43.71460972 6.16725707 50.0946548 C6.16808487 54.74169842 6.17098091 59.38873902 6.17409355 64.03578158 C6.18240471 76.52358744 6.18613503 89.01138615 6.18542381 101.49919467 C6.18538386 102.20900877 6.1853439 102.91882287 6.18530273 103.65014648 C6.18526185 104.36082268 6.18522097 105.07149887 6.18517885 105.80371071 C6.18477226 117.32566018 6.19434408 128.847577 6.2084411 140.36951702 C6.22278644 152.18723036 6.2297123 164.00492775 6.22884732 175.82265002 C6.22851472 182.4626042 6.23148237 189.10252827 6.24202538 195.74247551 C6.2516653 201.98451853 6.25181393 208.22648898 6.24450874 214.46853447 C6.24345778 216.76559047 6.24585583 219.06265088 6.2518692 221.35969925 C6.25952015 224.48349305 6.25499046 227.60703189 6.24723816 230.7308197 C6.25238172 231.65035759 6.25752529 232.56989549 6.26282471 233.51729816 C6.22827116 239.77172884 6.22827116 239.77172884 4 242 C-0.55555556 241.44444444 -0.55555556 241.44444444 -2 240 C-2.10247756 236.94530138 -2.13884571 233.91306662 -2.13371277 230.85780334 C-2.13597833 229.88647459 -2.13824388 228.91514583 -2.14057809 227.91438287 C-2.14694941 224.63309565 -2.14608673 221.3518494 -2.14526367 218.07055664 C-2.14825321 215.72885586 -2.15165525 213.38715557 -2.15544128 211.04545593 C-2.16430623 204.66541641 -2.16662043 198.28539028 -2.16725707 191.9053452 C-2.16808487 187.25830158 -2.17098091 182.61126098 -2.17409355 177.96421842 C-2.18240471 165.47641256 -2.18613503 152.98861385 -2.18542381 140.50080533 C-2.18538386 139.79099123 -2.1853439 139.08117713 -2.18530273 138.34985352 C-2.18526185 137.63917732 -2.18522097 136.92850113 -2.18517885 136.19628929 C-2.18477226 124.67433982 -2.19434408 113.152423 -2.2084411 101.63048298 C-2.22278644 89.81276964 -2.2297123 77.99507225 -2.22884732 66.17734998 C-2.22851472 59.5373958 -2.23148237 52.89747173 -2.24202538 46.25752449 C-2.2516653 40.01548147 -2.25181393 33.77351102 -2.24450874 27.53146553 C-2.24345778 25.23440953 -2.24585583 22.93734912 -2.2518692 20.64030075 C-2.25952015 17.51650695 -2.25499046 14.39296811 -2.24723816 11.2691803 C-2.25238172 10.34964241 -2.25752529 9.43010451 -2.26282471 8.48270184 C-2.22827116 2.22827116 -2.22827116 2.22827116 0 0 Z " fill="#690588" transform="translate(254,212)"/>
<path d="M0 0 C1.91581474 1.91581474 1.12844714 4.76801863 1.1384055 7.31812322 C1.1368569 8.23531877 1.1353083 9.15251431 1.13371277 10.09750366 C1.13597833 11.0640433 1.13824388 12.03058294 1.14057809 13.02641165 C1.14694941 16.29154542 1.14608673 19.55663802 1.14526367 22.82177734 C1.14825323 25.15200352 1.15165528 27.4822292 1.15544128 29.81245422 C1.16430651 36.16157015 1.16662046 42.51067262 1.16725707 48.85979414 C1.1682041 54.15082684 1.17188003 59.44185638 1.17542917 64.73288786 C1.18325926 76.49754793 1.18609692 88.26220214 1.18542381 100.02686457 C1.18538386 100.73342895 1.1853439 101.43999333 1.18530273 102.16796875 C1.18526185 102.87539202 1.18522097 103.58281529 1.18517885 104.31167562 C1.18477236 115.77798413 1.19434156 127.24425981 1.2084411 138.71055882 C1.22279098 150.47290639 1.22971204 162.23523793 1.22884732 173.99759448 C1.22859172 180.60572503 1.23147694 187.21381846 1.24202538 193.82194138 C1.25167203 200.03526046 1.25180923 206.24850665 1.24450874 212.46182823 C1.24345859 214.74717629 1.24585109 217.03252881 1.2518692 219.31786919 C1.25953155 222.42817622 1.25498269 225.53822793 1.24723816 228.64852905 C1.25238172 229.56126315 1.25752529 230.47399726 1.26282471 231.41438997 C1.25822592 232.24531117 1.25362712 233.07623236 1.24888897 233.93233299 C1.24910634 234.65060151 1.24932371 235.36887002 1.24954766 236.10890424 C1 238 1 238 -1 241 C-5.875 240.125 -5.875 240.125 -7 239 C-7.09803662 235.92810576 -7.12990812 232.87868011 -7.12025452 229.80638123 C-7.12110894 228.82955779 -7.12196337 227.85273435 -7.12284368 226.8463102 C-7.12450145 223.54652911 -7.11897228 220.24679795 -7.11352539 216.94702148 C-7.11324356 214.59222413 -7.11340118 212.23742669 -7.1139679 209.88262939 C-7.11425602 203.46759631 -7.10835691 197.05258174 -7.10139394 190.63755298 C-7.09531949 184.61936854 -7.09477212 178.60118191 -7.09374207 172.58299495 C-7.09155123 160.6595745 -7.0848903 148.73616088 -7.07543945 136.81274414 C-7.06626615 125.22745803 -7.05918492 113.64217377 -7.05493164 102.05688477 C-7.05466892 101.34325555 -7.05440619 100.62962633 -7.05413551 99.89437198 C-7.05283051 96.3144496 -7.05156679 92.7345272 -7.05032361 89.15460479 C-7.03995002 59.43639867 -7.02225673 29.71819966 -7 0 C-4.31633121 -1.3418344 -2.84719317 -0.73004953 0 0 Z " fill="#6E0C86" transform="translate(159,213)"/>
<path d="M0 0 C-2.28517585 2.46798992 -4.39132875 4.24834324 -7.25 6.0625 C-17.51347822 13.26455446 -23.79029937 26.95115135 -26 39 C-26.28915601 42.60837429 -26.31088004 46.20351975 -26.31884766 49.82226562 C-26.32889328 50.87681946 -26.3389389 51.93137329 -26.34928894 53.0178833 C-26.38001709 56.48066699 -26.39712735 59.94337373 -26.4140625 63.40625 C-26.43278247 65.81620949 -26.4523565 68.22616248 -26.4727478 70.6361084 C-26.52398728 76.96203779 -26.56365689 83.28798841 -26.60089111 89.61401367 C-26.64098204 96.07606218 -26.69205117 102.538023 -26.7421875 109 C-26.83884992 121.66660389 -26.92365882 134.33325816 -27 147 C-30 148 -30 148 -32.04296875 147.22265625 C-32.75066406 146.83980469 -33.45835938 146.45695313 -34.1875 146.0625 C-34.90292969 145.68222656 -35.61835937 145.30195313 -36.35546875 144.91015625 C-36.89816406 144.60980469 -37.44085938 144.30945313 -38 144 C-38.06973264 130.79502131 -38.12292905 117.59008695 -38.15543652 104.38496113 C-38.17104413 98.25226109 -38.19219241 92.11968771 -38.22631836 85.98706055 C-38.25908716 80.06074478 -38.27688983 74.13455029 -38.28463173 68.20815086 C-38.29014391 65.95530478 -38.30090725 63.70246478 -38.31719017 61.44967079 C-38.45347702 41.7995714 -37.51855933 26.37527606 -23.5390625 11.3671875 C-17.21652417 5.47263638 -8.96836542 -0.51247802 0 0 Z " fill="#FEBB8D" transform="translate(131,14)"/>
<path d="M0 0 C1.41814346 -0.01641968 2.83625123 -0.03623411 4.25430298 -0.05924988 C7.21624075 -0.09180603 10.17308986 -0.07636614 13.13476562 -0.02758789 C16.90490857 0.02966955 20.65941322 -0.04531302 24.42792892 -0.15367317 C46.43719995 -0.69998549 46.43719995 -0.69998549 52.77160645 3.46392822 C56.98006404 7.63257712 59.36323105 12.27818425 61.2890625 17.83203125 C61.2890625 18.49203125 61.2890625 19.15203125 61.2890625 19.83203125 C32.5790625 19.83203125 3.8690625 19.83203125 -25.7109375 19.83203125 C-20.21103543 6.08227609 -15.56982144 -0.2383588 0 0 Z " fill="#F2EDEC" transform="translate(249.7109375,28.16796875)"/>
<path d="M0 0 C7.26578832 -0.95602478 12.89364815 2.814906 18.62109375 6.84375 C26.32810976 13.13136124 32.43012255 22.20760701 33.9375 32.25 C34.01392691 36.83561436 34.08457482 41.41416523 34 46 C32.76115681 46.72767003 31.50831659 47.43154815 30.25 48.125 C29.20585937 48.71667969 29.20585937 48.71667969 28.140625 49.3203125 C26 50 26 50 23.734375 49.1171875 C23.16203125 48.74851563 22.5896875 48.37984375 22 48 C22.04640625 47.14019531 22.0928125 46.28039062 22.140625 45.39453125 C22.41237198 36.49481766 21.20773768 29.29317548 18 21 C17.72285156 20.24976563 17.44570313 19.49953125 17.16015625 18.7265625 C13.80658491 10.90671411 6.70899952 4.97764481 0 0 Z " fill="#DF2479" transform="translate(385,112)"/>
<path d="M0 0 C4.12602159 0.359663 7.43779106 2.03205033 11.10546875 3.87109375 C12.25337891 4.44537109 13.40128906 5.01964844 14.58398438 5.61132812 C15.17526123 5.91111572 15.76653809 6.21090332 16.37573242 6.51977539 C18.18880516 7.43816111 20.00701632 8.34568647 21.82617188 9.25195312 C30.73293119 13.73293119 30.73293119 13.73293119 33 16 C33.1875 18.5625 33.1875 18.5625 33 21 C32.505 21.495 32.505 21.495 32 22 C26.95678961 21.59249927 23.15284962 20.38066018 18.6640625 18.09375 C16.94509766 17.22556641 16.94509766 17.22556641 15.19140625 16.33984375 C14.00258196 15.72660555 12.81378013 15.11332381 11.625 14.5 C10.41320609 13.8858386 9.2009698 13.27254925 7.98828125 12.66015625 C-0.81755832 8.18244168 -0.81755832 8.18244168 -2 7 C-2.1875 4.5625 -2.1875 4.5625 -2 2 C-1.34 1.34 -0.68 0.68 0 0 Z " fill="#6E0A88" transform="translate(126,117)"/>
<path d="M0 0 C4.45485209 0.33854822 7.95951763 1.71214884 11.94921875 3.65234375 C13.04427734 4.18150391 14.13933594 4.71066406 15.26757812 5.25585938 C16.96043945 6.08827148 16.96043945 6.08827148 18.6875 6.9375 C19.82767578 7.48857422 20.96785156 8.03964844 22.14257812 8.60742188 C30.51916065 12.67944043 30.51916065 12.67944043 34 15 C34.3125 17.5 34.3125 17.5 34 20 C33.34 20.66 32.68 21.32 32 22 C25.80024157 21.47218642 20.2094685 17.94021075 14.71484375 15.21777344 C12.75017305 14.25008523 10.77418687 13.30871783 8.796875 12.3671875 C7.5460936 11.75158511 6.29606545 11.13444939 5.046875 10.515625 C3.91088867 9.96165039 2.77490234 9.40767578 1.60449219 8.83691406 C-1 7 -1 7 -2.00292969 4.40527344 C-2 2 -2 2 0 0 Z " fill="#6D0A88" transform="translate(125,76)"/>
<path d="M0 0 C2.5625 0.1875 2.5625 0.1875 4.5625 2.1875 C4.82128906 4.86132812 4.82128906 4.86132812 4.828125 8.21875 C4.83070312 9.42144531 4.83328125 10.62414062 4.8359375 11.86328125 C4.82820313 13.12527344 4.82046875 14.38726562 4.8125 15.6875 C4.82023437 16.94949219 4.82796875 18.21148437 4.8359375 19.51171875 C4.83335938 20.71441406 4.83078125 21.91710937 4.828125 23.15625 C4.82586914 24.26419922 4.82361328 25.37214844 4.82128906 26.51367188 C4.5625 29.1875 4.5625 29.1875 2.5625 31.1875 C0 31.375 0 31.375 -2.4375 31.1875 C-4.29464057 29.33035943 -3.56798681 26.26242951 -3.5703125 23.78125 C-3.57160156 22.48058594 -3.57289062 21.17992187 -3.57421875 19.83984375 C-3.57212402 19.15905762 -3.5700293 18.47827148 -3.56787109 17.77685547 C-3.5625224 15.69621485 -3.5678168 13.61579011 -3.57421875 11.53515625 C-3.57292969 10.23449219 -3.57164063 8.93382812 -3.5703125 7.59375 C-3.56918457 6.39041016 -3.56805664 5.18707031 -3.56689453 3.94726562 C-3.3940639 0.26108184 -3.3940639 0.26108184 0 0 Z " fill="#6C0A87" transform="translate(92.4375,241.8125)"/>
<path d="M0 0 C1.65 0.33 3.3 0.66 5 1 C5.67250524 3.58193977 6.33817901 6.16532071 7 8.75 C7.19078125 9.47960937 7.3815625 10.20921875 7.578125 10.9609375 C8.46515964 14.44571646 9 17.38123722 9 21 C5.2064914 19.76078719 3.85583278 17.55618975 2.0625 14.09179688 C1.753125 13.46337891 1.44375 12.83496094 1.125 12.1875 C0.79242188 11.57068359 0.45984375 10.95386719 0.1171875 10.31835938 C-1.47374269 7.14661085 -2.1451464 5.53196862 -1.1953125 2.05078125 C-0.80085938 1.37402344 -0.40640625 0.69726562 0 0 Z " fill="#AB5B43" transform="translate(341,93)"/>
</svg>
