<?xml version="1.0" encoding="UTF-8"?>
<svg version="1.1" xmlns="http://www.w3.org/2000/svg" width="512" height="512">
<path d="M0 0 C0.91280228 -0.00807175 1.82560455 -0.01614349 2.7660675 -0.02445984 C4.70201719 -0.03830642 6.63799135 -0.049026 8.57397461 -0.05688477 C11.52179974 -0.07404999 14.46848942 -0.11792487 17.41601562 -0.16210938 C19.29816885 -0.1722406 21.1803316 -0.18075536 23.0625 -0.1875 C24.37694344 -0.21376213 24.37694344 -0.21376213 25.71794128 -0.24055481 C31.61680984 -0.21985952 35.00724738 0.85068166 39.86328125 4.23828125 C41.640625 6.1328125 41.640625 6.1328125 42.80078125 8.05078125 C43.20167969 8.67597656 43.60257812 9.30117187 44.015625 9.9453125 C45.17686164 13.08653789 44.99533194 15.92100779 44.86328125 19.23828125 C45.41790039 19.21209717 45.97251953 19.18591309 46.54394531 19.15893555 C49.06676694 19.05474122 51.58913614 18.98989234 54.11328125 18.92578125 C54.98597656 18.88388672 55.85867187 18.84199219 56.7578125 18.79882812 C63.24939867 18.67494289 63.24939867 18.67494289 66.47265625 21.6328125 C67.86328125 24.23828125 67.86328125 24.23828125 67.86328125 26.23828125 C74.13328125 26.23828125 80.40328125 26.23828125 86.86328125 26.23828125 C87.85328125 23.76328125 87.85328125 23.76328125 88.86328125 21.23828125 C90.86328125 19.23828125 90.86328125 19.23828125 92.74267578 19.01123047 C93.48630371 19.0217041 94.22993164 19.03217773 94.99609375 19.04296875 C95.80175781 19.04941406 96.60742188 19.05585937 97.4375 19.0625 C98.70013672 19.08763672 98.70013672 19.08763672 99.98828125 19.11328125 C101.26251953 19.12681641 101.26251953 19.12681641 102.5625 19.140625 C104.66288009 19.16422478 106.76311569 19.20009642 108.86328125 19.23828125 C108.89856934 18.60897705 108.93385742 17.97967285 108.97021484 17.33129883 C109.31832401 11.93441867 110.17473099 8.41216707 113.86328125 4.23828125 C119.48571712 0.30586253 123.67752747 -0.36731698 130.453125 -0.328125 C131.35648087 -0.33432358 132.25983673 -0.34052216 133.19056702 -0.34690857 C135.09244719 -0.35398143 136.9943896 -0.35087721 138.89624023 -0.33813477 C141.78941996 -0.32427318 144.67935863 -0.35837128 147.57226562 -0.39648438 C149.4283862 -0.39743578 151.28451078 -0.39557557 153.140625 -0.390625 C153.99607407 -0.40388321 154.85152313 -0.41714142 155.7328949 -0.43080139 C161.82712288 -0.33739046 166.23990876 1.16380269 170.86328125 5.23828125 C174.32996979 10.18430155 174.86328125 12.99463964 174.86328125 19.23828125 C196.31328125 19.23828125 217.76328125 19.23828125 239.86328125 19.23828125 C240.52328125 15.93828125 241.18328125 12.63828125 241.86328125 9.23828125 C244.92372363 4.98027446 247.06358346 2.30298064 251.86328125 0.23828125 C253.93637085 -0.02914429 253.93637085 -0.02914429 256.16943359 -0.05224609 C257.01065765 -0.0650058 257.85188171 -0.0777655 258.71859741 -0.09091187 C259.61970245 -0.09313751 260.5208075 -0.09536316 261.44921875 -0.09765625 C262.38375885 -0.10431305 263.31829895 -0.11096985 264.28115845 -0.11782837 C266.25642939 -0.12794423 268.23173443 -0.13264572 270.20703125 -0.13232422 C273.22062854 -0.13669316 276.23275589 -0.1730122 279.24609375 -0.2109375 C281.16796376 -0.21680681 283.0898407 -0.22077544 285.01171875 -0.22265625 C286.35730362 -0.2442128 286.35730362 -0.2442128 287.73007202 -0.26620483 C293.28172872 -0.22589848 296.466351 0.52563866 300.86328125 4.23828125 C305.8553438 9.90494684 305.86328125 10.96481702 305.86328125 19.23828125 C318.07328125 19.23828125 330.28328125 19.23828125 342.86328125 19.23828125 C342.86328125 16.92828125 342.86328125 14.61828125 342.86328125 12.23828125 C343.7109375 9.9453125 343.7109375 9.9453125 344.92578125 8.05078125 C345.30863281 7.41785156 345.69148438 6.78492187 346.0859375 6.1328125 C349.8811754 2.08733914 353.94141901 0.04732461 359.41821289 -0.27929688 C361.11975987 -0.3054294 362.82176463 -0.30892054 364.5234375 -0.29296875 C365.43153671 -0.29679565 366.33963593 -0.30062256 367.2752533 -0.30456543 C369.18554805 -0.30727505 371.09588052 -0.29998069 373.00610352 -0.28320312 C375.9209289 -0.26175446 378.83329678 -0.28304947 381.74804688 -0.30859375 C383.61068249 -0.30595079 385.47331658 -0.30082647 387.3359375 -0.29296875 C388.20170914 -0.30106567 389.06748077 -0.3091626 389.95948792 -0.31750488 C395.41429556 -0.2334065 398.5273758 0.62814607 402.86328125 4.23828125 C407.23668619 8.9761366 408.9914915 12.82776873 408.86328125 19.23828125 C409.83152832 19.21733398 410.79977539 19.19638672 411.79736328 19.17480469 C415.4090277 19.10209613 419.02062816 19.05637069 422.6328125 19.01855469 C424.19249369 18.99850903 425.75210038 18.97126468 427.31152344 18.93652344 C429.56073439 18.88768999 431.80894715 18.8652431 434.05859375 18.84765625 C435.09489426 18.81668854 435.09489426 18.81668854 436.15213013 18.78509521 C441.18773842 18.78279091 444.03589224 20.00827956 447.86328125 23.23828125 C449.98539012 26.52131366 450.13009695 29.24015052 450.16967773 33.10498047 C450.18566513 34.28655731 450.20165253 35.46813416 450.21812439 36.68551636 C450.22348709 37.95847565 450.22884979 39.23143494 450.234375 40.54296875 C450.24340347 41.85484161 450.25243195 43.16671448 450.26173401 44.51834106 C450.27820457 47.29399065 450.28592054 50.0695199 450.28881836 52.84521484 C450.29420036 56.3918491 450.33187824 59.93734337 450.37756252 63.48365593 C450.41456285 66.87842113 450.41585045 70.27300883 450.421875 73.66796875 C450.44140732 74.93687958 450.46093964 76.20579041 450.48106384 77.51315308 C450.43080753 87.33565944 450.43080753 87.33565944 447.64086914 90.96142578 C442.73737738 94.98093568 438.86997711 95.48524994 432.59375 95.43359375 C431.91274734 95.43076385 431.23174469 95.42793396 430.53010559 95.42501831 C428.3701467 95.4138865 426.21061331 95.38879582 424.05078125 95.36328125 C422.58008414 95.35324236 421.10938049 95.3441181 419.63867188 95.3359375 C416.04673839 95.31397038 412.4550514 95.27948945 408.86328125 95.23828125 C408.873274 96.79350243 408.873274 96.79350243 408.88346863 98.38014221 C408.94435579 108.16416412 408.98929041 117.94814744 409.01871777 127.73231602 C409.0343554 132.76213558 409.05555899 137.79180185 409.08959961 142.8215332 C409.1222608 147.67798807 409.14014857 152.53429573 409.14791298 157.39085197 C409.15344435 159.24116265 409.16424578 161.09146553 409.18047142 162.94171333 C409.20233563 165.53887292 409.20524443 168.1354288 409.20385742 170.73266602 C409.22003616 171.87310867 409.22003616 171.87310867 409.23654175 173.03659058 C409.1943258 180.37025774 406.87513852 185.74140554 401.86328125 191.23828125 C401.20328125 191.56828125 400.54328125 191.89828125 399.86328125 192.23828125 C399.70052545 199.92275911 399.5764284 207.60705658 399.50059605 215.29286957 C399.46418396 218.86253577 399.4148644 222.4310162 399.33520508 226 C399.2587 229.44956464 399.21720067 232.89799487 399.19914055 236.3483429 C399.18006114 238.29392977 399.12548465 240.23906497 399.07020569 242.18395996 C399.06756295 248.18523879 399.09481317 252.13970224 403.28100586 256.66992188 C403.90132187 257.20572876 404.52163788 257.74153564 405.16075134 258.2935791 C409.52364289 263.27705959 409.15679942 270.08957964 409.13793945 276.35131836 C409.14560585 277.67956886 409.14560585 277.67956886 409.15342712 279.03465271 C409.16726183 281.94504666 409.16637107 284.85520219 409.1640625 287.765625 C409.16795257 289.79911893 409.17228789 291.83261205 409.17704773 293.86610413 C409.18449662 298.12194456 409.18422815 302.37770201 409.17895508 306.63354492 C409.17315996 312.07515679 409.19009907 317.51642835 409.21329975 322.95798397 C409.22806248 327.15570547 409.22890536 331.35334547 409.22579002 335.55108833 C409.22630188 337.55685666 409.23151406 339.56262971 409.24160194 341.56837273 C409.25399931 344.377754 409.24715507 347.1864781 409.2355957 349.99584961 C409.24323944 350.81635803 409.25088318 351.63686646 409.25875854 352.48223877 C409.19332912 359.71127466 407.51376819 366.04015437 402.55078125 371.55078125 C401.99777344 372.18628906 401.44476563 372.82179688 400.875 373.4765625 C396.06162406 377.69177133 391.36164294 378.69851667 385.12109375 378.671875 C384.3938913 378.67711685 383.66668884 378.6823587 382.91744995 378.6877594 C381.38622304 378.6941526 379.85494684 378.69287775 378.32373047 378.68432617 C376.00137269 378.67582915 373.68148955 378.70458911 371.359375 378.73632812 C362.53679352 378.77915158 355.82198994 378.51732137 348.83984375 372.4921875 C348.39382813 371.93402344 347.9478125 371.37585938 347.48828125 370.80078125 C347.02679688 370.24519531 346.5653125 369.68960937 346.08984375 369.1171875 C342.61174683 363.78927471 342.56643878 358.97349402 342.57275391 352.80151367 C342.56603668 351.85778397 342.55931946 350.91405426 342.55239868 349.94172668 C342.5334202 346.8256807 342.52949445 343.70985016 342.52734375 340.59375 C342.5209154 338.4228761 342.51418701 336.25200307 342.50717163 334.08113098 C342.495199 329.53087354 342.49149077 324.98069201 342.49267578 320.43041992 C342.49287889 314.60978229 342.46558445 308.78963333 342.43113136 302.96911144 C342.40885458 298.48486613 342.4048385 294.00073823 342.40589523 289.51644325 C342.40354016 287.37111033 342.39472196 285.22577412 342.3792305 283.08049583 C342.35955659 280.07439698 342.36541458 277.0693495 342.37744141 274.06323242 C342.36620239 273.18347748 342.35496338 272.30372253 342.34338379 271.39730835 C342.41529969 264.29606664 344.38277474 259.1565242 348.98828125 253.73828125 C350.86328125 252.23828125 350.86328125 252.23828125 352.86328125 252.23828125 C352.86328125 232.43828125 352.86328125 212.63828125 352.86328125 192.23828125 C351.54328125 191.57828125 350.22328125 190.91828125 348.86328125 190.23828125 C341.70170162 182.41050816 342.58108933 175.0161051 342.51318359 164.99633789 C342.49659736 163.20095888 342.46927213 161.40564661 342.43115234 159.6105957 C342.37642573 157.01869561 342.35452124 154.4283372 342.33984375 151.8359375 C342.31717438 151.03479019 342.294505 150.23364288 342.27114868 149.40821838 C342.28631544 145.41274156 342.47175759 143.65088574 345.27099609 140.70092773 C347.86328125 139.23828125 347.86328125 139.23828125 349.86328125 139.23828125 C349.86328125 132.96828125 349.86328125 126.69828125 349.86328125 120.23828125 C348.21328125 119.57828125 346.56328125 118.91828125 344.86328125 118.23828125 C342.86328125 116.23828125 342.86328125 116.23828125 342.63623047 114.08349609 C342.6467041 113.21418457 342.65717773 112.34487305 342.66796875 111.44921875 C342.67296387 110.60149902 342.67795898 109.7537793 342.68310547 108.88037109 C342.70131348 107.80223145 342.71952148 106.7240918 342.73828125 105.61328125 C342.77953125 102.18953125 342.82078125 98.76578125 342.86328125 95.23828125 C330.65328125 95.23828125 318.44328125 95.23828125 305.86328125 95.23828125 C306.02088617 102.86704071 306.02088617 102.86704071 306.22363281 110.49462891 C306.2869011 116.57144572 306.19097515 120.57202626 301.86328125 125.23828125 C301.00359741 125.71952957 300.14391357 126.20077789 299.25817871 126.6966095 C295.44019528 130.74858283 296.18179941 135.01283085 296.24804688 140.3815918 C296.23972336 142.08716499 296.23972336 142.08716499 296.23123169 143.82719421 C296.21940274 147.59355562 296.24375302 151.35872229 296.26953125 155.125 C296.2712421 157.74331101 296.27117693 160.36162372 296.26940918 162.97993469 C296.26946276 168.47366847 296.28921431 173.96705845 296.32128906 179.46069336 C296.35809072 185.79433249 296.3669773 192.12751982 296.35999155 198.46125191 C296.35366192 204.5684579 296.36470624 210.67548547 296.38395691 216.78266335 C296.39097352 219.37371888 296.39411307 221.96478799 296.39326477 224.55585289 C296.39507028 228.18681481 296.41652102 231.81714576 296.44335938 235.44799805 C296.44042877 236.51274353 296.43749817 237.57748901 296.43447876 238.67449951 C296.51596541 245.85020544 297.17813977 252.73008554 301.66015625 258.5859375 C302.3046875 259.15183594 302.94921875 259.71773438 303.61328125 260.30078125 C307.67826429 264.05192369 311.28693646 268.02330346 314.86328125 272.23828125 C315.60578125 273.08390625 316.34828125 273.92953125 317.11328125 274.80078125 C321.06393852 280.30348244 322.31210044 285.24604751 322.28320312 291.94262695 C322.29167267 292.67861115 322.30014221 293.41459534 322.30886841 294.17288208 C322.33211489 296.58678859 322.33326341 299.00005288 322.33203125 301.4140625 C322.33914134 303.10646311 322.34684157 304.79886133 322.35510254 306.49125671 C322.36851977 310.03256941 322.37012905 313.5736593 322.36425781 317.11499023 C322.35837051 321.63075325 322.38892527 326.14543788 322.42937469 330.66099262 C322.45535489 334.15540729 322.45811971 337.64956603 322.45448303 341.14406395 C322.45616529 342.8076873 322.46572077 344.47132363 322.48362732 346.13485146 C322.65203807 363.71628522 322.65203807 363.71628522 316.86328125 371.23828125 C311.39720026 376.30428635 307.2020421 378.34942447 299.68286133 378.4152832 C298.40756058 378.42811844 297.13225983 378.44095367 295.8183136 378.45417786 C294.42315053 378.46234746 293.02798305 378.46979077 291.6328125 378.4765625 C290.92843237 378.48063803 290.22405224 378.48471355 289.49832726 378.48891258 C285.76736115 378.50976118 282.03643165 378.52406601 278.30541992 378.53344727 C274.46659643 378.5444871 270.62835652 378.57886148 266.78973866 378.61861897 C263.82558678 378.64486929 260.86157194 378.65314667 257.89731407 378.65672874 C256.48322309 378.66157595 255.06913746 378.67313638 253.6551609 378.69176674 C244.72317953 378.8021035 237.56775573 378.80652578 230.83984375 372.2734375 C230.39382813 371.62246094 229.9478125 370.97148437 229.48828125 370.30078125 C229.02679688 369.65238281 228.5653125 369.00398438 228.08984375 368.3359375 C225.25705435 363.49132633 224.56226598 359.31745796 224.55688477 353.76098633 C224.54856125 353.02529419 224.54023773 352.28960205 224.53166199 351.53161621 C224.50763064 349.10696055 224.49879687 346.68257452 224.4921875 344.2578125 C224.48321349 342.56255517 224.47409151 340.86729862 224.46482849 339.17204285 C224.44835284 335.6188261 224.44064142 332.06570338 224.43774414 328.51245117 C224.43237246 323.98098252 224.39473724 319.45041042 224.34899998 314.91919422 C224.31910667 311.41622272 224.31201788 307.9134635 224.31101799 304.4103756 C224.30683729 302.74115597 224.29449024 301.07193445 224.27350044 299.40284157 C224.14987367 288.71873837 224.85735304 280.38281273 231.85546875 271.79296875 C232.47679687 271.23867188 233.098125 270.684375 233.73828125 270.11328125 C236.49277716 267.53548886 239.11567672 264.9431851 241.61328125 262.11328125 C242.144375 261.51257813 242.67546875 260.911875 243.22265625 260.29296875 C243.7640625 259.61492187 244.30546875 258.936875 244.86328125 258.23828125 C245.54585999 257.4547226 246.22843872 256.67116394 246.93170166 255.86386108 C250.04220591 251.11634513 249.4334075 245.65489605 249.40917969 240.17431641 C249.41951736 238.9639975 249.42985504 237.75367859 249.44050598 236.50668335 C249.46488843 233.20108799 249.47177236 229.89633596 249.47078609 226.59071016 C249.47392157 223.1313014 249.49955288 219.67205984 249.52276611 216.21273804 C249.56328133 209.66806928 249.5836562 203.12350004 249.59674001 196.57872522 C249.61262531 189.1251926 249.65104729 181.67182897 249.69133329 174.21839452 C249.77367085 158.89174037 249.82780122 143.56511984 249.86328125 128.23828125 C249.24710937 127.95210938 248.6309375 127.6659375 247.99609375 127.37109375 C245.01736929 125.78898735 243.70642528 124.06443543 241.86328125 121.23828125 C239.86328125 113.23828125 239.86328125 113.23828125 239.86328125 95.23828125 C218.41328125 95.23828125 196.96328125 95.23828125 174.86328125 95.23828125 C174.86328125 102.16828125 174.86328125 109.09828125 174.86328125 116.23828125 C171.34603987 124.4451778 171.34603987 124.4451778 166.86328125 128.23828125 C166.20328125 128.23828125 165.54328125 128.23828125 164.86328125 128.23828125 C164.90050313 143.35515886 164.96044492 158.47182933 165.04718399 173.58850098 C165.08693616 180.60799526 165.11934794 187.62737806 165.13427734 194.64697266 C165.14870918 201.4228086 165.18386405 208.19828638 165.23159027 214.97396851 C165.24641372 217.55745437 165.25432281 220.14098957 165.2551651 222.72451782 C165.25753345 226.34666681 165.28460533 229.96785977 165.31738281 233.58984375 C165.31235245 234.65511795 165.30732208 235.72039215 165.30213928 236.81794739 C165.40107151 243.89648909 166.4706998 249.6043547 171.42473221 254.91081238 C173.03081835 256.42336638 174.69936613 257.80246439 176.42578125 259.17578125 C177.0398584 259.68447754 177.65393555 260.19317383 178.28662109 260.71728516 C181.19038846 263.11415296 184.13593062 265.45734156 187.0859375 267.796875 C194.53572 273.74266373 199.3428147 278.51922277 200.86328125 288.23828125 C201.16661847 293.49716154 201.16963732 298.75016149 201.1640625 304.015625 C201.16795662 305.55204889 201.17229275 307.08847172 201.17704773 308.62489319 C201.18448052 311.83484396 201.18423993 315.04468468 201.17895508 318.25463867 C201.17316128 322.34760031 201.19010335 326.4401093 201.21329975 330.53299618 C201.22810206 333.70307504 201.22890006 336.87304646 201.22579002 340.04315376 C201.22629987 341.55128438 201.23147378 343.05942154 201.24160194 344.56751823 C201.35727951 364.19654522 201.35727951 364.19654522 194.55078125 371.61328125 C193.99777344 372.23976563 193.44476563 372.86625 192.875 373.51171875 C187.80502422 377.86303777 182.94453042 378.68559261 176.44628906 378.67407227 C175.62266876 378.6841481 174.79904846 378.69422394 173.95046997 378.7046051 C171.23897565 378.73300267 168.52803986 378.73895787 165.81640625 378.7421875 C163.92079443 378.75183581 162.02518483 378.76192882 160.12957764 378.77244568 C156.15859809 378.79038763 152.18781408 378.79596885 148.21679688 378.79418945 C143.14825798 378.79388506 138.0809844 378.83480259 133.0127449 378.88650608 C129.09713069 378.91999939 125.18181788 378.92594302 121.26607513 378.92436028 C119.39868569 378.92788211 117.5312869 378.94104852 115.66403961 378.96435738 C96.54737969 379.18061655 96.54737969 379.18061655 88.86328125 372.23828125 C83.74511377 366.22443446 82.61697279 359.60483662 82.58862305 351.86938477 C82.58351212 351.16920227 82.57840118 350.46901978 82.57313538 349.74761963 C82.55933906 347.45405308 82.56018844 345.16079037 82.5625 342.8671875 C82.55860781 341.25967804 82.55427206 339.65216961 82.54951477 338.04466248 C82.54207414 334.68330545 82.54232828 331.3220535 82.54760742 327.96069336 C82.55340152 323.66919504 82.53646219 319.37812839 82.51326275 315.08670139 C82.49847846 311.76911435 82.49766003 308.45163019 82.50077248 305.13401604 C82.5002617 303.55249107 82.49507003 301.97095998 82.48496056 300.38946724 C82.37839213 281.38966114 82.37839213 281.38966114 89.17578125 273.84375 C92.1986174 270.96785727 95.48691671 268.41549788 98.73828125 265.8046875 C102.20530803 262.98772824 105.5507553 260.04716241 108.86328125 257.05078125 C109.415 256.56399902 109.96671875 256.0772168 110.53515625 255.57568359 C114.60332042 251.85618325 117.48721445 248.45443889 118.14523888 242.82695389 C118.27282417 239.82008727 118.29968151 236.82649306 118.2956543 233.81689453 C118.30584595 232.67485062 118.3160376 231.5328067 118.32653809 230.3561554 C118.35667492 226.59025165 118.36593542 222.82460226 118.375 219.05859375 C118.39184611 216.44399164 118.40999625 213.82939763 118.42939758 211.21481323 C118.47300666 205.04203685 118.50158783 198.86928676 118.52472097 192.69640338 C118.55180275 185.66609031 118.59571233 178.6359135 118.64100969 171.60569787 C118.73377572 157.14997228 118.8054932 142.69418846 118.86328125 128.23828125 C118.0846875 127.96886719 117.30609375 127.69945312 116.50390625 127.421875 C112.90782166 125.81002052 111.78879517 123.60793061 109.86328125 120.23828125 C107.22594252 112.32626507 108.86328125 103.57827859 108.86328125 95.23828125 C87.74328125 95.23828125 66.62328125 95.23828125 44.86328125 95.23828125 C44.86328125 102.82828125 44.86328125 110.41828125 44.86328125 118.23828125 C39.86328125 126.23828125 39.86328125 126.23828125 37.58084488 127.84084034 C35.55415967 129.17751115 35.55415967 129.17751115 35.37108994 132.07496929 C35.37662069 133.81854072 35.37662069 133.81854072 35.38226318 135.59733582 C35.37713663 136.56898264 35.37713663 136.56898264 35.37190652 137.56025869 C35.36530793 139.73487459 35.38733387 141.90826117 35.40917969 144.08276367 C35.41030775 145.63983633 35.40967511 147.19691112 35.40740967 148.75398254 C35.40625997 152.98526055 35.42981035 157.21608683 35.4577055 161.44725966 C35.48267672 165.86751131 35.48505776 170.28777281 35.48980713 174.70808411 C35.50224953 183.08041896 35.53508816 191.4525454 35.57520509 199.82478839 C35.61988355 209.35548154 35.64189994 218.88618454 35.66198683 228.41695631 C35.70381974 248.02418104 35.77419629 267.63121803 35.86328125 287.23828125 C36.89601669 287.50758957 37.92875214 287.77689789 38.99278259 288.05436707 C40.35972497 288.41396143 41.72663081 288.7736947 43.09350586 289.13354492 C44.11240025 289.39865498 44.11240025 289.39865498 45.15187836 289.66912079 C54.88437163 292.23962281 65.54847152 296.11806775 70.86328125 305.23828125 C75.71654735 315.38601945 72.09325141 328.37683459 68.796875 338.51953125 C66.0786438 345.48107385 62.4374519 351.35134413 57.86328125 357.23828125 C57.39148438 357.87507813 56.9196875 358.511875 56.43359375 359.16796875 C48.45759188 369.30695417 35.45507859 376.03662291 22.86328125 378.23828125 C4.87891268 379.83270264 -10.19748914 377.57093096 -24.6953125 366.23828125 C-37.12700241 355.64201588 -46.62996868 340.81253201 -48.13671875 324.23828125 C-49.07769081 307.86536735 -49.07769081 307.86536735 -43.296875 301.078125 C-34.56992878 293.1637436 -23.06380295 288.01324193 -11.13671875 288.23828125 C-11.14338058 287.6229805 -11.15004242 287.00767975 -11.15690613 286.37373352 C-11.22330871 279.96608712 -11.2685399 273.55853858 -11.30151367 267.15063477 C-11.31659418 264.75964385 -11.33706152 262.36868057 -11.36303711 259.9777832 C-11.39945181 256.5398069 -11.41645274 253.10219656 -11.4296875 249.6640625 C-11.44517136 248.59617996 -11.46065521 247.52829742 -11.47660828 246.42805481 C-11.47881536 236.68133655 -11.47881536 236.68133655 -8.13671875 233.23828125 C-6.48671875 232.90828125 -4.83671875 232.57828125 -3.13671875 232.23828125 C-3.13671875 225.96828125 -3.13671875 219.69828125 -3.13671875 213.23828125 C-4.78671875 212.90828125 -6.43671875 212.57828125 -8.13671875 212.23828125 C-11.52472035 208.31582571 -11.55148974 204.37655686 -11.47729492 199.41870117 C-11.477733 198.64743896 -11.47817108 197.87617676 -11.47862244 197.08154297 C-11.47653991 194.54368376 -11.45323472 192.00649316 -11.4296875 189.46875 C-11.42408963 187.70470033 -11.41982043 185.94064598 -11.41682434 184.17658997 C-11.40539061 179.54211465 -11.37593615 174.90792307 -11.3427124 170.27355957 C-11.31197974 165.54113605 -11.29831218 160.80866651 -11.28320312 156.07617188 C-11.251065 146.7967506 -11.19988648 137.51753955 -11.13671875 128.23828125 C-12.06097656 127.81482422 -12.06097656 127.81482422 -13.00390625 127.3828125 C-17.47038251 124.98596718 -19.56536034 120.89020508 -21.13671875 116.23828125 C-21.36376953 113.74291992 -21.36376953 113.74291992 -21.33203125 111.15625 C-21.32558594 110.22490234 -21.31914063 109.29355469 -21.3125 108.33398438 C-21.29574219 107.37427734 -21.27898438 106.41457031 -21.26171875 105.42578125 C-21.25269531 104.44673828 -21.24367187 103.46769531 -21.234375 102.45898438 C-21.21089057 100.05183064 -21.17804715 97.64518382 -21.13671875 95.23828125 C-22.49821045 95.26184692 -22.49821045 95.26184692 -23.88720703 95.28588867 C-27.27544947 95.33721255 -30.66327494 95.37472541 -34.05175781 95.40307617 C-35.5143895 95.41810321 -36.97697657 95.4385308 -38.43945312 95.46459961 C-40.54959155 95.50125392 -42.65913101 95.51806801 -44.76953125 95.53125 C-46.03684082 95.54696045 -47.30415039 95.5626709 -48.60986328 95.57885742 C-53.64866206 95.09227814 -56.76951878 93.6627003 -60.27871704 90.00663757 C-62.46658582 86.74679108 -62.64258674 85.04156452 -62.65429688 81.15039062 C-62.66690552 79.94564087 -62.67951416 78.74089111 -62.69250488 77.49963379 C-62.68440796 76.20682495 -62.67631104 74.91401611 -62.66796875 73.58203125 C-62.67066576 72.23351766 -62.67454992 70.88500598 -62.67956543 69.53649902 C-62.68545086 66.71538714 -62.67692943 63.89478314 -62.65820312 61.07373047 C-62.6354129 57.4654472 -62.64854129 53.85835408 -62.67249298 50.25011444 C-62.68697758 47.46701155 -62.68233306 44.6841888 -62.67198181 41.90107727 C-62.66803239 39.92635318 -62.68013731 37.95161802 -62.69250488 35.97692871 C-62.67989624 34.77217896 -62.6672876 33.5674292 -62.65429688 32.32617188 C-62.6511145 31.26869751 -62.64793213 30.21122314 -62.64465332 29.1217041 C-61.90874012 24.94410121 -59.7455326 22.41722216 -56.36230469 19.93798828 C-53.09994075 18.91232625 -49.90997949 18.99317124 -46.52734375 19.04296875 C-45.80053406 19.04579865 -45.07372437 19.04862854 -44.32489014 19.05154419 C-42.01199624 19.06270602 -39.69949487 19.08780274 -37.38671875 19.11328125 C-35.81510977 19.12331624 -34.24349471 19.13244119 -32.671875 19.140625 C-28.82667253 19.16263221 -24.98176211 19.1971341 -21.13671875 19.23828125 C-21.0078125 17.9853125 -20.87890625 16.73234375 -20.74609375 15.44140625 C-20.17590055 9.89912836 -17.6582102 6.57864276 -13.51171875 2.92578125 C-9.08648743 -0.21846205 -5.28122571 0.04401096 0 0 Z " fill="#010101" transform="translate(62.13671875,66.76171875)"/>
<path d="M0 0 C4.95 0 9.9 0 15 0 C15.00546844 2.12112213 15.00546844 2.12112213 15.01104736 4.28509521 C15.04806803 17.64375159 15.10568387 31.00218801 15.18390274 44.36066818 C15.22358971 51.22759099 15.25603435 58.09440091 15.27099609 64.96142578 C15.28546924 71.5946166 15.32069831 78.22749295 15.36830902 84.8605423 C15.38308955 87.38489989 15.39103909 89.90930747 15.39188385 92.43370819 C15.39426517 95.98319865 15.42144058 99.53173073 15.45410156 103.08105469 C15.4490712 104.11324631 15.44404083 105.14543793 15.43885803 106.20890808 C15.60111857 117.6864185 18.87038923 127.73413877 27 136 C31.08448847 139.56820913 35.31040434 143.00752725 39.66978073 146.23698616 C45.13935284 150.31361129 50.0968656 154.09364538 52.17340088 160.77609253 C52.73416647 165.0292085 52.60031116 169.25094309 52.4453125 173.52734375 C52.43372358 175.09002326 52.42721687 176.65274781 52.42550659 178.21546936 C52.40869152 181.46736607 52.34945294 184.71452404 52.25537109 187.96508789 C52.13583689 192.12401853 52.09605874 196.27884657 52.08421516 200.43933773 C52.07119112 203.65595259 52.03076403 206.87172106 51.98058701 210.08795357 C51.95721151 211.62163963 51.93895246 213.15541285 51.92599869 214.68922234 C51.90094921 216.8294089 51.84252323 218.9660453 51.77392578 221.10522461 C51.74581818 222.31923447 51.71771057 223.53324432 51.68875122 224.78404236 C50.78420947 229.0075818 49.49036018 230.48385685 46 233 C43.2652407 233.49118218 41.15358406 233.67691624 38.42749023 233.63110352 C37.68216034 233.63825882 36.93683044 233.64541412 36.16891479 233.65278625 C33.71484354 233.66964177 31.26260716 233.65029328 28.80859375 233.62890625 C27.09896188 233.62973516 25.3893301 233.63219538 23.67970276 233.63621521 C20.10108379 233.63907091 16.5230915 233.62439324 12.94458008 233.59692383 C8.35874004 233.56281512 3.77401849 233.5688697 -0.81187534 233.5875864 C-4.34040138 233.59815622 -7.86866727 233.58921928 -11.39716911 233.57420158 C-13.08804489 233.56902088 -14.77894784 233.56950024 -16.46982002 233.57574654 C-18.83276915 233.58119978 -21.19411804 233.56082381 -23.55688477 233.53344727 C-24.2546553 233.53997314 -24.95242584 233.54649902 -25.67134094 233.55322266 C-28.83736852 233.49087616 -30.76566378 233.15387256 -33.43185425 231.40316772 C-35.55685331 228.14662786 -35.51429113 225.89466817 -35.53344727 222.01586914 C-35.54637062 220.97365456 -35.54637062 220.97365456 -35.55955505 219.91038513 C-35.58221993 217.61826098 -35.57547574 215.32735906 -35.56640625 213.03515625 C-35.57164199 211.43858985 -35.57791829 209.84202656 -35.58518982 208.24546814 C-35.59559516 204.90055784 -35.59103149 201.55607291 -35.57641602 198.21118164 C-35.55923507 193.92906061 -35.58271263 189.64828225 -35.61790562 185.36631107 C-35.63989032 182.06936283 -35.63843556 178.77273528 -35.6301403 175.47573662 C-35.62932121 173.897308 -35.63617668 172.31885574 -35.65091133 170.74049568 C-35.66837723 168.53067217 -35.65380253 166.32325313 -35.63110352 164.11352539 C-35.63014175 162.857621 -35.62917999 161.60171661 -35.62818909 160.30775452 C-34.8309169 156.10968625 -33.22122008 154.71159214 -30 152 C-29.16082031 151.20980469 -28.32164062 150.41960937 -27.45703125 149.60546875 C-22.98819469 145.51948673 -18.52087338 141.58808412 -13.6875 137.9375 C-7.26569873 132.88377722 -3.09512287 126.92190291 -1 119 C-0.6901662 115.1327205 -0.68883007 111.27323867 -0.68115234 107.39501953 C-0.66608391 105.65269295 -0.66608391 105.65269295 -0.65071106 103.87516785 C-0.61987541 100.04438766 -0.60284254 96.21367738 -0.5859375 92.3828125 C-0.56722617 89.72336817 -0.54774877 87.06394051 -0.5272522 84.4045105 C-0.48053716 78.12549316 -0.44375797 71.84645881 -0.41057932 65.56735694 C-0.37230638 58.41614962 -0.32290984 51.26503253 -0.27259517 44.11390138 C-0.16938362 29.4093366 -0.08048285 14.70470703 0 0 Z " fill="#DCCEC9" transform="translate(196,197)"/>
<path d="M0 0 C4.95 0 9.9 0 15 0 C15.00586624 1.47894241 15.01173248 2.95788483 15.01777649 4.48164368 C15.07507934 18.44394422 15.14770588 32.40610072 15.23571491 46.3682375 C15.28056823 53.54568826 15.3200066 60.72309056 15.34643555 67.90063477 C15.36950084 74.16087303 15.40299295 80.42095659 15.44870156 86.68107194 C15.47251972 89.99190123 15.48976674 93.30254753 15.49761391 96.61345863 C15.50728779 100.32106675 15.53538793 104.02812431 15.56762695 107.7355957 C15.56619186 108.81813629 15.56475677 109.90067688 15.5632782 111.01602173 C15.69669105 121.92067426 17.6372482 130.76716282 25 139 C25.5873291 139.65709961 26.1746582 140.31419922 26.77978516 140.99121094 C28.59960188 142.97725859 30.44839088 144.93052446 32.3125 146.875 C33.56064372 148.18294265 34.80683896 149.49274836 36.05078125 150.8046875 C36.59387939 151.37171387 37.13697754 151.93874023 37.6965332 152.52294922 C40.56690905 155.77557591 40.13865002 158.654895 40.16113281 162.88061523 C40.16858017 163.94184097 40.16858017 163.94184097 40.17617798 165.02450562 C40.19080532 167.36921148 40.19760199 169.71384972 40.203125 172.05859375 C40.20887533 173.68522647 40.21463308 175.31185916 40.22039795 176.93849182 C40.23090911 180.35068071 40.23675123 183.76284602 40.24023438 187.17504883 C40.24572391 191.55122715 40.26976104 195.92709507 40.29820633 200.30317593 C40.31681138 203.66344622 40.32203713 207.02364136 40.32357025 210.38395882 C40.3266014 211.99753583 40.33464548 213.61111138 40.34775543 215.22463799 C40.36477433 217.47999728 40.36294649 219.73459313 40.35644531 221.98999023 C40.36191376 223.91620461 40.36191376 223.91620461 40.36749268 225.8813324 C40 229 40 229 38.60272217 230.87562561 C35.50595855 233.04813047 33.44798783 233.1392464 29.69580078 233.17700195 C28.5877005 233.18983719 27.47960022 233.20267242 26.33792114 233.21589661 C25.13586029 233.22328354 23.93379944 233.23067047 22.6953125 233.23828125 C21.46465057 233.246353 20.23398865 233.25442474 18.96603394 233.26274109 C16.35839247 233.27659032 13.75073281 233.2873087 11.14306641 233.29516602 C8.46770519 233.30403561 5.79286178 233.32492948 3.11767578 233.35668945 C-0.73160586 233.3991954 -4.58020082 233.41551205 -8.4296875 233.42578125 C-10.22670609 233.45204338 -10.22670609 233.45204338 -12.06002808 233.47883606 C-13.17443268 233.47591049 -14.28883728 233.47298492 -15.43701172 233.4699707 C-16.90689041 233.47877007 -16.90689041 233.47877007 -18.40646362 233.48774719 C-21.73003232 232.86270822 -22.88864336 231.5802318 -25 229 C-26.42290465 226.15419069 -26.19075133 223.68745336 -26.25634766 220.50585938 C-26.27825165 219.50539078 -26.27825165 219.50539078 -26.30059814 218.48471069 C-26.42689356 212.31499825 -26.4954432 206.14399479 -26.54844093 199.97325897 C-26.58412039 195.83179466 -26.63720953 191.69228625 -26.73388672 187.55175781 C-26.82721598 183.54215003 -26.87544183 179.53426836 -26.89283371 175.52363586 C-26.90684704 174.00215878 -26.93630333 172.48073581 -26.98213577 170.95988464 C-27.20574972 163.15387736 -27.07141706 157.27896491 -21.62573242 151.18017578 C-20.11172554 149.7565139 -18.57253312 148.35873823 -17 147 C-16.01102886 145.97925351 -15.03315053 144.94745474 -14.07421875 143.8984375 C-13.28660156 143.06570313 -12.49898438 142.23296875 -11.6875 141.375 C-7.78527472 137.08557717 -5.18109294 133.36185348 -3 128 C-2.64563873 127.17897797 -2.29127747 126.35795593 -1.92617798 125.51205444 C-0.57384633 120.384031 -0.69134819 115.4022166 -0.68115234 110.11962891 C-0.67110672 108.92881714 -0.6610611 107.73800537 -0.65071106 106.5111084 C-0.62518166 103.259493 -0.6082885 100.0079723 -0.59528303 96.7562871 C-0.57961301 93.35296742 -0.55283521 89.94973526 -0.5272522 86.54647827 C-0.48053275 80.10808826 -0.44375568 73.66968165 -0.41057932 67.23120916 C-0.37230952 59.89862815 -0.32291215 52.5661352 -0.27259517 45.23362851 C-0.16937702 30.15581656 -0.08047855 15.07795172 0 0 Z " fill="#DDCFCA" transform="translate(328,197)"/>
<path d="M0 0 C0.71353638 0.00202423 1.42707275 0.00404846 2.16223145 0.00613403 C2.89091431 0.00517731 3.61959717 0.00422058 4.37036133 0.00323486 C5.91377855 0.00255318 7.45719861 0.00440666 9.00061035 0.00857544 C11.37095544 0.01392391 13.74111104 0.00863011 16.1114502 0.00222778 C17.60754437 0.00288857 19.10363842 0.00416973 20.59973145 0.00613403 C21.31326782 0.0041098 22.0268042 0.00208557 22.76196289 0 C27.76602953 0.02399462 27.76602953 0.02399462 28.88098145 1.13894653 C28.98002831 3.224916 29.00730479 5.31429887 29.00796509 7.40261841 C29.00952508 8.06430275 29.01108507 8.72598709 29.01269233 9.40772247 C29.01670416 11.64106933 29.013512 13.87434908 29.01037598 16.10769653 C29.01172994 17.70226074 29.01350984 19.29682464 29.01568604 20.89138794 C29.02026099 25.23424032 29.01847055 29.57706906 29.01530695 33.91992188 C29.01278367 38.45451931 29.0151208 42.98911465 29.01669312 47.52371216 C29.0185149 55.14025233 29.01610826 62.75678283 29.01135254 70.37332153 C29.0059099 79.19210842 29.00767255 88.01087219 29.01317894 96.82965851 C29.01770981 104.3871709 29.01836075 111.94467632 29.01574028 119.50218964 C29.01417735 124.02214436 29.01398415 128.5420882 29.01727676 133.06204224 C29.02015509 137.31040535 29.0181805 141.55873852 29.01238251 145.80709839 C29.0110547 147.37085927 29.01144937 148.93462266 29.01364517 150.49838257 C29.01635589 152.62404786 29.01297655 154.74961567 29.00796509 156.87527466 C29.00758806 158.06769775 29.00721104 159.26012085 29.00682259 160.48867798 C28.88098145 163.13894653 28.88098145 163.13894653 27.88098145 164.13894653 C25.52869826 164.25211937 23.20686197 164.3031119 20.8536377 164.30691528 C20.14952255 164.31024368 19.44540741 164.31357208 18.71995544 164.31700134 C17.22782038 164.32207308 15.73567394 164.32440959 14.24353027 164.32424927 C11.95647537 164.32643412 9.66990392 164.34458202 7.38293457 164.36355591 C5.9356706 164.36649007 4.48840433 164.36847471 3.0411377 164.36941528 C2.35463638 164.3766008 1.66813507 164.38378632 0.96083069 164.39118958 C-3.89019486 164.36777022 -3.89019486 164.36777022 -6.11901855 162.13894653 C-6.32779669 159.66912558 -6.42007805 157.30217281 -6.4276123 154.83035278 C-6.4527704 153.34662486 -6.47816845 151.862901 -6.50378418 150.37918091 C-6.53254643 148.03763865 -6.55656085 145.69616672 -6.57531738 143.35452271 C-6.59695302 141.09609552 -6.63638772 138.83849481 -6.6776123 136.58035278 C-6.67772812 135.88027603 -6.67784393 135.18019928 -6.67796326 134.45890808 C-6.75210189 130.64867966 -6.75210189 130.64867966 -8.39660645 127.29885864 C-10.42770237 125.87738769 -10.42770237 125.87738769 -14.11901855 124.13894653 C-14.11901855 117.86894653 -14.11901855 111.59894653 -14.11901855 105.13894653 C-12.13901855 104.14894653 -10.15901855 103.15894653 -8.11901855 102.13894653 C-6.38600865 98.67292673 -6.946983 94.65671059 -6.92956543 90.83987427 C-6.92127213 89.87558502 -6.91297882 88.91129578 -6.9044342 87.91778564 C-6.88701062 85.81975906 -6.87185016 83.72171277 -6.85865784 81.62365532 C-6.83768212 78.30888071 -6.81065642 74.99420549 -6.78198242 71.67948914 C-6.71204309 63.44760037 -6.65267132 55.21564122 -6.59295654 46.9836731 C-6.54212084 40.02972783 -6.48732798 33.0758362 -6.42713928 26.12196541 C-6.40046243 22.84634597 -6.37971087 19.57072182 -6.35913086 16.2950592 C-6.34253599 14.29957845 -6.32566488 12.30409996 -6.30847168 10.30862427 C-6.30428726 9.38963852 -6.30010284 8.47065277 -6.29579163 7.52381897 C-6.22059212 0.02982789 -6.22059212 0.02982789 0 0 Z " fill="#8F808F" transform="translate(426.1190185546875,81.86105346679688)"/>
<path d="M0 0 C0.71353638 0.00202423 1.42707275 0.00404846 2.16223145 0.00613403 C2.89091431 0.00517731 3.61959717 0.00422058 4.37036133 0.00323486 C5.91377855 0.00255318 7.45719861 0.00440666 9.00061035 0.00857544 C11.37095544 0.01392391 13.74111104 0.00863011 16.1114502 0.00222778 C17.60754437 0.00288857 19.10363842 0.00416973 20.59973145 0.00613403 C21.31326782 0.0041098 22.0268042 0.00208557 22.76196289 0 C27.76602953 0.02399462 27.76602953 0.02399462 28.88098145 1.13894653 C28.98162343 4.17760414 29.01712734 7.19357383 29.01037598 10.23269653 C29.0121283 11.18708618 29.01388062 12.14147583 29.01568604 13.12478638 C29.02010631 16.29619131 29.01716594 19.46754098 29.01379395 22.63894653 C29.01446693 24.83230602 29.01543692 27.02566543 29.01669312 29.21902466 C29.01817033 33.82254749 29.01601478 38.42605095 29.01135254 43.02957153 C29.00565524 48.94499248 29.00893412 54.86036807 29.014925 60.77578735 C29.01852999 65.30691879 29.01739232 69.83803939 29.01479721 74.36917114 C29.01412777 76.55097458 29.01495696 78.73277899 29.01727676 80.9145813 C29.01980226 83.95814643 29.01596414 87.00163699 29.01037598 90.04519653 C29.01240021 90.95640259 29.01442444 91.86760864 29.01651001 92.806427 C28.99524374 99.02468424 28.99524374 99.02468424 27.88098145 100.13894653 C25.44437699 100.23977417 23.03673444 100.27867257 20.59973145 100.27175903 C19.87104858 100.27271576 19.14236572 100.27367249 18.39160156 100.2746582 C16.84818435 100.27533989 15.30476428 100.27348641 13.76135254 100.26931763 C11.39100745 100.26396916 9.02085185 100.26926295 6.6505127 100.27566528 C5.15441852 100.2750045 3.65832447 100.27372333 2.16223145 100.27175903 C1.09192688 100.27479538 1.09192688 100.27479538 0 100.27789307 C-5.00406664 100.25389845 -5.00406664 100.25389845 -6.11901855 99.13894653 C-6.21966054 96.10028892 -6.25516445 93.08431923 -6.24841309 90.04519653 C-6.25016541 89.09080688 -6.25191772 88.13641724 -6.25372314 87.15310669 C-6.25814342 83.98170176 -6.25520305 80.81035208 -6.25183105 77.63894653 C-6.25250404 75.44558705 -6.25347403 73.25222764 -6.25473022 71.05886841 C-6.25620744 66.45534558 -6.25405189 61.85184212 -6.24938965 57.24832153 C-6.24369235 51.33290058 -6.24697123 45.417525 -6.25296211 39.50210571 C-6.2565671 34.97097427 -6.25542943 30.43985368 -6.25283432 25.90872192 C-6.25216488 23.72691848 -6.25299407 21.54511408 -6.25531387 19.36331177 C-6.25783937 16.31974664 -6.25400125 13.27625608 -6.24841309 10.23269653 C-6.25043732 9.32149048 -6.25246155 8.41028442 -6.25454712 7.47146606 C-6.22909706 0.02986867 -6.22909706 0.02986867 0 0 Z " fill="#796C78" transform="translate(324.1190185546875,81.86105346679688)"/>
<path d="M0 0 C0.71353638 0.00202423 1.42707275 0.00404846 2.16223145 0.00613403 C2.89091431 0.00517731 3.61959717 0.00422058 4.37036133 0.00323486 C5.91377855 0.00255318 7.45719861 0.00440666 9.00061035 0.00857544 C11.37095544 0.01392391 13.74111104 0.00863011 16.1114502 0.00222778 C17.60754437 0.00288857 19.10363842 0.00416973 20.59973145 0.00613403 C21.31326782 0.0041098 22.0268042 0.00208557 22.76196289 0 C27.76602953 0.02399462 27.76602953 0.02399462 28.88098145 1.13894653 C28.98162343 4.17760414 29.01712734 7.19357383 29.01037598 10.23269653 C29.0121283 11.18708618 29.01388062 12.14147583 29.01568604 13.12478638 C29.02010631 16.29619131 29.01716594 19.46754098 29.01379395 22.63894653 C29.01446693 24.83230602 29.01543692 27.02566543 29.01669312 29.21902466 C29.01817033 33.82254749 29.01601478 38.42605095 29.01135254 43.02957153 C29.00565524 48.94499248 29.00893412 54.86036807 29.014925 60.77578735 C29.01852999 65.30691879 29.01739232 69.83803939 29.01479721 74.36917114 C29.01412777 76.55097458 29.01495696 78.73277899 29.01727676 80.9145813 C29.01980226 83.95814643 29.01596414 87.00163699 29.01037598 90.04519653 C29.01240021 90.95640259 29.01442444 91.86760864 29.01651001 92.806427 C28.99524374 99.02468424 28.99524374 99.02468424 27.88098145 100.13894653 C25.44437699 100.23977417 23.03673444 100.27867257 20.59973145 100.27175903 C19.87104858 100.27271576 19.14236572 100.27367249 18.39160156 100.2746582 C16.84818435 100.27533989 15.30476428 100.27348641 13.76135254 100.26931763 C11.39100745 100.26396916 9.02085185 100.26926295 6.6505127 100.27566528 C5.15441852 100.2750045 3.65832447 100.27372333 2.16223145 100.27175903 C1.09192688 100.27479538 1.09192688 100.27479538 0 100.27789307 C-5.00406664 100.25389845 -5.00406664 100.25389845 -6.11901855 99.13894653 C-6.21966054 96.10028892 -6.25516445 93.08431923 -6.24841309 90.04519653 C-6.25016541 89.09080688 -6.25191772 88.13641724 -6.25372314 87.15310669 C-6.25814342 83.98170176 -6.25520305 80.81035208 -6.25183105 77.63894653 C-6.25250404 75.44558705 -6.25347403 73.25222764 -6.25473022 71.05886841 C-6.25620744 66.45534558 -6.25405189 61.85184212 -6.24938965 57.24832153 C-6.24369235 51.33290058 -6.24697123 45.417525 -6.25296211 39.50210571 C-6.2565671 34.97097427 -6.25542943 30.43985368 -6.25283432 25.90872192 C-6.25216488 23.72691848 -6.25299407 21.54511408 -6.25531387 19.36331177 C-6.25783937 16.31974664 -6.25400125 13.27625608 -6.24841309 10.23269653 C-6.25043732 9.32149048 -6.25246155 8.41028442 -6.25454712 7.47146606 C-6.22909706 0.02986867 -6.22909706 0.02986867 0 0 Z " fill="#776A76" transform="translate(192.1190185546875,81.86105346679688)"/>
<path d="M0 0 C0.71353638 0.00202423 1.42707275 0.00404846 2.16223145 0.00613403 C2.89091431 0.00517731 3.61959717 0.00422058 4.37036133 0.00323486 C5.91377855 0.00255318 7.45719861 0.00440666 9.00061035 0.00857544 C11.37095544 0.01392391 13.74111104 0.00863011 16.1114502 0.00222778 C17.60754437 0.00288857 19.10363842 0.00416973 20.59973145 0.00613403 C21.31326782 0.0041098 22.0268042 0.00208557 22.76196289 0 C27.76602953 0.02399462 27.76602953 0.02399462 28.88098145 1.13894653 C28.98162343 4.17760414 29.01712734 7.19357383 29.01037598 10.23269653 C29.0121283 11.18708618 29.01388062 12.14147583 29.01568604 13.12478638 C29.02010631 16.29619131 29.01716594 19.46754098 29.01379395 22.63894653 C29.01446693 24.83230602 29.01543692 27.02566543 29.01669312 29.21902466 C29.01817033 33.82254749 29.01601478 38.42605095 29.01135254 43.02957153 C29.00565524 48.94499248 29.00893412 54.86036807 29.014925 60.77578735 C29.01852999 65.30691879 29.01739232 69.83803939 29.01479721 74.36917114 C29.01412777 76.55097458 29.01495696 78.73277899 29.01727676 80.9145813 C29.01980226 83.95814643 29.01596414 87.00163699 29.01037598 90.04519653 C29.01240021 90.95640259 29.01442444 91.86760864 29.01651001 92.806427 C28.99524374 99.02468424 28.99524374 99.02468424 27.88098145 100.13894653 C25.44437699 100.23977417 23.03673444 100.27867257 20.59973145 100.27175903 C19.87104858 100.27271576 19.14236572 100.27367249 18.39160156 100.2746582 C16.84818435 100.27533989 15.30476428 100.27348641 13.76135254 100.26931763 C11.39100745 100.26396916 9.02085185 100.26926295 6.6505127 100.27566528 C5.15441852 100.2750045 3.65832447 100.27372333 2.16223145 100.27175903 C1.09192688 100.27479538 1.09192688 100.27479538 0 100.27789307 C-5.00406664 100.25389845 -5.00406664 100.25389845 -6.11901855 99.13894653 C-6.21966054 96.10028892 -6.25516445 93.08431923 -6.24841309 90.04519653 C-6.25016541 89.09080688 -6.25191772 88.13641724 -6.25372314 87.15310669 C-6.25814342 83.98170176 -6.25520305 80.81035208 -6.25183105 77.63894653 C-6.25250404 75.44558705 -6.25347403 73.25222764 -6.25473022 71.05886841 C-6.25620744 66.45534558 -6.25405189 61.85184212 -6.24938965 57.24832153 C-6.24369235 51.33290058 -6.24697123 45.417525 -6.25296211 39.50210571 C-6.2565671 34.97097427 -6.25542943 30.43985368 -6.25283432 25.90872192 C-6.25216488 23.72691848 -6.25299407 21.54511408 -6.25531387 19.36331177 C-6.25783937 16.31974664 -6.25400125 13.27625608 -6.24841309 10.23269653 C-6.25043732 9.32149048 -6.25246155 8.41028442 -6.25454712 7.47146606 C-6.22909706 0.02986867 -6.22909706 0.02986867 0 0 Z " fill="#786B77" transform="translate(63.1190185546875,81.86105346679688)"/>
<path d="M0 0 C1.63388672 -0.00290039 1.63388672 -0.00290039 3.30078125 -0.00585938 C4.42871094 0.01798828 5.55664062 0.04183594 6.71875 0.06640625 C7.84667969 0.05544922 8.97460938 0.04449219 10.13671875 0.03320312 C18.28818318 0.1055534 18.28818318 0.1055534 21.8522644 2.11000061 C25.1714219 5.64293762 24.92123613 8.8597113 24.86572266 13.46484375 C24.87448425 14.35633118 24.88324585 15.2478186 24.89227295 16.1663208 C24.91427676 19.11267796 24.89971074 22.05753388 24.8828125 25.00390625 C24.88618035 27.05127246 24.89103271 29.09863673 24.89730835 31.14599609 C24.90468102 35.43671709 24.89396125 39.72691763 24.87060547 44.01757812 C24.84211774 49.51937281 24.85851956 55.01994806 24.88846779 60.521698 C24.90652995 64.74936116 24.90078764 68.97673489 24.88782883 73.20440674 C24.88449184 75.23301335 24.88859216 77.26164618 24.90022659 79.29022217 C24.91291735 82.12517966 24.89358335 84.95815876 24.86572266 87.79296875 C24.87584381 88.63257141 24.88596497 89.47217407 24.89639282 90.33721924 C24.82385941 94.31816381 24.62630689 96.19509953 21.8522644 99.14781189 C17.0674273 101.83881493 12.08324105 101.24351845 6.71875 101.19140625 C5.59082031 101.21525391 4.46289062 101.23910156 3.30078125 101.26367188 C2.21152344 101.26173828 1.12226563 101.25980469 0 101.2578125 C-1.4840332 101.25890015 -1.4840332 101.25890015 -2.99804688 101.26000977 C-6.94860306 100.36420382 -8.28543859 98.80069005 -10.78125 95.62890625 C-11.50199732 92.70890908 -11.46539861 89.87517717 -11.42822266 86.87890625 C-11.43698425 86.00838623 -11.44574585 85.13786621 -11.45477295 84.2409668 C-11.47673995 81.3697696 -11.46222399 78.50011849 -11.4453125 75.62890625 C-11.44868141 73.63020533 -11.45353466 71.63150641 -11.45980835 69.6328125 C-11.46717602 65.44641593 -11.45647741 61.26055321 -11.43310547 57.07421875 C-11.40461794 51.71042386 -11.42102245 46.34787986 -11.45096779 40.98413086 C-11.4690435 36.85765167 -11.46328144 32.73146862 -11.45032883 28.60498047 C-11.44699558 26.6274399 -11.45107903 24.64987236 -11.46272659 22.67236328 C-11.47543974 19.90715422 -11.45605238 17.143965 -11.42822266 14.37890625 C-11.44340439 13.15530396 -11.44340439 13.15530396 -11.45889282 11.90698242 C-11.37980785 7.66124897 -11.1344717 6.07779548 -8.4147644 2.62147522 C-5.33114212 0.28834574 -3.82757594 -0.00280523 0 0 Z " fill="#CABCB7" transform="translate(430.78125,329.37109375)"/>
<path d="M0 0 C6.27 0 12.54 0 19 0 C19.99 1.98 20.98 3.96 22 6 C27.6960025 8.84800125 34.64266496 7.62603912 41 8 C41 22.85 41 37.7 41 53 C19.88 53 -1.24 53 -23 53 C-23 38.15 -23 23.3 -23 8 C-17.06 7.67 -11.12 7.34 -5 7 C-1.78918149 4.10540926 -1.78918149 4.10540926 0 0 Z " fill="#FDDF76" transform="translate(130,93)"/>
<path d="M0 0 C22.11 0 44.22 0 67 0 C67 14.85 67 29.7 67 45 C44.89 45 22.78 45 0 45 C0 30.15 0 15.3 0 0 Z " fill="#FEE076" transform="translate(236,101)"/>
<path d="M0 0 C2.31 0 4.62 0 7 0 C7.00146656 0.5816177 7.00293312 1.1632354 7.00444412 1.76247787 C7.04161305 15.96201575 7.10076029 30.16132283 7.18390274 44.36066818 C7.22358971 51.22759099 7.25603435 58.09440091 7.27099609 64.96142578 C7.28546924 71.5946166 7.32069831 78.22749295 7.36830902 84.8605423 C7.38308955 87.38489989 7.39103909 89.90930747 7.39188385 92.43370819 C7.39426517 95.98319865 7.42144058 99.53173073 7.45410156 103.08105469 C7.4490712 104.11324631 7.44404083 105.14543793 7.43885803 106.20890808 C7.60111857 117.6864185 10.87038923 127.73413877 19 136 C23.08448847 139.56820913 27.31040434 143.00752725 31.66978073 146.23698616 C37.13935284 150.31361129 42.0968656 154.09364538 44.17340088 160.77609253 C44.73416647 165.0292085 44.60031116 169.25094309 44.4453125 173.52734375 C44.43372358 175.09002326 44.42721687 176.65274781 44.42550659 178.21546936 C44.40869152 181.46736607 44.34945294 184.71452404 44.25537109 187.96508789 C44.13583689 192.12401853 44.09605874 196.27884657 44.08421516 200.43933773 C44.07119112 203.65595259 44.03076403 206.87172106 43.98058701 210.08795357 C43.95721151 211.62163963 43.93895246 213.15541285 43.92599869 214.68922234 C43.90094921 216.8294089 43.84252323 218.9660453 43.77392578 221.10522461 C43.74581818 222.31923447 43.71771057 223.53324432 43.68875122 224.78404236 C42.78420947 229.0075818 41.49036018 230.48385685 38 233 C35.2652407 233.49118218 33.15358406 233.67691624 30.42749023 233.63110352 C29.68216034 233.63825882 28.93683044 233.64541412 28.16891479 233.65278625 C25.71484354 233.66964177 23.26260716 233.65029328 20.80859375 233.62890625 C19.09896188 233.62973516 17.3893301 233.63219538 15.67970276 233.63621521 C12.10108379 233.63907091 8.5230915 233.62439324 4.94458008 233.59692383 C0.35874004 233.56281512 -4.22598151 233.5688697 -8.81187534 233.5875864 C-12.34040138 233.59815622 -15.86866727 233.58921928 -19.39716911 233.57420158 C-21.08804489 233.56902088 -22.77894784 233.56950024 -24.46982002 233.57574654 C-26.83276915 233.58119978 -29.19411804 233.56082381 -31.55688477 233.53344727 C-32.2546553 233.53997314 -32.95242584 233.54649902 -33.67134094 233.55322266 C-36.91404879 233.48936615 -38.7640075 233.16428112 -41.4495697 231.29478455 C-43.32190723 228.52354663 -43.42414231 227.05870395 -43.25 223.75 C-43.21390625 222.85796875 -43.1778125 221.9659375 -43.140625 221.046875 C-43.09421875 220.37140625 -43.0478125 219.6959375 -43 219 C-42.09433289 218.99635437 -41.18866577 218.99270874 -40.2555542 218.98895264 C-31.72121665 218.95108885 -23.18726188 218.89425461 -14.65319443 218.81609726 C-10.2656886 218.77658478 -5.87838459 218.74441497 -1.49072266 218.72900391 C2.74352024 218.7138619 6.97720841 218.67946081 11.21120453 218.63169098 C12.82667978 218.61685167 14.44223422 218.60895752 16.0577774 218.60811615 C18.32069565 218.60575226 20.58207361 218.57872295 22.84472656 218.54589844 C24.77665863 218.53257477 24.77665863 218.53257477 26.74761963 218.51898193 C30.53840072 217.91408746 31.68707924 216.99390615 34 214 C35.18818094 211.62363812 35.14543665 210.13005951 35.17700195 207.4777832 C35.18983719 206.53953201 35.20267242 205.60128082 35.21589661 204.63459778 C35.22328354 203.61693832 35.23067047 202.59927887 35.23828125 201.55078125 C35.25038887 199.98181343 35.25038887 199.98181343 35.26274109 198.38114929 C35.27659055 196.16272646 35.28730883 193.94428223 35.29516602 191.72583008 C35.31234259 188.34349719 35.35621762 184.9621508 35.40039062 181.58007812 C35.41052065 179.42448635 35.41903578 177.26888627 35.42578125 175.11328125 C35.45204338 173.6019738 35.45204338 173.6019738 35.47883606 172.06013489 C35.45675012 164.85802832 34.26311416 160.60038201 29.32763672 155.15478516 C28.51190186 154.47875244 28.51190186 154.47875244 27.6796875 153.7890625 C27.06649658 153.27093994 26.45330566 152.75281738 25.8215332 152.21899414 C25.17917725 151.69297607 24.53682129 151.16695801 23.875 150.625 C22.53209351 149.49142845 21.18964691 148.35731187 19.84765625 147.22265625 C19.19297363 146.67496582 18.53829102 146.12727539 17.86376953 145.56298828 C1.88969312 132.1668608 1.88969312 132.1668608 0 122 C-0.27652022 118.00053739 -0.25288096 114.01368822 -0.22705078 110.00610352 C-0.22734283 108.81514572 -0.22763489 107.62418793 -0.22793579 106.3971405 C-0.22678554 103.14965486 -0.21679153 99.90234414 -0.20278788 96.65489316 C-0.19024058 93.2543065 -0.18910688 89.85371598 -0.18673706 86.45310974 C-0.180534 80.02177037 -0.16413917 73.59049943 -0.14403808 67.15919012 C-0.12164243 59.83390475 -0.11067645 52.50861602 -0.10064721 45.18330491 C-0.07977183 30.12216522 -0.04461882 15.06108947 0 0 Z " fill="#CCBEB9" transform="translate(204,197)"/>
<path d="M0 0 C10.05859375 -0.09765625 10.05859375 -0.09765625 13 0 C14.83855401 1.83855401 14.12620489 4.80069756 14.12698364 7.26367188 C14.12854363 7.92535622 14.13010362 8.58704056 14.13171089 9.26877594 C14.13572271 11.5021228 14.13253056 13.73540255 14.12939453 15.96875 C14.13074849 17.56331421 14.13252839 19.15787811 14.13470459 20.75244141 C14.13927955 25.09529379 14.13748911 29.43812252 14.1343255 33.78097534 C14.13180222 38.31557277 14.13413935 42.85016812 14.13571167 47.38476562 C14.13753346 55.0013058 14.13512681 62.61783629 14.13037109 70.234375 C14.12492846 79.05316188 14.12669111 87.87192565 14.1321975 96.69071198 C14.13672836 104.24822437 14.13737931 111.80572979 14.13475883 119.3632431 C14.13319591 123.88319783 14.1330027 128.40314167 14.13629532 132.9230957 C14.13917365 137.17145882 14.13719905 141.41979199 14.13140106 145.66815186 C14.13007326 147.23191274 14.13046792 148.79567613 14.13266373 150.35943604 C14.13537445 152.48510132 14.13199511 154.61066914 14.12698364 156.73632812 C14.12660662 157.92875122 14.12622959 159.12117432 14.12584114 160.34973145 C14 163 14 163 13 164 C10.64771681 164.11317284 8.32588052 164.16416537 5.97265625 164.16796875 C5.26854111 164.17129715 4.56442596 164.17462555 3.838974 164.17805481 C2.34683894 164.18312655 0.8546925 164.18546306 -0.63745117 164.18530273 C-2.92450607 164.18748759 -5.21107753 164.20563549 -7.49804688 164.22460938 C-8.94531084 164.22754354 -10.39257711 164.22952818 -11.83984375 164.23046875 C-12.52634506 164.23765427 -13.21284637 164.24483978 -13.92015076 164.25224304 C-18.77117631 164.22882369 -18.77117631 164.22882369 -21 162 C-21.22705078 158.92724609 -21.22705078 158.92724609 -21.1953125 155.0234375 C-21.1924826 154.33819 -21.18965271 153.6529425 -21.18673706 152.94692993 C-21.17553281 150.75610973 -21.15042859 148.56569684 -21.125 146.375 C-21.11497048 144.8906309 -21.10584458 143.4062554 -21.09765625 141.921875 C-21.07559294 138.28111739 -21.04106176 134.64059844 -21 131 C-20.67 131 -20.34 131 -20 131 C-20 136.94 -20 142.88 -20 149 C-10.14172399 148.78555147 -10.14172399 148.78555147 -2 144 C-0.86296634 141.72593267 -0.86372502 140.4517664 -0.84178162 137.92514038 C-0.8319928 137.07256149 -0.82220398 136.2199826 -0.81211853 135.34156799 C-0.80636307 134.40433395 -0.8006076 133.46709991 -0.79467773 132.50146484 C-0.78477814 131.51606216 -0.77487854 130.53065948 -0.76467896 129.51539612 C-0.73300597 126.24726797 -0.70828361 122.97912526 -0.68359375 119.7109375 C-0.66302923 117.44934707 -0.6420329 115.18776054 -0.62062073 112.92617798 C-0.56534821 106.96511986 -0.5159618 101.00402675 -0.46777344 95.04290771 C-0.41759619 88.9634692 -0.36189044 82.88408166 -0.30664062 76.8046875 C-0.19899571 64.86983519 -0.09756483 52.93493867 0 41 C-0.93070312 41.04253906 -1.86140625 41.08507812 -2.8203125 41.12890625 C-6 41 -6 41 -8.875 38.9375 C-11 36 -11 36 -11.625 32.5 C-10.83397068 28.0702358 -9.63525215 26.60789828 -6 24 C-4.02 24 -2.04 24 0 24 C0 16.08 0 8.16 0 0 Z " fill="#786B77" transform="translate(441,82)"/>
<path d="M0 0 C2.31 0 4.62 0 7 0 C7.00238835 0.60830815 7.00477671 1.21661631 7.00723743 1.84335804 C7.06652513 16.68509451 7.14216254 31.52668115 7.23571491 46.3682375 C7.28056823 53.54568826 7.3200066 60.72309056 7.34643555 67.90063477 C7.36950084 74.16087303 7.40299295 80.42095659 7.44870156 86.68107194 C7.47251972 89.99190123 7.48976674 93.30254753 7.49761391 96.61345863 C7.50728779 100.32106675 7.53538793 104.02812431 7.56762695 107.7355957 C7.56619186 108.81813629 7.56475677 109.90067688 7.5632782 111.01602173 C7.69669105 121.92067426 9.6372482 130.76716282 17 139 C17.5873291 139.65709961 18.1746582 140.31419922 18.77978516 140.99121094 C20.59960188 142.97725859 22.44839088 144.93052446 24.3125 146.875 C25.56064372 148.18294265 26.80683896 149.49274836 28.05078125 150.8046875 C28.59387939 151.37171387 29.13697754 151.93874023 29.6965332 152.52294922 C32.56690905 155.77557591 32.13865002 158.654895 32.16113281 162.88061523 C32.16858017 163.94184097 32.16858017 163.94184097 32.17617798 165.02450562 C32.19080532 167.36921148 32.19760199 169.71384972 32.203125 172.05859375 C32.20887533 173.68522647 32.21463308 175.31185916 32.22039795 176.93849182 C32.23090911 180.35068071 32.23675123 183.76284602 32.24023438 187.17504883 C32.24572391 191.55122715 32.26976104 195.92709507 32.29820633 200.30317593 C32.31681138 203.66344622 32.32203713 207.02364136 32.32357025 210.38395882 C32.3266014 211.99753583 32.33464548 213.61111138 32.34775543 215.22463799 C32.36477433 217.47999728 32.36294649 219.73459313 32.35644531 221.98999023 C32.36191376 223.91620461 32.36191376 223.91620461 32.36749268 225.8813324 C32 229 32 229 30.60272217 230.87562561 C27.50595855 233.04813047 25.44798783 233.1392464 21.69580078 233.17700195 C20.5877005 233.18983719 19.47960022 233.20267242 18.33792114 233.21589661 C17.13586029 233.22328354 15.93379944 233.23067047 14.6953125 233.23828125 C13.46465057 233.246353 12.23398865 233.25442474 10.96603394 233.26274109 C8.35839247 233.27659032 5.75073281 233.2873087 3.14306641 233.29516602 C0.46770519 233.30403561 -2.20713822 233.32492948 -4.88232422 233.35668945 C-8.73160586 233.3991954 -12.58020082 233.41551205 -16.4296875 233.42578125 C-18.22670609 233.45204338 -18.22670609 233.45204338 -20.06002808 233.47883606 C-21.17443268 233.47591049 -22.28883728 233.47298492 -23.43701172 233.4699707 C-24.90689041 233.47877007 -24.90689041 233.47877007 -26.40646362 233.48774719 C-29.73003232 232.86270822 -30.88864336 231.5802318 -33 229 C-34.44957456 226.10085089 -34.11932924 223.585717 -34.11352539 220.34716797 C-34.11367142 219.66412598 -34.11381744 218.98108398 -34.1139679 218.27734375 C-34.11327023 216.0155929 -34.10548465 213.753924 -34.09765625 211.4921875 C-34.09579155 209.92562912 -34.09436789 208.35907016 -34.09336853 206.79251099 C-34.08954743 202.66610102 -34.0797206 198.53972616 -34.06866455 194.41333008 C-34.0584417 190.20394363 -34.05386903 185.99455153 -34.04882812 181.78515625 C-34.03809798 173.52342138 -34.02102642 165.26171505 -34 157 C-33.67 157 -33.34 157 -33 157 C-33 177.46 -33 197.92 -33 219 C-20.25375 218.87625 -20.25375 218.87625 -7.25 218.75 C-4.57165039 218.73420898 -1.89330078 218.71841797 0.86621094 218.70214844 C2.98895445 218.67278429 5.11167848 218.64195952 7.234375 218.609375 C8.88783936 218.60768311 8.88783936 218.60768311 10.57470703 218.60595703 C11.62996582 218.5861377 12.68522461 218.56631836 13.77246094 218.54589844 C14.68735291 218.53701599 15.60224487 218.52813354 16.54486084 218.51898193 C19.74531043 217.84245184 20.9394804 216.48205703 23 214 C24.24575253 211.50849495 24.14035225 209.80653565 24.16113281 207.01879883 C24.17074036 205.98044388 24.1803479 204.94208893 24.19024658 203.87226868 C24.19449646 202.74524033 24.19874634 201.61821198 24.203125 200.45703125 C24.20882507 199.30007248 24.21452515 198.14311371 24.22039795 196.95109558 C24.22985945 194.49727292 24.23638648 192.04343749 24.24023438 189.58959961 C24.24991516 185.84531234 24.28091831 182.10157963 24.3125 178.35742188 C24.31903242 175.97396159 24.32428195 173.59049738 24.328125 171.20703125 C24.3404718 170.09012405 24.3528186 168.97321686 24.36553955 167.82246399 C24.34461832 160.47402125 23.81711866 155.23409291 18.8359375 149.515625 C17.61777344 148.39414062 17.61777344 148.39414062 16.375 147.25 C0.01786639 131.51645213 0.01786639 131.51645213 -0.24050903 119.5329895 C-0.24629182 117.30340875 -0.24102452 115.07378274 -0.22705078 112.84423828 C-0.22734283 111.6241658 -0.22763489 110.40409332 -0.22793579 109.14704895 C-0.22678407 105.81476779 -0.21677778 102.48273674 -0.20278788 99.15049982 C-0.19025573 95.66315611 -0.18910806 92.1758088 -0.18673706 88.68844604 C-0.18052957 82.09061922 -0.1641287 75.49285894 -0.14403808 68.89506137 C-0.12165627 61.3811689 -0.11067992 53.86727318 -0.10064721 46.35335565 C-0.07976179 30.9021986 -0.04460009 15.45110789 0 0 Z " fill="#C9BCB7" transform="translate(336,197)"/>
<path d="M0 0 C4.95 0 9.9 0 15 0 C15 51.48 15 102.96 15 156 C10.05 156 5.1 156 0 156 C-0.01458252 154.56688477 -0.02916504 153.13376953 -0.04418945 151.65722656 C-0.10214675 146.34186813 -0.17938027 141.02693447 -0.26245117 135.71191406 C-0.29571251 133.41120292 -0.32374063 131.11040994 -0.34643555 128.80957031 C-0.37995873 125.50290032 -0.4322746 122.19698112 -0.48828125 118.890625 C-0.49467117 117.86132874 -0.5010611 116.83203247 -0.50764465 115.77154541 C-0.52743881 114.81085144 -0.54723297 113.85015747 -0.56762695 112.86035156 C-0.57873001 112.01651917 -0.58983307 111.17268677 -0.60127258 110.30328369 C-1.09812827 107.43315348 -1.96821645 106.07394256 -4 104 C-5.32 103.67 -6.64 103.34 -8 103 C-8 96.07 -8 89.14 -8 82 C-5.525 81.01 -5.525 81.01 -3 80 C-0.59747382 76.39621073 -0.69384002 73.7566158 -0.68115234 69.59106445 C-0.67110672 68.83960144 -0.6610611 68.08813843 -0.65071106 67.31390381 C-0.61982343 64.83037073 -0.60282861 62.34694572 -0.5859375 59.86328125 C-0.56723032 58.14120042 -0.54765725 56.4191288 -0.5272522 54.69706726 C-0.47587737 50.16467716 -0.43628034 45.63225732 -0.39910889 41.09973145 C-0.35910274 36.4746156 -0.30799496 31.84962402 -0.2578125 27.22460938 C-0.1609898 18.1498181 -0.07763133 9.07497576 0 0 Z " fill="#E0D2CD" transform="translate(67,197)"/>
<path d="M0 0 C-0.171875 1.80859375 -0.171875 1.80859375 -1 4 C-17.91337282 15.92684394 -44.95515607 16.26247519 -64.71362305 13.17919922 C-74.33294695 11.39215846 -84.0981492 9.24604388 -90 1 C-69.48932892 -18.43116207 -21.77688996 -15.37192232 0 0 Z " fill="#B6A9A9" transform="translate(119,379)"/>
<path d="M0 0 C0.74507813 0.01353516 1.49015625 0.02707031 2.2578125 0.04101562 C4.08885416 0.07622796 5.91952169 0.13003149 7.75 0.1875 C7.8196304 9.71496977 7.87287732 19.24235141 7.90543652 28.77002048 C7.92106639 33.19450964 7.94225549 37.6188242 7.97631836 42.04321289 C8.00900769 46.31612289 8.02687316 50.58886536 8.03463173 54.86189079 C8.0401581 56.48891778 8.05094974 58.115936 8.06719017 59.74289131 C8.08909225 62.02874411 8.09196168 64.31391202 8.09057617 66.59985352 C8.09723801 67.89891129 8.10389984 69.19796906 8.11076355 70.53639221 C7.58657845 75.84140797 6.21554673 79.75953139 2.3125 83.5625 C-2.54193675 86.6409233 -6.6320457 86.21022176 -12.25 86.1875 C-12.34259253 75.41753009 -12.41371033 64.64765452 -12.45724869 53.87736797 C-12.47814272 48.87651724 -12.50649344 43.87593838 -12.55175781 38.87524414 C-12.59515089 34.05121493 -12.61912342 29.22744757 -12.62950897 24.4032383 C-12.63691212 22.5607675 -12.65136845 20.71831138 -12.67292023 18.87595177 C-12.70186776 16.29938929 -12.7059597 13.72391515 -12.70410156 11.1472168 C-12.71848267 10.38189133 -12.73286377 9.61656586 -12.74768066 8.82804871 C-12.72350968 5.74000655 -12.64026239 3.69978926 -10.73724365 1.20173645 C-7.17366175 -0.25140412 -3.77726613 -0.13013549 0 0 Z " fill="#E0D2CD" transform="translate(433.25,329.8125)"/>
<path d="M0 0 C12.21 0 24.42 0 37 0 C37 14.85 37 29.7 37 45 C24.79 45 12.58 45 0 45 C0 30.15 0 15.3 0 0 Z " fill="#FCDE75" transform="translate(368,101)"/>
<path d="M0 0 C0.83265381 0.00523682 1.66530762 0.01047363 2.52319336 0.01586914 C3.33280518 0.0183667 4.14241699 0.02086426 4.9765625 0.0234375 C6.01159912 0.0325415 7.04663574 0.04164551 8.11303711 0.05102539 C11.39241211 0.07165039 14.67178711 0.09227539 18.05053711 0.11352539 C18.05053711 8.03352539 18.05053711 15.95352539 18.05053711 24.11352539 C15.74053711 24.44352539 13.43053711 24.77352539 11.05053711 25.11352539 C8.96720378 26.03019206 8.96720378 26.03019206 8.05053711 28.11352539 C7.38968332 33.68446566 7.38968332 33.68446566 9.67553711 38.55102539 C12.48281303 40.39791744 14.7557916 40.64865034 18.05053711 41.11352539 C18.12483626 46.43372561 18.17920958 51.75362208 18.21533203 57.07421875 C18.23039466 58.88319156 18.25084887 60.69212799 18.27685547 62.50097656 C18.31335031 65.10499054 18.33028868 67.70852059 18.34350586 70.31274414 C18.35898972 71.11814133 18.37447357 71.92353851 18.39042664 72.75334167 C18.39179508 77.34561896 18.1166067 80.43968844 15.05053711 84.11352539 C11.42746333 86.56933538 8.08030197 86.3177803 3.80053711 86.23852539 C2.53725586 86.22047852 1.27397461 86.20243164 -0.02758789 86.18383789 C-0.99180664 86.16063477 -1.95602539 86.13743164 -2.94946289 86.11352539 C-2.97258572 75.04817681 -2.99037767 63.98283394 -3.00127506 52.91746616 C-3.00650402 47.77992973 -3.0136019 42.64240977 -3.02490234 37.50488281 C-3.03573076 32.55121129 -3.04173963 27.59755566 -3.04434013 22.64387321 C-3.04619447 20.74954923 -3.04981523 18.85522615 -3.05519295 16.96090889 C-3.06240278 14.31718153 -3.06345386 11.67352069 -3.06298828 9.02978516 C-3.06658356 8.23856766 -3.07017883 7.44735016 -3.07388306 6.63215637 C-3.06150211 0.17828409 -3.06150211 0.17828409 0 0 Z " fill="#908190" transform="translate(320.949462890625,81.886474609375)"/>
<path d="M0 0 C0.83265381 0.00523682 1.66530762 0.01047363 2.52319336 0.01586914 C3.33280518 0.0183667 4.14241699 0.02086426 4.9765625 0.0234375 C6.01159912 0.0325415 7.04663574 0.04164551 8.11303711 0.05102539 C11.39241211 0.07165039 14.67178711 0.09227539 18.05053711 0.11352539 C18.05053711 8.03352539 18.05053711 15.95352539 18.05053711 24.11352539 C15.74053711 24.44352539 13.43053711 24.77352539 11.05053711 25.11352539 C9.05994046 26.25872718 9.05994046 26.25872718 8.05053711 28.11352539 C7.57746255 30.2884762 7.57746255 30.2884762 7.67553711 32.61352539 C7.66780273 33.38696289 7.66006836 34.16040039 7.65209961 34.95727539 C7.91690205 37.13777106 7.91690205 37.13777106 9.13647461 38.83227539 C11.92358853 40.69793532 14.76570676 40.70547193 18.05053711 41.11352539 C18.12483626 46.43372561 18.17920958 51.75362208 18.21533203 57.07421875 C18.23039466 58.88319156 18.25084887 60.69212799 18.27685547 62.50097656 C18.31335031 65.10499054 18.33028868 67.70852059 18.34350586 70.31274414 C18.35898972 71.11814133 18.37447357 71.92353851 18.39042664 72.75334167 C18.39179508 77.34561896 18.1166067 80.43968844 15.05053711 84.11352539 C11.42746333 86.56933538 8.08030197 86.3177803 3.80053711 86.23852539 C2.53725586 86.22047852 1.27397461 86.20243164 -0.02758789 86.18383789 C-0.99180664 86.16063477 -1.95602539 86.13743164 -2.94946289 86.11352539 C-2.97258572 75.04817681 -2.99037767 63.98283394 -3.00127506 52.91746616 C-3.00650402 47.77992973 -3.0136019 42.64240977 -3.02490234 37.50488281 C-3.03573076 32.55121129 -3.04173963 27.59755566 -3.04434013 22.64387321 C-3.04619447 20.74954923 -3.04981523 18.85522615 -3.05519295 16.96090889 C-3.06240278 14.31718153 -3.06345386 11.67352069 -3.06298828 9.02978516 C-3.06658356 8.23856766 -3.07017883 7.44735016 -3.07388306 6.63215637 C-3.06150211 0.17828409 -3.06150211 0.17828409 0 0 Z " fill="#908190" transform="translate(59.949462890625,81.886474609375)"/>
<path d="M0 0 C6.6 0 13.2 0 20 0 C20 7.92 20 15.84 20 24 C17.36 24.66 14.72 25.32 12 26 C10.83656773 28.32686453 10.80104012 29.84721413 10.75 32.4375 C10.72421875 33.21996094 10.6984375 34.00242188 10.671875 34.80859375 C10.84710453 37.03262151 10.84710453 37.03262151 12.140625 38.72265625 C14.64530215 40.44330631 17.02572234 40.56664986 20 41 C20.07429915 46.32020022 20.12867247 51.64009669 20.16479492 56.96069336 C20.17985755 58.76966617 20.20031177 60.5786026 20.22631836 62.38745117 C20.2628132 64.99146515 20.27975157 67.5949952 20.29296875 70.19921875 C20.30845261 71.00461594 20.32393646 71.81001312 20.33988953 72.63981628 C20.34125797 77.23209357 20.06606959 80.32616305 17 84 C13 86 13 86 0 86 C0 57.62 0 29.24 0 0 Z " fill="#908190" transform="translate(187,82)"/>
<path d="M0 0 C0.495 0.99 0.495 0.99 1 2 C-4.33938218 14.28057902 -13.87185442 22.00798326 -26 27 C-35.18332478 30.59887052 -45.63782465 30.2543785 -54.875 27 C-65.45928035 22.33662896 -75.03558968 14.3465821 -79.4375 3.4375 C-79.7159375 2.2309375 -79.7159375 2.2309375 -80 1 C-78.20767663 1.30871122 -76.41615679 1.62209064 -74.625 1.9375 C-73.12839844 2.19853516 -73.12839844 2.19853516 -71.6015625 2.46484375 C-69 3 -69 3 -67 4 C-58.54925877 5.89276938 -50.25772154 6.32126864 -41.625 6.25 C-39.84283081 6.23984863 -39.84283081 6.23984863 -38.0246582 6.22949219 C-24.66428853 6.07189095 -12.7237485 3.98342278 0 0 Z " fill="#DED0CB" transform="translate(114,401)"/>
<path d="M0 0 C22.11 0 44.22 0 67 0 C67 0.33 67 0.66 67 1 C45.22 1 23.44 1 1 1 C1 9.58 1 18.16 1 27 C22.78 27 44.56 27 67 27 C67 32.94 67 38.88 67 45 C44.89 45 22.78 45 0 45 C0 30.15 0 15.3 0 0 Z " fill="#F7CB59" transform="translate(236,101)"/>
<path d="M0 0 C2.64 0 5.28 0 8 0 C8 51.48 8 102.96 8 156 C5.36 156 2.72 156 0 156 C0 104.52 0 53.04 0 0 Z " fill="#C6B9B4" transform="translate(74,197)"/>
<path d="M0 0 C8.91 0 17.82 0 27 0 C27 14.85 27 29.7 27 45 C18.09 45 9.18 45 0 45 C0 30.15 0 15.3 0 0 Z " fill="#FBCD59" transform="translate(470,101)"/>
<path d="M0 0 C8.91 0 17.82 0 27 0 C27 14.85 27 29.7 27 45 C18.09 45 9.18 45 0 45 C0 30.15 0 15.3 0 0 Z " fill="#FFE177" transform="translate(15,101)"/>
<path d="M0 0 C21.12 0 42.24 0 64 0 C64 5.94 64 11.88 64 18 C42.88 18 21.76 18 0 18 C0 12.06 0 6.12 0 0 Z " fill="#FFD15B" transform="translate(107,128)"/>
<path d="M0 0 C4.95 0 9.9 0 15 0 C15 18.15 15 36.3 15 55 C10.05 55 5.1 55 0 55 C0 36.85 0 18.7 0 0 Z " fill="#B2A5A5" transform="translate(430,260)"/>
<path d="M0 0 C3.78564481 0.72491071 4.701774 1.40840292 6.9375 4.5625 C7.54439087 7.99639167 7.49770586 11.39539861 7.46875 14.875 C7.4725769 15.88087158 7.47640381 16.88674316 7.48034668 17.9230957 C7.48306651 20.04802451 7.47570041 22.17298676 7.45898438 24.29785156 C7.43757641 27.55088932 7.45878432 30.80171845 7.484375 34.0546875 C7.48173174 36.11979654 7.47660679 38.18490421 7.46875 40.25 C7.47684692 41.22300049 7.48494385 42.19600098 7.49328613 43.19848633 C7.40009682 49.90752165 7.40009682 49.90752165 5.09179688 53.17578125 C2.12871892 55.08311158 0.39482859 55.13872143 -3.0625 54.5625 C-5.36525556 52.6954009 -6.74073871 51.20602259 -8.0625 48.5625 C-8.17644097 47.20075515 -8.2317656 45.83382881 -8.25537109 44.4675293 C-8.27143402 43.62292648 -8.28749695 42.77832367 -8.30404663 41.90812683 C-8.34851545 38.04365848 -8.3895622 34.17936166 -8.41259766 30.31469727 C-8.42915652 28.27682067 -8.45644558 26.23900214 -8.49462891 24.20141602 C-8.5494124 21.2628772 -8.57127376 18.32569955 -8.5859375 15.38671875 C-8.60860687 14.47822678 -8.63127625 13.5697348 -8.65463257 12.63371277 C-8.63956997 8.11996285 -8.53154445 6.17930079 -5.72119141 2.48364258 C-3.0625 0.5625 -3.0625 0.5625 0 0 Z " fill="#070707" transform="translate(348.0625,358.4375)"/>
<path d="M0 0 C3.78564481 0.72491071 4.701774 1.40840292 6.9375 4.5625 C7.54439087 7.99639167 7.49770586 11.39539861 7.46875 14.875 C7.4725769 15.88087158 7.47640381 16.88674316 7.48034668 17.9230957 C7.48306651 20.04802451 7.47570041 22.17298676 7.45898438 24.29785156 C7.43757641 27.55088932 7.45878432 30.80171845 7.484375 34.0546875 C7.48173174 36.11979654 7.47660679 38.18490421 7.46875 40.25 C7.47684692 41.22300049 7.48494385 42.19600098 7.49328613 43.19848633 C7.40009682 49.90752165 7.40009682 49.90752165 5.09179688 53.17578125 C2.12871892 55.08311158 0.39482859 55.13872143 -3.0625 54.5625 C-5.36525556 52.6954009 -6.74073871 51.20602259 -8.0625 48.5625 C-8.17644097 47.20075515 -8.2317656 45.83382881 -8.25537109 44.4675293 C-8.27143402 43.62292648 -8.28749695 42.77832367 -8.30404663 41.90812683 C-8.34851545 38.04365848 -8.3895622 34.17936166 -8.41259766 30.31469727 C-8.42915652 28.27682067 -8.45644558 26.23900214 -8.49462891 24.20141602 C-8.5494124 21.2628772 -8.57127376 18.32569955 -8.5859375 15.38671875 C-8.60860687 14.47822678 -8.63127625 13.5697348 -8.65463257 12.63371277 C-8.63956997 8.11996285 -8.53154445 6.17930079 -5.72119141 2.48364258 C-3.0625 0.5625 -3.0625 0.5625 0 0 Z " fill="#070707" transform="translate(323.0625,358.4375)"/>
<path d="M0 0 C3.73873768 0.71592849 4.69081173 1.4925796 6.9375 4.5625 C7.53314693 7.56136816 7.49808314 10.51302129 7.46875 13.5625 C7.4725769 14.43519531 7.47640381 15.30789063 7.48034668 16.20703125 C7.4830649 18.04949092 7.47570994 19.89198924 7.45898438 21.734375 C7.43757248 24.55295934 7.45878801 27.36899485 7.484375 30.1875 C7.48173171 31.97917229 7.47660669 33.77084299 7.46875 35.5625 C7.47684692 36.40425781 7.48494385 37.24601562 7.49328613 38.11328125 C7.43191372 41.94699811 7.39816036 43.93073722 5.09179688 47.09375 C2.13921588 49.10675173 0.43903879 49.1460898 -3.0625 48.5625 C-5.36525556 46.6954009 -6.74073871 45.20602259 -8.0625 42.5625 C-8.3468628 37.33706353 -8.37624419 32.11061679 -8.41259766 26.87817383 C-8.42914961 25.13129344 -8.45642995 23.38448057 -8.49462891 21.63793945 C-8.54948252 19.11634274 -8.57128326 16.59633225 -8.5859375 14.07421875 C-8.60860687 13.29696945 -8.63127625 12.51972015 -8.65463257 11.71891785 C-8.63889557 7.66636205 -8.24600899 5.79738769 -5.72119141 2.56567383 C-3.0625 0.5625 -3.0625 0.5625 0 0 Z " fill="#070606" transform="translate(204.0625,363.4375)"/>
<path d="M0 0 C3.73873768 0.71592849 4.69081173 1.4925796 6.9375 4.5625 C7.53314693 7.56136816 7.49808314 10.51302129 7.46875 13.5625 C7.4725769 14.43519531 7.47640381 15.30789063 7.48034668 16.20703125 C7.4830649 18.04949092 7.47570994 19.89198924 7.45898438 21.734375 C7.43757248 24.55295934 7.45878801 27.36899485 7.484375 30.1875 C7.48173171 31.97917229 7.47660669 33.77084299 7.46875 35.5625 C7.47684692 36.40425781 7.48494385 37.24601562 7.49328613 38.11328125 C7.43191372 41.94699811 7.39816036 43.93073722 5.09179688 47.09375 C2.13921588 49.10675173 0.43903879 49.1460898 -3.0625 48.5625 C-5.36525556 46.6954009 -6.74073871 45.20602259 -8.0625 42.5625 C-8.3468628 37.33706353 -8.37624419 32.11061679 -8.41259766 26.87817383 C-8.42914961 25.13129344 -8.45642995 23.38448057 -8.49462891 21.63793945 C-8.54948252 19.11634274 -8.57128326 16.59633225 -8.5859375 14.07421875 C-8.60860687 13.29696945 -8.63127625 12.51972015 -8.65463257 11.71891785 C-8.63889557 7.66636205 -8.24600899 5.79738769 -5.72119141 2.56567383 C-3.0625 0.5625 -3.0625 0.5625 0 0 Z " fill="#070606" transform="translate(179.0625,363.4375)"/>
<path d="M0 0 C3.73873768 0.71592849 4.69081173 1.4925796 6.9375 4.5625 C7.53314693 7.56136816 7.49808314 10.51302129 7.46875 13.5625 C7.4725769 14.43519531 7.47640381 15.30789063 7.48034668 16.20703125 C7.4830649 18.04949092 7.47570994 19.89198924 7.45898438 21.734375 C7.43757248 24.55295934 7.45878801 27.36899485 7.484375 30.1875 C7.48173171 31.97917229 7.47660669 33.77084299 7.46875 35.5625 C7.47684692 36.40425781 7.48494385 37.24601562 7.49328613 38.11328125 C7.43191372 41.94699811 7.39816036 43.93073722 5.09179688 47.09375 C2.13921588 49.10675173 0.43903879 49.1460898 -3.0625 48.5625 C-5.36525556 46.6954009 -6.74073871 45.20602259 -8.0625 42.5625 C-8.3468628 37.33706353 -8.37624419 32.11061679 -8.41259766 26.87817383 C-8.42914961 25.13129344 -8.45642995 23.38448057 -8.49462891 21.63793945 C-8.54948252 19.11634274 -8.57128326 16.59633225 -8.5859375 14.07421875 C-8.60860687 13.29696945 -8.63127625 12.51972015 -8.65463257 11.71891785 C-8.63889557 7.66636205 -8.24600899 5.79738769 -5.72119141 2.56567383 C-3.0625 0.5625 -3.0625 0.5625 0 0 Z " fill="#070606" transform="translate(229.0625,363.4375)"/>
<path d="M0 0 C12.21 0 24.42 0 37 0 C37 5.94 37 11.88 37 18 C24.79 18 12.58 18 0 18 C0 12.06 0 6.12 0 0 Z " fill="#FFD15B" transform="translate(368,128)"/>
<path d="M0 0 C8.91 0 17.82 0 27 0 C27 14.85 27 29.7 27 45 C18.09 45 9.18 45 0 45 C0 39.06 0 33.12 0 27 C8.58 27 17.16 27 26 27 C26 18.42 26 9.84 26 1 C17.42 1 8.84 1 0 1 C0 0.67 0 0.34 0 0 Z " fill="#F6CB59" transform="translate(15,101)"/>
<path d="M0 0 C0.495 0.99 0.495 0.99 1 2 C-4.90033012 15.57075927 -15.58029747 22.82356656 -28.85546875 28.14453125 C-32.64728044 29.17609244 -36.22822902 29.29337778 -40.125 29.25 C-41.17880859 29.26160156 -41.17880859 29.26160156 -42.25390625 29.2734375 C-45.99321394 29.25930023 -48.82732667 29.07127896 -52 27 C-51.26136719 26.86464844 -50.52273437 26.72929687 -49.76171875 26.58984375 C-38.48718986 24.19740878 -31.06875166 19.68485543 -23.75 10.8125 C-17.92506556 3.80928414 -11.80282123 2.52107573 -3 1 C-2.01 0.67 -1.02 0.34 0 0 Z " fill="#C7BAB5" transform="translate(114,401)"/>
<path d="M0 0 C2.31 0 4.62 0 7 0 C7 17.82 7 35.64 7 54 C4.69 54 2.38 54 0 54 C0 36.18 0 18.36 0 0 Z " fill="#CDBFBA" transform="translate(431,261)"/>
<path d="M0 0 C1.58628608 0.59637091 3.16892059 1.20245925 4.75 1.8125 C5.63171875 2.14894531 6.5134375 2.48539062 7.421875 2.83203125 C9.93039808 3.96846822 11.87279005 5.26542927 14 7 C13.828125 8.80859375 13.828125 8.80859375 13 11 C-0.28615462 20.36902972 -17.39407727 21.19101072 -33.0625 21.0625 C-34.11888672 21.05798828 -35.17527344 21.05347656 -36.26367188 21.04882812 C-38.84250908 21.03715918 -41.42122294 21.02078885 -44 21 C-44 20.67 -44 20.34 -44 20 C-43.42668945 19.89977539 -42.85337891 19.79955078 -42.26269531 19.69628906 C-20.94198406 16.77772608 -20.94198406 16.77772608 -3 6 C-0.99409221 2.83324955 -0.99409221 2.83324955 0 0 Z " fill="#9A9393" transform="translate(105,372)"/>
<path d="M0 0 C3.63525215 2.60789828 4.83397068 4.0702358 5.625 8.5 C4.83397068 12.9297642 3.63525215 14.39210172 0 17 C-3.61853729 17.6646293 -5.23101795 17.46543651 -8.375 15.5625 C-10.77513557 11.77767083 -10.7842297 8.3612774 -10 4 C-7.36147249 -0.16075491 -4.78558691 -0.87898535 0 0 Z " fill="#050405" transform="translate(77,106)"/>
<path d="M0 0 C3.33091147 0.98693673 4.33631321 1.35211982 6.375 4 C7.05324408 7.06905448 6.95825132 9.91710015 6.375 13 C4.3125 15.625 4.3125 15.625 1.375 17 C-2.40410616 17 -4.63193033 16.83289714 -7.5625 14.375 C-9.0840889 10.97380129 -9.14249792 8.68717269 -8.625 5 C-5.93921083 1.09339758 -4.80084596 0 0 0 Z " fill="#050405" transform="translate(438.625,106)"/>
<path d="M0 0 C3.63525215 2.60789828 4.83397068 4.0702358 5.625 8.5 C5 12 5 12 2.9375 15 C0 17 0 17 -3.625 17.0625 C-7 16 -7 16 -8.9375 14.4375 C-10.47521261 10.90980637 -10.69010754 7.78396047 -10 4 C-7.317936 -0.12625231 -4.78913194 -0.87963648 0 0 Z " fill="#040304" transform="translate(338,106)"/>
<path d="M0 0 C2.11475331 1.60937143 2.89118858 2.50762833 3.46875 5.12109375 C3.52426701 9.23629217 3.54853806 11.30186066 0.9375 14.625 C-2.87485878 16.40950836 -4.98745933 16.13562472 -9 15 C-11.68450733 10.973239 -11.67304618 7.72836241 -11 3 C-8.10480019 -1.86393568 -5.14572566 -1.40337972 0 0 Z " fill="#030203" transform="translate(208,107)"/>
</svg>
