<?xml version="1.0" encoding="UTF-8"?>
<svg version="1.1" xmlns="http://www.w3.org/2000/svg" width="512" height="512">
<path d="M0 0 C1.6747534 -0.0053308 3.34950201 -0.01239955 5.02424157 -0.02104706 C9.60762324 -0.03963072 14.19068086 -0.03338417 18.77407575 -0.02289402 C23.72444276 -0.01588983 28.67474401 -0.03190925 33.62509155 -0.04489136 C43.31600105 -0.06651653 53.00679304 -0.06640818 62.69771872 -0.05826581 C70.57591708 -0.0519618 78.45408121 -0.05310654 86.33227921 -0.05953789 C87.45425629 -0.06043954 88.57623338 -0.0613412 89.73220978 -0.06227018 C92.01162767 -0.06412141 94.29104556 -0.06598397 96.57046343 -0.06785773 C117.9385625 -0.08443121 139.30659552 -0.07572101 160.67469062 -0.05887216 C180.21431543 -0.04417745 199.75378644 -0.05880123 219.29339145 -0.08764232 C239.36732305 -0.11705093 259.44118369 -0.1280042 279.51513588 -0.11846012 C281.78670318 -0.11743759 284.05827048 -0.11644298 286.3298378 -0.11547661 C288.00622332 -0.11476202 288.00622332 -0.11476202 289.71647521 -0.114033 C297.5817514 -0.11187071 305.44696027 -0.12166318 313.31222153 -0.13624763 C322.9025239 -0.15378303 332.49263024 -0.15363626 342.08292495 -0.13089598 C346.97359465 -0.11976455 351.86391915 -0.11656645 356.75457382 -0.13519669 C361.23675584 -0.15205083 365.71829289 -0.14558388 370.20043351 -0.1209799 C371.81675453 -0.11611235 373.43312807 -0.11956916 375.04940496 -0.13246734 C387.86557141 -0.22731456 398.41271332 2.12763744 408.50003052 10.57325745 C416.73471976 18.70971978 420.89429971 29.08497943 420.9811995 40.55271876 C420.96954814 41.67531104 420.95789677 42.79790332 420.94589233 43.95451355 C420.94931003 45.1717893 420.95272773 46.38906504 420.956249 47.64322793 C420.96166963 50.99585483 420.94928099 54.34753334 420.92913675 57.70004487 C420.91177712 61.32498708 420.91771444 64.94990277 420.92074585 68.57487488 C420.92283786 74.84663879 420.91034452 81.11823556 420.88779449 87.38995743 C420.85521282 96.45765745 420.84486119 105.52527709 420.83984253 114.59302931 C420.83109953 129.30669928 420.80451101 144.02028028 420.76663208 158.73390198 C420.7298862 173.02230892 420.70158707 187.31069166 420.68460083 201.59913635 C420.68354994 202.48065981 420.68249904 203.36218326 420.6814163 204.27041955 C420.67619595 208.69299815 420.67114117 213.11557691 420.66616869 217.53815579 C420.62473765 254.19705456 420.55431638 290.85585219 420.46487427 327.5146637 C421.2905188 327.50596252 422.11616333 327.49726135 422.96682739 327.48829651 C424.04899536 327.48152893 425.13116333 327.47476135 426.24612427 327.4677887 C427.3192688 327.45908752 428.39241333 327.45038635 429.49807739 327.44142151 C433.99326715 327.55239558 437.02609055 328.41487428 440.59011841 331.13917542 C443.17829847 334.41863784 442.96688703 336.62659501 442.96096802 340.7724762 C442.96242325 341.47556915 442.96387848 342.17866211 442.96537781 342.90306091 C442.9637205 344.39082479 442.95217776 345.87860611 442.931427 347.3662262 C442.90273053 349.61178541 442.91076802 351.85494136 442.92385864 354.1006012 C442.90327159 369.28497781 439.24513175 380.56967852 428.65237427 391.8271637 C418.36950236 401.49583709 407.01126457 404.98099886 393.12771606 404.91871643 C391.49897301 404.92901131 391.49897301 404.92901131 389.83732605 404.93951416 C386.27944551 404.95768731 382.72200959 404.95396032 379.16409302 404.94825745 C376.67929441 404.95282163 374.19449706 404.95812791 371.70970154 404.96414185 C366.5176071 404.97305266 361.32566669 404.9706703 356.13357544 404.96070862 C349.47755788 404.94918261 342.82231643 404.96949628 336.16636944 404.99862576 C331.04229864 405.01695354 325.91835536 405.01670275 320.79426003 405.01098824 C318.33943755 405.01083481 315.88460654 405.01689653 313.42981529 405.02927971 C310.00455655 405.044134 306.58028727 405.03355494 303.15505981 405.01637268 C301.63466599 405.03087463 301.63466599 405.03087463 300.08355713 405.04566956 C295.85169986 405.00115056 293.13790093 404.873615 289.35923767 402.85830688 C287.46487427 400.5146637 287.46487427 400.5146637 286.46487427 394.5146637 C279.86487427 394.5146637 273.26487427 394.5146637 266.46487427 394.5146637 C266.13487427 396.1646637 265.80487427 397.8146637 265.46487427 399.5146637 C263.39818751 402.42094195 261.86662587 404.19723806 258.30862427 405.00294495 C254.00954715 405.25372444 252.01271405 404.91413021 248.46487427 402.3271637 C246.46487427 399.5146637 246.46487427 399.5146637 245.46487427 394.5146637 C240.18487427 394.5146637 234.90487427 394.5146637 229.46487427 394.5146637 C228.80487427 396.8246637 228.14487427 399.1346637 227.46487427 401.5146637 C225.43105328 403.6220632 224.21601872 404.38144732 221.3445195 404.89071119 C220.57682963 404.89119825 219.80913976 404.8916853 219.01818657 404.89218712 C218.12812349 404.90001036 217.23806041 404.9078336 216.32102573 404.91589391 C215.34730648 404.90920175 214.37358722 404.90250958 213.37036133 404.89561462 C212.33269343 404.9002946 211.29502554 404.90497457 210.22591317 404.90979636 C206.737567 404.92179303 203.2496103 404.91227049 199.76126099 404.90284729 C197.26461049 404.90691105 194.7679618 404.91225183 192.27131653 404.91877747 C186.18574595 404.93105937 180.100329 404.92922988 174.01476435 404.92053954 C169.06594657 404.91376532 164.11715987 404.91284516 159.16833878 404.91611099 C158.11190688 404.91680054 158.11190688 404.91680054 157.03413294 404.91750402 C155.60332137 404.91846321 154.17250982 404.91943585 152.74169828 404.92042179 C139.3172926 404.92898087 125.89294833 404.91913541 112.46855272 404.90302069 C100.96143635 404.88963452 89.45441085 404.89193053 77.94729614 404.90577698 C64.58034269 404.92185387 51.21344321 404.92813843 37.84648144 404.91894019 C36.41908909 404.91798457 34.99169672 404.91704146 33.56430435 404.91611099 C32.86204331 404.91564817 32.15978226 404.91518534 31.43624058 404.91470849 C26.4991052 404.91212361 21.56200417 404.91647911 16.62487411 404.92354965 C9.96824739 404.93287307 3.31176503 404.92617522 -3.34485435 404.90886688 C-5.78529133 404.90490751 -8.22574275 404.90602664 -10.66617393 404.91265488 C-14.0038791 404.92088248 -17.3410402 404.91053324 -20.67871094 404.89561462 C-21.63904586 404.90230679 -22.59938078 404.90899895 -23.58881676 404.91589391 C-36.76371336 404.80209319 -47.29299708 399.69261428 -56.84762573 390.7021637 C-67.53625174 379.3345471 -70.08285016 367.07376545 -70.03610229 351.93580627 C-70.03511956 349.68804218 -70.07708032 347.44358672 -70.12106323 345.19630432 C-70.12626446 343.75425406 -70.12895852 342.31219209 -70.12887573 340.87013245 C-70.13596558 339.57744446 -70.14305542 338.28475647 -70.15036011 336.95289612 C-69.37178073 332.60181144 -68.02525832 331.15897333 -64.53512573 328.5146637 C-60.74081977 327.469878 -57.14299014 327.40908277 -53.22262573 327.4521637 C-52.15399292 327.46118713 -51.08536011 327.47021057 -49.98434448 327.47950745 C-49.17610229 327.49110901 -48.36786011 327.50271057 -47.53512573 327.5146637 C-47.53702433 326.89289332 -47.53892294 326.27112295 -47.54087907 325.63051105 C-47.65284413 288.75420927 -47.7385962 251.87793269 -47.79045238 215.00149564 C-47.79670568 210.57066336 -47.80317732 206.13983141 -47.80978394 201.70899963 C-47.81109549 200.82692539 -47.81240704 199.94485114 -47.81375834 199.03604737 C-47.83549668 184.76601011 -47.87490952 170.49607387 -47.92088971 156.22609648 C-47.96769814 141.57656408 -47.99543039 126.92708448 -48.00556821 112.27748036 C-48.01241829 103.242666 -48.0340294 94.20813723 -48.07470807 85.1734108 C-48.10120063 78.97238303 -48.10911204 72.77150224 -48.10263262 66.57042202 C-48.09943979 62.99616939 -48.10422711 59.42241473 -48.13115311 55.84825134 C-48.16020225 51.9636607 -48.15001282 48.0797096 -48.13639832 44.19502258 C-48.15096252 43.07825598 -48.16552673 41.96148939 -48.18053228 40.81088138 C-48.07078631 29.18087386 -43.74536566 18.82402121 -35.53512573 10.5146637 C-32.69013209 8.14648463 -29.82695234 6.20583366 -26.53512573 4.5146637 C-25.91809749 4.18719542 -25.30106924 3.85972715 -24.66534317 3.52233559 C-16.64018634 -0.24028824 -8.66720105 -0.04828355 0 0 Z " fill="#FDC56B" transform="translate(69.53512573242188,53.48533630371094)"/>
<path d="M0 0 C1.6747534 -0.0053308 3.34950201 -0.01239955 5.02424157 -0.02104706 C9.60762324 -0.03963072 14.19068086 -0.03338417 18.77407575 -0.02289402 C23.72444276 -0.01588983 28.67474401 -0.03190925 33.62509155 -0.04489136 C43.31600105 -0.06651653 53.00679304 -0.06640818 62.69771872 -0.05826581 C70.57591708 -0.0519618 78.45408121 -0.05310654 86.33227921 -0.05953789 C87.45425629 -0.06043954 88.57623338 -0.0613412 89.73220978 -0.06227018 C92.01162767 -0.06412141 94.29104556 -0.06598397 96.57046343 -0.06785773 C117.9385625 -0.08443121 139.30659552 -0.07572101 160.67469062 -0.05887216 C180.21431543 -0.04417745 199.75378644 -0.05880123 219.29339145 -0.08764232 C239.36732305 -0.11705093 259.44118369 -0.1280042 279.51513588 -0.11846012 C281.78670318 -0.11743759 284.05827048 -0.11644298 286.3298378 -0.11547661 C288.00622332 -0.11476202 288.00622332 -0.11476202 289.71647521 -0.114033 C297.5817514 -0.11187071 305.44696027 -0.12166318 313.31222153 -0.13624763 C322.9025239 -0.15378303 332.49263024 -0.15363626 342.08292495 -0.13089598 C346.97359465 -0.11976455 351.86391915 -0.11656645 356.75457382 -0.13519669 C361.23675584 -0.15205083 365.71829289 -0.14558388 370.20043351 -0.1209799 C371.81675453 -0.11611235 373.43312807 -0.11956916 375.04940496 -0.13246734 C387.86557141 -0.22731456 398.41271332 2.12763744 408.50003052 10.57325745 C416.73471976 18.70971978 420.89429971 29.08497943 420.9811995 40.55271876 C420.96954814 41.67531104 420.95789677 42.79790332 420.94589233 43.95451355 C420.94931003 45.1717893 420.95272773 46.38906504 420.956249 47.64322793 C420.96166963 50.99585483 420.94928099 54.34753334 420.92913675 57.70004487 C420.91177712 61.32498708 420.91771444 64.94990277 420.92074585 68.57487488 C420.92283786 74.84663879 420.91034452 81.11823556 420.88779449 87.38995743 C420.85521282 96.45765745 420.84486119 105.52527709 420.83984253 114.59302931 C420.83109953 129.30669928 420.80451101 144.02028028 420.76663208 158.73390198 C420.7298862 173.02230892 420.70158707 187.31069166 420.68460083 201.59913635 C420.68354994 202.48065981 420.68249904 203.36218326 420.6814163 204.27041955 C420.67619595 208.69299815 420.67114117 213.11557691 420.66616869 217.53815579 C420.62473765 254.19705456 420.55431638 290.85585219 420.46487427 327.5146637 C421.2905188 327.50596252 422.11616333 327.49726135 422.96682739 327.48829651 C424.04899536 327.48152893 425.13116333 327.47476135 426.24612427 327.4677887 C427.3192688 327.45908752 428.39241333 327.45038635 429.49807739 327.44142151 C433.99326715 327.55239558 437.02609055 328.41487428 440.59011841 331.13917542 C443.17829847 334.41863784 442.96688703 336.62659501 442.96096802 340.7724762 C442.96242325 341.47556915 442.96387848 342.17866211 442.96537781 342.90306091 C442.9637205 344.39082479 442.95217776 345.87860611 442.931427 347.3662262 C442.90273053 349.61178541 442.91076802 351.85494136 442.92385864 354.1006012 C442.90327159 369.28497781 439.24513175 380.56967852 428.65237427 391.8271637 C418.36950236 401.49583709 407.01126457 404.98099886 393.12771606 404.91871643 C391.49897301 404.92901131 391.49897301 404.92901131 389.83732605 404.93951416 C386.27944551 404.95768731 382.72200959 404.95396032 379.16409302 404.94825745 C376.67929441 404.95282163 374.19449706 404.95812791 371.70970154 404.96414185 C366.5176071 404.97305266 361.32566669 404.9706703 356.13357544 404.96070862 C349.47755788 404.94918261 342.82231643 404.96949628 336.16636944 404.99862576 C331.04229864 405.01695354 325.91835536 405.01670275 320.79426003 405.01098824 C318.33943755 405.01083481 315.88460654 405.01689653 313.42981529 405.02927971 C310.00455655 405.044134 306.58028727 405.03355494 303.15505981 405.01637268 C301.63466599 405.03087463 301.63466599 405.03087463 300.08355713 405.04566956 C295.85169986 405.00115056 293.13790093 404.873615 289.35923767 402.85830688 C287.46487427 400.5146637 287.46487427 400.5146637 286.46487427 394.5146637 C279.86487427 394.5146637 273.26487427 394.5146637 266.46487427 394.5146637 C266.13487427 396.1646637 265.80487427 397.8146637 265.46487427 399.5146637 C263.39818751 402.42094195 261.86662587 404.19723806 258.30862427 405.00294495 C254.00954715 405.25372444 252.01271405 404.91413021 248.46487427 402.3271637 C246.46487427 399.5146637 246.46487427 399.5146637 245.46487427 394.5146637 C240.18487427 394.5146637 234.90487427 394.5146637 229.46487427 394.5146637 C228.80487427 396.8246637 228.14487427 399.1346637 227.46487427 401.5146637 C225.43105328 403.6220632 224.21601872 404.38144732 221.3445195 404.89071119 C220.57682963 404.89119825 219.80913976 404.8916853 219.01818657 404.89218712 C218.12812349 404.90001036 217.23806041 404.9078336 216.32102573 404.91589391 C215.34730648 404.90920175 214.37358722 404.90250958 213.37036133 404.89561462 C212.33269343 404.9002946 211.29502554 404.90497457 210.22591317 404.90979636 C206.737567 404.92179303 203.2496103 404.91227049 199.76126099 404.90284729 C197.26461049 404.90691105 194.7679618 404.91225183 192.27131653 404.91877747 C186.18574595 404.93105937 180.100329 404.92922988 174.01476435 404.92053954 C169.06594657 404.91376532 164.11715987 404.91284516 159.16833878 404.91611099 C158.11190688 404.91680054 158.11190688 404.91680054 157.03413294 404.91750402 C155.60332137 404.91846321 154.17250982 404.91943585 152.74169828 404.92042179 C139.3172926 404.92898087 125.89294833 404.91913541 112.46855272 404.90302069 C100.96143635 404.88963452 89.45441085 404.89193053 77.94729614 404.90577698 C64.58034269 404.92185387 51.21344321 404.92813843 37.84648144 404.91894019 C36.41908909 404.91798457 34.99169672 404.91704146 33.56430435 404.91611099 C32.86204331 404.91564817 32.15978226 404.91518534 31.43624058 404.91470849 C26.4991052 404.91212361 21.56200417 404.91647911 16.62487411 404.92354965 C9.96824739 404.93287307 3.31176503 404.92617522 -3.34485435 404.90886688 C-5.78529133 404.90490751 -8.22574275 404.90602664 -10.66617393 404.91265488 C-14.0038791 404.92088248 -17.3410402 404.91053324 -20.67871094 404.89561462 C-21.63904586 404.90230679 -22.59938078 404.90899895 -23.58881676 404.91589391 C-36.76371336 404.80209319 -47.29299708 399.69261428 -56.84762573 390.7021637 C-67.53625174 379.3345471 -70.08285016 367.07376545 -70.03610229 351.93580627 C-70.03511956 349.68804218 -70.07708032 347.44358672 -70.12106323 345.19630432 C-70.12626446 343.75425406 -70.12895852 342.31219209 -70.12887573 340.87013245 C-70.13596558 339.57744446 -70.14305542 338.28475647 -70.15036011 336.95289612 C-69.37178073 332.60181144 -68.02525832 331.15897333 -64.53512573 328.5146637 C-60.74081977 327.469878 -57.14299014 327.40908277 -53.22262573 327.4521637 C-52.15399292 327.46118713 -51.08536011 327.47021057 -49.98434448 327.47950745 C-49.17610229 327.49110901 -48.36786011 327.50271057 -47.53512573 327.5146637 C-47.53702433 326.89289332 -47.53892294 326.27112295 -47.54087907 325.63051105 C-47.65284413 288.75420927 -47.7385962 251.87793269 -47.79045238 215.00149564 C-47.79670568 210.57066336 -47.80317732 206.13983141 -47.80978394 201.70899963 C-47.81109549 200.82692539 -47.81240704 199.94485114 -47.81375834 199.03604737 C-47.83549668 184.76601011 -47.87490952 170.49607387 -47.92088971 156.22609648 C-47.96769814 141.57656408 -47.99543039 126.92708448 -48.00556821 112.27748036 C-48.01241829 103.242666 -48.0340294 94.20813723 -48.07470807 85.1734108 C-48.10120063 78.97238303 -48.10911204 72.77150224 -48.10263262 66.57042202 C-48.09943979 62.99616939 -48.10422711 59.42241473 -48.13115311 55.84825134 C-48.16020225 51.9636607 -48.15001282 48.0797096 -48.13639832 44.19502258 C-48.15096252 43.07825598 -48.16552673 41.96148939 -48.18053228 40.81088138 C-48.07078631 29.18087386 -43.74536566 18.82402121 -35.53512573 10.5146637 C-32.69013209 8.14648463 -29.82695234 6.20583366 -26.53512573 4.5146637 C-25.91809749 4.18719542 -25.30106924 3.85972715 -24.66534317 3.52233559 C-16.64018634 -0.24028824 -8.66720105 -0.04828355 0 0 Z M-23.53512573 27.5146637 C-27.76477746 34.28169212 -28.09828347 39.7290818 -28.0161438 47.60011292 C-28.01956787 48.80053726 -28.02299194 50.00096161 -28.02651978 51.23776245 C-28.03197194 54.55932439 -28.01949222 57.87993608 -27.99941665 61.20138311 C-27.98190221 64.84195026 -27.98779823 68.48249489 -27.99068832 72.12309265 C-27.99281176 79.18446256 -27.97437395 86.24562839 -27.94868301 93.30694592 C-27.91984719 101.47776766 -27.91670207 109.64846737 -27.9135437 117.8193512 C-27.89255491 139.38448763 -27.83671029 160.94957874 -27.78512573 182.5146637 C-27.70262573 230.6946637 -27.62012573 278.8746637 -27.53512573 328.5146637 C113.70487427 328.5146637 254.94487427 328.5146637 400.46487427 328.5146637 C400.52674927 280.2934137 400.58862427 232.0721637 400.65237427 182.3896637 C400.67968628 167.14762756 400.70699829 151.90559143 400.73513794 136.20167542 C400.74516947 122.57278544 400.74516947 122.57278544 400.75120544 108.94389343 C400.75400734 102.85995522 400.76502993 96.7760993 400.78160095 90.69218445 C400.8006769 83.6782577 400.80938681 76.6644101 400.80520912 69.65045721 C400.8033993 66.06135047 400.80629881 62.47242071 400.82251966 58.88334632 C400.83977523 55.04203147 400.83386731 51.20095333 400.82563782 47.35960388 C400.83437581 46.23735476 400.8431138 45.11510563 400.85211658 43.95884895 C400.81107137 36.86049744 399.95299018 32.4174656 395.21487427 26.8896637 C387.01449033 19.80751393 379.98448052 19.9453497 369.55384827 20.01345825 C367.9104076 20.00956415 366.26697029 20.00392284 364.62354094 19.99668735 C360.11299363 19.98193047 355.60279536 19.99211529 351.09225929 20.00642407 C346.22581062 20.01752854 341.35941111 20.00559303 336.4929657 19.99658203 C326.96206377 19.98264432 317.43129429 19.99020955 307.90039866 20.00525761 C296.80408205 20.02211101 285.70779849 20.01890832 274.61147303 20.01516353 C254.81510278 20.00928405 235.01879612 20.02346038 215.22244263 20.04811096 C196.00724911 20.07203523 176.79214055 20.07911406 157.57693481 20.06861877 C136.6578863 20.05721334 115.73887708 20.05527462 94.81982905 20.06971687 C92.5898883 20.07124273 90.35994755 20.07276309 88.13000679 20.07427788 C86.48419674 20.0754146 86.48419674 20.0754146 84.805138 20.07657428 C77.06784443 20.08131975 69.33056838 20.07946383 61.59327507 20.07521248 C52.16672153 20.07028939 42.74024836 20.07625435 33.31371325 20.09610678 C28.50287464 20.10598838 23.6921585 20.11107449 18.88131332 20.10321426 C14.47902924 20.09616863 10.07699252 20.10293585 5.6747411 20.12081789 C4.08064619 20.12486962 2.48652881 20.12385039 0.89244222 20.11729903 C-1.27222801 20.10916283 -3.43606186 20.11944306 -5.60067844 20.13434696 C-6.80363514 20.13537609 -8.00659185 20.13640522 -9.24600178 20.13746554 C-14.91483861 20.7875702 -19.48580389 23.57190296 -23.53512573 27.5146637 Z " fill="#000000" transform="translate(69.53512573242188,53.48533630371094)"/>
<path d="M0 0 C0.67243829 -0.00295142 1.34487659 -0.00590285 2.0376918 -0.00894371 C4.30719555 -0.01765537 6.57664845 -0.01921722 8.84616756 -0.02082157 C10.48330158 -0.02555115 12.12043443 -0.03070187 13.75756592 -0.03623921 C18.26930544 -0.05016536 22.78103688 -0.05773457 27.29279244 -0.0642122 C31.15949262 -0.07057775 35.02617949 -0.08064864 38.89287139 -0.09077286 C51.63406162 -0.12411748 64.37525996 -0.14562237 77.11647955 -0.16397271 C80.43367569 -0.16876682 83.75087151 -0.17375025 87.06806731 -0.17877793 C107.66191069 -0.20974877 128.25575686 -0.23643779 148.849617 -0.25319672 C153.62108585 -0.2571463 158.39255465 -0.26114928 163.1640234 -0.2652216 C164.942941 -0.26673414 164.942941 -0.26673414 166.75779634 -0.26827724 C185.96943049 -0.28528415 205.18093583 -0.32639269 224.39250708 -0.37724458 C244.11136636 -0.42901035 263.83015938 -0.45813764 283.54908603 -0.4653936 C294.62264809 -0.47005722 305.69599924 -0.48482287 316.76949406 -0.5251379 C326.20045238 -0.559431 335.63116175 -0.5733801 345.06217886 -0.56071376 C349.87364859 -0.55488519 354.68459176 -0.55876486 359.49598217 -0.5888834 C363.90376982 -0.61625008 368.31065689 -0.61574431 372.71846461 -0.59337295 C374.3100765 -0.59015102 375.90174875 -0.59701266 377.49326033 -0.61517017 C386.75351522 -0.71438592 394.13581802 -0.12207859 401.44307613 6.1398077 C405.21257394 10.33764625 406.56850696 14.50623693 406.56612396 20.08484077 C406.56811483 21.11177103 406.57010571 22.13870129 406.57215691 23.19675064 C406.56924424 24.32773776 406.56633158 25.45872488 406.56333065 26.62398434 C406.56418667 27.82012859 406.56504269 29.01627285 406.56592464 30.2486639 C406.56729499 33.58118552 406.56414672 36.91364886 406.55914886 40.24616347 C406.55479208 43.89037001 406.55624282 47.53457499 406.55696678 51.17878342 C406.55749915 58.25757536 406.55287493 65.33635464 406.54646545 72.41514333 C406.53927532 80.60058773 406.53847124 88.78602449 406.53768063 96.97147274 C406.53242681 118.5900864 406.51846574 140.20869724 406.50557613 161.8273077 C406.48495113 210.1104327 406.46432613 258.3935577 406.44307613 308.1398077 C265.20307613 308.1398077 123.96307613 308.1398077 -21.55692387 308.1398077 C-21.63942387 259.9598077 -21.72192387 211.7798077 -21.80692387 162.1398077 C-21.84333988 146.91597958 -21.8797559 131.69215145 -21.91727543 116.0069952 C-21.93534184 97.4444952 -21.93534184 97.4444952 -21.93869877 88.75992489 C-21.94243165 82.68271364 -21.95711576 76.60564918 -21.97922611 70.52847958 C-22.0046879 63.5197853 -22.01626757 56.511232 -22.01070367 49.50249112 C-22.00829394 45.91717665 -22.0121143 42.33217726 -22.03378439 38.74692059 C-22.05685708 34.90624693 -22.04889719 31.06599233 -22.03794193 27.22525692 C-22.04959259 26.10883312 -22.06124325 24.99240932 -22.07324696 23.8421545 C-22.01568286 16.34702927 -21.00542346 10.62802131 -15.52176762 5.08121395 C-14.85274418 4.62617489 -14.18372074 4.17113583 -13.49442387 3.7023077 C-12.8228223 3.22922176 -12.15122074 2.75613583 -11.45926762 2.26871395 C-7.61798742 -0.01081372 -4.37412908 0.01044985 0 0 Z M-0.34477329 25.19194794 C-2.13912655 29.55568118 -1.97712738 33.63001895 -1.95133305 38.30556393 C-1.95742415 39.3387414 -1.96351525 40.37191888 -1.96979094 41.43640476 C-1.98645884 44.90332418 -1.98163961 48.36987785 -1.97684574 51.83682919 C-1.98418381 54.32041462 -1.99276927 56.80399664 -2.00251102 59.28757381 C-2.02245051 65.33622644 -2.02810618 71.3847349 -2.02632314 77.4334076 C-2.02501536 82.34982041 -2.02882045 87.26620332 -2.03624821 92.18261051 C-2.0383474 93.59892895 -2.04044501 95.01524738 -2.04254103 96.43156582 C-2.04358455 97.13651053 -2.04462808 97.84145524 -2.04570323 98.56776191 C-2.06460344 111.89857167 -2.06355598 125.2293264 -2.05673391 138.56014401 C-2.05115764 150.75496128 -2.07198769 162.94956852 -2.10509437 175.14433669 C-2.13882821 187.66733949 -2.15400017 200.19024166 -2.14937735 212.71329075 C-2.14713245 219.74349989 -2.1523786 226.77351486 -2.17726994 233.80368519 C-2.20047411 240.41358827 -2.19770413 247.0231268 -2.17734241 253.63306332 C-2.17392284 256.06067461 -2.17906193 258.48831508 -2.193326 260.91588688 C-2.21143994 264.22679549 -2.19882622 267.53620543 -2.17838383 270.84706783 C-2.19090168 271.8105901 -2.20341952 272.77411238 -2.2163167 273.76683229 C-2.15815771 278.15221367 -1.98180159 281.20431526 0.79441738 284.72060394 C4.70151679 288.28922884 7.51153119 288.26627207 12.62073898 288.27682209 C14.57310824 288.2844339 14.57310824 288.2844339 16.56491929 288.29219949 C18.01794195 288.29280119 19.47096466 288.29330026 20.92398739 288.29370785 C22.46085207 288.29772198 23.99771569 288.30216012 25.53457803 288.3069874 C29.76900257 288.31896391 34.00341572 288.32460383 38.23785388 288.32916856 C42.80033834 288.33512043 47.36280914 288.34673117 51.92528439 288.35745907 C62.94825283 288.3819904 73.97122579 288.39661016 84.99421313 288.40951914 C88.10625323 288.41323017 91.21829287 288.41720346 94.33033252 288.4212718 C113.64624383 288.44650456 132.96215583 288.46856258 152.27807999 288.48099995 C156.75291922 288.48392975 161.22775844 288.4868914 165.70259762 288.48990536 C167.37094103 288.49102443 167.37094103 288.49102443 169.07298835 288.49216612 C187.10070144 288.50482667 205.12831605 288.53805898 223.15598307 288.57970719 C241.65441068 288.6220936 260.15278783 288.64569106 278.65126389 288.65092051 C289.04168061 288.65433809 299.43194336 288.66613425 309.82231236 288.69902325 C318.66890302 288.7269795 327.51530817 288.73804251 336.36193959 288.72682779 C340.87717115 288.72163002 345.39201392 288.72460018 349.90718937 288.74929333 C354.03959757 288.771705 358.17133589 288.77110954 362.30375519 288.75208946 C363.79973383 288.74927805 365.29575712 288.75495112 366.79166368 288.76990239 C375.58204012 289.18654353 375.58204012 289.18654353 383.30944252 285.72680759 C385.9819982 282.48637249 386.56784674 281.04256108 386.5745039 276.95648384 C386.57834504 276.07428616 386.58218619 275.19208847 386.58614373 274.28315753 C386.58484401 272.82039707 386.58484401 272.82039707 386.58351803 271.3280859 C386.58648915 270.29676613 386.58946027 269.26544636 386.59252143 268.20287448 C386.60123848 264.724406 386.60271921 261.24597181 386.60420895 257.76749325 C386.60883499 255.28273094 386.61385935 252.79796934 386.61925411 250.31320858 C386.63240054 243.54667685 386.63886383 236.78015862 386.64326477 230.01361728 C386.64602556 225.78997627 386.65026262 221.56633756 386.65476894 217.3426981 C386.6669632 205.65289834 386.67726206 193.96310043 386.68064404 182.27329445 C386.6808636 181.52481685 386.68108317 180.77633926 386.68130939 180.00518053 C386.68152766 179.25489218 386.68174594 178.50460384 386.68197083 177.73157948 C386.6824143 176.21116141 386.68286087 174.69074335 386.68331051 173.17032528 C386.68353194 172.4161423 386.68375337 171.66195932 386.68398151 170.8849223 C386.68792982 158.66343147 386.70538415 146.44200025 386.72867003 134.22053244 C386.75237427 121.67843496 386.76484547 109.13636741 386.76601195 96.59424716 C386.76692926 89.55009708 386.77269554 82.50602466 386.79083157 75.46189594 C386.80782698 68.83733981 386.8094921 62.21290522 386.80069256 55.58832455 C386.7999195 53.15384496 386.80430003 50.71935759 386.81415081 48.2848978 C386.82679033 44.96724748 386.82103682 41.65012648 386.81056881 38.33248043 C386.81862521 37.36399896 386.82668162 36.39551749 386.83498216 35.39768809 C386.79882232 30.51395893 386.72491138 27.03624177 383.44307613 23.1398077 C380.07823253 19.9897604 377.6872931 19.76424644 373.13957214 19.76228428 C371.83538489 19.75446104 370.53119764 19.74663779 369.18748957 19.73857749 C367.73671888 19.74506393 366.28594943 19.75183391 364.83518124 19.75885677 C363.29673856 19.75540138 361.75829836 19.75063762 360.21986336 19.74467504 C355.98569972 19.73211888 351.7517382 19.73835633 347.51757371 19.7476337 C342.95375611 19.75440506 338.38997392 19.74395244 333.82616329 19.73569393 C324.88275751 19.72233361 315.93942713 19.72524465 306.99601836 19.73393185 C299.72879634 19.74069938 292.46159549 19.74162916 285.19437122 19.7383604 C284.16114706 19.73790071 283.12792289 19.73744101 282.0633889 19.73696738 C279.96458268 19.73600823 277.86577647 19.73503559 275.76697027 19.7340496 C256.07253447 19.72548886 236.37814052 19.73534034 216.68371158 19.7514507 C199.77690002 19.76485251 182.87015025 19.76252824 165.96333981 19.74869442 C146.34225936 19.73264726 126.72121563 19.726315 107.10012954 19.73553121 C105.00861864 19.73648688 102.91710773 19.73742999 100.82559681 19.7383604 C99.28190238 19.73905464 99.28190238 19.73905464 97.70702221 19.73976291 C90.44718739 19.74235554 83.18737581 19.73797588 75.92754459 19.73092175 C67.08206608 19.72251605 58.23666745 19.72476719 49.39119811 19.74076398 C44.87618706 19.74865955 40.3613093 19.75171647 35.84629917 19.74181652 C31.71534288 19.73289555 27.58464378 19.7377594 23.45371091 19.75374918 C21.95711874 19.75710806 20.46050497 19.75537814 18.96392662 19.74812181 C16.9334397 19.73902988 14.90289215 19.75012869 12.87242126 19.76228428 C11.74340269 19.76277134 10.61438412 19.76325839 9.45115286 19.76376021 C5.12853175 20.30414231 2.493728 21.93384207 -0.34477329 25.19194794 Z " fill="#C8F2FE" transform="translate(63.55692386627197,73.86019229888916)"/>
<path d="M0 0 C1.9583424 -0.01358496 1.9583424 -0.01358496 3.95624727 -0.02744436 C5.40338645 -0.02234013 6.85052463 -0.01694804 8.29766178 -0.01129913 C9.83625597 -0.01618762 11.37484649 -0.02237723 12.91343075 -0.02975702 C17.14339241 -0.04618499 21.37316805 -0.04383284 25.60315049 -0.03838205 C30.16425221 -0.03571539 34.72530394 -0.05023676 39.28638554 -0.06247711 C48.22262727 -0.08354823 57.15880415 -0.08807102 66.09506779 -0.08628923 C73.35701493 -0.08498252 80.6189418 -0.08878105 87.88088512 -0.09621429 C89.97124149 -0.09831344 92.06159786 -0.10041105 94.15195423 -0.10250711 C95.19232034 -0.10355064 96.23268644 -0.10459417 97.30457879 -0.10566932 C116.98759828 -0.12457825 136.67058052 -0.1235194 156.35360534 -0.11669999 C174.3682685 -0.1111232 192.38278951 -0.13195463 210.39741945 -0.16506046 C228.88688188 -0.1987757 247.37627617 -0.21396855 265.86576992 -0.20934343 C276.24943524 -0.20709666 286.63296914 -0.21237238 297.01660824 -0.23723602 C305.85584768 -0.25822109 314.69488363 -0.26186889 323.53413134 -0.24293643 C328.0453143 -0.23376157 332.55611757 -0.2326889 337.06727123 -0.25329208 C341.19591891 -0.27194004 345.3238743 -0.26756876 349.45249511 -0.24474627 C350.9470599 -0.24054481 352.44167714 -0.24481234 353.9361866 -0.25834221 C366.49921257 -0.36434201 366.49921257 -0.36434201 370.44176674 2.73445129 C373.16510261 6.11382477 373.70042372 8.47932931 373.71325588 12.68668842 C373.7208677 14.01204647 373.7208677 14.01204647 373.72863328 15.36417943 C373.72913104 16.33575811 373.7296288 17.30733678 373.73014164 18.30835724 C373.73452389 19.33982587 373.73890615 20.37129449 373.7434212 21.43401974 C373.75682749 24.90704189 373.76299214 28.38003865 373.76911259 31.85308075 C373.77701199 34.33636846 373.78528084 36.81965502 373.79389286 39.30294037 C373.81786259 46.76636788 373.83304157 54.2297912 373.84595293 61.69324401 C373.84966509 63.80099843 373.85363829 65.90875219 373.85770559 68.01650596 C373.88293933 81.10431147 373.90499319 94.19211804 373.91743374 107.27994251 C373.92036344 110.31099514 373.92332511 113.34204773 373.92633915 116.37310028 C373.9270852 117.12645545 373.92783125 117.87981062 373.92859991 118.65599474 C373.94125752 130.86385702 373.97448678 143.07157379 374.01614098 155.27936802 C374.05855106 167.81133047 374.08212757 180.34321839 374.0873543 192.87525243 C374.09076919 199.91222 374.10253345 206.94896004 374.13545704 213.98585701 C374.16637032 220.60391084 374.17187964 227.22163967 374.16007328 233.8397789 C374.15985185 236.2706252 374.16821413 238.70148949 374.18572712 241.13227272 C374.20831583 244.44763473 374.20017033 247.76154384 374.1842432 251.07691193 C374.19812529 252.04179844 374.21200738 253.00668495 374.22631013 254.00081044 C374.17377741 258.43021633 374.0041409 261.44044563 371.16324139 264.96474743 C367.3811668 268.50028209 365.60662521 268.50892358 360.51883316 268.51453781 C359.21862801 268.51837896 357.91842286 268.5222201 356.57881755 268.52617764 C355.12216352 268.5253973 353.66550954 268.5245185 352.20885563 268.52355194 C350.67214168 268.52613402 349.13542841 268.52914674 347.59871608 268.53255534 C343.36009746 268.54064706 339.12149575 268.54241612 334.88287032 268.54315281 C330.31766371 268.5449996 325.75246596 268.55254503 321.18726444 268.55928802 C311.19769753 268.57288725 301.20813461 268.57889853 291.21855998 268.58329868 C284.98480281 268.5860584 278.75104719 268.59029526 272.51729107 268.59480286 C255.26871399 268.60699756 238.02013816 268.6172965 220.77155685 268.62067795 C219.11467044 268.6210073 219.11467044 268.6210073 217.42431157 268.6213433 C215.76338841 268.62167072 215.76338841 268.62167072 214.06891125 268.62200475 C211.82501678 268.62244822 209.5811223 268.62289478 207.33722782 268.62334442 C206.22417107 268.62356585 205.11111431 268.62378728 203.96432856 268.62401542 C185.92297281 268.62796464 167.88165743 268.64542155 149.84031727 268.66870394 C131.33175509 268.69239712 112.82321317 268.70487887 94.31463557 268.70604587 C83.91701486 268.70696377 73.51944674 268.71274502 63.12184048 268.73086548 C54.26900426 268.74623905 45.41623688 268.7514032 36.56338986 268.74312738 C32.04433504 268.73921112 27.52541893 268.74019782 23.00638103 268.75418472 C18.87165617 268.76686541 14.73717508 268.76577782 10.60245083 268.75359401 C9.10444809 268.75162684 7.60642844 268.75476219 6.10844954 268.76343837 C4.07605211 268.77446715 2.04357481 268.76528608 0.01117325 268.75504684 C-1.11892947 268.75564393 -2.24903219 268.75624102 -3.41338044 268.7568562 C-7.75313389 268.21806468 -10.25015804 266.63658815 -13.21266329 263.47244877 C-14.6007104 261.07783888 -14.79952908 259.70439375 -14.80128193 256.95369053 C-14.80910517 256.06751075 -14.81692841 255.18133097 -14.82498872 254.26829726 C-14.81829656 253.2989493 -14.81160439 252.32960135 -14.80470943 251.33087921 C-14.80938941 250.29785059 -14.81406938 249.26482198 -14.81889117 248.20048946 C-14.8308871 244.72811186 -14.82136574 241.25612557 -14.8119421 237.78374481 C-14.81600577 235.2986859 -14.8213465 232.8136288 -14.82787228 230.32857513 C-14.84015233 224.27275619 -14.83832638 218.21709164 -14.82963435 212.16127867 C-14.82286235 207.23959179 -14.82193899 202.31793616 -14.8252058 197.39624596 C-14.8256655 196.69606514 -14.8261252 195.99588432 -14.82659883 195.2744859 C-14.827558 193.85211968 -14.82853064 192.42975347 -14.8295166 191.00738727 C-14.83807421 177.66515854 -14.82823089 164.32299162 -14.81211551 150.98077302 C-14.79871491 139.5317652 -14.80103754 128.08284864 -14.81487179 116.63384247 C-14.83092612 103.34128264 -14.83724711 90.04877701 -14.828035 76.75620884 C-14.82707934 75.33873587 -14.82613623 73.92126289 -14.8252058 72.5037899 C-14.82474298 71.80635352 -14.82428015 71.10891713 -14.8238033 70.39034631 C-14.82121275 65.4749069 -14.82558586 60.55950185 -14.83264446 55.64406776 C-14.84193668 49.02767412 -14.8353212 42.4114263 -14.81796169 35.79504013 C-14.81398818 33.36379089 -14.8151456 30.93252717 -14.82174969 28.50128365 C-14.82992095 25.1880998 -14.81969649 21.87547269 -14.80470943 18.56232452 C-14.8114016 17.59520729 -14.81809376 16.62809006 -14.82498872 15.63166624 C-14.75075932 7.19856806 -14.75075932 7.19856806 -11.42375851 3.38311005 C-7.5200464 0.54976033 -4.78820681 0.00666993 0 0 Z M5.57624149 20.38311005 C5.57624149 95.62311005 5.57624149 170.86311005 5.57624149 248.38311005 C120.41624149 248.38311005 235.25624149 248.38311005 353.57624149 248.38311005 C353.57624149 173.14311005 353.57624149 97.90311005 353.57624149 20.38311005 C238.73624149 20.38311005 123.89624149 20.38311005 5.57624149 20.38311005 Z " fill="#000000" transform="translate(76.4237585067749,93.61688995361328)"/>
<path d="M0 0 C155.76 0 311.52 0 472 0 C472 12.91520518 471.78910036 20.07162617 463.18338203 29.08777714 C456.18145818 35.22011617 448.02682355 36.73702472 439.00830078 36.59594727 C437.9710939 36.6000058 436.93388702 36.60406433 435.86524963 36.60824585 C433.63477689 36.61372709 431.40425206 36.60785712 429.17383194 36.59158516 C425.64269178 36.56602536 422.11271059 36.5710079 418.58151245 36.58348083 C411.09587856 36.60414685 403.61060978 36.58456482 396.125 36.5625 C387.42638505 36.54138382 378.72814408 36.53679203 370.0295372 36.56300163 C366.55214948 36.56636339 363.07547775 36.54514512 359.59817505 36.52259827 C357.47055912 36.5251088 355.34294408 36.52866811 353.21533203 36.53344727 C352.25006088 36.52056168 351.28478973 36.50767609 350.29026794 36.49440002 C346.12064986 36.52568305 343.61803814 36.65507949 339.92404175 38.71665955 C337.54998238 41.16189171 337.54998238 41.16189171 337 46 C330.07 46 323.14 46 316 46 C315.67 47.65 315.34 49.3 315 51 C312.93331324 53.90627825 311.4017516 55.68257437 307.84375 56.48828125 C303.54467288 56.73906075 301.54783979 56.39946651 298 53.8125 C296 51 296 51 295 46 C289.39 46 283.78 46 278 46 C276.515 42.535 276.515 42.535 275 39 C272.27658862 36.97821148 269.98309821 36.74995006 266.64422321 36.74946022 C265.77444381 36.74446152 264.90466441 36.73946283 264.00852805 36.73431265 C263.05747237 36.73897587 262.10641669 36.74363908 261.12654114 36.7484436 C260.11266899 36.74547346 259.09879685 36.74250333 258.0542013 36.73944318 C254.64651019 36.7317861 251.23899056 36.73830432 247.83129883 36.74462891 C245.39213951 36.74187978 242.9529811 36.73820036 240.51382446 36.73365784 C235.25532957 36.72553654 229.99687939 36.72321726 224.73838234 36.72560501 C217.12566805 36.72870268 209.51302811 36.71706321 201.90033253 36.70105521 C189.53634488 36.67508655 177.17235717 36.65507226 164.80834961 36.64160156 C164.06830933 36.64079119 163.32826905 36.63998082 162.56580331 36.6391459 C152.07102162 36.62793193 141.57624523 36.62264504 131.08145835 36.61975877 C130.34293403 36.61955478 129.60440971 36.61935079 128.84350586 36.61914062 C128.10588348 36.61894069 127.36826111 36.61874075 126.60828654 36.61853476 C114.29659107 36.61479842 101.9849761 36.59568847 89.67332095 36.56404626 C82.08317389 36.54515428 74.49323352 36.53915617 66.90306946 36.54986344 C61.08155454 36.55694446 55.26022919 36.54337565 49.43875504 36.52224541 C47.05433999 36.51692436 44.66989837 36.51841867 42.28549385 36.52728081 C39.02611054 36.53841646 35.76770114 36.5249523 32.50837708 36.50552368 C31.568475 36.51464834 30.62857293 36.523773 29.66018897 36.53317416 C20.27731858 36.4246145 13.46054505 33.07183765 6.65625 26.7265625 C-0.81127024 18.94202489 0 10.66527626 0 0 Z " fill="#4CB9F5" transform="translate(20,402)"/>
<path d="M0 0 C1.04647705 -0.00478363 2.0929541 -0.00956726 3.17114258 -0.01449585 C5.38006089 -0.01789298 7.58902961 -0.00870375 9.79785156 0.01220703 C13.1762721 0.03897354 16.55137014 0.01245107 19.9296875 -0.01953125 C22.07813232 -0.01622712 24.22657508 -0.00982083 26.375 0 C27.38344971 -0.01012115 28.39189941 -0.02024231 29.4309082 -0.03067017 C36.46237075 0.08666583 36.46237075 0.08666583 40.30078125 3.14306641 C40.92339844 3.97499512 41.54601562 4.80692383 42.1875 5.6640625 C42.6825 6.1590625 42.6825 6.1590625 43.1875 6.6640625 C43.57434641 10.68726512 43.60402015 12.96986225 41.5 16.4765625 C36.4992762 21.2069769 31.24804818 20.97164789 24.72265625 20.96484375 C23.81172714 20.96912888 22.90079803 20.973414 21.96226501 20.97782898 C20.04003733 20.98355948 18.11778796 20.98408199 16.19555664 20.97973633 C13.26345637 20.976577 10.33236625 21.00004922 7.40039062 21.02539062 C5.5286471 21.0276639 3.65690088 21.02836698 1.78515625 21.02734375 C0.47708763 21.04115837 0.47708763 21.04115837 -0.85740662 21.05525208 C-5.90818728 21.01708512 -9.46724555 20.52882998 -13.8125 17.6640625 C-15.82721597 14.64198855 -16.14969034 13.74679551 -16.25 10.2890625 C-16.28996094 9.53882813 -16.32992188 8.78859375 -16.37109375 8.015625 C-14.36777078 -0.41794441 -7.08034363 -0.07106081 0 0 Z " fill="#060402" transform="translate(360.8125,292.3359375)"/>
<path d="M0 0 C1.04647705 -0.00478363 2.0929541 -0.00956726 3.17114258 -0.01449585 C5.38006089 -0.01789298 7.58902961 -0.00870375 9.79785156 0.01220703 C13.1762721 0.03897354 16.55137014 0.01245107 19.9296875 -0.01953125 C22.07813232 -0.01622712 24.22657508 -0.00982083 26.375 0 C27.38344971 -0.01012115 28.39189941 -0.02024231 29.4309082 -0.03067017 C36.46237075 0.08666583 36.46237075 0.08666583 40.30078125 3.14306641 C40.92339844 3.97499512 41.54601562 4.80692383 42.1875 5.6640625 C42.6825 6.1590625 42.6825 6.1590625 43.1875 6.6640625 C43.57434641 10.68726512 43.60402015 12.96986225 41.5 16.4765625 C36.4992762 21.2069769 31.24804818 20.97164789 24.72265625 20.96484375 C23.81172714 20.96912888 22.90079803 20.973414 21.96226501 20.97782898 C20.04003733 20.98355948 18.11778796 20.98408199 16.19555664 20.97973633 C13.26345637 20.976577 10.33236625 21.00004922 7.40039062 21.02539062 C5.5286471 21.0276639 3.65690088 21.02836698 1.78515625 21.02734375 C0.47708763 21.04115837 0.47708763 21.04115837 -0.85740662 21.05525208 C-5.90818728 21.01708512 -9.46724555 20.52882998 -13.8125 17.6640625 C-15.82721597 14.64198855 -16.14969034 13.74679551 -16.25 10.2890625 C-16.28996094 9.53882813 -16.32992188 8.78859375 -16.37109375 8.015625 C-14.36777078 -0.41794441 -7.08034363 -0.07106081 0 0 Z " fill="#060402" transform="translate(280.8125,292.3359375)"/>
<path d="M0 0 C1.04647705 -0.00478363 2.0929541 -0.00956726 3.17114258 -0.01449585 C5.38006089 -0.01789298 7.58902961 -0.00870375 9.79785156 0.01220703 C13.1762721 0.03897354 16.55137014 0.01245107 19.9296875 -0.01953125 C22.07813232 -0.01622712 24.22657508 -0.00982083 26.375 0 C27.38344971 -0.01012115 28.39189941 -0.02024231 29.4309082 -0.03067017 C36.46237075 0.08666583 36.46237075 0.08666583 40.30078125 3.14306641 C40.92339844 3.97499512 41.54601562 4.80692383 42.1875 5.6640625 C42.6825 6.1590625 42.6825 6.1590625 43.1875 6.6640625 C43.57434641 10.68726512 43.60402015 12.96986225 41.5 16.4765625 C36.4992762 21.2069769 31.24804818 20.97164789 24.72265625 20.96484375 C23.81172714 20.96912888 22.90079803 20.973414 21.96226501 20.97782898 C20.04003733 20.98355948 18.11778796 20.98408199 16.19555664 20.97973633 C13.26345637 20.976577 10.33236625 21.00004922 7.40039062 21.02539062 C5.5286471 21.0276639 3.65690088 21.02836698 1.78515625 21.02734375 C0.47708763 21.04115837 0.47708763 21.04115837 -0.85740662 21.05525208 C-5.90818728 21.01708512 -9.46724555 20.52882998 -13.8125 17.6640625 C-15.82721597 14.64198855 -16.14969034 13.74679551 -16.25 10.2890625 C-16.28996094 9.53882813 -16.32992187 8.78859375 -16.37109375 8.015625 C-14.36777078 -0.41794441 -7.08034363 -0.07106081 0 0 Z " fill="#060402" transform="translate(200.8125,292.3359375)"/>
<path d="M0 0 C1.04647705 -0.00478363 2.0929541 -0.00956726 3.17114258 -0.01449585 C5.38006089 -0.01789298 7.58902961 -0.00870375 9.79785156 0.01220703 C13.1762721 0.03897354 16.55137014 0.01245107 19.9296875 -0.01953125 C22.07813232 -0.01622712 24.22657508 -0.00982083 26.375 0 C27.38344971 -0.01012115 28.39189941 -0.02024231 29.4309082 -0.03067017 C36.46237075 0.08666583 36.46237075 0.08666583 40.30078125 3.14306641 C40.92339844 3.97499512 41.54601562 4.80692383 42.1875 5.6640625 C42.6825 6.1590625 42.6825 6.1590625 43.1875 6.6640625 C43.57434641 10.68726512 43.60402015 12.96986225 41.5 16.4765625 C36.4992762 21.2069769 31.24804818 20.97164789 24.72265625 20.96484375 C23.81172714 20.96912888 22.90079803 20.973414 21.96226501 20.97782898 C20.04003733 20.98355948 18.11778796 20.98408199 16.19555664 20.97973633 C13.26345637 20.976577 10.33236625 21.00004922 7.40039062 21.02539062 C5.5286471 21.0276639 3.65690088 21.02836698 1.78515625 21.02734375 C0.47708763 21.04115837 0.47708763 21.04115837 -0.85740662 21.05525208 C-5.90818728 21.01708512 -9.46724555 20.52882998 -13.8125 17.6640625 C-15.82721597 14.64198855 -16.14969034 13.74679551 -16.25 10.2890625 C-16.28996094 9.53882813 -16.32992187 8.78859375 -16.37109375 8.015625 C-14.36777078 -0.41794441 -7.08034363 -0.07106081 0 0 Z " fill="#060402" transform="translate(120.8125,292.3359375)"/>
<path d="M0 0 C1.04647705 -0.00478363 2.0929541 -0.00956726 3.17114258 -0.01449585 C5.38006089 -0.01789298 7.58902961 -0.00870375 9.79785156 0.01220703 C13.1762721 0.03897354 16.55137014 0.01245107 19.9296875 -0.01953125 C22.07813232 -0.01622712 24.22657508 -0.00982083 26.375 0 C27.38344971 -0.01012115 28.39189941 -0.02024231 29.4309082 -0.03067017 C36.46237075 0.08666583 36.46237075 0.08666583 40.30078125 3.14306641 C40.92339844 3.97499512 41.54601562 4.80692383 42.1875 5.6640625 C42.6825 6.1590625 42.6825 6.1590625 43.1875 6.6640625 C43.57434641 10.68726512 43.60402015 12.96986225 41.5 16.4765625 C36.4992762 21.2069769 31.24804818 20.97164789 24.72265625 20.96484375 C23.81172714 20.96912888 22.90079803 20.973414 21.96226501 20.97782898 C20.04003733 20.98355948 18.11778796 20.98408199 16.19555664 20.97973633 C13.26345637 20.976577 10.33236625 21.00004922 7.40039062 21.02539062 C5.5286471 21.0276639 3.65690088 21.02836698 1.78515625 21.02734375 C0.47708763 21.04115837 0.47708763 21.04115837 -0.85740662 21.05525208 C-5.90818728 21.01708512 -9.46724555 20.52882998 -13.8125 17.6640625 C-15.82721597 14.64198855 -16.14969034 13.74679551 -16.25 10.2890625 C-16.28996094 9.53882813 -16.32992188 8.78859375 -16.37109375 8.015625 C-14.36777078 -0.41794441 -7.08034363 -0.07106081 0 0 Z " fill="#060402" transform="translate(360.8125,252.3359375)"/>
<path d="M0 0 C1.04647705 -0.00478363 2.0929541 -0.00956726 3.17114258 -0.01449585 C5.38006089 -0.01789298 7.58902961 -0.00870375 9.79785156 0.01220703 C13.1762721 0.03897354 16.55137014 0.01245107 19.9296875 -0.01953125 C22.07813232 -0.01622712 24.22657508 -0.00982083 26.375 0 C27.38344971 -0.01012115 28.39189941 -0.02024231 29.4309082 -0.03067017 C36.46237075 0.08666583 36.46237075 0.08666583 40.30078125 3.14306641 C40.92339844 3.97499512 41.54601562 4.80692383 42.1875 5.6640625 C42.6825 6.1590625 42.6825 6.1590625 43.1875 6.6640625 C43.57434641 10.68726512 43.60402015 12.96986225 41.5 16.4765625 C36.4992762 21.2069769 31.24804818 20.97164789 24.72265625 20.96484375 C23.81172714 20.96912888 22.90079803 20.973414 21.96226501 20.97782898 C20.04003733 20.98355948 18.11778796 20.98408199 16.19555664 20.97973633 C13.26345637 20.976577 10.33236625 21.00004922 7.40039062 21.02539062 C5.5286471 21.0276639 3.65690088 21.02836698 1.78515625 21.02734375 C0.47708763 21.04115837 0.47708763 21.04115837 -0.85740662 21.05525208 C-5.90818728 21.01708512 -9.46724555 20.52882998 -13.8125 17.6640625 C-15.82721597 14.64198855 -16.14969034 13.74679551 -16.25 10.2890625 C-16.28996094 9.53882813 -16.32992188 8.78859375 -16.37109375 8.015625 C-14.36777078 -0.41794441 -7.08034363 -0.07106081 0 0 Z " fill="#060402" transform="translate(280.8125,252.3359375)"/>
<path d="M0 0 C1.04647705 -0.00478363 2.0929541 -0.00956726 3.17114258 -0.01449585 C5.38006089 -0.01789298 7.58902961 -0.00870375 9.79785156 0.01220703 C13.1762721 0.03897354 16.55137014 0.01245107 19.9296875 -0.01953125 C22.07813232 -0.01622712 24.22657508 -0.00982083 26.375 0 C27.38344971 -0.01012115 28.39189941 -0.02024231 29.4309082 -0.03067017 C36.46237075 0.08666583 36.46237075 0.08666583 40.30078125 3.14306641 C40.92339844 3.97499512 41.54601562 4.80692383 42.1875 5.6640625 C42.6825 6.1590625 42.6825 6.1590625 43.1875 6.6640625 C43.57434641 10.68726512 43.60402015 12.96986225 41.5 16.4765625 C36.4992762 21.2069769 31.24804818 20.97164789 24.72265625 20.96484375 C23.81172714 20.96912888 22.90079803 20.973414 21.96226501 20.97782898 C20.04003733 20.98355948 18.11778796 20.98408199 16.19555664 20.97973633 C13.26345637 20.976577 10.33236625 21.00004922 7.40039062 21.02539062 C5.5286471 21.0276639 3.65690088 21.02836698 1.78515625 21.02734375 C0.47708763 21.04115837 0.47708763 21.04115837 -0.85740662 21.05525208 C-5.90818728 21.01708512 -9.46724555 20.52882998 -13.8125 17.6640625 C-15.82721597 14.64198855 -16.14969034 13.74679551 -16.25 10.2890625 C-16.28996094 9.53882813 -16.32992187 8.78859375 -16.37109375 8.015625 C-14.36777078 -0.41794441 -7.08034363 -0.07106081 0 0 Z " fill="#060402" transform="translate(200.8125,252.3359375)"/>
<path d="M0 0 C1.04647705 -0.00478363 2.0929541 -0.00956726 3.17114258 -0.01449585 C5.38006089 -0.01789298 7.58902961 -0.00870375 9.79785156 0.01220703 C13.1762721 0.03897354 16.55137014 0.01245107 19.9296875 -0.01953125 C22.07813232 -0.01622712 24.22657508 -0.00982083 26.375 0 C27.38344971 -0.01012115 28.39189941 -0.02024231 29.4309082 -0.03067017 C36.46237075 0.08666583 36.46237075 0.08666583 40.30078125 3.14306641 C40.92339844 3.97499512 41.54601562 4.80692383 42.1875 5.6640625 C42.6825 6.1590625 42.6825 6.1590625 43.1875 6.6640625 C43.57434641 10.68726512 43.60402015 12.96986225 41.5 16.4765625 C36.4992762 21.2069769 31.24804818 20.97164789 24.72265625 20.96484375 C23.81172714 20.96912888 22.90079803 20.973414 21.96226501 20.97782898 C20.04003733 20.98355948 18.11778796 20.98408199 16.19555664 20.97973633 C13.26345637 20.976577 10.33236625 21.00004922 7.40039062 21.02539062 C5.5286471 21.0276639 3.65690088 21.02836698 1.78515625 21.02734375 C0.47708763 21.04115837 0.47708763 21.04115837 -0.85740662 21.05525208 C-5.90818728 21.01708512 -9.46724555 20.52882998 -13.8125 17.6640625 C-15.82721597 14.64198855 -16.14969034 13.74679551 -16.25 10.2890625 C-16.28996094 9.53882813 -16.32992187 8.78859375 -16.37109375 8.015625 C-14.36777078 -0.41794441 -7.08034363 -0.07106081 0 0 Z " fill="#060402" transform="translate(120.8125,252.3359375)"/>
<path d="M0 0 C1.04647705 -0.00478363 2.0929541 -0.00956726 3.17114258 -0.01449585 C5.38006089 -0.01789298 7.58902961 -0.00870375 9.79785156 0.01220703 C13.1762721 0.03897354 16.55137014 0.01245107 19.9296875 -0.01953125 C22.07813232 -0.01622712 24.22657508 -0.00982083 26.375 0 C27.38344971 -0.01012115 28.39189941 -0.02024231 29.4309082 -0.03067017 C36.46237075 0.08666583 36.46237075 0.08666583 40.30078125 3.14306641 C40.92339844 3.97499512 41.54601562 4.80692383 42.1875 5.6640625 C42.6825 6.1590625 42.6825 6.1590625 43.1875 6.6640625 C43.57434641 10.68726512 43.60402015 12.96986225 41.5 16.4765625 C36.4992762 21.2069769 31.24804818 20.97164789 24.72265625 20.96484375 C23.81172714 20.96912888 22.90079803 20.973414 21.96226501 20.97782898 C20.04003733 20.98355948 18.11778796 20.98408199 16.19555664 20.97973633 C13.26345637 20.976577 10.33236625 21.00004922 7.40039062 21.02539062 C5.5286471 21.0276639 3.65690088 21.02836698 1.78515625 21.02734375 C0.47708763 21.04115837 0.47708763 21.04115837 -0.85740662 21.05525208 C-5.90818728 21.01708512 -9.46724555 20.52882998 -13.8125 17.6640625 C-15.82721597 14.64198855 -16.14969034 13.74679551 -16.25 10.2890625 C-16.28996094 9.53882813 -16.32992188 8.78859375 -16.37109375 8.015625 C-14.36777078 -0.41794441 -7.08034363 -0.07106081 0 0 Z " fill="#060402" transform="translate(360.8125,212.3359375)"/>
<path d="M0 0 C1.04647705 -0.00478363 2.0929541 -0.00956726 3.17114258 -0.01449585 C5.38006089 -0.01789298 7.58902961 -0.00870375 9.79785156 0.01220703 C13.1762721 0.03897354 16.55137014 0.01245107 19.9296875 -0.01953125 C22.07813232 -0.01622712 24.22657508 -0.00982083 26.375 0 C27.38344971 -0.01012115 28.39189941 -0.02024231 29.4309082 -0.03067017 C36.46237075 0.08666583 36.46237075 0.08666583 40.30078125 3.14306641 C40.92339844 3.97499512 41.54601562 4.80692383 42.1875 5.6640625 C42.6825 6.1590625 42.6825 6.1590625 43.1875 6.6640625 C43.57434641 10.68726512 43.60402015 12.96986225 41.5 16.4765625 C36.4992762 21.2069769 31.24804818 20.97164789 24.72265625 20.96484375 C23.81172714 20.96912888 22.90079803 20.973414 21.96226501 20.97782898 C20.04003733 20.98355948 18.11778796 20.98408199 16.19555664 20.97973633 C13.26345637 20.976577 10.33236625 21.00004922 7.40039062 21.02539062 C5.5286471 21.0276639 3.65690088 21.02836698 1.78515625 21.02734375 C0.47708763 21.04115837 0.47708763 21.04115837 -0.85740662 21.05525208 C-5.90818728 21.01708512 -9.46724555 20.52882998 -13.8125 17.6640625 C-15.82721597 14.64198855 -16.14969034 13.74679551 -16.25 10.2890625 C-16.28996094 9.53882813 -16.32992187 8.78859375 -16.37109375 8.015625 C-14.36777078 -0.41794441 -7.08034363 -0.07106081 0 0 Z " fill="#060402" transform="translate(200.8125,212.3359375)"/>
<path d="M0 0 C1.04647705 -0.00478363 2.0929541 -0.00956726 3.17114258 -0.01449585 C5.38006089 -0.01789298 7.58902961 -0.00870375 9.79785156 0.01220703 C13.1762721 0.03897354 16.55137014 0.01245107 19.9296875 -0.01953125 C22.07813232 -0.01622712 24.22657508 -0.00982083 26.375 0 C27.38344971 -0.01012115 28.39189941 -0.02024231 29.4309082 -0.03067017 C36.46237075 0.08666583 36.46237075 0.08666583 40.30078125 3.14306641 C40.92339844 3.97499512 41.54601562 4.80692383 42.1875 5.6640625 C42.6825 6.1590625 42.6825 6.1590625 43.1875 6.6640625 C43.57434641 10.68726512 43.60402015 12.96986225 41.5 16.4765625 C36.4992762 21.2069769 31.24804818 20.97164789 24.72265625 20.96484375 C23.81172714 20.96912888 22.90079803 20.973414 21.96226501 20.97782898 C20.04003733 20.98355948 18.11778796 20.98408199 16.19555664 20.97973633 C13.26345637 20.976577 10.33236625 21.00004922 7.40039062 21.02539062 C5.5286471 21.0276639 3.65690088 21.02836698 1.78515625 21.02734375 C0.47708763 21.04115837 0.47708763 21.04115837 -0.85740662 21.05525208 C-5.90818728 21.01708512 -9.46724555 20.52882998 -13.8125 17.6640625 C-15.82721597 14.64198855 -16.14969034 13.74679551 -16.25 10.2890625 C-16.28996094 9.53882813 -16.32992187 8.78859375 -16.37109375 8.015625 C-14.36777078 -0.41794441 -7.08034363 -0.07106081 0 0 Z " fill="#060402" transform="translate(120.8125,212.3359375)"/>
<path d="M0 0 C1.04647705 -0.00478363 2.0929541 -0.00956726 3.17114258 -0.01449585 C5.38006089 -0.01789298 7.58902961 -0.00870375 9.79785156 0.01220703 C13.1762721 0.03897354 16.55137014 0.01245107 19.9296875 -0.01953125 C22.07813232 -0.01622712 24.22657508 -0.00982083 26.375 0 C27.38344971 -0.01012115 28.39189941 -0.02024231 29.4309082 -0.03067017 C36.46237075 0.08666583 36.46237075 0.08666583 40.30078125 3.14306641 C40.92339844 3.97499512 41.54601562 4.80692383 42.1875 5.6640625 C42.6825 6.1590625 42.6825 6.1590625 43.1875 6.6640625 C43.57434641 10.68726512 43.60402015 12.96986225 41.5 16.4765625 C36.4992762 21.2069769 31.24804818 20.97164789 24.72265625 20.96484375 C23.81172714 20.96912888 22.90079803 20.973414 21.96226501 20.97782898 C20.04003733 20.98355948 18.11778796 20.98408199 16.19555664 20.97973633 C13.26345637 20.976577 10.33236625 21.00004922 7.40039062 21.02539062 C5.5286471 21.0276639 3.65690088 21.02836698 1.78515625 21.02734375 C0.47708763 21.04115837 0.47708763 21.04115837 -0.85740662 21.05525208 C-5.90818728 21.01708512 -9.46724555 20.52882998 -13.8125 17.6640625 C-15.82721597 14.64198855 -16.14969034 13.74679551 -16.25 10.2890625 C-16.28996094 9.53882813 -16.32992187 8.78859375 -16.37109375 8.015625 C-14.36777078 -0.41794441 -7.08034363 -0.07106081 0 0 Z " fill="#060402" transform="translate(200.8125,172.3359375)"/>
<path d="M0 0 C1.04647705 -0.00478363 2.0929541 -0.00956726 3.17114258 -0.01449585 C5.38006089 -0.01789298 7.58902961 -0.00870375 9.79785156 0.01220703 C13.1762721 0.03897354 16.55137014 0.01245107 19.9296875 -0.01953125 C22.07813232 -0.01622712 24.22657508 -0.00982083 26.375 0 C27.38344971 -0.01012115 28.39189941 -0.02024231 29.4309082 -0.03067017 C36.46237075 0.08666583 36.46237075 0.08666583 40.30078125 3.14306641 C40.92339844 3.97499512 41.54601562 4.80692383 42.1875 5.6640625 C42.6825 6.1590625 42.6825 6.1590625 43.1875 6.6640625 C43.57434641 10.68726512 43.60402015 12.96986225 41.5 16.4765625 C36.4992762 21.2069769 31.24804818 20.97164789 24.72265625 20.96484375 C23.81172714 20.96912888 22.90079803 20.973414 21.96226501 20.97782898 C20.04003733 20.98355948 18.11778796 20.98408199 16.19555664 20.97973633 C13.26345637 20.976577 10.33236625 21.00004922 7.40039062 21.02539062 C5.5286471 21.0276639 3.65690088 21.02836698 1.78515625 21.02734375 C0.47708763 21.04115837 0.47708763 21.04115837 -0.85740662 21.05525208 C-5.90818728 21.01708512 -9.46724555 20.52882998 -13.8125 17.6640625 C-15.82721597 14.64198855 -16.14969034 13.74679551 -16.25 10.2890625 C-16.28996094 9.53882813 -16.32992187 8.78859375 -16.37109375 8.015625 C-14.36777078 -0.41794441 -7.08034363 -0.07106081 0 0 Z " fill="#060402" transform="translate(200.8125,132.3359375)"/>
<path d="M0 0 C3.06793411 1.56805521 4.51671819 2.88294072 5.890625 6.05859375 C7.16134512 10.43962302 7.34500539 12.30998921 5.25 16.5 C3.03765535 18.95816072 2.21050429 19.83352593 -0.98828125 20.2734375 C-5.35383805 20.46420133 -7.36374032 20.46393935 -11 17.8125 C-13.07916606 14.88867272 -14 13.56483292 -14 10 C-12.84718323 6.48087511 -11.74121936 3.82063572 -9.25 1.0625 C-5.95390952 -0.49398717 -3.59996843 -0.44210139 0 0 Z " fill="#010203" transform="translate(329,438)"/>
</svg>
