<?xml version="1.0" encoding="UTF-8"?>
<svg version="1.1" xmlns="http://www.w3.org/2000/svg" width="512" height="512">
<path d="M0 0 C1.03513229 -0.02190399 2.07026459 -0.04380798 3.13676453 -0.06637573 C6.547952 -0.12760784 9.95670488 -0.13657286 13.3684082 -0.13964844 C15.75105278 -0.15961671 18.13368766 -0.18077352 20.51631165 -0.20306396 C25.50883915 -0.24043242 30.50051342 -0.24944544 35.49316406 -0.24121094 C41.86891216 -0.23491871 48.23977046 -0.31999698 54.61444378 -0.42941666 C59.53655999 -0.50001274 64.45751043 -0.51074783 69.38007545 -0.50499725 C71.72877784 -0.51138104 74.07752461 -0.53854083 76.42572594 -0.58747101 C95.68260109 -0.94868614 95.68260109 -0.94868614 101.49185181 3.78625488 C104.13492998 6.39827405 106.30371704 9.22137051 108.34992409 12.31603336 C111.50683851 17.01596645 114.13508483 20.55287308 119.91918945 21.72363281 C120.96880859 21.94913818 122.01842773 22.17464355 123.09985352 22.40698242 C124.21585937 22.62362549 125.33186523 22.84026855 126.48168945 23.06347656 C128.83070153 23.56582948 131.17965915 24.06843712 133.52856445 24.57128906 C135.84604805 25.04894322 138.16374735 25.52555241 140.48168945 26.00097656 C160.59282604 30.1999342 178.39843033 35.35406391 190.41918945 53.56347656 C194.16621515 59.9459701 197.20319893 65.97174056 198.5871582 73.27832031 C198.75755615 74.16640381 198.9279541 75.0544873 199.10351562 75.96948242 C199.22831299 76.63987549 199.35311035 77.31026855 199.48168945 78.00097656 C200.32392059 77.99431473 201.16615173 77.98765289 202.03390503 77.98078918 C210.00690913 77.92044818 217.97983551 77.87488597 225.95301628 77.84554005 C230.05121552 77.82994535 234.14922461 77.80882178 238.24731445 77.7746582 C242.20901459 77.74184178 246.17053289 77.72407706 250.13235855 77.71634483 C251.63689151 77.71084101 253.14141556 77.70009435 254.64587021 77.68378639 C268.73582153 77.53725641 279.69549177 79.49311396 290.23168945 89.31347656 C298.14010569 97.58300769 298.96072961 106.76097323 298.74731445 117.73144531 C298.33164097 127.06168502 294.27988515 133.15817679 287.9074707 139.80175781 C278.22616824 148.57884845 267.36166742 149.31064994 254.7902832 149.19628906 C253.6044313 149.19345917 252.41857941 149.19062927 251.1967926 149.18771362 C247.43748561 149.17658651 243.67842352 149.15149554 239.91918945 149.12597656 C237.35864604 149.11593712 234.79809886 149.10681296 232.23754883 149.09863281 C225.98551321 149.07667164 219.73361884 149.0432689 213.48168945 149.00097656 C212.79638734 151.88785951 212.79638734 151.88785951 212.48168945 155.00097656 C214.60483743 157.46008978 214.60483743 157.46008978 217.48168945 160.00097656 C224.82949026 169.48143175 226.48758693 178.08697012 225.48168945 190.00097656 C223.78061487 198.76893148 219.136204 205.16333356 212.48168945 211.00097656 C211.10795131 211.90360705 209.71920387 212.78368436 208.31860352 213.64404297 C207.59964905 214.08745026 206.88069458 214.53085754 206.13995361 214.98770142 C205.59272644 215.32208221 205.04549927 215.65646301 204.48168945 216.00097656 C205.6356144 216.01310684 205.6356144 216.01310684 206.81285095 216.02548218 C214.09468243 216.10371537 221.37632175 216.1910904 228.65791988 216.28850365 C232.40065304 216.33825768 236.1433608 216.38458783 239.88623047 216.42285156 C243.50440218 216.45997051 247.12234985 216.50639889 250.74032784 216.55904007 C252.11443681 216.57744378 253.48859355 216.59260234 254.8627758 216.60432053 C268.02544233 216.72048796 278.63284236 217.93566326 288.7512207 227.04394531 C296.63438433 235.30737286 299.14771557 243.38399427 299.01855469 254.60253906 C298.54794972 265.03678784 294.71699485 272.99946607 287.02075195 280.09082031 C278.73241365 286.32620097 270.27111548 288.09460707 260.1184082 288.31738281 C259.32642532 288.33816391 258.53444244 288.35894501 257.71846008 288.38035583 C255.20212017 288.4454546 252.68568073 288.50455079 250.16918945 288.56347656 C248.45759085 288.60669957 246.7460021 288.65031504 245.03442383 288.69433594 C240.85027961 288.80109503 236.66603583 288.90247291 232.48168945 289.00097656 C233.08134521 289.38552002 233.68100098 289.77006348 234.29882812 290.16625977 C243.00962082 295.84391655 249.66086716 301.7804947 252.85668945 311.98144531 C255.12702698 322.9500135 253.73372013 332.87290391 248.0090332 342.46972656 C242.6673116 350.04663664 235.35184644 354.52277976 226.48168945 357.00097656 C223.65083706 357.17831932 220.92097687 357.26156391 218.09301758 357.24047852 C216.86257973 357.24349976 216.86257973 357.24349976 215.60728455 357.24658203 C213.8345422 357.25011469 212.06178722 357.24937635 210.28904724 357.24480629 C207.48075916 357.2391935 204.67288106 357.24840312 201.86462402 357.26200867 C193.88328149 357.29906042 185.90208052 357.31766537 177.9206543 357.30639648 C173.03113427 357.30054056 168.14219413 357.31882546 163.25279236 357.35228539 C161.39332195 357.36022956 159.53378818 357.35897574 157.67433167 357.34826088 C155.07236775 357.33390855 152.47222508 357.35022793 149.87036133 357.37329102 C148.72463905 357.35563942 148.72463905 357.35563942 147.55577087 357.33763123 C141.87701561 357.43612363 139.61824016 359.32936531 135.48168945 363.00097656 C130.62015701 364.72636889 126.34065201 365.25319411 121.20191956 365.26167297 C120.50329565 365.26549852 119.80467175 365.26932407 119.08487743 365.27326554 C116.76207309 365.28352026 114.43951942 365.27961788 112.11669922 365.27563477 C110.4439369 365.27998539 108.77117657 365.28516971 107.09841919 365.29112244 C102.56742677 365.30448532 98.0365179 365.30509417 93.50550961 365.30255914 C89.71826539 365.30148768 85.93103796 365.30637722 82.14379734 365.31116456 C73.20718019 365.32225017 64.27060507 365.32270234 55.33398438 365.31665039 C46.12435026 365.31060934 36.91486887 365.32292712 27.70526081 365.34422046 C19.78827746 365.36184996 11.87134266 365.36783573 3.9543404 365.36458272 C-0.76979004 365.36277202 -5.49381151 365.36538483 -10.21792412 365.37929726 C-14.66098183 365.39189309 -19.10380177 365.38991493 -23.54685593 365.37688637 C-25.1737978 365.37452494 -26.8007565 365.37723971 -28.42767906 365.38550949 C-46.66534261 365.47150136 -46.66534261 365.47150136 -52.91229248 359.84461975 C-56.85321277 357.05659194 -60.4992417 357.45232531 -65.21459961 357.50268555 C-66.18598373 357.49716675 -67.15736786 357.49164795 -68.15818787 357.48596191 C-70.26432526 357.47664727 -72.37051898 357.4765323 -74.47666168 357.4845562 C-77.81510996 357.49718827 -81.15273162 357.4858925 -84.4911499 357.46852112 C-90.37974912 357.44180091 -96.26814603 357.43622583 -102.15679932 357.43762207 C-111.56755774 357.43984868 -120.97806466 357.42562558 -130.38872528 357.38203621 C-133.66856695 357.37222841 -136.94801097 357.38090149 -140.22784424 357.39073181 C-142.25337988 357.38458368 -144.27891339 357.37767064 -146.30444336 357.36987305 C-147.20865524 357.37759232 -148.11286713 357.38531158 -149.04447937 357.39326477 C-159.30123227 357.31219805 -167.15581933 354.18912828 -174.51831055 347.00097656 C-182.64665587 337.21599706 -184.37533375 328.44448558 -183.70922852 316.00683594 C-182.93272443 307.84857817 -178.22616421 300.67627593 -172.51831055 295.00097656 C-164.24942958 288.79266882 -156.44665103 286.7303332 -146.3034668 286.58691406 C-145.01985512 286.55786484 -145.01985512 286.55786484 -143.71031189 286.52822876 C-141.00057672 286.46886742 -138.29079805 286.42222291 -135.58081055 286.37597656 C-133.73378771 286.33775671 -131.88678193 286.2987027 -130.03979492 286.25878906 C-125.53277346 286.16320209 -121.02566867 286.07901232 -116.51831055 286.00097656 C-117.53368896 285.41872314 -117.53368896 285.41872314 -118.56958008 284.82470703 C-119.46273926 284.30279785 -120.35589844 283.78088867 -121.27612305 283.24316406 C-122.15929199 282.73124512 -123.04246094 282.21932617 -123.95239258 281.69189453 C-130.90614311 277.10943247 -135.54477961 270.06726628 -138.1003418 262.21191406 C-140.09964217 251.63617565 -138.75468553 241.98222173 -133.19799805 232.82519531 C-128.6319955 226.20074899 -122.97331017 221.90137864 -115.51831055 219.00097656 C-116.36054169 218.99733093 -117.20277283 218.9936853 -118.07052612 218.9899292 C-126.04379289 218.95191681 -134.01665611 218.894915 -141.98963737 218.81707382 C-146.08775203 218.77772 -150.18565571 218.74547278 -154.28393555 218.72998047 C-158.24589703 218.71473341 -162.20727802 218.68014772 -166.16897964 218.63266754 C-167.67343193 218.61793606 -169.17796713 218.60994032 -170.6824913 218.60909271 C-183.13448085 218.59503435 -193.17070789 216.72540571 -202.51831055 208.00097656 C-209.28669265 200.60333445 -212.08975231 193.03682258 -211.95581055 183.06347656 C-211.9482373 182.27150879 -211.94066406 181.47954102 -211.93286133 180.66357422 C-211.76416639 174.68783313 -210.88373636 170.04387319 -207.51831055 165.00097656 C-206.8821582 163.96263672 -206.8821582 163.96263672 -206.2331543 162.90332031 C-201.10676504 155.26371515 -193.39907004 150.31711673 -184.51831055 148.00097656 C-180.10255471 147.54423396 -175.70511232 147.51277541 -171.26831055 147.48925781 C-170.01445557 147.47130661 -168.76060059 147.45335541 -167.46875 147.43486023 C-164.16115194 147.39006576 -160.85374669 147.35766125 -157.54595947 147.3314209 C-154.16030709 147.30145847 -150.77488398 147.25498277 -147.3894043 147.20996094 C-140.76581292 147.12519498 -134.14220587 147.05677922 -127.51831055 147.00097656 C-127.65712646 145.72593262 -127.79594238 144.45088867 -127.93896484 143.13720703 C-128.0170488 142.41999481 -128.09513275 141.70278259 -128.17558289 140.96383667 C-128.62274066 138.40288738 -129.59269841 137.03569977 -131.33081055 135.12597656 C-138.46439589 126.23907627 -139.70706915 117.2456625 -138.51831055 106.00097656 C-136.00910714 95.52716682 -129.48267506 87.69897344 -120.51831055 82.00097656 C-119.18910361 81.32612017 -117.85626934 80.65831095 -116.51831055 80.00097656 C-117.33326492 79.99733093 -118.1482193 79.9936853 -118.98786926 79.9899292 C-126.71068021 79.95188431 -134.43301749 79.89484694 -142.15552235 79.81707382 C-146.12469319 79.77775421 -150.09364733 79.74549052 -154.06298828 79.72998047 C-157.9017689 79.71471046 -161.73995314 79.68008556 -165.57846642 79.63266754 C-167.03464223 79.61795932 -168.49090324 79.60994169 -169.94715309 79.60909271 C-181.95667785 79.59506456 -192.04779018 77.9451602 -201.51049805 70.05957031 C-209.52455986 61.84281822 -211.92905761 52.49260298 -211.8840332 41.40356445 C-211.74517774 35.50220731 -210.79087168 31.00185904 -207.51831055 26.00097656 C-207.10581055 25.3190625 -206.69331055 24.63714844 -206.26831055 23.93457031 C-200.99946008 16.04626293 -193.65948178 11.23599964 -184.51831055 9.00097656 C-181.06842804 8.75881672 -181.06842804 8.75881672 -177.38366699 8.76960754 C-176.70067173 8.7687541 -176.01767648 8.76790066 -175.31398439 8.76702136 C-173.04408606 8.76641141 -170.77449449 8.77987902 -168.50463867 8.79321289 C-166.86966549 8.79537603 -165.23469077 8.79656097 -163.59971619 8.79684448 C-160.08792596 8.79889484 -156.57620893 8.80657463 -153.06443787 8.81827736 C-147.50869989 8.83547159 -141.9530916 8.83217673 -136.39733887 8.82463074 C-120.60214194 8.80546708 -104.80711462 8.79880695 -89.01196289 8.84643555 C-80.28143344 8.87259376 -71.55127378 8.87390366 -62.82074118 8.84728831 C-58.20426516 8.83430277 -53.58859144 8.83431673 -48.97218323 8.86515236 C-44.63139407 8.89409207 -40.29183494 8.89063531 -35.95105171 8.86254501 C-34.36076677 8.85805361 -32.77039542 8.86548016 -31.18023491 8.88587379 C-22.83049219 9.32101369 -22.83049219 9.32101369 -15.34794903 6.42072487 C-14.25447217 5.17202022 -13.18996515 3.89717908 -12.16018486 2.59544659 C-8.85794729 -0.61144859 -4.35861985 -0.02140521 0 0 Z " fill="#020203" transform="translate(212.518310546875,72.9990234375)"/>
<path d="M0 0 C2.04296875 1.99609375 2.04296875 1.99609375 4.1875 4.4375 C4.97511719 5.33339844 5.76273437 6.22929688 6.57421875 7.15234375 C8.92028595 9.90642263 11.21909637 12.69181217 13.5 15.5 C16.5173495 19.20717984 19.55463156 22.88959215 22.6875 26.5 C23.71423828 27.69109375 23.71423828 27.69109375 24.76171875 28.90625 C28.80878786 32.69199004 32.84571331 34.43514033 38.375 34.5 C45.99058065 34.21377683 49.89391475 30.84848173 55.46484375 25.99609375 C56.08705811 25.45500977 56.70927246 24.91392578 57.3503418 24.35644531 C58.60389521 23.25513557 59.84660804 22.14134659 61.07739258 21.01464844 C61.65513428 20.49805664 62.23287598 19.98146484 62.828125 19.44921875 C63.3427832 18.97830811 63.85744141 18.50739746 64.38769531 18.0222168 C66 17 66 17 70 17 C72.07714733 18.67285067 73.9244046 20.32351555 75.8125 22.1875 C76.87763394 23.20192871 77.94532492 24.21367971 79.015625 25.22265625 C79.52802734 25.70621582 80.04042969 26.18977539 80.56835938 26.68798828 C86.19586786 31.84525816 91.01031329 34.32655386 98.65625 34.21484375 C110.54507978 33.12503435 120.3931342 18.53134064 127.67578125 9.84765625 C130.86664928 5.95699065 134.00316319 2.04246211 137 -2 C184.13341489 4.47075734 184.13341489 4.47075734 199 17 C199.94939453 17.78310547 199.94939453 17.78310547 200.91796875 18.58203125 C216.00884433 32.2737528 218.24024076 54.57648787 222.39868164 73.4440918 C223.89339553 80.21272264 225.47123034 86.9409168 227.27172852 93.63623047 C232.47402056 113.08330236 232.47402056 113.08330236 228.4375 122.4375 C223.90820513 129.65819451 217.20821819 133.21393861 209.55859375 136.453125 C208.67269058 136.83942078 207.78678741 137.22571655 206.8740387 137.62371826 C204.06673337 138.84411505 201.25227334 140.04694449 198.4375 141.25 C196.54445322 142.07183799 194.65187025 142.89474522 192.75976562 143.71875 C189.28704922 145.2239133 185.81426398 146.72878989 182.33374023 148.21582031 C181.63981674 148.51304993 180.94589325 148.81027954 180.23094177 149.11651611 C177.52803586 150.18690434 174.75795 151.08068333 172 152 C171.67 126.26 171.34 100.52 171 74 C169.68 73.67 168.36 73.34 167 73 C165.07921906 74.92078094 165.87266317 77.7904674 165.86339396 80.34715897 C165.86601952 81.72950923 165.86601952 81.72950923 165.86869812 83.13978577 C165.86658241 84.11096468 165.86446669 85.08214359 165.86228687 86.08275217 C165.85625611 89.36385432 165.85728921 92.64491834 165.8581543 95.92602539 C165.85512477 98.26784328 165.85160389 100.60966058 165.84762573 102.95147705 C165.83971935 108.00866322 165.83458524 113.06584227 165.83133507 118.12303352 C165.82543884 126.11910647 165.80895076 134.11514076 165.78999329 142.1111908 C165.78363587 144.84587567 165.77732749 147.58056065 165.77101612 150.31524563 C165.76943236 150.99877331 165.7678486 151.68230099 165.76621684 152.38654162 C165.74826727 160.17362558 165.73204858 167.96071257 165.71704102 175.74780273 C165.71566514 176.45989568 165.71428927 177.17198863 165.71287171 177.90566014 C165.69096386 189.43323993 165.6801915 200.96080874 165.67267027 212.48840565 C165.66459352 224.32201504 165.64128243 236.1555304 165.6047166 247.98908609 C165.58468106 254.63372147 165.57255736 261.27822867 165.57755089 267.92289925 C165.58219294 274.17655365 165.56841553 280.42989553 165.54053879 286.68348694 C165.53361879 288.97801119 165.53350909 291.27256769 165.54073906 293.56709099 C165.54961922 296.70220894 165.53394585 299.83629455 165.51225281 302.97132874 C165.52069534 303.87728053 165.52913788 304.78323232 165.53783625 305.71663719 C165.4542702 312.25819634 164.11279565 317.85858921 159.38502133 322.62982476 C153.07602159 327.84492757 144.30832437 326.69163615 136.59741211 326.63110352 C134.93272643 326.63624699 133.2680462 326.64353149 131.6033783 326.65278625 C127.09918704 326.67125271 122.59559004 326.65839251 118.09142375 326.63869596 C113.37015171 326.62227145 108.64891618 326.63112751 103.92762756 326.63621521 C96.00137881 326.64073148 88.0753664 326.6248942 80.14916992 326.59692383 C70.99338629 326.56486298 61.83802859 326.56489347 52.68221468 326.5821386 C43.8626135 326.59801655 35.04316807 326.59126268 26.22357368 326.57420158 C22.47530519 326.56734006 18.72716188 326.56835427 14.97889519 326.57574654 C10.56362562 326.5834225 6.14883934 326.57124067 1.73365211 326.54389763 C0.11598011 326.53702685 -1.50173714 326.5369018 -3.11940765 326.54411316 C-5.33287091 326.5528416 -7.54485406 326.53679749 -9.75819397 326.5146637 C-10.99498933 326.51185678 -12.23178469 326.50904985 -13.50605869 326.50615788 C-18.89665343 325.72523692 -22.59021408 323.48398518 -26.375 319.5 C-28.68192804 315.95087994 -29.12332486 312.95659459 -29.1386652 308.77525711 C-29.14413964 307.93476137 -29.14961409 307.09426564 -29.15525442 306.22830033 C-29.15623253 305.31001506 -29.15721064 304.39172978 -29.15821838 303.44561768 C-29.16315636 302.46623096 -29.16809434 301.48684425 -29.17318195 300.47777915 C-29.18857246 297.18733627 -29.19692181 293.89691292 -29.20532227 290.60644531 C-29.21489956 288.25120369 -29.22490956 285.89596379 -29.23532104 283.54072571 C-29.26239221 277.13828521 -29.28338982 270.73583733 -29.30332303 264.33337116 C-29.32248844 258.32282402 -29.34710865 252.31229755 -29.37124526 246.30176875 C-29.41890535 234.39666712 -29.46217383 222.49155373 -29.50268555 210.58642578 C-29.54204852 199.02163783 -29.58347667 187.45686033 -29.62768555 175.89208984 C-29.63040982 175.17924879 -29.63313409 174.46640775 -29.63594092 173.73196545 C-29.64962053 170.15585483 -29.66334077 166.57974437 -29.67708123 163.00363398 C-29.79102115 133.33577795 -29.89776292 103.66789872 -30 74 C-31.94603274 73.40929986 -31.94603274 73.40929986 -34 73 C-35.9409151 74.9409151 -35.18430516 78.62343017 -35.20532227 81.27368164 C-35.21522186 82.03460617 -35.22512146 82.7955307 -35.23532104 83.57951355 C-35.26702624 86.1063623 -35.2917289 88.63322988 -35.31640625 91.16015625 C-35.33696801 92.90751141 -35.35796426 94.65486151 -35.37937927 96.40220642 C-35.43468041 101.01026318 -35.48405408 105.61836541 -35.53222656 110.22650146 C-35.58238303 114.92513089 -35.63809958 119.62369394 -35.69335938 124.32226562 C-35.80103924 133.54812044 -35.90246223 142.77403278 -36 152 C-39.51800015 150.85683491 -42.95770301 149.66001516 -46.34960938 148.18408203 C-47.15064087 147.83677032 -47.95167236 147.48945862 -48.77697754 147.13162231 C-49.62401245 146.76076508 -50.47104736 146.38990784 -51.34375 146.0078125 C-52.67472717 145.42699417 -52.67472717 145.42699417 -54.03259277 144.83444214 C-55.90239247 144.01718074 -57.77156229 143.19847693 -59.64013672 142.37841797 C-62.48793673 141.13028708 -65.33954081 139.891152 -68.19140625 138.65234375 C-70.01326155 137.85471626 -71.83488404 137.05655676 -73.65625 136.2578125 C-74.50328491 135.89100372 -75.35031982 135.52419495 -76.22302246 135.14627075 C-84.658348 131.42248919 -89.73622897 128.03797641 -94.25 119.6875 C-96.90866605 110.16061334 -93.37607046 100.59670938 -90.9375 91.375 C-90.10310311 88.15915306 -89.27713505 84.9411787 -88.453125 81.72265625 C-88.14069099 80.50672035 -88.14069099 80.50672035 -87.82194519 79.26622009 C-86.4489649 73.88285891 -85.17520681 68.48504338 -83.984375 63.05859375 C-83.82969254 62.35534973 -83.67501007 61.65210571 -83.51564026 60.92755127 C-82.79111502 57.61705396 -82.08082486 54.3043903 -81.38452148 50.98779297 C-78.06620538 35.68256687 -71.48549552 22.74447387 -58.64648438 13.26171875 C-49.3804438 7.38173676 -39.74447774 5.36688975 -29.125 3.125 C-27.35115256 2.73362422 -25.57771058 2.34040604 -23.8046875 1.9453125 C-3.56113536 -2.52892221 -3.56113536 -2.52892221 0 0 Z " fill="#465CA8" transform="translate(188,104)"/>
<path d="M0 0 C8.00849351 1.04476537 15.82474946 2.54173066 23.6875 4.375 C24.55334717 4.57182373 25.41919434 4.76864746 26.3112793 4.97143555 C41.01509038 8.47977686 51.81065798 14.8038806 61 27 C66.08949955 35.47232133 68.71375024 44.25313508 70.9375 53.8125 C71.27115981 55.19776478 71.60589812 56.58277019 71.94165039 57.9675293 C74.69389545 69.39439481 77.29069252 80.86118437 79.82983398 92.3371582 C80.10126221 93.56265381 80.37269043 94.78814941 80.65234375 96.05078125 C81.00800415 97.66980347 81.00800415 97.66980347 81.37084961 99.3215332 C81.9755091 102.0780527 81.9755091 102.0780527 83 105 C83.65267227 112.82136772 83.7589478 119.53065187 79 126 C74.2276762 130.99305878 68.85223599 133.78812093 62.55859375 136.453125 C61.67269058 136.83942078 60.78678741 137.22571655 59.8740387 137.62371826 C57.06673337 138.84411505 54.25227334 140.04694449 51.4375 141.25 C49.54445322 142.07183799 47.65187025 142.89474522 45.75976562 143.71875 C42.28704922 145.2239133 38.81426398 146.72878989 35.33374023 148.21582031 C34.63981674 148.51304993 33.94589325 148.81027954 33.23094177 149.11651611 C30.52803586 150.18690434 27.75795 151.08068333 25 152 C24.67 126.26 24.34 100.52 24 74 C22.68 73.67 21.36 73.34 20 73 C18.07921906 74.92078094 18.87266317 77.7904674 18.86339396 80.34715897 C18.86601952 81.72950923 18.86601952 81.72950923 18.86869812 83.13978577 C18.86658241 84.11096468 18.86446669 85.08214359 18.86228687 86.08275217 C18.85625611 89.36385432 18.85728921 92.64491834 18.8581543 95.92602539 C18.85512477 98.26784328 18.85160389 100.60966058 18.84762573 102.95147705 C18.83971935 108.00866322 18.83458524 113.06584227 18.83133507 118.12303352 C18.82543884 126.11910647 18.80895076 134.11514076 18.78999329 142.1111908 C18.78363587 144.84587567 18.77732749 147.58056065 18.77101612 150.31524563 C18.76943236 150.99877331 18.7678486 151.68230099 18.76621684 152.38654162 C18.74826727 160.17362558 18.73204858 167.96071257 18.71704102 175.74780273 C18.71566514 176.45989568 18.71428927 177.17198863 18.71287171 177.90566014 C18.69096386 189.43323993 18.6801915 200.96080874 18.67267027 212.48840565 C18.66459352 224.32201504 18.64128243 236.1555304 18.6047166 247.98908609 C18.58468106 254.63372147 18.57255736 261.27822867 18.57755089 267.92289925 C18.58219294 274.17655365 18.56841553 280.42989553 18.54053879 286.68348694 C18.53361879 288.97801119 18.53350909 291.27256769 18.54073906 293.56709099 C18.54961922 296.70220894 18.53394585 299.83629455 18.51225281 302.97132874 C18.52491661 304.33025642 18.52491661 304.33025642 18.53783625 305.71663719 C18.4542702 312.25819634 17.11279565 317.85858921 12.38502133 322.62982476 C6.07602159 327.84492757 -2.69167563 326.69163615 -10.40258789 326.63110352 C-12.06727357 326.63624699 -13.7319538 326.64353149 -15.3966217 326.65278625 C-19.90081296 326.67125271 -24.40440996 326.65839251 -28.90857625 326.63869596 C-33.62984829 326.62227145 -38.35108382 326.63112751 -43.07237244 326.63621521 C-50.99862119 326.64073148 -58.9246336 326.6248942 -66.85083008 326.59692383 C-76.00661371 326.56486298 -85.16197141 326.56489347 -94.31778532 326.5821386 C-103.1373865 326.59801655 -111.95683193 326.59126268 -120.77642632 326.57420158 C-124.52469481 326.56734006 -128.27283812 326.56835427 -132.02110481 326.57574654 C-136.43637438 326.5834225 -140.85116066 326.57124067 -145.26634789 326.54389763 C-146.88401989 326.53702685 -148.50173714 326.5369018 -150.11940765 326.54411316 C-152.33287091 326.5528416 -154.54485406 326.53679749 -156.75819397 326.5146637 C-157.99498933 326.51185678 -159.23178469 326.50904985 -160.50605869 326.50615788 C-165.89665343 325.72523692 -169.59021408 323.48398518 -173.375 319.5 C-175.6809193 315.95243185 -176.12524775 312.97072577 -176.12304783 308.79087448 C-176.12503888 307.95386214 -176.12702993 307.1168498 -176.12908131 306.25447345 C-176.12616847 305.34007912 -176.12325563 304.42568479 -176.12025452 303.48358154 C-176.12110894 302.50827838 -176.12196337 301.53297522 -176.12284368 300.52811742 C-176.12449424 297.25147381 -176.11898399 293.9748811 -176.11352539 290.69824219 C-176.1132434 288.35285442 -176.11340148 286.00746657 -176.1139679 283.66207886 C-176.11425541 277.2864783 -176.10836602 270.91089646 -176.10139394 264.53530025 C-176.09578487 258.5499582 -176.09477134 252.56461613 -176.09374207 246.57927194 C-176.0915534 234.72406838 -176.08489833 222.8688717 -176.07543945 211.01367188 C-176.06626055 199.49739618 -176.05918205 187.98112236 -176.05493164 176.46484375 C-176.05453756 175.40006267 -176.05453756 175.40006267 -176.05413551 174.31377086 C-176.05283047 170.75264445 -176.05156676 167.19151803 -176.05032361 163.6303916 C-176.03995676 134.08692329 -176.02226914 104.54346177 -176 75 C-175.67 75 -175.34 75 -175 75 C-175 140.01 -175 205.02 -175 272 C-144.69036962 262.67395988 -116.44679386 252.05743584 -91 233 C-90.40960938 232.56365234 -89.81921875 232.12730469 -89.2109375 231.67773438 C-70.42110831 217.70952435 -53.67758691 201.00831041 -40 182 C-39.60103516 181.44683105 -39.20207031 180.89366211 -38.79101562 180.32373047 C-14.03211234 145.56757276 3.0037556 101.76480598 3.203125 58.7109375 C3.20882507 57.73121979 3.21452515 56.75150208 3.22039795 55.74209595 C3.2298092 53.66954614 3.23636644 51.59698163 3.24023438 49.52441406 C3.24982122 46.43265626 3.28083189 43.34159883 3.3125 40.25 C3.38285016 26.6012509 2.23809505 13.46304514 0 0 Z " fill="#3E5194" transform="translate(335,104)"/>
<path d="M0 0 C1.27605103 0.00424484 2.55210205 0.00848969 3.86682129 0.01286316 C7.23386894 0.02674941 10.60028876 0.0536288 13.96716309 0.0869751 C17.41294983 0.1178484 20.85880185 0.13140508 24.3046875 0.14648438 C31.04704626 0.17946972 37.78911194 0.22960675 44.53125 0.29296875 C44.7880957 0.9669873 45.04494141 1.64100586 45.30957031 2.33544922 C45.65600586 3.22635254 46.00244141 4.11725586 46.359375 5.03515625 C46.6987207 5.9154248 47.03806641 6.79569336 47.38769531 7.70263672 C54.94074131 24.81147917 81.92281217 30.90773762 98.00952148 37.77246094 C100.76453662 38.96193991 103.50994074 40.16780311 106.25135803 41.38800049 C107.05489244 41.74553028 107.85842684 42.10306007 108.68631077 42.4714241 C109.29514071 42.74253384 109.90397066 43.01364357 110.53125 43.29296875 C110.53271656 44.08773306 110.53418312 44.88249737 110.53569412 45.70134544 C110.57279295 65.0658276 110.63184844 84.43012982 110.71515274 103.79446983 C110.75491262 113.1590439 110.78732059 122.5235343 110.80224609 131.88818359 C110.81527845 140.05319938 110.84228346 148.21803084 110.88586307 156.3829428 C110.90844234 160.70371754 110.92416281 165.02426524 110.92313385 169.34510422 C110.92238514 173.41803539 110.94041994 177.49046535 110.97241783 181.56326675 C110.98088627 183.05227113 110.98268765 184.54133193 110.97705269 186.03034973 C110.94927688 194.50330501 111.55195751 201.64813142 115.53125 209.29296875 C102.51795642 209.36258163 89.50470739 209.41583744 76.4912653 209.44840527 C70.44812998 209.46403881 64.40512237 209.48523507 58.36206055 209.51928711 C52.52653694 209.55196267 46.69113593 209.56983915 40.85552788 209.57760048 C38.63286854 209.58312925 36.41021565 209.59392555 34.18760872 209.61015892 C31.06641437 209.63204185 27.94572201 209.6349311 24.82446289 209.63354492 C23.45636223 209.64972366 23.45636223 209.64972366 22.06062317 209.66622925 C11.77453285 209.61702989 3.91467012 206.50155378 -3.46875 199.29296875 C-11.59709532 189.50798924 -13.32577321 180.73647777 -12.65966797 168.29882812 C-11.88316388 160.14057036 -7.17660367 152.96826812 -1.46875 147.29296875 C6.80013097 141.08466101 14.60290952 139.02232539 24.74609375 138.87890625 C26.02970543 138.84985703 26.02970543 138.84985703 27.33924866 138.82022095 C30.04898383 138.76085961 32.7587625 138.71421509 35.46875 138.66796875 C37.31577284 138.6297489 39.16277861 138.59069488 41.00976562 138.55078125 C45.51678709 138.45519427 50.02389188 138.37100451 54.53125 138.29296875 C53.85433105 137.9047998 53.17741211 137.51663086 52.47998047 137.11669922 C51.58682129 136.59479004 50.69366211 136.07288086 49.7734375 135.53515625 C48.89026855 135.0232373 48.00709961 134.51131836 47.09716797 133.98388672 C40.14341743 129.40142466 35.50478093 122.35925847 32.94921875 114.50390625 C30.94991838 103.92816783 32.29487501 94.27421392 37.8515625 85.1171875 C42.41756505 78.49274118 48.07625037 74.19337083 55.53125 71.29296875 C54.68901886 71.28932312 53.84678772 71.28567749 52.97903442 71.28192139 C45.00576766 71.243909 37.03290443 71.18690719 29.05992317 71.10906601 C24.96180852 71.06971219 20.86390484 71.03746496 16.765625 71.02197266 C12.80366352 71.0067256 8.84228253 70.97213991 4.8805809 70.92465973 C3.37612862 70.90992824 1.87159341 70.90193251 0.36706924 70.9010849 C-12.0849203 70.88702654 -22.12114734 69.0173979 -31.46875 60.29296875 C-38.2371321 52.89532664 -41.04019176 45.32881476 -40.90625 35.35546875 C-40.89867676 34.56350098 -40.89110352 33.7715332 -40.88330078 32.95556641 C-40.71460584 26.97982532 -39.83417581 22.33586537 -36.46875 17.29296875 C-36.04464844 16.60074219 -35.62054688 15.90851563 -35.18359375 15.1953125 C-26.73396193 2.60324279 -14.28704209 -0.18023505 0 0 Z " fill="#D4E4F1" transform="translate(41.46875,220.70703125)"/>
<path d="M0 0 C6.36575188 2.0016024 8.74668496 6.44928225 12 12 C16.48345022 20.73092937 16.41938879 31.49787393 13.5625 40.75 C10.36445104 48.41175688 4.86051136 54.328622 -2.16308594 58.64306641 C-2.88204041 59.08647369 -3.60099487 59.52988098 -4.34173584 59.98672485 C-5.1625766 60.48829605 -5.1625766 60.48829605 -6 61 C-4.84607506 61.01213028 -4.84607506 61.01213028 -3.6688385 61.02450562 C3.61299298 61.10273881 10.8946323 61.19011384 18.17623043 61.28752708 C21.91896359 61.33728112 25.66167135 61.38361127 29.40454102 61.421875 C33.02271273 61.45899395 36.6406604 61.50542233 40.25863838 61.55806351 C41.63274736 61.57646722 43.0069041 61.59162578 44.38108635 61.60334396 C57.54375287 61.7195114 68.15115291 62.9346867 78.26953125 72.04296875 C86.15269488 80.3063963 88.66602611 88.38301771 88.53686523 99.6015625 C88.06626026 110.03581128 84.2353054 117.99848951 76.5390625 125.08984375 C68.2507242 131.32522441 59.78942602 133.09363051 49.63671875 133.31640625 C48.84473587 133.33718735 48.05275299 133.35796844 47.23677063 133.37937927 C44.72043072 133.44447804 42.20399128 133.50357423 39.6875 133.5625 C37.97590139 133.605723 36.26431265 133.64933848 34.55273438 133.69335938 C30.36859016 133.80011847 26.18434638 133.90149635 22 134 C22.59965576 134.38454346 23.19931152 134.76908691 23.81713867 135.1652832 C32.52793137 140.84293999 39.17917771 146.77951814 42.375 156.98046875 C44.64533753 167.94903693 43.25203068 177.87192735 37.52734375 187.46875 C32.18641765 195.04453171 24.86992434 199.52407578 16 202 C13.16706853 202.17423527 10.43752095 202.2536861 7.60791016 202.22705078 C6.78773407 202.22734283 5.96755798 202.22763489 5.12252808 202.22793579 C2.42792966 202.22654919 -0.26638774 202.21101971 -2.9609375 202.1953125 C-4.83566131 202.19157999 -6.71038707 202.18873414 -8.58511353 202.18673706 C-13.50719639 202.17911939 -18.42916027 202.15948695 -23.35119629 202.1373291 C-28.37864574 202.11683044 -33.40611451 202.10772675 -38.43359375 202.09765625 C-48.28911463 202.07623927 -58.1445474 202.04212589 -68 202 C-66 197 -66 197 -64.94709206 194.73194599 C-63.82854337 191.50542269 -63.73800829 188.89071752 -63.7215271 185.47636414 C-63.71036362 184.15688278 -63.69920013 182.83740143 -63.68769836 181.47793579 C-63.6853336 180.02264433 -63.68315792 178.56735255 -63.68115234 177.11206055 C-63.6718508 175.57439142 -63.66168179 174.03672734 -63.65071106 172.49906921 C-63.62342244 168.33008745 -63.60826503 164.16113946 -63.59528303 159.99209189 C-63.57964753 155.63318241 -63.55285863 151.27434183 -63.5272522 146.91548157 C-63.48047186 138.66375363 -63.44372414 130.41201271 -63.41057932 122.16021997 C-63.37235269 112.76483511 -63.32294393 103.36951948 -63.27259517 93.97419298 C-63.16928639 74.64951265 -63.08002254 55.32479007 -63 36 C-59.10655443 34.24626472 -55.21221275 32.49453792 -51.31710815 30.74449158 C-49.99831074 30.15164971 -48.67973944 29.55830453 -47.36141968 28.96440125 C-37.70118041 24.61303543 -27.99571655 20.39357644 -18.19877625 16.35675049 C-9.58923869 12.7789544 -4.17854753 8.35709506 0 0 Z " fill="#D3E4F1" transform="translate(423,228)"/>
<path d="M0 0 C0.68793422 -0.00170885 1.37586844 -0.0034177 2.08464915 -0.00517833 C4.37087768 -0.00845104 6.65680731 0.00249339 8.94300842 0.01345825 C10.58934014 0.01402285 12.23567236 0.01370486 13.88200378 0.01257324 C18.33810314 0.01200062 22.7940943 0.02374036 27.25016856 0.03772116 C31.91198217 0.05024351 36.57379839 0.0514002 41.23562622 0.05377197 C50.05753441 0.05998232 58.8793929 0.07638711 67.70127922 0.09647095 C77.74719265 0.11884382 87.79310849 0.12982687 97.83904064 0.13986182 C118.49880566 0.16075372 139.15852598 0.19592105 159.81825256 0.24050903 C158.33428166 3.3143628 156.73388508 5.76684451 154.50575256 8.36550903 C153.93211975 9.04871216 153.35848694 9.73191528 152.76747131 10.43582153 C149.09405778 13.83685771 144.49183433 14.63746458 139.69715881 15.64285278 C138.51315491 15.89357544 137.329151 16.1442981 136.10926819 16.40261841 C134.26365295 16.78643677 134.26365295 16.78643677 132.38075256 17.17800903 C131.18514709 17.43002075 129.98954163 17.68203247 128.75770569 17.94168091 C127.56210022 18.19369263 126.36649475 18.44570435 125.13465881 18.70535278 C123.9319635 18.95913696 122.72926819 19.21292114 121.49012756 19.47439575 C119.00802996 19.99226957 116.52354594 20.49881504 114.03700256 20.99490356 C98.33735791 24.18935671 84.48733444 31.04656669 75.40028381 44.70925903 C68.99672967 55.14285463 66.43418679 66.41215591 63.50575256 78.17800903 C63.20378967 79.38642456 62.90182678 80.59484009 62.5907135 81.83987427 C60.18564502 91.55647685 57.96608571 101.30821656 55.86000061 111.09378052 C54.39116483 117.8756502 52.71523485 124.56548191 50.81825256 131.24050903 C46.70602673 128.33817277 44.70511601 125.71603219 42.56825256 121.17800903 C41.81801819 119.61373169 41.81801819 119.61373169 41.05262756 118.01785278 C37.53038624 110.09280981 37.38097236 99.96061853 40.44325256 91.80300903 C44.94411975 82.31341843 51.41248574 75.8615288 60.81825256 71.24050903 C60.00329819 71.2368634 59.18834381 71.23321777 58.34869385 71.22946167 C50.62588291 71.19141678 42.90354562 71.13437941 35.18104076 71.05660629 C31.21186992 71.01728668 27.24291578 70.98502299 23.27357483 70.96951294 C19.43479421 70.95424294 15.59660997 70.91961803 11.75809669 70.87220001 C10.30192088 70.85749179 8.84565987 70.84947416 7.38941002 70.84862518 C-4.62011474 70.83459703 -14.71122707 69.18469267 -24.17393494 61.29910278 C-32.18799675 53.08235069 -34.5924945 43.73213545 -34.54747009 32.64309692 C-34.40861463 26.74173978 -33.45430857 22.24139152 -30.18174744 17.24050903 C-29.76924744 16.55859497 -29.35674744 15.87668091 -28.93174744 15.17410278 C-22.11509004 4.96848219 -12.16391207 -0.01830536 0 0 Z " fill="#EBF1F7" transform="translate(35.18174743652344,81.75949096679688)"/>
<path d="M0 0 C8.82373549 -0.06979351 17.6473746 -0.12295926 26.47132683 -0.15543652 C30.56952606 -0.17103121 34.66753516 -0.19215479 38.765625 -0.22631836 C42.72732513 -0.25913478 46.68884343 -0.2768995 50.6506691 -0.28463173 C52.15520206 -0.29013556 53.65972611 -0.30088221 55.16418076 -0.31719017 C69.25413208 -0.46372015 80.21380231 1.4921374 90.75 11.3125 C98.65841623 19.58203113 99.47904016 28.75999667 99.265625 39.73046875 C98.84995151 49.06070846 94.7981957 55.15720023 88.42578125 61.80078125 C78.74447879 70.57787189 67.87997797 71.30967338 55.30859375 71.1953125 C54.12274185 71.1924826 52.93688995 71.18965271 51.71510315 71.18673706 C47.95579616 71.17560994 44.19673407 71.15051898 40.4375 71.125 C37.87695658 71.11496056 35.31640941 71.1058364 32.75585938 71.09765625 C26.50382376 71.07569508 20.25192939 71.04229234 14 71 C13.89405518 70.09266113 13.78811035 69.18532227 13.67895508 68.25048828 C12.52926198 58.98038135 10.81864665 49.9778674 8.6875 40.875 C8.3769503 39.5244642 8.06698072 38.17379487 7.75756836 36.82299805 C6.34921923 30.69539326 4.90462375 24.57678924 3.4296875 18.46484375 C3.19677002 17.49885254 2.96385254 16.53286133 2.72387695 15.53759766 C2.29529291 13.77168584 1.86183882 12.00694602 1.42260742 10.24365234 C0.55485588 6.69821483 0 3.67250679 0 0 Z " fill="#E3EDF5" transform="translate(412,151)"/>
<path d="M0 0 C4.08332902 1.55466197 6.08208993 4.25087844 8.75 7.625 C9.54921875 8.62789062 10.3484375 9.63078125 11.171875 10.6640625 C11.77515625 11.43492188 12.3784375 12.20578125 13 13 C9.17509769 21.61103661 1.4272667 28.74490989 -4.85546875 35.6328125 C-7.49073989 38.54169102 -10.04598066 41.51501747 -12.58984375 44.50390625 C-14.88020536 46.93384669 -17.07229886 47.38938842 -20.3125 47.75 C-29.33021256 47.73689286 -35.91936716 39.08309546 -41.88671875 33.13671875 C-42.93279297 32.07904297 -42.93279297 32.07904297 -44 31 C-33.35437352 23.24437862 -22.63359555 15.62514243 -11.75390625 8.20166016 C-7.81260809 5.50134424 -3.90596175 2.75107402 0 0 Z " fill="#E4EDF4" transform="translate(306,84)"/>
<path d="M0 0 C5.13674137 1.631194 9.04165412 4.7644934 13.3125 7.9375 C14.91687037 9.11347914 16.52236281 10.2879288 18.12890625 11.4609375 C18.93859863 12.05229492 19.74829102 12.64365234 20.58251953 13.25292969 C24.26527002 15.91438823 28.00052276 18.49622856 31.75 21.0625 C32.39235596 21.50263428 33.03471191 21.94276855 33.6965332 22.39624023 C37.44661172 24.95781254 41.2168439 27.48756658 45 30 C43.40541656 34.15379144 40.35779059 36.72556672 37.125 39.625 C36.59519531 40.11484375 36.06539062 40.6046875 35.51953125 41.109375 C30.57843242 45.59682456 27.04011484 47.70899173 20.34765625 47.48046875 C11.73689005 45.7181988 4.85112932 34.23211341 -0.52050781 27.76464844 C-1.92752305 26.0864461 -3.36021599 24.43504035 -4.8046875 22.7890625 C-6.04605469 21.34660156 -6.04605469 21.34660156 -7.3125 19.875 C-8.05113281 19.02679688 -8.78976563 18.17859375 -9.55078125 17.3046875 C-11 15 -11 15 -11.046875 13.0546875 C-9.5003431 10.01933011 -7.26797563 7.69267184 -4.9375 5.25 C-4.46505859 4.74339844 -3.99261719 4.23679687 -3.50585938 3.71484375 C-2.34369289 2.47050387 -1.17269839 1.23441936 0 0 Z " fill="#E5EDF4" transform="translate(204,84)"/>
<path d="M0 0 C26.07 0 52.14 0 79 0 C75.72881235 3.27118765 73.25678491 5.70652465 69.59375 8.234375 C68.36313843 9.08999023 68.36313843 9.08999023 67.10766602 9.96289062 C66.24713623 10.55263672 65.38660645 11.14238281 64.5 11.75 C62.70678929 12.98402347 60.91382084 14.21839906 59.12109375 15.453125 C57.81180908 16.35321289 57.81180908 16.35321289 56.47607422 17.27148438 C54.27772099 18.80612654 52.11851366 20.37759214 49.97265625 21.984375 C49.09480469 22.63067871 49.09480469 22.63067871 48.19921875 23.29003906 C46.66776651 24.42218066 45.14787609 25.56991529 43.62890625 26.71875 C41 28 41 28 38.65869141 27.2956543 C35.84024774 25.92214828 33.39536694 24.35587066 30.83203125 22.55078125 C29.85556641 21.86693359 28.87910156 21.18308594 27.87304688 20.47851562 C26.86306641 19.76373047 25.85308594 19.04894531 24.8125 18.3125 C23.82185547 17.61705078 22.83121094 16.92160156 21.81054688 16.20507812 C19.83473845 14.81747758 17.86091846 13.4270411 15.88916016 12.03369141 C13.97832112 10.68864416 12.06138656 9.35221099 10.13818359 8.02490234 C9.2508252 7.41211426 8.3634668 6.79932617 7.44921875 6.16796875 C6.26912231 5.35815552 6.26912231 5.35815552 5.06518555 4.53198242 C3 3 3 3 0 0 Z " fill="#A7B5D9" transform="translate(216,82)"/>
<path d="M0 0 C1.30917308 3.92751924 0.2977853 6.76900402 -0.6953125 10.6484375 C-0.88322861 11.40970444 -1.07114471 12.17097137 -1.26475525 12.95530701 C-1.87739387 15.43045505 -2.50117922 17.90264905 -3.125 20.375 C-3.54440441 22.06187802 -3.96294229 23.74897173 -4.38061523 25.4362793 C-5.20527118 28.76574544 -6.03328592 32.0943463 -6.86376953 35.42236328 C-8.30448801 41.20932649 -9.6918809 47.00857207 -11.0625 52.8125 C-11.26568848 53.66956543 -11.46887695 54.52663086 -11.67822266 55.40966797 C-12.11977157 57.27288557 -12.56007504 59.13639829 -13 61 C-17.11222583 58.09766374 -19.11313656 55.47552316 -21.25 50.9375 C-21.75015625 49.89464844 -22.2503125 48.85179687 -22.765625 47.77734375 C-26.28786632 39.85230078 -26.4372802 29.7201095 -23.375 21.5625 C-18.36835806 11.00653814 -10.91998764 4.09499536 0 0 Z " fill="#E2EBF3" transform="translate(99,152)"/>
<path d="M0 0 C3.875 1.875 3.875 1.875 5 3 C5.16796875 4.99609375 5.16796875 4.99609375 5.1875 7.4375 C5.20167969 8.24058594 5.21585937 9.04367188 5.23046875 9.87109375 C5 12 5 12 3 14 C-1.55555556 13.44444444 -1.55555556 13.44444444 -3 12 C-3.203125 9.78515625 -3.203125 9.78515625 -3.25 7.0625 C-3.27578125 6.16660156 -3.3015625 5.27070313 -3.328125 4.34765625 C-3.21984375 3.57292969 -3.1115625 2.79820312 -3 2 C-2.01 1.34 -1.02 0.68 0 0 Z " fill="#06080E" transform="translate(255,165)"/>
<path d="M0 0 C4.55555556 0.55555556 4.55555556 0.55555556 6 2 C6.16796875 3.99609375 6.16796875 3.99609375 6.1875 6.4375 C6.20167969 7.24058594 6.21585937 8.04367188 6.23046875 8.87109375 C6 11 6 11 4 13 C1.4375 13.1875 1.4375 13.1875 -1 13 C-2.66561399 11.33438601 -2.17115945 9.34037295 -2.1875 7.0625 C-2.20167969 6.16660156 -2.21585938 5.27070313 -2.23046875 4.34765625 C-2 2 -2 2 0 0 Z " fill="#05070D" transform="translate(254,197)"/>
<path d="M0 0 C4.55555556 0.55555556 4.55555556 0.55555556 6 2 C6.16796875 3.99609375 6.16796875 3.99609375 6.1875 6.4375 C6.20167969 7.24058594 6.21585937 8.04367188 6.23046875 8.87109375 C6 11 6 11 4 13 C-0.55555556 12.44444444 -0.55555556 12.44444444 -2 11 C-2.16796875 9.00390625 -2.16796875 9.00390625 -2.1875 6.5625 C-2.20167969 5.75941406 -2.21585938 4.95632812 -2.23046875 4.12890625 C-2 2 -2 2 0 0 Z " fill="#04050A" transform="translate(254,134)"/>
</svg>
