<?xml version="1.0" encoding="UTF-8"?>
<svg version="1.1" xmlns="http://www.w3.org/2000/svg" width="400" height="400">
<path d="M0 0 C2.86724686 0.57344937 3.8614515 0.8614515 6 3 C8.36509361 3.30059943 10.74441881 3.49515012 13.125 3.625 C15.04699219 3.73714844 15.04699219 3.73714844 17.0078125 3.8515625 C18.48894531 3.92503906 18.48894531 3.92503906 20 4 C20.495 5.485 20.495 5.485 21 7 C23.64 7.33 26.28 7.66 29 8 C29.33 8.99 29.66 9.98 30 11 C32.64 11.33 35.28 11.66 38 12 C38 13.32 38 14.64 38 16 C40.97 16 43.94 16 47 16 C47.33 16.99 47.66 17.98 48 19 C50.64 19.33 53.28 19.66 56 20 C55.67 20.99 55.34 21.98 55 23 C58.3 23.33 61.6 23.66 65 24 C65.33 24.99 65.66 25.98 66 27 C69.3 27.33 72.6 27.66 76 28 C75.67 28.99 75.34 29.98 75 31 C90.84 31.495 90.84 31.495 107 32 C107.33 32.99 107.66 33.98 108 35 C110.97 35.33 113.94 35.66 117 36 C117 37.32 117 38.64 117 40 C120.63 40 124.26 40 128 40 C128 40.99 128 41.98 128 43 C128.66 43 129.32 43 130 43 C130 44.65 130 46.3 130 48 C131.7015625 47.9690625 131.7015625 47.9690625 133.4375 47.9375 C137 48 137 48 138 49 C138.3931648 50.67884238 138.74085452 52.36850045 139.0625 54.0625 C139.23910156 54.98160156 139.41570312 55.90070313 139.59765625 56.84765625 C139.73042969 57.55792969 139.86320313 58.26820312 140 59 C142.97 59.495 142.97 59.495 146 60 C146 62.64 146 65.28 146 68 C146.99 68 147.98 68 149 68 C149.33 68.99 149.66 69.98 150 71 C151.87387216 71.80212628 151.87387216 71.80212628 154.0625 72.1875 C154.79597656 72.34605469 155.52945312 72.50460938 156.28515625 72.66796875 C156.85105469 72.77753906 157.41695313 72.88710937 158 73 C158 74.98 158 76.96 158 79 C158.86625 79.4021875 158.86625 79.4021875 159.75 79.8125 C162.09634823 81.05085045 164.05207752 82.19121484 166 84 C166 85.32 166 86.64 166 88 C166.99 88 167.98 88 169 88 C169 89.32 169 90.64 169 92 C170.32 92.33 171.64 92.66 173 93 C173 93.99 173 94.98 173 96 C174.32 96 175.64 96 177 96 C177 97.32 177 98.64 177 100 C178.65 100 180.3 100 182 100 C182 101.32 182 102.64 182 104 C183.65 104 185.3 104 187 104 C187.33 104.99 187.66 105.98 188 107 C189.65 107.33 191.3 107.66 193 108 C193 109.32 193 110.64 193 112 C194.65 112 196.3 112 198 112 C198 112.99 198 113.98 198 115 C199.98 115.33 201.96 115.66 204 116 C204.33 116.99 204.66 117.98 205 119 C205.66 119.165 206.32 119.33 207 119.5 C207.66 119.665 208.32 119.83 209 120 C209.33 120.99 209.66 121.98 210 123 C211.98 123.33 213.96 123.66 216 124 C216.33 124.99 216.66 125.98 217 127 C217.66 127.165 218.32 127.33 219 127.5 C219.66 127.665 220.32 127.83 221 128 C221.33 128.99 221.66 129.98 222 131 C223.65 131.33 225.3 131.66 227 132 C227.33 132.99 227.66 133.98 228 135 C229.65 135.33 231.3 135.66 233 136 C233 137.32 233 138.64 233 140 C234.65 140 236.3 140 238 140 C238.33 140.99 238.66 141.98 239 143 C240.98 143.33 242.96 143.66 245 144 C245 145.32 245 146.64 245 148 C246.32 148 247.64 148 249 148 C249.33 148.99 249.66 149.98 250 151 C250.99 151.33 251.98 151.66 253 152 C253.33 152.99 253.66 153.98 254 155 C254.99 155.33 255.98 155.66 257 156 C257.33 156.99 257.66 157.98 258 159 C258.99 159.33 259.98 159.66 261 160 C261.33 160.99 261.66 161.98 262 163 C264.01508358 163.73323796 264.01508358 163.73323796 266 164 C266 165.32 266 166.64 266 168 C267.32 168.33 268.64 168.66 270 169 C270 172.63 270 176.26 270 180 C271.32 180.33 272.64 180.66 274 181 C274.93959624 186.29653879 274.98841115 191.08668517 274.5625 196.4375 C274.51029297 197.16904297 274.45808594 197.90058594 274.40429688 198.65429688 C274.27615124 200.43668622 274.1390184 202.2184257 274 204 C272.68 204 271.36 204 270 204 C270 205.32 270 206.64 270 208 C268.35 208 266.7 208 265 208 C265 209.32 265 210.64 265 212 C262.03 212.33 259.06 212.66 256 213 C255.67 213.99 255.34 214.98 255 216 C254.2886792 216.01981934 253.5773584 216.03963867 252.84448242 216.06005859 C249.62511184 216.15524867 246.4063955 216.26495229 243.1875 216.375 C241.50817383 216.42140625 241.50817383 216.42140625 239.79492188 216.46875 C238.72177734 216.50742187 237.64863281 216.54609375 236.54296875 216.5859375 C235.55321045 216.6173584 234.56345215 216.6487793 233.54370117 216.68115234 C230.75924906 216.83773433 230.75924906 216.83773433 228 219 C228 219.33 228 219.66 228 220 C224.04 220 220.08 220 216 220 C216.33 219.34 216.66 218.68 217 218 C212.92215064 216.87449863 208.9413442 216.77528382 204.734375 216.68359375 C203.94097717 216.66281265 203.14757935 216.64203156 202.33013916 216.62062073 C199.80351156 216.55540027 197.27678279 216.49636856 194.75 216.4375 C193.03384384 216.3942886 191.31769778 216.35067347 189.6015625 216.30664062 C185.40114454 216.19974717 181.20062511 216.09840271 177 216 C176.67 215.01 176.34 214.02 176 213 C172.37 212.67 168.74 212.34 165 212 C165.33 212.66 165.66 213.32 166 214 C166.039992 215.99960012 166.04346799 218.00047242 166 220 C167.32 220.33 168.64 220.66 170 221 C170 225.95 170 230.9 170 236 C171.32 236.33 172.64 236.66 174 237 C174 239.97 174 242.94 174 246 C173.34 245.67 172.68 245.34 172 245 C171.34 247.31 170.68 249.62 170 252 C169.360625 252.103125 168.72125 252.20625 168.0625 252.3125 C167.0415625 252.6528125 167.0415625 252.6528125 166 253 C165.67 253.99 165.34 254.98 165 256 C161.9375 257.1875 161.9375 257.1875 159 258 C159 258.66 159 259.32 159 260 C155.7 260.33 152.4 260.66 149 261 C149 261.99 149 262.98 149 264 C148.31373535 264.01981934 147.6274707 264.03963867 146.92041016 264.06005859 C143.82154221 264.15510945 140.72336706 264.26486847 137.625 264.375 C136.00464844 264.42140625 136.00464844 264.42140625 134.3515625 264.46875 C133.3203125 264.50742187 132.2890625 264.54609375 131.2265625 264.5859375 C129.79691162 264.63306885 129.79691162 264.63306885 128.33837891 264.68115234 C125.81104824 264.78555796 125.81104824 264.78555796 124 267 C124 267.33 124 267.66 124 268 C119.05 268 114.1 268 109 268 C109 267.34 109 266.68 109 266 C106.0471528 264.5235764 103.31551017 264.77727061 100.0234375 264.68359375 C98.99556625 264.6524221 98.99556625 264.6524221 97.94692993 264.62062073 C95.75638931 264.55519815 93.56572811 264.49627446 91.375 264.4375 C89.8906125 264.39430782 88.40623722 264.3506933 86.921875 264.30664062 C83.28137916 264.19952447 79.64074749 264.09823638 76 264 C75.67 263.01 75.34 262.02 75 261 C68.4 260.67 61.8 260.34 55 260 C54.67 259.01 54.34 258.02 54 257 C49.38 256.67 44.76 256.34 40 256 C39.67 255.01 39.34 254.02 39 253 C35.04 252.67 31.08 252.34 27 252 C27 250.68 27 249.36 27 248 C23.37 248 19.74 248 16 248 C15.67 247.01 15.34 246.02 15 245 C12.36 244.67 9.72 244.34 7 244 C6.67 243.01 6.34 242.02 6 241 C3.36 240.67 0.72 240.34 -2 240 C-2.33 239.01 -2.66 238.02 -3 237 C-4.98 236.67 -6.96 236.34 -9 236 C-9 234.68 -9 233.36 -9 232 C-10.65 232 -12.3 232 -14 232 C-14 230.68 -14 229.36 -14 228 C-15.32 228 -16.64 228 -18 228 C-18.33 227.01 -18.66 226.02 -19 225 C-19.99 224.67 -20.98 224.34 -22 224 C-22.33 223.01 -22.66 222.02 -23 221 C-23.99 220.67 -24.98 220.34 -26 220 C-26 218.68 -26 217.36 -26 216 C-27.32 215.67 -28.64 215.34 -30 215 C-30.33 213.02 -30.66 211.04 -31 209 C-31.99 208.67 -32.98 208.34 -34 208 C-34.70491267 205.67793475 -35.37212429 203.34406932 -36 201 C-36.66 200.67 -37.32 200.34 -38 200 C-38 198.68 -38 197.36 -38 196 C-39.32 195.67 -40.64 195.34 -42 195 C-42 192.69 -42 190.38 -42 188 C-43.32 187.67 -44.64 187.34 -46 187 C-46 186.01 -46 185.02 -46 184 C-46.66 184 -47.32 184 -48 184 C-48.33 183.01 -48.66 182.02 -49 181 C-49.99 181 -50.98 181 -52 181 C-52.33 181.99 -52.66 182.98 -53 184 C-56.96 184 -60.92 184 -65 184 C-65.33 183.01 -65.66 182.02 -66 181 C-67.98 180.67 -69.96 180.34 -72 180 C-72.33 179.01 -72.66 178.02 -73 177 C-73.66 176.835 -74.32 176.67 -75 176.5 C-75.66 176.335 -76.32 176.17 -77 176 C-77.33 175.01 -77.66 174.02 -78 173 C-78.66 172.835 -79.32 172.67 -80 172.5 C-80.66 172.335 -81.32 172.17 -82 172 C-82.33 171.01 -82.66 170.02 -83 169 C-85.01508358 168.26676204 -85.01508358 168.26676204 -87 168 C-87 167.01 -87 166.02 -87 165 C-88.65 164.67 -90.3 164.34 -92 164 C-92.33 163.01 -92.66 162.02 -93 161 C-94.65 160.34 -96.3 159.68 -98 159 C-98 143.49 -98 127.98 -98 112 C-99.32 111.67 -100.64 111.34 -102 111 C-102 105.06 -102 99.12 -102 93 C-100.02 92.505 -100.02 92.505 -98 92 C-98 85.4 -98 78.8 -98 72 C-96.68 72 -95.36 72 -94 72 C-94 68.04 -94 64.08 -94 60 C-92.68 60 -91.36 60 -90 60 C-90 56.04 -90 52.08 -90 48 C-88.68 48 -87.36 48 -86 48 C-86 45.36 -86 42.72 -86 40 C-84.68 40 -83.36 40 -82 40 C-82 37.69 -82 35.38 -82 33 C-81.195625 32.731875 -80.39125 32.46375 -79.5625 32.1875 C-78.2940625 31.5996875 -78.2940625 31.5996875 -77 31 C-76.67 30.01 -76.34 29.02 -76 28 C-68.08 28 -60.16 28 -52 28 C-51.505 29.485 -51.505 29.485 -51 31 C-48.03 31.33 -45.06 31.66 -42 32 C-42 32.99 -42 33.98 -42 35 C-39.36 35.33 -36.72 35.66 -34 36 C-33.67 36.99 -33.34 37.98 -33 39 C-30.69 39.33 -28.38 39.66 -26 40 C-26 38.02 -26 36.04 -26 34 C-24.68 33.34 -23.36 32.68 -22 32 C-22 28.37 -22 24.74 -22 21 C-20.68 20.67 -19.36 20.34 -18 20 C-18 17.36 -18 14.72 -18 12 C-16.68 12 -15.36 12 -14 12 C-14 10.68 -14 9.36 -14 8 C-13.01 7.67 -12.02 7.34 -11 7 C-10.67 6.01 -10.34 5.02 -10 4 C-6.7 3.34 -3.4 2.68 0 2 C0 1.34 0 0.68 0 0 Z " fill="#A25D53" transform="translate(112,66)"/>
<path d="M0 0 C0.66 0 1.32 0 2 0 C2.390625 1.62760417 2.78125 3.25520833 3.171875 4.8828125 C7.81289861 16.74807098 19.97385554 26.07425769 29.5078125 34.0546875 C34.84103061 38.52114711 39.92562475 43.24413047 45 48 C45.79019531 48.71285156 46.58039062 49.42570312 47.39453125 50.16015625 C53.71601822 56.08309063 58.18846394 62.91135254 62.79882812 70.17675781 C64.04832263 72.07334826 65.38039893 73.88782911 66.734375 75.7109375 C69 79 69 79 69.50878906 81.06884766 C70.14960475 83.58815784 71.62135742 84.71588094 73.4765625 86.453125 C75.3261322 88.33114961 76.8940667 90.34768286 78.5 92.4375 C79.10199219 93.21738281 79.70398438 93.99726563 80.32421875 94.80078125 C81.66818263 96.56453805 82.99346639 98.34252215 84.3125 100.125 C89.83106511 106.02858128 96.46614513 110.14233091 104 113 C105.98071458 113.82964744 107.95973394 114.66334802 109.9375 115.5 C127.65298223 122.8648634 145.61791297 127.71260118 164.4375 131.25 C165.46807526 131.44583679 165.46807526 131.44583679 166.51947021 131.64562988 C180.29453213 134.24789187 193.62257779 135.229906 207.61352539 135.29516602 C209.32064111 135.30666229 211.02772156 135.32707683 212.73461914 135.35668945 C227.27014624 135.60747108 246.38164818 135.28222266 257.50390625 124.59375 C263.49328342 118.12746053 263.49328342 118.12746053 265.5625 109.875 C265.64628906 108.96492188 265.73007812 108.05484375 265.81640625 107.1171875 C265.87699219 106.41851562 265.93757813 105.71984375 266 105 C266.66 105.33 267.32 105.66 268 106 C268 110.95 268 115.9 268 121 C269.32 121.33 270.64 121.66 272 122 C272 124.97 272 127.94 272 131 C271.34 130.67 270.68 130.34 270 130 C269.34 132.31 268.68 134.62 268 137 C267.360625 137.103125 266.72125 137.20625 266.0625 137.3125 C265.0415625 137.6528125 265.0415625 137.6528125 264 138 C263.67 138.99 263.34 139.98 263 141 C259.9375 142.1875 259.9375 142.1875 257 143 C257 143.66 257 144.32 257 145 C253.7 145.33 250.4 145.66 247 146 C247 146.99 247 147.98 247 149 C246.31373535 149.01981934 245.6274707 149.03963867 244.92041016 149.06005859 C241.82154221 149.15510945 238.72336706 149.26486847 235.625 149.375 C234.00464844 149.42140625 234.00464844 149.42140625 232.3515625 149.46875 C231.3203125 149.50742187 230.2890625 149.54609375 229.2265625 149.5859375 C228.27346191 149.6173584 227.32036133 149.6487793 226.33837891 149.68115234 C223.81104824 149.78555796 223.81104824 149.78555796 222 152 C222 152.33 222 152.66 222 153 C217.05 153 212.1 153 207 153 C207 152.34 207 151.68 207 151 C204.0471528 149.5235764 201.31551017 149.77727061 198.0234375 149.68359375 C196.99556625 149.6524221 196.99556625 149.6524221 195.94692993 149.62062073 C193.75638931 149.55519815 191.56572811 149.49627446 189.375 149.4375 C187.8906125 149.39430782 186.40623722 149.3506933 184.921875 149.30664062 C181.28137916 149.19952447 177.64074749 149.09823638 174 149 C173.67 148.01 173.34 147.02 173 146 C163.1 145.505 163.1 145.505 153 145 C152.67 144.01 152.34 143.02 152 142 C147.38 141.67 142.76 141.34 138 141 C137.67 140.01 137.34 139.02 137 138 C133.04 137.67 129.08 137.34 125 137 C125 135.68 125 134.36 125 133 C121.37 133 117.74 133 114 133 C113.67 132.01 113.34 131.02 113 130 C110.36 129.67 107.72 129.34 105 129 C104.67 128.01 104.34 127.02 104 126 C101.36 125.67 98.72 125.34 96 125 C95.67 124.01 95.34 123.02 95 122 C93.02 121.67 91.04 121.34 89 121 C89 119.68 89 118.36 89 117 C87.35 117 85.7 117 84 117 C84 115.68 84 114.36 84 113 C82.68 113 81.36 113 80 113 C79.67 112.01 79.34 111.02 79 110 C77.515 109.505 77.515 109.505 76 109 C75.67 108.01 75.34 107.02 75 106 C73.515 105.505 73.515 105.505 72 105 C72 103.68 72 102.36 72 101 C70.02 100.505 70.02 100.505 68 100 C67.67 98.02 67.34 96.04 67 94 C65.515 93.505 65.515 93.505 64 93 C63.29508733 90.67793475 62.62787571 88.34406932 62 86 C61.01 85.505 61.01 85.505 60 85 C60 83.68 60 82.36 60 81 C58.68 80.67 57.36 80.34 56 80 C56 77.69 56 75.38 56 73 C54.68 72.67 53.36 72.34 52 72 C52 71.01 52 70.02 52 69 C51.34 69 50.68 69 50 69 C49.67 68.01 49.34 67.02 49 66 C48.01 66 47.02 66 46 66 C45.505 67.485 45.505 67.485 45 69 C41.04 69 37.08 69 33 69 C32.67 68.01 32.34 67.02 32 66 C30.02 65.67 28.04 65.34 26 65 C25.505 63.515 25.505 63.515 25 62 C24.34 61.835 23.68 61.67 23 61.5 C22.34 61.335 21.68 61.17 21 61 C20.67 60.01 20.34 59.02 20 58 C19.34 57.835 18.68 57.67 18 57.5 C17.34 57.335 16.68 57.17 16 57 C15.505 55.515 15.505 55.515 15 54 C12.98491642 53.26676204 12.98491642 53.26676204 11 53 C11 52.01 11 51.02 11 50 C9.35 49.67 7.7 49.34 6 49 C5.505 47.515 5.505 47.515 5 46 C3.35 45.34 1.7 44.68 0 44 C0 29.48 0 14.96 0 0 Z " fill="#172643" transform="translate(14,181)"/>
<path d="M0 0 C2.86724686 0.57344937 3.8614515 0.8614515 6 3 C8.36509361 3.30059943 10.74441881 3.49515012 13.125 3.625 C15.04699219 3.73714844 15.04699219 3.73714844 17.0078125 3.8515625 C18.48894531 3.92503906 18.48894531 3.92503906 20 4 C20.495 5.485 20.495 5.485 21 7 C23.64 7.33 26.28 7.66 29 8 C29.495 9.485 29.495 9.485 30 11 C32.64 11.33 35.28 11.66 38 12 C38 13.32 38 14.64 38 16 C40.97 16 43.94 16 47 16 C47.495 17.485 47.495 17.485 48 19 C50.64 19.33 53.28 19.66 56 20 C55.505 21.485 55.505 21.485 55 23 C58.3 23.33 61.6 23.66 65 24 C65.495 25.485 65.495 25.485 66 27 C69.3 27.33 72.6 27.66 76 28 C76 29.32 76 30.64 76 32 C78.64 32.99 81.28 33.98 84 35 C84 35.66 84 36.32 84 37 C83.01 37 82.02 37 81 37 C80.67 38.32 80.34 39.64 80 41 C79.34 41 78.68 41 78 41 C77.34 43.31 76.68 45.62 76 48 C75.34 48 74.68 48 74 48 C73.87625 48.721875 73.7525 49.44375 73.625 50.1875 C73 53 73 53 71.8125 55.375 C70.67558948 59.04809553 71.74733783 61.45079053 73 65 C65.72410535 69.45094233 58.61659806 71.72275528 50 71 C47.265625 69.53125 47.265625 69.53125 45 68 C43.33499557 67.65846063 41.66821323 67.32550502 40 67 C37.97762948 66.04605164 35.9717304 65.05464649 34 64 C34 63.34 34 62.68 34 62 C33.16855469 61.86078125 33.16855469 61.86078125 32.3203125 61.71875 C29.38067023 60.80815374 27.35867613 59.3090059 24.875 57.5 C21.55530546 55.05517657 21.55530546 55.05517657 18 53 C18 52.34 18 51.68 18 51 C17.46375 50.773125 16.9275 50.54625 16.375 50.3125 C7.25014067 45.26981458 1.04709115 36.17684177 -5.203125 28.1015625 C-7.00707833 25.79889051 -7.00707833 25.79889051 -10 24 C-10 23.34 -10 22.68 -10 22 C-13.37088267 24.27415287 -13.37088267 24.27415287 -15 28 C-17.5625 29.1875 -17.5625 29.1875 -20 30 C-19.125 25.25 -19.125 25.25 -18 23 C-17.34 23 -16.68 23 -16 23 C-16 19.37 -16 15.74 -16 12 C-15.34 12 -14.68 12 -14 12 C-14 10.68 -14 9.36 -14 8 C-13.01 7.67 -12.02 7.34 -11 7 C-10.67 6.01 -10.34 5.02 -10 4 C-6.7 3.34 -3.4 2.68 0 2 C0 1.34 0 0.68 0 0 Z " fill="#BB7559" transform="translate(112,66)"/>
<path d="M0 0 C2.97 0.495 2.97 0.495 6 1 C6.495 2.485 6.495 2.485 7 4 C8.65 4.33 10.3 4.66 12 5 C12 6.32 12 7.64 12 9 C13.65 9 15.3 9 17 9 C17.495 10.485 17.495 10.485 18 12 C20.97 12.495 20.97 12.495 24 13 C24 14.32 24 15.64 24 17 C25.32 17 26.64 17 28 17 C28.495 18.485 28.495 18.485 29 20 C30.485 20.495 30.485 20.495 32 21 C32.495 22.485 32.495 22.485 33 24 C34.485 24.495 34.485 24.495 36 25 C36.495 26.485 36.495 26.485 37 28 C38.485 28.495 38.485 28.495 40 29 C40.495 30.485 40.495 30.485 41 32 C43.01508358 32.73323796 43.01508358 32.73323796 45 33 C45 34.32 45 35.64 45 37 C46.98 37.495 46.98 37.495 49 38 C49 41.63 49 45.26 49 49 C50.98 49.495 50.98 49.495 53 50 C53.93959624 55.29653879 53.98841115 60.08668517 53.5625 65.4375 C53.51029297 66.16904297 53.45808594 66.90058594 53.40429688 67.65429688 C53.27615124 69.43668622 53.1390184 71.2184257 53 73 C51.68 73 50.36 73 49 73 C49 74.32 49 75.64 49 77 C47.35 77 45.7 77 44 77 C44 78.32 44 79.64 44 81 C39.545 81.495 39.545 81.495 35 82 C34.505 83.485 34.505 83.485 34 85 C32.9330188 85.029729 32.9330188 85.029729 31.84448242 85.06005859 C28.62511184 85.15524867 25.4063955 85.26495229 22.1875 85.375 C21.06794922 85.4059375 19.94839844 85.436875 18.79492188 85.46875 C17.72177734 85.50742187 16.64863281 85.54609375 15.54296875 85.5859375 C14.0583313 85.63306885 14.0583313 85.63306885 12.54370117 85.68115234 C9.75924906 85.83773433 9.75924906 85.83773433 7 88 C7 88.33 7 88.66 7 89 C3.04 89 -0.92 89 -5 89 C-4.67 88.34 -4.34 87.68 -4 87 C-8.07784936 85.87449863 -12.0586558 85.77528382 -16.265625 85.68359375 C-17.05902283 85.66281265 -17.85242065 85.64203156 -18.66986084 85.62062073 C-21.19648844 85.55540027 -23.72321721 85.49636856 -26.25 85.4375 C-27.96615616 85.3942886 -29.68230222 85.35067347 -31.3984375 85.30664062 C-35.59885546 85.19974717 -39.79937489 85.09840271 -44 85 C-44.33 84.01 -44.66 83.02 -45 82 C-48.63 81.67 -52.26 81.34 -56 81 C-55.67 82.65 -55.34 84.3 -55 86 C-57 84 -57 84 -58.24609375 81.81640625 C-60.92976689 77.50698903 -64.34530783 73.8752115 -67.70507812 70.08398438 C-68.22650391 69.48779297 -68.74792969 68.89160156 -69.28515625 68.27734375 C-69.75832275 67.74359131 -70.23148926 67.20983887 -70.71899414 66.65991211 C-72.1023985 64.86731325 -73.05133046 63.05103415 -74 61 C-68.91898029 60.67567959 -65.22656664 61.42380007 -60.453125 63.13671875 C-53.74932605 65.49585819 -47.13165683 67.13687512 -40.0546875 67.75390625 C-36.93358356 68.12772668 -34.00792637 69.10876256 -31 70 C-25.90877924 70.87252507 -20.90547016 71.18583565 -15.75 71.23828125 C-14.58633911 71.25038887 -14.58633911 71.25038887 -13.39916992 71.26274109 C-11.76206643 71.27650197 -10.12493521 71.28725945 -8.48779297 71.29516602 C-6.84349926 71.30662282 -5.19924087 71.32697348 -3.55517578 71.35668945 C11.62061526 71.63003083 24.21502686 69.52783961 37.70703125 62.171875 C40 61 40 61 42 61 C42 60.34 42 59.68 42 59 C42.99 58.34 43.98 57.68 45 57 C45.79653753 54.32224191 45.79653753 54.32224191 46 51 C46.12246094 50.32582031 46.24492187 49.65164062 46.37109375 48.95703125 C46.81588593 45.09076079 46.55683036 42.82342603 44.34375 39.55078125 C41.99412786 36.91572966 39.53522928 34.45670448 37 32 C36.12601562 31.08089844 35.25203125 30.16179687 34.3515625 29.21484375 C30.32364065 25.01153191 27.41288051 22.13772479 22 20 C19.67763106 18.42951325 17.50013892 16.68909764 15.3125 14.9375 C11.35070369 11.67441696 11.35070369 11.67441696 7 9 C6.319375 7.7934375 6.319375 7.7934375 5.625 6.5625 C3.92131672 3.87592252 2.91346909 3.10510897 0 2 C0 1.34 0 0.68 0 0 Z " fill="#1A2845" transform="translate(333,197)"/>
<path d="M0 0 C0.66 0.99 1.32 1.98 2 3 C3.95385067 3.78988145 3.95385067 3.78988145 6.125 4.1875 C8.043125 4.5896875 8.043125 4.5896875 10 5 C10 6.98 10 8.96 10 11 C10.5775 11.268125 11.155 11.53625 11.75 11.8125 C14.09634823 13.05085045 16.05207752 14.19121484 18 16 C18 17.32 18 18.64 18 20 C18.99 20 19.98 20 21 20 C21 21.32 21 22.64 21 24 C22.32 24.33 23.64 24.66 25 25 C25 25.99 25 26.98 25 28 C26.32 28 27.64 28 29 28 C29 29.32 29 30.64 29 32 C30.65 32 32.3 32 34 32 C34 32.99 34 33.98 34 35 C29.23735526 33.90578413 26.97579322 32.18623893 23.86669922 28.453125 C19.24072364 22.89581242 19.24072364 22.89581242 12.68359375 20.515625 C9.25725681 21.01723749 6.2572925 21.8299838 3 23 C1.56333984 23.47759766 1.56333984 23.47759766 0.09765625 23.96484375 C-3.31232821 25.21166626 -6.24666394 26.4298709 -9.15234375 28.62890625 C-11 30 -11 30 -13 30 C-13 30.66 -13 31.32 -13 32 C-14.66666667 33.66666667 -16.33333333 35.33333333 -18 37 C-19.34270821 38.99371825 -20.67653494 40.9934562 -22 43 C-24.125 45.375 -24.125 45.375 -26 47 C-26.66 47 -27.32 47 -28 47 C-27.45276317 43.62537285 -26.9451 41.91765 -25 39 C-24.34 39 -23.68 39 -23 39 C-22.85884766 38.13568359 -22.85884766 38.13568359 -22.71484375 37.25390625 C-21.8383291 34.49025076 -20.52650109 33.05666126 -18.5625 30.9375 C-16.47083853 28.66243606 -14.72328194 26.58492291 -13 24 C-12.34 24 -11.68 24 -11 24 C-10.67 21.36 -10.34 18.72 -10 16 C-14.4604936 17.13698857 -18.22017858 18.33189076 -22 21 C-22.33 21.66 -22.66 22.32 -23 23 C-23.78375 23.4125 -24.5675 23.825 -25.375 24.25 C-28.2416118 25.84305558 -28.2416118 25.84305558 -29.5 29.0625 C-31 32 -31 32 -33.6875 33.375 C-34.450625 33.58125 -35.21375 33.7875 -36 34 C-35.505 31.03 -35.505 31.03 -35 28 C-34.01 27.67 -33.02 27.34 -32 27 C-31.835 26.34 -31.67 25.68 -31.5 25 C-31.335 24.34 -31.17 23.68 -31 23 C-30.01 22.67 -29.02 22.34 -28 22 C-27.87625 21.4225 -27.7525 20.845 -27.625 20.25 C-26.68316645 16.85939923 -24.82723693 14.94410869 -22 13 C-13.02912621 9 -13.02912621 9 -9 9 C-9 8.34 -9 7.68 -9 7 C-6.03 6.34 -3.06 5.68 0 5 C0 3.35 0 1.7 0 0 Z " fill="#8E4B51" transform="translate(260,134)"/>
<path d="M0 0 C3.3 0.33 6.6 0.66 10 1 C10 2.32 10 3.64 10 5 C13.63 5 17.26 5 21 5 C21 5.99 21 6.98 21 8 C21.66 8 22.32 8 23 8 C23 9.65 23 11.3 23 13 C24.7015625 12.9690625 24.7015625 12.9690625 26.4375 12.9375 C30 13 30 13 31 14 C31.23287008 15.68183948 31.41264166 17.3712416 31.5625 19.0625 C31.64628906 19.98160156 31.73007813 20.90070313 31.81640625 21.84765625 C31.87699219 22.55792969 31.93757813 23.26820312 32 24 C31.11957031 23.96519531 30.23914063 23.93039063 29.33203125 23.89453125 C27.58986328 23.85392578 27.58986328 23.85392578 25.8125 23.8125 C24.66394531 23.77769531 23.51539063 23.74289063 22.33203125 23.70703125 C17.72927618 24.11172835 15.21682591 25.78317409 12 29 C10.68 29 9.36 29 8 29 C4.88695186 29.15760028 4.88695186 29.15760028 2 30 C0.69934079 31.93383287 0.69934079 31.93383287 0 34 C-0.99 34.495 -0.99 34.495 -2 35 C-2.65213292 37.02463255 -2.65213292 37.02463255 -3 39 C-3.66 39 -4.32 39 -5 39 C-5.33 39.99 -5.66 40.98 -6 42 C-8.475 42.495 -8.475 42.495 -11 43 C-10.47289246 38.61792685 -8.95723739 36.20915383 -6.1875 32.8125 C-5.50042969 31.95269531 -4.81335938 31.09289062 -4.10546875 30.20703125 C-2.09840678 28.10315367 -0.59576773 27.18808458 2 26 C2.33 25.34 2.66 24.68 3 24 C3.66 24 4.32 24 5 24 C5.23460937 23.36578125 5.46921875 22.7315625 5.7109375 22.078125 C7 20 7 20 9.1640625 19.171875 C9.97617188 19.03265625 10.78828125 18.8934375 11.625 18.75 C12.44226563 18.60046875 13.25953125 18.4509375 14.1015625 18.296875 C15.04128906 18.14992188 15.04128906 18.14992188 16 18 C15.65213292 16.02463255 15.65213292 16.02463255 15 14 C14.34 13.67 13.68 13.34 13 13 C12.896875 12.195625 12.79375 11.39125 12.6875 10.5625 C12.460625 9.716875 12.23375 8.87125 12 8 C9.80067065 6.83486387 9.80067065 6.83486387 7 6 C4.62280624 4.73511637 2.32182779 3.36578105 0 2 C0 1.34 0 0.68 0 0 Z " fill="#614B53" transform="translate(219,101)"/>
<path d="M0 0 C4.455 0.99 4.455 0.99 9 2 C9 3.98 9 5.96 9 8 C9.5775 8.268125 10.155 8.53625 10.75 8.8125 C13.09634823 10.05085045 15.05207752 11.19121484 17 13 C17 14.32 17 15.64 17 17 C17.99 17 18.98 17 20 17 C20 18.32 20 19.64 20 21 C21.32 21.33 22.64 21.66 24 22 C24 22.99 24 23.98 24 25 C25.32 25 26.64 25 28 25 C28 26.32 28 27.64 28 29 C29.65 29 31.3 29 33 29 C33 29.99 33 30.98 33 32 C28.23735526 30.90578413 25.97579322 29.18623893 22.86669922 25.453125 C18.24072364 19.89581242 18.24072364 19.89581242 11.68359375 17.515625 C8.25725681 18.01723749 5.2572925 18.8299838 2 20 C1.04222656 20.31839844 0.08445312 20.63679688 -0.90234375 20.96484375 C-4.31232821 22.21166626 -7.24666394 23.4298709 -10.15234375 25.62890625 C-12 27 -12 27 -14 27 C-14 27.66 -14 28.32 -14 29 C-15.66666667 30.66666667 -17.33333333 32.33333333 -19 34 C-20.34270821 35.99371825 -21.67653494 37.9934562 -23 40 C-25.125 42.375 -25.125 42.375 -27 44 C-27.66 44 -28.32 44 -29 44 C-28.45276317 40.62537285 -27.9451 38.91765 -26 36 C-25.34 36 -24.68 36 -24 36 C-23.90203125 35.42378906 -23.8040625 34.84757812 -23.703125 34.25390625 C-21.85102532 28.31689782 -16.28011774 23.86634963 -11 21 C-10.34 20.01 -9.68 19.02 -9 18 C-2.16890737 15.64878823 4.8026781 14.57662812 12 15 C7.38128593 9.49244159 7.38128593 9.49244159 2.0625 4.6875 C1.381875 4.130625 0.70125 3.57375 0 3 C0 2.01 0 1.02 0 0 Z " fill="#4D4755" transform="translate(261,137)"/>
<path d="M0 0 C2.97 0.495 2.97 0.495 6 1 C6.33 1.99 6.66 2.98 7 4 C8.65 4.33 10.3 4.66 12 5 C12 6.32 12 7.64 12 9 C13.65 9 15.3 9 17 9 C17.33 9.99 17.66 10.98 18 12 C20.97 12.495 20.97 12.495 24 13 C24 14.32 24 15.64 24 17 C25.32 17 26.64 17 28 17 C28.33 17.99 28.66 18.98 29 20 C29.99 20.33 30.98 20.66 32 21 C32.495 22.485 32.495 22.485 33 24 C33.99 24.33 34.98 24.66 36 25 C36.495 26.485 36.495 26.485 37 28 C37.99 28.33 38.98 28.66 40 29 C40.495 30.485 40.495 30.485 41 32 C43.01508358 32.73323796 43.01508358 32.73323796 45 33 C45 34.32 45 35.64 45 37 C46.32 37.33 47.64 37.66 49 38 C49 41.63 49 45.26 49 49 C50.32 49.33 51.64 49.66 53 50 C53.495 54.455 53.495 54.455 54 59 C52.68 58.67 51.36 58.34 50 58 C49.690625 56.865625 49.38125 55.73125 49.0625 54.5625 C48.37075469 51.21224901 48.37075469 51.21224901 47 50 C47 48.865625 47 47.73125 47 46.5625 C46.25608052 40.14190263 41.37462175 36.35500462 37 32 C36.12730469 31.07960937 35.25460937 30.15921875 34.35546875 29.2109375 C30.32235544 25.01456473 27.41224266 22.13747288 22 20 C19.67763106 18.42951325 17.50013892 16.68909764 15.3125 14.9375 C11.35070369 11.67441696 11.35070369 11.67441696 7 9 C6.54625 8.195625 6.0925 7.39125 5.625 6.5625 C3.92131672 3.87592252 2.91346909 3.10510897 0 2 C0 1.34 0 0.68 0 0 Z " fill="#070305" transform="translate(333,197)"/>
<path d="M0 0 C3.96 0 7.92 0 12 0 C12.33 0.99 12.66 1.98 13 3 C15.64 3.33 18.28 3.66 21 4 C21.33 4.99 21.66 5.98 22 7 C24.64 7.33 27.28 7.66 30 8 C30 9.32 30 10.64 30 12 C32.97 12 35.94 12 39 12 C39.495 13.485 39.495 13.485 40 15 C42.64 15.33 45.28 15.66 48 16 C47.505 17.485 47.505 17.485 47 19 C50.3 19.33 53.6 19.66 57 20 C57 20.66 57 21.32 57 22 C55.01432292 21.96744792 53.02864583 21.93489583 51.04296875 21.90234375 C48.79694539 21.91736783 48.79694539 21.91736783 46 23 C36.02736708 21.69211372 25.43188712 16.80804258 18 10 C17.67 9.01 17.34 8.02 17 7 C14.91749092 5.81921773 14.91749092 5.81921773 12.375 4.9375 C11.4778125 4.60105469 10.580625 4.26460938 9.65625 3.91796875 C6.46029879 2.81348561 3.27155599 1.85344939 0 1 C0 0.67 0 0.34 0 0 Z " fill="#A56E38" transform="translate(120,70)"/>
<path d="M0 0 C2.31 0.33 4.62 0.66 7 1 C7 3.31 7 5.62 7 8 C6.42894531 8.09796875 5.85789062 8.1959375 5.26953125 8.296875 C-7.75402368 10.69867527 -18.94322003 13.00314504 -26.8125 24.1875 C-27.37582031 25.04730469 -27.93914062 25.90710938 -28.51953125 26.79296875 C-30 29 -30 29 -32 31 C-32.99 31 -33.98 31 -35 31 C-34.05122289 23.69571594 -28.92631442 18.29564321 -23.28125 13.8671875 C-21.54244137 12.67300571 -19.78452399 11.50589615 -18.00390625 10.375 C-15.87384802 9.15143179 -15.87384802 9.15143179 -15 7 C-12.41796875 6.1484375 -12.41796875 6.1484375 -9.1875 5.375 C-8.12917969 5.11460937 -7.07085937 4.85421875 -5.98046875 4.5859375 C-3 4 -3 4 1 4 C0.505 2.02 0.505 2.02 0 0 Z " fill="#5D3746" transform="translate(251,125)"/>
<path d="M0 0 C4.13264478 0.5165806 7.71592973 1.58884408 11.5859375 3.10546875 C20.23438596 6.31015273 28.91534472 8.52110263 38 10 C38 10.66 38 11.32 38 12 C40.97 12 43.94 12 47 12 C47 12.66 47 13.32 47 14 C47.61311035 14.05478516 48.2262207 14.10957031 48.85791016 14.16601562 C53.93441117 14.64311945 58.945074 15.27074297 63.97460938 16.10424805 C74.97270634 17.91750224 85.86446888 18.71895317 97 19 C98.13179688 19.02964844 99.26359375 19.05929687 100.4296875 19.08984375 C103.29234098 19.12401335 106.138573 19.08670991 109 19 C110.62035156 18.95746094 110.62035156 18.95746094 112.2734375 18.9140625 C119.74498853 18.56147245 126.59286537 17.3282079 133.75878906 15.28417969 C138.70656597 13.90218866 138.70656597 13.90218866 142 15 C140.37884308 15.63490176 138.75277293 16.25725792 137.125 16.875 C136.22007812 17.22304688 135.31515625 17.57109375 134.3828125 17.9296875 C124.40741583 21.08587536 114.89665143 21.31199562 104.5168457 21.26074219 C101.96736288 21.25012437 99.4186006 21.26062738 96.86914062 21.2734375 C81.76513851 21.28770762 67.20370342 19.6708951 52.375 16.75 C51.28614502 16.53746582 50.19729004 16.32493164 49.07543945 16.10595703 C41.39318024 14.56717201 33.77726237 12.81846686 26.1875 10.875 C25.23343262 10.63362305 24.27936523 10.39224609 23.29638672 10.14355469 C18.70112809 8.92448952 15.02036986 7.60141579 11 5 C8.38994057 4.1312672 5.76971317 3.44266158 3.109375 2.74609375 C1 2 1 2 0 0 Z " fill="#68394B" transform="translate(123,296)"/>
<path d="M0 0 C0 1.32 0 2.64 0 4 C-1.2375 3.9690625 -1.2375 3.9690625 -2.5 3.9375 C-14.86657012 4.15833161 -25.84741164 8.58512413 -34.875 17.1875 C-37.43538193 19.91436416 -38.74753399 22.47971932 -40 26 C-40.66 26 -41.32 26 -42 26 C-42 26.66 -42 27.32 -42 28 C-42.99 28 -43.98 28 -45 28 C-44.02638375 19.9819838 -36.87826694 13.206465 -31 8 C-30.01 7.67 -29.02 7.34 -28 7 C-27.67 6.34 -27.34 5.68 -27 5 C-24.54176088 4.01311568 -22.14789732 3.16040333 -19.625 2.375 C-18.90634766 2.14917236 -18.18769531 1.92334473 -17.44726562 1.69067383 C-11.56494233 -0.04949162 -6.13279564 -0.5846945 0 0 Z " fill="#564D4F" transform="translate(191,188)"/>
<path d="M0 0 C0.33 0 0.66 0 1 0 C1.1546875 1.3921875 1.1546875 1.3921875 1.3125 2.8125 C2.03227796 6.14965236 2.57142872 6.83186532 5 9 C-1.30760257 10.64681249 -7.51527007 12.26309887 -14 13 C-14 13.66 -14 14.32 -14 15 C-14.59167969 15.29132813 -15.18335938 15.58265625 -15.79296875 15.8828125 C-22.37953153 19.2996591 -26.31875909 22.35731136 -29.5 29.25 C-31 32 -31 32 -33.6875 33.375 C-34.450625 33.58125 -35.21375 33.7875 -36 34 C-35.505 31.03 -35.505 31.03 -35 28 C-34.01 27.67 -33.02 27.34 -32 27 C-31.835 26.34 -31.67 25.68 -31.5 25 C-31.335 24.34 -31.17 23.68 -31 23 C-30.01 22.67 -29.02 22.34 -28 22 C-27.87625 21.4225 -27.7525 20.845 -27.625 20.25 C-26.68316645 16.85939923 -24.82723693 14.94410869 -22 13 C-13.02912621 9 -13.02912621 9 -9 9 C-9 8.34 -9 7.68 -9 7 C-6.03 6.34 -3.06 5.68 0 5 C0 3.35 0 1.7 0 0 Z " fill="#51495A" transform="translate(260,134)"/>
<path d="M0 0 C1.32 0 2.64 0 4 0 C4.33 1.32 4.66 2.64 5 4 C5.66 4 6.32 4 7 4 C7 4.66 7 5.32 7 6 C7.66 6 8.32 6 9 6 C9.28875 6.969375 9.5775 7.93875 9.875 8.9375 C10.64214682 12.10664203 10.64214682 12.10664203 13 13 C13 13.99 13 14.98 13 16 C13.9590625 16.2165625 13.9590625 16.2165625 14.9375 16.4375 C17 17 17 17 18 18 C18.23728814 24.52542373 18.23728814 24.52542373 17 27 C17.66 27 18.32 27 19 27 C19 27.66 19 28.32 19 29 C19.99 29.33 20.98 29.66 22 30 C22.33 31.98 22.66 33.96 23 36 C22.34 36 21.68 36 21 36 C14.92355315 28.46992039 10.06895612 19.94148201 5.27539062 11.56274414 C4.87642578 10.86785889 4.47746094 10.17297363 4.06640625 9.45703125 C3.5396228 8.5285437 3.5396228 8.5285437 3.00219727 7.58129883 C1.96828053 5.8224628 1.96828053 5.8224628 0 4 C0 2.68 0 1.36 0 0 Z " fill="#0D2F5E" transform="translate(71,253)"/>
<path d="M0 0 C0 0.99 0 1.98 0 3 C-0.75023437 3.10957031 -1.50046875 3.21914062 -2.2734375 3.33203125 C-9.05683972 4.38286056 -15.48513722 5.83798802 -22 8 C-22 8.66 -22 9.32 -22 10 C-27 12 -27 12 -29.4375 12.6875 C-34.45947055 15.25972882 -37.659756 19.96459347 -40 25 C-40.99 25 -41.98 25 -43 25 C-42.3240406 17.64894152 -38.34210556 14.65657715 -33 10 C-32.02740234 9.12408203 -32.02740234 9.12408203 -31.03515625 8.23046875 C-22.88812283 1.85803667 -10.18670927 -0.42241538 0 0 Z " fill="#625556" transform="translate(175,165)"/>
<path d="M0 0 C0.66 0 1.32 0 2 0 C2 2.31 2 4.62 2 7 C2.66 7 3.32 7 4 7 C3.77120673 9.42039196 3.51795975 11.83389623 3.25 14.25 C3.188125 14.93191406 3.12625 15.61382812 3.0625 16.31640625 C2.52374035 20.94075994 1.50218533 22.99812686 -2 26 C-2.79681318 28.64184541 -2.79681318 28.64184541 -3 31 C-3.99 31.33 -4.98 31.66 -6 32 C-6.66 31.67 -7.32 31.34 -8 31 C-8 27.37 -8 23.74 -8 20 C-6.68 20 -5.36 20 -4 20 C-4 16.04 -4 12.08 -4 8 C-2.68 8 -1.36 8 0 8 C0 5.36 0 2.72 0 0 Z " fill="#AC5A41" transform="translate(26,106)"/>
<path d="M0 0 C0 1.65 0 3.3 0 5 C-3.13498292 6.85776765 -5.37471432 7.20140476 -9 7 C-9 7.66 -9 8.32 -9 9 C-12.3 10.32 -15.6 11.64 -19 13 C-20.125 6.25 -20.125 6.25 -19 4 C-19.66 3.67 -20.32 3.34 -21 3 C-6.36448598 -2.38668224 -6.36448598 -2.38668224 0 0 Z " fill="#84454B" transform="translate(260,134)"/>
<path d="M0 0 C0 0.66 0 1.32 0 2 C-1.18335938 2.30292969 -2.36671875 2.60585937 -3.5859375 2.91796875 C-11.52763596 5.0050162 -19.04611911 7.01734151 -26.25 11.08203125 C-28 12 -28 12 -30 12 C-30.66 13.32 -31.32 14.64 -32 16 C-32.66 16 -33.32 16 -34 16 C-34.433125 16.86625 -34.433125 16.86625 -34.875 17.75 C-35.91666667 19.83333333 -36.95833333 21.91666667 -38 24 C-38.99 24 -39.98 24 -41 24 C-40.86186462 18.47458483 -38.51222263 15.64862013 -34.9140625 11.76171875 C-32.50647334 9.54575403 -30.0061918 8.25840587 -27 7 C-26.34 6.34 -25.68 5.68 -25 5 C-18.12279115 2.0548276 -7.26859691 -2.55523122 0 0 Z " fill="#5D5154" transform="translate(165,154)"/>
<path d="M0 0 C0.33 0 0.66 0 1 0 C0.9172564 4.71638517 0.56762911 7.98133408 -2.5625 11.625 C-12.48876936 20.60591037 -29.14857749 23.32533991 -42.01171875 23.265625 C-42.94240677 23.26753845 -43.87309479 23.2694519 -44.83198547 23.27142334 C-46.7909065 23.27277639 -48.74983675 23.26914187 -50.70874023 23.26074219 C-53.66215864 23.25009139 -56.61496035 23.26063624 -59.56835938 23.2734375 C-69.90034528 23.2799629 -79.81672007 22.91639048 -90 21 C-90 20.34 -90 19.68 -90 19 C-85.42870953 17.61476046 -82.48702402 18.6074753 -78 20 C-72.91019227 20.88042219 -67.90512082 21.18583921 -62.75 21.23828125 C-61.58633911 21.25038887 -61.58633911 21.25038887 -60.39916992 21.26274109 C-58.76206643 21.27650197 -57.12493521 21.28725945 -55.48779297 21.29516602 C-53.84349926 21.30662282 -52.19924087 21.32697348 -50.55517578 21.35668945 C-35.37938474 21.63003083 -22.78497314 19.52783961 -9.29296875 12.171875 C-7 11 -7 11 -5 11 C-5 10.34 -5 9.68 -5 9 C-4.01 8.34 -3.02 7.68 -2 7 C-0.7811879 3.44327821 -0.7811879 3.44327821 0 0 Z " fill="#603246" transform="translate(380,247)"/>
<path d="M0 0 C0 0.99 0 1.98 0 3 C-1.41539062 3.11214844 -1.41539062 3.11214844 -2.859375 3.2265625 C-16.42637954 4.61595453 -28.80601527 9.54130053 -37.875 20.1875 C-39.30722425 22.08309092 -40.68213094 24.02319642 -42 26 C-42.99 25.67 -43.98 25.34 -45 25 C-43.52667814 20.10097885 -40.76124449 17.3407111 -37.1875 13.875 C-36.40536133 13.08802734 -36.40536133 13.08802734 -35.60742188 12.28515625 C-31.52080485 8.25466006 -27.63090904 5.0999679 -21.875 3.9375 C-17.9687944 3.22727094 -17.9687944 3.22727094 -15 1 C-10.08327501 0.00728981 -5.00183724 -0.12825224 0 0 Z " fill="#585557" transform="translate(184,176)"/>
<path d="M0 0 C2.43319348 0.43449884 3.86112946 0.88896343 5.8125 2.44921875 C8.29268246 4.20749096 10.30386391 4.79292734 13.25 5.5 C17.99552206 6.70389754 22.45057286 8.19739679 27 10 C26.67 10.66 26.34 11.32 26 12 C26.66 12.66 27.32 13.32 28 14 C22.0638526 14.43171981 18.50206526 13.5681805 13.1875 10.95703125 C10.11137621 9.61122709 7.33035946 9.28343485 4 9 C4 8.34 4 7.68 4 7 C3.34 7 2.68 7 2 7 C1.67 7.66 1.34 8.32 1 9 C-0.65 8.67 -2.3 8.34 -4 8 C-3.6875 5.625 -3.6875 5.625 -3 3 C-2.01 2.34 -1.02 1.68 0 1 C0 0.67 0 0.34 0 0 Z " fill="#E39457" transform="translate(112,66)"/>
<path d="M0 0 C5.07330256 -0.32382782 8.7659979 0.40922651 13.52734375 2.140625 C17.13519842 3.39453974 20.82064357 4.3091687 24.51953125 5.25390625 C26.85566261 5.95658513 28.86101511 6.83826695 31 8 C24.13484138 8.26404456 17.74153283 7.25841946 11 6 C11.34227572 8.97065509 11.34227572 8.97065509 12 12 C12.66 12.33 13.32 12.66 14 13 C13.67 14.32 13.34 15.64 13 17 C12.39671875 16.25234375 11.7934375 15.5046875 11.171875 14.734375 C10.37265625 13.74953125 9.5734375 12.7646875 8.75 11.75 C7.96109375 10.77546875 7.1721875 9.8009375 6.359375 8.796875 C4.09277734 6.01702749 4.09277734 6.01702749 1.703125 3.765625 C0 2 0 2 0 0 Z " fill="#24304A" transform="translate(259,258)"/>
<path d="M0 0 C0.99 0.2165625 0.99 0.2165625 2 0.4375 C4.82816941 1.02604993 4.82816941 1.02604993 7.04296875 1.1484375 C9.1875 1.3125 9.1875 1.3125 13 2 C13.25265625 2.58910156 13.5053125 3.17820312 13.765625 3.78515625 C15.72087374 7.29346649 19.03934316 8.40431244 22.5625 10.125 C29.88006757 13.76013514 29.88006757 13.76013514 31 16 C28.525 15.505 28.525 15.505 26 15 C25.67 15.66 25.34 16.32 25 17 C19.25 13.25 19.25 13.25 17 11 C13.81720186 9.78105603 11.42085146 9 8 9 C7.67 7.68 7.34 6.36 7 5 C4.03 4.505 4.03 4.505 1 4 C0.67 2.68 0.34 1.36 0 0 Z " fill="#AB744A" transform="translate(65,100)"/>
<path d="M0 0 C4.455 0.99 4.455 0.99 9 2 C9 3.98 9 5.96 9 8 C9.5775 8.268125 10.155 8.53625 10.75 8.8125 C13.09634823 10.05085045 15.05207752 11.19121484 17 13 C17 14.32 17 15.64 17 17 C17.99 17 18.98 17 20 17 C20 18.32 20 19.64 20 21 C21.32 21.33 22.64 21.66 24 22 C24 22.99 24 23.98 24 25 C25.32 25 26.64 25 28 25 C28 26.32 28 27.64 28 29 C29.65 29 31.3 29 33 29 C33 29.99 33 30.98 33 32 C27.0898575 30.6506524 24.0998361 27.61475446 20.0625 23.375 C19.44568359 22.74343994 18.82886719 22.11187988 18.19335938 21.46118164 C14.47494075 17.62816096 10.89957407 13.6995882 7.46484375 9.609375 C5.94311294 7.93750008 4.3387218 6.58222381 2.5625 5.1875 C1.716875 4.465625 0.87125 3.74375 0 3 C0 2.01 0 1.02 0 0 Z " fill="#070508" transform="translate(261,137)"/>
<path d="M0 0 C1.66611905 -0.042721 3.33382885 -0.04063832 5 0 C6.58272601 1.58272601 6.34735747 3.38034003 6.5625 5.5625 C6.68818359 6.80193359 6.68818359 6.80193359 6.81640625 8.06640625 C6.87699219 8.70449219 6.93757813 9.34257813 7 10 C6.01 9.67 5.02 9.34 4 9 C-1.68439408 8.60048032 -6.03706501 9.71927573 -11.3125 11.5625 C-13.86713137 12.44475772 -16.40044345 13.24927869 -19 14 C-19.66 13.67 -20.32 13.34 -21 13 C-18.58792334 8.75015064 -16.1658911 7.47254129 -11.625 6.1875 C-7.68182381 5.24789443 -4.07239088 4.66980614 0 5 C0 3.35 0 1.7 0 0 Z " fill="#3B3248" transform="translate(244,114)"/>
<path d="M0 0 C0.33 0 0.66 0 1 0 C1 1.98 1 3.96 1 6 C-0.32 6 -1.64 6 -3 6 C-3 7.32 -3 8.64 -3 10 C-4.65 10 -6.3 10 -8 10 C-8 11.32 -8 12.64 -8 14 C-12.455 14.495 -12.455 14.495 -17 15 C-17.33 15.99 -17.66 16.98 -18 18 C-25.26 18 -32.52 18 -40 18 C-39.67 17.34 -39.34 16.68 -39 16 C-37.92363281 15.99742187 -36.84726562 15.99484375 -35.73828125 15.9921875 C-22.5625585 15.73464204 -12.27486848 12.73538152 -2.390625 3.515625 C-0.90135857 2.03202529 -0.90135857 2.03202529 0 0 Z " fill="#030306" transform="translate(385,264)"/>
<path d="M0 0 C0.66 0 1.32 0 2 0 C1.814375 1.010625 1.62875 2.02125 1.4375 3.0625 C0.83063868 6.9452207 0.83063868 6.9452207 1.5625 10.5625 C2.05345585 14.42001024 1.30445221 16.3935733 0 20 C0.01675781 20.89976563 0.03351562 21.79953125 0.05078125 22.7265625 C-0.00821509 26.5295576 -0.8190524 29.66292927 -1.875 33.3125 C-2.22304688 34.54613281 -2.57109375 35.77976563 -2.9296875 37.05078125 C-4 40 -4 40 -6 41 C-5.54091234 38.16895946 -5.0722246 35.3473397 -4.48828125 32.5390625 C-3.15573718 25.94249681 -2.76595668 19.72224422 -3 13 C-2.34 13 -1.68 13 -1 13 C-1 12.01 -1 11.02 -1 10 C-1.66 10 -2.32 10 -3 10 C-3 7.69 -3 5.38 -3 3 C-2.34 3 -1.68 3 -1 3 C-0.67 2.01 -0.34 1.02 0 0 Z " fill="#B67053" transform="translate(31,103)"/>
<path d="M0 0 C0.66 0 1.32 0 2 0 C2.96884325 4.81763359 3.10222482 9.4634696 3.02734375 14.35546875 C3.0147087 15.96288856 3.00234693 17.57031054 2.99023438 19.17773438 C2.96533864 21.69269683 2.93723552 24.20754483 2.90405273 26.72241211 C2.87390931 29.1626052 2.8561053 31.60264933 2.83984375 34.04296875 C2.82638412 34.79611862 2.8129245 35.54926849 2.79905701 36.32524109 C2.78081401 40.1110028 2.84479922 41.76719884 5 45 C3.35 44.67 1.7 44.34 0 44 C0 29.48 0 14.96 0 0 Z " fill="#06060A" transform="translate(14,181)"/>
<path d="M0 0 C3.3 0.33 6.6 0.66 10 1 C10 2.32 10 3.64 10 5 C13.63 5 17.26 5 21 5 C21 5.99 21 6.98 21 8 C21.66 8 22.32 8 23 8 C22.67 8.99 22.34 9.98 22 11 C21.34 10.34 20.68 9.68 20 9 C17.93125966 8.3574765 17.93125966 8.3574765 16 8 C16.99 10.31 17.98 12.62 19 15 C17.02 14.34 15.04 13.68 13 13 C12.938125 12.21625 12.87625 11.4325 12.8125 10.625 C12.544375 9.75875 12.27625 8.8925 12 8 C9.80067065 6.83486387 9.80067065 6.83486387 7 6 C4.62280624 4.73511637 2.32182779 3.36578105 0 2 C0 1.34 0 0.68 0 0 Z " fill="#78363E" transform="translate(219,101)"/>
<path d="M0 0 C4.81095997 0.68728 7.01921089 3.73289358 9.88671875 7.4375 C10.48097656 8.283125 11.07523438 9.12875 11.6875 10 C12.28949219 10.845625 12.89148438 11.69125 13.51171875 12.5625 C14.89499035 14.82801569 15.38363766 16.47078903 16 19 C18.47906969 21.7295585 18.47906969 21.7295585 21 24 C20.67 24.66 20.34 25.32 20 26 C18.68 25.34 17.36 24.68 16 24 C16 23.01 16 22.02 16 21 C15.01 20.67 14.02 20.34 13 20 C12.67 18.02 12.34 16.04 12 14 C11.34 14 10.68 14 10 14 C10 13.34 10 12.68 10 12 C9.34 12 8.68 12 8 12 C7.67 10.68 7.34 9.36 7 8 C5.68 8 4.36 8 3 8 C2.67 8.99 2.34 9.98 2 11 C-0.32590854 7.36576791 -0.16265833 4.22911669 0 0 Z " fill="#1D274E" transform="translate(68,245)"/>
<path d="M0 0 C0.33 0.33 0.66 0.66 1 1 C2.68183948 1.23287008 4.3712416 1.41264166 6.0625 1.5625 C7.44115234 1.68818359 7.44115234 1.68818359 8.84765625 1.81640625 C9.91306641 1.90728516 9.91306641 1.90728516 11 2 C10.67 3.98 10.34 5.96 10 8 C5.05 7.01 0.1 6.02 -5 5 C-5 4.67 -5 4.34 -5 4 C-7.31 3.67 -9.62 3.34 -12 3 C-12.33 2.01 -12.66 1.02 -13 0 C-8.38081284 -1.29914639 -4.66586566 -0.77764428 0 0 Z " fill="#A97840" transform="translate(177,92)"/>
<path d="M0 0 C4.02261586 3.70504092 6.68602505 7.44852041 9.375 12.1875 C12.544676 17.63406991 15.86829216 22.85518005 19.58984375 27.94921875 C20.93459754 29.90488562 21.99659492 31.85261619 23 34 C22.01 34 21.02 34 20 34 C19.67 33.01 19.34 32.02 19 31 C18.01 30.67 17.02 30.34 16 30 C16 28.68 16 27.36 16 26 C14.68 25.67 13.36 25.34 12 25 C11.67 23.02 11.34 21.04 11 19 C10.01 18.67 9.02 18.34 8 18 C7.29508733 15.67793475 6.62787571 13.34406932 6 11 C5.34 10.67 4.68 10.34 4 10 C4 8.68 4 7.36 4 6 C2.68 5.67 1.36 5.34 0 5 C0 3.35 0 1.7 0 0 Z " fill="#060712" transform="translate(70,256)"/>
<path d="M0 0 C0.99 0 1.98 0 3 0 C2.67 6.93 2.34 13.86 2 21 C0.02 21.99 0.02 21.99 -2 23 C-2 28.61 -2 34.22 -2 40 C-2.66 39.67 -3.32 39.34 -4 39 C-4 33.06 -4 27.12 -4 21 C-2.68 20.67 -1.36 20.34 0 20 C0 13.4 0 6.8 0 0 Z " fill="#060305" transform="translate(14,138)"/>
<path d="M0 0 C0.66 0.33 1.32 0.66 2 1 C2 3.97 2 6.94 2 10 C1.34 9.67 0.68 9.34 0 9 C-0.66 11.31 -1.32 13.62 -2 16 C-2.639375 16.103125 -3.27875 16.20625 -3.9375 16.3125 C-4.618125 16.539375 -5.29875 16.76625 -6 17 C-6.33 17.99 -6.66 18.98 -7 20 C-10.0625 21.1875 -10.0625 21.1875 -13 22 C-13 22.66 -13 23.32 -13 24 C-15.64 24 -18.28 24 -21 24 C-18.27047531 21.90179394 -15.47531514 20.01999895 -12.5625 18.1875 C-5.35206854 13.35686611 -2.28283496 8.3518352 0 0 Z " fill="#04060A" transform="translate(284,302)"/>
<path d="M0 0 C15.84 0.495 15.84 0.495 32 1 C32 1.99 32 2.98 32 4 C27.79179855 4.08742801 23.58383224 4.14053641 19.375 4.1875 C17.59029297 4.22520508 17.59029297 4.22520508 15.76953125 4.26367188 C4.87831038 4.35493909 4.87831038 4.35493909 0 1 C0 0.67 0 0.34 0 0 Z " fill="#1F1012" transform="translate(187,97)"/>
<path d="M0 0 C2.97 0.495 2.97 0.495 6 1 C6.33 1.99 6.66 2.98 7 4 C8.65 4.33 10.3 4.66 12 5 C12 6.32 12 7.64 12 9 C13.65 9 15.3 9 17 9 C17 10.65 17 12.3 17 14 C17.556875 14.226875 18.11375 14.45375 18.6875 14.6875 C21.63246684 16.35896766 23.68156544 18.55276352 26 21 C21.63006007 20.12861669 18.78148596 17.73735479 15.375 15 C11.38454204 11.70190162 11.38454204 11.70190162 7 9 C6.54625 8.195625 6.0925 7.39125 5.625 6.5625 C3.92131672 3.87592252 2.91346909 3.10510897 0 2 C0 1.34 0 0.68 0 0 Z " fill="#8B4956" transform="translate(333,197)"/>
<path d="M0 0 C4.85963179 0.60745397 8.7405518 2.72758967 13 5 C13 5.66 13 6.32 13 7 C14.010625 7.268125 15.02125 7.53625 16.0625 7.8125 C19.87327442 8.8935156 23.38875208 10.37862338 27 12 C27 12.66 27 13.32 27 14 C27.556875 14.15855469 28.11375 14.31710938 28.6875 14.48046875 C34.40316044 16.22799331 39.08551563 18.61208571 44 22 C43.01 22.33 42.02 22.66 41 23 C39.29883624 22.05988318 37.63495707 21.05104383 36 20 C35.30777344 19.731875 34.61554688 19.46375 33.90234375 19.1875 C29.77112773 17.49720435 25.8796667 15.40049059 21.9375 13.3125 C20.67909302 12.6474646 20.67909302 12.6474646 19.39526367 11.96899414 C5.45689232 4.56168421 5.45689232 4.56168421 0 1 C0 0.67 0 0.34 0 0 Z " fill="#BD7857" transform="translate(96,116)"/>
<path d="M0 0 C0.33 0.66 0.66 1.32 1 2 C1.99 2.33 2.98 2.66 4 3 C3.25105469 3.39058594 2.50210938 3.78117188 1.73046875 4.18359375 C-1.28371699 6.18873877 -2.71399006 8.05123427 -4.6875 11.0625 C-7.87391304 15.87391304 -7.87391304 15.87391304 -10 18 C-10.99 18 -11.98 18 -13 18 C-12.47444512 13.62299071 -10.97102399 11.2524113 -8.1875 7.875 C-7.50042969 7.02679688 -6.81335938 6.17859375 -6.10546875 5.3046875 C-4.19332562 3.21161802 -2.32849399 1.60116666 0 0 Z " fill="#574751" transform="translate(229,138)"/>
<path d="M0 0 C0.66 0 1.32 0 2 0 C2 2.31 2 4.62 2 7 C2.66 7 3.32 7 4 7 C3.74379316 8.6065676 3.46944129 10.2102483 3.1875 11.8125 C3.03667969 12.70582031 2.88585937 13.59914063 2.73046875 14.51953125 C1.94604607 17.18321256 1.11372201 18.25690322 -1 20 C-1.33 19.01 -1.66 18.02 -2 17 C-2.66 17.33 -3.32 17.66 -4 18 C-4 14.7 -4 11.4 -4 8 C-2.68 8 -1.36 8 0 8 C0 5.36 0 2.72 0 0 Z " fill="#954733" transform="translate(26,106)"/>
<path d="M0 0 C4.34234485 0.23700759 8.68383259 0.48553244 13.02490234 0.74462891 C14.5009581 0.83111275 15.9772001 0.91447796 17.45361328 0.99462891 C19.57902074 1.11056022 21.70350013 1.23778862 23.828125 1.3671875 C25.7447998 1.47716064 25.7447998 1.47716064 27.70019531 1.58935547 C31 2 31 2 35 4 C23.78 4 12.56 4 1 4 C0.67 2.68 0.34 1.36 0 0 Z " fill="#040307" transform="translate(288,278)"/>
<path d="M0 0 C0.66 0 1.32 0 2 0 C2.33 1.32 2.66 2.64 3 4 C3.66 4 4.32 4 5 4 C5 4.66 5 5.32 5 6 C5.66 6 6.32 6 7 6 C7.28875 6.969375 7.5775 7.93875 7.875 8.9375 C8.64214682 12.10664203 8.64214682 12.10664203 11 13 C11 13.99 11 14.98 11 16 C11.9590625 16.2165625 11.9590625 16.2165625 12.9375 16.4375 C15 17 15 17 16 18 C16.04063832 19.66617115 16.042721 21.33388095 16 23 C15.01 23 14.02 23 13 23 C9.25468516 19.01305194 5 13.59705585 5 8 C4.34 8 3.68 8 3 8 C0 1.125 0 1.125 0 0 Z " fill="#01265D" transform="translate(73,253)"/>
<path d="M0 0 C0 0.66 0 1.32 0 2 C-1.24136719 2.33773437 -2.48273438 2.67546875 -3.76171875 3.0234375 C-5.4036876 3.4738061 -7.04561237 3.92433539 -8.6875 4.375 C-9.91243164 4.70757812 -9.91243164 4.70757812 -11.16210938 5.046875 C-14.50431796 5.9669972 -17.69808456 6.87206282 -20.89453125 8.2265625 C-23 9 -23 9 -26 8 C-21.49585662 3.75000891 -17.88321381 1.95148876 -11.875 0.625 C-11.17246094 0.44839844 -10.46992188 0.27179688 -9.74609375 0.08984375 C-6.23457019 -0.73991134 -3.42248639 -1.36544794 0 0 Z " fill="#584746" transform="translate(165,154)"/>
<path d="M0 0 C0.33 0 0.66 0 1 0 C1.103125 0.928125 1.20625 1.85625 1.3125 2.8125 C2.03227796 6.14965236 2.57142872 6.83186532 5 9 C-1.9796804 10.77149249 -8.96212627 12.47512736 -16 14 C-15.67 12.68 -15.34 11.36 -15 10 C-13.02 9.67 -11.04 9.34 -9 9 C-9 8.34 -9 7.68 -9 7 C-6.03 6.34 -3.06 5.68 0 5 C0 3.35 0 1.7 0 0 Z " fill="#3D2D3C" transform="translate(260,134)"/>
<path d="M0 0 C0.33 0.99 0.66 1.98 1 3 C1.66 3 2.32 3 3 3 C3 3.66 3 4.32 3 5 C3.66 5 4.32 5 5 5 C6.06775224 6.96466413 7.06553465 8.96855359 8 11 C7.67 11.66 7.34 12.32 7 13 C6.67 12.01 6.34 11.02 6 10 C2.62911733 12.27415287 2.62911733 12.27415287 1 16 C-1.5625 17.1875 -1.5625 17.1875 -4 18 C-3.125 13.25 -3.125 13.25 -2 11 C-1.34 11 -0.68 11 0 11 C0 7.37 0 3.74 0 0 Z " fill="#B96653" transform="translate(96,78)"/>
<path d="M0 0 C3.74973906 -0.11622939 7.49901464 -0.1872595 11.25 -0.25 C12.31347656 -0.28351563 13.37695312 -0.31703125 14.47265625 -0.3515625 C15.49746094 -0.36445312 16.52226563 -0.37734375 17.578125 -0.390625 C18.99206543 -0.4220459 18.99206543 -0.4220459 20.43457031 -0.45410156 C23.73490211 0.13008355 24.91612464 1.44324052 27 4 C27 4.33 27 4.66 27 5 C23.83721567 5.1916839 21.68408335 4.90054476 18.625 3.9375 C15.05380899 2.75386761 15.05380899 2.75386761 11.5625 3.5625 C6.83513767 4.14305327 4.32379293 2.89640041 0 1 C0 0.67 0 0.34 0 0 Z " fill="#D18545" transform="translate(37,96)"/>
<path d="M0 0 C0 1.32 0 2.64 0 4 C-0.95261719 4.04898438 -1.90523437 4.09796875 -2.88671875 4.1484375 C-4.14097656 4.22320312 -5.39523438 4.29796875 -6.6875 4.375 C-8.54955078 4.47941406 -8.54955078 4.47941406 -10.44921875 4.5859375 C-13.69317772 4.96422094 -16.06567185 5.61979976 -19 7 C-19.33 5.68 -19.66 4.36 -20 3 C-13.21256822 0.18447274 -7.31110994 -0.3689719 0 0 Z " fill="#674F4B" transform="translate(191,188)"/>
<path d="M0 0 C0.969375 0.165 1.93875 0.33 2.9375 0.5 C5.9052331 1.29133785 5.9052331 1.29133785 8 0 C10.04055005 -0.07065617 12.08334257 -0.08421976 14.125 -0.0625 C15.22070312 -0.05347656 16.31640625 -0.04445313 17.4453125 -0.03515625 C18.70988281 -0.01775391 18.70988281 -0.01775391 20 0 C20.495 0.99 20.495 0.99 21 2 C17.26689567 3.18817968 13.72508355 3.11362739 9.828125 3.09765625 C8.8044986 3.09553383 8.8044986 3.09553383 7.76019287 3.09336853 C5.59008316 3.08779084 3.4200783 3.07524254 1.25 3.0625 C-0.22525892 3.05748211 -1.70051947 3.05291971 -3.17578125 3.04882812 C-6.78388798 3.03782875 -10.39193375 3.02057953 -14 3 C-10.85868908 1.32328343 -8.89044025 0.78965123 -5.3125 0.9375 C-3.87586654 0.99157949 -2.43750606 1.02041084 -1 1 C-0.67 0.67 -0.34 0.34 0 0 Z " fill="#954F4F" transform="translate(229,302)"/>
<path d="M0 0 C0 0.99 0 1.98 0 3 C-1.00160156 3.10957031 -2.00320312 3.21914062 -3.03515625 3.33203125 C-9.78792575 4.12058922 -15.8545525 4.92727625 -22 8 C-22.99 8 -23.98 8 -25 8 C-24 5 -24 5 -22.1875 4.0859375 C-21.465625 3.85132813 -20.74375 3.61671875 -20 3.375 C-17.25730729 2.58884867 -17.25730729 2.58884867 -15 1 C-10.03441439 0.15323698 -5.03211565 -0.12902861 0 0 Z " fill="#604C49" transform="translate(184,176)"/>
<path d="M0 0 C0.66 0.99 1.32 1.98 2 3 C0.34908794 4.65091206 -1.80038812 4.52028094 -4.0625 4.875 C-7.71528874 5.50200665 -11.05204024 6.26379428 -14.5 7.625 C-18 9 -18 9 -21 9 C-21 8.34 -21 7.68 -21 7 C-14.64465079 2.43209275 -7.67022044 0.68484111 0 0 Z " fill="#362537" transform="translate(273,151)"/>
<path d="M0 0 C0.66 0.33 1.32 0.66 2 1 C0.71034824 2.37562854 -0.62689293 3.70766393 -2 5 C-2.66 5 -3.32 5 -4 5 C-4.226875 5.53625 -4.45375 6.0725 -4.6875 6.625 C-6 9 -6 9 -8.5625 12 C-10.6678113 14.59115237 -11.62904804 15.785083 -12 19 C-8.59548229 17.86516076 -8.3994436 17.44722063 -6.8125 14.4375 C-6.214375 13.303125 -5.61625 12.16875 -5 11 C-4 14 -4 14 -4.890625 15.7890625 C-5.33921875 16.39492187 -5.7878125 17.00078125 -6.25 17.625 C-6.68828125 18.23601562 -7.1265625 18.84703125 -7.578125 19.4765625 C-9 21 -9 21 -12 22 C-14 20 -14 20 -14.3046875 17.64453125 C-13.94402306 14.51414886 -13.05990432 13.14547654 -11.125 10.6875 C-10.59132813 9.99011719 -10.05765625 9.29273438 -9.5078125 8.57421875 C-9.01023437 8.05472656 -8.51265625 7.53523437 -8 7 C-7.34 7 -6.68 7 -6 7 C-5.67 6.01 -5.34 5.02 -5 4 C-3.66666667 3.66666667 -2.33333333 3.33333333 -1 3 C-0.67 2.01 -0.34 1.02 0 0 Z " fill="#A6725E" transform="translate(136,159)"/>
<path d="M0 0 C9.50904899 -0.32417212 18.61304896 0.66581407 28 2 C28 2.33 28 2.66 28 3 C18.76 3 9.52 3 0 3 C0 2.01 0 1.02 0 0 Z " fill="#040205" transform="translate(188,327)"/>
<path d="M0 0 C-1 3 -1 3 -3.58203125 4.38671875 C-4.64808594 4.81597656 -5.71414062 5.24523437 -6.8125 5.6875 C-7.87082031 6.12449219 -8.92914063 6.56148437 -10.01953125 7.01171875 C-13 8 -13 8 -17 8 C-17 7.01 -17 6.02 -17 5 C-15.730447 4.35165346 -14.45930294 3.70642185 -13.1875 3.0625 C-12.47980469 2.70285156 -11.77210938 2.34320313 -11.04296875 1.97265625 C-7.2023748 0.14415167 -4.20923377 -0.09353853 0 0 Z " fill="#463747" transform="translate(247,132)"/>
<path d="M0 0 C0 0.99 0 1.98 0 3 C-0.79664063 3.12117187 -1.59328125 3.24234375 -2.4140625 3.3671875 C-9.04544216 4.40090057 -9.04544216 4.40090057 -15.5 6.1875 C-18.18103708 7.05883705 -19.40253023 6.99902683 -22 6 C-19.39439273 2.71306786 -16.69917215 2.18701677 -12.6875 1.3125 C-11.57761719 1.06113281 -10.46773437 0.80976563 -9.32421875 0.55078125 C-6.14342569 0.02376383 -3.21646244 -0.10218716 0 0 Z " fill="#664B48" transform="translate(175,165)"/>
<path d="M0 0 C0.66 0 1.32 0 2 0 C2 0.66 2 1.32 2 2 C2.66 2 3.32 2 4 2 C5.82729049 3.93530766 7.46895378 5.99047623 9.1484375 8.0546875 C11.0201631 10.02118402 12.54979598 10.90358517 15 12 C15.45375 12.474375 15.9075 12.94875 16.375 13.4375 C18.08369126 15.23557541 18.08369126 15.23557541 21.125 16.5625 C24 18 24 18 25 20 C15.12037847 18.24362284 7.4688614 11.09922348 1.14453125 3.6640625 C0 2 0 2 0 0 Z " fill="#6B424C" transform="translate(92,273)"/>
<path d="M0 0 C0 1.65 0 3.3 0 5 C-2.6875 6.1875 -2.6875 6.1875 -6 7 C-8.875 5.625 -8.875 5.625 -11 4 C-10.3125 2.0625 -10.3125 2.0625 -9 0 C-5.6813976 -1.13531135 -3.31010574 -1.10336858 0 0 Z " fill="#934B4C" transform="translate(260,134)"/>
<path d="M0 0 C4.82043259 0.60722504 8.54860666 2.65061441 12.75 4.9375 C13.43449219 5.29779297 14.11898437 5.65808594 14.82421875 6.02929688 C19.87138731 8.74277463 19.87138731 8.74277463 21 11 C18.525 10.505 18.525 10.505 16 10 C15.67 10.66 15.34 11.32 15 12 C10.78173429 9.35132153 7.4957345 6.58772752 4 3 C2.68824014 1.97186389 1.3630107 0.95915568 0 0 Z " fill="#D0865F" transform="translate(75,105)"/>
<path d="M0 0 C1.65 0 3.3 0 5 0 C5.33 0.99 5.66 1.98 6 3 C6.66 3.165 7.32 3.33 8 3.5 C8.66 3.665 9.32 3.83 10 4 C10.33 4.99 10.66 5.98 11 7 C13.97 7.495 13.97 7.495 17 8 C17.33 8.99 17.66 9.98 18 11 C20.01508358 11.73323796 20.01508358 11.73323796 22 12 C22 12.99 22 13.98 22 15 C18.8826087 13.83097826 15.83337277 12.52263513 12.8125 11.125 C12.13832031 10.81820312 11.46414063 10.51140625 10.76953125 10.1953125 C8.61430279 8.73946281 8.09873191 7.3143502 7 5 C5.34795544 4.29788106 3.68076231 3.63028587 2 3 C1.34 2.01 0.68 1.02 0 0 Z " fill="#291014" transform="translate(311,182)"/>
<path d="M0 0 C1.69921875 1.51953125 1.69921875 1.51953125 3 3 C2.11957031 2.96519531 1.23914063 2.93039063 0.33203125 2.89453125 C-1.41013672 2.85392578 -1.41013672 2.85392578 -3.1875 2.8125 C-4.33605469 2.77769531 -5.48460937 2.74289063 -6.66796875 2.70703125 C-11.27072382 3.11172835 -13.78317409 4.78317409 -17 8 C-21 8 -21 8 -24 6 C-16.25089346 2.3048242 -8.78897061 -0.86166379 0 0 Z " fill="#74414E" transform="translate(248,122)"/>
<path d="M0 0 C-1.13772614 2.27545227 -2.29559301 3.20223858 -4.25 4.8125 C-6.55966368 6.7427528 -8.73448652 8.69773811 -10.8125 10.875 C-13 13 -13 13 -15 13 C-13.56179563 7.72658399 -9.9961885 4.50608991 -6 1 C-4 0 -4 0 0 0 Z " fill="#A96C57" transform="translate(158,188)"/>
<path d="M0 0 C-2.69176627 1.74173111 -5.05844089 3.01870108 -8.125 4 C-11.00302473 4.76709589 -11.00302473 4.76709589 -12.625 6.625 C-13.07875 7.07875 -13.5325 7.5325 -14 8 C-15.32 8 -16.64 8 -18 8 C-18 8.66 -18 9.32 -18 10 C-22.31818182 14.65909091 -22.31818182 14.65909091 -25 16 C-23.52307692 11.32307692 -23.52307692 11.32307692 -20.875 9.6875 C-20.25625 9.460625 -19.6375 9.23375 -19 9 C-19 8.34 -19 7.68 -19 7 C-14.13492979 3.079478 -6.19336964 -2.06445655 0 0 Z " fill="#845657" transform="translate(266,157)"/>
<path d="M0 0 C2.375 0.25 2.375 0.25 5 1 C6.3125 3.0625 6.3125 3.0625 7 5 C7.66 5 8.32 5 9 5 C9 6.32 9 7.64 9 9 C6.69 9 4.38 9 2 9 C1.855625 8.071875 1.71125 7.14375 1.5625 6.1875 C1.07899889 2.99274889 1.07899889 2.99274889 0 0 Z " fill="#A55557" transform="translate(235,109)"/>
<path d="M0 0 C0.66 0 1.32 0 2 0 C2 3.63 2 7.26 2 11 C1.34 11 0.68 11 0 11 C-0.28875 11.763125 -0.5775 12.52625 -0.875 13.3125 C-2 16 -2 16 -4 19 C-4 15.7 -4 12.4 -4 9 C-2.68 8.67 -1.36 8.34 0 8 C0 5.36 0 2.72 0 0 Z " fill="#622920" transform="translate(94,78)"/>
<path d="M0 0 C6.31121503 1.0992895 12.06338584 2.58137942 18 5 C18 4.34 18 3.68 18 3 C20.97 3.495 20.97 3.495 24 4 C23.67 4.66 23.34 5.32 23 6 C23.66 6.66 24.32 7.32 25 8 C19.0638526 8.43171981 15.50206526 7.5681805 10.1875 4.95703125 C7.11137621 3.61122709 4.33035946 3.28343485 1 3 C0.67 2.01 0.34 1.02 0 0 Z " fill="#CC7A44" transform="translate(115,72)"/>
<path d="M0 0 C0 0.99 0 1.98 0 3 C-3.15830185 6.06806466 -5.61999924 7.49942848 -10 8 C-9.67 5.69 -9.34 3.38 -9 1 C-5.8035914 -0.06546953 -3.34252724 -0.07427838 0 0 Z " fill="#D3845D" transform="translate(107,73)"/>
<path d="M0 0 C0.66 0 1.32 0 2 0 C1.814375 1.010625 1.62875 2.02125 1.4375 3.0625 C0.83063868 6.9452207 0.83063868 6.9452207 1.5625 10.5625 C2.04467165 14.35099155 1.44684902 16.51054059 0 20 C-1.60725635 16.78548731 -1.05748185 13.56387464 -1 10 C-1.66 10 -2.32 10 -3 10 C-3 7.69 -3 5.38 -3 3 C-2.34 3 -1.68 3 -1 3 C-0.67 2.01 -0.34 1.02 0 0 Z " fill="#CD7F56" transform="translate(31,103)"/>
<path d="M0 0 C2.64 0 5.28 0 8 0 C8 1.32 8 2.64 8 4 C11.63 4 15.26 4 19 4 C19 4.99 19 5.98 19 7 C19.66 7 20.32 7 21 7 C20.67 7.99 20.34 8.98 20 10 C19.60554688 9.525625 19.21109375 9.05125 18.8046875 8.5625 C16.56520738 6.62355617 15.03423272 6.42444733 12.125 6 C7.03832216 5.11020213 3.68918022 3.68918022 0 0 Z " fill="#0D0A0D" transform="translate(221,102)"/>
<path d="M0 0 C-1.72744016 0.65043719 -3.4570369 1.29514844 -5.1875 1.9375 C-6.15042969 2.29714844 -7.11335938 2.65679687 -8.10546875 3.02734375 C-13.77969653 4.93406807 -18.88299084 5.12711326 -24.8125 5.0625 C-25.99489258 5.05573242 -25.99489258 5.05573242 -27.20117188 5.04882812 C-29.13414761 5.03711312 -31.06708393 5.01917998 -33 5 C-33 4.67 -33 4.34 -33 4 C-32.175 3.97421875 -31.35 3.9484375 -30.5 3.921875 C-22.71828671 3.53973729 -15.72115418 2.41996496 -8.24414062 0.28417969 C-3.29136564 -1.09712188 -3.29136564 -1.09712188 0 0 Z " fill="#7C404C" transform="translate(265,311)"/>
<path d="M0 0 C-1.49097658 3.7952131 -3.75700849 5.61042731 -7 8 C-7 7.34 -7 6.68 -7 6 C-7.99 6.33 -8.98 6.66 -10 7 C-10 5.35 -10 3.7 -10 2 C-3.375 0 -3.375 0 0 0 Z " fill="#956544" transform="translate(40,97)"/>
<path d="M0 0 C0.93972656 0.23396484 0.93972656 0.23396484 1.8984375 0.47265625 C3.12433594 0.76462891 3.12433594 0.76462891 4.375 1.0625 C5.59316406 1.35833984 5.59316406 1.35833984 6.8359375 1.66015625 C9.04161284 2.22109319 9.04161284 2.22109319 11 1 C12.9453125 1.55859375 12.9453125 1.55859375 15.125 2.4375 C15.84945312 2.72496094 16.57390625 3.01242188 17.3203125 3.30859375 C17.87460938 3.53675781 18.42890625 3.76492187 19 4 C19 4.66 19 5.32 19 6 C17.02 6.33 15.04 6.66 13 7 C13 6.34 13 5.68 13 5 C12.05125 4.855625 11.1025 4.71125 10.125 4.5625 C7 4 7 4 5 3 C4.67 3.66 4.34 4.32 4 5 C3.67 4.01 3.34 3.02 3 2 C2.01 2 1.02 2 0 2 C0 1.34 0 0.68 0 0 Z " fill="#D38855" transform="translate(177,97)"/>
<path d="M0 0 C4.29926263 1.59231949 6.35005733 4.39313359 9 8 C9 8.99 9 9.98 9 11 C6.03 10.505 6.03 10.505 3 10 C1.87119943 6.68885166 0.78697325 3.41021743 0 0 Z " fill="#A3504B" transform="translate(277,157)"/>
<path d="M0 0 C3.96 0 7.92 0 12 0 C12.33 0.99 12.66 1.98 13 3 C15.64 3.33 18.28 3.66 21 4 C21 4.99 21 5.98 21 7 C16.13649648 6.00398839 11.58784238 4.93172311 7 3 C4.67251306 2.31320058 2.34013344 1.64238957 0 1 C0 0.67 0 0.34 0 0 Z " fill="#161211" transform="translate(120,70)"/>
<path d="M0 0 C4.95 0 9.9 0 15 0 C15 0.99 15 1.98 15 3 C10.05 3 5.1 3 0 3 C0 2.01 0 1.02 0 0 Z " fill="#050408" transform="translate(221,331)"/>
<path d="M0 0 C0.33 0.99 0.66 1.98 1 3 C-5.93 3 -12.86 3 -20 3 C-20 2.34 -20 1.68 -20 1 C-17.04170322 0.832662 -14.08336635 0.66609948 -11.125 0.5 C-9.86236328 0.42845703 -9.86236328 0.42845703 -8.57421875 0.35546875 C-7.76855469 0.31035156 -6.96289062 0.26523437 -6.1328125 0.21875 C-5.38918457 0.17685547 -4.64555664 0.13496094 -3.87939453 0.09179688 C-2.58744125 0.0286929 -1.29349349 0 0 0 Z " fill="#030206" transform="translate(260,327)"/>
<path d="M0 0 C0.66 0 1.32 0 2 0 C0.85385323 2.97998161 -0.68459595 4.70604705 -3 6.8125 C-6.29153787 9.95150319 -7.11704449 12.58522247 -8 17 C-7.34 17.33 -6.68 17.66 -6 18 C-7.32 17.67 -8.64 17.34 -10 17 C-10.20257027 13.35373509 -10.01679759 11.07321538 -8 8 C-5.5 5.25 -5.5 5.25 -3 3 C-2.34 3 -1.68 3 -1 3 C-0.67 2.01 -0.34 1.02 0 0 Z " fill="#A06B59" transform="translate(147,187)"/>
<path d="M0 0 C0.66 0.33 1.32 0.66 2 1 C-0.69923716 7.26223021 -3.52799707 10.94211018 -9 15 C-11.475 14.01 -11.475 14.01 -14 13 C-12 12 -12 12 -10.0625 11.75 C-7.0555351 10.65655822 -6.53577755 8.7643996 -5 6 C-3.39507826 3.9406727 -1.70376882 1.98005566 0 0 Z " fill="#9D6C5B" transform="translate(143,178)"/>
<path d="M0 0 C-1.20118343 8.92307692 -1.20118343 8.92307692 -2 11 C-2.99 11.33 -3.98 11.66 -5 12 C-5 8.37 -5 4.74 -5 1 C-1 0 -1 0 0 0 Z " fill="#AB5D4D" transform="translate(23,125)"/>
<path d="M0 0 C0.86882812 0.14824219 1.73765625 0.29648438 2.6328125 0.44921875 C4.875 1.3125 4.875 1.3125 6.1796875 3.39453125 C6.40914062 4.02746094 6.63859375 4.66039063 6.875 5.3125 C0 4.4375 0 4.4375 -1.125 3.3125 C-2.28 3.168125 -3.435 3.02375 -4.625 2.875 C-5.78 2.689375 -6.935 2.50375 -8.125 2.3125 C-8.455 1.6525 -8.785 0.9925 -9.125 0.3125 C-5.82496836 -0.75425441 -3.39528571 -0.63344883 0 0 Z " fill="#E5963E" transform="translate(126.125,71.6875)"/>
<path d="M0 0 C2.64680904 0.11339204 5.29177518 0.24012873 7.9375 0.375 C9.06961914 0.42140625 9.06961914 0.42140625 10.22460938 0.46875 C12.15507395 0.5726315 14.07942081 0.77895614 16 1 C16.33 1.66 16.66 2.32 17 3 C11.39 3 5.78 3 0 3 C0 2.01 0 1.02 0 0 Z " fill="#030205" transform="translate(167,323)"/>
<path d="M0 0 C0.33 0 0.66 0 1 0 C1.60265418 4.58208494 1.86937695 8.42889455 -0.41796875 12.5625 C-3.28501494 16.27926777 -6.15705394 19.28783232 -10 22 C-8.65469371 19.06361031 -7.08714488 16.82739524 -5 14.375 C-1.54337755 9.90668317 -0.65696631 5.52757863 0 0 Z " fill="#7A4043" transform="translate(279,286)"/>
<path d="M0 0 C7.38778946 -0.47156103 13.47571106 1.61267166 20 5 C5.81545064 5.51580179 5.81545064 5.51580179 1.23828125 1.42578125 C0.82964844 0.95527344 0.42101562 0.48476563 0 0 Z " fill="#593649" transform="translate(270,261)"/>
<path d="M0 0 C3.875 0.875 3.875 0.875 5 2 C5.04080783 3.99958364 5.04254356 6.00045254 5 8 C4.34 8 3.68 8 3 8 C2.67 8.99 2.34 9.98 2 11 C-0.32590854 7.36576791 -0.16265833 4.22911669 0 0 Z " fill="#072851" transform="translate(68,245)"/>
<path d="M0 0 C1.66611905 -0.042721 3.33382885 -0.04063832 5 0 C6.58272601 1.58272601 6.34735747 3.38034003 6.5625 5.5625 C6.64628906 6.38878906 6.73007813 7.21507813 6.81640625 8.06640625 C6.87699219 8.70449219 6.93757812 9.34257813 7 10 C4.49377424 9.01615105 3.25137839 8.46711358 1.953125 6.0546875 C1.60507813 4.97574219 1.60507813 4.97574219 1.25 3.875 C1.00765625 3.15054688 0.7653125 2.42609375 0.515625 1.6796875 C0.34546875 1.12539062 0.1753125 0.57109375 0 0 Z " fill="#020306" transform="translate(244,114)"/>
<path d="M0 0 C-0.99 0.66 -1.98 1.32 -3 2 C-2.01 2.99 -1.02 3.98 0 5 C-1.65 5 -3.3 5 -5 5 C-5 4.67 -5 4.34 -5 4 C-7.31 3.67 -9.62 3.34 -12 3 C-12.33 2.01 -12.66 1.02 -13 0 C-8.38926889 -1.29676812 -4.66159911 -0.71109139 0 0 Z " fill="#C47F43" transform="translate(177,92)"/>
<path d="M0 0 C1.32 0 2.64 0 4 0 C4.33 0.99 4.66 1.98 5 3 C6.65 3.33 8.3 3.66 10 4 C10 5.32 10 6.64 10 8 C11.65 8 13.3 8 15 8 C14.01 9.485 14.01 9.485 13 11 C8.34148756 8.04582138 3.98497101 4.8317029 0 1 C0 0.67 0 0.34 0 0 Z " fill="#170A0D" transform="translate(295,170)"/>
<path d="M0 0 C1.32 0.33 2.64 0.66 4 1 C3.34 1 2.68 1 2 1 C2 1.66 2 2.32 2 3 C2.66 3.33 3.32 3.66 4 4 C2.54293274 4.50367757 1.08429904 5.00282556 -0.375 5.5 C-1.59316406 5.91765625 -1.59316406 5.91765625 -2.8359375 6.34375 C-5 7 -5 7 -7 7 C-6.67 5.68 -6.34 4.36 -6 3 C-4.02 2.67 -2.04 2.34 0 2 C0 1.34 0 0.68 0 0 Z " fill="#433848" transform="translate(251,141)"/>
<path d="M0 0 C0.66 0 1.32 0 2 0 C2 0.66 2 1.32 2 2 C3.65 2 5.3 2 7 2 C7.66 3.32 8.32 4.64 9 6 C7.68 5.67 6.36 5.34 5 5 C4.34 6.32 3.68 7.64 3 9 C0.90250005 6.64031256 0.03094296 5.45383006 -0.1875 2.25 C-0.125625 1.5075 -0.06375 0.765 0 0 Z " fill="#102544" transform="translate(64,241)"/>
<path d="M0 0 C0 3 0 3 -1.6796875 4.75390625 C-2.76636719 5.64916016 -2.76636719 5.64916016 -3.875 6.5625 C-4.95394531 7.46162109 -4.95394531 7.46162109 -6.0546875 8.37890625 C-6.69664062 8.91386719 -7.33859375 9.44882813 -8 10 C-8.66 10.66 -9.32 11.32 -10 12 C-9.72758599 7.36896185 -7.73496293 5.3195116 -4.5703125 2.234375 C-3 1 -3 1 0 0 Z " fill="#9F705F" transform="translate(162,201)"/>
<path d="M0 0 C3.63 0 7.26 0 11 0 C11 0.99 11 1.98 11 3 C7.04 3 3.08 3 -1 3 C-0.67 2.01 -0.34 1.02 0 0 Z " fill="#534241" transform="translate(180,188)"/>
<path d="M0 0 C0.66 0.33 1.32 0.66 2 1 C2 1.66 2 2.32 2 3 C4.31 3 6.62 3 9 3 C9 3.33 9 3.66 9 4 C8.14277344 4.19335938 7.28554687 4.38671875 6.40234375 4.5859375 C0.55346826 5.91792493 -5.25718743 7.26380085 -11 9 C-8.48169253 5.87729874 -7.2738451 5.05476902 -3.25 4.25 C-1.64125 4.12625 -1.64125 4.12625 0 4 C0 2.68 0 1.36 0 0 Z " fill="#7D4951" transform="translate(235,115)"/>
<path d="M0 0 C0.99 0 1.98 0 3 0 C2.67 6.93 2.34 13.86 2 21 C1.67 21 1.34 21 1 21 C0.67 14.07 0.34 7.14 0 0 Z " fill="#16120F" transform="translate(14,138)"/>
<path d="M0 0 C0.66 0 1.32 0 2 0 C1.69201674 1.48011371 1.378482 2.95907325 1.0625 4.4375 C0.88847656 5.26121094 0.71445313 6.08492188 0.53515625 6.93359375 C0 9 0 9 -1 10 C-3.33944736 9.71269945 -5.6739143 9.38063221 -8 9 C-8 8.67 -8 8.34 -8 8 C-6.02 8 -4.04 8 -2 8 C-2.04125 7.05125 -2.0825 6.1025 -2.125 5.125 C-2 2 -2 2 0 0 Z " fill="#180D0C" transform="translate(88,98)"/>
<path d="M0 0 C0.33 0 0.66 0 1 0 C1.03738281 1.08539063 1.07476562 2.17078125 1.11328125 3.2890625 C1.17897875 4.73440739 1.24542476 6.17971839 1.3125 7.625 C1.33505859 8.33785156 1.35761719 9.05070313 1.38085938 9.78515625 C1.62006968 14.52586948 2.54264397 17.82315355 5 22 C3.35 21.67 1.7 21.34 0 21 C0 14.07 0 7.14 0 0 Z " fill="#010002" transform="translate(14,204)"/>
<path d="M0 0 C3.63 0 7.26 0 11 0 C11 0.99 11 1.98 11 3 C7.04 3 3.08 3 -1 3 C-0.67 2.01 -0.34 1.02 0 0 Z " fill="#050409" transform="translate(329,283)"/>
<path d="M0 0 C0.99 0 1.98 0 3 0 C3.81302325 1.45804169 4.62540131 2.91644315 5.4375 4.375 C5.88996094 5.18710938 6.34242187 5.99921875 6.80859375 6.8359375 C7.5650536 8.20996622 8.29854631 9.59709261 9 11 C7.68 10.67 6.36 10.34 5 10 C5 9.01 5 8.02 5 7 C4.34 7 3.68 7 3 7 C2.67 6.01 2.34 5.02 2 4 C1.01 3.67 0.02 3.34 -1 3 C-0.67 2.01 -0.34 1.02 0 0 Z " fill="#040814" transform="translate(61,243)"/>
<path d="M0 0 C1.2077558 3.62326739 0.54311128 4.64146369 -1 8 C-0.01 8 0.98 8 2 8 C2 7.34 2 6.68 2 6 C2.99 5.67 3.98 5.34 5 5 C3.63016497 8.16115776 3.0109362 8.9927092 0 11 C-0.99 10.34 -1.98 9.68 -3 9 C-3.375 6.0625 -3.375 6.0625 -3 3 C-1.5 1.125 -1.5 1.125 0 0 Z " fill="#9E6D59" transform="translate(147,208)"/>
<path d="M0 0 C0.66 0.33 1.32 0.66 2 1 C-0.08813673 4.95646959 -2.22791287 7.54814337 -6 10 C-6.99 9.67 -7.98 9.34 -9 9 C-6.31941902 5.42589203 -3.57410797 2.68058098 0 0 Z " fill="#4D4250" transform="translate(224,124)"/>
<path d="M0 0 C2.97 0.495 2.97 0.495 6 1 C6.33 1.99 6.66 2.98 7 4 C8.65 4.33 10.3 4.66 12 5 C12 6.32 12 7.64 12 9 C9.16661778 7.62159784 6.44311194 6.13581614 3.75 4.5 C3.04359375 4.0771875 2.3371875 3.654375 1.609375 3.21875 C1.07828125 2.8165625 0.5471875 2.414375 0 2 C0 1.34 0 0.68 0 0 Z " fill="#19090D" transform="translate(333,197)"/>
<path d="M0 0 C1.2065625 0.0309375 1.2065625 0.0309375 2.4375 0.0625 C1.75 2.4375 1.75 2.4375 0.4375 5.0625 C-2.1875 6.375 -2.1875 6.375 -4.5625 7.0625 C-3.5234375 0.0859375 -3.5234375 0.0859375 0 0 Z " fill="#5E4C53" transform="translate(228.5625,160.9375)"/>
<path d="M0 0 C-0.33 0.66 -0.66 1.32 -1 2 C-0.34 2.33 0.32 2.66 1 3 C-2.37097383 4.49821059 -4.20442119 5 -8 5 C-8 4.01 -8 3.02 -8 2 C-3.71900826 -1.23966942 -3.71900826 -1.23966942 0 0 Z " fill="#4D424C" transform="translate(238,135)"/>
<path d="M0 0 C0.99 0.33 1.98 0.66 3 1 C3.12375 1.5775 3.2475 2.155 3.375 2.75 C4.29697411 6.06910681 6.51797119 7.70889648 9 10 C8.67 10.66 8.34 11.32 8 12 C6.68 11.34 5.36 10.68 4 10 C4 9.01 4 8.02 4 7 C3.01 6.67 2.02 6.34 1 6 C0.67 4.02 0.34 2.04 0 0 Z " fill="#0F244F" transform="translate(80,259)"/>
<path d="M0 0 C1.62580966 0.11398665 3.25067157 0.24155659 4.875 0.375 C5.77992188 0.44460938 6.68484375 0.51421875 7.6171875 0.5859375 C10 1 10 1 12 3 C8.04 3 4.08 3 0 3 C0 2.01 0 1.02 0 0 Z " fill="#040307" transform="translate(152,319)"/>
<path d="M0 0 C0 0.99 0 1.98 0 3 C-3.96 3 -7.92 3 -12 3 C-12 2.34 -12 1.68 -12 1 C-7.915021 0.45533613 -4.1274515 0 0 0 Z " fill="#020306" transform="translate(59,247)"/>
<path d="M0 0 C1.69752187 0.25245197 3.38471545 0.57645775 5.0625 0.9375 C5.98160156 1.13214844 6.90070313 1.32679688 7.84765625 1.52734375 C8.91306641 1.76130859 8.91306641 1.76130859 10 2 C10 2.33 10 2.66 10 3 C7.03 3 4.06 3 1 3 C1.33 4.65 1.66 6.3 2 8 C-0.36556709 5.63443291 -0.58244041 4.25696479 -1 1 C-0.67 0.67 -0.34 0.34 0 0 Z " fill="#040509" transform="translate(276,275)"/>
<path d="M0 0 C0.33 0 0.66 0 1 0 C1 1.98 1 3.96 1 6 C1.99 6.33 2.98 6.66 4 7 C2.68 7 1.36 7 0 7 C-0.66 8.32 -1.32 9.64 -2 11 C-2.66 10.34 -3.32 9.68 -4 9 C-3.2884375 7.88625 -3.2884375 7.88625 -2.5625 6.75 C-1.22130673 4.38949985 -0.487688 2.63351523 0 0 Z " fill="#1D203B" transform="translate(382,249)"/>
<path d="M0 0 C1.65 0 3.3 0 5 0 C5.33 0.99 5.66 1.98 6 3 C8.01508358 3.73323796 8.01508358 3.73323796 10 4 C10 4.99 10 5.98 10 7 C6.4124787 5.66749209 3.1635377 4.169283 0 2 C0 1.34 0 0.68 0 0 Z " fill="#17070B" transform="translate(323,190)"/>
<path d="M0 0 C0.66 0.33 1.32 0.66 2 1 C-2 5 -6 9 -10 13 C-9.40336911 7.82919893 -5.56485751 4.26880339 -1.6875 1.125 C-1.130625 0.75375 -0.57375 0.3825 0 0 Z " fill="#A9705A" transform="translate(140,175)"/>
<path d="M0 0 C0 0.99 0 1.98 0 3 C-3.63 3 -7.26 3 -11 3 C-10 1 -10 1 -8.3125 0.375 C-5.51555886 -0.07855802 -2.82858003 -0.06428591 0 0 Z " fill="#604543" transform="translate(175,165)"/>
<path d="M0 0 C3 3.625 3 3.625 3 7 C-2.53846154 7.36923077 -2.53846154 7.36923077 -4.875 5.5 C-5.24625 5.005 -5.6175 4.51 -6 4 C-4.02 4 -2.04 4 0 4 C0 2.68 0 1.36 0 0 Z " fill="#443241" transform="translate(244,115)"/>
<path d="M0 0 C2.31 0 4.62 0 7 0 C7.33 1.32 7.66 2.64 8 4 C5.03 4 2.06 4 -1 4 C-0.67 2.68 -0.34 1.36 0 0 Z " fill="#7B562A" transform="translate(152,82)"/>
<path d="M0 0 C6.4 -0.36923077 6.4 -0.36923077 9.4375 1.5 C9.953125 1.995 10.46875 2.49 11 3 C6.545 3.495 6.545 3.495 2 4 C1.34 2.68 0.68 1.36 0 0 Z " fill="#573C49" transform="translate(259,258)"/>
<path d="M0 0 C3.53586014 3.17320782 5.58578031 5.16743695 6 10 C5.34 10 4.68 10 4 10 C4 8.68 4 7.36 4 6 C2.68 5.67 1.36 5.34 0 5 C0 3.35 0 1.7 0 0 Z " fill="#05040B" transform="translate(70,256)"/>
<path d="M0 0 C0.66 0 1.32 0 2 0 C3.4375 1.8984375 3.4375 1.8984375 5 4.375 C6.57112484 6.84952162 7.92383041 8.92383041 10 11 C9.67 11.99 9.34 12.98 9 14 C5.48453819 9.51750177 2.35287886 5.22861968 0 0 Z " fill="#77414B" transform="translate(72,244)"/>
<path d="M0 0 C1.485 0.99 1.485 0.99 3 2 C5.32387947 2.39387788 7.65793749 2.73486085 10 3 C10 3.99 10 4.98 10 6 C3.375 5.25 3.375 5.25 0 3 C0 2.01 0 1.02 0 0 Z " fill="#542932" transform="translate(340,203)"/>
<path d="M0 0 C-1.33333333 0.66666667 -2.66666667 1.33333333 -4 2 C-4.680625 2.37125 -5.36125 2.7425 -6.0625 3.125 C-8 4 -8 4 -11 4 C-11 3.34 -11 2.68 -11 2 C-7.09100481 -1.10420207 -4.76837457 -1.21981675 0 0 Z " fill="#323547" transform="translate(263,156)"/>
<path d="M0 0 C0.66 0.33 1.32 0.66 2 1 C1.67 1.66 1.34 2.32 1 3 C1.66 3.33 2.32 3.66 3 4 C-0.44069624 6.29379749 -1.72290301 7 -6 7 C-5.67 6.01 -5.34 5.02 -5 4 C-4.01 3.67 -3.02 3.34 -2 3 C-1.34 2.01 -0.68 1.02 0 0 Z " fill="#4E4550" transform="translate(243,145)"/>
<path d="M0 0 C4.95 0.33 9.9 0.66 15 1 C12.50840482 3.49159518 11.50698662 3.77128348 8 4 C5.24155286 3.20163682 2.62743385 2.15398459 0 1 C0 0.67 0 0.34 0 0 Z " fill="#C57C48" transform="translate(37,96)"/>
<path d="M0 0 C4.9723422 1.49170266 9.41845739 3.60457417 14 6 C14 6.33 14 6.66 14 7 C9.83513802 7.30017023 7.34984273 6.45324946 3.6875 4.5 C2.80449219 4.0359375 1.92148438 3.571875 1.01171875 3.09375 C0.34785156 2.7328125 -0.31601563 2.371875 -1 2 C-0.67 1.34 -0.34 0.68 0 0 Z " fill="#CE804A" transform="translate(148,84)"/>
<path d="M0 0 C0.33 0.99 0.66 1.98 1 3 C1.66 3 2.32 3 3 3 C3.33 4.98 3.66 6.96 4 9 C2.68 9.33 1.36 9.66 0 10 C0 6.7 0 3.4 0 0 Z " fill="#BA583D" transform="translate(96,78)"/>
<path d="M0 0 C1.37562854 1.28965176 2.70766393 2.62689293 4 4 C4 4.66 4 5.32 4 6 C4.66 6 5.32 6 6 6 C7.6875 8.375 7.6875 8.375 9 11 C8.67 11.66 8.34 12.32 8 13 C3 7.25 3 7.25 3 5 C2.01 4.67 1.02 4.34 0 4 C0 2.68 0 1.36 0 0 Z " fill="#653D4D" transform="translate(83,260)"/>
<path d="M0 0 C6 6 6 6 6.09765625 7.84765625 C6.06510417 9.8984375 6.03255208 11.94921875 6 14 C5.67 14 5.34 14 5 14 C4.34 11.03 3.68 8.06 3 5 C2.34 5 1.68 5 1 5 C0.67 3.35 0.34 1.7 0 0 Z " fill="#793D46" transform="translate(374,233)"/>
<path d="M0 0 C1 3 1 3 0.109375 4.7890625 C-0.33921875 5.39492187 -0.7878125 6.00078125 -1.25 6.625 C-1.68828125 7.23601562 -2.1265625 7.84703125 -2.578125 8.4765625 C-4 10 -4 10 -7 11 C-8 10 -8 10 -8.0625 7.4375 C-8.041875 6.633125 -8.02125 5.82875 -8 5 C-7.67 5.99 -7.34 6.98 -7 8 C-3.59548229 6.86516076 -3.3994436 6.44722063 -1.8125 3.4375 C-1.214375 2.303125 -0.61625 1.16875 0 0 Z " fill="#98695B" transform="translate(131,170)"/>
<path d="M0 0 C0.66 0.33 1.32 0.66 2 1 C1.01 4.3 0.02 7.6 -1 11 C-1.66 11 -2.32 11 -3 11 C-3.32613618 6.32538149 -2.70582788 3.83325617 0 0 Z " fill="#BA674D" transform="translate(16,156)"/>
<path d="M0 0 C0.66 0.33 1.32 0.66 2 1 C1.34 1.66 0.68 2.32 0 3 C-0.165 3.99 -0.33 4.98 -0.5 6 C-1 9 -1 9 -3 11 C-3 10.01 -3 9.02 -3 8 C-3.66 8 -4.32 8 -5 8 C-3.62845496 5.04590299 -2.01136276 2.55991624 0 0 Z " fill="#604D58" transform="translate(225,141)"/>
<path d="M0 0 C0.66 0.33 1.32 0.66 2 1 C0.33333333 2.66666667 -1.33333333 4.33333333 -3 6 C-3.556875 6.598125 -4.11375 7.19625 -4.6875 7.8125 C-6 9 -6 9 -8 9 C-6.4169423 4.7257442 -3.49431596 2.73468206 0 0 Z " fill="#AA6953" transform="translate(160,194)"/>
<path d="M0 0 C0.66 0.33 1.32 0.66 2 1 C1.67 1.66 1.34 2.32 1 3 C1.66 3.33 2.32 3.66 3 4 C0.625 5.5625 0.625 5.5625 -2 7 C-2.66 6.67 -3.32 6.34 -4 6 C-3.67 5.67 -3.34 5.34 -3 5 C-3.66 4.34 -4.32 3.68 -5 3 C-2.625 1.4375 -2.625 1.4375 0 0 Z " fill="#645754" transform="translate(158,181)"/>
<path d="M0 0 C4.75481646 0.57634139 7.97048212 2.55068521 12 5 C12 5.66 12 6.32 12 7 C8.22145886 6.48938633 6.51289577 5.84066479 4 3 C2.68036291 1.98199424 1.34990354 0.97751635 0 0 Z " fill="#E4A269" transform="translate(75,105)"/>
<path d="M0 0 C0.66 0.33 1.32 0.66 2 1 C0.38731308 3.71224618 -1.24901874 6.37352812 -3 9 C-3.66 9 -4.32 9 -5 9 C-4.5206753 4.68607774 -3.2542015 2.83430453 0 0 Z " fill="#C45F49" transform="translate(97,87)"/>
<path d="M0 0 C2.31 0 4.62 0 7 0 C7 0.99 7 1.98 7 3 C5.68 3 4.36 3 3 3 C2.67 3.66 2.34 4.32 2 5 C0.68 4.34 -0.64 3.68 -2 3 C-1.34 2.67 -0.68 2.34 0 2 C0 1.34 0 0.68 0 0 Z " fill="#83572B" transform="translate(143,78)"/>
<path d="M0 0 C-4.33664919 3.11696661 -7.80408388 3.55966813 -13 4 C-10.96180154 1.96180154 -9.70582202 1.32158941 -7.0625 0.3125 C-6.37285156 0.04050781 -5.68320312 -0.23148438 -4.97265625 -0.51171875 C-3 -1 -3 -1 0 0 Z " fill="#734851" transform="translate(266,157)"/>
<path d="M0 0 C1.32 0.33 2.64 0.66 4 1 C3.360625 1.2475 2.72125 1.495 2.0625 1.75 C-0.18741541 2.81562433 -0.18741541 2.81562433 -0.75 5.125 C-0.8325 5.74375 -0.915 6.3625 -1 7 C-2.65 7 -4.3 7 -6 7 C-4.02 4.69 -2.04 2.38 0 0 Z " fill="#5B4D57" transform="translate(238,147)"/>
<path d="M0 0 C0.33 0 0.66 0 1 0 C1.37211538 7.56634615 1.37211538 7.56634615 -0.51171875 9.76171875 C-1.00285156 10.17035156 -1.49398438 10.57898438 -2 11 C-2.05399736 9.54207116 -2.09279177 8.08357288 -2.125 6.625 C-2.15980469 5.40683594 -2.15980469 5.40683594 -2.1953125 4.1640625 C-2 2 -2 2 0 0 Z " fill="#B26854" transform="translate(19,136)"/>
<path d="M0 0 C0.21278058 4.46839215 -0.40861915 7.82262526 -2 12 C-2.33 12 -2.66 12 -3 12 C-3 8.37 -3 4.74 -3 1 C-1 0 -1 0 0 0 Z " fill="#B3674A" transform="translate(31,115)"/>
<path d="M0 0 C1.32 0 2.64 0 4 0 C3.01 3.3 2.02 6.6 1 10 C0.67 10 0.34 10 0 10 C0 6.7 0 3.4 0 0 Z " fill="#250F0E" transform="translate(22,114)"/>
<path d="M0 0 C3.37462715 0.54723683 5.08235 1.0549 8 3 C6.1875 4.0625 6.1875 4.0625 4 5 C3.01 4.67 2.02 4.34 1 4 C0.3125 1.9375 0.3125 1.9375 0 0 Z " fill="#D89657" transform="translate(65,100)"/>
<path d="M0 0 C0.99 0.33 1.98 0.66 3 1 C2.01 4.3 1.02 7.6 0 11 C-0.33 11 -0.66 11 -1 11 C-1.02688151 9.35425434 -1.04634123 7.70838587 -1.0625 6.0625 C-1.07410156 5.14597656 -1.08570312 4.22945313 -1.09765625 3.28515625 C-1 1 -1 1 0 0 Z " fill="#0E0505" transform="translate(91,86)"/>
<path d="M0 0 C0 0.99 0 1.98 0 3 C-2.64 3 -5.28 3 -8 3 C-8 2.34 -8 1.68 -8 1 C-5.29120665 -0.35439668 -2.99066732 -0.06501451 0 0 Z " fill="#564040" transform="translate(184,176)"/>
<path d="M0 0 C-2.35028228 1.17514114 -4.70260711 2.3441341 -7.0625 3.5 C-10.07779265 4.96835739 -10.07779265 4.96835739 -13 7 C-10.66265451 0.83790735 -6.22059253 -0.43399483 0 0 Z " fill="#886258" transform="translate(149,156)"/>
<path d="M0 0 C-4.05808065 2.7053871 -8.04889399 5 -13 5 C-12.67 4.01 -12.34 3.02 -12 2 C-7.92532275 0.51117562 -4.33458585 -0.26270217 0 0 Z " fill="#664451" transform="translate(264,153)"/>
<path d="M0 0 C-7.0547046 4.07877462 -7.0547046 4.07877462 -11 3.75 C-11.66 3.5025 -12.32 3.255 -13 3 C-4.57724436 -1.36735478 -4.57724436 -1.36735478 0 0 Z " fill="#764451" transform="translate(259,145)"/>
<path d="M0 0 C0.66 0 1.32 0 2 0 C2 0.66 2 1.32 2 2 C3.32 2.33 4.64 2.66 6 3 C1.05 4.485 1.05 4.485 -4 6 C-2.7260411 3.96166576 -1.38938077 1.96147874 0 0 Z " fill="#413B4A" transform="translate(227,122)"/>
<path d="M0 0 C2.31 0 4.62 0 7 0 C6.67 0.66 6.34 1.32 6 2 C5.01 2.33 4.02 2.66 3 3 C3 3.66 3 4.32 3 5 C1.68 5 0.36 5 -1 5 C-0.67 3.35 -0.34 1.7 0 0 Z " fill="#8D5E35" transform="translate(63,98)"/>
<path d="M0 0 C1.8125 0.25 1.8125 0.25 4 1 C4.99 2.32 5.98 3.64 7 5 C3.7 4.67 0.4 4.34 -3 4 C-2.01 3.01 -1.02 2.02 0 1 C0 0.67 0 0.34 0 0 Z " fill="#AC7A3B" transform="translate(112,66)"/>
<path d="M0 0 C3.20217249 2.13478166 4.27285259 3.62795029 6 7 C6 7.99 6 8.98 6 10 C5.34 10 4.68 10 4 10 C0 3.375 0 3.375 0 0 Z " fill="#123665" transform="translate(79,266)"/>
<path d="M0 0 C0.66 0.33 1.32 0.66 2 1 C1.3125 3.4375 1.3125 3.4375 0 6 C-2.625 6.8125 -2.625 6.8125 -5 7 C-3.70700306 4.11562221 -2.34058637 2.12780579 0 0 Z " fill="#5C5757" transform="translate(157,199)"/>
<path d="M0 0 C0.99 0 1.98 0 3 0 C2.4140625 6.15234375 2.4140625 6.15234375 2 8 C1.01 8.495 1.01 8.495 0 9 C0 6.03 0 3.06 0 0 Z " fill="#19100E" transform="translate(18,126)"/>
<path d="M0 0 C1.98 0 3.96 0 6 0 C6.33 0.99 6.66 1.98 7 3 C6.34 3.66 5.68 4.32 5 5 C5 4.34 5 3.68 5 3 C3.35 3 1.7 3 0 3 C0 2.01 0 1.02 0 0 Z " fill="#775539" transform="translate(102,70)"/>
<path d="M0 0 C2.97 0.99 5.94 1.98 9 3 C9 3.33 9 3.66 9 4 C6.36 4 3.72 4 1 4 C0.67 2.68 0.34 1.36 0 0 Z " fill="#06070E" transform="translate(118,306)"/>
<path d="M0 0 C2.31 0.33 4.62 0.66 7 1 C7 2.65 7 4.3 7 6 C3.535 4.02 3.535 4.02 0 2 C0 1.34 0 0.68 0 0 Z " fill="#13080B" transform="translate(350,209)"/>
<path d="M0 0 C3.68754757 0.49831724 5.60490662 1.10067643 8 4 C5 5 5 5 2.875 4.25 C1 3 1 3 0 0 Z " fill="#EA9C44" transform="translate(145,80)"/>
<path d="M0 0 C2.97 0.495 2.97 0.495 6 1 C5.67 1.66 5.34 2.32 5 3 C5.66 3.66 6.32 4.32 7 5 C2.545 4.01 2.545 4.01 -2 3 C-1.34 2.67 -0.68 2.34 0 2 C0 1.34 0 0.68 0 0 Z " fill="#D18439" transform="translate(133,75)"/>
<path d="M0 0 C2.97 0.99 5.94 1.98 9 3 C9 3.33 9 3.66 9 4 C6.36 4 3.72 4 1 4 C0.67 2.68 0.34 1.36 0 0 Z " fill="#030307" transform="translate(127,310)"/>
<path d="M0 0 C0.99 0.33 1.98 0.66 3 1 C1.37660195 2.70884005 -0.29319053 4.37446717 -2 6 C-2.66 6 -3.32 6 -4 6 C-2.25 1.125 -2.25 1.125 0 0 Z " fill="#454D50" transform="translate(161,197)"/>
<path d="M0 0 C0 3.57575896 -1.08840607 5.05295935 -3 8 C-3.99 7.67 -4.98 7.34 -6 7 C-4.02 4.69 -2.04 2.38 0 0 Z " fill="#534B4F" transform="translate(145,194)"/>
<path d="M0 0 C0 3.57575896 -1.08840607 5.05295935 -3 8 C-3.99 7.67 -4.98 7.34 -6 7 C-5.34 6.01 -4.68 5.02 -4 4 C-3.34 4 -2.68 4 -2 4 C-1.34 2.68 -0.68 1.36 0 0 Z " fill="#80595A" transform="translate(240,173)"/>
<path d="M0 0 C0.33 0.99 0.66 1.98 1 3 C-0.75 4.125 -0.75 4.125 -3 5 C-5.25 4.125 -5.25 4.125 -7 3 C-2.25 0 -2.25 0 0 0 Z " fill="#514953" transform="translate(252,158)"/>
<path d="M0 0 C-1.25 1.5 -1.25 1.5 -3 3 C-7 3 -7 3 -10 1 C-3.375 -1.125 -3.375 -1.125 0 0 Z " fill="#8A4C4E" transform="translate(234,127)"/>
<path d="M0 0 C1.32 0.33 2.64 0.66 4 1 C4.33 2.32 4.66 3.64 5 5 C3.35 5 1.7 5 0 5 C0 3.35 0 1.7 0 0 Z " fill="#954C52" transform="translate(247,124)"/>
<path d="M0 0 C0.33 0 0.66 0 1 0 C1.6875 2.8125 1.6875 2.8125 2 6 C0.8125 7.9375 0.8125 7.9375 -1 9 C-3.1875 8.6875 -3.1875 8.6875 -5 8 C-4.01 7.67 -3.02 7.34 -2 7 C-0.77030122 3.48809191 -0.77030122 3.48809191 0 0 Z " fill="#A25143" transform="translate(89,100)"/>
<path d="M0 0 C1.98 0 3.96 0 6 0 C5.67 0.66 5.34 1.32 5 2 C4.34 2 3.68 2 3 2 C2.67 2.66 2.34 3.32 2 4 C0.68 4 -0.64 4 -2 4 C-1.34 2.68 -0.68 1.36 0 0 Z " fill="#ECA373" transform="translate(101,73)"/>
<path d="M0 0 C2.64 1.98 5.28 3.96 8 6 C7.01 6.495 7.01 6.495 6 7 C3.5249829 5.88568235 1.32116581 4.41849022 -1 3 C-0.67 2.01 -0.34 1.02 0 0 Z " fill="#93484D" transform="translate(294,170)"/>
<path d="M0 0 C0.8353125 0.37125 0.8353125 0.37125 1.6875 0.75 C-1.125 2.8125 -1.125 2.8125 -4.3125 4.75 C-5.3025 4.42 -6.2925 4.09 -7.3125 3.75 C-2.88173077 -0.31153846 -2.88173077 -0.31153846 0 0 Z " fill="#894C4E" transform="translate(237.3125,138.25)"/>
<path d="M0 0 C1.65 0 3.3 0 5 0 C5 1.65 5 3.3 5 5 C3.0625 4.1875 3.0625 4.1875 1 3 C0.67 2.01 0.34 1.02 0 0 Z " fill="#030105" transform="translate(253,126)"/>
<path d="M0 0 C2.475 0.495 2.475 0.495 5 1 C5.33 1.99 5.66 2.98 6 4 C4.35 4 2.7 4 1 4 C0.67 2.68 0.34 1.36 0 0 Z " fill="#E19A57" transform="translate(58,97)"/>
<path d="M0 0 C6.0546875 -0.1953125 6.0546875 -0.1953125 8 0 C8.66 0.66 9.32 1.32 10 2 C7.69 1.67 5.38 1.34 3 1 C2.67 1.99 2.34 2.98 2 4 C1.34 2.68 0.68 1.36 0 0 Z " fill="#333045" transform="translate(262,261)"/>
<path d="M0 0 C0.33 0.66 0.66 1.32 1 2 C-0.2739589 4.03833424 -1.61061923 6.03852126 -3 8 C-3.66 8 -4.32 8 -5 8 C-3.8141763 4.62496331 -2.72426311 2.35277269 0 0 Z " fill="#8F6A61" transform="translate(148,193)"/>
<path d="M0 0 C1.98 0.66 3.96 1.32 6 2 C5.01 2.495 5.01 2.495 4 3 C3.67 3.99 3.34 4.98 3 6 C1.68 4.35 0.36 2.7 -1 1 C-0.67 0.67 -0.34 0.34 0 0 Z " fill="#9A4B4D" transform="translate(288,167)"/>
<path d="M0 0 C1.9375 0.75 1.9375 0.75 4 2 C4.75 4.125 4.75 4.125 5 6 C2.5 4.6875 2.5 4.6875 0 3 C0 2.01 0 1.02 0 0 Z " fill="#AC564E" transform="translate(277,157)"/>
<path d="M0 0 C0.33 0 0.66 0 1 0 C0.67 2.97 0.34 5.94 0 9 C-0.33 8.34 -0.66 7.68 -1 7 C-1.66 6.67 -2.32 6.34 -3 6 C-2.01 4.02 -1.02 2.04 0 0 Z " fill="#A76657" transform="translate(185,118)"/>
<path d="M0 0 C2.64 0 5.28 0 8 0 C8 0.99 8 1.98 8 3 C2.25 2.25 2.25 2.25 0 0 Z " fill="#080407" transform="translate(221,102)"/>
</svg>
