<?xml version="1.0" encoding="UTF-8"?>
<svg version="1.1" xmlns="http://www.w3.org/2000/svg" width="512" height="512">
<path d="M0 0 C1.17690903 -0.01007584 1.17690903 -0.01007584 2.37759399 -0.02035522 C4.95915141 -0.03927767 7.54044795 -0.04325676 10.12207031 -0.04541016 C11.92799992 -0.05184304 13.7339285 -0.05857176 15.53985596 -0.06558228 C19.32249363 -0.07754136 23.10504008 -0.08126461 26.88769531 -0.08007812 C31.71381953 -0.07987524 36.53935292 -0.10715237 41.36533737 -0.14162254 C45.09562824 -0.16395975 48.82577858 -0.16791355 52.55612946 -0.16685867 C54.33418052 -0.16920533 56.11223601 -0.17797567 57.89022064 -0.19352341 C68.74809314 -0.27956799 77.209579 0.15424006 86.70019531 5.97802734 C94.26312281 13.75103616 97.2660745 21.55267509 97.19070435 32.25021362 C97.19326762 33.58709974 97.19326762 33.58709974 97.19588268 34.95099366 C97.19917152 37.93127862 97.18818379 40.91133741 97.17724609 43.89160156 C97.17668185 46.03039037 97.1769988 48.16917956 97.1781311 50.30796814 C97.1787051 56.11118071 97.16694312 61.91431066 97.15298319 67.71750402 C97.1404837 73.78335495 97.13930594 79.84920776 97.13693237 85.91506958 C97.13071532 97.40028623 97.11430141 108.88546483 97.09423339 120.37066472 C97.07188145 133.44672872 97.06088273 146.52279455 97.05084252 159.5988729 C97.0299354 186.49611215 96.994755 213.39331761 96.95019531 240.29052734 C98.37295776 240.50092651 98.37295776 240.50092651 99.82446289 240.71557617 C103.01201309 241.30189818 104.26464347 241.87049179 106.63769531 243.97802734 C107.1984375 244.45626953 107.75917969 244.93451172 108.33691406 245.42724609 C112.86147591 250.6529507 113.38675722 255.49785482 113.33787537 262.08921814 C113.34595367 263.40031983 113.34595367 263.40031983 113.35419518 264.73790842 C113.36847806 267.66045871 113.36137019 270.58255628 113.35424805 273.50512695 C113.35995143 275.60300561 113.36691556 277.70088117 113.37504578 279.79875183 C113.39299557 285.49294453 113.39180536 291.18698328 113.38610339 296.88119578 C113.38301425 301.63528128 113.38910093 306.38933709 113.39514214 311.14341837 C113.40919168 322.35873955 113.40762241 333.57398457 113.39624023 344.78930664 C113.38475771 356.35916233 113.39883609 367.92878625 113.42563671 379.49861139 C113.44778813 389.43338337 113.45443236 399.36808256 113.4485603 409.30287749 C113.44518831 415.23593512 113.44762204 421.16884416 113.46481133 427.10188103 C113.48026941 432.68091473 113.47633727 438.25960488 113.45750618 443.83862495 C113.45381722 445.88524942 113.45693767 447.93189928 113.46739197 449.97850037 C113.48058233 452.77434775 113.46907157 455.56905448 113.45140076 458.36485291 C113.46100576 459.17303323 113.47061077 459.98121356 113.48050684 460.8138842 C113.399004 467.08946501 111.67422055 471.3200744 107.35253906 476.03271484 C102.93598818 479.44818086 100.05626574 480.41359362 94.54937744 480.43769836 C93.42787292 480.44485367 92.30636841 480.45200897 91.15087891 480.4593811 C89.91966309 480.46207001 88.68844727 480.46475891 87.41992188 480.4675293 C86.12374939 480.47410049 84.8275769 480.48067169 83.49212646 480.48744202 C79.19170364 480.50846627 74.89128053 480.51884329 70.59082031 480.52880859 C69.10912813 480.53285685 67.62743613 480.53697379 66.14574432 480.54115868 C59.18375245 480.56020725 52.22177115 480.57443862 45.25975823 480.58277065 C37.22952194 480.59254034 29.1995615 480.618854 21.16942239 480.65927154 C14.95868583 480.68945629 8.74802824 480.70424177 2.53721976 480.70755166 C-1.17035684 480.7098996 -4.87763865 480.7188261 -8.58513641 480.74401283 C-12.7242512 480.77167762 -16.8627517 480.76745525 -21.00195312 480.76049805 C-22.83663147 480.77971313 -22.83663147 480.77971313 -24.70837402 480.79931641 C-32.34892202 480.75248084 -37.03270046 479.97437404 -42.79199219 474.69287109 C-51.26249381 463.73963623 -47.04980469 458.33322026 -47.04980469 440.29052734 C-68.16980469 440.29052734 -89.28980469 440.29052734 -111.04980469 440.29052734 C-111.04980469 445.57052734 -111.04980469 450.85052734 -111.04980469 456.29052734 C-113.86542524 465.9286131 -118.37017301 472.02566884 -126.92480469 477.24755859 C-133.7274979 480.58638045 -139.87480999 480.58687574 -147.32226562 480.58105469 C-149.17217102 480.59113052 -149.17217102 480.59113052 -151.05944824 480.60140991 C-154.43163326 480.61712446 -157.80357191 480.62376334 -161.17577648 480.62504148 C-163.28685489 480.62646665 -165.39790776 480.63074321 -167.5089798 480.63603592 C-174.88621144 480.65452246 -182.26337097 480.6627085 -189.640625 480.66113281 C-196.49689234 480.65993267 -203.35284424 480.6810133 -210.20903182 480.71262014 C-216.11161064 480.73885262 -222.01408689 480.74949716 -227.91672349 480.74822199 C-231.43486781 480.74771428 -234.95273177 480.75329042 -238.47081757 480.77457809 C-242.40058982 480.7977088 -246.3299366 480.78839702 -250.25976562 480.77636719 C-251.41128113 480.7876062 -252.56279663 480.79884521 -253.74920654 480.8104248 C-263.15227729 480.73752668 -271.41121803 478.67103912 -278.44824219 472.13427734 C-285.02681177 464.56089968 -287.22535471 457.88457576 -287.11230469 448.04052734 C-287.10779297 447.29544922 -287.10328125 446.55037109 -287.09863281 445.78271484 C-287.08689715 443.95195094 -287.06896319 442.12122861 -287.04980469 440.29052734 C-287.62894623 440.29940979 -288.20808777 440.30829224 -288.80477905 440.31744385 C-294.87251848 440.40644261 -300.94007028 440.4664779 -307.00830078 440.51025391 C-309.26814312 440.53027823 -311.52793424 440.55750596 -313.78759766 440.59228516 C-317.0496083 440.64120812 -320.31092956 440.66358867 -323.57324219 440.68115234 C-325.07073502 440.71212006 -325.07073502 440.71212006 -326.59848022 440.74371338 C-336.10663811 440.74670496 -344.29111216 438.10066788 -351.24057007 431.42669678 C-359.30733298 421.90224252 -359.87972928 411.99880994 -359.63574219 400.14990234 C-359.62452421 398.53039131 -359.61599635 396.91085964 -359.61001587 395.2913208 C-359.58732135 391.06913071 -359.5285722 386.84821802 -359.46179199 382.62652588 C-359.3999453 378.30246248 -359.37291128 373.97818866 -359.34277344 369.65380859 C-359.2788043 361.19880123 -359.17666804 352.74482406 -359.04980469 344.29052734 C-359.99855469 344.18740234 -360.94730469 344.08427734 -361.92480469 343.97802734 C-365.04980469 343.29052734 -365.04980469 343.29052734 -367.04980469 340.29052734 C-367.31723022 337.22328186 -367.31723022 337.22328186 -367.34033203 333.40405273 C-367.34704926 332.70778275 -367.35376648 332.01151276 -367.36068726 331.29414368 C-367.37968794 328.99208444 -367.38359232 326.69031637 -367.38574219 324.38818359 C-367.39216826 322.7877948 -367.39889648 321.18740719 -367.40591431 319.58702087 C-367.41789193 316.23205847 -367.4215946 312.87719908 -367.42041016 309.5222168 C-367.42020684 305.2233787 -367.44751937 300.92520077 -367.48195457 296.6265192 C-367.50419197 293.32109035 -367.50824869 290.01582124 -367.5071907 286.71032524 C-367.50955104 285.12547974 -367.51839893 283.54063012 -367.53385544 281.95585823 C-367.55345448 279.73890047 -367.54770316 277.52337739 -367.53564453 275.30639648 C-367.53849457 274.04525528 -367.5413446 272.78411407 -367.54428101 271.48475647 C-367.04980469 268.29052734 -367.04980469 268.29052734 -365.2694397 265.85203552 C-363.04980469 264.29052734 -363.04980469 264.29052734 -359.04980469 264.29052734 C-359.07075195 263.46327148 -359.09169922 262.63601563 -359.11328125 261.78369141 C-359.19642088 258.03609364 -359.24846 254.28868985 -359.29980469 250.54052734 C-359.33332031 249.23857422 -359.36683594 247.93662109 -359.40136719 246.59521484 C-359.41425781 245.34482422 -359.42714844 244.09443359 -359.44042969 242.80615234 C-359.46137695 241.65405273 -359.48232422 240.50195312 -359.50390625 239.31494141 C-359.04980469 236.29052734 -359.04980469 236.29052734 -357.58789062 233.91650391 C-353.81422691 231.4989779 -350.44677625 231.71698258 -346.04980469 231.75927734 C-345.17710937 231.75545044 -344.30441406 231.75162354 -343.40527344 231.74768066 C-341.56281377 231.74496244 -339.72031545 231.7523174 -337.87792969 231.76904297 C-335.05934535 231.79045487 -332.24330984 231.76923933 -329.42480469 231.74365234 C-327.6331324 231.74629564 -325.8414617 231.75142065 -324.04980469 231.75927734 C-323.20804687 231.75118042 -322.36628906 231.7430835 -321.49902344 231.73474121 C-317.81302243 231.7937489 -315.66305967 231.89765719 -312.51171875 233.91650391 C-310.58042478 237.05276018 -310.59242313 239.13454195 -310.65917969 242.80615234 C-310.67207031 244.05654297 -310.68496094 245.30693359 -310.69824219 246.59521484 C-310.73175781 247.89716797 -310.76527344 249.19912109 -310.79980469 250.54052734 C-310.81785156 251.85794922 -310.83589844 253.17537109 -310.85449219 254.53271484 C-310.90164198 257.78605042 -310.96744425 261.03792359 -311.04980469 264.29052734 C-310.10105469 264.39365234 -309.15230469 264.49677734 -308.17480469 264.60302734 C-305.04980469 265.29052734 -305.04980469 265.29052734 -303.04980469 268.29052734 C-302.78237915 271.35777283 -302.78237915 271.35777283 -302.75927734 275.17700195 C-302.75256012 275.87327194 -302.7458429 276.56954193 -302.73892212 277.28691101 C-302.71992144 279.58897025 -302.71601706 281.89073832 -302.71386719 284.19287109 C-302.70744111 285.79325989 -302.70071289 287.3936475 -302.69369507 288.99403381 C-302.68171745 292.34899622 -302.67801478 295.70385561 -302.67919922 299.05883789 C-302.67940254 303.35767599 -302.65209 307.65585392 -302.6176548 311.95453548 C-302.59541741 315.25996433 -302.59136068 318.56523345 -302.59241867 321.87072945 C-302.59005834 323.45557495 -302.58121045 325.04042457 -302.56575394 326.62519646 C-302.5461549 328.84215422 -302.55190621 331.0576773 -302.56396484 333.2746582 C-302.56111481 334.53579941 -302.55826477 335.79694061 -302.55532837 337.09629822 C-303.04980469 340.29052734 -303.04980469 340.29052734 -304.83016968 342.72901917 C-307.04980469 344.29052734 -307.04980469 344.29052734 -311.04980469 344.29052734 C-311.04980469 360.13052734 -311.04980469 375.97052734 -311.04980469 392.29052734 C-303.12980469 392.29052734 -295.20980469 392.29052734 -287.04980469 392.29052734 C-287.09621094 390.09654297 -287.14261719 387.90255859 -287.19042969 385.64208984 C-287.22174933 383.48407293 -287.24596591 381.32608269 -287.26953125 379.16796875 C-287.2894745 377.68412687 -287.31663959 376.20036179 -287.3515625 374.71679688 C-287.61196628 363.35859691 -286.87803571 353.52138581 -278.75292969 344.82177734 C-274.0273361 340.57307852 -269.08318385 338.18452847 -263.04980469 336.29052734 C-263.96761719 335.88962891 -264.88542969 335.48873047 -265.83105469 335.07568359 C-274.93827772 330.92283952 -283.10139921 326.05014401 -287.04980469 316.29052734 C-287.4947193 311.80531615 -287.50619428 307.3155863 -287.53027344 302.8112793 C-287.54959838 300.62635246 -287.61162089 298.44526733 -287.67480469 296.26123047 C-287.80215677 287.85593257 -287.0678992 281.65773284 -281.04980469 275.29052734 C-271.3060881 265.4222519 -261.8431838 264.08124564 -248.42480469 263.97802734 C-247.19117188 263.94902344 -245.95753906 263.92001953 -244.68652344 263.89013672 C-233.72011959 263.81438579 -225.59947562 266.23084242 -217.09277344 273.23193359 C-210.00747166 280.37142506 -206.82155038 288.92830754 -206.82321167 298.83126831 C-206.83353424 299.78462067 -206.84385681 300.73797302 -206.85449219 301.72021484 C-206.85732208 302.71054718 -206.86015198 303.70087952 -206.86306763 304.72122192 C-206.87421999 307.86944911 -206.89931562 311.01738683 -206.92480469 314.16552734 C-206.93484087 316.30614822 -206.94396561 318.44677358 -206.95214844 320.58740234 C-206.97414316 325.82188806 -207.00863905 331.0561587 -207.04980469 336.29052734 C-201.76980469 336.29052734 -196.48980469 336.29052734 -191.04980469 336.29052734 C-191.07075195 334.49502441 -191.09169922 332.69952148 -191.11328125 330.84960938 C-191.17807477 324.88259095 -191.2238755 318.91567312 -191.25705338 312.94841194 C-191.27782911 309.3343839 -191.30595982 305.7207404 -191.3515625 302.10693359 C-191.39538282 298.61205197 -191.41901687 295.11753758 -191.42931366 291.62240219 C-191.4401795 289.65611393 -191.47134649 287.68997111 -191.50299072 285.72390747 C-191.50573071 274.65498116 -188.90400939 265.38854328 -181.04980469 257.29052734 C-171.32599135 249.33468007 -162.46778164 247.78178248 -150.17480469 247.85302734 C-148.95921875 247.83304688 -147.74363281 247.81306641 -146.49121094 247.79248047 C-135.33058505 247.79850022 -126.27986775 250.53629234 -118.04980469 258.29052734 C-111.3781796 266.08135751 -110.75464116 271.54120949 -110.64477539 281.61889648 C-110.62330692 283.09602396 -110.58933701 284.57302812 -110.54223633 286.04956055 C-110.28574502 294.17239391 -110.1283837 300.89239712 -115.4230957 307.57617188 C-121.12747988 313.58790619 -127.67553521 318.78821612 -136.04980469 320.29052734 C-138.35980469 320.29052734 -140.66980469 320.29052734 -143.04980469 320.29052734 C-143.04980469 325.57052734 -143.04980469 330.85052734 -143.04980469 336.29052734 C-140.40980469 336.29052734 -137.76980469 336.29052734 -135.04980469 336.29052734 C-125.55283571 338.60686124 -119.1042281 343.95563575 -114.09277344 352.16552734 C-107.5617242 365.47223441 -111.04980469 374.8944068 -111.04980469 392.29052734 C-89.92980469 392.29052734 -68.80980469 392.29052734 -47.04980469 392.29052734 C-47.09621094 382.33767578 -47.14261719 372.38482422 -47.19042969 362.13037109 C-47.21086614 355.82763257 -47.23028737 349.52491805 -47.24511719 343.22216797 C-47.26884842 333.21663204 -47.29674113 323.21123089 -47.3515625 313.20581055 C-47.39147027 305.91878185 -47.41724697 298.63186252 -47.42615867 291.34472758 C-47.43136679 287.48730429 -47.44358026 283.63019388 -47.47272491 279.77287102 C-47.49995656 276.13915853 -47.50823424 272.5058866 -47.50223541 268.87208176 C-47.50385359 266.90886047 -47.5253358 264.94568672 -47.54748535 262.98258972 C-47.51113617 255.18748873 -46.83810379 250.42153321 -41.45214844 244.54833984 C-17.58804266 226.09343137 18.7826765 240.29052734 48.95019531 240.29052734 C48.95019531 176.93052734 48.95019531 113.57052734 48.95019531 48.29052734 C38.39019531 48.29052734 27.83019531 48.29052734 16.95019531 48.29052734 C16.95019531 69.41052734 16.95019531 90.53052734 16.95019531 112.29052734 C18.93019531 112.62052734 20.91019531 112.95052734 22.95019531 113.29052734 C25.40059239 116.96612297 25.21419446 118.7913172 25.24072266 123.17700195 C25.24743988 123.87327194 25.2541571 124.56954193 25.26107788 125.28691101 C25.28007856 127.58897025 25.28398294 129.89073832 25.28613281 132.19287109 C25.29255889 133.79325989 25.29928711 135.3936475 25.30630493 136.99403381 C25.31828255 140.34899622 25.32198522 143.70385561 25.32080078 147.05883789 C25.32059746 151.35767599 25.34791 155.65585392 25.3823452 159.95453548 C25.40458259 163.25996433 25.40863932 166.56523345 25.40758133 169.87072945 C25.40994166 171.45557495 25.41878955 173.04042457 25.43424606 174.62519646 C25.4538451 176.84215422 25.44809379 179.0576773 25.43603516 181.2746582 C25.43888519 182.53579941 25.44173523 183.79694061 25.44467163 185.09629822 C24.95019531 188.29052734 24.95019531 188.29052734 23.16983032 190.72901917 C20.95019531 192.29052734 20.95019531 192.29052734 16.95019531 192.29052734 C16.97114258 193.1177832 16.99208984 193.94503906 17.01367188 194.79736328 C17.09681151 198.54496105 17.14885062 202.29236483 17.20019531 206.04052734 C17.25046875 207.99345703 17.25046875 207.99345703 17.30175781 209.98583984 C17.31464844 211.23623047 17.32753906 212.48662109 17.34082031 213.77490234 C17.36176758 214.92700195 17.38271484 216.07910156 17.40429688 217.26611328 C16.95019531 220.29052734 16.95019531 220.29052734 15.48828125 222.66455078 C11.71461754 225.08207679 8.34716688 224.8640721 3.95019531 224.82177734 C3.0775 224.82560425 2.20480469 224.82943115 1.30566406 224.83337402 C-0.53679561 224.83609224 -2.37929393 224.82873729 -4.22167969 224.81201172 C-7.04026403 224.79059982 -9.85629953 224.81181536 -12.67480469 224.83740234 C-14.46647697 224.83475905 -16.25814768 224.82963404 -18.04980469 224.82177734 C-18.8915625 224.82987427 -19.73332031 224.83797119 -20.60058594 224.84631348 C-24.28658695 224.78730579 -26.43654971 224.6833975 -29.58789062 222.66455078 C-31.51918459 219.52829451 -31.50718624 217.44651274 -31.44042969 213.77490234 C-31.42109375 211.89931641 -31.42109375 211.89931641 -31.40136719 209.98583984 C-31.35109375 208.03291016 -31.35109375 208.03291016 -31.29980469 206.04052734 C-31.28175781 204.72310547 -31.26371094 203.40568359 -31.24511719 202.04833984 C-31.1979674 198.79500427 -31.13216513 195.54313109 -31.04980469 192.29052734 C-32.47292969 192.13583984 -32.47292969 192.13583984 -33.92480469 191.97802734 C-37.04980469 191.29052734 -37.04980469 191.29052734 -39.04980469 188.29052734 C-39.31723022 185.22328186 -39.31723022 185.22328186 -39.34033203 181.40405273 C-39.34704926 180.70778275 -39.35376648 180.01151276 -39.36068726 179.29414368 C-39.37968794 176.99208444 -39.38359232 174.69031637 -39.38574219 172.38818359 C-39.39216826 170.7877948 -39.39889648 169.18740719 -39.40591431 167.58702087 C-39.41789193 164.23205847 -39.4215946 160.87719908 -39.42041016 157.5222168 C-39.42020684 153.2233787 -39.44751937 148.92520077 -39.48195457 144.6265192 C-39.50419197 141.32109035 -39.50824869 138.01582124 -39.5071907 134.71032524 C-39.50955104 133.12547974 -39.51839893 131.54063012 -39.53385544 129.95585823 C-39.55345448 127.73890047 -39.54770316 125.52337739 -39.53564453 123.30639648 C-39.53849457 122.04525528 -39.5413446 120.78411407 -39.54428101 119.48475647 C-39.04980469 116.29052734 -39.04980469 116.29052734 -37.2694397 113.85203552 C-35.04980469 112.29052734 -35.04980469 112.29052734 -31.04980469 112.29052734 C-31.05868713 111.19773468 -31.06756958 110.10494202 -31.07672119 108.97903442 C-31.15801101 98.65147447 -31.21786778 88.32397993 -31.25705338 77.99617195 C-31.27787677 72.68725312 -31.30609826 67.37859376 -31.3515625 62.06982422 C-31.39520774 56.9410232 -31.41898122 51.81247087 -31.42931366 46.68349838 C-31.43667159 44.73238082 -31.45103959 42.78127597 -31.47272491 40.83026505 C-31.59414222 29.44781323 -31.46591716 20.48715508 -25.36230469 10.54052734 C-17.95287692 3.33135438 -10.34801 -0.01285733 0 0 Z " fill="#000000" transform="translate(383.0498046875,15.70947265625)"/>
<path d="M0 0 C0.95390625 -0.0038269 1.9078125 -0.00765381 2.890625 -0.01159668 C4.90105245 -0.01431036 6.91151553 -0.00698737 8.921875 0.00976562 C11.99038787 0.03118291 15.05655952 0.00994534 18.125 -0.015625 C20.08333848 -0.01298163 22.0416755 -0.00785645 24 0 C25.36898437 -0.01214539 25.36898437 -0.01214539 26.765625 -0.02453613 C32.34584106 0.05717268 35.5780721 0.80522365 40 4.53125 C44.95040182 9.85866918 44.48037405 15.03933134 44.25 21.90625 C44.23195312 22.92847656 44.21390625 23.95070313 44.1953125 25.00390625 C44.14839491 27.51399749 44.08276729 30.02212764 44 32.53125 C44.6798999 32.51030273 45.3597998 32.48935547 46.06030273 32.46777344 C49.18588047 32.38385105 52.31122016 32.3323509 55.4375 32.28125 C56.50677734 32.24773438 57.57605469 32.21421875 58.67773438 32.1796875 C67.54565421 32.07121142 74.60297906 33.75053061 81.25 39.90625 C81.91 40.50824219 82.57 41.11023437 83.25 41.73046875 C85 43.53125 85 43.53125 87.25 46.71875 C95.85072378 55.51494478 112.01198081 55.262169 123.5625 55.90625 C129.84832546 56.39561628 133.14277324 58.42304665 137.3125 63.15625 C139.85474518 66.73422469 140.13439922 68.6257436 140.17700195 72.98730469 C140.18983719 74.12899109 140.20267242 75.27067749 140.21589661 76.44696045 C140.22697701 78.3062619 140.22697701 78.3062619 140.23828125 80.203125 C140.246353 81.47343567 140.25442474 82.74374634 140.26274109 84.05255127 C140.27659326 86.74600888 140.28760594 89.43934362 140.29516602 92.1328125 C140.3062115 95.57393584 140.34058823 99.01440911 140.38033772 102.45530319 C140.41286078 105.74617911 140.41728827 109.03711286 140.42578125 112.328125 C140.44328934 113.55956238 140.46079742 114.79099976 140.47883606 116.05975342 C140.45186689 126.70055492 140.45186689 126.70055492 136 131.53125 C132.05965623 135.00250522 129.60542201 136.59119968 124.4140625 136.9609375 C123.48851562 137.0323999 122.56296875 137.1038623 121.609375 137.17749023 C120.62453125 137.25298096 119.6396875 137.32847168 118.625 137.40625 C108.02960759 138.29689951 98.52634786 139.56037953 89 144.53125 C89.54003662 145.0660498 90.08007324 145.60084961 90.63647461 146.15185547 C93.07274376 148.56738706 95.50516107 150.98676117 97.9375 153.40625 C98.78763672 154.24800781 99.63777344 155.08976563 100.51367188 155.95703125 C101.72700195 157.16552734 101.72700195 157.16552734 102.96484375 158.3984375 C103.7137085 159.14206543 104.46257324 159.88569336 105.23413086 160.65185547 C108.10336058 163.70554417 108.14450159 165.67490376 108.22460938 169.77197266 C108.24712769 170.86716217 108.269646 171.96235168 108.29284668 173.09072876 C108.36382074 178.116569 108.42139835 183.14225893 108.45996094 188.16845703 C108.48654764 190.81642768 108.52744941 193.46429517 108.58300781 196.11181641 C108.66224153 199.93174064 108.6952923 203.74968626 108.71875 207.5703125 C108.75174194 208.74767975 108.78473389 209.925047 108.81872559 211.13809204 C108.80464717 216.94948399 108.53317662 220.65330513 104.64379883 225.14428711 C103.45257575 226.29791307 102.23892057 227.42900634 101 228.53125 C99.98771256 229.576467 98.98082001 230.62694726 97.98046875 231.68359375 C97.05878906 232.60269531 96.13710938 233.52179688 95.1875 234.46875 C94.71119141 234.94892578 94.23488281 235.42910156 93.74414062 235.92382812 C89.64233063 240.01409998 87.79643106 240.65620909 82.04281616 240.6986084 C80.7726767 240.71009918 79.50253723 240.72158997 78.19390869 240.73342896 C76.77819903 240.74105439 75.36248854 240.74852599 73.94677734 240.75585938 C72.46194204 240.76703242 70.97710927 240.77854567 69.49227905 240.79037476 C64.60686768 240.82696748 59.72143032 240.85215972 54.8359375 240.875 C53.58908133 240.8809188 53.58908133 240.8809188 52.31703615 240.88695717 C44.4764518 240.92338307 36.63585848 240.9548268 28.79521751 240.97606659 C18.76857385 241.00362927 8.74263856 241.05436476 -1.28371012 241.13654089 C-8.33434083 241.19236846 -15.3847796 241.22130797 -22.43562353 241.2305398 C-26.64594288 241.23679269 -30.85543212 241.25487115 -35.0655098 241.30192566 C-39.03026871 241.34568788 -42.99374641 241.3560522 -46.9587059 241.34129715 C-48.40992877 241.34162505 -49.86120779 241.35384332 -51.31221008 241.37914658 C-63.61742715 241.58231523 -63.61742715 241.58231523 -68.72982788 237.16931152 C-69.84789482 235.98239889 -70.94054703 234.77076388 -72 233.53125 C-73.04303713 232.51671661 -74.09345928 231.50970078 -75.15234375 230.51171875 C-76.07144531 229.59003906 -76.99054688 228.66835937 -77.9375 227.71875 C-78.41767578 227.24244141 -78.89785156 226.76613281 -79.39257812 226.27539062 C-83.21249212 222.44470113 -84.11980679 220.65059868 -84.22460938 215.29052734 C-84.25838684 213.64774307 -84.25838684 213.64774307 -84.29284668 211.97177124 C-84.36382074 206.945931 -84.42139835 201.92024107 -84.45996094 196.89404297 C-84.48654764 194.24607232 -84.52744941 191.59820483 -84.58300781 188.95068359 C-84.66224153 185.13075936 -84.6952923 181.31281374 -84.71875 177.4921875 C-84.75174194 176.31482025 -84.78473389 175.137453 -84.81872559 173.92440796 C-84.8046839 168.12817827 -84.53904266 164.4155602 -80.66186523 159.93408203 C-79.46518519 158.77457377 -78.24501451 157.63869815 -77 156.53125 C-75.89111677 155.40171059 -74.78726435 154.26718051 -73.69140625 153.125 C-72.65105445 152.09111001 -71.6081185 151.05981324 -70.5625 150.03125 C-70.02173828 149.495 -69.48097656 148.95875 -68.92382812 148.40625 C-67.61823383 147.11220964 -66.30947004 145.82136826 -65 144.53125 C-78.42521635 137.99320137 -91.66779329 137.40686482 -106.41796875 137.35546875 C-108.99675314 137.33229083 -111.57552923 137.30817435 -114.15429688 137.28320312 C-118.18324783 137.24800181 -122.21188503 137.21697859 -126.2409668 137.20532227 C-130.15441742 137.19326908 -134.06724581 137.14967948 -137.98046875 137.10546875 C-139.78223824 137.10833138 -139.78223824 137.10833138 -141.6204071 137.11125183 C-149.2497657 136.99975281 -153.99037283 136.20823993 -159.7421875 130.93359375 C-163.09424986 126.59903035 -164.12162042 123.73689806 -164.16113281 118.32885742 C-164.17074036 117.26732956 -164.1803479 116.2058017 -164.19024658 115.11210632 C-164.19449646 113.96522842 -164.19874634 112.81835052 -164.203125 111.63671875 C-164.20882507 110.45660721 -164.21452515 109.27649567 -164.22039795 108.06062317 C-164.22985036 105.56150205 -164.23638288 103.06236845 -164.24023438 100.56323242 C-164.24993483 96.74440699 -164.28095476 92.92612085 -164.3125 89.10742188 C-164.3190306 86.6796907 -164.32428085 84.25195567 -164.328125 81.82421875 C-164.3404718 80.68341354 -164.3528186 79.54260834 -164.36553955 78.36723328 C-164.34682586 71.68898935 -164.00651309 66.79058351 -159.28125 61.66796875 C-158.6934375 61.18972656 -158.105625 60.71148437 -157.5 60.21875 C-156.61828125 59.48205078 -156.61828125 59.48205078 -155.71875 58.73046875 C-152.42681446 56.43359555 -149.45755233 56.39542648 -145.57324219 56.35766602 C-144.46068054 56.34417618 -143.3481189 56.33068634 -142.20184326 56.31678772 C-140.99570374 56.30634933 -139.78956421 56.29591095 -138.546875 56.28515625 C-135.9817679 56.2521808 -133.41666381 56.21896986 -130.8515625 56.18554688 C-126.81677334 56.13740141 -122.78195534 56.0937057 -118.74707031 56.05444336 C-90.06606643 57.29529368 -90.06606643 57.29529368 -64.25 47.21875 C-63.5075 46.331875 -62.765 45.445 -62 44.53125 C-56.65740137 38.61575426 -51.57437447 35.05604149 -44 32.53125 C-42.15389468 32.44885831 -40.30494836 32.42381641 -38.45703125 32.43359375 C-37.38388672 32.43681641 -36.31074219 32.44003906 -35.20507812 32.44335938 C-34.08552734 32.45173828 -32.96597656 32.46011719 -31.8125 32.46875 C-30.11577148 32.47551758 -30.11577148 32.47551758 -28.38476562 32.48242188 C-25.58979073 32.49421502 -22.7949218 32.5106735 -20 32.53125 C-20.02094727 31.89622559 -20.04189453 31.26120117 -20.06347656 30.60693359 C-20.14704581 27.70686924 -20.19878774 24.80705884 -20.25 21.90625 C-20.28351563 20.90722656 -20.31703125 19.90820312 -20.3515625 18.87890625 C-20.43048846 12.91999637 -20.24551031 9.10009388 -16 4.53125 C-10.74019641 0.09920876 -6.57479487 -0.05833041 0 0 Z " fill="#000000" transform="translate(188,15.46875)"/>
<path d="M0 0 C42.24 0 84.48 0 128 0 C128.08060607 39.54175468 128.08060607 39.54175468 128.09765625 56.06640625 C128.10953999 67.49236845 128.12353707 78.91830122 128.15087891 90.34423828 C128.17077921 98.66436443 128.18370843 106.9844668 128.18817699 115.30461609 C128.19079008 119.71230203 128.19695466 124.1199199 128.21146011 128.52758408 C128.22499102 132.6725337 128.2292318 136.81738695 128.22621536 140.96235657 C128.22676755 142.48700102 128.23077167 144.01164855 128.23841095 145.53627396 C128.24830216 147.61136938 128.24599054 149.68609673 128.24050903 151.76119995 C128.24235262 152.9245027 128.24419621 154.08780544 128.24609566 155.28635979 C128 158 128 158 126 160 C123.82293701 160.25168228 123.82293701 160.25168228 121.06542969 160.25396729 C119.50060852 160.26242676 119.50060852 160.26242676 117.9041748 160.27105713 C116.75501587 160.26700867 115.60585693 160.26296021 114.421875 160.25878906 C113.21535278 160.2622937 112.00883057 160.26579834 110.76574707 160.26940918 C107.4516998 160.27671811 104.13790129 160.27498427 100.8238678 160.26865101 C97.36011412 160.263597 93.89637127 160.26828079 90.43261719 160.27142334 C84.6152149 160.27506474 78.79786334 160.27025935 72.98046875 160.26074219 C66.24918426 160.24985727 59.51802091 160.25338273 52.78673935 160.264395 C47.01345658 160.27346294 41.24021034 160.27475558 35.46692276 160.26951766 C32.01613631 160.26639523 28.56540684 160.26599605 25.11462402 160.27259064 C21.26907622 160.27942594 17.42366476 160.26995937 13.578125 160.25878906 C11.8543866 160.26486176 11.8543866 160.26486176 10.0958252 160.27105713 C9.05261108 160.26541748 8.00939697 160.25977783 6.93457031 160.25396729 C6.0245929 160.25321323 5.11461548 160.25245918 4.17706299 160.25168228 C2 160 2 160 0 158 C-0.24609566 155.28635979 -0.24609566 155.28635979 -0.24050903 151.76119995 C-0.24221788 151.11428983 -0.24392673 150.46737971 -0.24568737 149.80086625 C-0.24899337 147.62348072 -0.23796063 145.44640032 -0.22705078 143.26904297 C-0.22648691 141.71211759 -0.22680276 140.15519167 -0.22793579 138.5982666 C-0.22851123 134.36293665 -0.2167261 130.12771925 -0.20278788 125.89241552 C-0.19031228 121.46947133 -0.18911253 117.04652475 -0.18673706 112.62356567 C-0.18051294 104.24418944 -0.16408956 95.8648652 -0.14403808 87.4855119 C-0.11753526 76.16523278 -0.10671397 64.84493952 -0.09503365 53.52463722 C-0.07620959 35.68305252 -0.03637015 17.84157754 0 0 Z " fill="#2E2E3E" transform="translate(352,320)"/>
<path d="M0 0 C0.86763474 -0.00860046 1.73526947 -0.01720093 2.62919617 -0.02606201 C4.0528801 -0.03245193 4.0528801 -0.03245193 5.50532532 -0.03897095 C7.00826393 -0.05123718 7.00826393 -0.05123718 8.54156494 -0.06375122 C11.86321922 -0.08859842 15.18483076 -0.10512044 18.50654602 -0.11953735 C20.20852111 -0.12752287 20.20852111 -0.12752287 21.94487953 -0.13566971 C27.9516749 -0.16239957 33.95844951 -0.18177421 39.96528625 -0.19619751 C46.16492345 -0.2128362 52.36402814 -0.25760863 58.56346416 -0.30856895 C63.33421427 -0.34225173 68.10483819 -0.35377617 72.87569618 -0.35942459 C75.16060768 -0.36613514 77.44551094 -0.38135196 79.73030663 -0.4053154 C82.93309575 -0.43698775 86.13445149 -0.43699992 89.33735657 -0.42959595 C90.74585876 -0.45420395 90.74585876 -0.45420395 92.18281555 -0.47930908 C98.52937142 -0.4194342 102.86226358 1.00879654 107.74482727 5.15390015 C109.68232727 7.84140015 109.68232727 7.84140015 110.74482727 10.15390015 C111.23982727 11.14390015 111.23982727 11.14390015 111.74482727 12.15390015 C111.86258496 14.38821388 111.91468955 16.62607637 111.93769836 18.8633728 C111.9499646 19.89792099 111.9499646 19.89792099 111.96247864 20.95336914 C111.98733783 23.24155817 112.00385431 25.52968492 112.01826477 27.81796265 C112.02358845 28.60048779 112.02891212 29.38301292 112.03439713 30.18925095 C112.06113737 34.33517223 112.08050508 38.48106338 112.09492493 42.62704468 C112.1082388 46.0511461 112.13604177 49.47464799 112.17695618 52.89852905 C112.22641656 57.0376573 112.25106293 61.17624363 112.25815201 65.31565475 C112.26484421 66.8888579 112.28001328 68.46204992 112.30404282 70.03508377 C112.51636225 84.78143021 112.51636225 84.78143021 108.50376892 90.59197998 C102.38725044 96.02337878 97.4224725 96.73729178 89.49848938 96.65560913 C88.49273361 96.66101212 87.48697784 96.6664151 86.45074463 96.67198181 C83.14091669 96.68444399 79.83196277 96.66799528 76.52217102 96.6499939 C74.21484329 96.65014893 71.90751529 96.65163863 69.60018921 96.65440369 C64.77092438 96.65578652 59.94195696 96.64324756 55.11274719 96.62045288 C48.92657216 96.59205305 42.74089055 96.59481163 36.55467892 96.60754299 C31.79255976 96.61450144 27.03055441 96.60670917 22.26844978 96.59428596 C19.98751321 96.58977424 17.70656442 96.58943223 15.42562675 96.59335136 C12.2374203 96.59626553 9.04989141 96.5797465 5.86177063 96.55795288 C4.45190887 96.56470535 4.45190887 96.56470535 3.01356506 96.57159424 C-2.15912625 96.51292111 -5.78656753 96.05258785 -10.25517273 93.15390015 C-15.0658565 87.94232607 -16.50249673 84.28009342 -16.54570007 77.20150757 C-16.5524173 76.50991043 -16.55913452 75.81831329 -16.5660553 75.10575867 C-16.58502387 72.82355525 -16.5889591 70.5416462 -16.59111023 68.2593689 C-16.59753981 66.66759624 -16.60426829 65.07582476 -16.61128235 63.48405457 C-16.62325285 60.14765688 -16.6269635 56.81136271 -16.6257782 53.47494507 C-16.62557521 49.2111793 -16.65285642 44.94808162 -16.68732262 40.68447399 C-16.70962349 37.39608242 -16.71361474 34.10785069 -16.71255875 30.81939125 C-16.71491071 29.24818943 -16.72371145 27.67698294 -16.73922348 26.10585594 C-16.75894588 23.90159529 -16.75302226 21.69876277 -16.74101257 19.49447632 C-16.74386261 18.24301315 -16.74671265 16.99154999 -16.74964905 15.7021637 C-15.98958569 10.24810048 -13.77175278 6.55951093 -9.69267273 2.77890015 C-6.39468825 0.58024382 -3.87379865 0.02863712 0 0 Z " fill="#2F2E3E" transform="translate(152.2551727294922,63.846099853515625)"/>
<path d="M0 0 C3.80390817 0.02806608 7.60753957 0.00196256 11.41146088 -0.01524782 C17.79692866 -0.0351994 24.18099206 -0.00905318 30.56624603 0.04349852 C37.92405171 0.1033594 45.27850406 0.08396334 52.63622856 0.02340806 C58.97995923 -0.02669008 65.32268679 -0.03346863 71.66655159 -0.00476658 C75.44387566 0.01228734 79.21962916 0.01494418 82.99684906 -0.02166796 C108.84454727 -0.23743086 108.84454727 -0.23743086 115.33067131 5.01332235 C119.3771552 9.2054502 121.65892709 14.0402333 121.90911102 19.84525633 C121.88684448 20.67267332 121.86457794 21.50009031 121.84163666 22.35258055 C121.85216064 23.2431616 121.86268463 24.13374266 121.87352753 25.05131102 C121.88094614 26.91679618 121.8611127 28.78257794 121.81478119 30.64750242 C121.75569771 33.47764977 121.81430877 36.28864306 121.88460541 39.11820555 C121.8773352 40.9463722 121.86323875 42.77452707 121.84163666 44.60258055 C121.87503647 45.84370604 121.87503647 45.84370604 121.90911102 47.10990477 C121.65892709 52.91492779 119.3771552 57.74971089 115.33067131 61.94183874 C106.3333189 69.22552261 91.7607387 67.06177639 80.76139832 66.95516109 C76.95749014 66.92709502 73.15385874 66.95319854 69.34993744 66.97040892 C62.96446966 66.99036049 56.58040626 66.96421427 50.19515228 66.91166258 C42.83734661 66.85180169 35.48289426 66.87119775 28.12516975 66.93175304 C21.78143909 66.98185117 15.43871152 66.98862972 9.09484673 66.95992768 C5.31752266 66.94287376 1.54176916 66.94021691 -2.23545074 66.97682905 C-28.08314896 67.19259195 -28.08314896 67.19259195 -34.56927299 61.94183874 C-38.61575689 57.74971089 -40.89752877 52.91492779 -41.14771271 47.10990477 C-41.12544617 46.28248777 -41.10317963 45.45507078 -41.08023834 44.60258055 C-41.09076233 43.71199949 -41.10128632 42.82141844 -41.11212921 41.90385008 C-41.11954783 40.03836491 -41.09971439 38.17258315 -41.05338287 36.30765867 C-40.9942994 33.47751132 -41.05291046 30.66651804 -41.12320709 27.83695555 C-41.11593689 26.0087889 -41.10184043 24.18063402 -41.08023834 22.35258055 C-41.10250488 21.52516356 -41.12477142 20.69774656 -41.14771271 19.84525633 C-40.89752877 14.0402333 -38.61575689 9.2054502 -34.56927299 5.01332235 C-25.57192058 -2.27036152 -10.99934038 -0.10661529 0 0 Z " fill="#A8BED0" transform="translate(159.61930084228516,174.52241945266724)"/>
<path d="M0 0 C0.50780062 0.21205896 1.01560123 0.42411793 1.53878975 0.64260292 C8.17344751 3.1587527 14.18569615 3.42672725 21.22998047 3.38818359 C22.42306824 3.39344055 23.61615601 3.39869751 24.84539795 3.40411377 C28.09355968 3.41499761 31.34135005 3.41252683 34.58950567 3.40297651 C38.00630253 3.39532793 41.42307633 3.40244017 44.83987427 3.40713501 C50.57770168 3.41257903 56.31541292 3.40543825 62.05322266 3.39111328 C68.66126363 3.37480488 75.26902658 3.38006743 81.87706077 3.3965925 C87.57505554 3.41026485 93.27296724 3.41209865 98.97097313 3.40427649 C102.36328243 3.39962936 105.75546166 3.39889223 109.1477623 3.40888596 C112.93577287 3.41655016 116.72325871 3.40482519 120.51123047 3.38818359 C121.61703461 3.39425629 122.72283875 3.40032898 123.8621521 3.40658569 C130.99649424 3.34885781 137.21865875 2.21519321 144 0 C144.07467492 7.86535022 144.12863445 15.73056525 144.16479492 23.59619141 C144.17817551 26.27149721 144.20033385 28.94632149 144.22631836 31.62158203 C144.26275084 35.46913751 144.27973828 39.31636586 144.29296875 43.1640625 C144.30845261 44.35802643 144.32393646 45.55199036 144.33988953 46.78213501 C144.34123372 53.43040818 144.19331878 58.49899165 139.5 63.64453125 C135.23621336 66.96451095 132.42572538 68.1212911 127.08598328 68.14717102 C126.0724176 68.15432632 125.05885193 68.16148163 124.01457214 68.16885376 C122.90334488 68.17154266 121.79211761 68.17423157 120.6472168 68.17700195 C119.47623444 68.18357315 118.30525208 68.19014435 117.0987854 68.19691467 C113.21560315 68.21665953 109.33243441 68.22831419 105.44921875 68.23828125 C104.11113782 68.2423297 102.77305709 68.24644665 101.43497658 68.25063133 C95.14841615 68.2696768 88.86186743 68.28390951 82.57528371 68.2922433 C75.32382113 68.30201555 68.07266381 68.32833704 60.82130879 68.36874419 C55.21270577 68.39892261 49.60419017 68.41371377 43.99550754 68.41702431 C40.6472605 68.4193728 37.29959869 68.430283 33.95139122 68.45348549 C30.2143344 68.47777567 26.47807803 68.47692997 22.7409668 68.4699707 C21.63581223 68.48278076 20.53065765 68.49559082 19.39201355 68.50878906 C13.26306364 68.46714791 9.65380937 68.11339968 5 64 C0.96661036 59.53056823 -0.12690083 56.47086827 -0.11352539 50.51879883 C-0.11344986 49.39786331 -0.11337433 48.2769278 -0.11329651 47.12202454 C-0.10813522 45.91257675 -0.10297394 44.70312897 -0.09765625 43.45703125 C-0.0962413 42.21829758 -0.09482635 40.9795639 -0.09336853 39.70329285 C-0.08871602 36.41368463 -0.0797339 33.1241254 -0.06866455 29.83453369 C-0.05842629 26.47628377 -0.05386574 23.11802667 -0.04882812 19.75976562 C-0.03779145 13.17315788 -0.02104767 6.58658295 0 0 Z " fill="#F5F5E6" transform="translate(112,412)"/>
<path d="M0 0 C0.80232056 -0.00004028 1.60464111 -0.00008057 2.43127441 -0.00012207 C4.12239443 0.00522359 5.8135146 0.02276578 7.50439453 0.05175781 C10.08573724 0.09362006 12.66446867 0.09282315 15.24609375 0.0859375 C16.89324721 0.09643096 18.54038728 0.10936992 20.1875 0.125 C21.3392572 0.12530212 21.3392572 0.12530212 22.51428223 0.12561035 C27.02599744 0.22473308 30.01087988 0.78722566 33.59375 3.59375 C34.97683781 6.35992563 34.70585196 8.60393 34.69140625 11.6953125 C34.68818359 12.90703125 34.68496094 14.11875 34.68164062 15.3671875 C34.66907227 17.27371094 34.66907227 17.27371094 34.65625 19.21875 C34.65173828 20.4975 34.64722656 21.77625 34.64257812 23.09375 C34.63076203 26.26046292 34.61428815 29.42708356 34.59375 32.59375 C35.5425 32.861875 36.49125 33.13 37.46875 33.40625 C40.59375 34.59375 40.59375 34.59375 42.59375 37.59375 C42.79340143 40.3155769 42.87709768 42.93531229 42.8684082 45.65771484 C42.87351913 46.47917496 42.87863007 47.30063507 42.88389587 48.14698792 C42.89781153 50.86629495 42.89683345 53.58534906 42.89453125 56.3046875 C42.89841748 58.19414362 42.902752 60.08359887 42.90751648 61.97305298 C42.91498321 65.93584015 42.91468441 69.89853824 42.90942383 73.86132812 C42.9036327 78.93791336 42.92054937 84.01413334 42.9437685 89.09065819 C42.95850692 92.99403005 42.95937732 96.89731401 42.95625877 100.80070877 C42.95677207 102.67219389 42.96201131 104.54368391 42.97207069 106.41514206 C42.98441802 109.03400064 42.97765348 111.65214874 42.96606445 114.27099609 C42.97370819 115.04311935 42.98135193 115.81524261 42.98922729 116.61076355 C42.94543406 121.09191464 42.45791288 124.07887616 39.59375 127.59375 C36.60007982 128.59164006 34.57986991 128.731735 31.45141602 128.75488281 C30.40345352 128.76449036 29.35549103 128.7740979 28.27577209 128.78399658 C27.14449387 128.78824646 26.01321564 128.79249634 24.84765625 128.796875 C23.68499741 128.80257507 22.52233856 128.80827515 21.32444763 128.81414795 C18.86401276 128.8235985 16.40356524 128.83013215 13.94311523 128.83398438 C10.17474403 128.84370231 6.40691532 128.87473101 2.63867188 128.90625 C0.25000324 128.9127788 -2.13866929 128.91802975 -4.52734375 128.921875 C-5.65659775 128.9342218 -6.78585175 128.9465686 -7.94932556 128.95928955 C-9.00044022 128.95628845 -10.05155487 128.95328735 -11.13452148 128.95019531 C-12.51993385 128.95566376 -12.51993385 128.95566376 -13.93333435 128.96124268 C-16.90517716 128.51960591 -18.25266834 127.66308457 -20.40625 125.59375 C-21.64603058 121.87440825 -21.57785133 118.40518164 -21.59912109 114.52978516 C-21.60729858 113.70832504 -21.61547607 112.88686493 -21.62390137 112.04051208 C-21.64872058 109.32128628 -21.66526061 106.60211248 -21.6796875 103.8828125 C-21.68501118 102.95403667 -21.69033485 102.02526085 -21.69581985 101.0683403 C-21.72253367 96.15429256 -21.74191604 91.24027009 -21.75634766 86.32617188 C-21.76970037 82.25790998 -21.79757981 78.19014807 -21.83837891 74.12207031 C-21.88763996 69.21023799 -21.91246031 64.29886005 -21.91957474 59.38679123 C-21.92629459 57.51526302 -21.94153571 55.64374523 -21.96546555 53.77235794 C-21.99705209 51.15320052 -21.99716434 48.53580144 -21.98974609 45.91650391 C-22.00615143 45.14438065 -22.02255676 44.37225739 -22.03945923 43.57673645 C-21.99307676 39.57473283 -21.54439955 37.77137496 -19.05728149 34.57357788 C-16.40625 32.59375 -16.40625 32.59375 -13.40625 32.59375 C-13.43243408 31.80202393 -13.45861816 31.01029785 -13.4855957 30.19458008 C-13.58969122 26.59867283 -13.654619 23.00308269 -13.71875 19.40625 C-13.7815918 17.53743164 -13.7815918 17.53743164 -13.84570312 15.63085938 C-13.86181641 14.42880859 -13.87792969 13.22675781 -13.89453125 11.98828125 C-13.92071533 10.88331299 -13.94689941 9.77834473 -13.97387695 8.63989258 C-12.52432782 0.86095732 -6.97057184 -0.14883913 0 0 Z " fill="#000000" transform="translate(405.40625,335.40625)"/>
<path d="M0 0 C1.08413429 -0.00810448 1.08413429 -0.00810448 2.19017029 -0.01637268 C4.56405399 -0.02881467 6.936714 -0.01240056 9.31054688 0.00561523 C10.96911686 0.00546014 12.6276872 0.00396942 14.28625488 0.00120544 C17.75626722 -0.00017651 21.2258652 0.01234509 24.69580078 0.03515625 C29.13442106 0.06354047 33.57235328 0.06080093 38.01102448 0.04806614 C41.43408034 0.04109733 44.85697834 0.04891192 48.28001404 0.06132317 C49.91620782 0.065826 51.55241862 0.06618471 53.18861389 0.06225777 C55.47895808 0.05933366 57.76836792 0.0759084 60.05859375 0.09765625 C61.35953979 0.10305923 62.66048584 0.10846222 64.00085449 0.11402893 C69.13970049 0.67864863 72.38513711 2.23385627 75.84179688 6.06420898 C78.82867483 10.37858825 78.66756598 13.7528775 78.64955139 18.8664856 C78.65040582 19.74207465 78.65126024 20.61766371 78.65214056 21.51978576 C78.65379538 24.47097461 78.64827393 27.42210735 78.64282227 30.37329102 C78.64254037 32.48193358 78.64269818 34.59057624 78.64326477 36.69921875 C78.64355265 42.43859524 78.6376575 48.17795098 78.63069081 53.91732264 C78.62445564 59.90979566 78.62385335 65.90226911 78.62266541 71.89474487 C78.61955258 83.24904199 78.61133983 94.60332952 78.60131592 105.95762241 C78.59015329 118.88124267 78.58464395 131.80486338 78.57962048 144.72848725 C78.56915718 171.31956649 78.55155867 197.9106372 78.52929688 224.50170898 C73.24929688 224.50170898 67.96929687 224.50170898 62.52929688 224.50170898 C62.52121002 221.96517136 62.51312317 219.42863373 62.50479126 216.81523132 C62.42779763 192.96124417 62.33986332 169.10731543 62.24176979 145.25340557 C62.19159855 132.98861126 62.14515621 120.72382378 62.10742188 108.45898438 C62.07453214 97.77184101 62.03471776 87.08475001 61.98650682 76.39766437 C61.96121176 70.73633561 61.9394394 65.07504172 61.92595291 59.41367149 C61.9131598 54.08922768 61.8911353 48.76490328 61.86191368 43.44052505 C61.85281633 41.48254115 61.84714267 39.524538 61.84508324 37.56653404 C61.8417759 34.90059827 61.82634021 32.2350042 61.80776978 29.56913757 C61.81067188 28.3974516 61.81067188 28.3974516 61.81363261 27.20209521 C61.77413786 23.42956479 61.67521319 21.72058345 59.52929688 18.50170898 C56.5415257 17.50578526 54.50960777 17.3580182 51.38696289 17.32470703 C50.3390004 17.3118718 49.2910379 17.29903656 48.21131897 17.28581238 C47.08004074 17.27842545 45.94876251 17.27103851 44.78320312 17.26342773 C43.62054428 17.25535599 42.45788544 17.24728424 41.25999451 17.2389679 C38.79956553 17.22513257 36.33911741 17.21440795 33.87866211 17.20654297 C30.11014755 17.18929298 26.34250177 17.14539617 22.57421875 17.10131836 C20.18555333 17.09119473 17.79688046 17.0826776 15.40820312 17.07592773 C14.27894913 17.05841965 13.14969513 17.04091156 11.98622131 17.02287292 C10.93510666 17.02579849 9.883992 17.02872406 8.80102539 17.03173828 C7.87741714 17.02587204 6.9538089 17.0200058 6.00221252 17.01396179 C2.61620386 17.6818035 1.50764022 18.6823373 -0.47070312 21.50170898 C-0.87390798 24.08752151 -1.03553063 26.25570724 -1.01660156 28.84057617 C-1.02693924 29.57267807 -1.03727692 30.30477997 -1.04792786 31.05906677 C-1.0773628 33.4724635 -1.0788551 35.88502184 -1.08007812 38.29858398 C-1.0950594 39.97440186 -1.11178644 41.65020496 -1.13018799 43.32598877 C-1.17388007 47.73183875 -1.1938646 52.13748957 -1.20892334 56.54351807 C-1.22848781 61.04142035 -1.27045853 65.53910733 -1.31054688 70.03686523 C-1.38586931 78.85844988 -1.43407706 87.67987871 -1.47070312 96.50170898 C-6.75070312 96.50170898 -12.03070313 96.50170898 -17.47070312 96.50170898 C-17.56111933 85.39233904 -17.63448562 74.283214 -17.67795181 63.17355919 C-17.69881479 58.01473684 -17.7271091 52.85617957 -17.77246094 47.69750977 C-17.81596437 42.71785506 -17.83984994 37.73845512 -17.8502121 32.75862503 C-17.85759537 30.86002213 -17.87201327 28.96143296 -17.89362335 27.06293869 C-17.92271721 24.40078496 -17.92665665 21.73968005 -17.92480469 19.07739258 C-17.93918579 18.29480072 -17.95356689 17.51220886 -17.96838379 16.7059021 C-17.92946663 11.52607109 -16.97143156 8.5505331 -13.47070312 4.50170898 C-8.96859031 0.71046258 -5.82713018 0.00074429 0 0 Z " fill="#8CA2B1" transform="translate(385.470703125,31.498291015625)"/>
<path d="M0 0 C1.04321411 -0.00563965 2.08642822 -0.0112793 3.16125488 -0.01708984 C4.31041382 -0.01304138 5.45957275 -0.00899292 6.64355469 -0.00482178 C7.8500769 -0.00832642 9.05659912 -0.01183105 10.29968262 -0.01544189 C13.61372989 -0.02275082 16.9275284 -0.02101698 20.24156189 -0.01468372 C23.70531557 -0.00962971 27.16905842 -0.0143135 30.6328125 -0.01745605 C36.45021479 -0.02109746 42.26756634 -0.01629206 48.08496094 -0.0067749 C54.81624543 0.00411001 61.54740878 0.00058455 68.27869034 -0.01042771 C74.0519731 -0.01949566 79.82521934 -0.02078829 85.59850693 -0.01555037 C89.04929338 -0.01242795 92.50002284 -0.01202876 95.95080566 -0.01862335 C99.79635347 -0.02545866 103.64176493 -0.01599209 107.48730469 -0.00482178 C109.21104309 -0.01089447 109.21104309 -0.01089447 110.96960449 -0.01708984 C112.53442566 -0.00863037 112.53442566 -0.00863037 114.13085938 0 C115.04083679 0.00075405 115.95081421 0.0015081 116.8883667 0.002285 C119.06542969 0.25396729 119.06542969 0.25396729 121.06542969 2.25396729 C121.30834961 5.1272583 121.30834961 5.1272583 121.29589844 8.75787354 C121.29396484 10.05531494 121.29203125 11.35275635 121.29003906 12.68951416 C121.28383545 13.36619141 121.27763184 14.04286865 121.27124023 14.74005127 C121.25297021 16.81187199 121.25073064 18.88324625 121.25097656 20.95513916 C121.20551226 31.11388471 121.20551226 31.11388471 120.06542969 32.25396729 C118.43551414 32.35219822 116.80132983 32.38028677 115.16845703 32.38095093 C114.10834412 32.38377075 113.0482312 32.38659058 111.95599365 32.38949585 C110.19645355 32.3864595 110.19645355 32.3864595 108.40136719 32.38336182 C107.17387756 32.38511414 105.94638794 32.38686646 104.68170166 32.38867188 C101.3057469 32.39233012 97.92985307 32.39145693 94.55390167 32.38829279 C91.02828385 32.38576885 87.5026687 32.38810682 83.97705078 32.38967896 C78.05533376 32.39150055 72.13362919 32.3890946 66.21191406 32.38433838 C59.35626159 32.37889577 52.50063886 32.38065844 45.64498711 32.38616478 C39.76898887 32.3906962 33.89299961 32.39134633 28.0170002 32.38872612 C24.50308876 32.3871635 20.98919131 32.38696916 17.47528076 32.3902626 C13.56000606 32.3936756 9.64476492 32.38895112 5.72949219 32.38336182 C4.55646545 32.38538605 3.38343872 32.38741028 2.17486572 32.38949585 C0.58469635 32.38526611 0.58469635 32.38526611 -1.03759766 32.38095093 C-1.96454437 32.3805739 -2.89149109 32.38019688 -3.8465271 32.37980843 C-5.93457031 32.25396729 -5.93457031 32.25396729 -6.93457031 31.25396729 C-7.15246218 27.13819139 -7.12036219 23.01931806 -7.11987305 18.89825439 C-7.12205765 16.82846465 -7.14020522 14.75920936 -7.15917969 12.68951416 C-7.16111328 11.39207275 -7.16304688 10.09463135 -7.16503906 8.75787354 C-7.16914795 7.55977051 -7.17325684 6.36166748 -7.17749023 5.1272583 C-6.75124554 0.08557603 -4.47179793 0.00370555 0 0 Z " fill="#47475D" transform="translate(358.9345703125,271.74603271484375)"/>
<path d="M0 0 C0 18.48 0 36.96 0 56 C-3.3 55.34 -6.6 54.68 -10 54 C-14.53241204 53.25406496 -18.89493705 52.86039967 -23.48608398 52.79467773 C-24.72684189 52.77473251 -25.96759979 52.75478729 -27.24595642 52.73423767 C-28.57933431 52.71726017 -29.91271345 52.70038112 -31.24609375 52.68359375 C-32.62615027 52.66299168 -34.00620094 52.64199443 -35.38624573 52.62062073 C-38.99794748 52.56573558 -42.60970297 52.51618005 -46.22149658 52.46777344 C-49.91529048 52.41731149 -53.60900748 52.36175504 -57.30273438 52.30664062 C-64.53509091 52.19947028 -71.7675119 52.09793611 -79 52 C-80.17210616 49.65578767 -80.12677084 48.26967765 -80.12939453 45.65795898 C-80.13254669 44.7604039 -80.13569885 43.86284882 -80.13894653 42.93809509 C-80.13591019 41.48180443 -80.13591019 41.48180443 -80.1328125 39.99609375 C-80.13376923 39.0024733 -80.13472595 38.00885284 -80.13571167 36.98512268 C-80.13639286 34.88274065 -80.1345428 32.78035652 -80.13037109 30.67797852 C-80.12501638 27.44738072 -80.13032105 24.21692161 -80.13671875 20.98632812 C-80.13605807 18.94791636 -80.13477711 16.90950468 -80.1328125 14.87109375 C-80.13483673 13.89820908 -80.13686096 12.9253244 -80.13894653 11.92295837 C-80.13579437 11.02855545 -80.13264221 10.13415253 -80.12939453 9.21264648 C-80.12859894 8.42147934 -80.12780334 7.63031219 -80.12698364 6.81517029 C-80 5 -80 5 -79 4 C-77.13102092 3.88695206 -75.25781798 3.84316966 -73.38549805 3.82641602 C-72.18301926 3.81292618 -70.98054047 3.79943634 -69.74162292 3.78553772 C-67.77157036 3.76988014 -67.77157036 3.76988014 -65.76171875 3.75390625 C-64.40183214 3.7383983 -63.04195338 3.7221883 -61.68208313 3.70530701 C-55.90134945 3.63463329 -50.1205324 3.57497311 -44.33959961 3.52319336 C-40.80457002 3.49104778 -37.26973898 3.44966702 -33.73487282 3.40299797 C-31.75224813 3.37953385 -29.76951036 3.36633028 -27.78678894 3.35340881 C-18.40967338 3.2272692 -8.93488751 0 0 0 Z " fill="#FEBE40" transform="translate(120,84)"/>
<path d="M0 0 C0.96421875 -0.03287109 1.9284375 -0.06574219 2.921875 -0.09960938 C9.6563862 -0.14993521 14.05005842 1.08260894 19.25 5.4375 C21.625 8 21.625 8 23.25 10.4375 C23.78824905 11.23326447 23.78824905 11.23326447 24.33737183 12.04510498 C25.72448233 15.68132436 25.51040881 19.31588503 25.47705078 23.15332031 C25.47734283 24.03172577 25.47763489 24.91013123 25.47793579 25.81515503 C25.47654367 28.71541255 25.46098794 31.61541242 25.4453125 34.515625 C25.44158195 36.52772888 25.43873518 38.53983457 25.43673706 40.55194092 C25.4291039 45.84559146 25.40945807 51.13913211 25.3873291 56.43273926 C25.36686389 61.83535272 25.35773389 67.23798395 25.34765625 72.640625 C25.32621193 83.23963159 25.29207975 93.83855666 25.25 104.4375 C19.97 104.4375 14.69 104.4375 9.25 104.4375 C9.23018066 102.66592529 9.21036133 100.89435059 9.18994141 99.0690918 C9.12218664 93.21761053 9.04541252 87.36628505 8.96247292 81.51500225 C8.9125143 77.96715396 8.86618445 74.41933537 8.828125 70.87133789 C8.78421731 66.79293986 8.7245677 62.71490455 8.6640625 58.63671875 C8.65251129 57.36164963 8.64096008 56.08658051 8.62905884 54.77287292 C8.60918915 53.59187515 8.58931946 52.41087738 8.56884766 51.1940918 C8.55552399 50.15262497 8.54220032 49.11115814 8.5284729 48.03813171 C8.42782224 45.2026949 8.42782224 45.2026949 6.25 42.4375 C2.87363042 41.31204347 0.11684619 41.29509102 -3.4375 41.1875 C-9.79060651 40.77444973 -13.96294048 39.64602863 -18.75 35.4375 C-19.46414062 34.94507813 -20.17828125 34.45265625 -20.9140625 33.9453125 C-23.90809991 29.85558481 -23.48706534 25.56280561 -23.5 20.625 C-23.54898438 19.65240234 -23.59796875 18.67980469 -23.6484375 17.67773438 C-23.68218929 13.52345181 -23.65592636 10.60856917 -21.05664062 7.24853516 C-14.1830563 1.088157 -9.03013604 0.05346791 0 0 Z " fill="#F4F4E5" transform="translate(134.75,295.5625)"/>
<path d="M0 0 C1.30324219 -0.02416992 1.30324219 -0.02416992 2.6328125 -0.04882812 C9.94022144 -0.05431417 15.94108611 1.08965943 21.6953125 5.81640625 C25.51103405 10.01421804 25.20430872 14.8389821 25.125 20.25 C25.18494141 21.69536133 25.18494141 21.69536133 25.24609375 23.16992188 C25.24050515 27.25798522 25.11532649 30.15640103 22.61816406 33.49267578 C15.75452041 39.8146251 9.3259266 40.54132239 0.2734375 40.7734375 C-3.43471162 41.43458037 -4.41792212 42.4086884 -6.75 45.3125 C-7.34098026 47.80787888 -7.34098026 47.80787888 -7.24829102 50.55249023 C-7.25832657 51.59714951 -7.26836212 52.64180878 -7.27870178 53.71812439 C-7.27051926 54.84110428 -7.26233673 55.96408417 -7.25390625 57.12109375 C-7.26332748 58.27996597 -7.27274872 59.4388382 -7.28245544 60.63282776 C-7.31115848 64.33873123 -7.3141816 68.0439942 -7.3125 71.75 C-7.31610501 75.45234187 -7.3256172 79.15421644 -7.35325623 82.85646057 C-7.37006924 85.16022323 -7.37290128 87.46413983 -7.36024475 89.76792908 C-7.36712814 90.81574051 -7.37401154 91.86355194 -7.38110352 92.94311523 C-7.38014175 93.86148666 -7.37917999 94.77985809 -7.37818909 95.72605896 C-7.82918968 98.86336988 -8.90929308 100.75367455 -10.75 103.3125 C-13.55915474 104.71707737 -15.63810534 104.56145157 -18.75 104.3125 C-21.8859157 102.53265595 -22.59102736 101.78941793 -23.75 98.3125 C-23.86664674 95.66282868 -23.92805556 93.03844984 -23.94287109 90.38793945 C-23.95104858 89.58105179 -23.95922607 88.77416412 -23.96765137 87.94282532 C-23.99247746 85.27048479 -24.00901602 82.59819736 -24.0234375 79.92578125 C-24.02876118 79.01178244 -24.03408485 78.09778362 -24.03956985 77.15608788 C-24.06629188 72.31638808 -24.08566809 67.47671398 -24.10009766 62.63696289 C-24.11342662 58.63770626 -24.1412612 54.63896109 -24.18212891 50.63989258 C-24.23152698 45.80585148 -24.25622772 40.97227366 -24.26332474 36.13799095 C-24.27002482 34.29964326 -24.28521444 32.4613054 -24.30921555 30.62310219 C-24.34097767 28.04287001 -24.34088758 25.46441104 -24.33349609 22.8840332 C-24.34990143 22.13204651 -24.36630676 21.38005981 -24.38320923 20.60528564 C-24.31510941 14.76457219 -22.34358574 10.87573009 -18.75 6.3125 C-12.64877588 0.65770691 -8.03589479 -0.02928533 0 0 Z " fill="#F5F5E6" transform="translate(231.75,279.6875)"/>
<path d="M0 0 C5.28 0 10.56 0 16 0 C16.01981934 1.73604492 16.03963867 3.47208984 16.06005859 5.26074219 C16.12786479 11.00045901 16.20464293 16.74001821 16.28752708 22.47953415 C16.33744564 25.95897189 16.38377582 29.43837993 16.421875 32.91796875 C16.46584663 36.91946447 16.52547971 40.92059416 16.5859375 44.921875 C16.59748871 46.16990906 16.60903992 47.41794312 16.62094116 48.70379639 C16.64081085 49.86469788 16.66068054 51.02559937 16.68115234 52.22167969 C16.69447601 53.24316101 16.70779968 54.26464233 16.7215271 55.31707764 C17.00542502 58.05226684 17.50940149 59.70509328 19 62 C22.10991396 63.55495698 25.43344049 63.24076956 28.8515625 63.31640625 C30.01261002 63.3475779 30.01261002 63.3475779 31.19711304 63.37937927 C33.67298392 63.44483448 36.14896202 63.50374087 38.625 63.5625 C40.30209448 63.60568907 41.97917807 63.64930348 43.65625 63.69335938 C47.77072498 63.80131342 51.88527977 63.90041614 56 64 C56 69.28 56 74.56 56 80 C49.70121827 80.0990734 43.40289279 80.17156619 37.10351562 80.21972656 C34.96183366 80.23980888 32.8202063 80.26708037 30.67871094 80.30175781 C27.59556585 80.35042398 24.51314738 80.3730029 21.4296875 80.390625 C20.47633514 80.41127014 19.52298279 80.43191528 18.54074097 80.45318604 C12.83044185 80.45510192 9.50458607 79.86662021 5 76 C0.76125893 71.18845609 -0.12512227 68.81724907 -0.11352539 62.43896484 C-0.11367142 61.76567642 -0.11381744 61.092388 -0.1139679 60.3986969 C-0.11327027 58.16941119 -0.10548489 55.94020865 -0.09765625 53.7109375 C-0.09579154 52.16679937 -0.09436789 50.62266066 -0.09336853 49.07852173 C-0.08954754 45.01129528 -0.07972082 40.94410445 -0.06866455 36.87689209 C-0.05844144 32.7278288 -0.05386898 28.57875975 -0.04882812 24.4296875 C-0.03809819 16.28644015 -0.02050476 8.14322861 0 0 Z " fill="#8CA2B1" transform="translate(40,360)"/>
<path d="M0 0 C0.86763474 -0.00860046 1.73526947 -0.01720093 2.62919617 -0.02606201 C4.0528801 -0.03245193 4.0528801 -0.03245193 5.50532532 -0.03897095 C7.00826393 -0.05123718 7.00826393 -0.05123718 8.54156494 -0.06375122 C11.86321922 -0.08859842 15.18483076 -0.10512044 18.50654602 -0.11953735 C20.20852111 -0.12752287 20.20852111 -0.12752287 21.94487953 -0.13566971 C27.9516749 -0.16239957 33.95844951 -0.18177421 39.96528625 -0.19619751 C46.16492345 -0.2128362 52.36402814 -0.25760863 58.56346416 -0.30856895 C63.33421427 -0.34225173 68.10483819 -0.35377617 72.87569618 -0.35942459 C75.16060768 -0.36613514 77.44551094 -0.38135196 79.73030663 -0.4053154 C82.93309575 -0.43698775 86.13445149 -0.43699992 89.33735657 -0.42959595 C90.74585876 -0.45420395 90.74585876 -0.45420395 92.18281555 -0.47930908 C98.39417104 -0.42070972 103.08182938 0.85457028 107.74482727 5.15390015 C108.23982727 6.63890015 108.23982727 6.63890015 108.74482727 8.15390015 C107.53928192 8.15532516 106.33373657 8.15675018 105.09165955 8.15821838 C93.70429457 8.17492204 82.31728541 8.2177988 70.93010902 8.28599072 C65.07646737 8.32021238 59.22308539 8.34536326 53.36933899 8.34945679 C47.71511539 8.35374997 42.06147708 8.3822981 36.40743637 8.42733192 C34.25543508 8.4402742 32.10336363 8.44462627 29.95132828 8.44005394 C26.92564231 8.43512479 23.90165186 8.46134369 20.87617493 8.49447632 C19.99575531 8.48585068 19.11533569 8.47722504 18.20823669 8.46833801 C11.03214114 8.59919805 4.61516116 10.80100471 -0.87941551 15.56099224 C-8.02955934 23.55314527 -7.72323797 32.18070104 -7.76689148 42.2749939 C-7.7837558 43.74474064 -7.80190839 45.21447312 -7.82128906 46.68418884 C-7.86860537 50.53262879 -7.89853293 54.38101085 -7.92472839 58.22964478 C-7.95462723 62.16479924 -8.00112528 66.09975466 -8.04618835 70.03475952 C-8.13201213 77.74104056 -8.19944972 85.4473364 -8.25517273 93.15390015 C-12.07463364 91.92621628 -13.63716389 89.56971434 -15.47085571 86.09173584 C-16.72376198 82.99614256 -16.764249 80.18009882 -16.77275085 76.8609314 C-16.77976013 76.16889618 -16.78676941 75.47686096 -16.79399109 74.76385498 C-16.81146164 72.49761708 -16.7999889 70.23264865 -16.78642273 67.96640015 C-16.78912083 66.37891401 -16.79300589 64.79142949 -16.79801941 63.20394897 C-16.80389959 59.88534734 -16.79539982 56.56717789 -16.7766571 53.24862671 C-16.75386792 49.00841363 -16.76699904 44.76921345 -16.79094696 40.52903748 C-16.80544537 37.25347347 -16.80078058 33.97814709 -16.79043579 30.70257568 C-16.78777964 29.13976927 -16.79099892 27.57694083 -16.800354 26.01416016 C-16.81058722 23.82448714 -16.79492775 21.63642298 -16.77275085 19.4468689 C-16.76956848 18.20445435 -16.76638611 16.96203979 -16.7631073 15.68197632 C-15.98074571 10.24775024 -13.75952053 6.54817372 -9.69267273 2.77890015 C-6.39468825 0.58024382 -3.87379865 0.02863712 0 0 Z " fill="#47475D" transform="translate(152.2551727294922,63.846099853515625)"/>
<path d="M0 0 C1.14626322 0.97866338 2.29199788 1.95794587 3.4375 2.9375 C4.39462891 3.75541016 4.39462891 3.75541016 5.37109375 4.58984375 C7.98908677 6.85625977 7.98908677 6.85625977 8.28808594 10.79443359 C8.48777119 15.33321457 8.59505414 19.87328532 8.6796875 24.41552734 C8.72615241 26.37124831 8.79413354 28.32658944 8.88476562 30.28076172 C9.01382978 33.11294949 9.06847235 35.9387589 9.109375 38.7734375 C9.16301208 39.63222504 9.21664917 40.49101257 9.27191162 41.37582397 C9.25483522 47.33771365 7.15222981 52.18638917 2.97753906 56.4918251 C-6.07397398 63.75711962 -20.72405508 61.49877967 -31.75102711 61.34585428 C-35.56738588 61.30281061 -39.38359726 61.31722987 -43.20013428 61.32345581 C-49.60245704 61.32516239 -56.00334578 61.28347172 -62.40527344 61.21435547 C-69.79436896 61.13500359 -77.18147395 61.11935233 -84.570925 61.1387769 C-91.7019073 61.15649853 -98.83220078 61.13439285 -105.9630661 61.09246445 C-108.98851753 61.07505599 -112.01357706 61.07052186 -115.03907013 61.07632828 C-118.60221451 61.0809911 -122.16340595 61.05036436 -125.72607422 60.99298096 C-127.64844252 60.96999715 -129.57112399 60.98098606 -131.49359131 60.99313354 C-137.31101512 60.86458571 -141.04819005 60.68356057 -145.33050537 56.50192261 C-148 53.33077698 -148 53.33077698 -148 52 C-147.32745871 52.00775137 -146.65491741 52.01550274 -145.96199608 52.023489 C-129.54189905 52.20787083 -113.12331397 52.31383485 -96.70223045 52.33421898 C-88.76067464 52.34593714 -80.82085922 52.38347821 -72.87988281 52.48339844 C-65.95238485 52.57049895 -59.02666483 52.60753181 -52.09862196 52.58627188 C-48.43467725 52.57672899 -44.77455973 52.59100653 -41.11127853 52.66541672 C-23.42998375 53.57085703 -23.42998375 53.57085703 -8.00943947 46.3426609 C-1.56848149 39.77265691 0.32387586 33.93336662 0.69824219 24.79882812 C0.66118164 24.07888672 0.62412109 23.35894531 0.5859375 22.6171875 C0.53518066 21.38887207 0.53518066 21.38887207 0.48339844 20.13574219 C0.44762695 19.30719727 0.41185547 18.47865234 0.375 17.625 C0.35293236 15.90632065 0.33726754 14.18754671 0.328125 12.46875 C0.29232166 8.30772544 0.17075445 4.15758309 0 0 Z " fill="#8CA2B1" transform="translate(272,180)"/>
<path d="M0 0 C11 2 11 2 16 3 C21.28 3.33 26.56 3.66 32 4 C32 19.84 32 35.68 32 52 C24.41 52.66 16.82 53.32 9 54 C6.03 54.66 3.06 55.32 0 56 C0 37.52 0 19.04 0 0 Z " fill="#FEBE40" transform="translate(280,84)"/>
<path d="M0 0 C10.56 0 21.12 0 32 0 C32 15.84 32 31.68 32 48 C21.44 48 10.88 48 0 48 C0 32.16 0 16.32 0 0 Z " fill="#2358AD" transform="translate(32,296)"/>
<path d="M0 0 C10.56 0 21.12 0 32 0 C32 15.84 32 31.68 32 48 C21.44 48 10.88 48 0 48 C0 32.16 0 16.32 0 0 Z " fill="#2358AD" transform="translate(360,144)"/>
<path d="M0 0 C1.3563579 -0.00181288 2.71271647 -0.00844335 4.06903076 -0.01947021 C7.71874717 -0.03531079 11.3645724 0.01654436 15.01361275 0.0822587 C18.84240889 0.14025998 22.67120144 0.13753558 26.50036621 0.14230347 C32.91953685 0.15883396 39.33725546 0.2160764 45.75585938 0.30175781 C53.99585727 0.4115869 62.23485714 0.45641515 70.47550201 0.48005867 C77.57036038 0.50062523 84.66500528 0.54757326 91.75968742 0.60048056 C94.03739986 0.61670129 96.31511727 0.62991413 98.59284973 0.64297867 C102.16529846 0.66542655 105.73722152 0.70423134 109.30936432 0.75583649 C111.24685326 0.78061039 113.18450968 0.79096331 115.12213135 0.80093384 C116.84620209 0.83096497 116.84620209 0.83096497 118.60510254 0.86160278 C119.60570961 0.87312441 120.60631668 0.88464603 121.63724518 0.8965168 C124.13085938 1.29638672 124.13085938 1.29638672 125.97621918 2.51106071 C127.13085938 4.29638672 127.13085938 4.29638672 127.13085938 9.29638672 C79.61085937 9.29638672 32.09085937 9.29638672 -16.86914062 9.29638672 C-16.86914062 25.13638672 -16.86914062 40.97638672 -16.86914062 57.29638672 C-21.86914062 57.29638672 -21.86914062 57.29638672 -23.64944458 56.04772949 C-25.09957709 53.96550654 -25.28959723 52.7967808 -25.38427734 50.27490234 C-25.41955536 49.46976196 -25.45483337 48.66462158 -25.49118042 47.83508301 C-25.51020416 46.96637573 -25.52922791 46.09766846 -25.54882812 45.20263672 C-25.57067169 44.30073608 -25.59251526 43.39883545 -25.61502075 42.46960449 C-25.65214043 40.55654833 -25.68012443 38.64329651 -25.69970703 36.72998047 C-25.7436066 33.83164431 -25.86224847 30.94241737 -25.98242188 28.04638672 C-26.00923265 26.18186475 -26.03150641 24.31727098 -26.04882812 22.45263672 C-26.0961911 21.60012329 -26.14355408 20.74760986 -26.19235229 19.8692627 C-26.12165468 13.23768126 -23.26409266 9.68856761 -18.67735624 5.07521522 C-13.02563611 -0.10186166 -7.48147543 -0.20913885 0 0 Z " fill="#D0E2ED" transform="translate(144.869140625,174.70361328125)"/>
<path d="M0 0 C3.41059403 1.60535287 5.61792484 3.40518901 8.25 6.125 C8.95640625 6.84945312 9.6628125 7.57390625 10.390625 8.3203125 C10.92171875 8.87460938 11.4528125 9.42890625 12 10 C10.6415798 13.04332765 9.11536976 15.12309151 6.7421875 17.453125 C6.11699219 18.071875 5.49179688 18.690625 4.84765625 19.328125 C4.19667969 19.96234375 3.54570312 20.5965625 2.875 21.25 C2.21628906 21.8996875 1.55757812 22.549375 0.87890625 23.21875 C-0.74296643 24.81711727 -2.3693281 26.41061897 -4 28 C-2.4152642 31.86328627 0.05956887 34.28876923 3.0078125 37.203125 C3.49329559 37.6857782 3.97877869 38.1684314 4.47897339 38.66571045 C6.02299866 40.19858562 7.57384824 41.72434004 9.125 43.25 C10.17624009 44.29120361 11.22702657 45.33286541 12.27734375 46.375 C14.84633004 48.92199464 17.42148161 51.46265177 20 54 C18.39464713 57.41059403 16.59481099 59.61792484 13.875 62.25 C13.15054688 62.95640625 12.42609375 63.6628125 11.6796875 64.390625 C10.84824219 65.18726563 10.84824219 65.18726563 10 66 C7.17414883 64.71250291 5.11178487 63.36358836 2.91552734 61.17431641 C2.34168304 60.60677643 1.76783875 60.03923645 1.17660522 59.45449829 C0.56918488 58.84302948 -0.03823547 58.23156067 -0.6640625 57.6015625 C-1.29734467 56.97019379 -1.93062683 56.33882507 -2.58309937 55.68832397 C-3.91853731 54.35424492 -5.25146129 53.01764522 -6.58203125 51.67871094 C-8.61760808 49.63243078 -10.66362105 47.59702687 -12.7109375 45.5625 C-14.00845424 44.26366161 -15.30535043 42.96420293 -16.6015625 41.6640625 C-17.21303131 41.05664215 -17.82450012 40.4492218 -18.45449829 39.82339478 C-19.02203827 39.24955048 -19.58957825 38.67570618 -20.17431641 38.08447266 C-20.67299225 37.58420563 -21.17166809 37.0839386 -21.68545532 36.56851196 C-24.21171858 33.55417992 -25.00708988 31.5876108 -24.95922852 27.62084961 C-23.81419858 23.29864576 -21.81460888 21.04027903 -18.65234375 18.06640625 C-18.12105362 17.5436058 -17.58976349 17.02080536 -17.04237366 16.48216248 C-15.35438609 14.82756603 -13.64670483 13.19514093 -11.9375 11.5625 C-10.78443772 10.43955563 -9.63272906 9.31521955 -8.48242188 8.18945312 C-5.67035712 5.44328221 -2.84044392 2.71679473 0 0 Z " fill="#030101" transform="translate(217,83)"/>
<path d="M0 0 C21.12 0 42.24 0 64 0 C64 5.28 64 10.56 64 16 C42.88 16 21.76 16 0 16 C0 10.72 0 5.44 0 0 Z " fill="#8DA3B2" transform="translate(272,424)"/>
<path d="M0 0 C6.43661871 1.569907 11.10780494 4.93887635 14.57954407 10.55532837 C16.35773896 14.86753359 16.40121633 18.33269003 16.34057617 22.94287109 C16.34123329 24.26091736 16.34123329 24.26091736 16.34190369 25.60559082 C16.33982225 28.49510312 16.31652164 31.3840272 16.29296875 34.2734375 C16.2873705 36.2826811 16.28310149 38.29192881 16.28010559 40.30117798 C16.26867485 45.57842398 16.2392228 50.85542059 16.20599365 56.13256836 C16.17525464 61.52193834 16.16159206 66.91134879 16.14648438 72.30078125 C16.11435149 82.86729681 16.06317647 93.43362763 16 104 C13.36 104 10.72 104 8 104 C7.99857498 102.88215118 7.99714996 101.76430237 7.99568176 100.61257935 C7.97897209 90.04930467 7.93607725 79.48641327 7.86790943 68.92334175 C7.83369972 63.49343528 7.80853878 58.06380838 7.80444336 52.63378906 C7.80014755 47.38802874 7.77157827 42.14289844 7.72656822 36.89733505 C7.7136342 34.90163729 7.70927093 32.90586398 7.71384621 30.91012955 C7.97781218 16.17091143 7.97781218 16.17091143 2 3 C1.34 2.01 0.68 1.02 0 0 Z " fill="#CAC9B1" transform="translate(144,296)"/>
<path d="M0 0 C5.28 0 10.56 0 16 0 C16.0825 2.145 16.165 4.29 16.25 6.5 C16.90159343 15.12709695 18.57130629 20.00128542 24.9375 25.875 C27.79810474 28.22229996 30.38848383 29.98426108 34 31 C34 31.33 34 31.66 34 32 C22.78 32 11.56 32 0 32 C0 21.44 0 10.88 0 0 Z " fill="#2E2E3E" transform="translate(176,368)"/>
<path d="M0 0 C0.07613173 7.86533399 0.12863448 15.73057276 0.16479492 23.59619141 C0.17817551 26.27149721 0.20033385 28.94632149 0.22631836 31.62158203 C0.26275084 35.46913751 0.27973828 39.31636586 0.29296875 43.1640625 C0.30845261 44.35802643 0.32393646 45.55199036 0.33988953 46.78213501 C0.34123372 53.43040818 0.19331878 58.49899165 -4.5 63.64453125 C-9.6750986 67.67410021 -13.31115515 68.13989728 -19.6875 68.0625 C-20.38939453 68.05798828 -21.09128906 68.05347656 -21.81445312 68.04882812 C-23.54300538 68.03706927 -25.27151365 68.01913454 -27 68 C-24 66 -24 66 -21.25 64.875 C-16.21849526 61.9722088 -12.25406867 57.90257603 -9.93115234 52.52612305 C-8.67620757 47.77385053 -8.64393411 43.24800336 -8.5859375 38.3515625 C-8.56657135 37.33903412 -8.5472052 36.32650574 -8.5272522 35.28329468 C-8.46769277 32.06394758 -8.42116552 28.84456426 -8.375 25.625 C-8.33679849 23.43618272 -8.2977455 21.24738012 -8.2578125 19.05859375 C-8.16201077 13.70585995 -8.07689467 8.353037 -8 3 C-2.25 0 -2.25 0 0 0 Z " fill="#CAC9B0" transform="translate(256,412)"/>
<path d="M0 0 C5.19412897 0.56558293 8.95769075 1.34022337 12.5 5.375 C16.10378607 9.91977466 16.39433494 14.28214339 16 20 C14.10741259 25.25718726 11.43796456 27.83002532 7 31 C3.84054734 32.07549634 0.89920789 32.11610671 -2.421875 32.09765625 C-3.44667969 32.09443359 -4.47148437 32.09121094 -5.52734375 32.08789062 C-6.59082031 32.07951172 -7.65429688 32.07113281 -8.75 32.0625 C-9.82894531 32.05798828 -10.90789062 32.05347656 -12.01953125 32.04882812 C-14.67974383 32.03705727 -17.33984365 32.02061399 -20 32 C-17.74827151 30.85243816 -15.5376962 29.81507848 -13.1875 28.875 C-7.83240726 25.72494545 -4.04922451 21.4799852 -1.625 15.75 C-0.75344689 10.52068132 -0.32999524 5.28860787 0 0 Z " fill="#2D2D3D" transform="translate(240,368)"/>
<path d="M0 0 C10.56 0 21.12 0 32 0 C32 5.28 32 10.56 32 16 C21.44 16 10.88 16 0 16 C0 10.72 0 5.44 0 0 Z " fill="#D98319" transform="translate(184,32)"/>
<path d="M0 0 C0 4.95 0 9.9 0 15 C-7.12028863 17.94183772 -14.27069942 20.46221357 -21.625 22.75 C-22.62917969 23.06582031 -23.63335937 23.38164062 -24.66796875 23.70703125 C-27.11089622 24.47480845 -29.55529467 25.23790272 -32 26 C-32 20.72 -32 15.44 -32 10 C-27.76506039 8.57306487 -23.52959549 7.14796303 -19.29248047 5.72753906 C-17.85071123 5.24359309 -16.40930254 4.75857161 -14.96826172 4.27246094 C-12.89904721 3.57465288 -10.82857457 2.88070002 -8.7578125 2.1875 C-7.5114502 1.76855469 -6.26508789 1.34960938 -4.98095703 0.91796875 C-2 0 -2 0 0 0 Z " fill="#7FA102" transform="translate(432,403)"/>
<path d="M0 0 C2.64 0 5.28 0 8 0 C8.07610425 7.0291449 8.12862273 14.05818342 8.16479492 21.08764648 C8.17987543 23.4786374 8.20034277 25.86960068 8.22631836 28.26049805 C8.26273306 31.69847435 8.27973399 35.13608469 8.29296875 38.57421875 C8.30845261 39.64210129 8.32393646 40.70998383 8.33988953 41.81022644 C8.34200565 51.1552462 8.34200565 51.1552462 5 55 C2.29120665 56.35439668 -0.00933268 56.06501451 -3 56 C-2.01 55.505 -2.01 55.505 -1 55 C-0.67 36.85 -0.34 18.7 0 0 Z " fill="#CAC9B1" transform="translate(216,328)"/>
<path d="M0 0 C0 10.56 0 21.12 0 32 C-10.50666297 29.66518601 -10.50666297 29.66518601 -13.90234375 25.125 C-16.6307674 19.84292716 -16.5020118 14.80133647 -14.9375 9.1875 C-12.36294837 4.95194731 -9.59177726 1.96266012 -4.8125 0.1875 C-3 0 -3 0 0 0 Z " fill="#2E2E3E" transform="translate(128,368)"/>
<path d="M0 0 C2.64 0 5.28 0 8 0 C8 15.84 8 31.68 8 48 C5.36 48 2.72 48 0 48 C0 32.16 0 16.32 0 0 Z " fill="#1C4684" transform="translate(56,296)"/>
<path d="M0 0 C7.92 0 15.84 0 24 0 C24 5.28 24 10.56 24 16 C16.08 16 8.16 16 0 16 C0 10.72 0 5.44 0 0 Z " fill="#000000" transform="translate(440,280)"/>
<path d="M0 0 C7.92 0 15.84 0 24 0 C24 5.28 24 10.56 24 16 C16.08 16 8.16 16 0 16 C0 10.72 0 5.44 0 0 Z " fill="#000000" transform="translate(368,280)"/>
<path d="M0 0 C2.64 0 5.28 0 8 0 C8 15.84 8 31.68 8 48 C5.36 48 2.72 48 0 48 C0 32.16 0 16.32 0 0 Z " fill="#1C4684" transform="translate(384,144)"/>
<path d="M0 0 C5.28 0 10.56 0 16 0 C16 5.28 16 10.56 16 16 C10.72 16 5.44 16 0 16 C0 10.72 0 5.44 0 0 Z " fill="#D1E3EE" transform="translate(408,352)"/>
<path d="M0 0 C5.21798767 1.24237802 9.06102122 3.47089792 12 8 C12.91847751 11.66803649 12.93020308 15.17114445 12.875 18.9375 C12.91496094 19.90107422 12.95492188 20.86464844 12.99609375 21.85742188 C12.99042984 26.00056946 12.87322667 28.86350276 10.29785156 32.21533203 C7.05327785 35.168301 4.36837348 37.19420141 0 38 C1 36 2 34 3 32 C3.27081495 27.7137379 3.2316306 23.41884638 3.25 19.125 C3.270625 17.92746094 3.29125 16.72992188 3.3125 15.49609375 C3.31765625 14.34496094 3.3228125 13.19382812 3.328125 12.0078125 C3.3374707 10.95223145 3.34681641 9.89665039 3.35644531 8.80908203 C2.95410381 5.6383003 2.02800531 4.39813302 0 2 C0 1.34 0 0.68 0 0 Z " fill="#C9C8AF" transform="translate(244,281)"/>
<path d="M0 0 C5.28 0 10.56 0 16 0 C16 5.28 16 10.56 16 16 C10.72 16 5.44 16 0 16 C0 10.72 0 5.44 0 0 Z " fill="#D1E3EE" transform="translate(40,264)"/>
<path d="M0 0 C5.28 0 10.56 0 16 0 C16 5.28 16 10.56 16 16 C10.72 16 5.44 16 0 16 C0 10.72 0 5.44 0 0 Z " fill="#D1E3EE" transform="translate(368,208)"/>
<path d="M0 0 C5.28 0 10.56 0 16 0 C16 5.28 16 10.56 16 16 C10.72 16 5.44 16 0 16 C0 10.72 0 5.44 0 0 Z " fill="#000000" transform="translate(224,200)"/>
<path d="M0 0 C5.28 0 10.56 0 16 0 C16 5.28 16 10.56 16 16 C10.72 16 5.44 16 0 16 C0 10.72 0 5.44 0 0 Z " fill="#000000" transform="translate(192,200)"/>
<path d="M0 0 C5.28 0 10.56 0 16 0 C16 5.28 16 10.56 16 16 C10.72 16 5.44 16 0 16 C0 10.72 0 5.44 0 0 Z " fill="#000000" transform="translate(160,200)"/>
<path d="M0 0 C0 4.29 0 8.58 0 13 C-10.56 13 -21.12 13 -32 13 C-32 12.01 -32 11.02 -32 10 C-27.7654367 8.5720217 -23.52958336 7.14795896 -19.29248047 5.72753906 C-17.85071123 5.24359309 -16.40930254 4.75857161 -14.96826172 4.27246094 C-12.89904721 3.57465288 -10.82857457 2.88070002 -8.7578125 2.1875 C-7.5114502 1.76855469 -6.26508789 1.34960938 -4.98095703 0.91796875 C-2 0 -2 0 0 0 Z " fill="#335501" transform="translate(432,435)"/>
<path d="M0 0 C10.56 0 21.12 0 32 0 C31.67 0.99 31.34 1.98 31 3 C28.69262393 3.98131537 26.51023112 4.75884161 24.12109375 5.48046875 C23.4344313 5.69818436 22.74776886 5.91589996 22.04029846 6.14021301 C19.84277098 6.83408607 17.64040571 7.51091894 15.4375 8.1875 C13.94821877 8.65448761 12.45928127 9.12257294 10.97070312 9.59179688 C7.31767116 10.74064786 3.66021146 11.87424261 0 13 C0 8.71 0 4.42 0 0 Z " fill="#D8EA8F" transform="translate(400,384)"/>
</svg>
