<?xml version="1.0" encoding="UTF-8"?>
<svg version="1.1" xmlns="http://www.w3.org/2000/svg" width="400" height="400">
<path d="M0 0 C52.14 0 104.28 0 158 0 C158.33 0.99 158.66 1.98 159 3 C161.31 3.33 163.62 3.66 166 4 C166.33 4.99 166.66 5.98 167 7 C168.65 7.33 170.3 7.66 172 8 C172.33 8.99 172.66 9.98 173 11 C173.99 11.495 173.99 11.495 175 12 C175 12.66 175 13.32 175 14 C175.66 14 176.32 14 177 14 C177 15.98 177 17.96 177 20 C178.32 20.33 179.64 20.66 181 21 C181 119.34 181 217.68 181 319 C179.68 319.33 178.36 319.66 177 320 C177 321.98 177 323.96 177 326 C176.34 326 175.68 326 175 326 C175 326.66 175 327.32 175 328 C174.34 328.33 173.68 328.66 173 329 C172.67 329.99 172.34 330.98 172 332 C168.9375 333.1875 168.9375 333.1875 166 334 C166 334.66 166 335.32 166 336 C163.69 336.33 161.38 336.66 159 337 C158.67 337.99 158.34 338.98 158 340 C105.86 340 53.72 340 0 340 C-0.33 339.01 -0.66 338.02 -1 337 C-3.31 336.67 -5.62 336.34 -8 336 C-8.495 334.515 -8.495 334.515 -9 333 C-10.65 332.67 -12.3 332.34 -14 332 C-14.495 330.515 -14.495 330.515 -15 329 C-15.66 328.67 -16.32 328.34 -17 328 C-17 327.34 -17 326.68 -17 326 C-17.66 326 -18.32 326 -19 326 C-19 324.02 -19 322.04 -19 320 C-20.32 319.67 -21.64 319.34 -23 319 C-23 220.66 -23 122.32 -23 21 C-21.68 20.67 -20.36 20.34 -19 20 C-19.12375 18.6078125 -19.12375 18.6078125 -19.25 17.1875 C-19 14 -19 14 -17.0625 12.3125 C-16.381875 11.879375 -15.70125 11.44625 -15 11 C-14.67 10.01 -14.34 9.02 -14 8 C-12.35 7.67 -10.7 7.34 -9 7 C-8.67 6.01 -8.34 5.02 -8 4 C-4.535 3.505 -4.535 3.505 -1 3 C-0.67 2.01 -0.34 1.02 0 0 Z " fill="#BADCFC" transform="translate(121,30)"/>
<path d="M0 0 C52.14 0 104.28 0 158 0 C158.33 0.99 158.66 1.98 159 3 C161.31 3.33 163.62 3.66 166 4 C166.33 4.99 166.66 5.98 167 7 C168.65 7.33 170.3 7.66 172 8 C172.33 8.99 172.66 9.98 173 11 C173.99 11.495 173.99 11.495 175 12 C175 12.66 175 13.32 175 14 C175.66 14 176.32 14 177 14 C177 15.98 177 17.96 177 20 C178.32 20.33 179.64 20.66 181 21 C181 119.34 181 217.68 181 319 C179.68 319.33 178.36 319.66 177 320 C177 321.98 177 323.96 177 326 C176.34 326 175.68 326 175 326 C175 326.66 175 327.32 175 328 C174.34 328.33 173.68 328.66 173 329 C172.67 329.99 172.34 330.98 172 332 C168.9375 333.1875 168.9375 333.1875 166 334 C166 334.66 166 335.32 166 336 C163.69 336.33 161.38 336.66 159 337 C158.67 337.99 158.34 338.98 158 340 C105.86 340 53.72 340 0 340 C-0.33 339.01 -0.66 338.02 -1 337 C-3.31 336.67 -5.62 336.34 -8 336 C-8.495 334.515 -8.495 334.515 -9 333 C-10.65 332.67 -12.3 332.34 -14 332 C-14.495 330.515 -14.495 330.515 -15 329 C-15.66 328.67 -16.32 328.34 -17 328 C-17 327.34 -17 326.68 -17 326 C-17.66 326 -18.32 326 -19 326 C-19 324.02 -19 322.04 -19 320 C-20.32 319.67 -21.64 319.34 -23 319 C-23 220.66 -23 122.32 -23 21 C-21.68 20.67 -20.36 20.34 -19 20 C-19.12375 18.6078125 -19.12375 18.6078125 -19.25 17.1875 C-19 14 -19 14 -17.0625 12.3125 C-16.381875 11.879375 -15.70125 11.44625 -15 11 C-14.67 10.01 -14.34 9.02 -14 8 C-12.35 7.67 -10.7 7.34 -9 7 C-8.67 6.01 -8.34 5.02 -8 4 C-4.535 3.505 -4.535 3.505 -1 3 C-0.67 2.01 -0.34 1.02 0 0 Z M4 30 C3.97720213 62.17963817 3.95949794 94.35927404 3.94893467 126.53891839 C3.94768392 130.33543454 3.9463896 134.13195067 3.94506836 137.9284668 C3.94480605 138.6843054 3.94454374 139.44014401 3.94427348 140.21888682 C3.93991862 152.46769697 3.93203207 164.71650246 3.9228472 176.96530984 C3.91350557 189.52767188 3.90794331 202.09003148 3.90591151 214.65239686 C3.90453734 222.40806938 3.90019248 230.16372868 3.89208353 237.91939714 C3.88618763 243.85996995 3.88554234 249.80053593 3.88689232 255.74111176 C3.88661619 258.18287678 3.88461363 260.62464229 3.88079453 263.06640434 C3.87585056 266.38908101 3.87700437 269.71170017 3.87974548 273.03437805 C3.87683264 274.01004945 3.8739198 274.98572084 3.87091869 275.99095803 C3.87290974 276.87823026 3.87490079 277.76550249 3.87695217 278.67966175 C3.87657245 279.44707654 3.87619273 280.21449133 3.8758015 281.00516111 C3.92740963 283.2100053 3.92740963 283.2100053 5 286 C7.66816312 287.33408156 9.69812999 287.12897007 12.68711853 287.13371277 C13.89717056 287.13797775 15.1072226 287.14224274 16.35394287 287.14663696 C17.7020264 287.14628742 19.0501099 287.14582588 20.39819336 287.14526367 C21.81232289 287.14825452 23.2264516 287.15165688 24.64057922 287.15544128 C28.48765132 287.16429277 32.33470119 287.16661987 36.18178248 287.16725707 C39.39016124 287.16820528 42.59853478 287.17188253 45.80691153 287.17542917 C53.37445085 287.183578 60.94197828 287.186013 68.50952148 287.18530273 C76.3234525 287.18470174 84.13731453 287.1952569 91.95122808 287.2110464 C98.65359858 287.22410865 105.3559465 287.22948719 112.05832964 287.22884732 C116.06415356 287.22859196 120.06991619 287.23146429 124.07572746 287.24202538 C127.84234226 287.25168435 131.6088369 287.25180076 135.37545586 287.24450874 C136.75938593 287.24346017 138.1433234 287.2458419 139.52724075 287.2518692 C141.41344476 287.25955323 143.29968945 287.25376126 145.18589783 287.24723816 C146.77071158 287.24805531 146.77071158 287.24805531 148.38754177 287.24888897 C151.23429336 287.18562334 151.23429336 287.18562334 154 285 C154.44891513 283.05311586 154.44891513 283.05311586 154.36914349 280.77147484 C154.37511663 279.87922687 154.38108978 278.9869789 154.38724393 278.06769311 C154.3785054 277.08132698 154.36976688 276.09496085 154.36076355 275.07870483 C154.36332682 274.03569013 154.3658901 272.99267543 154.36853105 271.91805422 C154.37349827 268.40013082 154.35692745 264.88263039 154.34057617 261.36474609 C154.33973054 258.85216787 154.3402038 256.3395889 154.34190369 253.82701111 C154.34258829 248.40581188 154.33404324 242.98475046 154.31719017 237.56357956 C154.29283919 229.72544741 154.28499891 221.88736768 154.2812262 214.0492018 C154.27465557 201.33322728 154.25467786 188.6173104 154.22631836 175.90136719 C154.19879359 163.54687794 154.17755228 151.19240433 154.16479492 138.83789062 C154.16400675 138.0767322 154.16321858 137.31557377 154.16240653 136.53134994 C154.1584915 132.71295314 154.15470035 128.89455623 154.15097082 125.07615924 C154.11985587 93.38406388 154.06678093 61.69204089 154 30 C150.52338401 28.13262739 148.17402622 27.74894338 144.19972229 27.74603271 C143.01505371 27.74039307 141.83038513 27.73475342 140.6098175 27.72894287 C139.3135997 27.73299133 138.0173819 27.73703979 136.68188477 27.74121094 C135.30026058 27.73850027 133.91863783 27.73493891 132.53701782 27.73059082 C128.78700252 27.72147269 125.03709727 27.7250089 121.28708005 27.73134899 C117.36162599 27.73641298 113.43618135 27.73171633 109.51072693 27.72857666 C102.91753448 27.72493775 96.32438682 27.72973369 89.73120117 27.73925781 C82.11152921 27.75013772 74.49196432 27.74661988 66.87229496 27.735605 C60.3286566 27.7265246 53.78505044 27.72525067 47.24140781 27.73048234 C43.33392548 27.73359848 39.42649345 27.73402126 35.51901436 27.72740936 C31.84428149 27.72162574 28.16968642 27.72565136 24.49496841 27.73719788 C22.50521788 27.74109783 20.51545568 27.73516714 18.52571106 27.72894287 C16.74447845 27.73740234 16.74447845 27.73740234 14.92726135 27.74603271 C13.38229398 27.74716379 13.38229398 27.74716379 11.80611515 27.74831772 C8.85931314 28.0126183 6.6736591 28.76442208 4 30 Z " fill="#36444D" transform="translate(121,30)"/>
<path d="M0 0 C0.99 0.33 1.98 0.66 3 1 C3 99.34 3 197.68 3 299 C2.01 299.33 1.02 299.66 0 300 C0 201 0 102 0 0 Z " fill="#060709" transform="translate(299,50)"/>
<path d="M0 0 C0.66 0 1.32 0 2 0 C2 99 2 198 2 300 C1.01 299.67 0.02 299.34 -1 299 C-1.02286496 261.05358441 -1.04049751 223.10716986 -1.05106533 185.16074878 C-1.05231611 180.68569775 -1.05361042 176.21064672 -1.05493164 171.7355957 C-1.05532511 170.39918437 -1.05532511 170.39918437 -1.05572652 169.03577482 C-1.06008351 154.59022818 -1.06797122 140.1446855 -1.0771528 125.69914121 C-1.08648853 110.8880641 -1.09205544 96.07698907 -1.09408849 81.26590914 C-1.09546389 72.11909291 -1.09981537 62.97228787 -1.10791647 53.82547509 C-1.11318293 47.56195 -1.11480452 41.29843074 -1.11350138 35.03490359 C-1.11285784 31.41562079 -1.11387726 27.79635761 -1.11920547 24.17707825 C-1.12492662 20.26254039 -1.12300112 16.34802854 -1.12025452 12.43348694 C-1.12316736 11.27689719 -1.1260802 10.12030744 -1.12908131 8.92866951 C-1.12709026 7.88862658 -1.12509921 6.84858365 -1.12304783 5.77702427 C-1.12342755 4.87215072 -1.12380727 3.96727718 -1.1241985 3.03498322 C-1 1 -1 1 0 0 Z " fill="#060708" transform="translate(99,50)"/>
<path d="M0 0 C15.84 0 31.68 0 48 0 C48 5.61 48 11.22 48 17 C32.16 17 16.32 17 0 17 C0 11.39 0 5.78 0 0 Z " fill="#6D8997" transform="translate(176,333)"/>
<path d="M0 0 C-0.33 0.99 -0.66 1.98 -1 3 C-53.14 3 -105.28 3 -159 3 C-159 2.01 -159 1.02 -159 0 C-138.56432517 -0.15379491 -118.12861642 -0.30183105 -97.69285011 -0.4429636 C-88.20471647 -0.50862519 -78.71660343 -0.57618934 -69.22851562 -0.64819336 C-60.96115143 -0.71092866 -52.69377089 -0.77013409 -44.42635095 -0.82505554 C-40.04661631 -0.85427512 -35.66691068 -0.88529287 -31.28722 -0.92053413 C-27.16858187 -0.95361915 -23.04993864 -0.98199991 -18.93124199 -1.00670624 C-17.4162655 -1.01663538 -15.90129935 -1.02831236 -14.38635063 -1.04183006 C-12.32451114 -1.05997126 -10.26272727 -1.0719331 -8.20083618 -1.08229065 C-6.46694358 -1.09473485 -6.46694358 -1.09473485 -4.69802284 -1.10743046 C-2 -1 -2 -1 0 0 Z " fill="#070708" transform="translate(280,367)"/>
<path d="M0 0 C0.66 0 1.32 0 2 0 C2 0.66 2 1.32 2 2 C1.34 2 0.68 2 0 2 C-0.66 3.32 -1.32 4.64 -2 6 C-2.66 6 -3.32 6 -4 6 C-3.979375 6.763125 -3.95875 7.52625 -3.9375 8.3125 C-4 11 -4 11 -5 14 C-5.08344142 15.8390534 -5.10733013 17.6810527 -5.09765625 19.52197266 C-5.09435303 20.65390045 -5.0910498 21.78582825 -5.08764648 22.95205688 C-5.07934814 24.17701874 -5.0710498 25.40198059 -5.0625 26.6640625 C-5.05871338 27.9258432 -5.05492676 29.1876239 -5.05102539 30.48764038 C-5.03672115 35.21522806 -5.0136074 39.94274176 -4.98962402 44.67028809 C-4.96661065 49.29320433 -4.95131072 53.91610768 -4.9375 58.5390625 C-4.92920166 59.75187897 -4.92090332 60.96469543 -4.91235352 62.21426392 C-4.89638207 67.77870668 -5.06562263 73.15309853 -5.77514648 78.66867065 C-6.26576579 83.75551655 -6.09855329 88.87942153 -6.0625 93.984375 C-6.05871338 95.23462463 -6.05492676 96.48487427 -6.05102539 97.77301025 C-6.03489371 103.07267895 -6.00720434 108.37225598 -5.97949219 113.671875 C-5.88979257 132.48046903 -6.20372093 151.20961411 -7 170 C-7.33 170 -7.66 170 -8 170 C-8.16362118 149.14650779 -8.28700981 128.29312163 -8.3626852 107.43911743 C-8.39875881 97.7559054 -8.44792791 88.07309253 -8.52807617 78.39013672 C-8.59791142 69.94909298 -8.6430229 61.50833835 -8.65861946 53.06701374 C-8.66773467 48.5984397 -8.68911081 44.13069265 -8.7401104 39.66238403 C-8.78776241 35.45311386 -8.80225355 31.24500815 -8.79175377 27.03549385 C-8.79367345 25.49395981 -8.80751748 23.95238528 -8.83443832 22.41108513 C-9.05161799 9.33102063 -9.05161799 9.33102063 -4.51283264 4.08203125 C-3.37448083 3.01868715 -2.21069874 1.98018064 -1 1 C-0.67 0.67 -0.34 0.34 0 0 Z " fill="#424E56" transform="translate(109,41)"/>
<path d="M0 0 C52.14 0 104.28 0 158 0 C158 0.99 158 1.98 158 3 C80.285 2.505 80.285 2.505 1 2 C0.67 1.34 0.34 0.68 0 0 Z " fill="#040305" transform="translate(121,30)"/>
<path d="M0 0 C0.66 0 1.32 0 2 0 C2 0.66 2 1.32 2 2 C1.34 2 0.68 2 0 2 C-0.66 3.32 -1.32 4.64 -2 6 C-2.66 6 -3.32 6 -4 6 C-3.979375 6.763125 -3.95875 7.52625 -3.9375 8.3125 C-4 11 -4 11 -5 14 C-5.08345715 15.844347 -5.10732864 17.69163287 -5.09765625 19.5378418 C-5.09435303 20.67299728 -5.0910498 21.80815277 -5.08764648 22.97770691 C-5.07934814 24.20580582 -5.0710498 25.43390472 -5.0625 26.69921875 C-5.05871338 27.96337112 -5.05492676 29.2275235 -5.05102539 30.52998352 C-5.03671807 35.26634491 -5.01357971 40.00263238 -4.98962402 44.73895264 C-4.96663905 49.37153282 -4.95132416 54.00410027 -4.9375 58.63671875 C-4.92920166 59.8546965 -4.92090332 61.07267426 -4.91235352 62.32756042 C-4.8951515 68.32112381 -5.07134491 74.07571064 -6 80 C-6.33 80 -6.66 80 -7 80 C-7.29363653 70.88172971 -7.54823946 61.76342889 -7.75383663 52.64274597 C-7.85052784 48.40701987 -7.96035183 44.17250631 -8.10083008 39.93798828 C-8.23605353 35.84698105 -8.33594058 31.75646077 -8.41195869 27.66394043 C-8.44697037 26.10720831 -8.49444819 24.55070231 -8.55491447 22.99475098 C-9.07406571 9.28339941 -9.07406571 9.28339941 -4.53344727 4.04296875 C-2.61256409 2.27416992 -2.61256409 2.27416992 -1 1 C-0.67 0.67 -0.34 0.34 0 0 Z " fill="#465560" transform="translate(109,41)"/>
<path d="M0 0 C0.94875 0.845625 1.8975 1.69125 2.875 2.5625 C6.7285339 5.88587626 10.84447455 8.73702976 15.05859375 11.58203125 C15.69925781 12.04996094 16.33992188 12.51789063 17 13 C17 13.33 17 13.66 17 14 C15.02 14 13.04 14 11 14 C10.67 13.01 10.34 12.02 10 11 C8.35 10.67 6.7 10.34 5 10 C4.67 9.01 4.34 8.02 4 7 C3.34 6.67 2.68 6.34 2 6 C2 5.34 2 4.68 2 4 C1.34 4 0.68 4 0 4 C0 2.68 0 1.36 0 0 Z " fill="#040204" transform="translate(102,352)"/>
<path d="M0 0 C0.33 1.32 0.66 2.64 1 4 C0.34 4 -0.32 4 -1 4 C-1 4.66 -1 5.32 -1 6 C-1.99 6.495 -1.99 6.495 -3 7 C-3.33 7.99 -3.66 8.98 -4 10 C-7.0625 11.1875 -7.0625 11.1875 -10 12 C-10 12.66 -10 13.32 -10 14 C-12.31 14 -14.62 14 -17 14 C-16.4328125 13.57589844 -15.865625 13.15179688 -15.28125 12.71484375 C-13.01173082 11.0088182 -10.75087674 9.29305421 -8.5 7.5625 C-7.7471875 6.98628906 -6.994375 6.41007812 -6.21875 5.81640625 C-3.9967995 3.99737987 -1.99501714 2.06302909 0 0 Z " fill="#050304" transform="translate(297,352)"/>
<path d="M0 0 C1.98 0 3.96 0 6 0 C6.33 0.99 6.66 1.98 7 3 C8.65 3.33 10.3 3.66 12 4 C12.33 4.99 12.66 5.98 13 7 C13.66 7.33 14.32 7.66 15 8 C15 8.66 15 9.32 15 10 C15.66 10 16.32 10 17 10 C16.67 11.32 16.34 12.64 16 14 C15.59910156 13.56429687 15.19820313 13.12859375 14.78515625 12.6796875 C10.77506612 8.4786407 6.6483339 5.23952734 1.72265625 2.1640625 C1.15417969 1.77992187 0.58570313 1.39578125 0 1 C0 0.67 0 0.34 0 0 Z " fill="#030202" transform="translate(281,34)"/>
<path d="M0 0 C1.65 0 3.3 0 5 0 C0.06304584 5.09123397 -5.0880019 10.05866794 -11 14 C-10.42437172 10.66135596 -9.40936384 9.30897368 -7 7 C-6.67 6.01 -6.34 5.02 -6 4 C-4.35 3.67 -2.7 3.34 -1 3 C-0.67 2.01 -0.34 1.02 0 0 Z " fill="#060709" transform="translate(113,34)"/>
<path d="M0 0 C0.66 0 1.32 0 2 0 C2 4.95 2 9.9 2 15 C0.68 14.67 -0.64 14.34 -2 14 C-1.67 13.67 -1.34 13.34 -1 13 C-0.76518307 10.81707226 -0.58636677 8.62796826 -0.4375 6.4375 C-0.35371094 5.23996094 -0.26992187 4.04242188 -0.18359375 2.80859375 C-0.12300781 1.88175781 -0.06242188 0.95492188 0 0 Z " fill="#7892A3" transform="translate(222,334)"/>
<path d="M0 0 C0 0.66 0 1.32 0 2 C-0.66 2 -1.32 2 -2 2 C-2.66 3.32 -3.32 4.64 -4 6 C-4.66 6 -5.32 6 -6 6 C-6 6.66 -6 7.32 -6 8 C-6.66 8 -7.32 8 -8 8 C-8 8.99 -8 9.98 -8 11 C-8.66 11 -9.32 11 -10 11 C-8.73396788 6.69549079 -5.08358566 0 0 0 Z " fill="#4E5B66" transform="translate(111,41)"/>
<path d="M0 0 C-1.36983503 3.16115776 -1.9890638 3.9927092 -5 6 C-5.33 5.01 -5.66 4.02 -6 3 C-2.25 0 -2.25 0 0 0 Z M-7 6 C-5 7 -5 7 -5 7 Z " fill="#404E57" transform="translate(116,37)"/>
<path d="M0 0 C1.98 0 3.96 0 6 0 C6.33 1.65 6.66 3.3 7 5 C3.535 3.02 3.535 3.02 0 1 C0 0.67 0 0.34 0 0 Z " fill="#090809" transform="translate(281,34)"/>
</svg>
