<?xml version="1.0" encoding="UTF-8"?>
<svg version="1.1" xmlns="http://www.w3.org/2000/svg" width="512" height="512">
<path d="M0 0 C0.6815918 0.21430664 1.36318359 0.42861328 2.06542969 0.64941406 C16.29351879 5.23201941 28.68612402 12.18713576 40 22 C40.80824219 22.66386719 41.61648438 23.32773437 42.44921875 24.01171875 C62.63859101 41.15842267 75.81374274 66.75985723 79 93 C79.31167763 97.8577634 79.3818035 102.69552175 79.375 107.5625 C79.37418427 108.55120087 79.37418427 108.55120087 79.37335205 109.55987549 C79.33181094 120.54101814 78.38494788 130.5566372 75 141 C74.67854004 142.0223877 74.67854004 142.0223877 74.35058594 143.06542969 C69.76798059 157.29351879 62.81286424 169.68612402 53 181 C52.33613281 181.80824219 51.67226563 182.61648437 50.98828125 183.44921875 C33.83944197 203.6411053 8.24162174 216.80888524 -18 220 C-46.30352177 221.8246464 -71.98075307 217.89777713 -96 202 C-96.22743896 203.25200195 -96.45487793 204.50400391 -96.68920898 205.79394531 C-97.99992588 211.66587688 -100.4397398 216.86441747 -102.97265625 222.296875 C-103.9657931 224.4953715 -104.95727571 226.69461588 -105.94726562 228.89453125 C-107.4936571 232.31117604 -109.04941794 235.72195919 -110.63500977 239.12060547 C-117.55791718 254.01458783 -121.74683257 266.46189327 -121 283 C-113.79011612 283.18266428 -106.5808568 283.30214222 -99.36914062 283.38452148 C-96.93369297 283.41898237 -94.49838071 283.46615203 -92.06347656 283.52807617 C-78.43052374 283.86521694 -65.91555665 283.26470901 -52.63708496 280.00947189 C-28.79855718 274.20362041 -4.69031552 275.05849798 19.70257568 275.28619385 C24.66177781 275.32171739 29.62058769 275.31534719 34.57988548 275.30878925 C39.3736727 275.30600059 44.16720654 275.32353059 48.96092606 275.34792137 C51.24071189 275.35810817 53.52052634 275.36322903 55.80033493 275.36312294 C58.95514857 275.36707594 62.10861675 275.3971097 65.26318359 275.43481445 C66.19591599 275.43143066 67.12864838 275.42804688 68.08964539 275.42456055 C74.29507168 275.53766766 74.29507168 275.53766766 77.57620239 277.68962097 C79.31852517 280.51686691 79.50675185 282.21813618 79.51757812 285.53125 C79.53018677 286.63919922 79.54279541 287.74714844 79.55578613 288.88867188 C79.54364075 290.6762793 79.54364075 290.6762793 79.53125 292.5 C79.5350769 293.72783203 79.53890381 294.95566406 79.54284668 296.22070312 C79.54556842 298.81641459 79.53818911 301.41215336 79.52148438 304.0078125 C79.50008075 307.98499599 79.52127963 311.96037282 79.546875 315.9375 C79.54423177 318.45833733 79.53910691 320.97917353 79.53125 323.5 C79.53934692 324.69173828 79.54744385 325.88347656 79.55578613 327.11132812 C79.54317749 328.21927734 79.53056885 329.32722656 79.51757812 330.46875 C79.51439575 331.44263672 79.51121338 332.41652344 79.50793457 333.41992188 C78.85690627 336.72685148 77.58885089 337.91105171 75 340 C72.75 340.75 72.75 340.75 71 341 C71.39832031 341.69222656 71.79664063 342.38445312 72.20703125 343.09765625 C80.73902212 358.85381457 81.71088473 374.00155759 77 391 C75.99705213 393.45861527 74.92734289 395.794731 73.671875 398.1328125 C72.31049815 401.91617375 74.53634241 405.47000229 76 409 C80.84901629 420.69468634 80.97013691 435.68060222 76.26953125 447.45703125 C74.20146275 451.59953154 71.80332315 455.32109823 69 459 C67.88625 460.546875 67.88625 460.546875 66.75 462.125 C57.92747377 471.34855015 47.59167942 476.01204902 34.85079956 476.45292664 C30.08656931 476.53025934 25.32676832 476.49526574 20.5625 476.4375 C19.00542831 476.4272731 19.00542831 476.4272731 17.41690063 476.4168396 C-44.92829011 475.99913716 -106.76987474 468.91688146 -168.4309082 460.25927734 C-177.67107019 458.96348051 -186.89893167 457.71008015 -196.1875 456.8125 C-196.92814697 456.74063477 -197.66879395 456.66876953 -198.43188477 456.59472656 C-214.72887238 455.13566664 -231.02098492 454.76358412 -247.375 454.75 C-248.98592529 454.74749237 -248.98592529 454.74749237 -250.62939453 454.74493408 C-266.46298262 454.74347514 -282.2064626 455.24982213 -298 456.375 C-298.88854675 456.43812378 -299.77709351 456.50124756 -300.69256592 456.56628418 C-308.66421117 457.14661475 -316.60935051 457.80569365 -324.53970337 458.80810547 C-335.49592225 460.17064535 -346.39308179 460.37230367 -357.42626953 460.37060547 C-360.65578598 460.37504229 -363.88399921 460.41169729 -367.11328125 460.44921875 C-369.19270375 460.45507786 -371.2721326 460.4590533 -373.3515625 460.4609375 C-374.30374664 460.47530853 -375.25593079 460.48967957 -376.23696899 460.50448608 C-383.4524274 460.45527971 -388.76894994 458.83139055 -394.2421875 454.03515625 C-394.78101563 453.38417969 -395.31984375 452.73320312 -395.875 452.0625 C-396.42929687 451.41410156 -396.98359375 450.76570313 -397.5546875 450.09765625 C-401.83102762 443.89118423 -401.37234863 437.53562693 -401.37060547 430.24487305 C-401.37496602 428.20340714 -401.41128866 426.1641292 -401.44921875 424.12304688 C-401.47525045 415.33734761 -400.97489947 409.53596878 -395.03515625 402.7578125 C-394.05869141 401.94957031 -394.05869141 401.94957031 -393.0625 401.125 C-392.41410156 400.57070313 -391.76570313 400.01640625 -391.09765625 399.4453125 C-385.72379471 395.74265185 -380.808941 395.68103297 -374.48828125 395.6640625 C-373.54346893 395.65591019 -372.59865662 395.64775787 -371.62521362 395.63935852 C-368.52083574 395.62021479 -365.41692917 395.62046166 -362.3125 395.625 C-361.24987946 395.62388214 -360.18725891 395.62276428 -359.09243774 395.62161255 C-341.17462308 395.63084568 -323.54351078 396.76855779 -305.74493408 398.76026917 C-287.06618205 400.8480249 -268.47376253 401.20739188 -249.6875 401.1875 C-248.53982147 401.18656342 -247.39214294 401.18562683 -246.20968628 401.18466187 C-216.58114083 401.13237877 -187.85466841 398.56971581 -158.55639648 394.36578369 C-125.07698049 389.57535918 -91.60308377 385.35088041 -57.875 382.75 C-56.84560303 382.66975586 -55.81620605 382.58951172 -54.75561523 382.50683594 C-47.49711607 381.99038775 -40.27510716 381.92093866 -33 382 C-33.09764648 381.2997168 -33.19529297 380.59943359 -33.29589844 379.87792969 C-35.04871081 366.54719348 -32.53649618 352.30474427 -25 341 C-25.88671387 340.82871582 -26.77342773 340.65743164 -27.68701172 340.48095703 C-31.02316221 339.83635966 -34.35925558 339.19146812 -37.6953125 338.54638672 C-39.13051159 338.26892776 -40.56573239 337.99158109 -42.00097656 337.71435547 C-44.08143955 337.31248082 -46.16182025 336.91018243 -48.2421875 336.5078125 C-50.1489639 336.13927589 -52.05576472 335.77083998 -53.96355438 335.40758514 C-55.36767196 335.12655752 -56.76717323 334.82177883 -58.16199493 334.49774933 C-64.75193059 333.0217131 -71.04578932 332.69503112 -77.78369141 332.68115234 C-78.91656586 332.67110672 -80.04944031 332.6610611 -81.21664429 332.65071106 C-84.92827895 332.62003808 -88.639842 332.60288813 -92.3515625 332.5859375 C-94.938025 332.56721309 -97.52448147 332.54763873 -100.1109314 332.5272522 C-106.20211883 332.48128047 -112.29330303 332.44382439 -118.38457143 332.41057932 C-125.32547735 332.37221549 -132.26629172 332.32284324 -139.20712018 332.27259517 C-153.47134425 332.16957352 -167.73563036 332.08021737 -182 332 C-182.29189209 332.92578857 -182.58378418 333.85157715 -182.88452148 334.80541992 C-189.41243831 353.5004936 -208.70953287 366.87560338 -225.75170898 375.23144531 C-242.2211838 382.92838381 -260.73802377 388.09217159 -278.9609375 388.203125 C-279.70977203 388.20882507 -280.45860657 388.21452515 -281.23013306 388.22039795 C-282.81177381 388.22979745 -284.39343371 388.2363617 -285.97509766 388.24023438 C-288.33403264 388.2498333 -290.69205403 388.28085914 -293.05078125 388.3125 C-307.12664893 388.41155769 -320.57476692 386.45922345 -334.0625 382.3125 C-334.89265625 382.05903809 -335.7228125 381.80557617 -336.578125 381.54443359 C-360.16187053 374.01876288 -382.87449293 358.77029482 -394.81640625 336.6328125 C-401.74764241 322.16907632 -403.88776251 305.45674335 -399.375 289.8125 C-395.58777074 279.64259766 -390.12085217 271.14614252 -383 263 C-382.48050781 262.39671875 -381.96101563 261.7934375 -381.42578125 261.171875 C-362.55992015 240.83286102 -330.42844011 228.98576887 -303.17041016 227.83886719 C-301.79336669 227.81898284 -300.41622399 227.80526009 -299.0390625 227.796875 C-298.29022797 227.79117493 -297.54139343 227.78547485 -296.76986694 227.77960205 C-295.18822619 227.77020255 -293.60656629 227.7636383 -292.02490234 227.75976562 C-289.66596736 227.7501667 -287.30794597 227.71914086 -284.94921875 227.6875 C-270.87335107 227.58844231 -257.42523308 229.54077655 -243.9375 233.6875 C-243.10734375 233.94096191 -242.2771875 234.19442383 -241.421875 234.45556641 C-217.91630252 241.95629178 -195.18720116 257.15253834 -183.25390625 279.23046875 C-182 282 -182 282 -182 284 C-177.71 283.67 -173.42 283.34 -169 283 C-168.04439529 264.59497872 -173.94767726 250.68124413 -181.5625 234.1875 C-183.21264867 230.56628003 -184.84442354 226.93728501 -186.46409607 223.30232239 C-187.4654242 221.06085681 -188.48289268 218.82650832 -189.51893616 216.60087585 C-192.12658173 210.82535745 -194.01873314 206.35790337 -193 200 C-191.47517395 197.81480408 -191.47517395 197.81480408 -189 196 C-186.15144782 195.59717875 -183.68376424 195.43551659 -180.83496094 195.45410156 C-180.0150769 195.44376389 -179.19519287 195.43342621 -178.35046387 195.42277527 C-175.64490118 195.3933161 -172.94008556 195.39184746 -170.234375 195.390625 C-168.35677664 195.37564543 -166.47919146 195.35891875 -164.60162354 195.34051514 C-159.66312052 195.29680429 -154.72479525 195.27683425 -149.78613281 195.26177979 C-144.74533562 195.24222217 -139.70473078 195.20025065 -134.6640625 195.16015625 C-124.77610094 195.08481368 -114.88818235 195.0345467 -105 195 C-105.80606689 194.27772217 -106.61213379 193.55544434 -107.44262695 192.8112793 C-108.52053901 191.83664025 -109.59824615 190.86177454 -110.67578125 189.88671875 C-111.20465942 189.41391479 -111.7335376 188.94111084 -112.27844238 188.45397949 C-127.05529404 175.03852684 -136.42164101 156.93852878 -142 138 C-142.3403125 136.89398438 -142.680625 135.78796875 -143.03125 134.6484375 C-150.0750668 106.79927293 -144.98531682 75.88818627 -130.8671875 51.15234375 C-115.71607013 25.99628799 -91.91776755 6.63267378 -63.33764648 -0.92236328 C-43.09452001 -5.91745121 -19.99084388 -6.47951871 0 0 Z M-313 247 C-313 253.93 -313 260.86 -313 268 C-307.72 268 -302.44 268 -297 268 C-297 260.41 -297 252.82 -297 245 C-305.77106573 244.58791831 -305.77106573 244.58791831 -313 247 Z M-281 245 C-281 252.59 -281 260.18 -281 268 C-275.72 268 -270.44 268 -265 268 C-265 260.74 -265 253.48 -265 246 C-272.30641294 244.78786797 -272.30641294 244.78786797 -281 245 Z M-338.125 253.4375 C-339.73761719 254.11619141 -339.73761719 254.11619141 -341.3828125 254.80859375 C-343.87562697 255.75876128 -343.87562697 255.75876128 -345 257 C-345.07226502 258.85287502 -345.0838122 260.70833878 -345.0625 262.5625 C-345.041875 264.356875 -345.02125 266.15125 -345 268 C-339.72 268 -334.44 268 -329 268 C-329 262.39 -329 256.78 -329 251 C-332.60110873 251 -334.81800104 252.03102936 -338.125 253.4375 Z M-249 251 C-249 256.61 -249 262.22 -249 268 C-243.72 268 -238.44 268 -233 268 C-233 264.37 -233 260.74 -233 257 C-234.52625 256.195625 -236.0525 255.39125 -237.625 254.5625 C-238.48351562 254.11003906 -239.34203125 253.65757812 -240.2265625 253.19140625 C-243.43524382 251.6825622 -243.43524382 251.6825622 -249 251 Z M-378 284 C-378.825 285.8975 -379.65 287.795 -380.5 289.75 C-380.9640625 290.81734375 -381.428125 291.8846875 -381.90625 292.984375 C-383.22730717 296.09207716 -383.22730717 296.09207716 -383 300 C-375.74 300 -368.48 300 -361 300 C-361 294.72 -361 289.44 -361 284 C-366.61 284 -372.22 284 -378 284 Z M-345 284 C-345 289.28 -345 294.56 -345 300 C-339.72 300 -334.44 300 -329 300 C-329 294.72 -329 289.44 -329 284 C-334.28 284 -339.56 284 -345 284 Z M-313 284 C-313 289.28 -313 294.56 -313 300 C-307.72 300 -302.44 300 -297 300 C-297 294.72 -297 289.44 -297 284 C-302.28 284 -307.56 284 -313 284 Z M-281 284 C-281 289.28 -281 294.56 -281 300 C-275.72 300 -270.44 300 -265 300 C-265 294.72 -265 289.44 -265 284 C-270.28 284 -275.56 284 -281 284 Z M-249 284 C-249 289.28 -249 294.56 -249 300 C-243.72 300 -238.44 300 -233 300 C-233 294.72 -233 289.44 -233 284 C-238.28 284 -243.56 284 -249 284 Z M-217 284 C-217 289.28 -217 294.56 -217 300 C-209.74 300 -202.48 300 -195 300 C-195.87545795 293.63733915 -195.87545795 293.63733915 -198.0625 288.0625 C-198.701875 286.721875 -199.34125 285.38125 -200 284 C-205.61 284 -211.22 284 -217 284 Z M-383 316 C-382.12454205 322.36266085 -382.12454205 322.36266085 -379.9375 327.9375 C-379.298125 329.278125 -378.65875 330.61875 -378 332 C-372.39 332 -366.78 332 -361 332 C-361 326.72 -361 321.44 -361 316 C-368.26 316 -375.52 316 -383 316 Z M-345 316 C-345 321.28 -345 326.56 -345 332 C-339.72 332 -334.44 332 -329 332 C-329 326.72 -329 321.44 -329 316 C-334.28 316 -339.56 316 -345 316 Z M-313 316 C-313 321.28 -313 326.56 -313 332 C-307.72 332 -302.44 332 -297 332 C-297 326.72 -297 321.44 -297 316 C-302.28 316 -307.56 316 -313 316 Z M-281 316 C-281 321.28 -281 326.56 -281 332 C-275.72 332 -270.44 332 -265 332 C-265 326.72 -265 321.44 -265 316 C-270.28 316 -275.56 316 -281 316 Z M-249 316 C-249 321.28 -249 326.56 -249 332 C-243.72 332 -238.44 332 -233 332 C-233 326.72 -233 321.44 -233 316 C-238.28 316 -243.56 316 -249 316 Z M-217 316 C-217 321.28 -217 326.56 -217 332 C-211.39 332 -205.78 332 -200 332 C-199.175 330.1025 -198.35 328.205 -197.5 326.25 C-197.0359375 325.18265625 -196.571875 324.1153125 -196.09375 323.015625 C-194.77269283 319.90792284 -194.77269283 319.90792284 -195 316 C-202.26 316 -209.52 316 -217 316 Z M-345 348 C-345 351.63 -345 355.26 -345 359 C-343.47375 359.804375 -341.9475 360.60875 -340.375 361.4375 C-339.08722656 362.11619141 -339.08722656 362.11619141 -337.7734375 362.80859375 C-334.56475618 364.3174378 -334.56475618 364.3174378 -329 365 C-329 359.39 -329 353.78 -329 348 C-334.28 348 -339.56 348 -345 348 Z M-313 348 C-313 355.26 -313 362.52 -313 370 C-305.69358706 371.21213203 -305.69358706 371.21213203 -297 371 C-297 363.41 -297 355.82 -297 348 C-302.28 348 -307.56 348 -313 348 Z M-281 348 C-281 355.59 -281 363.18 -281 371 C-272.22893427 371.41208169 -272.22893427 371.41208169 -265 369 C-265 362.07 -265 355.14 -265 348 C-270.28 348 -275.56 348 -281 348 Z M-249 348 C-249 353.61 -249 359.22 -249 365 C-244.17151132 364.19525189 -241.73248296 363.60225453 -237.625 361.4375 C-236.09875 360.633125 -234.5725 359.82875 -233 359 C-233 355.37 -233 351.74 -233 348 C-238.28 348 -243.56 348 -249 348 Z " fill="#010000" transform="translate(417,20)"/>
<path d="M0 0 C0.6581369 0.00021149 1.3162738 0.00042297 1.99435425 0.00064087 C17.98471769 0.0517856 31.77228999 2.87196149 46.4375 9.375 C47.41847656 9.80425781 48.39945313 10.23351563 49.41015625 10.67578125 C75.98927447 23.10738463 96.02021097 46.06295415 106.18359375 73.38037109 C116.86644517 103.50168121 114.19871865 135.06092743 100.84765625 163.796875 C87.20687277 190.62909851 63.83007783 209.4275042 35.859375 219.6875 C24.21992562 223.43860217 13.08661778 224.76629768 0.875 224.75 C0.2168631 224.74978851 -0.4412738 224.74957703 -1.11935425 224.74935913 C-32.66628872 224.64845714 -60.06306062 211.49907254 -82.11914062 189.30639648 C-103.7807311 166.70677178 -112.34277311 137.07905667 -111.80859375 106.32421875 C-110.82933875 75.66525493 -96.38685951 48.87185037 -74.515625 27.92578125 C-54.27256177 9.27693375 -27.22998679 -0.03634126 0 0 Z " fill="#010101" transform="translate(127.5625,15.625)"/>
<path d="M0 0 C2.21603075 1.9542593 3.24708128 3.81160355 4.60546875 6.42578125 C10.50009069 17.3068901 22.49878507 23.79405378 33.875 27.4375 C52.49941455 32.19616099 67.98200102 26.68848262 83.91015625 17.28125 C84.94462891 16.64703125 84.94462891 16.64703125 86 16 C90.08585609 23.32049216 90.31314036 31.17931584 88.12109375 39.2265625 C84.26662411 49.27616981 79.10989522 55.54737151 69.33203125 60.08984375 C62.64860935 62.69828144 55.83318048 62.24330577 48.75 62.25 C48.00759064 62.25100708 47.26518127 62.25201416 46.50027466 62.25305176 C-1.53081911 62.21031108 -49.66363119 57.99881761 -97.22753906 51.50878906 C-101.25128117 50.96610989 -105.27726715 50.44419232 -109.3046875 49.9296875 C-109.99824844 49.84100403 -110.69180939 49.75232056 -111.40638733 49.66094971 C-113.45839797 49.39875511 -115.51044224 49.13682555 -117.5625 48.875 C-126.02686023 47.79465361 -134.47977673 46.6594823 -142.92553711 45.44189453 C-152.86288833 44.01359264 -162.81705221 42.87237662 -172.8125 41.9375 C-173.64007813 41.85822266 -174.46765625 41.77894531 -175.3203125 41.69726562 C-191.31635127 40.25301023 -207.32048337 39.79439196 -223.375 39.8125 C-224.29399078 39.81277191 -225.21298157 39.81304382 -226.15982056 39.81332397 C-252.51485309 39.84873103 -278.83886694 40.8217803 -304.92993164 44.75634766 C-307 45 -307 45 -311 45 C-311 35.1 -311 25.2 -311 15 C-308.25558594 15.29648437 -305.51117188 15.59296875 -302.68359375 15.8984375 C-255.91297136 20.84442185 -208.79887132 22.39606255 -162 17 C-161.17375122 16.90571716 -160.34750244 16.81143433 -159.49621582 16.71429443 C-143.11661556 14.8382557 -126.76745141 12.86185851 -110.51419067 10.08239746 C-103.28365262 8.85495424 -96.02970201 7.88968957 -88.75 7 C-87.74350403 6.87593277 -87.74350403 6.87593277 -86.7166748 6.74935913 C-67.30719163 4.3619552 -47.83992614 1.99854691 -28.28613281 1.2902832 C-18.89856276 0.94931759 -9.30366296 -1.73804693 0 0 Z " fill="#C58A51" transform="translate(391,418)"/>
<path d="M0 0 C2.12475586 1.43286133 2.12475586 1.43286133 4.21484375 3.08203125 C4.98376953 3.68466797 5.75269531 4.28730469 6.54492188 4.90820312 C7.33447266 5.53662109 8.12402344 6.16503906 8.9375 6.8125 C9.72318359 7.42931641 10.50886719 8.04613281 11.31835938 8.68164062 C13.55527415 10.44309402 15.7852295 12.21076864 18 14 C19.56850708 15.11532104 19.56850708 15.11532104 21.16870117 16.25317383 C24.49695183 19.48212512 25.47180212 21.9205363 25.6484375 26.4296875 C25.76759408 35.36520355 21.06939947 40.62319641 15.1640625 46.8828125 C11.87462055 50.22210666 8.51535556 53.4715719 5.11328125 56.69519043 C3.12317141 58.60711272 1.18716397 60.56957091 -0.75032616 62.53457832 C-3.0838006 64.88849234 -5.46040414 67.19632992 -7.8359375 69.5078125 C-8.70302338 70.37834259 -9.57010925 71.24887268 -10.46347046 72.14578247 C-16.51287724 77.80606521 -16.51287724 77.80606521 -20.58772278 78.33746338 C-23.15258726 78.10342839 -25.50530344 77.63057301 -28 77 C-29.29800537 76.81630859 -30.59601074 76.63261719 -31.93334961 76.44335938 C-33.16061768 76.24548828 -34.38788574 76.04761719 -35.65234375 75.84375 C-36.6525631 75.68295959 -36.6525631 75.68295959 -37.67298889 75.5189209 C-39.06030381 75.29515353 -40.44738474 75.06993076 -41.83422852 74.84326172 C-43.95718982 74.49678655 -46.08105556 74.15630838 -48.20507812 73.81640625 C-49.56255704 73.59670631 -50.91998105 73.37666678 -52.27734375 73.15625 C-53.49671631 72.95837891 -54.71608887 72.76050781 -55.97241211 72.55664062 C-59 72 -59 72 -62 71 C-61.55226884 52.96864527 -50.89880494 35.02519784 -39 22 C-38.30261719 21.22140625 -37.60523437 20.4428125 -36.88671875 19.640625 C-29.32601065 11.62378643 -11.24143837 -5.37822364 0 0 Z " fill="#E7E4F0" transform="translate(96,41)"/>
<path d="M0 0 C1.45599609 0.77150391 1.45599609 0.77150391 2.94140625 1.55859375 C4.029375 2.10773437 5.11734375 2.656875 6.23828125 3.22265625 C30.58888026 17.05071135 47.65602917 37.33921087 55.56640625 64.3828125 C56.03918329 67.12590428 55.96414755 69.77965455 55.94140625 72.55859375 C50.33840532 73.58552501 44.73340352 74.60040088 39.1262207 75.60424805 C37.21970057 75.94730824 35.31376508 76.29363446 33.40844727 76.64331055 C30.66700667 77.14584842 27.92366656 77.63653831 25.1796875 78.125 C24.33054276 78.28327774 23.48139801 78.44155548 22.60652161 78.60462952 C21.80606918 78.74485031 21.00561676 78.88507111 20.1809082 79.02954102 C19.48141556 79.15611588 18.78192291 79.28269073 18.06123352 79.4131012 C14.35376661 79.66756006 11.81812898 79.19339673 8.78361511 76.99621582 C8.06635757 76.32135132 7.34910004 75.64648682 6.61010742 74.95117188 C5.78963425 74.18526733 4.96916107 73.41936279 4.12382507 72.63024902 C3.25280655 71.79191528 2.38178802 70.95358154 1.484375 70.08984375 C0.12993034 68.78738708 0.12993034 68.78738708 -1.25187683 67.45861816 C-3.15856766 65.61164391 -5.05877484 63.75961635 -6.95288086 61.89990234 C-8.8842266 60.0083339 -10.83745755 58.14517347 -12.81616211 56.30322266 C-30.97194222 39.31480639 -30.97194222 39.31480639 -31.65202332 30.24438477 C-31.5403735 25.31302158 -31.061444 21.83586649 -27.90039062 17.80981445 C-25.67811908 15.85142607 -23.39422494 14.28706842 -20.86962891 12.74511719 C-18.78795875 11.38128368 -16.90067156 9.86315072 -14.9765625 8.28515625 C-14.27660156 7.72030518 -13.57664063 7.1554541 -12.85546875 6.57348633 C-11.46924783 5.45472261 -10.09006637 4.32716932 -8.71875 3.19018555 C-3.87608388 -0.55938375 -3.87608388 -0.55938375 0 0 Z " fill="#E7E4F0" transform="translate(166.05859375,39.44140625)"/>
<path d="M0 0 C3.13738154 1.39080525 5.25475281 3.01022204 7.66699219 5.43994141 C8.71762848 6.49080429 8.71762848 6.49080429 9.78948975 7.56289673 C10.53442688 8.31815643 11.27936401 9.07341614 12.046875 9.8515625 C12.81807678 10.62559418 13.58927856 11.39962585 14.3838501 12.19711304 C16.84396856 14.66841923 19.29703848 17.14659183 21.75 19.625 C23.41750894 21.30254052 25.08547232 22.97962945 26.75390625 24.65625 C30.8412237 28.76560919 34.92277696 32.88062647 39 37 C37.54870321 41.75725808 35.57731325 46.12361752 33.33984375 50.55078125 C32.9899086 51.25019333 32.63997345 51.94960541 32.2794342 52.67021179 C31.54422716 54.13762101 30.80708914 55.6040642 30.06811523 57.06958008 C28.93332978 59.32077291 27.80507603 61.5751499 26.67773438 63.83007812 C25.96131645 65.25800269 25.24453262 66.68574374 24.52734375 68.11328125 C24.18879868 68.78925858 23.8502536 69.4652359 23.50144958 70.16169739 C21.11610031 74.88389969 21.11610031 74.88389969 20 76 C17.1883662 76.08861992 14.40141745 76.11522355 11.58984375 76.09765625 C10.74780899 76.0962413 9.90577423 76.09482635 9.03822327 76.09336853 C6.33794665 76.08775263 3.63775172 76.07519748 0.9375 76.0625 C-0.88867068 76.05748705 -2.71484266 76.05292379 -4.54101562 76.04882812 C-9.02737542 76.03777804 -13.51367384 76.02050279 -18 76 C-20.88017827 70.57636577 -23.74072487 65.14304026 -26.58349609 59.69970703 C-27.95619715 57.0834836 -29.34676928 54.47734582 -30.73828125 51.87109375 C-31.5765049 50.26874357 -32.41378337 48.6658985 -33.25 47.0625 C-33.65661865 46.31242676 -34.0632373 45.56235352 -34.48217773 44.78955078 C-35.578125 42.66015625 -35.578125 42.66015625 -37 39 C-35.87749205 35.77572375 -33.95624799 33.71195843 -31.56005859 31.33300781 C-30.85948334 30.63258362 -30.15890808 29.93215942 -29.43710327 29.21051025 C-28.68184357 28.46557312 -27.92658386 27.72063599 -27.1484375 26.953125 C-26.37440582 26.18192322 -25.60037415 25.41072144 -24.80288696 24.6161499 C-22.33158077 22.15603144 -19.85340817 19.70296152 -17.375 17.25 C-15.69745948 15.58249106 -14.02037055 13.91452768 -12.34375 12.24609375 C-8.23439081 8.1587763 -4.11937353 4.07722304 0 0 Z " fill="#242929" transform="translate(127,92)"/>
<path d="M0 0 C5.16362259 0.0625806 10.32743653 0.08903209 15.49133301 0.11901855 C25.53291144 0.1824066 35.57337343 0.28746848 45.61437988 0.4119873 C45.61437988 10.9719873 45.61437988 21.5319873 45.61437988 32.4119873 C32.16929318 32.4119873 32.16929318 32.4119873 27.36437988 30.0369873 C20.13849863 26.54651924 13.43192573 25.01929557 5.42687988 25.0369873 C4.32702759 25.03831665 4.32702759 25.03831665 3.20495605 25.03967285 C-4.74753656 25.20990441 -12.24888998 27.04978765 -19.19030762 31.0135498 C-23.35227421 32.83504619 -26.82161232 32.98497727 -31.32312012 32.9744873 C-32.20250244 32.9764209 -33.08188477 32.97835449 -33.98791504 32.98034668 C-47.63916155 32.67422852 -61.09431391 29.29878684 -74.38562012 26.4119873 C-74.38562012 19.8119873 -74.38562012 13.2119873 -74.38562012 6.4119873 C-49.50238288 0.1324772 -25.56129838 -0.34381841 0 0 Z " fill="#4D5353" transform="translate(434.3856201171875,311.5880126953125)"/>
<path d="M0 0 C4.33550428 0.30807194 8.66783233 0.64817947 13 1 C14.85939209 1.14526123 14.85939209 1.14526123 16.75634766 1.29345703 C39.30646003 3.28701348 39.30646003 3.28701348 44.97167969 7.44824219 C47.87848095 11.004236 48.98219892 15.12219434 50.17724609 19.49023438 C51.81812434 24.49564338 54.53241833 29.04989007 57 33.6875 C57.97112911 35.53891729 58.9303095 37.39667247 59.875 39.26171875 C60.28492188 40.05537842 60.69484375 40.84903809 61.1171875 41.66674805 C62.14696766 44.38843195 62.35955009 46.10968483 62 49 C60.77832031 51.58374023 60.77832031 51.58374023 59.078125 54.30859375 C58.46453125 55.30310547 57.8509375 56.29761719 57.21875 57.32226562 C56.24421875 58.86430664 56.24421875 58.86430664 55.25 60.4375 C54.61578125 61.46166016 53.9815625 62.48582031 53.328125 63.54101562 C50.2991008 68.41585145 47.22483448 73.25232701 44 78 C33.59244328 76.32522076 23.90362701 63.53616617 18 55.5 C6.45899283 39.29995827 -0.55914974 19.94084002 0 0 Z " fill="#E6E4EF" transform="translate(32,129)"/>
<path d="M0 0 C1.7920315 23.49552413 -10.38874708 46.48464712 -25 64 C-29.54298306 69.07355042 -34.84716154 74.91065464 -41 78 C-42.85717773 77.93188477 -42.85717773 77.93188477 -45 77 C-46.55944447 75.02411616 -47.84982866 73.16215937 -49.14453125 71.0234375 C-49.5185759 70.4199649 -49.89262054 69.81649231 -50.27799988 69.19473267 C-51.06495842 67.91576146 -51.84544126 66.63278633 -52.61987305 65.34619141 C-53.8040423 63.38897901 -55.02028614 61.45458755 -56.24023438 59.51953125 C-57.00204972 58.27208279 -57.76188162 57.02342043 -58.51953125 55.7734375 C-58.88399857 55.20023773 -59.24846588 54.62703796 -59.62397766 54.03646851 C-61.39284523 51.0291516 -62.00156723 49.08417404 -61.9362793 45.57763672 C-60.85546009 41.44769546 -59.35760487 37.81621014 -57.5 33.984375 C-57.14542725 33.24672913 -56.79085449 32.50908325 -56.42553711 31.74908447 C-55.67454531 30.20011259 -54.91784969 28.65389441 -54.15576172 27.11035156 C-53.00282011 24.75575936 -51.89427271 22.38329719 -50.78515625 20.0078125 C-50.04692137 18.49870051 -49.30611939 16.99084104 -48.5625 15.484375 C-48.24023438 14.77810974 -47.91796875 14.07184448 -47.5859375 13.34417725 C-45.55871769 9.38015183 -43.89813196 7.59599199 -39.63720703 6.11889648 C-38.09984702 5.71278535 -36.55383329 5.33764502 -35 5 C-33.85128418 4.73614502 -32.70256836 4.47229004 -31.51904297 4.20043945 C-30.43768066 4.00667725 -29.35631836 3.81291504 -28.2421875 3.61328125 C-27.03949219 3.39736328 -25.83679688 3.18144531 -24.59765625 2.95898438 C-22.75494141 2.63897461 -22.75494141 2.63897461 -20.875 2.3125 C-19.63878906 2.08755859 -18.40257812 1.86261719 -17.12890625 1.63085938 C-11.32008796 0.60448923 -5.91592333 -0.11809441 0 0 Z " fill="#E6E3EF" transform="translate(224,129)"/>
<path d="M0 0 C6.2776273 18.83288189 -1.4384046 42.58176953 -9.734375 59.65625 C-12.90696604 65.77682386 -16.24072599 71.00856628 -21 76 C-24.27196452 74.56741228 -26.43203956 72.81174684 -28.94238281 70.28466797 C-29.70286926 69.52403046 -30.46335571 68.76339294 -31.24688721 67.97970581 C-32.05744568 67.15882477 -32.86800415 66.33794373 -33.703125 65.4921875 C-34.54091492 64.65156769 -35.37870483 63.81094788 -36.24188232 62.94485474 C-38.91598431 60.25955999 -41.58304724 57.56739345 -44.25 54.875 C-46.06204062 53.05292845 -47.87453518 51.23130823 -49.6875 49.41015625 C-54.13028036 44.94532748 -58.56730165 40.47483717 -63 36 C-61.09781357 31.78857721 -58.23178055 29.25016424 -54.75 26.3125 C-54.12593262 25.78430664 -53.50186523 25.25611328 -52.85888672 24.71191406 C-38.88243806 13.11107568 -18.77393446 -1.02403279 0 0 Z " fill="#A43D20" transform="translate(479,113)"/>
<path d="M0 0 C19.03052626 -1.3593233 38.99777561 7.98368036 54 19 C55.32 20.32 56.64 21.64 58 23 C37.87 43.13 17.74 63.26 -3 84 C-7.44995051 81.77502475 -9.60084691 79.55366005 -13 76 C-11.64402277 72.36542186 -9.97867543 68.96659428 -8.18188477 65.53100586 C-1.20358946 52.12087912 2.19790443 39.52644545 2.1875 24.375 C2.18814453 23.40675293 2.18878906 22.43850586 2.18945312 21.44091797 C2.1357039 14.12247251 1.51632009 7.17544327 0 0 Z " fill="#A43D20" transform="translate(388,32)"/>
<path d="M0 0 C3.27196452 1.43258772 5.43203956 3.18825316 7.94238281 5.71533203 C9.08311249 6.8562883 9.08311249 6.8562883 10.24688721 8.02029419 C11.05744568 8.84117523 11.86800415 9.66205627 12.703125 10.5078125 C13.95980988 11.76874222 13.95980988 11.76874222 15.24188232 13.05514526 C17.91598431 15.74044001 20.58304724 18.43260655 23.25 21.125 C25.06204062 22.94707155 26.87453518 24.76869177 28.6875 26.58984375 C33.13028036 31.05467252 37.56730165 35.52516283 42 40 C36.5426221 51.84013052 18.9758715 60.94601089 7.15966797 65.3503418 C-3.61342449 69.13929224 -3.61342449 69.13929224 -9.109375 69.09765625 C-9.86347656 69.09443359 -10.61757813 69.09121094 -11.39453125 69.08789062 C-12.17183594 69.07951172 -12.94914062 69.07113281 -13.75 69.0625 C-14.54277344 69.05798828 -15.33554687 69.05347656 -16.15234375 69.04882812 C-18.10159508 69.03708565 -20.05080738 69.01915146 -22 69 C-22.21052288 59.12881616 -22.23666899 49.67937788 -20 40 C-19.75507813 38.91589844 -19.51015625 37.83179688 -19.2578125 36.71484375 C-15.74270234 22.91881405 -9.56784794 10.5857041 0 0 Z " fill="#A43D20" transform="translate(310,67)"/>
<path d="M0 0 C3.17483377 1.49572493 5.02236535 2.89108475 7.25 5.625 C8.03117187 6.57246094 8.03117187 6.57246094 8.828125 7.5390625 C9.40820312 8.26222656 9.40820312 8.26222656 10 9 C9.5153125 9.6084375 9.030625 10.216875 8.53125 10.84375 C-3.70383719 26.8434794 -11.25332447 45.01036525 -11.125 65.375 C-11.12306641 66.1187085 -11.12113281 66.86241699 -11.11914062 67.62866211 C-11.07833915 72.81554913 -10.74740677 77.86157844 -10 83 C-15.30095614 83.22058595 -19.88938424 82.52056652 -24.9375 81 C-25.6711377 80.77997314 -26.40477539 80.55994629 -27.16064453 80.33325195 C-39.68789601 76.37875992 -50.7438496 70.17015371 -61 62 C-55.25911114 54.97694971 -48.80306544 48.6765639 -42.3828125 42.28515625 C-41.15805511 41.06226684 -39.93352047 39.8391543 -38.709198 38.61582947 C-35.50571366 35.41614044 -32.29923634 32.21946752 -29.09210205 29.0234375 C-25.81217384 25.753788 -22.53511874 22.4812616 -19.2578125 19.20898438 C-12.84133235 12.80318881 -6.421683 6.40057951 0 0 Z " fill="#A43D20" transform="translate(383,140)"/>
<path d="M0 0 C7.02552947 1.25843132 11.51161161 3.56318723 15.8515625 9.28125 C20.99864739 16.79235004 26.47265625 26.66683872 26.47265625 35.859375 C2.83482361 43.62990468 -19.40032998 45.94765864 -43.52734375 37.859375 C-46.65234375 36.19140625 -46.65234375 36.19140625 -48.52734375 34.859375 C-48.24455566 34.16626221 -47.96176758 33.47314941 -47.67041016 32.7590332 C-46.89522104 30.79258273 -46.16159285 28.80933498 -45.46630859 26.81323242 C-37.122066 4.06148548 -24.35780593 -3.12471983 0 0 Z " fill="#E7E4F0" transform="translate(138.52734375,181.140625)"/>
<path d="M0 0 C5.31068805 4.43416672 10.24836617 9.11516686 15.12109375 14.0234375 C16.23823509 15.14270126 16.23823509 15.14270126 17.37794495 16.28457642 C19.73350827 18.64569389 22.08555216 21.01028162 24.4375 23.375 C26.04338763 24.98590856 27.64950516 26.59658796 29.25585938 28.20703125 C33.17323513 32.13537513 37.08773487 36.06656674 41 40 C38.63706955 47.08879136 28.82265555 50.83737721 22.4375 54.125 C11.3997711 59.61491476 -1.49708258 64.35869025 -14 64 C-17.93195009 60.06804991 -16.2491887 48.15473675 -16.25097656 42.99316406 C-16.08111286 28.22531675 -10.73269697 10.73269697 0 0 Z " fill="#A43D20" transform="translate(404,160)"/>
<path d="M0 0 C5.99022616 17.54280518 4.2359077 36.46276819 -3.78491211 53.01806641 C-5.13731677 55.70782239 -6.55217415 58.36056468 -8 61 C-11.22745524 59.58098338 -13.37258107 57.87144235 -15.85058594 55.37646484 C-16.59105164 54.63584808 -17.33151733 53.89523132 -18.09442139 53.13217163 C-18.88310608 52.33316437 -19.67179077 51.5341571 -20.484375 50.7109375 C-21.29996887 49.89251373 -22.11556274 49.07408997 -22.95587158 48.23086548 C-25.55864562 45.61690027 -28.15437762 42.99606495 -30.75 40.375 C-32.5138634 38.60110546 -34.2781809 36.82766234 -36.04296875 35.0546875 C-40.36726136 30.70834858 -44.6857933 26.35634919 -49 22 C-44.30393994 11.97038231 -29.89315651 6.81283069 -20 3 C-17.08837048 2.02799359 -14.16238211 1.19239783 -11.1875 0.4375 C-10.52411621 0.26903564 -9.86073242 0.10057129 -9.17724609 -0.07299805 C-5.82859042 -0.83878935 -3.25603211 -1.23844043 0 0 Z " fill="#A43D20" transform="translate(372,34)"/>
<path d="M0 0 C3.76488042 1.72154788 6.15063897 3.99234114 9 7 C7.38376737 11.05602714 4.49847324 13.76955528 1.44873047 16.77832031 C0.88273132 17.34461151 0.31673218 17.91090271 -0.26641846 18.49435425 C-2.1338472 20.36039238 -4.00825462 22.21925096 -5.8828125 24.078125 C-7.18076411 25.37234554 -8.47827416 26.66700905 -9.77536011 27.96209717 C-13.18714836 31.36625646 -16.60490052 34.76436634 -20.02392578 38.16125488 C-23.5130592 41.62991407 -26.99652387 45.10425583 -30.48046875 48.578125 C-37.31477368 55.39099302 -44.15539203 62.1974842 -51 69 C-60.63810627 64.50436908 -65.20308388 51.42045676 -69 42 C-69.90391675 38.96827922 -70.50579363 36.12997369 -71 33 C-70.030625 32.91363281 -69.06125 32.82726562 -68.0625 32.73828125 C-40.79202404 30.00985913 -20.53436684 17.48825658 0 0 Z " fill="#A43D20" transform="translate(363,120)"/>
<path d="M0 0 C4.98770726 10.59887794 3.65461706 21.14491718 0 32 C-10.09653769 32.77007491 -20.23890078 30.78159337 -29.6015625 26.9296875 C-41.38542629 22.36200088 -55.19496266 24.97117315 -67 28 C-67.87527344 28.21269531 -68.75054687 28.42539062 -69.65234375 28.64453125 C-71.43873557 29.08092574 -73.22024944 29.53726485 -75 30 C-77.89921251 20.57755934 -77.89921251 11.42244066 -75 2 C-74.31035156 2.19335938 -73.62070312 2.38671875 -72.91015625 2.5859375 C-70.93491648 3.13326045 -68.95681414 3.6703161 -66.9765625 4.19921875 C-65.27705723 4.65643474 -63.58101729 5.12849841 -61.8984375 5.64453125 C-50.61406076 8.76908975 -38.20290022 7.97538335 -27.29296875 4.08984375 C-23.4589667 2.82093916 -19.65116113 1.99485215 -15.6875 1.25 C-13.77517578 0.88648438 -13.77517578 0.88648438 -11.82421875 0.515625 C-7.79268417 -0.0279527 -4.06020066 -0.09012654 0 0 Z " fill="#EDEAF6" transform="translate(477,376)"/>
<path d="M0 0 C34.32 0 68.64 0 104 0 C104 5.28 104 10.56 104 16 C69.68 16 35.36 16 0 16 C0 10.72 0 5.44 0 0 Z " fill="#252A2A" transform="translate(240,320)"/>
<path d="M0 0 C8.93925822 4.15929418 14.58428868 17.07870135 18 26 C17.6875 28.4140625 17.6875 28.4140625 17 30 C15.74123047 30.25910156 15.74123047 30.25910156 14.45703125 30.5234375 C-8.01821752 35.77488898 -27.43796806 47.85466772 -44.48608398 63.11669922 C-47.28432975 65.61571912 -49.60056166 67.30028083 -53 69 C-56.465 65.535 -56.465 65.535 -60 62 C-57.97419771 57.94839542 -55.61310887 55.34354005 -52.44873047 52.22167969 C-51.88273132 51.65538849 -51.31673218 51.08909729 -50.73358154 50.50564575 C-48.8661528 48.63960762 -46.99174538 46.78074904 -45.1171875 44.921875 C-43.81923589 43.62765446 -42.52172584 42.33299095 -41.22463989 41.03790283 C-37.81285164 37.63374354 -34.39509948 34.23563366 -30.97607422 30.83874512 C-27.4869408 27.37008593 -24.00347613 23.89574417 -20.51953125 20.421875 C-13.68522632 13.60900698 -6.84460797 6.8025158 0 0 Z " fill="#A43D20" transform="translate(456,67)"/>
<path d="M0 0 C18.48 0 36.96 0 56 0 C52.5392476 8.99795625 49.01281726 17.88557335 45.25 26.75 C44.75628906 27.92304688 44.26257813 29.09609375 43.75390625 30.3046875 C43.28339844 31.41585938 42.81289063 32.52703125 42.328125 33.671875 C41.9043457 34.6731543 41.48056641 35.67443359 41.04394531 36.70605469 C40 39 40 39 39 40 C37.36527118 40.08700342 35.72685945 40.10701063 34.08984375 40.09765625 C33.10048828 40.09443359 32.11113281 40.09121094 31.09179688 40.08789062 C30.05087891 40.07951172 29.00996094 40.07113281 27.9375 40.0625 C26.89271484 40.05798828 25.84792969 40.05347656 24.77148438 40.04882812 C22.1809334 40.03699913 19.59049441 40.02051689 17 40 C14.57661933 34.46512291 12.15560448 28.92921962 9.73681641 23.39233398 C8.91292909 21.50728109 8.08838576 19.62251478 7.26318359 17.73803711 C6.07999536 15.03573746 4.89913841 12.33242984 3.71875 9.62890625 C3.34689575 8.78099014 2.9750415 7.93307404 2.59191895 7.0594635 C2.08138977 5.88836281 2.08138977 5.88836281 1.56054688 4.69360352 C1.10754211 3.65768822 1.10754211 3.65768822 0.64538574 2.60084534 C0 1 0 1 0 0 Z " fill="#E7E4F0" transform="translate(244,232)"/>
<path d="M0 0 C4.351875 0.103125 8.70375 0.20625 13.1875 0.3125 C13.1875 10.8725 13.1875 21.4325 13.1875 32.3125 C6.62875 32.4053125 6.62875 32.4053125 -0.0625 32.5 C-2.12226074 32.54096802 -2.12226074 32.54096802 -4.22363281 32.58276367 C-5.30999023 32.59025635 -6.39634766 32.59774902 -7.515625 32.60546875 C-8.62583008 32.6211792 -9.73603516 32.63688965 -10.87988281 32.65307617 C-14.16250916 32.27185208 -15.49447998 31.63085911 -17.8125 29.3125 C-19.28622241 24.89133277 -19.11863795 20.57003781 -19.1875 15.9375 C-19.22488281 14.99132812 -19.26226563 14.04515625 -19.30078125 13.0703125 C-19.35494732 8.78517442 -19.17472111 5.99858939 -17.15234375 2.16796875 C-11.68366121 -0.87018822 -6.12726496 -0.20447137 0 0 Z " fill="#683200" transform="translate(50.8125,431.6875)"/>
<path d="M0 0 C5.77657649 1.78729682 11.28902265 3.41153596 17.3125 4.0625 C11.86773471 10.14400396 4.45673126 12.56873721 -3.5234375 13.51953125 C-14.88782504 13.83072645 -25.10350957 10.83785365 -33.6875 3.0625 C-33.6875 2.0725 -33.6875 1.0825 -33.6875 0.0625 C-31.7329714 -0.45217211 -29.77357495 -0.94836352 -27.8125 -1.4375 C-26.72195313 -1.7159375 -25.63140625 -1.994375 -24.5078125 -2.28125 C-15.67253349 -3.79896664 -8.48212943 -2.69577495 0 0 Z " fill="#EAE6F2" transform="translate(446.6875,418.9375)"/>
<path d="M0 0 C2.36328125 2.171875 2.36328125 2.171875 4 4 C2.60201172 4.25523437 2.60201172 4.25523437 1.17578125 4.515625 C-5.31477127 5.74942062 -11.53453145 7.0823578 -17.8125 9.1875 C-28.22824898 12.48603195 -36.57610062 10.74485125 -47 8 C-47 7.01 -47 6.02 -47 5 C-33.7671016 -7.15548079 -15.69115548 -8.6040968 0 0 Z " fill="#EAE6F2" transform="translate(460,357)"/>
<path d="M0 0 C1.051875 0.00290039 1.051875 0.00290039 2.125 0.00585938 C7.21861901 0.04822774 12.14928685 0.40525526 17.1875 1.125 C17.1875 1.785 17.1875 2.445 17.1875 3.125 C15.81054688 4.36181641 15.81054688 4.36181641 13.90625 5.7265625 C13.22949219 6.21640625 12.55273438 6.70625 11.85546875 7.2109375 C11.14003906 7.71882813 10.42460937 8.22671875 9.6875 8.75 C8.97207031 9.265625 8.25664062 9.78125 7.51953125 10.3125 C5.74629571 11.58922959 3.96890052 12.85970027 2.1875 14.125 C-1.53440734 12.33928705 -4.76667031 10.09292989 -8.0625 7.625 C-8.61679688 7.22152344 -9.17109375 6.81804688 -9.7421875 6.40234375 C-11.13819165 5.36049829 -12.48052392 4.24754588 -13.8125 3.125 C-13.8125 2.465 -13.8125 1.805 -13.8125 1.125 C-9.18406683 0.21802865 -4.70180904 -0.03134539 0 0 Z " fill="#232828" transform="translate(126.8125,31.875)"/>
<path d="M0 0 C5.28 0 10.56 0 16 0 C16.43612335 10.9030837 16.43612335 10.9030837 13 15 C10.19084526 16.40457737 8.11189466 16.24895157 5 16 C1.8640843 14.22015595 1.15897264 13.47691793 0 10 C-0.13143471 6.66155835 -0.04340976 3.34255132 0 0 Z " fill="#989CA7" transform="translate(264,288)"/>
</svg>
