<?xml version="1.0" encoding="UTF-8"?>
<svg version="1.1" xmlns="http://www.w3.org/2000/svg" width="400" height="400">
<path d="M0 0 C86.13 0 172.26 0 261 0 C261 0.66 261 1.32 261 2 C263.64 1.67 266.28 1.34 269 1 C269 1.66 269 2.32 269 3 C270.32 2.67 271.64 2.34 273 2 C273 2.66 273 3.32 273 4 C274.485 3.505 274.485 3.505 276 3 C276.66 3.33 277.32 3.66 278 4 C278 4.66 278 5.32 278 6 C279.485 5.505 279.485 5.505 281 5 C283.1875 5.9375 283.1875 5.9375 285 7 C285 7.66 285 8.32 285 9 C286.1446875 9.1546875 286.1446875 9.1546875 287.3125 9.3125 C290.32851145 10.08403781 291.01755903 10.6871522 293 13 C296.38060254 16.47450816 299.87904225 19.62506826 303.64453125 22.66796875 C304.09183594 23.10753906 304.53914063 23.54710937 305 24 C305 24.66 305 25.32 305 26 C305.99 26.66 306.98 27.32 308 28 C307.67 28.66 307.34 29.32 307 30 C307.66 30.33 308.32 30.66 309 31 C311.66810924 34.77982142 312.86301143 38.5395064 314 43 C314.66 43 315.32 43 316 43 C316.33 44.65 316.66 46.3 317 48 C316.34 48 315.68 48 315 48 C315 48.66 315 49.32 315 50 C315.66 50 316.32 50 317 50 C317 51.32 317 52.64 317 54 C318.093125 54.144375 319.18625 54.28875 320.3125 54.4375 C324 55 324 55 327 56 C327 56.99 327 57.98 327 59 C327.66 59.66 328.32 60.32 329 61 C330.03555237 65.14220946 330.27882063 67.32829575 328.625 71.3125 C328.08875 72.199375 327.5525 73.08625 327 74 C326.67 74.66 326.34 75.32 326 76 C323.9375 76.625 323.9375 76.625 322 77 C322 76.34 322 75.68 322 75 C320.35 75.33 318.7 75.66 317 76 C316.79279886 85.05370885 316.79279886 85.05370885 318 94 C317.34 94 316.68 94 316 94 C316 95.98 316 97.96 316 100 C315.34 100.33 314.68 100.66 314 101 C314 102.65 314 104.3 314 106 C313.34 106 312.68 106 312 106 C312 107.32 312 108.64 312 110 C311.34 110.66 310.68 111.32 310 112 C310 112.66 310 113.32 310 114 C309.34 114 308.68 114 308 114 C307.731875 114.763125 307.46375 115.52625 307.1875 116.3125 C306.00016125 118.99963506 305.15201724 120.08709578 303 122 C299.2687175 125.62763577 295.87975588 129.43248795 292.55078125 133.42578125 C292.03902344 133.94527344 291.52726562 134.46476563 291 135 C290.34 135 289.68 135 289 135 C288.5875 135.4125 288.175 135.825 287.75 136.25 C283.00764812 140.99235188 277.07338684 143.44219144 271 146 C270.0925 146.433125 269.185 146.86625 268.25 147.3125 C265.49584401 148.15404766 263.73773075 147.78220878 261 147 C261 147.66 261 148.32 261 149 C258.69 148.67 256.38 148.34 254 148 C254 148.66 254 149.32 254 150 C251.39576408 150.02697137 248.79180756 150.04682489 246.1875 150.0625 C245.44951172 150.07087891 244.71152344 150.07925781 243.95117188 150.08789062 C240.70077932 150.10259828 238.10595105 150.03531702 235 149 C233.68 149 232.36 149 231 149 C231 148.34 231 147.68 231 147 C230.01 147 229.02 147 228 147 C228 147.66 228 148.32 228 149 C227.01 149 226.02 149 225 149 C224.67 148.34 224.34 147.68 224 147 C223.34 147 222.68 147 222 147 C222 146.34 222 145.68 222 145 C221.401875 145.20625 220.80375 145.4125 220.1875 145.625 C218 146 218 146 215 144 C214.01 144 213.02 144 212 144 C211.34 144 210.68 144 210 144 C209.67 143.34 209.34 142.68 209 142 C206.93998332 140.79240402 205.14369472 140.03284451 202.8125 139.5 C202.214375 139.335 201.61625 139.17 201 139 C200.67 138.34 200.34 137.68 200 137 C199.34 137.33 198.68 137.66 198 138 C195 136 195 136 194 133 C193.34 133.33 192.68 133.66 192 134 C191.67 133.34 191.34 132.68 191 132 C190.34 132 189.68 132 189 132 C188.773125 131.236875 188.54625 130.47375 188.3125 129.6875 C186.70836315 126.40283882 185.16970738 125.70081859 182 124 C180.1875 122.4375 180.1875 122.4375 179 121 C179 120.34 179 119.68 179 119 C178.34 119 177.68 119 177 119 C177 118.34 177 117.68 177 117 C176.34 117 175.68 117 175 117 C175 116.34 175 115.68 175 115 C174.4225 114.71125 173.845 114.4225 173.25 114.125 C172.5075 113.75375 171.765 113.3825 171 113 C170.278125 112.690625 169.55625 112.38125 168.8125 112.0625 C167 111 167 111 166 108 C166 107.34 166 106.68 166 106 C165.01 105.67 164.02 105.34 163 105 C162.4375 103.0625 162.4375 103.0625 162 101 C161.34 100.34 160.68 99.68 160 99 C158.96811687 97.86410743 157.94822503 96.71725956 156.9375 95.5625 C156.41027344 94.96566406 155.88304687 94.36882812 155.33984375 93.75390625 C154 92 154 92 153 89 C153.4375 86.8125 153.4375 86.8125 154 85 C152.68 84.34 151.36 83.68 150 83 C150 80 150 80 151 77 C150.34 77 149.68 77 149 77 C149 76.34 149 75.68 149 75 C148.34 74.34 147.68 73.68 147 73 C147 69.63812756 147.5701347 66.33145609 148 63 C147.34 63 146.68 63 146 63 C146.04125 61.88625 146.0825 60.7725 146.125 59.625 C146.41121859 55.95633975 146.41121859 55.95633975 144 54 C143.34 53.01 142.68 52.02 142 51 C140.45568254 49.45568254 138.82872314 49.77218719 136.6875 49.625 C132.30526101 49.1930464 130.1052522 48.1052522 127 45 C127 44.01 127 43.02 127 42 C126.34 41.67 125.68 41.34 125 41 C124.375 37.9375 124.375 37.9375 124 35 C124.66 35 125.32 35 126 35 C125.67 34.01 125.34 33.02 125 32 C125.625 29.9375 125.625 29.9375 127 28 C130.79605033 26.08851366 133.90510644 25.75433104 138.125 25.8125 C139.67574219 25.82216797 139.67574219 25.82216797 141.2578125 25.83203125 C144 26 144 26 147 27 C147.6875 29.0625 147.6875 29.0625 148 31 C148.99 31 149.98 31 151 31 C151.268125 30.2575 151.53625 29.515 151.8125 28.75 C153 26 153 26 156 22 C131.745 21.505 131.745 21.505 107 21 C107 21.66 107 22.32 107 23 C107.66 23.33 108.32 23.66 109 24 C111.1875 26.875 111.1875 26.875 113 30 C112.67 30.99 112.34 31.98 112 33 C112.66 33.33 113.32 33.66 114 34 C115.1875 36.4375 115.1875 36.4375 116 39 C115.67 39.66 115.34 40.32 115 41 C115.66 41 116.32 41 117 41 C116.67 43.64 116.34 46.28 116 49 C116.66 49 117.32 49 118 49 C118.02712153 50.916588 118.04645097 52.8332873 118.0625 54.75 C118.07410156 55.81734375 118.08570313 56.8846875 118.09765625 57.984375 C118.01412632 60.56377928 117.65708155 62.53723766 117 65 C117 66.32 117 67.64 117 69 C116.34 69 115.68 69 115 69 C115.226875 69.639375 115.45375 70.27875 115.6875 70.9375 C116.20453687 76.00446128 114.2081283 80.61472105 111.93359375 85.10546875 C110.82033558 87.36459097 110.41238624 89.52568258 110 92 C109.34 92 108.68 92 108 92 C107.79375 92.66 107.5875 93.32 107.375 94 C105.50875748 98.07180186 103.02438473 101.68796998 100 105 C99.34 105 98.68 105 98 105 C97.87407471 105.85609863 97.87407471 105.85609863 97.74560547 106.72949219 C96.77500708 109.68514544 95.26091758 111.12736255 93.0703125 113.328125 C92.27496094 114.12734375 91.47960937 114.9265625 90.66015625 115.75 C89.82355469 116.575 88.98695313 117.4 88.125 118.25 C87.29613281 119.09046875 86.46726563 119.9309375 85.61328125 120.796875 C84.81535156 121.5909375 84.01742187 122.385 83.1953125 123.203125 C82.46328613 123.93176758 81.73125977 124.66041016 80.97705078 125.41113281 C79 127 79 127 76 127 C75.34 128.32 74.68 129.64 74 131 C73.34 131 72.68 131 72 131 C71.34 131.66 70.68 132.32 70 133 C69.071875 133.433125 69.071875 133.433125 68.125 133.875 C65.88884666 134.91369156 65.88884666 134.91369156 64.1953125 136.90625 C59.47961148 141.40378691 52.71922447 143.72903746 46.4375 145.1875 C42.95751223 145.69215918 42.95751223 145.69215918 41 148 C38.16032769 148 35.76264289 147.59732819 33 147 C33 147.66 33 148.32 33 149 C30.36 148.67 27.72 148.34 25 148 C25 148.66 25 149.32 25 150 C20.05 150 15.1 150 10 150 C10 149.34 10 148.68 10 148 C8.865625 148.185625 7.73125 148.37125 6.5625 148.5625 C4.7990625 148.7790625 4.7990625 148.7790625 3 149 C2.67 148.67 2.34 148.34 2 148 C2 148.33 2 148.66 2 149 C0.35 149 -1.3 149 -3 149 C-3 148.34 -3 147.68 -3 147 C-4.1446875 146.814375 -4.1446875 146.814375 -5.3125 146.625 C-8 146 -8 146 -11 144 C-11.66 144.33 -12.32 144.66 -13 145 C-13 144.34 -13 143.68 -13 143 C-13.99 143 -14.98 143 -16 143 C-16.33 142.34 -16.66 141.68 -17 141 C-17.66 141.33 -18.32 141.66 -19 142 C-20.70884005 140.37660195 -22.37446717 138.70680947 -24 137 C-24 136.34 -24 135.68 -24 135 C-24.59554687 134.9071875 -25.19109375 134.814375 -25.8046875 134.71875 C-28.50876569 133.83342903 -29.38690187 132.72039762 -31.125 130.5 C-33.19887681 127.8119616 -33.19887681 127.8119616 -36 126 C-36 125.34 -36 124.68 -36 124 C-37.485 123.505 -37.485 123.505 -39 123 C-42 120 -42 120 -43 117.9375 C-43.84589942 115.83134399 -43.84589942 115.83134399 -46 115 C-46 113.68 -46 112.36 -46 111 C-46.66 110.67 -47.32 110.34 -48 110 C-48 109.01 -48 108.02 -48 107 C-48.66 106.34 -49.32 105.68 -50 105 C-49.34 105 -48.68 105 -48 105 C-48 104.34 -48 103.68 -48 103 C-48.66 102.67 -49.32 102.34 -50 102 C-49.67 101.34 -49.34 100.68 -49 100 C-49.66 100 -50.32 100 -51 100 C-51.33 99.34 -51.66 98.68 -52 98 C-52.66 97.34 -53.32 96.68 -54 96 C-53.01 95.01 -53.01 95.01 -52 94 C-52.66 93.67 -53.32 93.34 -54 93 C-53.34 90.69 -52.68 88.38 -52 86 C-52.66 86 -53.32 86 -54 86 C-54 82.7 -54 79.4 -54 76 C-55.32 75.67 -56.64 75.34 -58 75 C-58 75.66 -58 76.32 -58 77 C-59.485 77.495 -59.485 77.495 -61 78 C-61.268125 77.071875 -61.53625 76.14375 -61.8125 75.1875 C-62.69107804 72.03374022 -62.69107804 72.03374022 -64.625 70.625 C-66.99369744 67.8256303 -66.17437985 64.5457236 -66 61 C-65.34 61 -64.68 61 -64 61 C-64 60.01 -64 59.02 -64 58 C-60.23262357 55.03176403 -56.70238725 54.46101836 -52 54 C-52.226875 53.13375 -52.45375 52.2675 -52.6875 51.375 C-53.06519388 47.29590606 -51.99019243 45.50273868 -50 42 C-50 41.34 -50 40.68 -50 40 C-49.34 40 -48.68 40 -48 40 C-48.2475 39.443125 -48.495 38.88625 -48.75 38.3125 C-49 36 -49 36 -47.125 33.4375 C-46.42375 32.633125 -45.7225 31.82875 -45 31 C-44.67 30.01 -44.34 29.02 -44 28 C-43.34 27.34 -42.68 26.68 -42 26 C-38.40068521 22.48116681 -38.40068521 22.48116681 -37 18 C-36.278125 17.773125 -35.55625 17.54625 -34.8125 17.3125 C-31.44144767 15.73934225 -29.59034943 13.65352869 -27 11 C-22.24874583 7.56292252 -16.93366364 3.84766623 -11 3 C-10.34 3.33 -9.68 3.66 -9 4 C-8.67 3.34 -8.34 2.68 -8 2 C-7.34 2.33 -6.68 2.66 -6 3 C-6 2.34 -6 1.68 -6 1 C-4.02 1.33 -2.04 1.66 0 2 C0 1.34 0 0.68 0 0 Z M131 45 C132 47 132 47 132 47 Z M324 56 C325 58 325 58 325 58 Z " fill="#434B54" transform="translate(68,125)"/>
<path d="M0 0 C2.21216765 3.58523722 2.96087265 5.70887937 2.8125 9.9375 C1.0855331 12.96477138 -1.02703329 15.35726665 -4.1875 16.9375 C-6.06123852 17.176762 -7.93650168 17.40415463 -9.8125 17.625 C-15.91536794 18.64092652 -20.03929578 20.26956718 -24.1875 24.9375 C-27.27784655 29.59277907 -29.18266268 34.27647526 -30.25 39.75 C-31.04652306 43.76106256 -31.86421011 46.2959106 -35.1875 48.9375 C-38.27204853 49.51305887 -41.11790357 49.61586385 -44.1875 48.9375 C-46.87078663 46.93267537 -47.6856841 45.20815895 -48.1875 41.9375 C-49.16532528 31.00509277 -46.84812078 22.44738668 -39.94140625 13.87890625 C-30.98274524 3.96252647 -13.65296776 -8.83427326 0 0 Z " fill="#FCFBFC" transform="translate(83.1875,147.0625)"/>
<path d="M0 0 C2.93499884 1.72438563 3.40715995 2.81431991 5 6 C5.83742154 10.01962338 5.22656815 11.58732229 3.25 15.1875 C0.57370441 18.16286588 -2.08462343 18.65256614 -5.9375 19.4375 C-11.04132326 20.52983118 -13.86526161 21.66701798 -16.9765625 25.90234375 C-18.51160476 29.04859449 -18.86491957 32.24898336 -19.39453125 35.68359375 C-20.06413612 38.2453724 -20.77396889 39.3844615 -22.6875 41.1875 C-26 43 -26 43 -29.625 43.0625 C-33.22152729 41.93025993 -34.6929775 40.92814395 -37 38 C-39.16508157 33.66983687 -38.63951676 28.07760107 -37.24609375 23.55078125 C-32.84076359 13.37533236 -26.10139488 4.86364248 -15.56640625 0.66796875 C-10.36862104 -0.68487945 -5.28956597 -0.93721169 0 0 Z " fill="#FBFBFC" transform="translate(272,145)"/>
<path d="M0 0 C2.46111244 0.62751691 3.50724798 1.32353129 5.22265625 3.17578125 C7.35084509 6.88294891 8.02833527 8.38352196 7.16015625 12.55078125 C5.00249152 15.81810212 3.35127036 17.9865693 -0.21484375 19.67578125 C-4.03551263 19.49384464 -6.8419296 17.87661893 -9.83984375 15.55078125 C-12.34016029 11.80030643 -12.37587929 9.99221859 -11.83984375 5.55078125 C-8.66211723 0.73293781 -5.53733608 -0.32355052 0 0 Z " fill="#FAFAFA" transform="translate(51.83984375,215.44921875)"/>
<path d="M0 0 C0 0.66 0 1.32 0 2 C-0.92941406 2.4125 -1.85882813 2.825 -2.81640625 3.25 C-15.63072225 9.14818625 -21.74188413 16.33051012 -26.75 29.5 C-27.1625 30.655 -27.575 31.81 -28 33 C-28.33 33 -28.66 33 -29 33 C-30.01294707 28.58907593 -30.8031185 24.7194282 -28.8359375 20.5078125 C-27.30320002 18.26533451 -25.67916875 16.13403219 -24 14 C-23.525625 13.113125 -23.05125 12.22625 -22.5625 11.3125 C-19.59218345 6.91643151 -16.03600237 3.47905938 -10.8125 2.25 C-9.4203125 2.12625 -9.4203125 2.12625 -8 2 C-7.29875 1.649375 -6.5975 1.29875 -5.875 0.9375 C-4 0 -4 0 0 0 Z " fill="#353B42" transform="translate(261,143)"/>
<path d="M0 0 C0 0.66 0 1.32 0 2 C-0.74765625 2.25394531 -1.4953125 2.50789062 -2.265625 2.76953125 C-3.25046875 3.11371094 -4.2353125 3.45789063 -5.25 3.8125 C-6.22453125 4.14894531 -7.1990625 4.48539063 -8.203125 4.83203125 C-11.02624652 5.86583055 -11.02624652 5.86583055 -13.171875 7.69921875 C-13.77515625 8.12847656 -14.3784375 8.55773437 -15 9 C-15.99 8.67 -16.98 8.34 -18 8 C-15.79637527 3.47032695 -13.65321229 1.86128491 -9 0 C-5.59894727 -0.97172935 -3.36433037 -1.12144346 0 0 Z " fill="#383D43" transform="translate(68,144)"/>
<path d="M0 0 C0.99 0.99 1.98 1.98 3 3 C-0.81579564 7.97590933 -4.26624788 11.35365287 -10 14 C-12 13 -12 13 -14 10 C-13.39671875 9.91363281 -12.7934375 9.82726562 -12.171875 9.73828125 C-6.79969098 8.79723725 -6.79969098 8.79723725 -2.5 5.5625 C-0.89024005 3.01463004 -0.89024005 3.01463004 0 0 Z " fill="#363A41" transform="translate(86,154)"/>
<path d="M0 0 C0.99 0.33 1.98 0.66 3 1 C2.67 1.99 2.34 2.98 2 4 C2.66 4 3.32 4 4 4 C3.52354792 8.28806873 2.34097516 10.26647487 -1 13 C-1.66 13 -2.32 13 -3 13 C-2.85691406 12.43796875 -2.71382813 11.8759375 -2.56640625 11.296875 C-1.98879098 8.95454547 -1.45716693 6.60582341 -0.9375 4.25 C-0.76089844 3.45078125 -0.58429688 2.6515625 -0.40234375 1.828125 C-0.26957031 1.22484375 -0.13679688 0.6215625 0 0 Z " fill="#343941" transform="translate(277,150)"/>
<path d="M0 0 C0.66 0.33 1.32 0.66 2 1 C1.48041715 5.37934119 0.94324258 9.68803391 0 14 C-0.66 14 -1.32 14 -2 14 C-2.05389087 12.04196493 -2.09274217 10.08351091 -2.125 8.125 C-2.14820312 7.03445312 -2.17140625 5.94390625 -2.1953125 4.8203125 C-2 2 -2 2 0 0 Z " fill="#323942" transform="translate(34,172)"/>
<path d="M0 0 C0.66 0.99 1.32 1.98 2 3 C0.5199159 2.88637738 -0.95910074 2.75877092 -2.4375 2.625 C-3.26121094 2.55539063 -4.08492187 2.48578125 -4.93359375 2.4140625 C-5.61550781 2.27742187 -6.29742187 2.14078125 -7 2 C-7.33 1.34 -7.66 0.68 -8 0 C-4.97786398 -0.97140086 -2.9812093 -1.19248372 0 0 Z " fill="#070709" transform="translate(207,172)"/>
<path d="M0 0 C0.99 0 1.98 0 3 0 C1.8141763 3.37503669 0.72426311 5.64722731 -2 8 C-2.33 7.34 -2.66 6.68 -3 6 C-2.06553465 3.96855359 -1.06775224 1.96466413 0 0 Z " fill="#343841" transform="translate(39,162)"/>
<path d="M0 0 C0 0.66 0 1.32 0 2 C-4.43076923 4.09230769 -4.43076923 4.09230769 -7.3125 3.625 C-7.869375 3.41875 -8.42625 3.2125 -9 3 C-5.55930376 0.70620251 -4.27709699 0 0 0 Z " fill="#32353D" transform="translate(261,143)"/>
<path d="" fill="#060715" transform="translate(0,0)"/>
<path d="M0 0 C0.99 0.495 0.99 0.495 2 1 C1.01 1.495 1.01 1.495 0 2 C0 1.34 0 0.68 0 0 Z " fill="#010000" transform="translate(192,168)"/>
<path d="" fill="#000000" transform="translate(0,0)"/>
<path d="" fill="#000000" transform="translate(0,0)"/>
<path d="" fill="#000000" transform="translate(0,0)"/>
<path d="" fill="#000000" transform="translate(0,0)"/>
<path d="" fill="#000000" transform="translate(0,0)"/>
<path d="" fill="#1B1D20" transform="translate(0,0)"/>
<path d="" fill="#AAA29F" transform="translate(0,0)"/>
<path d="M0 0 C2 1 2 1 2 1 Z " fill="#4A505B" transform="translate(226,223)"/>
<path d="" fill="#05050F" transform="translate(0,0)"/>
<path d="" fill="#000000" transform="translate(0,0)"/>
<path d="" fill="#000000" transform="translate(0,0)"/>
<path d="" fill="#000000" transform="translate(0,0)"/>
<path d="" fill="#050404" transform="translate(0,0)"/>
<path d="" fill="#4C5161" transform="translate(0,0)"/>
<path d="" fill="#52536B" transform="translate(0,0)"/>
<path d="" fill="#000000" transform="translate(0,0)"/>
<path d="" fill="#040101" transform="translate(0,0)"/>
<path d="" fill="#040000" transform="translate(0,0)"/>
<path d="" fill="#07070A" transform="translate(0,0)"/>
<path d="" fill="#191B24" transform="translate(0,0)"/>
<path d="" fill="#000000" transform="translate(0,0)"/>
<path d="" fill="#000100" transform="translate(0,0)"/>
<path d="" fill="#000000" transform="translate(0,0)"/>
<path d="" fill="#010100" transform="translate(0,0)"/>
<path d="" fill="#000000" transform="translate(0,0)"/>
<path d="" fill="#000000" transform="translate(0,0)"/>
<path d="" fill="#010000" transform="translate(0,0)"/>
<path d="" fill="#4F5861" transform="translate(0,0)"/>
<path d="" fill="#000000" transform="translate(0,0)"/>
<path d="" fill="#000000" transform="translate(0,0)"/>
<path d="" fill="#000000" transform="translate(0,0)"/>
<path d="" fill="#000000" transform="translate(0,0)"/>
<path d="" fill="#000000" transform="translate(0,0)"/>
<path d="" fill="#000000" transform="translate(0,0)"/>
<path d="" fill="#000000" transform="translate(0,0)"/>
<path d="" fill="#000000" transform="translate(0,0)"/>
<path d="" fill="#000000" transform="translate(0,0)"/>
<path d="" fill="#000000" transform="translate(0,0)"/>
<path d="" fill="#000000" transform="translate(0,0)"/>
<path d="" fill="#000000" transform="translate(0,0)"/>
<path d="" fill="#000000" transform="translate(0,0)"/>
<path d="" fill="#000000" transform="translate(0,0)"/>
<path d="" fill="#000000" transform="translate(0,0)"/>
<path d="" fill="#000000" transform="translate(0,0)"/>
<path d="" fill="#000000" transform="translate(0,0)"/>
<path d="" fill="#000000" transform="translate(0,0)"/>
<path d="" fill="#000000" transform="translate(0,0)"/>
<path d="" fill="#000000" transform="translate(0,0)"/>
<path d="" fill="#000000" transform="translate(0,0)"/>
<path d="" fill="#000000" transform="translate(0,0)"/>
<path d="" fill="#000000" transform="translate(0,0)"/>
<path d="" fill="#000000" transform="translate(0,0)"/>
<path d="" fill="#000000" transform="translate(0,0)"/>
<path d="" fill="#000000" transform="translate(0,0)"/>
<path d="" fill="#000000" transform="translate(0,0)"/>
<path d="" fill="#000000" transform="translate(0,0)"/>
<path d="" fill="#000000" transform="translate(0,0)"/>
<path d="" fill="#000000" transform="translate(0,0)"/>
<path d="" fill="#000000" transform="translate(0,0)"/>
<path d="" fill="#000000" transform="translate(0,0)"/>
<path d="" fill="#000000" transform="translate(0,0)"/>
<path d="" fill="#000000" transform="translate(0,0)"/>
<path d="" fill="#000000" transform="translate(0,0)"/>
<path d="" fill="#000000" transform="translate(0,0)"/>
<path d="" fill="#000000" transform="translate(0,0)"/>
<path d="" fill="#000000" transform="translate(0,0)"/>
<path d="" fill="#000000" transform="translate(0,0)"/>
<path d="" fill="#000000" transform="translate(0,0)"/>
<path d="" fill="#000000" transform="translate(0,0)"/>
<path d="" fill="#000000" transform="translate(0,0)"/>
<path d="" fill="#000000" transform="translate(0,0)"/>
<path d="" fill="#000000" transform="translate(0,0)"/>
<path d="" fill="#000000" transform="translate(0,0)"/>
<path d="" fill="#000000" transform="translate(0,0)"/>
<path d="" fill="#000000" transform="translate(0,0)"/>
<path d="" fill="#000000" transform="translate(0,0)"/>
<path d="" fill="#000000" transform="translate(0,0)"/>
<path d="" fill="#000000" transform="translate(0,0)"/>
<path d="" fill="#000000" transform="translate(0,0)"/>
<path d="" fill="#000000" transform="translate(0,0)"/>
<path d="" fill="#000000" transform="translate(0,0)"/>
<path d="" fill="#010101" transform="translate(0,0)"/>
</svg>
