<?xml version="1.0" encoding="UTF-8"?>
<svg version="1.1" xmlns="http://www.w3.org/2000/svg" width="512" height="512">
<path d="M0 0 C168.96 0 337.92 0 512 0 C512 168.96 512 337.92 512 512 C343.04 512 174.08 512 0 512 C0 343.04 0 174.08 0 0 Z " fill="#A3D8F3" transform="translate(0,0)"/>
<path d="M0 0 C55.44 0 110.88 0 168 0 C165.68635707 1.54242862 163.61395515 2.7031573 161.125 3.875 C153.6842779 7.62251697 149.46095846 12.39807072 146 20 C143.31589117 28.91906765 143.7181992 37.97868718 143.73930359 47.19917297 C143.73628124 49.06692428 143.73239134 50.93467434 143.72771102 52.80242223 C143.71743297 57.92385504 143.71961237 63.04521783 143.72389162 68.16665637 C143.72635919 73.69439439 143.71734427 79.22211557 143.70985413 84.74984741 C143.69710585 95.57519154 143.69531361 106.40051086 143.69765439 117.22586123 C143.69943761 126.0256043 143.69768781 134.82533984 143.69342995 143.62508202 C143.69253716 145.50391385 143.69253716 145.50391385 143.69162634 147.42070189 C143.69041459 149.96530031 143.68920045 152.50989873 143.68798397 155.05449715 C143.68019707 172.13934295 143.67627738 189.22418625 143.68030071 206.30903339 C143.68053528 207.31079179 143.68053528 207.31079179 143.68077458 208.33278773 C143.68158034 211.71749158 143.68242611 215.10219541 143.68328788 218.48689923 C143.68345897 219.15908548 143.68363006 219.83127172 143.68380633 220.52382724 C143.68415299 221.88315057 143.68450152 223.24247391 143.68485192 224.60179724 C143.69020841 245.7500916 143.6822798 266.89834427 143.66381836 288.04663086 C143.64309003 311.81943823 143.63240835 335.59222339 143.63639385 359.36504239 C143.63830618 371.94756774 143.63581519 384.5300551 143.62167931 397.11257362 C143.6097666 407.82457515 143.60835941 418.5365153 143.62046947 429.24851767 C143.62635896 434.71225067 143.62745555 440.17587141 143.61546707 445.63959694 C143.60461131 450.64533164 143.60770813 455.6508603 143.62172876 460.65658536 C143.62437651 462.46338185 143.62200669 464.27019448 143.61399289 466.07697514 C143.55970444 479.23442882 143.58044879 492.70373731 153 503 C157.54882643 506.79068869 162.22599008 509.51948464 168 511 C168 511.33 168 511.66 168 512 C112.56 512 57.12 512 0 512 C0 343.04 0 174.08 0 0 Z " fill="#EEEEEE" transform="translate(0,0)"/>
<path d="M0 0 C1.42240573 -0.00131376 2.84481075 -0.00394724 4.26721191 -0.00778198 C8.16975112 -0.01449276 12.07204217 -0.00249565 15.97454989 0.01254536 C20.24981419 0.0256656 24.52506744 0.02126019 28.80034637 0.01909161 C37.09564331 0.01749796 45.39084265 0.03133689 53.68611452 0.05059559 C63.28322494 0.072209 72.88027687 0.07458057 82.47741699 0.07695007 C107.8110913 0.09269638 133.14474389 0.13457978 158.47839355 0.17326355 C215.07339355 0.23513855 271.66839355 0.29701355 329.97839355 0.36076355 C329.97839355 169.32076355 329.97839355 338.28076355 329.97839355 512.36076355 C245.14776855 512.48451355 245.14776855 512.48451355 158.60339355 512.61076355 C131.80112549 512.66538757 131.80112549 512.66538757 104.45739746 512.72111511 C82.66662598 512.73918152 82.66662598 512.73918152 72.47091675 512.74253845 C65.33796932 512.74627054 58.20514703 512.76095142 51.07223511 512.7830658 C42.84520116 512.80853459 34.61828734 512.82010559 26.39121368 512.81454335 C22.18304271 512.81213453 17.97514023 512.81594315 13.76701856 512.83762407 C9.95853071 512.85712657 6.15050055 512.85803354 2.34199142 512.84436798 C0.31926674 512.84187855 -1.70345291 512.85908396 -3.72609901 512.87708664 C-13.53903632 512.81295834 -22.08398125 511.08724068 -29.4239502 504.18107605 C-39.82213704 492.33375315 -39.31561915 478.94091088 -39.27557373 464.02114868 C-39.27788004 462.15039656 -39.28105771 460.27964535 -39.28502822 458.40889603 C-39.29336134 453.28392734 -39.28925767 448.15903334 -39.28305578 443.03406441 C-39.27852628 437.50095057 -39.28551751 431.96784946 -39.29101562 426.43473816 C-39.29990575 415.60184554 -39.29798935 404.76898065 -39.29219034 393.93608695 C-39.2876726 385.13205189 -39.28706144 376.3280246 -39.28923798 367.52398872 C-39.28954444 366.27070349 -39.28985091 365.01741825 -39.29016666 363.72615467 C-39.29080611 361.18010059 -39.29145454 358.63404651 -39.29211184 356.08799244 C-39.29765143 332.8981225 -39.29190802 309.70826705 -39.28142665 286.51840045 C-39.27193463 265.3565531 -39.27278605 244.19472983 -39.28234863 223.03288269 C-39.29306146 199.24618071 -39.2972658 175.45949039 -39.29112411 151.67278534 C-39.29048701 149.1364311 -39.28985827 146.60007686 -39.28923798 144.06372261 C-39.28892943 142.81579695 -39.28862087 141.56787128 -39.28830297 140.28212969 C-39.28657615 131.488228 -39.28949084 122.69433486 -39.29419708 113.90043449 C-39.29980599 103.18435496 -39.29828918 92.46830473 -39.28763559 81.75222855 C-39.28237922 76.28483327 -39.28032163 70.81748685 -39.2869339 65.35009193 C-39.29289601 60.34459181 -39.28961383 55.33918582 -39.27897879 50.33369423 C-39.27674591 48.52361712 -39.27787855 46.71353206 -39.28273037 44.90346008 C-39.31442946 32.09424132 -39.21940146 20.93574433 -31.02160645 10.36076355 C-21.67589906 1.15325516 -12.66369219 -0.0841609 0 0 Z M-11.02160645 49.36076355 C-11.62137655 52.4499788 -11.62137655 52.4499788 -11.52497101 55.96379089 C-11.53078477 56.62905037 -11.53659853 57.29430984 -11.54258847 57.9797287 C-11.55723944 60.21908434 -11.54328074 62.45735258 -11.52954102 64.69670105 C-11.53414795 66.31422996 -11.54049947 67.9317547 -11.54844999 69.54927063 C-11.56519509 74.00204107 -11.55687356 78.45446993 -11.54450512 82.90724182 C-11.53547806 87.7062261 -11.54941268 92.50515044 -11.5604248 97.30412292 C-11.57823973 106.70842627 -11.57435682 116.11260215 -11.56277424 125.51691055 C-11.55375187 133.15790608 -11.55251073 140.7988658 -11.55686951 148.43986511 C-11.55748244 149.52610987 -11.55809537 150.61235462 -11.55872688 151.73151588 C-11.56000574 153.93799083 -11.56130259 156.14446577 -11.56261724 158.3509407 C-11.57403175 179.0558937 -11.56089568 199.76077593 -11.53941578 220.46571732 C-11.52154402 238.24326818 -11.52464788 256.02071457 -11.54309082 273.79826355 C-11.56448216 294.42758404 -11.57293303 315.05684246 -11.56064177 335.68617249 C-11.55936753 337.88466898 -11.55811005 340.08316548 -11.55686951 342.28166199 C-11.5562524 343.36345041 -11.5556353 344.44523884 -11.5549995 345.55980873 C-11.55154139 353.19432181 -11.55738487 360.82879562 -11.56678772 368.46330261 C-11.5779898 377.76337495 -11.57500544 387.06331219 -11.55366474 396.36336899 C-11.54313016 401.11119271 -11.53907335 405.85879095 -11.55226135 410.60661316 C-11.56414143 414.949147 -11.55769567 419.29124539 -11.53635114 423.63373947 C-11.53186638 425.20837344 -11.53419313 426.78304386 -11.5438543 428.35765457 C-11.55594716 430.49154464 -11.54361857 432.62392609 -11.52497101 434.75773621 C-11.5243216 435.94485199 -11.52367219 437.13196777 -11.5230031 438.35505676 C-11.23681219 441.42907222 -11.23681219 441.42907222 -9.31791592 443.74216706 C-6.55663618 445.6885065 -5.13322974 445.86094446 -1.77729034 445.8613348 C-0.7093573 445.87114909 0.35857575 445.88096338 1.45887041 445.89107507 C2.6312298 445.88147007 3.80358918 445.87186506 5.01147461 445.86196899 C6.25755352 445.86750339 7.50363242 445.87303779 8.78747129 445.87873989 C12.24850514 445.89001417 15.70866431 445.88329713 19.16963172 445.86900318 C22.90112045 445.85791341 26.6325445 445.86982934 30.36402893 445.87884521 C37.67482998 445.89279337 44.98545855 445.88520994 52.29625142 445.87016963 C60.80610916 445.85332751 69.31592372 445.85651752 77.82579297 445.86026371 C93.00739135 445.86614518 108.18890685 445.85195951 123.3704834 445.82731628 C138.10912178 445.80339467 152.84764941 445.79631165 167.58630371 445.80680847 C183.62744296 445.81821241 199.66853096 445.82015423 215.70966959 445.80571038 C217.41948858 445.8041845 219.12930758 445.80266415 220.83912659 445.80114937 C221.68043742 445.80039155 222.52174825 445.79963374 223.38855335 445.79885296 C229.32336927 445.79410608 235.25816233 445.79596443 241.19297791 445.80021477 C248.42343727 445.80513655 255.65379182 445.79917893 262.88422716 445.77932047 C266.57483649 445.76943463 270.26528609 445.76435716 273.95590401 445.77221298 C277.95247547 445.78054613 281.94876508 445.76571663 285.9453125 445.7484436 C287.11767189 445.75445365 288.29003127 445.76046369 289.4979167 445.76665586 C290.56584975 445.75821592 291.6337828 445.74977598 292.73407745 445.74108028 C293.65690789 445.74005115 294.57973832 445.73902202 295.53053331 445.73796171 C298.48028469 445.28342563 299.83675192 444.41475084 301.97839355 442.36076355 C303.09845142 439.00058994 303.10839812 436.47299398 303.11540794 432.93042946 C303.11805977 432.27168854 303.1207116 431.61294763 303.12344378 430.93424487 C303.13114608 428.71138278 303.13169631 426.48857585 303.1322937 424.26570129 C303.13630769 422.66212716 303.1407458 421.05855405 303.14557326 419.45498216 C303.15755128 415.03620179 303.16319003 410.61743235 303.16775441 406.19863892 C303.17370566 401.43780804 303.18531651 396.67699026 303.19604492 391.91616821 C303.22057695 380.41414979 303.23519574 368.91212704 303.24810499 357.41009051 C303.25181585 354.16312813 303.25578915 350.91616618 303.25985765 347.66920424 C303.28508928 327.51798204 303.30714836 307.36675918 303.3195858 287.21552467 C303.32251562 282.54714073 303.32547727 277.87875681 303.32849121 273.21037292 C303.32961029 271.46986129 303.32961029 271.46986129 303.33075197 269.69418781 C303.34341466 250.88335148 303.37664987 232.07260948 303.41829304 213.26181729 C303.46066928 193.96221574 303.4842757 174.66266255 303.48950636 155.36301458 C303.492925 144.52158933 303.50473371 133.68031159 303.5376091 122.83893204 C303.56555135 113.60913581 303.57663454 104.37951731 303.56541364 95.14968206 C303.56021235 90.43812978 303.56320878 85.72695006 303.58787918 81.01545143 C303.61026272 76.70484705 303.60971745 72.39488521 303.59067531 68.0842704 C303.58785994 66.52236153 303.59355862 64.96041008 303.60848825 63.39857002 C303.6275137 61.27918495 303.6158651 59.16211036 303.59642601 57.04277992 C303.59778254 55.86461507 303.59913907 54.68645023 303.6005367 53.47258341 C302.77702359 49.35355638 301.29457538 47.87623776 297.97839355 45.36076355 C295.39482297 44.62519168 295.39482297 44.62519168 292.61102962 44.73435116 C291.54110553 44.72192912 290.47118143 44.70950708 289.36883539 44.69670862 C287.61466557 44.71446221 287.61466557 44.71446221 285.82505798 44.73257446 C284.57812465 44.72548008 283.33119132 44.71838569 282.04647213 44.71107632 C278.58776996 44.69213561 275.12977419 44.70439716 271.67108977 44.72179925 C267.94028518 44.73516074 264.20958481 44.71974066 260.47879028 44.70797729 C253.17143684 44.68958766 245.8643506 44.6981215 238.55700546 44.71606552 C232.61940088 44.73008391 226.68186889 44.73398597 220.74424934 44.73062325 C219.89959651 44.7301458 219.05494367 44.72966836 218.18469529 44.72917645 C216.46888087 44.72815014 214.75306646 44.72709478 213.03725208 44.72601069 C197.86173595 44.71744109 182.68634896 44.73412761 167.51086426 44.76383972 C152.77903826 44.79268287 138.04739825 44.7997586 123.31555176 44.78434753 C107.27915489 44.76759478 91.24284634 44.7635413 75.20644718 44.78105789 C73.49720547 44.78290232 71.78796374 44.78473704 70.078722 44.78656197 C69.23770616 44.78747406 68.39669031 44.78838615 67.53018914 44.78932587 C61.59785895 44.79493665 55.66557181 44.79161911 49.73324394 44.78501701 C42.50643814 44.77729369 35.27981557 44.78400029 28.05304676 44.80919205 C24.36441457 44.82170995 20.67606799 44.82780616 16.98742485 44.81665039 C12.99302117 44.80479776 8.99911279 44.82382301 5.00474548 44.84609985 C3.83306822 44.83785909 2.66139095 44.82961832 1.45420831 44.82112783 C-0.14676621 44.83769936 -0.14676621 44.83769936 -1.78008366 44.85460567 C-3.1635162 44.8563929 -3.1635162 44.8563929 -4.57489687 44.85821623 C-7.90870365 45.54297084 -9.04851191 46.60347644 -11.02160645 49.36076355 Z " fill="#535454" transform="translate(182.0216064453125,-0.3607635498046875)"/>
<path d="M0 0 C1.06731635 -0.01104769 2.1346327 -0.02209538 3.23429197 -0.03347784 C4.40596924 -0.02523708 5.5776465 -0.01699631 6.78482914 -0.00850582 C8.03020248 -0.01545135 9.27557582 -0.02239688 10.55868775 -0.02955288 C14.01777571 -0.04470568 17.4760064 -0.04186125 20.93505633 -0.03139985 C24.66453442 -0.02441975 28.39392375 -0.0403967 32.12337589 -0.05339718 C39.43048638 -0.07506271 46.73744129 -0.07490375 54.04457336 -0.06677163 C59.9826661 -0.06047693 65.9207134 -0.06160379 71.85880566 -0.06804371 C72.70330526 -0.06894536 73.54780486 -0.06984702 74.41789537 -0.070776 C76.13338559 -0.07262716 77.84887579 -0.07448972 79.56436599 -0.07636356 C95.65922811 -0.09295101 111.75400263 -0.0842149 127.8488595 -0.06737798 C142.57928465 -0.05268115 157.30950583 -0.06730747 172.03990471 -0.09614814 C187.15851368 -0.12552886 202.27702847 -0.13651824 217.39566475 -0.12696594 C219.10522082 -0.12594337 220.8147769 -0.12494876 222.524333 -0.12398243 C223.78608818 -0.12326784 223.78608818 -0.12326784 225.07333336 -0.12253882 C231.00470232 -0.12037288 236.93598229 -0.13018835 242.8673315 -0.14475346 C250.09524762 -0.16225451 257.32290365 -0.16219172 264.55080944 -0.1394018 C268.23962638 -0.12823891 271.92798475 -0.12514262 275.61678219 -0.14370251 C279.61328154 -0.16355203 283.60865806 -0.14476908 287.60514164 -0.12203121 C288.77458818 -0.13386694 289.94403473 -0.14570267 291.14891905 -0.15789706 C292.21884314 -0.14547502 293.28876724 -0.13305298 294.39111328 -0.12025452 C295.77478935 -0.11984998 295.77478935 -0.11984998 297.18641847 -0.11943728 C299.75847721 0.50615788 299.75847721 0.50615788 304.75847721 5.50615788 C304.75847721 13.09615788 304.75847721 20.68615788 304.75847721 28.50615788 C211.36847721 28.50615788 117.97847721 28.50615788 21.75847721 28.50615788 C21.84888899 93.81478413 21.84888899 93.81478413 21.96746159 159.12334538 C21.98551263 167.9198944 22.00337673 176.71644378 22.02092838 185.51299381 C22.02313607 186.61554689 22.02534376 187.71809997 22.02761835 188.85406375 C22.06301924 206.67001407 22.08786015 224.48596434 22.10882423 242.30193684 C22.13056214 260.57654491 22.16359336 278.85110723 22.20717877 297.12567639 C22.23373018 308.40833146 22.25139983 319.69092947 22.25782325 330.97361425 C22.26306648 338.7033248 22.27924746 346.43296346 22.30414287 354.16263554 C22.3181945 358.62685358 22.32731508 363.09094281 22.32348537 367.55518436 C22.32008831 371.63877092 22.33036335 375.72208183 22.35171273 379.80561188 C22.35700401 381.28614832 22.35719118 382.76671323 22.35187284 384.24724957 C22.345397 386.25376054 22.35900597 388.26030669 22.37371635 390.26677418 C22.37561496 391.38315195 22.37751356 392.49952972 22.37946969 393.64973712 C22.79870826 396.80936245 23.63009309 398.18441613 25.75847721 400.50615788 C21.41690669 400.60521091 17.07593867 400.67771089 12.73357487 400.72588444 C11.25722131 400.74597088 9.78094703 400.77324589 8.30486393 400.80791569 C6.17982759 400.85656972 4.05584487 400.8791546 1.93035221 400.89678288 C0.65256901 400.91773014 -0.6252142 400.93867741 -1.9417181 400.96025944 C-5.93223576 400.41110563 -6.8243844 399.66369186 -9.24152279 396.50615788 C-9.74291945 393.50045109 -9.74291945 393.50045109 -9.74488735 389.90313053 C-9.75070112 389.23787106 -9.75651488 388.57261158 -9.76250482 387.88719273 C-9.77715578 385.64783709 -9.76319708 383.40956884 -9.74945736 381.17022038 C-9.75406429 379.55269146 -9.76041581 377.93516673 -9.76836634 376.31765079 C-9.78511143 371.86488036 -9.7767899 367.4124515 -9.76442146 362.9596796 C-9.7553944 358.16069533 -9.76932902 353.36177098 -9.78034115 348.5627985 C-9.79815608 339.15849515 -9.79427316 329.75431928 -9.78269058 320.35001087 C-9.77366822 312.70901535 -9.77242707 305.06805563 -9.77678585 297.42705631 C-9.77739878 296.34081156 -9.77801171 295.2545668 -9.77864322 294.13540554 C-9.77992208 291.92893059 -9.78121893 289.72245565 -9.78253359 287.51598072 C-9.7939481 266.81102773 -9.78081202 246.1061455 -9.75933212 225.40120411 C-9.74146036 207.62365325 -9.74456422 189.84620685 -9.76300716 172.06865788 C-9.7843985 151.43933739 -9.79284938 130.81007897 -9.78055811 110.18074894 C-9.77928387 107.98225245 -9.77802639 105.78375595 -9.77678585 103.58525944 C-9.77616875 102.50347101 -9.77555165 101.42168259 -9.77491584 100.30711269 C-9.77145773 92.67259962 -9.77730121 85.03812581 -9.78670406 77.40361881 C-9.79790614 68.10354648 -9.79492179 58.80360923 -9.77358109 49.50355244 C-9.7630465 44.75572871 -9.7589897 40.00813048 -9.7721777 35.26030827 C-9.78405777 30.91777443 -9.77761201 26.57567603 -9.75626749 22.23318195 C-9.75178272 20.65854799 -9.75410947 19.08387757 -9.76377064 17.50926685 C-9.77586351 15.37537678 -9.76353491 13.24299533 -9.74488735 11.10918522 C-9.74423794 9.92206944 -9.74358853 8.73495365 -9.74291945 7.51186466 C-9.24152279 4.50615788 -9.24152279 4.50615788 -7.53765768 2.12510353 C-4.77831379 0.17956112 -3.35392978 0.00433286 0 0 Z " fill="#7CC9E8" transform="translate(180.24152278900146,44.493842124938965)"/>
<path d="M0 0 C18.81 0 37.62 0 57 0 C57 0.33 57 0.66 57 1 C56.34773438 1.17015625 55.69546875 1.3403125 55.0234375 1.515625 C45.41028389 4.18121922 38.73269919 8.45625574 33.734375 17.21875 C30.56685055 24.08915514 30.57899922 30.53893071 31 38 C31.39832031 37.57847656 31.79664062 37.15695313 32.20703125 36.72265625 C32.73683594 36.17480469 33.26664063 35.62695312 33.8125 35.0625 C34.33457031 34.51722656 34.85664062 33.97195312 35.39453125 33.41015625 C38.50676286 30.67654163 41.94380282 30.71914078 45.94140625 30.78515625 C50.47889622 31.25870833 53.281041 33.22274702 56.3125 36.5 C59.14112473 40.69055516 59.41496987 44.02036155 59 49 C57.29068726 53.93229398 54.52774046 57.03857559 49.85546875 59.33984375 C46.08156642 60.68255847 42.8383154 60.74444177 39.109375 59.234375 C35.51167334 57.32970942 33.29554156 55.29119814 31 52 C30.90844752 107.10177776 30.8379628 162.20354783 30.79573868 217.30538668 C30.79073585 223.81044346 30.78555856 230.31550009 30.78027344 236.82055664 C30.7792242 238.11559804 30.77817495 239.41063943 30.77709392 240.74492451 C30.75968799 261.7149284 30.72814924 282.68488844 30.69138882 303.65486632 C30.65398467 325.17148281 30.63176525 346.68807634 30.62364602 368.20472401 C30.61815718 381.48198345 30.60082008 394.75911892 30.56833413 408.0363402 C30.54719279 417.14063199 30.54079912 426.24485968 30.54599449 435.34917424 C30.54855683 440.6021382 30.54462465 445.85488552 30.5231781 451.10781097 C30.50367378 455.92021794 30.50275527 460.73226311 30.51640442 465.54468694 C30.51809069 467.28242892 30.5130495 469.02019373 30.50046727 470.75789098 C30.41745065 482.93456174 31.09994539 494.0017207 39.9375 503.27734375 C44.94161825 507.45691979 50.60243841 509.91856165 57 511 C57 511.33 57 511.66 57 512 C38.19 512 19.38 512 0 512 C0 343.04 0 174.08 0 0 Z " fill="#DDDDDD" transform="translate(0,0)"/>
<path d="M0 0 C1.45701743 0.01507259 2.91404993 0.02875645 4.37109375 0.04101562 C7.91437925 0.07382097 11.45709171 0.12546093 15 0.1875 C15 0.5175 15 0.8475 15 1.1875 C14.443125 1.27386719 13.88625 1.36023438 13.3125 1.44921875 C3.94515975 3.17394863 -2.5051196 7.42784399 -8 15.1875 C-13.54541541 23.47005607 -12.55793297 33.24338947 -12.50793457 42.7797699 C-12.51254595 44.69019787 -12.51890046 46.60062229 -12.52684355 48.51103932 C-12.54352749 53.7504246 -12.53529462 58.9895181 -12.52289867 64.22890437 C-12.51384669 69.88340703 -12.52781871 75.53785959 -12.53881836 81.19235229 C-12.55660686 92.26570965 -12.55276198 103.33895858 -12.5411678 114.41232019 C-12.53213462 123.41231556 -12.53090898 132.41228053 -12.53526306 141.41227913 C-12.53587599 142.69316474 -12.53648893 143.97405036 -12.53712043 145.29375069 C-12.53839933 147.89585058 -12.53969619 150.49795046 -12.5410108 153.10005034 C-12.5520925 176.80596466 -12.54059947 200.51180917 -12.51964041 224.2177122 C-12.50066066 245.84935608 -12.502355 267.48090577 -12.52148438 289.11254883 C-12.54291283 313.42518098 -12.55131679 337.73774647 -12.53903532 362.05038983 C-12.53776113 364.64322824 -12.53650364 367.23606667 -12.53526306 369.82890511 C-12.53464596 371.10462615 -12.53402886 372.38034719 -12.53339306 373.69472645 C-12.52993993 382.683022 -12.53576777 391.67128413 -12.54518127 400.65957451 C-12.5564024 411.61466504 -12.55335878 422.56964093 -12.5320583 433.52471834 C-12.52154922 439.11379433 -12.5174238 444.70267921 -12.53065491 450.29175377 C-12.54258741 455.40970465 -12.53600177 460.52728757 -12.5147447 465.64520515 C-12.51028229 467.49503083 -12.51253676 469.34488769 -12.52224785 471.19469326 C-12.58233851 483.59363404 -11.96472649 493.96811852 -3.05859375 503.4296875 C2.07159452 507.81030367 8.24534187 510.65423752 15 511.1875 C15 511.5175 15 511.8475 15 512.1875 C10.76829049 512.2874677 6.5372329 512.35947673 2.3046875 512.40722656 C0.86934413 512.42716189 -0.56591997 512.45432074 -2.00097656 512.48925781 C-13.06501724 512.75158514 -22.94176064 511.96836114 -31.40234375 504.0078125 C-41.80053059 492.1604896 -41.29401271 478.76764733 -41.25396729 463.84788513 C-41.25627359 461.97713301 -41.25945126 460.1063818 -41.26342177 458.23563248 C-41.2717549 453.11066379 -41.26765122 447.98576979 -41.26144934 442.86080086 C-41.25691983 437.32768702 -41.26391107 431.79458591 -41.26940918 426.26147461 C-41.2782993 415.42858199 -41.2763829 404.5957171 -41.2705839 393.7628234 C-41.26606616 384.95878834 -41.26545499 376.15476105 -41.26763153 367.35072517 C-41.267938 366.09743994 -41.26824446 364.8441547 -41.26856022 363.55289112 C-41.26919967 361.00683704 -41.2698481 358.46078296 -41.2705054 355.91472889 C-41.27604499 332.72485895 -41.27030158 309.5350035 -41.2598202 286.3451369 C-41.25032819 265.18328955 -41.2511796 244.02146628 -41.26074219 222.85961914 C-41.27145501 199.07291716 -41.27565936 175.28622684 -41.26951766 151.49952179 C-41.26888056 148.96316755 -41.26825182 146.42681331 -41.26763153 143.89045906 C-41.26732298 142.6425334 -41.26701443 141.39460773 -41.26669653 140.10886614 C-41.26496971 131.31496445 -41.26788439 122.52107131 -41.27259064 113.72717094 C-41.27819954 103.01109141 -41.27668274 92.29504118 -41.26602915 81.578965 C-41.26077277 76.11156972 -41.25871519 70.6442233 -41.26532745 65.17682838 C-41.27128956 60.17132826 -41.26800738 55.16592227 -41.25737235 50.16043068 C-41.25513947 48.35035357 -41.25627211 46.54026851 -41.26112393 44.73019653 C-41.29282302 31.92097777 -41.19779502 20.76248078 -33 10.1875 C-23.04853275 0.38318939 -13.19703898 -0.23806776 0 0 Z " fill="#474747" transform="translate(184,-0.1875)"/>
<path d="M0 0 C1.06731635 -0.01104769 2.1346327 -0.02209538 3.23429197 -0.03347784 C4.40596924 -0.02523708 5.5776465 -0.01699631 6.78482914 -0.00850582 C8.03020248 -0.01545135 9.27557582 -0.02239688 10.55868775 -0.02955288 C14.01777571 -0.04470568 17.4760064 -0.04186125 20.93505633 -0.03139985 C24.66453442 -0.02441975 28.39392375 -0.0403967 32.12337589 -0.05339718 C39.43048638 -0.07506271 46.73744129 -0.07490375 54.04457336 -0.06677163 C59.9826661 -0.06047693 65.9207134 -0.06160379 71.85880566 -0.06804371 C72.70330526 -0.06894536 73.54780486 -0.06984702 74.41789537 -0.070776 C76.13338559 -0.07262716 77.84887579 -0.07448972 79.56436599 -0.07636356 C95.65922811 -0.09295101 111.75400263 -0.0842149 127.8488595 -0.06737798 C142.57928465 -0.05268115 157.30950583 -0.06730747 172.03990471 -0.09614814 C187.15851368 -0.12552886 202.27702847 -0.13651824 217.39566475 -0.12696594 C219.10522082 -0.12594337 220.8147769 -0.12494876 222.524333 -0.12398243 C223.78608818 -0.12326784 223.78608818 -0.12326784 225.07333336 -0.12253882 C231.00470232 -0.12037288 236.93598229 -0.13018835 242.8673315 -0.14475346 C250.09524762 -0.16225451 257.32290365 -0.16219172 264.55080944 -0.1394018 C268.23962638 -0.12823891 271.92798475 -0.12514262 275.61678219 -0.14370251 C279.61328154 -0.16355203 283.60865806 -0.14476908 287.60514164 -0.12203121 C288.77458818 -0.13386694 289.94403473 -0.14570267 291.14891905 -0.15789706 C292.21884314 -0.14547502 293.28876724 -0.13305298 294.39111328 -0.12025452 C295.77478935 -0.11984998 295.77478935 -0.11984998 297.18641847 -0.11943728 C299.75847721 0.50615788 299.75847721 0.50615788 304.75847721 5.50615788 C304.75847721 13.09615788 304.75847721 20.68615788 304.75847721 28.50615788 C201.13847721 28.50615788 97.51847721 28.50615788 -9.24152279 28.50615788 C-9.24152279 0.0119389 -9.24152279 0.0119389 0 0 Z " fill="#70B5E7" transform="translate(180.24152278900146,44.493842124938965)"/>
<path d="M0 0 C5.54331711 3.51748667 9.06967075 8.89651224 11.125 15.0625 C11.84730143 22.10493894 10.98656736 28.28492827 6.6484375 34.01171875 C1.56806244 39.54445597 -3.77599809 42.04932029 -11.25 42.5625 C-17.64473709 42.29743318 -23.37305126 39.66574221 -27.8046875 35.0546875 C-32.99778483 28.32105412 -33.62222284 22.46341964 -32.875 14.0625 C-31.17247638 7.87803169 -27.18481491 3.5287825 -21.875 0.0625 C-14.99634123 -3.24607802 -6.88755792 -3.38540982 0 0 Z " fill="#656565" transform="translate(338.875,458.9375)"/>
<path d="M0 0 C1.0236264 0.00848969 1.0236264 0.00848969 2.06793213 0.01715088 C4.23872262 0.03946864 6.40783706 0.08964992 8.578125 0.140625 C10.0533615 0.16069624 11.52862399 0.17894593 13.00390625 0.1953125 C16.61252001 0.2393162 20.22015881 0.30830917 23.828125 0.390625 C23.3436792 0.93428711 22.8592334 1.47794922 22.36010742 2.03808594 C20.4972751 4.89868391 20.40661643 6.63934715 20.31640625 10.03125 C20.28329346 10.99579102 20.25018066 11.96033203 20.21606445 12.95410156 C20.17872192 14.77893066 20.17872192 14.77893066 20.140625 16.640625 C20.0375 20.518125 19.934375 24.395625 19.828125 28.390625 C9.598125 28.390625 -0.631875 28.390625 -11.171875 28.390625 C-11.254375 24.513125 -11.336875 20.635625 -11.421875 16.640625 C-11.45829102 15.42407227 -11.49470703 14.20751953 -11.53222656 12.95410156 C-11.5422168 11.98956055 -11.55220703 11.02501953 -11.5625 10.03125 C-11.58344727 9.04672852 -11.60439453 8.06220703 -11.62597656 7.04785156 C-11.171875 4.390625 -11.171875 4.390625 -9.59570312 2.0625 C-6.27325599 -0.22921212 -4.01344028 -0.0657941 0 0 Z " fill="#52A5D8" transform="translate(182.171875,44.609375)"/>
<path d="M0 0 C1.06734375 -0.00257813 2.1346875 -0.00515625 3.234375 -0.0078125 C4.91273438 0.00378906 4.91273438 0.00378906 6.625 0.015625 C7.74390625 0.00789063 8.8628125 0.00015625 10.015625 -0.0078125 C11.08296875 -0.00523437 12.1503125 -0.00265625 13.25 0 C14.23226563 0.00225586 15.21453125 0.00451172 16.2265625 0.00683594 C18.625 0.265625 18.625 0.265625 20.625 2.265625 C20.88378906 4.6640625 20.88378906 4.6640625 20.890625 7.640625 C20.89449219 9.24164063 20.89449219 9.24164063 20.8984375 10.875 C20.89070313 11.99390625 20.88296875 13.1128125 20.875 14.265625 C20.88273437 15.38453125 20.89046875 16.5034375 20.8984375 17.65625 C20.89585937 18.72359375 20.89328125 19.7909375 20.890625 20.890625 C20.88836914 21.87289063 20.88611328 22.85515625 20.88378906 23.8671875 C20.625 26.265625 20.625 26.265625 18.625 28.265625 C16.2265625 28.52441406 16.2265625 28.52441406 13.25 28.53125 C12.18265625 28.53382813 11.1153125 28.53640625 10.015625 28.5390625 C8.33726562 28.52746094 8.33726562 28.52746094 6.625 28.515625 C5.50609375 28.52335937 4.3871875 28.53109375 3.234375 28.5390625 C2.16703125 28.53648437 1.0996875 28.53390625 0 28.53125 C-0.98226563 28.52899414 -1.96453125 28.52673828 -2.9765625 28.52441406 C-5.375 28.265625 -5.375 28.265625 -7.375 26.265625 C-7.63378906 23.8671875 -7.63378906 23.8671875 -7.640625 20.890625 C-7.64320313 19.82328125 -7.64578125 18.7559375 -7.6484375 17.65625 C-7.63683594 15.97789062 -7.63683594 15.97789062 -7.625 14.265625 C-7.63273437 13.14671875 -7.64046875 12.0278125 -7.6484375 10.875 C-7.64585937 9.80765625 -7.64328125 8.7403125 -7.640625 7.640625 C-7.63836914 6.65835937 -7.63611328 5.67609375 -7.63378906 4.6640625 C-7.10415251 -0.24456913 -4.21168741 0.00967251 0 0 Z " fill="#71B6E8" transform="translate(354.375,389.734375)"/>
<path d="M0 0 C1.06734375 -0.00257813 2.1346875 -0.00515625 3.234375 -0.0078125 C4.91273438 0.00378906 4.91273438 0.00378906 6.625 0.015625 C7.74390625 0.00789063 8.8628125 0.00015625 10.015625 -0.0078125 C11.08296875 -0.00523437 12.1503125 -0.00265625 13.25 0 C14.23226563 0.00225586 15.21453125 0.00451172 16.2265625 0.00683594 C18.625 0.265625 18.625 0.265625 20.625 2.265625 C20.88378906 4.6640625 20.88378906 4.6640625 20.890625 7.640625 C20.89449219 9.24164063 20.89449219 9.24164063 20.8984375 10.875 C20.89070313 11.99390625 20.88296875 13.1128125 20.875 14.265625 C20.88273437 15.38453125 20.89046875 16.5034375 20.8984375 17.65625 C20.89585937 18.72359375 20.89328125 19.7909375 20.890625 20.890625 C20.88836914 21.87289063 20.88611328 22.85515625 20.88378906 23.8671875 C20.625 26.265625 20.625 26.265625 18.625 28.265625 C16.2265625 28.52441406 16.2265625 28.52441406 13.25 28.53125 C12.18265625 28.53382813 11.1153125 28.53640625 10.015625 28.5390625 C8.33726562 28.52746094 8.33726562 28.52746094 6.625 28.515625 C5.50609375 28.52335937 4.3871875 28.53109375 3.234375 28.5390625 C2.16703125 28.53648437 1.0996875 28.53390625 0 28.53125 C-0.98226563 28.52899414 -1.96453125 28.52673828 -2.9765625 28.52441406 C-5.375 28.265625 -5.375 28.265625 -7.375 26.265625 C-7.63378906 23.8671875 -7.63378906 23.8671875 -7.640625 20.890625 C-7.64320313 19.82328125 -7.64578125 18.7559375 -7.6484375 17.65625 C-7.63683594 15.97789062 -7.63683594 15.97789062 -7.625 14.265625 C-7.63273437 13.14671875 -7.64046875 12.0278125 -7.6484375 10.875 C-7.64585937 9.80765625 -7.64328125 8.7403125 -7.640625 7.640625 C-7.63836914 6.65835937 -7.63611328 5.67609375 -7.63378906 4.6640625 C-7.10415251 -0.24456913 -4.21168741 0.00967251 0 0 Z " fill="#71B6E8" transform="translate(288.375,389.734375)"/>
<path d="M0 0 C1.06734375 -0.00257813 2.1346875 -0.00515625 3.234375 -0.0078125 C4.91273438 0.00378906 4.91273438 0.00378906 6.625 0.015625 C7.74390625 0.00789063 8.8628125 0.00015625 10.015625 -0.0078125 C11.08296875 -0.00523437 12.1503125 -0.00265625 13.25 0 C14.23226562 0.00225586 15.21453125 0.00451172 16.2265625 0.00683594 C18.625 0.265625 18.625 0.265625 20.625 2.265625 C20.88378906 4.6640625 20.88378906 4.6640625 20.890625 7.640625 C20.89449219 9.24164063 20.89449219 9.24164063 20.8984375 10.875 C20.89070313 11.99390625 20.88296875 13.1128125 20.875 14.265625 C20.88273437 15.38453125 20.89046875 16.5034375 20.8984375 17.65625 C20.89585937 18.72359375 20.89328125 19.7909375 20.890625 20.890625 C20.88836914 21.87289063 20.88611328 22.85515625 20.88378906 23.8671875 C20.625 26.265625 20.625 26.265625 18.625 28.265625 C16.2265625 28.52441406 16.2265625 28.52441406 13.25 28.53125 C12.18265625 28.53382813 11.1153125 28.53640625 10.015625 28.5390625 C8.33726562 28.52746094 8.33726562 28.52746094 6.625 28.515625 C5.50609375 28.52335937 4.3871875 28.53109375 3.234375 28.5390625 C2.16703125 28.53648437 1.0996875 28.53390625 0 28.53125 C-0.98226562 28.52899414 -1.96453125 28.52673828 -2.9765625 28.52441406 C-5.375 28.265625 -5.375 28.265625 -7.375 26.265625 C-7.63378906 23.8671875 -7.63378906 23.8671875 -7.640625 20.890625 C-7.64320313 19.82328125 -7.64578125 18.7559375 -7.6484375 17.65625 C-7.63683594 15.97789062 -7.63683594 15.97789062 -7.625 14.265625 C-7.63273438 13.14671875 -7.64046875 12.0278125 -7.6484375 10.875 C-7.64585937 9.80765625 -7.64328125 8.7403125 -7.640625 7.640625 C-7.63836914 6.65835937 -7.63611328 5.67609375 -7.63378906 4.6640625 C-7.10415251 -0.24456913 -4.21168741 0.00967251 0 0 Z " fill="#92B726" transform="translate(222.375,389.734375)"/>
<path d="M0 0 C1.06734375 -0.00257813 2.1346875 -0.00515625 3.234375 -0.0078125 C4.91273438 0.00378906 4.91273438 0.00378906 6.625 0.015625 C7.74390625 0.00789062 8.8628125 0.00015625 10.015625 -0.0078125 C11.08296875 -0.00523437 12.1503125 -0.00265625 13.25 0 C14.23226563 0.00225586 15.21453125 0.00451172 16.2265625 0.00683594 C18.625 0.265625 18.625 0.265625 20.625 2.265625 C20.88378906 4.6640625 20.88378906 4.6640625 20.890625 7.640625 C20.89449219 9.24164063 20.89449219 9.24164063 20.8984375 10.875 C20.89070313 11.99390625 20.88296875 13.1128125 20.875 14.265625 C20.88273437 15.38453125 20.89046875 16.5034375 20.8984375 17.65625 C20.89585937 18.72359375 20.89328125 19.7909375 20.890625 20.890625 C20.88836914 21.87289062 20.88611328 22.85515625 20.88378906 23.8671875 C20.625 26.265625 20.625 26.265625 18.625 28.265625 C16.2265625 28.52441406 16.2265625 28.52441406 13.25 28.53125 C12.18265625 28.53382813 11.1153125 28.53640625 10.015625 28.5390625 C8.33726562 28.52746094 8.33726562 28.52746094 6.625 28.515625 C5.50609375 28.52335937 4.3871875 28.53109375 3.234375 28.5390625 C2.16703125 28.53648437 1.0996875 28.53390625 0 28.53125 C-0.98226563 28.52899414 -1.96453125 28.52673828 -2.9765625 28.52441406 C-5.375 28.265625 -5.375 28.265625 -7.375 26.265625 C-7.63378906 23.8671875 -7.63378906 23.8671875 -7.640625 20.890625 C-7.64320313 19.82328125 -7.64578125 18.7559375 -7.6484375 17.65625 C-7.63683594 15.97789062 -7.63683594 15.97789062 -7.625 14.265625 C-7.63273437 13.14671875 -7.64046875 12.0278125 -7.6484375 10.875 C-7.64585937 9.80765625 -7.64328125 8.7403125 -7.640625 7.640625 C-7.63836914 6.65835938 -7.63611328 5.67609375 -7.63378906 4.6640625 C-7.10415251 -0.24456913 -4.21168741 0.00967251 0 0 Z " fill="#FCB814" transform="translate(288.375,225.734375)"/>
<path d="M0 0 C1.06734375 -0.00257813 2.1346875 -0.00515625 3.234375 -0.0078125 C4.91273438 0.00378906 4.91273438 0.00378906 6.625 0.015625 C7.74390625 0.00789062 8.8628125 0.00015625 10.015625 -0.0078125 C11.08296875 -0.00523437 12.1503125 -0.00265625 13.25 0 C14.23226562 0.00225586 15.21453125 0.00451172 16.2265625 0.00683594 C18.625 0.265625 18.625 0.265625 20.625 2.265625 C20.88378906 4.6640625 20.88378906 4.6640625 20.890625 7.640625 C20.89449219 9.24164063 20.89449219 9.24164063 20.8984375 10.875 C20.89070313 11.99390625 20.88296875 13.1128125 20.875 14.265625 C20.88273437 15.38453125 20.89046875 16.5034375 20.8984375 17.65625 C20.89585937 18.72359375 20.89328125 19.7909375 20.890625 20.890625 C20.88836914 21.87289062 20.88611328 22.85515625 20.88378906 23.8671875 C20.625 26.265625 20.625 26.265625 18.625 28.265625 C16.2265625 28.52441406 16.2265625 28.52441406 13.25 28.53125 C12.18265625 28.53382813 11.1153125 28.53640625 10.015625 28.5390625 C8.33726562 28.52746094 8.33726562 28.52746094 6.625 28.515625 C5.50609375 28.52335937 4.3871875 28.53109375 3.234375 28.5390625 C2.16703125 28.53648437 1.0996875 28.53390625 0 28.53125 C-0.98226562 28.52899414 -1.96453125 28.52673828 -2.9765625 28.52441406 C-5.375 28.265625 -5.375 28.265625 -7.375 26.265625 C-7.63378906 23.8671875 -7.63378906 23.8671875 -7.640625 20.890625 C-7.64320313 19.82328125 -7.64578125 18.7559375 -7.6484375 17.65625 C-7.63683594 15.97789062 -7.63683594 15.97789062 -7.625 14.265625 C-7.63273438 13.14671875 -7.64046875 12.0278125 -7.6484375 10.875 C-7.64585937 9.80765625 -7.64328125 8.7403125 -7.640625 7.640625 C-7.63836914 6.65835938 -7.63611328 5.67609375 -7.63378906 4.6640625 C-7.10415251 -0.24456913 -4.21168741 0.00967251 0 0 Z " fill="#ECEEEF" transform="translate(222.375,225.734375)"/>
<path d="M0 0 C1.06734375 -0.00257812 2.1346875 -0.00515625 3.234375 -0.0078125 C4.91273438 0.00378906 4.91273438 0.00378906 6.625 0.015625 C7.74390625 0.00789063 8.8628125 0.00015625 10.015625 -0.0078125 C11.08296875 -0.00523438 12.1503125 -0.00265625 13.25 0 C14.23226563 0.00225586 15.21453125 0.00451172 16.2265625 0.00683594 C18.625 0.265625 18.625 0.265625 20.625 2.265625 C20.88378906 4.6640625 20.88378906 4.6640625 20.890625 7.640625 C20.89449219 9.24164063 20.89449219 9.24164063 20.8984375 10.875 C20.89070313 11.99390625 20.88296875 13.1128125 20.875 14.265625 C20.88273437 15.38453125 20.89046875 16.5034375 20.8984375 17.65625 C20.89585937 18.72359375 20.89328125 19.7909375 20.890625 20.890625 C20.88836914 21.87289062 20.88611328 22.85515625 20.88378906 23.8671875 C20.625 26.265625 20.625 26.265625 18.625 28.265625 C16.2265625 28.52441406 16.2265625 28.52441406 13.25 28.53125 C12.18265625 28.53382813 11.1153125 28.53640625 10.015625 28.5390625 C8.33726562 28.52746094 8.33726562 28.52746094 6.625 28.515625 C5.50609375 28.52335937 4.3871875 28.53109375 3.234375 28.5390625 C2.16703125 28.53648437 1.0996875 28.53390625 0 28.53125 C-0.98226563 28.52899414 -1.96453125 28.52673828 -2.9765625 28.52441406 C-5.375 28.265625 -5.375 28.265625 -7.375 26.265625 C-7.63378906 23.8671875 -7.63378906 23.8671875 -7.640625 20.890625 C-7.64320313 19.82328125 -7.64578125 18.7559375 -7.6484375 17.65625 C-7.63683594 15.97789062 -7.63683594 15.97789062 -7.625 14.265625 C-7.63273437 13.14671875 -7.64046875 12.0278125 -7.6484375 10.875 C-7.64585937 9.80765625 -7.64328125 8.7403125 -7.640625 7.640625 C-7.63836914 6.65835938 -7.63611328 5.67609375 -7.63378906 4.6640625 C-7.10415251 -0.24456913 -4.21168741 0.00967251 0 0 Z " fill="#FCB814" transform="translate(354.375,114.734375)"/>
<path d="M0 0 C1.06734375 -0.00257812 2.1346875 -0.00515625 3.234375 -0.0078125 C4.91273438 0.00378906 4.91273438 0.00378906 6.625 0.015625 C7.74390625 0.00789063 8.8628125 0.00015625 10.015625 -0.0078125 C11.08296875 -0.00523438 12.1503125 -0.00265625 13.25 0 C14.23226563 0.00225586 15.21453125 0.00451172 16.2265625 0.00683594 C18.625 0.265625 18.625 0.265625 20.625 2.265625 C20.88378906 4.6640625 20.88378906 4.6640625 20.890625 7.640625 C20.89449219 9.24164063 20.89449219 9.24164063 20.8984375 10.875 C20.89070313 11.99390625 20.88296875 13.1128125 20.875 14.265625 C20.88273437 15.38453125 20.89046875 16.5034375 20.8984375 17.65625 C20.89585937 18.72359375 20.89328125 19.7909375 20.890625 20.890625 C20.88836914 21.87289062 20.88611328 22.85515625 20.88378906 23.8671875 C20.625 26.265625 20.625 26.265625 18.625 28.265625 C16.2265625 28.52441406 16.2265625 28.52441406 13.25 28.53125 C12.18265625 28.53382813 11.1153125 28.53640625 10.015625 28.5390625 C8.33726562 28.52746094 8.33726562 28.52746094 6.625 28.515625 C5.50609375 28.52335937 4.3871875 28.53109375 3.234375 28.5390625 C2.16703125 28.53648437 1.0996875 28.53390625 0 28.53125 C-0.98226563 28.52899414 -1.96453125 28.52673828 -2.9765625 28.52441406 C-5.375 28.265625 -5.375 28.265625 -7.375 26.265625 C-7.63378906 23.8671875 -7.63378906 23.8671875 -7.640625 20.890625 C-7.64320313 19.82328125 -7.64578125 18.7559375 -7.6484375 17.65625 C-7.63683594 15.97789062 -7.63683594 15.97789062 -7.625 14.265625 C-7.63273437 13.14671875 -7.64046875 12.0278125 -7.6484375 10.875 C-7.64585937 9.80765625 -7.64328125 8.7403125 -7.640625 7.640625 C-7.63836914 6.65835938 -7.63611328 5.67609375 -7.63378906 4.6640625 C-7.10415251 -0.24456913 -4.21168741 0.00967251 0 0 Z " fill="#F64E4B" transform="translate(288.375,114.734375)"/>
<path d="M0 0 C1.06734375 -0.00257812 2.1346875 -0.00515625 3.234375 -0.0078125 C4.91273438 0.00378906 4.91273438 0.00378906 6.625 0.015625 C7.74390625 0.00789063 8.8628125 0.00015625 10.015625 -0.0078125 C11.08296875 -0.00523438 12.1503125 -0.00265625 13.25 0 C14.23226562 0.00225586 15.21453125 0.00451172 16.2265625 0.00683594 C18.625 0.265625 18.625 0.265625 20.625 2.265625 C20.88378906 4.6640625 20.88378906 4.6640625 20.890625 7.640625 C20.89449219 9.24164063 20.89449219 9.24164063 20.8984375 10.875 C20.89070313 11.99390625 20.88296875 13.1128125 20.875 14.265625 C20.88273437 15.38453125 20.89046875 16.5034375 20.8984375 17.65625 C20.89585937 18.72359375 20.89328125 19.7909375 20.890625 20.890625 C20.88836914 21.87289062 20.88611328 22.85515625 20.88378906 23.8671875 C20.625 26.265625 20.625 26.265625 18.625 28.265625 C16.2265625 28.52441406 16.2265625 28.52441406 13.25 28.53125 C12.18265625 28.53382813 11.1153125 28.53640625 10.015625 28.5390625 C8.33726562 28.52746094 8.33726562 28.52746094 6.625 28.515625 C5.50609375 28.52335937 4.3871875 28.53109375 3.234375 28.5390625 C2.16703125 28.53648437 1.0996875 28.53390625 0 28.53125 C-0.98226562 28.52899414 -1.96453125 28.52673828 -2.9765625 28.52441406 C-5.375 28.265625 -5.375 28.265625 -7.375 26.265625 C-7.63378906 23.8671875 -7.63378906 23.8671875 -7.640625 20.890625 C-7.64320313 19.82328125 -7.64578125 18.7559375 -7.6484375 17.65625 C-7.63683594 15.97789062 -7.63683594 15.97789062 -7.625 14.265625 C-7.63273438 13.14671875 -7.64046875 12.0278125 -7.6484375 10.875 C-7.64585937 9.80765625 -7.64328125 8.7403125 -7.640625 7.640625 C-7.63836914 6.65835938 -7.63611328 5.67609375 -7.63378906 4.6640625 C-7.10415251 -0.24456913 -4.21168741 0.00967251 0 0 Z " fill="#92B726" transform="translate(222.375,114.734375)"/>
<path d="M0 0 C1.01771484 -0.00257813 2.03542969 -0.00515625 3.08398438 -0.0078125 C4.15068359 -0.00007812 5.21738281 0.00765625 6.31640625 0.015625 C7.9106543 0.00402344 7.9106543 0.00402344 9.53710938 -0.0078125 C11.06561523 -0.00394531 11.06561523 -0.00394531 12.625 0 C14.02770142 0.00338379 14.02770142 0.00338379 15.45874023 0.00683594 C17.87890625 0.265625 17.87890625 0.265625 20.87890625 2.265625 C21.2512207 4.6640625 21.2512207 4.6640625 21.2421875 7.640625 C21.24154297 8.70796875 21.24089844 9.7753125 21.24023438 10.875 C21.22412109 11.99390625 21.20800781 13.1128125 21.19140625 14.265625 C21.19624023 15.94398438 21.19624023 15.94398438 21.20117188 17.65625 C21.14575655 25.9987747 21.14575655 25.9987747 18.87890625 28.265625 C16.48046875 28.52441406 16.48046875 28.52441406 13.50390625 28.53125 C12.4365625 28.53382813 11.36921875 28.53640625 10.26953125 28.5390625 C8.59117187 28.52746094 8.59117187 28.52746094 6.87890625 28.515625 C5.76 28.52335937 4.64109375 28.53109375 3.48828125 28.5390625 C2.4209375 28.53648437 1.35359375 28.53390625 0.25390625 28.53125 C-0.72835938 28.52899414 -1.710625 28.52673828 -2.72265625 28.52441406 C-5.12109375 28.265625 -5.12109375 28.265625 -7.12109375 26.265625 C-7.37988281 23.8671875 -7.37988281 23.8671875 -7.38671875 20.890625 C-7.38929688 19.82328125 -7.391875 18.7559375 -7.39453125 17.65625 C-7.38292969 15.97789062 -7.38292969 15.97789062 -7.37109375 14.265625 C-7.37882812 13.14671875 -7.3865625 12.0278125 -7.39453125 10.875 C-7.39195312 9.80765625 -7.389375 8.7403125 -7.38671875 7.640625 C-7.38446289 6.65835938 -7.38220703 5.67609375 -7.37988281 4.6640625 C-6.86259914 -0.13008357 -4.1412043 0.01000205 0 0 Z " fill="#71B6E8" transform="translate(354.12109375,225.734375)"/>
<path d="M0 0 C1.17111328 -0.01224609 2.34222656 -0.02449219 3.54882812 -0.03710938 C4.66580078 -0.03904297 5.78277344 -0.04097656 6.93359375 -0.04296875 C7.96411865 -0.04707764 8.99464355 -0.05118652 10.05639648 -0.05541992 C12.5625 0.1875 12.5625 0.1875 14.5625 2.1875 C14.82128906 4.49414062 14.82128906 4.49414062 14.828125 7.34375 C14.83199219 8.87708984 14.83199219 8.87708984 14.8359375 10.44140625 C14.82820313 11.51261719 14.82046875 12.58382812 14.8125 13.6875 C14.82023437 14.75871094 14.82796875 15.82992187 14.8359375 16.93359375 C14.83335937 17.95582031 14.83078125 18.97804687 14.828125 20.03125 C14.82586914 20.97162109 14.82361328 21.91199219 14.82128906 22.88085938 C14.5625 25.1875 14.5625 25.1875 12.5625 27.1875 C10.05639648 27.43041992 10.05639648 27.43041992 6.93359375 27.41796875 C5.81662109 27.41603516 4.69964844 27.41410156 3.54882812 27.41210938 C1.7921582 27.39374023 1.7921582 27.39374023 0 27.375 C-1.17498047 27.37435547 -2.34996094 27.37371094 -3.56054688 27.37304688 C-12.29737859 27.32762141 -12.29737859 27.32762141 -13.4375 26.1875 C-13.53709621 24.34590977 -13.56830411 22.50053033 -13.5703125 20.65625 C-13.57160156 19.53605469 -13.57289063 18.41585937 -13.57421875 17.26171875 C-13.57035156 16.08222656 -13.56648438 14.90273437 -13.5625 13.6875 C-13.56636719 12.50800781 -13.57023437 11.32851562 -13.57421875 10.11328125 C-13.57292969 8.99308594 -13.57164062 7.87289062 -13.5703125 6.71875 C-13.56918457 5.68298828 -13.56805664 4.64722656 -13.56689453 3.58007812 C-13.24689462 -2.33690145 -4.51294922 0.00247556 0 0 Z " fill="#F7D699" transform="translate(360.4375,170.8125)"/>
<path d="M0 0 C0.94037109 0.00410889 1.88074219 0.00821777 2.84960938 0.01245117 C3.87183594 0.01438477 4.8940625 0.01631836 5.94726562 0.01831055 C7.01847656 0.03055664 8.0896875 0.04280273 9.19335938 0.05541992 C10.26457031 0.05606445 11.33578125 0.05670898 12.43945312 0.05737305 C20.4127571 0.10261878 20.4127571 0.10261878 22.69335938 1.24291992 C22.72222474 5.55540602 22.74011192 9.86786754 22.75585938 14.18041992 C22.76423828 15.41211914 22.77261719 16.64381836 22.78125 17.9128418 C22.78608398 19.66757812 22.78608398 19.66757812 22.79101562 21.45776367 C22.79887085 23.08379517 22.79887085 23.08379517 22.80688477 24.74267578 C22.69335938 27.24291992 22.69335938 27.24291992 21.69335938 28.24291992 C17.72060122 28.49548869 13.73569762 28.42814443 9.75585938 28.43041992 C8.63244141 28.44266602 7.50902344 28.45491211 6.3515625 28.4675293 C5.27970703 28.46946289 4.20785156 28.47139648 3.10351562 28.47338867 C1.62057007 28.479552 1.62057007 28.479552 0.10766602 28.48583984 C-2.30664062 28.24291992 -2.30664062 28.24291992 -4.30664062 26.24291992 C-4.56542969 23.84448242 -4.56542969 23.84448242 -4.57226562 20.86791992 C-4.57484375 19.80057617 -4.57742188 18.73323242 -4.58007812 17.63354492 C-4.56847656 15.95518555 -4.56847656 15.95518555 -4.55664062 14.24291992 C-4.564375 13.12401367 -4.57210938 12.00510742 -4.58007812 10.85229492 C-4.5775 9.78495117 -4.57492187 8.71760742 -4.57226562 7.61791992 C-4.57000977 6.6356543 -4.56775391 5.65338867 -4.56542969 4.64135742 C-4.20960548 1.34360554 -3.31905277 0.34954038 0 0 Z " fill="#FDB710" transform="translate(417.306640625,389.757080078125)"/>
<path d="M0 0 C1.06734375 -0.00257813 2.1346875 -0.00515625 3.234375 -0.0078125 C4.91273438 0.00378906 4.91273438 0.00378906 6.625 0.015625 C7.74390625 0.00789063 8.8628125 0.00015625 10.015625 -0.0078125 C11.08296875 -0.00523437 12.1503125 -0.00265625 13.25 0 C14.23226563 0.00225586 15.21453125 0.00451172 16.2265625 0.00683594 C18.625 0.265625 18.625 0.265625 20.625 2.265625 C20.86791992 4.57226562 20.86791992 4.57226562 20.85546875 7.421875 C20.85353516 8.44410156 20.85160156 9.46632813 20.84960938 10.51953125 C20.83124023 12.12634766 20.83124023 12.12634766 20.8125 13.765625 C20.81185547 14.83683594 20.81121094 15.90804688 20.81054688 17.01171875 C20.76530114 24.98502272 20.76530114 24.98502272 19.625 27.265625 C15.31251391 27.29449037 11.00005238 27.31237755 6.6875 27.328125 C5.45580078 27.33650391 4.22410156 27.34488281 2.95507812 27.35351562 C1.78525391 27.35673828 0.61542969 27.35996094 -0.58984375 27.36328125 C-2.21587524 27.37113647 -2.21587524 27.37113647 -3.87475586 27.37915039 C-6.375 27.265625 -6.375 27.265625 -7.375 26.265625 C-7.62756877 22.29286685 -7.56022451 18.30796325 -7.5625 14.328125 C-7.57474609 13.20470703 -7.58699219 12.08128906 -7.59960938 10.92382812 C-7.60154297 9.85197266 -7.60347656 8.78011719 -7.60546875 7.67578125 C-7.60957764 6.68715088 -7.61368652 5.69852051 -7.61791992 4.67993164 C-7.12234342 -0.24545129 -4.21664573 0.0096839 0 0 Z " fill="#F74C48" transform="translate(288.375,281.734375)"/>
<path d="M0 0 C1.06734375 -0.00257813 2.1346875 -0.00515625 3.234375 -0.0078125 C4.91273438 0.00378906 4.91273438 0.00378906 6.625 0.015625 C7.74390625 0.00789063 8.8628125 0.00015625 10.015625 -0.0078125 C11.08296875 -0.00523437 12.1503125 -0.00265625 13.25 0 C14.23226562 0.00225586 15.21453125 0.00451172 16.2265625 0.00683594 C18.625 0.265625 18.625 0.265625 20.625 2.265625 C20.86791992 4.57226562 20.86791992 4.57226562 20.85546875 7.421875 C20.85353516 8.44410156 20.85160156 9.46632813 20.84960938 10.51953125 C20.83124023 12.12634766 20.83124023 12.12634766 20.8125 13.765625 C20.81185547 14.83683594 20.81121094 15.90804688 20.81054688 17.01171875 C20.76530114 24.98502272 20.76530114 24.98502272 19.625 27.265625 C15.31251391 27.29449037 11.00005238 27.31237755 6.6875 27.328125 C5.45580078 27.33650391 4.22410156 27.34488281 2.95507812 27.35351562 C1.78525391 27.35673828 0.61542969 27.35996094 -0.58984375 27.36328125 C-2.21587524 27.37113647 -2.21587524 27.37113647 -3.87475586 27.37915039 C-6.375 27.265625 -6.375 27.265625 -7.375 26.265625 C-7.62756877 22.29286685 -7.56022451 18.30796325 -7.5625 14.328125 C-7.57474609 13.20470703 -7.58699219 12.08128906 -7.59960938 10.92382812 C-7.60154297 9.85197266 -7.60347656 8.78011719 -7.60546875 7.67578125 C-7.60957764 6.68715088 -7.61368652 5.69852051 -7.61791992 4.67993164 C-7.12234342 -0.24545129 -4.21664573 0.0096839 0 0 Z " fill="#898A8A" transform="translate(222.375,281.734375)"/>
<path d="M0 0 C0.94037109 0.00410889 1.88074219 0.00821777 2.84960938 0.01245117 C3.87183594 0.01438477 4.8940625 0.01631836 5.94726562 0.01831055 C7.01847656 0.03055664 8.0896875 0.04280273 9.19335938 0.05541992 C10.26457031 0.05606445 11.33578125 0.05670898 12.43945312 0.05737305 C20.4127571 0.10261878 20.4127571 0.10261878 22.69335938 1.24291992 C22.72222474 5.55540602 22.74011192 9.86786754 22.75585938 14.18041992 C22.76423828 15.41211914 22.77261719 16.64381836 22.78125 17.9128418 C22.78608398 19.66757813 22.78608398 19.66757813 22.79101562 21.45776367 C22.79887085 23.08379517 22.79887085 23.08379517 22.80688477 24.74267578 C22.69335938 27.24291992 22.69335938 27.24291992 21.69335938 28.24291992 C17.72060122 28.49548869 13.73569762 28.42814443 9.75585938 28.43041992 C8.63244141 28.44266602 7.50902344 28.45491211 6.3515625 28.4675293 C5.27970703 28.46946289 4.20785156 28.47139648 3.10351562 28.47338867 C1.62057007 28.479552 1.62057007 28.479552 0.10766602 28.48583984 C-2.30664062 28.24291992 -2.30664062 28.24291992 -4.30664062 26.24291992 C-4.56542969 23.84448242 -4.56542969 23.84448242 -4.57226562 20.86791992 C-4.57484375 19.80057617 -4.57742188 18.73323242 -4.58007812 17.63354492 C-4.56847656 15.95518555 -4.56847656 15.95518555 -4.55664062 14.24291992 C-4.564375 13.12401367 -4.57210938 12.00510742 -4.58007812 10.85229492 C-4.5775 9.78495117 -4.57492187 8.71760742 -4.57226562 7.61791992 C-4.57000977 6.6356543 -4.56775391 5.65338867 -4.56542969 4.64135742 C-4.20960548 1.34360554 -3.31905277 0.34954038 0 0 Z " fill="#EDEEEF" transform="translate(417.306640625,225.757080078125)"/>
<path d="M0 0 C1.48294556 0.00616333 1.48294556 0.00616333 2.99584961 0.01245117 C4.06770508 0.01438477 5.13956055 0.01631836 6.24389648 0.01831055 C7.36731445 0.03055664 8.49073242 0.04280273 9.64819336 0.05541992 C11.33912109 0.05638672 11.33912109 0.05638672 13.06420898 0.05737305 C21.44556019 0.10278675 21.44556019 0.10278675 22.58569336 1.24291992 C22.67317543 3.169595 22.6926667 5.09943853 22.68334961 7.02807617 C22.68012695 8.19790039 22.6769043 9.36772461 22.67358398 10.57299805 C22.66520508 11.80469727 22.65682617 13.03639648 22.64819336 14.30541992 C22.64368164 15.54098633 22.63916992 16.77655273 22.63452148 18.04956055 C22.62268944 21.11406109 22.60620509 24.17846714 22.58569336 27.24291992 C18.58269464 29.24441928 13.48652605 28.42777201 9.08569336 28.43041992 C7.47887695 28.44878906 7.47887695 28.44878906 5.83959961 28.4675293 C4.81737305 28.46946289 3.79514648 28.47139648 2.74194336 28.47338867 C1.33138672 28.479552 1.33138672 28.479552 -0.10766602 28.48583984 C-2.41430664 28.24291992 -2.41430664 28.24291992 -4.41430664 26.24291992 C-4.6730957 23.84448242 -4.6730957 23.84448242 -4.67993164 20.86791992 C-4.68250977 19.80057617 -4.68508789 18.73323242 -4.68774414 17.63354492 C-4.67614258 15.95518555 -4.67614258 15.95518555 -4.66430664 14.24291992 C-4.67204102 13.12401367 -4.67977539 12.00510742 -4.68774414 10.85229492 C-4.68516602 9.78495117 -4.68258789 8.71760742 -4.67993164 7.61791992 C-4.67767578 6.6356543 -4.67541992 5.65338867 -4.6730957 4.64135742 C-4.30892463 1.26624741 -3.37737901 0.33982123 0 0 Z " fill="#EDEEEF" transform="translate(417.414306640625,114.757080078125)"/>
<path d="M0 0 C1.06734375 -0.00257813 2.1346875 -0.00515625 3.234375 -0.0078125 C4.91273438 0.00378906 4.91273438 0.00378906 6.625 0.015625 C7.74390625 0.00789063 8.8628125 0.00015625 10.015625 -0.0078125 C11.08296875 -0.00523437 12.1503125 -0.00265625 13.25 0 C14.23226563 0.00225586 15.21453125 0.00451172 16.2265625 0.00683594 C18.625 0.265625 18.625 0.265625 20.625 2.265625 C20.88378906 4.57226562 20.88378906 4.57226562 20.890625 7.421875 C20.89449219 8.95521484 20.89449219 8.95521484 20.8984375 10.51953125 C20.89070313 11.59074219 20.88296875 12.66195313 20.875 13.765625 C20.88273437 14.83683594 20.89046875 15.90804688 20.8984375 17.01171875 C20.89585937 18.03394531 20.89328125 19.05617188 20.890625 20.109375 C20.88836914 21.04974609 20.88611328 21.99011719 20.88378906 22.95898438 C20.625 25.265625 20.625 25.265625 18.625 27.265625 C16.11889648 27.50854492 16.11889648 27.50854492 12.99609375 27.49609375 C11.87912109 27.49416016 10.76214844 27.49222656 9.61132812 27.49023438 C7.8546582 27.47186523 7.8546582 27.47186523 6.0625 27.453125 C4.88751953 27.45248047 3.71253906 27.45183594 2.50195312 27.45117188 C-6.23487859 27.40574641 -6.23487859 27.40574641 -7.375 26.265625 C-7.62756877 22.29286685 -7.56022451 18.30796325 -7.5625 14.328125 C-7.57474609 13.20470703 -7.58699219 12.08128906 -7.59960938 10.92382812 C-7.60154297 9.85197266 -7.60347656 8.78011719 -7.60546875 7.67578125 C-7.60957764 6.68715088 -7.61368652 5.69852051 -7.61791992 4.67993164 C-7.12234342 -0.24545129 -4.21664573 0.0096839 0 0 Z " fill="#70B5E8" transform="translate(354.375,281.734375)"/>
<path d="M0 0 C1.11890625 -0.01224609 2.2378125 -0.02449219 3.390625 -0.03710938 C4.99164063 -0.04000977 4.99164063 -0.04000977 6.625 -0.04296875 C7.60726563 -0.04707764 8.58953125 -0.05118652 9.6015625 -0.05541992 C12 0.1875 12 0.1875 14 2.1875 C14.25878906 4.49414062 14.25878906 4.49414062 14.265625 7.34375 C14.26949219 8.87708984 14.26949219 8.87708984 14.2734375 10.44140625 C14.26570313 11.51261719 14.25796875 12.58382812 14.25 13.6875 C14.25773437 14.75871094 14.26546875 15.82992187 14.2734375 16.93359375 C14.27085937 17.95582031 14.26828125 18.97804687 14.265625 20.03125 C14.26336914 20.97162109 14.26111328 21.91199219 14.25878906 22.88085938 C14 25.1875 14 25.1875 12 27.1875 C9.47802734 27.41455078 9.47802734 27.41455078 6.3359375 27.3828125 C5.21445312 27.37636719 4.09296875 27.36992187 2.9375 27.36328125 C1.761875 27.34652344 0.58625 27.32976562 -0.625 27.3125 C-2.40003906 27.29896484 -2.40003906 27.29896484 -4.2109375 27.28515625 C-7.14082523 27.26152812 -10.0703134 27.22858514 -13 27.1875 C-14.30475618 24.57798764 -14.11301572 22.66048715 -14.09765625 19.7421875 C-14.09443359 18.66582031 -14.09121094 17.58945313 -14.08789062 16.48046875 C-14.07951172 15.35253906 -14.07113281 14.22460938 -14.0625 13.0625 C-14.05798828 11.92683594 -14.05347656 10.79117188 -14.04882812 9.62109375 C-14.03701615 6.80984362 -14.02054507 3.9986977 -14 1.1875 C-9.88137709 -0.87181145 -4.52640955 0.00260738 0 0 Z " fill="#70B5E8" transform="translate(295,170.8125)"/>
<path d="M0 0 C1.06734375 -0.00257813 2.1346875 -0.00515625 3.234375 -0.0078125 C4.91273438 0.00378906 4.91273438 0.00378906 6.625 0.015625 C7.74390625 0.00789062 8.8628125 0.00015625 10.015625 -0.0078125 C11.08296875 -0.00523437 12.1503125 -0.00265625 13.25 0 C14.23226562 0.00225586 15.21453125 0.00451172 16.2265625 0.00683594 C18.625 0.265625 18.625 0.265625 20.625 2.265625 C20.88378906 4.57226562 20.88378906 4.57226562 20.890625 7.421875 C20.89449219 8.95521484 20.89449219 8.95521484 20.8984375 10.51953125 C20.89070313 11.59074219 20.88296875 12.66195312 20.875 13.765625 C20.88273437 14.83683594 20.89046875 15.90804687 20.8984375 17.01171875 C20.89585937 18.03394531 20.89328125 19.05617187 20.890625 20.109375 C20.88836914 21.04974609 20.88611328 21.99011719 20.88378906 22.95898438 C20.625 25.265625 20.625 25.265625 18.625 27.265625 C16.2265625 27.52441406 16.2265625 27.52441406 13.25 27.53125 C12.18265625 27.53382813 11.1153125 27.53640625 10.015625 27.5390625 C8.33726562 27.52746094 8.33726562 27.52746094 6.625 27.515625 C5.50609375 27.52335937 4.3871875 27.53109375 3.234375 27.5390625 C2.16703125 27.53648437 1.0996875 27.53390625 0 27.53125 C-0.98226562 27.52899414 -1.96453125 27.52673828 -2.9765625 27.52441406 C-5.375 27.265625 -5.375 27.265625 -7.375 25.265625 C-7.63378906 22.95898438 -7.63378906 22.95898438 -7.640625 20.109375 C-7.64320313 19.08714844 -7.64578125 18.06492188 -7.6484375 17.01171875 C-7.63683594 15.40490234 -7.63683594 15.40490234 -7.625 13.765625 C-7.63273438 12.69441406 -7.64046875 11.62320313 -7.6484375 10.51953125 C-7.64585937 9.49730469 -7.64328125 8.47507813 -7.640625 7.421875 C-7.63836914 6.48150391 -7.63611328 5.54113281 -7.63378906 4.57226562 C-7.09048247 -0.27033882 -4.13309148 0.00949201 0 0 Z " fill="#DCA370" transform="translate(222.375,170.734375)"/>
<path d="M0 0 C1.12019531 -0.00128906 2.24039062 -0.00257813 3.39453125 -0.00390625 C4.57402344 -0.00003906 5.75351562 0.00382812 6.96875 0.0078125 C8.73798828 0.00201172 8.73798828 0.00201172 10.54296875 -0.00390625 C12.22326172 -0.00197266 12.22326172 -0.00197266 13.9375 0 C14.97326172 0.00112793 16.00902344 0.00225586 17.07617188 0.00341797 C19.46875 0.1328125 19.46875 0.1328125 20.46875 1.1328125 C20.56834621 2.97440273 20.59955411 4.81978217 20.6015625 6.6640625 C20.60349609 8.34435547 20.60349609 8.34435547 20.60546875 10.05859375 C20.60160156 11.23808594 20.59773438 12.41757812 20.59375 13.6328125 C20.59955078 15.40205078 20.59955078 15.40205078 20.60546875 17.20703125 C20.60417969 18.32722656 20.60289062 19.44742187 20.6015625 20.6015625 C20.60043457 21.63732422 20.59930664 22.67308594 20.59814453 23.74023438 C20.46875 26.1328125 20.46875 26.1328125 19.46875 27.1328125 C17.62715977 27.23240871 15.78178033 27.26361661 13.9375 27.265625 C12.81730469 27.26691406 11.69710938 27.26820313 10.54296875 27.26953125 C9.36347656 27.26566406 8.18398438 27.26179688 6.96875 27.2578125 C5.19951172 27.26361328 5.19951172 27.26361328 3.39453125 27.26953125 C1.71423828 27.26759766 1.71423828 27.26759766 0 27.265625 C-1.03576172 27.26449707 -2.07152344 27.26336914 -3.13867188 27.26220703 C-5.53125 27.1328125 -5.53125 27.1328125 -6.53125 26.1328125 C-6.63084621 24.29122227 -6.66205411 22.44584283 -6.6640625 20.6015625 C-6.66535156 19.48136719 -6.66664063 18.36117188 -6.66796875 17.20703125 C-6.66410156 16.02753906 -6.66023438 14.84804688 -6.65625 13.6328125 C-6.66011719 12.45332031 -6.66398437 11.27382813 -6.66796875 10.05859375 C-6.66667969 8.93839844 -6.66539062 7.81820313 -6.6640625 6.6640625 C-6.66293457 5.62830078 -6.66180664 4.59253906 -6.66064453 3.52539062 C-6.41664411 -0.98631532 -3.94948587 0.00430093 0 0 Z " fill="#FEB70D" transform="translate(419.53125,281.8671875)"/>
<path d="M0 0 C1.12019531 -0.00128906 2.24039062 -0.00257813 3.39453125 -0.00390625 C4.57402344 -0.00003906 5.75351562 0.00382813 6.96875 0.0078125 C8.73798828 0.00201172 8.73798828 0.00201172 10.54296875 -0.00390625 C12.22326172 -0.00197266 12.22326172 -0.00197266 13.9375 0 C14.97326172 0.00112793 16.00902344 0.00225586 17.07617188 0.00341797 C19.46875 0.1328125 19.46875 0.1328125 20.46875 1.1328125 C20.56834621 2.97440273 20.59955411 4.81978217 20.6015625 6.6640625 C20.60349609 8.34435547 20.60349609 8.34435547 20.60546875 10.05859375 C20.60160156 11.23808594 20.59773438 12.41757813 20.59375 13.6328125 C20.59955078 15.40205078 20.59955078 15.40205078 20.60546875 17.20703125 C20.60417969 18.32722656 20.60289062 19.44742188 20.6015625 20.6015625 C20.60043457 21.63732422 20.59930664 22.67308594 20.59814453 23.74023438 C20.46875 26.1328125 20.46875 26.1328125 19.46875 27.1328125 C17.62715977 27.23240871 15.78178033 27.26361661 13.9375 27.265625 C12.81730469 27.26691406 11.69710938 27.26820313 10.54296875 27.26953125 C9.36347656 27.26566406 8.18398438 27.26179688 6.96875 27.2578125 C5.19951172 27.26361328 5.19951172 27.26361328 3.39453125 27.26953125 C1.71423828 27.26759766 1.71423828 27.26759766 0 27.265625 C-1.03576172 27.26449707 -2.07152344 27.26336914 -3.13867188 27.26220703 C-5.53125 27.1328125 -5.53125 27.1328125 -6.53125 26.1328125 C-6.63084621 24.29122227 -6.66205411 22.44584283 -6.6640625 20.6015625 C-6.66535156 19.48136719 -6.66664063 18.36117187 -6.66796875 17.20703125 C-6.66410156 16.02753906 -6.66023438 14.84804687 -6.65625 13.6328125 C-6.66011719 12.45332031 -6.66398437 11.27382812 -6.66796875 10.05859375 C-6.66667969 8.93839844 -6.66539062 7.81820312 -6.6640625 6.6640625 C-6.66293457 5.62830078 -6.66180664 4.59253906 -6.66064453 3.52539062 C-6.41664411 -0.98631532 -3.94948587 0.00430093 0 0 Z " fill="#70B5E8" transform="translate(419.53125,170.8671875)"/>
<path d="M0 0 C3.98561154 2.62688033 6.23980531 5.28191592 7.75 9.8125 C8.22605145 14.76343505 7.72243438 18.10031386 5.078125 22.234375 C1.81591258 26.11065093 -1.80981733 27.60675962 -6.75 28.3125 C-11.9192187 27.57404019 -15.54491403 25.68809456 -19.125 21.75 C-21.52530824 17.6161358 -21.76249339 13.4798505 -21.25 8.8125 C-19.57313464 5.1233962 -17.29315601 2.47526151 -14.25 -0.1875 C-9.22141801 -1.863694 -4.90969589 -1.79392735 0 0 Z " fill="#555656" transform="translate(51.25,32.1875)"/>
<path d="M0 0 C6.16411455 0.36984687 8.80005946 1.70238643 13 6 C15.28833963 9.95258663 15.39569707 13.48905339 15 18 C13.5 21.4375 13.5 21.4375 12 24 C11.67 23.01 11.34 22.02 11 21 C10.278125 20.9175 9.55625 20.835 8.8125 20.75 C4.82483166 19.68662178 2.06731443 17.71138348 -0.1328125 14.18359375 C-1.15636703 11.606265 -1.23290381 9.640505 -1.1875 6.875 C-1.17783203 5.57175781 -1.17783203 5.57175781 -1.16796875 4.2421875 C-1 2 -1 2 0 0 Z " fill="#686868" transform="translate(44,31)"/>
<path d="M0 0 C2.375 1.5625 2.375 1.5625 4 4 C4.56783945 7.97487617 4.62340519 10.06489221 2.375 13.4375 C-0.75683492 15.49791771 -2.31544773 15.6767545 -6 15 C-8.9375 12.9375 -8.9375 12.9375 -11 10 C-11.06641554 6.14789873 -10.87229157 4.00151995 -8.3125 1.0625 C-5.26397123 -0.33817538 -3.32073048 -0.4842732 0 0 Z " fill="#656565" transform="translate(331,16)"/>
<path d="M0 0 C0.33 0 0.66 0 1 0 C1 7.59 1 15.18 1 23 C-6.59 23 -14.18 23 -22 23 C-19.57766917 21.38511278 -17.27088226 20.11980743 -14.6875 18.8125 C-6.75495884 14.39551686 -3.20436984 8.31251234 0 0 Z " fill="#FFFFFF" transform="translate(511,489)"/>
<path d="M0 0 C1.61488722 2.42233083 2.88019257 4.72911774 4.1875 7.3125 C8.60448314 15.24504116 14.68748766 18.79563016 23 22 C23 22.33 23 22.66 23 23 C15.41 23 7.82 23 0 23 C0 15.41 0 7.82 0 0 Z " fill="#FFFFFF" transform="translate(0,489)"/>
<path d="M0 0 C7.59 0 15.18 0 23 0 C23 7.59 23 15.18 23 23 C21.38511278 20.57766917 20.11980743 18.27088226 18.8125 15.6875 C14.39551686 7.75495884 8.31251234 4.20436984 0 1 C0 0.67 0 0.34 0 0 Z " fill="#FFFFFF" transform="translate(489,0)"/>
<path d="M0 0 C7.59 0 15.18 0 23 0 C20.57766917 1.61488722 18.27088226 2.88019257 15.6875 4.1875 C7.75495884 8.60448314 4.20436984 14.68748766 1 23 C0.67 23 0.34 23 0 23 C0 15.41 0 7.82 0 0 Z " fill="#FFFFFF" transform="translate(0,0)"/>
<path d="M0 0 C2 2 2 2 2.3125 5.4375 C2 9 2 9 0.9375 10.9375 C-2.19176217 12.653547 -4.51763658 12.49748049 -8 12 C-10 9.8125 -10 9.8125 -11 7 C-10.8652247 4.16971865 -10.32459612 2.54099354 -8.875 0.125 C-5.81663109 -1.71002135 -3.34391796 -0.79038061 0 0 Z " fill="#535454" transform="translate(332,473)"/>
</svg>
