<?xml version="1.0" encoding="UTF-8"?>
<svg version="1.1" xmlns="http://www.w3.org/2000/svg" width="512" height="512">
<path d="M0 0 C3.24745312 0.00008075 6.49476362 -0.00679347 9.7421875 -0.02050781 C34.71790081 -0.12433379 59.39752061 0.81039314 84.27832031 3.12280273 C84.97294373 3.18441086 85.66756714 3.24601898 86.38323975 3.30949402 C93.75758574 4.13171649 97.8319401 7.79508204 102.48535156 13.25170898 C115.1213272 30.35011926 121.26777875 52.16229804 127.65332031 72.18530273 C127.98332031 72.18530273 128.31332031 72.18530273 128.65332031 72.18530273 C128.98332031 65.58530273 129.31332031 58.98530273 129.65332031 52.18530273 C133.57017051 52.13140113 137.48628033 52.09167491 141.40332031 52.06030273 C142.51449219 52.04354492 143.62566406 52.02678711 144.77050781 52.00952148 C146.37539063 51.99985352 146.37539063 51.99985352 148.01269531 51.98999023 C148.9972168 51.9795166 149.98173828 51.96904297 150.99609375 51.95825195 C153.74720613 52.19332495 155.34159958 52.70677014 157.65332031 54.18530273 C159.54904791 57.01689585 159.92641207 59.3139064 159.90332031 62.68530273 C159.90847656 63.43811523 159.91363281 64.19092773 159.91894531 64.96655273 C159.62107371 67.45465674 158.97436835 69.06418335 157.65332031 71.18530273 C154.46507464 72.77942557 151.02435369 72.28705009 147.52832031 72.24780273 C146.77421875 72.24329102 146.02011719 72.2387793 145.24316406 72.23413086 C143.37984905 72.22233773 141.51657476 72.20440215 139.65332031 72.18530273 C139.36457031 72.90717773 139.07582031 73.62905273 138.77832031 74.37280273 C137.65332031 77.18530273 137.65332031 77.18530273 136.29394531 79.56030273 C135.47537428 82.91444747 136.4827294 84.47654619 138.22363281 87.35717773 C138.61292969 87.96045898 139.00222656 88.56374023 139.40332031 89.18530273 C143.57009573 95.90961617 145.93455203 100.81510624 146.03222656 108.82202148 C146.04922104 109.54267288 146.06621552 110.26332428 146.08372498 111.0058136 C146.13660047 113.29472234 146.17705317 115.58361505 146.21582031 117.87280273 C146.25978411 120.1726137 146.30646243 122.47228695 146.35862732 124.77192688 C146.39052896 126.19970791 146.41743637 127.62761105 146.43885803 129.05558777 C146.4700361 132.744523 146.4700361 132.744523 147.65332031 136.18530273 C147.74007569 138.88423455 147.76889929 141.55699504 147.75097656 144.25561523 C147.74885414 145.44995682 147.74885414 145.44995682 147.74668884 146.66842651 C147.74108376 149.21575653 147.72853045 151.7629992 147.71582031 154.31030273 C147.71080596 156.03556188 147.70624294 157.76082241 147.70214844 159.48608398 C147.69111269 163.71919065 147.67384468 167.95223187 147.65332031 172.18530273 C148.97332031 172.18530273 150.29332031 172.18530273 151.65332031 172.18530273 C151.65332031 175.81530273 151.65332031 179.44530273 151.65332031 183.18530273 C150.33332031 183.18530273 149.01332031 183.18530273 147.65332031 183.18530273 C147.67426758 184.24966553 147.69521484 185.31402832 147.71679688 186.41064453 C147.78935994 190.37079339 147.83517882 194.33088383 147.87304688 198.29150391 C147.89312536 200.00351859 147.92039423 201.71546501 147.95507812 203.42724609 C148.00376432 205.89234281 148.02632604 208.35653063 148.04394531 210.82202148 C148.07491302 211.96449593 148.07491302 211.96449593 148.10650635 213.13005066 C148.1079678 216.61465742 147.72639348 219.03891682 146.1640625 222.16870117 C142.63515281 225.0030841 139.42831817 224.88627254 135.09082031 224.81420898 C133.84836548 224.81782692 133.84836548 224.81782692 132.58081055 224.82151794 C130.83247075 224.82054001 129.08409979 224.80715895 127.3359375 224.78222656 C124.66201443 224.7479143 121.99139639 224.76156833 119.31738281 224.78100586 C117.61684793 224.7741072 115.91632157 224.76443463 114.21582031 224.75170898 C113.41781006 224.75666885 112.6197998 224.76162872 111.79760742 224.76673889 C106.38530489 224.65208691 105.75238216 224.28436459 101.65332031 220.18530273 C101.65332031 209.62530273 101.65332031 199.06530273 101.65332031 188.18530273 C38.29332031 188.18530273 -25.06667969 188.18530273 -90.34667969 188.18530273 C-90.34667969 198.74530273 -90.34667969 209.30530273 -90.34667969 220.18530273 C-94.44574154 224.28436459 -95.07866427 224.65208691 -100.4909668 224.76673889 C-101.68798218 224.75929909 -101.68798218 224.75929909 -102.90917969 224.75170898 C-103.73748291 224.75790756 -104.56578613 224.76410614 -105.41918945 224.77049255 C-107.16746853 224.7775849 -108.91581523 224.77442684 -110.6640625 224.76171875 C-113.33817793 224.74784684 -116.00879701 224.78193419 -118.68261719 224.82006836 C-120.38313888 224.82101955 -122.08366494 224.81916076 -123.78417969 224.81420898 C-124.58218994 224.82746719 -125.3802002 224.8407254 -126.20239258 224.85438538 C-129.89077707 224.79254958 -131.94873771 224.50492552 -134.85742188 222.16870117 C-136.77230892 218.33264876 -136.85081377 215.00964841 -136.73730469 210.82202148 C-136.728815 209.63404716 -136.728815 209.63404716 -136.72015381 208.42207336 C-136.69785277 205.9050218 -136.64767108 203.3894203 -136.59667969 200.87280273 C-136.57660644 199.16123483 -136.55835711 197.44964449 -136.54199219 195.73803711 C-136.49800894 191.55323789 -136.42902738 187.36951573 -136.34667969 183.18530273 C-137.66667969 183.18530273 -138.98667969 183.18530273 -140.34667969 183.18530273 C-140.34667969 179.55530273 -140.34667969 175.92530273 -140.34667969 172.18530273 C-139.02667969 172.18530273 -137.70667969 172.18530273 -136.34667969 172.18530273 C-136.3519165 171.10522949 -136.35715332 170.02515625 -136.36254883 168.91235352 C-136.38062077 164.91301296 -136.39211975 160.91367602 -136.40161133 156.91430664 C-136.40664651 155.1818786 -136.41347501 153.44945481 -136.42211914 151.71704102 C-136.43422034 149.2298884 -136.43991607 146.74279187 -136.44433594 144.25561523 C-136.44949722 143.47848175 -136.45465851 142.70134827 -136.4599762 141.90066528 C-136.46055139 136.41304615 -136.46055139 136.41304615 -135.34667969 134.18530273 C-135.28708648 131.90219612 -135.28588459 129.61748055 -135.31152344 127.33374023 C-135.35998471 98.06935224 -135.35998471 98.06935224 -126.34667969 85.18530273 C-124.91835875 82.86588008 -124.31261503 81.79733115 -124.46386719 79.07983398 C-125.44283416 76.39019792 -126.13116387 75.05235878 -128.34667969 73.18530273 C-131.84742233 72.59145948 -135.05723783 72.35754618 -138.59423828 72.39746094 C-143.98531232 72.44446519 -143.98531232 72.44446519 -146.28027344 70.79858398 C-148.95689027 66.74934314 -148.81336401 62.92583298 -148.34667969 58.18530273 C-147.03417969 55.18530273 -147.03417969 55.18530273 -145.34667969 53.18530273 C-142.22824719 52.14582523 -140.07192382 52.07035435 -136.80371094 52.08764648 C-135.73056641 52.09086914 -134.65742188 52.0940918 -133.55175781 52.09741211 C-132.43220703 52.10579102 -131.31265625 52.11416992 -130.15917969 52.12280273 C-128.46245117 52.12957031 -128.46245117 52.12957031 -126.73144531 52.13647461 C-123.93650093 52.14826762 -121.14158369 52.16620316 -118.34667969 52.18530273 C-118.01667969 58.78530273 -117.68667969 65.38530273 -117.34667969 72.18530273 C-115.43713393 69.3209841 -114.53101446 67.07967149 -113.46386719 63.83764648 C-113.10534668 62.76595215 -112.74682617 61.69425781 -112.37744141 60.59008789 C-111.99604004 59.44588379 -111.61463867 58.30167969 -111.22167969 57.12280273 C-96.24201987 13.10527545 -96.24201987 13.10527545 -83.34667969 5.18530273 C-76.54918218 3.20273214 -69.43829397 2.68454571 -62.40917969 2.12280273 C-61.51650391 2.04481445 -60.62382812 1.96682617 -59.70410156 1.88647461 C-56.58647901 1.62541417 -53.46773378 1.40155388 -50.34667969 1.18530273 C-49.12094238 1.09482666 -47.89520508 1.00435059 -46.63232422 0.91113281 C-31.11090286 -0.12749924 -15.54828208 -0.00202824 0 0 Z " fill="#DC2A1A" transform="translate(250.3466796875,143.814697265625)"/>
<path d="M0 0 C0.33 0 0.66 0 1 0 C1.02505615 0.98919434 1.0501123 1.97838867 1.07592773 2.99755859 C1.16997787 6.66159404 1.27020429 10.32543885 1.37231445 13.98925781 C1.41567241 15.57612657 1.45734687 17.16304224 1.49731445 18.75 C1.55499632 21.02878979 1.61869638 23.30734322 1.68359375 25.5859375 C1.70866249 26.65320572 1.70866249 26.65320572 1.73423767 27.74203491 C1.79721937 31.49660817 1.79721937 31.49660817 3 35 C3.08675538 37.69893181 3.11557897 40.37169231 3.09765625 43.0703125 C3.09553383 44.26465408 3.09553383 44.26465408 3.09336853 45.48312378 C3.08776345 48.0304538 3.07521014 50.57769647 3.0625 53.125 C3.05748565 54.85025915 3.05292263 56.57551967 3.04882812 58.30078125 C3.03779237 62.53388791 3.02052436 66.76692914 3 71 C4.32 71 5.64 71 7 71 C7 74.63 7 78.26 7 82 C5.68 82 4.36 82 3 82 C3.02094727 83.06436279 3.04189453 84.12872559 3.06347656 85.2253418 C3.13603962 89.18549066 3.18185851 93.1455811 3.21972656 97.10620117 C3.23980505 98.81821586 3.26707392 100.53016228 3.30175781 102.24194336 C3.35044401 104.70704008 3.37300573 107.1712279 3.390625 109.63671875 C3.41127014 110.39836838 3.43191528 111.16001801 3.45318604 111.94474792 C3.45464748 115.42935468 3.07307317 117.85361408 1.51074219 120.98339844 C-2.01816751 123.81778137 -5.22500214 123.7009698 -9.5625 123.62890625 C-10.80495483 123.63252419 -10.80495483 123.63252419 -12.07250977 123.63621521 C-13.82084956 123.63523728 -15.56922052 123.62185621 -17.31738281 123.59692383 C-19.99130588 123.56261156 -22.66192392 123.5762656 -25.3359375 123.59570312 C-27.03647238 123.58880446 -28.73699874 123.57913189 -30.4375 123.56640625 C-31.23551025 123.57136612 -32.03352051 123.57632599 -32.85571289 123.58143616 C-38.26801542 123.46678418 -38.90093815 123.09906185 -43 119 C-43 108.44 -43 97.88 -43 87 C-106.36 87 -169.72 87 -235 87 C-235 97.56 -235 108.12 -235 119 C-239.09906185 123.09906185 -239.73198458 123.46678418 -245.14428711 123.58143616 C-245.94229736 123.57647629 -246.74030762 123.57151642 -247.5625 123.56640625 C-248.39080322 123.57260483 -249.21910645 123.57880341 -250.07250977 123.58518982 C-251.82078884 123.59228217 -253.56913554 123.58912411 -255.31738281 123.57641602 C-257.99149824 123.5625441 -260.66211732 123.59663146 -263.3359375 123.63476562 C-265.03645919 123.63571681 -266.73698525 123.63385802 -268.4375 123.62890625 C-269.23551025 123.64216446 -270.03352051 123.65542267 -270.85571289 123.66908264 C-274.54409739 123.60724685 -276.60205803 123.31962278 -279.51074219 120.98339844 C-281.42562923 117.14734602 -281.50413408 113.82434567 -281.390625 109.63671875 C-281.38213531 108.44874443 -281.38213531 108.44874443 -281.37347412 107.23677063 C-281.35117308 104.71971906 -281.30099139 102.20411757 -281.25 99.6875 C-281.22992675 97.97593209 -281.21167742 96.26434176 -281.1953125 94.55273438 C-281.15132925 90.36793515 -281.08234769 86.184213 -281 82 C-282.32 82 -283.64 82 -285 82 C-285 78.37 -285 74.74 -285 71 C-283.68 71 -282.36 71 -281 71 C-281.00523682 69.91992676 -281.01047363 68.83985352 -281.01586914 67.72705078 C-281.03394108 63.72771022 -281.04544007 59.72837328 -281.05493164 55.72900391 C-281.05996682 53.99657586 -281.06679532 52.26415208 -281.07543945 50.53173828 C-281.08754065 48.04458567 -281.09323638 45.55748913 -281.09765625 43.0703125 C-281.10281754 42.29317902 -281.10797882 41.51604553 -281.11329651 40.71536255 C-281.11387171 35.22774341 -281.11387171 35.22774341 -280 33 C-279.84479443 30.67726841 -279.74980833 28.35040687 -279.68359375 26.0234375 C-279.66281265 25.33819 -279.64203156 24.6529425 -279.62062073 23.94692993 C-279.55519815 21.75638931 -279.49627446 19.56572811 -279.4375 17.375 C-279.39430782 15.8906125 -279.3506933 14.40623722 -279.30664062 12.921875 C-279.19952447 9.28137916 -279.09823638 5.64074749 -279 2 C-277.41676312 1.972807 -275.83338938 1.95351694 -274.25 1.9375 C-272.92742187 1.92009766 -272.92742187 1.92009766 -271.578125 1.90234375 C-269 2 -269 2 -265 3 C-264.505 11.415 -264.505 11.415 -264 20 C-250.80921906 23.29236778 -237.70614393 26.44510832 -224.25390625 28.45703125 C-221 29 -221 29 -219 30 C-219 22.74 -219 15.48 -219 8 C-217.29803467 8.0707373 -215.59606934 8.14147461 -213.8425293 8.21435547 C-191.86233385 9.05933998 -169.89942183 9.15534739 -147.9050293 9.13037109 C-142.844653 9.12469371 -137.7843296 9.12804414 -132.72395515 9.13382339 C-108.13135356 9.15744031 -83.57838278 8.84576994 -59 8 C-59 14.93 -59 21.86 -59 29 C-45.39080145 26.90717651 -32.0397645 24.48658521 -18.7265625 20.953125 C-15 20 -15 20 -13 20 C-13 14.39 -13 8.78 -13 3 C-9.52669872 2.30533974 -7.08697137 1.87988184 -3.6875 1.9375 C-2.470625 1.958125 -1.25375 1.97875 0 2 C0 1.34 0 0.68 0 0 Z " fill="#B51F10" transform="translate(395,245)"/>
<path d="M0 0 C3.40866337 0.00461846 6.81696868 -0.00226942 10.22558594 -0.02050781 C37.45964406 -0.16478769 64.53049988 0.83211961 91.5690918 4.31567383 C94.50004249 12.29959648 97.42844791 20.28444383 100.35322571 28.27062988 C101.92476125 32.56068288 103.50142719 36.84881451 105.08081055 41.13598633 C105.80619566 43.11250307 106.53146436 45.08906254 107.2565918 47.06567383 C107.76416016 48.43780029 107.76416016 48.43780029 108.28198242 49.83764648 C108.73927734 51.08747314 108.73927734 51.08747314 109.20581055 52.36254883 C109.60352661 53.44294434 109.60352661 53.44294434 110.00927734 54.54516602 C110.5690918 56.31567383 110.5690918 56.31567383 110.5690918 58.31567383 C39.9490918 58.31567383 -30.6709082 58.31567383 -103.4309082 58.31567383 C-100.05548888 47.06427609 -100.05548888 47.06427609 -98.72924805 43.35668945 C-98.43239105 42.52302856 -98.13553406 41.68936768 -97.8296814 40.83044434 C-97.52019562 39.96963257 -97.21070984 39.1088208 -96.8918457 38.22192383 C-96.56552155 37.30858276 -96.23919739 36.3952417 -95.90298462 35.45422363 C-95.22013907 33.54465297 -94.53607483 31.63551768 -93.85083008 29.72680664 C-92.79904125 26.79654262 -91.75140353 23.86481877 -90.7043457 20.93286133 C-90.0379196 19.07079605 -89.3712614 17.20881381 -88.7043457 15.34692383 C-88.39081146 14.46991821 -88.07727722 13.5929126 -87.75424194 12.68933105 C-87.46368927 11.88088745 -87.1731366 11.07244385 -86.8737793 10.23950195 C-86.61857513 9.52797974 -86.36337097 8.81645752 -86.10043335 8.08337402 C-85.4309082 6.31567383 -85.4309082 6.31567383 -84.4309082 4.31567383 C-81.86627878 3.85973971 -79.39496391 3.54957355 -76.8059082 3.31567383 C-76.00040024 3.24148727 -75.19489227 3.16730072 -74.36497498 3.09086609 C-49.54324538 0.88162748 -24.91176064 -0.03662388 0 0 Z " fill="#83D6DD" transform="translate(252.430908203125,154.684326171875)"/>
<path d="M0 0 C1.70196533 0.0707373 3.40393066 0.14147461 5.1574707 0.21435547 C27.13766615 1.05933998 49.10057817 1.15534739 71.0949707 1.13037109 C76.155347 1.12469371 81.2156704 1.12804414 86.27604485 1.13382339 C110.86864644 1.15744031 135.42161722 0.84576994 160 0 C160 7.26 160 14.52 160 22 C134.96127084 26.09295178 109.81076001 26.3303756 84.50732422 26.26074219 C80.33638865 26.24934869 76.1657084 26.25613808 71.99478149 26.26761627 C47.91008064 26.32390273 23.77849916 26.25796875 0 22 C0 14.74 0 7.48 0 0 Z " fill="#1E010D" transform="translate(176,253)"/>
<path d="M0 0 C3.24745312 0.00008075 6.49476362 -0.00679347 9.7421875 -0.02050781 C34.71790081 -0.12433379 59.39752061 0.81039314 84.27832031 3.12280273 C84.97294373 3.18441086 85.66756714 3.24601898 86.38323975 3.30949402 C93.75758574 4.13171649 97.8319401 7.79508204 102.48535156 13.25170898 C112.13926578 26.31493345 117.33542502 42.006533 122.65332031 57.18530273 C122.94287598 58.01094727 123.23243164 58.8365918 123.53076172 59.68725586 C127.65332031 71.53803591 127.65332031 71.53803591 127.65332031 74.18530273 C126.08994858 73.72995174 124.52766182 73.27087498 122.96582031 72.81030273 C122.09570312 72.55506836 121.22558594 72.29983398 120.32910156 72.03686523 C119.44609375 71.75584961 118.56308594 71.47483398 117.65332031 71.18530273 C116.41388672 70.84909912 116.41388672 70.84909912 115.14941406 70.50610352 C111.68544662 68.67315517 111.31082191 66.86466698 110.04003906 63.20092773 C109.60022705 61.96503906 109.16041504 60.72915039 108.70727539 59.45581055 C108.251408 58.11577129 107.79593063 56.7755993 107.34082031 55.43530273 C106.86438002 54.07626095 106.38609568 52.71786428 105.90600586 51.36010742 C104.93921405 48.61983569 103.98179963 45.87656112 103.03125 43.13061523 C100.76457738 36.60615055 98.33753483 30.13974746 95.93920898 23.6628418 C95.63474854 22.82978516 95.33028809 21.99672852 95.01660156 21.13842773 C94.75145752 20.41816406 94.48631348 19.69790039 94.21313477 18.95581055 C93.65332031 17.18530273 93.65332031 17.18530273 93.65332031 15.18530273 C92.67878906 15.13631836 91.70425781 15.08733398 90.70019531 15.03686523 C89.26787374 14.96191379 87.83558505 14.8863325 86.40332031 14.81030273 C85.63067841 14.76971237 84.8580365 14.72912201 84.0619812 14.68730164 C79.31852967 14.42576645 74.58701816 14.10807055 69.85400391 13.69775391 C50.27629955 12.04134155 30.7837031 11.8287475 11.14724731 11.86825562 C8.49732857 11.87285654 5.84743217 11.87344219 3.19750977 11.87329102 C-21.57745844 11.88137961 -46.18765504 12.34476417 -70.85253906 14.90991211 C-74.7094043 15.21389087 -78.47929132 15.22995098 -82.34667969 15.18530273 C-82.52299927 15.79048233 -82.69931885 16.39566193 -82.88098145 17.0191803 C-84.69279015 23.15802968 -86.68223009 29.20985646 -88.81542969 35.24389648 C-89.1370105 36.15486588 -89.45859131 37.06583527 -89.78991699 38.00440979 C-90.46414981 39.90985793 -91.13982443 41.81479648 -91.81689453 43.71923828 C-92.85165859 46.63684116 -93.87453531 49.55845353 -94.89746094 52.48022461 C-95.55688743 54.33920759 -96.21701851 56.19794082 -96.87792969 58.05639648 C-97.33274719 59.36416298 -97.33274719 59.36416298 -97.79675293 60.698349 C-98.23235535 61.91090111 -98.23235535 61.91090111 -98.67675781 63.14794922 C-98.92752075 63.85725082 -99.17828369 64.56655243 -99.43664551 65.29734802 C-100.9822329 68.50381989 -102.7464899 69.91865081 -105.97558594 71.35327148 C-106.94367188 71.6897168 -107.91175781 72.02616211 -108.90917969 72.37280273 C-109.87984375 72.71698242 -110.85050781 73.06116211 -111.85058594 73.41577148 C-114.34667969 74.18530273 -114.34667969 74.18530273 -116.34667969 74.18530273 C-111.49381019 54.03433987 -102.15447575 16.73654756 -83.34667969 5.18530273 C-76.54918218 3.20273214 -69.43829397 2.68454571 -62.40917969 2.12280273 C-61.51650391 2.04481445 -60.62382812 1.96682617 -59.70410156 1.88647461 C-56.58647901 1.62541417 -53.46773378 1.40155388 -50.34667969 1.18530273 C-49.12094238 1.09482666 -47.89520508 1.00435059 -46.63232422 0.91113281 C-31.11090286 -0.12749924 -15.54828208 -0.00202824 0 0 Z " fill="#B61F12" transform="translate(250.3466796875,143.814697265625)"/>
<path d="M0 0 C1.03523862 -0.01169993 1.03523862 -0.01169993 2.09139115 -0.02363622 C4.39790562 -0.04353817 6.70276669 -0.02780078 9.0092926 -0.01205444 C10.66530824 -0.01883151 12.32131635 -0.02773514 13.97731018 -0.03860474 C18.4712633 -0.06139612 22.96464239 -0.05256208 27.45860553 -0.03670931 C32.163022 -0.02404732 36.86738945 -0.03579145 41.57180786 -0.04364014 C49.47309692 -0.05273673 57.37415231 -0.04074949 65.27540588 -0.01693726 C74.40677997 0.01026467 83.5375957 0.00146676 92.66895622 -0.02606928 C100.51117268 -0.04877033 108.35322119 -0.05195529 116.1954599 -0.03887594 C120.87824754 -0.03108568 125.56077289 -0.03002792 130.24354362 -0.04655838 C134.64735626 -0.06101808 139.05045035 -0.05095439 143.45418549 -0.0220871 C145.06905233 -0.01548383 146.68397979 -0.01736104 148.2988224 -0.02840042 C150.50650494 -0.04209935 152.71189646 -0.0248926 154.91943359 0 C156.15367286 0.00188513 157.38791212 0.00377026 158.65955257 0.00571251 C163.15288733 0.84623598 164.81396285 2.42114645 168.02320862 5.63491821 C168.99454763 8.73171409 168.72503503 11.47964823 168.02320862 14.63491821 C165.82489498 17.66707496 164.57357668 18.45146219 161.02320862 19.63491821 C158.81519984 19.73336702 156.60428458 19.7699484 154.39408875 19.77536011 C153.71718361 19.77833123 153.04027847 19.78130235 152.34286106 19.78436351 C150.06979388 19.79305 147.79677937 19.7945587 145.5236969 19.79605103 C143.89591865 19.80067919 142.26814149 19.80570385 140.6403656 19.81109619 C136.21472925 19.82422133 131.78910807 19.83066524 127.3634553 19.83510685 C124.59932024 19.83803707 121.83518933 19.84214175 119.07105637 19.84661102 C110.42503126 19.86028553 101.77901564 19.86995272 93.13298047 19.87381291 C83.14787144 19.87829533 73.1628992 19.8958519 63.17783177 19.92481351 C55.4622552 19.94641684 47.74671715 19.95651645 40.03111064 19.95785403 C35.4215824 19.95890292 30.81218275 19.96482868 26.20268631 19.98267365 C21.86722454 19.99913129 17.53198834 20.00132111 13.1965065 19.99253464 C11.60539141 19.99176305 10.0142643 19.99612296 8.42317963 20.00599289 C6.25061547 20.01867949 4.07885421 20.01285425 1.90629578 20.00241089 C0.69066011 20.00387745 -0.52497555 20.00534401 -1.77744865 20.00685501 C-6.26477684 19.48518459 -8.82703813 17.78467147 -11.97679138 14.63491821 C-12.34788513 12.64663696 -12.34788513 12.64663696 -12.41429138 10.32241821 C-12.45425232 9.5631604 -12.49421326 8.80390259 -12.53538513 8.02163696 C-11.00387474 1.47791076 -6.05061135 0.00924429 0 0 Z " fill="#141514" transform="translate(177.97679138183594,305.3650817871094)"/>
<path d="M0 0 C1.71794172 0.14505477 3.43269888 0.33504029 5.140625 0.5703125 C5.94016602 0.6542627 6.73970703 0.73821289 7.56347656 0.82470703 C9.42750827 1.03260236 11.28528571 1.29544742 13.140625 1.5703125 C16.07157569 9.55423516 18.99998112 17.5390825 21.92475891 25.52526855 C23.49629446 29.81532155 25.0729604 34.10345318 26.65234375 38.390625 C27.37772886 40.36714174 28.10299756 42.34370121 28.828125 44.3203125 C29.33569336 45.69243896 29.33569336 45.69243896 29.85351562 47.09228516 C30.15837891 47.92550293 30.46324219 48.7587207 30.77734375 49.6171875 C31.04248779 50.33745117 31.30763184 51.05771484 31.58081055 51.79980469 C32.140625 53.5703125 32.140625 53.5703125 32.140625 55.5703125 C8.710625 55.5703125 -14.719375 55.5703125 -38.859375 55.5703125 C-33.52028402 46.22690329 -28.14192295 37.09684933 -22.29785156 28.09130859 C-19.28619314 23.43352136 -16.36564172 18.76576515 -13.640625 13.93359375 C-13.12854492 13.05082764 -12.61646484 12.16806152 -12.08886719 11.25854492 C-11.12704236 9.59217547 -10.19350821 7.90904023 -9.29394531 6.20825195 C-6.74573791 1.87188649 -5.18841149 0.07729108 0 0 Z " fill="#82D5DC" transform="translate(330.859375,157.4296875)"/>
<path d="M0 0 C-4.8298996 9.42677772 -10.52629203 18.26134379 -16.21289062 27.18457031 C-19.562551 32.46165822 -22.87418598 37.76254525 -26.1875 43.0625 C-26.84741943 44.11590576 -27.50733887 45.16931152 -28.18725586 46.25463867 C-28.79964111 47.23408447 -29.41202637 48.21353027 -30.04296875 49.22265625 C-30.58977295 50.09672119 -31.13657715 50.97078613 -31.69995117 51.87133789 C-33.00833477 53.94623033 -33.00833477 53.94623033 -34 56 C-24.76 56 -15.52 56 -6 56 C-6 56.33 -6 56.66 -6 57 C-26.79 57 -47.58 57 -69 57 C-65.62458068 45.74860227 -65.62458068 45.74860227 -64.29833984 42.04101562 C-64.00148285 41.20735474 -63.70462585 40.37369385 -63.39877319 39.51477051 C-63.08928741 38.65395874 -62.77980164 37.79314697 -62.4609375 36.90625 C-62.13461334 35.99290894 -61.80828918 35.07956787 -61.47207642 34.1385498 C-60.78923086 32.22897914 -60.10516662 30.31984385 -59.41992188 28.41113281 C-58.36813305 25.4808688 -57.32049533 22.54914495 -56.2734375 19.6171875 C-55.6070114 17.75512222 -54.94035319 15.89313999 -54.2734375 14.03125 C-53.95990326 13.15424438 -53.64636902 12.27723877 -53.32333374 11.37365723 C-53.03278107 10.56521362 -52.74222839 9.75677002 -52.44287109 8.92382812 C-52.18766693 8.21230591 -51.93246277 7.50078369 -51.66952515 6.7677002 C-51 5 -51 5 -50 3 C-47.16741195 2.53248547 -44.41633903 2.19471773 -41.5625 1.9375 C-40.71155762 1.85516113 -39.86061523 1.77282227 -38.98388672 1.68798828 C-26.00061169 0.47717501 -13.04114589 -0.20736804 0 0 Z " fill="#83D6DC" transform="translate(218,156)"/>
<path d="M0 0 C0.33 0 0.66 0 1 0 C1 17.82 1 35.64 1 54 C15.52 54 30.04 54 45 54 C45.0825 59.1975 45.165 64.395 45.25 69.75 C45.28641602 71.38420898 45.32283203 73.01841797 45.36035156 74.70214844 C45.3703418 75.9915332 45.38033203 77.28091797 45.390625 78.609375 C45.41157227 79.92905273 45.43251953 81.24873047 45.45410156 82.60839844 C45 86 45 86 43.51074219 88.42651367 C39.92387879 90.67440696 36.54377898 90.59192799 32.4375 90.56640625 C31.60919678 90.57260483 30.78089355 90.57880341 29.92749023 90.58518982 C28.17921116 90.59228217 26.43086446 90.58912411 24.68261719 90.57641602 C22.00850176 90.5625441 19.33788268 90.59663146 16.6640625 90.63476562 C14.96354081 90.63571681 13.26301475 90.63385802 11.5625 90.62890625 C10.76448975 90.64216446 9.96647949 90.65542267 9.14428711 90.66908264 C5.45590261 90.60724685 3.39794197 90.31962278 0.48925781 87.98339844 C-1.42562923 84.14734602 -1.50413408 80.82434567 -1.390625 76.63671875 C-1.38213531 75.44874443 -1.38213531 75.44874443 -1.37347412 74.23677063 C-1.35117308 71.71971906 -1.30099139 69.20411757 -1.25 66.6875 C-1.22992675 64.97593209 -1.21167742 63.26434176 -1.1953125 61.55273438 C-1.15132925 57.36793515 -1.08234769 53.184213 -1 49 C-2.32 49 -3.64 49 -5 49 C-5 45.37 -5 41.74 -5 38 C-3.68 38 -2.36 38 -1 38 C-1.00523682 36.91992676 -1.01047363 35.83985352 -1.01586914 34.72705078 C-1.03394108 30.72771022 -1.04544007 26.72837328 -1.05493164 22.72900391 C-1.05996682 20.99657586 -1.06679532 19.26415208 -1.07543945 17.53173828 C-1.08754065 15.04458567 -1.09323638 12.55748913 -1.09765625 10.0703125 C-1.10281754 9.29317902 -1.10797882 8.51604553 -1.11329651 7.71536255 C-1.11387171 2.22774341 -1.11387171 2.22774341 0 0 Z " fill="#131414" transform="translate(115,278)"/>
<path d="M0 0 C2 2 2 2 2.22705078 5.53173828 C2.22673363 7.04463331 2.21540633 8.55755088 2.1953125 10.0703125 C2.1924826 10.86654022 2.18965271 11.66276794 2.18673706 12.48312378 C2.1755264 15.03056763 2.15042062 17.57766211 2.125 20.125 C2.11497133 21.85025535 2.10584528 23.57551619 2.09765625 25.30078125 C2.07558422 29.53398914 2.04104867 33.7669353 2 38 C3.32 38 4.64 38 6 38 C6 41.63 6 45.26 6 49 C4.68 49 3.36 49 2 49 C2.02094727 50.06436279 2.04189453 51.12872559 2.06347656 52.2253418 C2.13603962 56.18549066 2.18185851 60.1455811 2.21972656 64.10620117 C2.23980505 65.81821586 2.26707392 67.53016228 2.30175781 69.24194336 C2.35044401 71.70704008 2.37300573 74.1712279 2.390625 76.63671875 C2.41127014 77.39836838 2.43191528 78.16001801 2.45318604 78.94474792 C2.45464748 82.42935468 2.07307317 84.85361408 0.51074219 87.98339844 C-3.01816751 90.81778137 -6.22500214 90.7009698 -10.5625 90.62890625 C-11.80495483 90.63252419 -11.80495483 90.63252419 -13.07250977 90.63621521 C-14.82084956 90.63523728 -16.56922052 90.62185621 -18.31738281 90.59692383 C-20.99130588 90.56261156 -23.66192392 90.5762656 -26.3359375 90.59570312 C-28.03647238 90.58880446 -29.73699874 90.57913189 -31.4375 90.56640625 C-32.63451538 90.57384605 -32.63451538 90.57384605 -33.85571289 90.58143616 C-37.26315737 90.50925426 -39.5967656 90.25270767 -42.51074219 88.42651367 C-44.58917408 85.04003259 -44.45343482 82.56639346 -44.390625 78.609375 C-44.38063477 77.31999023 -44.37064453 76.03060547 -44.36035156 74.70214844 C-44.30572754 72.25083496 -44.30572754 72.25083496 -44.25 69.75 C-44.1675 64.5525 -44.085 59.355 -44 54 C-29.48 54 -14.96 54 0 54 C0 36.18 0 18.36 0 0 Z " fill="#131414" transform="translate(396,278)"/>
<path d="M0 0 C9.9 0 19.8 0 30 0 C26.32320016 6.7407997 22.69822852 13.26021825 18.5625 19.6875 C17.52408637 21.31598991 16.48636204 22.9449195 15.44921875 24.57421875 C14.89927246 25.43708496 14.34932617 26.29995117 13.78271484 27.18896484 C9.78548925 33.49190315 5.84931419 39.83333383 1.90063477 46.16674805 C1.29147217 47.14297119 0.68230957 48.11919434 0.0546875 49.125 C-0.48687988 49.99382812 -1.02844727 50.86265625 -1.58642578 51.7578125 C-2.69848374 53.52174002 -3.84333195 55.26499792 -5 57 C-7.88916016 57.34057617 -7.88916016 57.34057617 -11.5390625 57.29296875 C-13.49199219 57.2784668 -13.49199219 57.2784668 -15.484375 57.26367188 C-16.86458923 57.23860388 -18.24479756 57.21320902 -19.625 57.1875 C-21.01300663 57.17245517 -22.40102867 57.15876641 -23.7890625 57.14648438 C-27.19309509 57.1110257 -30.59635622 57.06160298 -34 57 C-32.60233767 53.21198331 -30.8508857 49.92243267 -28.7265625 46.4921875 C-28.07204102 45.43169189 -27.41751953 44.37119629 -26.74316406 43.27856445 C-26.03722696 42.1439698 -25.33116981 41.00944983 -24.625 39.875 C-23.90305773 38.70873998 -23.18138026 37.542316 -22.45996094 36.37573242 C-17.62613458 28.56959725 -12.74755216 20.79140659 -7.80712891 13.05224609 C-7.36030762 12.3505127 -6.91348633 11.6487793 -6.453125 10.92578125 C-6.07317383 10.33192627 -5.69322266 9.73807129 -5.30175781 9.1262207 C-3.46475141 6.12575394 -1.74549219 3.05461133 0 0 Z " fill="#FCFDFD" transform="translate(218,155)"/>
<path d="M0 0 C1.7131591 0.05930166 3.42524163 0.16596514 5.1328125 0.31640625 C6.01195312 0.35701172 6.89109375 0.39761719 7.796875 0.43945312 C9.95291918 0.54491181 12.10609923 0.70634311 14.2578125 0.87890625 C9.4279129 10.30568397 3.73152047 19.14025004 -1.95507812 28.06347656 C-5.3047385 33.34056447 -8.61637348 38.6414515 -11.9296875 43.94140625 C-12.58960693 44.99481201 -13.24952637 46.04821777 -13.92944336 47.13354492 C-14.84802124 48.60271362 -14.84802124 48.60271362 -15.78515625 50.1015625 C-16.33196045 50.97562744 -16.87876465 51.84969238 -17.44213867 52.75024414 C-18.75052227 54.82513658 -18.75052227 54.82513658 -19.7421875 56.87890625 C-26.0121875 56.87890625 -32.2821875 56.87890625 -38.7421875 56.87890625 C-37.39194775 53.50330688 -36.23749116 50.82701708 -34.4140625 47.7890625 C-33.95080566 47.0153833 -33.48754883 46.2417041 -33.01025391 45.44458008 C-32.50929199 44.61853271 -32.00833008 43.79248535 -31.4921875 42.94140625 C-30.70787354 41.641427 -30.70787354 41.641427 -29.90771484 40.31518555 C-24.19959195 30.90392843 -18.37078513 21.55356769 -12.31787109 12.35961914 C-10.70708091 9.89270897 -10.70708091 9.89270897 -9.34228516 7.25561523 C-6.82941344 2.78365216 -5.33435993 0.3778897 0 0 Z " fill="#FCFDFD" transform="translate(283.7421875,155.12109375)"/>
<path d="M0 0 C9.53046999 0.44327767 18.88063963 1.16510806 28.328125 2.5234375 C34.20580986 3.28628596 40.08298269 3.63399893 46 4 C46 11.26 46 18.52 46 26 C3.80979827 19.80979827 3.80979827 19.80979827 0 16 C-0.07319621 13.30345146 -0.09242537 10.63308542 -0.0625 7.9375 C-0.05798828 7.17888672 -0.05347656 6.42027344 -0.04882812 5.63867188 C-0.0370068 3.75908129 -0.01907078 1.87953101 0 0 Z " fill="#FAC700" transform="translate(130,249)"/>
<path d="M0 0 C0 5.28 0 10.56 0 16 C-8.51146206 18.90898071 -17.004596 20.95963982 -25.8125 22.75 C-26.88556396 22.97260498 -27.95862793 23.19520996 -29.06420898 23.42456055 C-30.10134033 23.62992432 -31.13847168 23.83528809 -32.20703125 24.046875 C-33.1297583 24.23088867 -34.05248535 24.41490234 -35.00317383 24.60449219 C-38.63962029 25.08441425 -42.33202126 25 -46 25 C-46 18.07 -46 11.14 -46 4 C-43.62683594 3.79503906 -41.25367188 3.59007812 -38.80859375 3.37890625 C-36.49173985 3.17746605 -34.17494481 2.97536111 -31.8581543 2.77319336 C-30.2569776 2.6338272 -28.65574126 2.49514429 -27.05444336 2.35717773 C-24.74316371 2.15791709 -22.43211483 1.9561411 -20.12109375 1.75390625 C-19.0597245 1.66321617 -19.0597245 1.66321617 -17.97691345 1.57069397 C-14.73328586 1.28462926 -11.52669449 0.92991889 -8.30493164 0.45288086 C-5 0 -5 0 0 0 Z " fill="#FAC700" transform="translate(382,249)"/>
<path d="M0 0 C1.44221924 -0.00430527 1.44221924 -0.00430527 2.91357422 -0.00869751 C4.94434194 -0.01073701 6.97512935 -0.00521512 9.00585938 0.00732422 C12.11372823 0.02337927 15.22029658 0.00747145 18.328125 -0.01171875 C20.3020862 -0.0097363 22.2760466 -0.00589258 24.25 0 C25.17925293 -0.00607269 26.10850586 -0.01214539 27.06591797 -0.0184021 C33.43614469 0.05102272 33.43614469 0.05102272 36.71484375 1.70458984 C38.125 3.3984375 38.125 3.3984375 38.5625 6.8984375 C38.125 10.3984375 38.125 10.3984375 36.87988281 12.09292603 C34.64555204 13.75511363 33.37839923 13.77837498 30.609375 13.78662109 C29.24280762 13.80080582 29.24280762 13.80080582 27.84863281 13.8152771 C26.86733398 13.80920441 25.88603516 13.80313171 24.875 13.796875 C23.8653418 13.79974518 22.85568359 13.80261536 21.81542969 13.80557251 C19.68033284 13.80761438 17.54521734 13.80207596 15.41015625 13.78955078 C12.13759629 13.77349928 8.86627144 13.78939575 5.59375 13.80859375 C3.5208306 13.80661134 1.44791197 13.80276771 -0.625 13.796875 C-1.60629883 13.80294769 -2.58759766 13.80902039 -3.59863281 13.8152771 C-4.50967773 13.80582062 -5.42072266 13.79636414 -6.359375 13.78662109 C-7.16084961 13.78423431 -7.96232422 13.78184753 -8.78808594 13.77938843 C-11.42127252 13.29871944 -12.30152016 12.53979702 -13.875 10.3984375 C-14.3125 6.8984375 -14.3125 6.8984375 -13.875 3.3984375 C-10.32667365 -0.86373151 -5.07993518 -0.03319751 0 0 Z " fill="#3F484B" transform="translate(243.875,260.6015625)"/>
<path d="M0 0 C3.9166043 -0.0580966 7.83309763 -0.09362893 11.75 -0.125 C12.86117188 -0.14175781 13.97234375 -0.15851563 15.1171875 -0.17578125 C16.72207031 -0.18544922 16.72207031 -0.18544922 18.359375 -0.1953125 C19.34389648 -0.20578613 20.32841797 -0.21625977 21.34277344 -0.22705078 C24.09388582 0.00802222 25.68827927 0.5214674 28 2 C29.89572759 4.83159311 30.27309176 7.12860367 30.25 10.5 C30.25773437 11.62921875 30.25773437 11.62921875 30.265625 12.78125 C29.96775339 15.26935401 29.32104804 16.87888062 28 19 C24.81175432 20.59412284 21.37103338 20.10174735 17.875 20.0625 C17.12089844 20.05798828 16.36679687 20.05347656 15.58984375 20.04882812 C13.72652873 20.03703499 11.86325445 20.01909942 10 20 C9.70351563 20.76699219 9.40703125 21.53398437 9.1015625 22.32421875 C7.96930039 25.07457175 6.58060955 27.48539389 5 30 C2.35247996 27.42215154 0.05567935 25.08351902 -2 22 C-1.67 21.34 -1.34 20.68 -1 20 C-0.84876169 18.4804236 -0.75118307 16.95527498 -0.68359375 15.4296875 C-0.64169922 14.53378906 -0.59980469 13.63789063 -0.55664062 12.71484375 C-0.49766602 11.30912109 -0.49766602 11.30912109 -0.4375 9.875 C-0.39431641 8.93011719 -0.35113281 7.98523438 -0.30664062 7.01171875 C-0.20040928 4.67462908 -0.09836824 2.3374317 0 0 Z " fill="#B61E10" transform="translate(380,196)"/>
<path d="M0 0 C1.07314453 0.00322266 2.14628906 0.00644531 3.25195312 0.00976562 C4.37150391 0.01814453 5.49105469 0.02652344 6.64453125 0.03515625 C8.34125977 0.04192383 8.34125977 0.04192383 10.07226562 0.04882812 C12.86724052 0.06062127 15.66210945 0.07707975 18.45703125 0.09765625 C18.77146192 3.97040142 19.02577205 7.84487227 19.26953125 11.72265625 C19.35912109 12.81707031 19.44871094 13.91148437 19.54101562 15.0390625 C20.06584821 24.15457589 20.06584821 24.15457589 16.96875 27.87109375 C16.13988281 28.60585937 15.31101563 29.340625 14.45703125 30.09765625 C12.16702214 28.1347913 11.39929707 26.9371022 10.3515625 24.0234375 C9.72636719 23.05792969 9.10117188 22.09242188 8.45703125 21.09765625 C5.5463595 20.54573862 3.35851437 20.34562148 0.45703125 20.41015625 C-7.0438928 20.45687019 -7.0438928 20.45687019 -9.48046875 18.703125 C-12.15647426 14.65960197 -12.00905685 10.83213008 -11.54296875 6.09765625 C-10.23046875 3.09765625 -10.23046875 3.09765625 -8.54296875 1.09765625 C-5.42453625 0.05817875 -3.26821289 -0.01729213 0 0 Z " fill="#B71E10" transform="translate(113.54296875,195.90234375)"/>
<path d="M0 0 C2.625 -0.1875 2.625 -0.1875 5 0 C3.44789114 6.03048665 0.18002404 10.72908968 -3.1875 15.875 C-4.44899155 17.82743092 -5.7093668 19.78058345 -6.96875 21.734375 C-7.95488281 23.26094727 -7.95488281 23.26094727 -8.9609375 24.81835938 C-13.08005078 31.24559648 -17.09032227 37.74152843 -21.11206055 44.22998047 C-21.70801025 45.18791504 -22.30395996 46.14584961 -22.91796875 47.1328125 C-23.44156982 47.97730957 -23.9651709 48.82180664 -24.50463867 49.69189453 C-27.35581099 54.0927081 -27.35581099 54.0927081 -29 56 C-31.6875 56.25 -31.6875 56.25 -34 56 C-32.61459034 52.25440375 -30.89568041 48.9920681 -28.796875 45.59765625 C-27.83031982 44.02963257 -27.83031982 44.02963257 -26.84423828 42.42993164 C-26.15313965 41.3186792 -25.46204102 40.20742676 -24.75 39.0625 C-24.03481981 37.90692713 -23.31981531 36.75124551 -22.60498047 35.59545898 C-15.20516461 23.65096482 -7.79440745 11.69161118 0 0 Z " fill="#F5FAFA" transform="translate(321,157)"/>
<path d="M0 0 C0.33 0 0.66 0 1 0 C1 16.17 1 32.34 1 49 C-1 50 -1 50 -5 49 C-5 45.37 -5 41.74 -5 38 C-3.68 38 -2.36 38 -1 38 C-1.00523682 36.91992676 -1.01047363 35.83985352 -1.01586914 34.72705078 C-1.03394108 30.72771022 -1.04544007 26.72837328 -1.05493164 22.72900391 C-1.05996682 20.99657586 -1.06679532 19.26415208 -1.07543945 17.53173828 C-1.08754065 15.04458567 -1.09323638 12.55748913 -1.09765625 10.0703125 C-1.10281754 9.29317902 -1.10797882 8.51604553 -1.11329651 7.71536255 C-1.11387171 2.22774341 -1.11387171 2.22774341 0 0 Z " fill="#131515" transform="translate(115,278)"/>
<path d="M0 0 C2 2 2 2 2.22705078 5.53173828 C2.22673363 7.04463331 2.21540633 8.55755088 2.1953125 10.0703125 C2.1924826 10.86654022 2.18965271 11.66276794 2.18673706 12.48312378 C2.1755264 15.03056763 2.15042062 17.57766211 2.125 20.125 C2.11497133 21.85025535 2.10584528 23.57551619 2.09765625 25.30078125 C2.07558422 29.53398914 2.04104867 33.7669353 2 38 C3.32 38 4.64 38 6 38 C6 41.63 6 45.26 6 49 C4.02 49 2.04 49 0 49 C0 32.83 0 16.66 0 0 Z " fill="#141414" transform="translate(396,278)"/>
<path d="M0 0 C2.64 0 5.28 0 8 0 C8 5.61 8 11.22 8 17 C2 16 2 16 0 15 C0 10.05 0 5.1 0 0 Z " fill="#1E000D" transform="translate(122,248)"/>
<path d="M0 0 C2.64 0 5.28 0 8 0 C8 4.95 8 9.9 8 15 C5.36 15.66 2.72 16.32 0 17 C0 11.39 0 5.78 0 0 Z " fill="#1D000D" transform="translate(382,248)"/>
<path d="M0 0 C1.65 0 3.3 0 5 0 C5 3.63 5 7.26 5 11 C3.35 11 1.7 11 0 11 C0 7.37 0 3.74 0 0 Z " fill="#3C4548" transform="translate(397,316)"/>
<path d="M0 0 C1.65 0 3.3 0 5 0 C5 3.63 5 7.26 5 11 C3.35 11 1.7 11 0 11 C0 7.37 0 3.74 0 0 Z " fill="#3C4447" transform="translate(110,316)"/>
</svg>
