<?xml version="1.0" encoding="UTF-8"?>
<svg version="1.1" xmlns="http://www.w3.org/2000/svg" width="512" height="512">
<path d="M0 0 C2.5 0.125 2.5 0.125 3.5 1.125 C3.5935919 2.84365409 3.61744611 4.56615744 3.61352539 6.28735352 C3.61344986 7.38841934 3.61337433 8.48948517 3.61329651 9.62391663 C3.60813522 10.8218132 3.60297394 12.01970978 3.59765625 13.25390625 C3.59553383 15.08295753 3.59553383 15.08295753 3.59336853 16.94895935 C3.58774967 20.8618307 3.57519396 24.77464581 3.5625 28.6875 C3.55748743 31.33268147 3.5529241 33.97786383 3.54882812 36.62304688 C3.53777411 43.12371726 3.52101764 49.62435461 3.5 56.125 C4.7274292 56.26365479 5.9548584 56.40230957 7.21948242 56.54516602 C30.87032484 59.51570428 54.89026273 74.66422898 71.5 91.125 C72.49 92.61 72.49 92.61 73.5 94.125 C74.16 94.125 74.82 94.125 75.5 94.125 C76.139375 93.320625 76.77875 92.51625 77.4375 91.6875 C92.09126869 73.5406818 119.09824955 61.04833698 141.5 56.125 C142.82 56.125 144.14 56.125 145.5 56.125 C145.49777939 55.43817642 145.49555878 54.75135284 145.49327087 54.04371643 C145.47122105 46.92294838 145.45609467 39.80218996 145.44506836 32.68139648 C145.44002617 30.02058519 145.43319264 27.35977668 145.42456055 24.69897461 C145.41248991 20.88394484 145.40677071 17.06895156 145.40234375 13.25390625 C145.39718246 12.05600967 145.39202118 10.8581131 145.38670349 9.62391663 C145.38659019 7.97231789 145.38659019 7.97231789 145.38647461 6.28735352 C145.384254 5.31250504 145.38203339 4.33765656 145.37974548 3.33326721 C145.5 1.125 145.5 1.125 146.5 0.125 C149 0 149 0 151.5 0.125 C152.5 1.125 152.5 1.125 152.62025452 3.29530334 C152.61803391 4.25238693 152.61581329 5.20947052 152.61352539 6.19555664 C152.61344986 7.27660172 152.61337433 8.35764679 152.61329651 9.47145081 C152.60813522 10.6474736 152.60297394 11.8234964 152.59765625 13.03515625 C152.59553383 14.83091347 152.59553383 14.83091347 152.59336853 16.66294861 C152.58774979 20.50449066 152.57519411 24.34597543 152.5625 28.1875 C152.55748741 30.78450437 152.55292409 33.38150965 152.54882812 35.97851562 C152.53777427 42.36069679 152.52101792 48.7428443 152.5 55.125 C154.81 55.455 157.12 55.785 159.5 56.125 C159.6885378 63.06120209 158.9915526 69.50206315 157.84765625 76.33618164 C157.67209198 77.42014221 157.49652771 78.50410278 157.31564331 79.62091064 C156.73800264 83.17679558 156.15032739 86.73094238 155.5625 90.28515625 C155.15831378 92.76083912 154.75475847 95.23662507 154.35180664 97.71250916 C153.40083162 103.54609058 152.44353448 109.37860633 151.48311329 115.21063942 C150.28170147 122.5085026 149.09021175 129.80797977 147.8984375 137.10742188 C145.77354481 150.11458546 143.6399037 163.12029801 141.5 176.125 C142.10714844 176.25390625 142.71429688 176.3828125 143.33984375 176.515625 C147.23761498 177.6151771 149.72325486 180.18180948 152.25 183.25 C154.68436078 188.8490298 155.30666083 194.67007627 153.3125 200.5 C152.1851365 203.12177558 151.38433737 204.23423693 149.25 206.25 C148.6725 206.86875 148.095 207.4875 147.5 208.125 C147.81144153 213.42446528 149.95506874 217.60671885 152.296875 222.2578125 C152.68173065 223.03859161 153.0665863 223.81937073 153.46310425 224.62380981 C154.28910298 226.29807792 155.11850549 227.97067031 155.95098877 229.64172363 C158.15293384 234.06299511 160.32928241 238.49684445 162.5078125 242.9296875 C162.94221649 243.81213135 163.37662048 244.6945752 163.82418823 245.60375977 C167.36596142 252.81285862 170.77861292 260.07290316 174.125 267.375 C178.62702804 277.18086654 183.27809162 286.90252519 188.0128479 296.59762573 C193.40138136 307.6318246 198.77435938 318.67052342 203.9375 329.8125 C204.60096436 331.22644043 204.60096436 331.22644043 205.27783203 332.66894531 C210.22156704 343.44410802 212.36925254 353.21860467 208.53125 364.71484375 C200.34154604 383.85517459 175.32667007 394.86341711 157.5 403.125 C156.58033447 403.56271729 156.58033447 403.56271729 155.64208984 404.00927734 C143.22733071 409.90030511 130.66493592 413.73668803 117.5 418.125 C215.015 418.62 215.015 418.62 314.5 419.125 C314.83 420.775 315.16 422.425 315.5 424.125 C311.79633433 426.59411045 308.98934483 426.40325297 304.70536804 426.37668228 C303.89913942 426.37958916 303.09291081 426.38249604 302.26225102 426.38549101 C299.53763399 426.39283933 296.81323876 426.38582527 294.08862305 426.37896729 C292.12476581 426.38126981 290.16090943 426.38444493 288.19705486 426.38842177 C282.78245238 426.39680705 277.36791997 426.39262764 271.95331717 426.38644934 C266.12094226 426.38194105 260.28857975 426.38890051 254.45620728 426.39440918 C243.02345081 426.40332224 231.59072055 426.40137268 220.15796304 426.3955839 C210.86982269 426.39107492 201.58168971 426.39045119 192.29354858 426.39263153 C190.97374927 426.392938 189.65394996 426.39324446 188.29415673 426.39356022 C186.28540943 426.39403608 184.27666214 426.3945185 182.26791484 426.395014 C157.15090406 426.40113588 132.03390759 426.39557892 106.91689901 426.3848202 C84.58814636 426.37532857 62.25941652 426.3761778 39.93066406 426.38574219 C14.86041953 426.39644491 -10.20981236 426.40070177 -35.28005886 426.39451766 C-37.9512221 426.3938762 -40.62238534 426.39325179 -43.29354858 426.39263153 C-44.60795797 426.39232298 -45.92236736 426.39201443 -47.27660733 426.39169653 C-56.55815678 426.3899666 -65.83969815 426.39289109 -75.12124634 426.39759064 C-86.42579325 426.40318844 -97.73031237 426.40170628 -109.03485608 426.39102915 C-114.8072737 426.38575757 -120.57964491 426.38374087 -126.35206223 426.39032745 C-131.62953823 426.3962584 -136.90692454 426.39305934 -142.18439233 426.38237235 C-144.10022402 426.38012613 -146.01606319 426.3813017 -147.93189013 426.38612393 C-150.52315931 426.39214923 -153.1141156 426.38602512 -155.70536804 426.37668228 C-156.46029789 426.38136461 -157.21522774 426.38604695 -157.99303424 426.39087117 C-161.71589921 426.3637884 -163.31783697 426.24644202 -166.5 424.125 C-166.17 422.475 -165.84 420.825 -165.5 419.125 C-100.49 418.795 -35.48 418.465 31.5 418.125 C19.62 414.165 19.62 414.165 7.5 410.125 C3.49004692 408.58127316 -0.4057073 407.0592374 -4.3125 405.3125 C-5.24570068 404.9 -6.17890137 404.4875 -7.14038086 404.0625 C-26.48579166 395.3104962 -52.36092789 383.04443328 -60.5 362.125 C-64.25910257 346.46606317 -56.65595425 332.72911232 -49.82269287 319.0802002 C-47.65760785 314.75464408 -45.52441711 310.41335581 -43.38671875 306.07421875 C-42.74902557 304.7830162 -42.74902557 304.7830162 -42.09844971 303.46572876 C-38.57578506 296.31974946 -35.19361962 289.11825737 -31.875 281.875 C-27.3463015 272.01610221 -22.68010197 262.23352699 -17.92919922 252.48016357 C-16.82643713 250.21611392 -15.72552568 247.9511726 -14.625 245.68603516 C-11.49491139 239.2480798 -8.35258802 232.81750858 -5.16015625 226.41015625 C-4.23171499 224.52346498 -3.30332457 222.63674869 -2.375 220.75 C-1.74525269 219.51262085 -1.74525269 219.51262085 -1.1027832 218.25024414 C1.0121143 213.94754394 1.0121143 213.94754394 1.36328125 209.23828125 C0.22125046 206.44263122 -1.61120248 204.47168783 -3.5 202.125 C-6.0723935 196.85771807 -5.99487701 191.70931066 -4.5 186.125 C-2.14044087 181.87214193 0.45442158 178.82205228 4.5 176.125 C5.49 176.125 6.48 176.125 7.5 176.125 C7.36084923 175.27934778 7.36084923 175.27934778 7.21888733 174.41661167 C4.95745313 160.67025022 2.70407715 146.92258854 0.45927429 133.17350101 C-0.62646141 126.52444858 -1.71484479 119.87585023 -2.80957031 113.22827148 C-3.86621828 106.81022667 -4.91586858 100.39107276 -5.96072388 93.97109795 C-6.36011944 91.52475837 -6.7620137 89.07882536 -7.16647339 86.63331795 C-7.73353405 83.20198959 -8.29160784 79.76930929 -8.84765625 76.33618164 C-9.01596954 75.33060715 -9.18428284 74.32503265 -9.35769653 73.28898621 C-10.28639994 67.48611832 -10.65975298 62.00222441 -10.5 56.125 C-7.035 55.63 -7.035 55.63 -3.5 55.125 C-3.50222061 54.4507045 -3.50444122 53.776409 -3.50672913 53.0816803 C-3.52877929 46.09067309 -3.54390547 39.09967569 -3.55493164 32.10864258 C-3.55997377 29.49633381 -3.56680725 26.88402789 -3.57543945 24.27172852 C-3.58751036 20.52619732 -3.59322935 16.78070328 -3.59765625 13.03515625 C-3.60281754 11.85913345 -3.60797882 10.68311066 -3.61329651 9.47145081 C-3.61337204 8.39040573 -3.61344757 7.30936066 -3.61352539 6.19555664 C-3.615746 5.23847305 -3.61796661 4.28138947 -3.62025452 3.29530334 C-3.44649087 0.1592895 -3.15305597 0.1576528 0 0 Z " fill="#413777" transform="translate(181.5,32.875)"/>
<path d="M0 0 C21.12 0 42.24 0 64 0 C74.65041869 27.1498378 85.23315454 54.32320661 95.72167969 81.53588867 C96.64906293 83.9419044 97.57647173 86.34791028 98.50390625 88.75390625 C98.96066742 89.93887192 99.41742859 91.12383759 99.88803101 92.3447113 C105.81994158 107.72778419 111.78920483 123.09637871 117.76115417 138.46394348 C118.81375244 141.17718934 119.86170678 143.89219394 120.90917969 146.60742188 C122.36714814 150.3832884 123.85160564 154.14766098 125.34863281 157.90820312 C126.09975749 159.8189522 126.85073899 161.72975756 127.6015625 163.640625 C128.13672989 164.96438141 128.13672989 164.96438141 128.68270874 166.31488037 C129.0022049 167.13426086 129.32170105 167.95364136 129.65087891 168.79785156 C129.93637604 169.51507385 130.22187317 170.23229614 130.51602173 170.97125244 C131.09453861 173.39628838 130.9362519 174.69763682 130 177 C127.87425911 178.45800096 125.91309379 179.60551672 123.625 180.75 C122.96234131 181.09144043 122.29968262 181.43288086 121.61694336 181.78466797 C113.28126629 185.99343848 104.66154446 189.5272197 96 193 C95.32888184 193.27585937 94.65776367 193.55171875 93.96630859 193.8359375 C75.91245445 201.24264689 54.66682045 208 35 208 C34.67 156.52 34.34 105.04 34 52 C32.68 52 31.36 52 30 52 C29.67 103.48 29.34 154.96 29 208 C21.43278073 207.31207098 14.41297848 206.45466894 7.0625 204.8125 C5.57314941 204.48149292 5.57314941 204.48149292 4.05371094 204.14379883 C-21.17117344 198.39607709 -44.61681685 188.97076767 -67 176 C-65.79049521 169.73452021 -64.02134493 163.97535343 -61.640625 158.0625 C-61.3041243 157.21020309 -60.9676236 156.35790619 -60.6209259 155.4797821 C-59.88873954 153.6270227 -59.15359162 151.7754315 -58.415802 149.92489624 C-56.37125958 144.7953164 -54.34976697 139.65663381 -52.32421875 134.51953125 C-51.67827003 132.88405083 -51.67827003 132.88405083 -51.01927185 131.2155304 C-45.96260309 118.400304 -41.01352595 105.54381666 -36.0625 92.6875 C-34.2100775 87.88133995 -32.35700799 83.07542945 -30.50390625 78.26953125 C-29.81939896 76.49400879 -29.81939896 76.49400879 -29.12106323 74.68261719 C-24.66746497 63.13266509 -20.2018487 51.58738492 -15.72848511 40.04507446 C-14.92326062 37.96721322 -14.11833841 35.88923481 -13.31375122 33.81112671 C-12.1995903 30.93365417 -11.08432864 28.05661065 -9.96875 25.1796875 C-9.6540123 24.36638474 -9.3392746 23.55308197 -9.01499939 22.71513367 C-6.06676853 15.11946325 -3.02661931 7.56654827 0 0 Z " fill="#F7AE23" transform="translate(224,244)"/>
<path d="M0 0 C5.26855971 -0.21866914 9.8014153 0.47383238 14.8125 2 C15.54243164 2.22002686 16.27236328 2.44005371 17.02441406 2.66674805 C39.45927942 9.71408698 59.02865711 21.64124752 75 39 C75.33 39.66 75.66 40.32 76 41 C79.87911529 41.44527316 79.87911529 41.44527316 81.67578125 39.49609375 C82.48595703 38.47708984 82.48595703 38.47708984 83.3125 37.4375 C88.89784431 30.49977207 94.93640342 24.95130417 102.375 20.0625 C103.15302979 19.54816406 103.93105957 19.03382812 104.73266602 18.50390625 C119.78821257 8.78182997 137.80463065 -0.1005269 156 0 C154.44252102 16.03377186 151.64446603 31.88830782 148.99664307 47.76873779 C148.02080902 53.6274281 147.05294927 59.48744537 146.08315277 65.34713745 C145.72896284 67.48550831 145.37398159 69.6237466 145.01885986 71.76196289 C143.3759016 81.66436972 141.77462946 91.57291548 140.2237854 101.49023438 C140.07565399 102.42931641 139.92752258 103.36839844 139.77490234 104.3359375 C139.58509293 105.55095947 139.58509293 105.55095947 139.39144897 106.79052734 C139.02140978 108.87915581 138.51445562 110.94217753 138 113 C98.4 113 58.8 113 18 113 C13.40067877 88.85356354 13.40067877 88.85356354 12.0703125 80.3828125 C11.91444672 79.40722885 11.75858093 78.4316452 11.59799194 77.42649841 C11.10370005 74.32651182 10.61410239 71.2258092 10.125 68.125 C9.77944134 65.94781235 9.43373604 63.77064797 9.08789062 61.59350586 C8.05231421 55.06332004 7.02472469 48.53189658 6 42 C5.84108276 40.98766296 5.68216553 39.97532593 5.51843262 38.93231201 C4.50578393 32.4767096 3.50045803 26.02000183 2.5 19.5625 C2.37030823 18.7292218 2.24061646 17.8959436 2.10699463 17.03741455 C1.74598126 14.71411229 1.38806612 12.39035634 1.03125 10.06640625 C0.83080078 8.76646729 0.63035156 7.46652832 0.42382812 6.12719727 C0 3 0 3 0 0 Z " fill="#F7AE23" transform="translate(178,95)"/>
<path d="M0 0 C8.91 0 17.82 0 27 0 C25.10253319 5.69240042 23.18134915 11.27687637 20.98046875 16.84375 C20.68986572 17.58484009 20.3992627 18.32593018 20.09985352 19.08947754 C19.46594613 20.70584185 18.83109612 22.32183674 18.19540405 23.9375 C16.40581851 28.4873507 14.6248341 33.04056595 12.84375 37.59375 C12.45881882 38.57754639 12.07388763 39.56134277 11.67729187 40.57495117 C6.80699998 53.03435436 1.99883183 65.51774044 -2.8125 78 C-8.33624337 92.32865747 -13.86150996 106.65664636 -19.41796875 120.97265625 C-19.85035355 122.08675873 -20.28273834 123.20086121 -20.72822571 124.34872437 C-22.76244215 129.5891648 -24.79800177 134.8290794 -26.83520508 140.06835938 C-30.96076693 150.68648759 -35.03317711 161.32148856 -39 172 C-49.12908608 168.14546519 -58.38401001 160.70895396 -63.03833008 150.78637695 C-66.17334855 141.70286188 -64.17648981 132.77909339 -60.140625 124.390625 C-59.57859375 123.29234375 -59.0165625 122.1940625 -58.4375 121.0625 C-57.84764397 119.85935213 -57.26047305 118.65488472 -56.67578125 117.44921875 C-55.44137001 114.91460247 -54.1918716 112.38832987 -52.92919922 109.86767578 C-51.00404685 106.02016694 -49.12329543 102.15219937 -47.25390625 98.27734375 C-46.9453067 97.63784286 -46.63670715 96.99834198 -46.3187561 96.33946228 C-45.69365566 95.04394818 -45.06864562 93.74839044 -44.44372559 92.45278931 C-43.49328852 90.48611237 -42.53876269 88.52147059 -41.58300781 86.55737305 C-37.52210959 78.20609717 -33.56873822 69.8116764 -29.6875 61.375 C-24.43574978 49.97020361 -18.99971926 38.6618672 -13.5 27.375 C-13.1125058 26.57954773 -12.7250116 25.78409546 -12.32577515 24.96453857 C-11.20785842 22.67113665 -10.08871572 20.37833945 -8.96875 18.0859375 C-8.64211868 17.41715576 -8.31548737 16.74837402 -7.97895813 16.05932617 C-5.35054459 10.68990207 -2.67384408 5.34768816 0 0 Z " fill="#F66F23" transform="translate(191,244)"/>
<path d="M0 0 C8.91 0 17.82 0 27 0 C32.29400469 10.55275518 37.53689586 21.12658165 42.6875 31.75 C43.03137756 32.45854126 43.37525513 33.16708252 43.72955322 33.89709473 C48.91003395 44.57903141 53.95569213 55.31431926 58.91577148 66.10058594 C63.1730928 75.31640371 67.59846252 84.4439089 72.0592041 93.56259155 C74.36588789 98.28408123 76.6583399 103.01250363 78.95153809 107.74055481 C80.99196375 111.942867 83.06064626 116.12954318 85.1484375 120.30859375 C90.20626224 130.63333766 93.61056834 139.22456838 90.16796875 150.796875 C86.06345821 160.36923174 76.89388655 167.0359703 68 172 C67.34 172 66.68 172 66 172 C65.61481201 170.98429932 65.22962402 169.96859863 64.83276367 168.92211914 C56.85658875 147.89916561 48.82449129 126.89877483 40.6875 105.9375 C40.29468842 104.92555573 39.90187683 103.91361145 39.49716187 102.8710022 C37.07768209 96.63922183 34.65650692 90.4081011 32.23480225 84.17718506 C2.89488307 8.68464922 2.89488307 8.68464922 0 0 Z " fill="#F6D123" transform="translate(294,244)"/>
<path d="M0 0 C1.0809494 -0.00571014 2.1618988 -0.01142029 3.27560425 -0.01730347 C4.46680374 -0.01842133 5.65800323 -0.01953918 6.88529968 -0.02069092 C8.76100647 -0.02813828 8.76100647 -0.02813828 10.67460632 -0.03573608 C14.11068005 -0.04785878 17.54669281 -0.05530667 20.98278069 -0.05974674 C23.12930264 -0.06267659 25.27581923 -0.06678125 27.42233849 -0.07125092 C34.13765447 -0.08492867 40.85295824 -0.09459363 47.56828719 -0.09845281 C55.32117339 -0.10293262 63.0738832 -0.12047563 70.82671577 -0.1494534 C76.81829576 -0.17107089 82.80982613 -0.18115714 88.80144471 -0.18249393 C92.38036671 -0.18354203 95.95912297 -0.18945065 99.53800392 -0.20731354 C103.53148215 -0.22685743 107.52459144 -0.22250502 111.51811218 -0.21600342 C113.29580238 -0.22982559 113.29580238 -0.22982559 115.10940552 -0.243927 C116.19881439 -0.23835785 117.28822327 -0.2327887 118.41064453 -0.22705078 C119.82677017 -0.22925062 119.82677017 -0.22925062 121.2715044 -0.2314949 C125.48327974 0.36543312 128.13063524 2.43731961 131.20829773 5.26544189 C133.55243523 9.25915763 133.71739832 12.61342264 132.89579773 17.14044189 C130.74751778 20.74648323 128.74749486 22.5847957 124.89579773 24.14044189 C122.37169743 24.3977108 122.37169743 24.3977108 119.47515869 24.40786743 C118.37463165 24.4163974 117.27410461 24.42492737 116.14022827 24.43371582 C114.33616264 24.43235626 114.33616264 24.43235626 112.49565125 24.43096924 C111.22538086 24.43768646 109.95511047 24.44440369 108.64634705 24.45132446 C105.16493497 24.46898049 101.68362122 24.47367962 98.2021687 24.47495604 C96.02648157 24.47637823 93.8508194 24.48064908 91.67513847 24.48595047 C84.08322946 24.50444826 76.49139064 24.51262125 68.89945984 24.51104736 C61.82501284 24.50984548 54.7508707 24.53095732 47.67650086 24.56253469 C41.59994465 24.58869073 35.52348806 24.59941497 29.44687599 24.59813654 C25.81875922 24.59762678 22.19091351 24.60331784 18.56285286 24.62449265 C14.51680287 24.64746298 10.47143587 24.6383584 6.42533875 24.62628174 C5.22465256 24.63752075 4.02396637 24.64875977 2.78689575 24.66033936 C-5.34084079 24.59854247 -5.34084079 24.59854247 -9.30526733 22.2194519 C-12.63164088 18.37519731 -13.66327385 15.48236435 -13.56513977 10.24200439 C-12.71224109 6.35336464 -10.00596728 3.73398834 -7.10420227 1.14044189 C-4.57718959 -0.12306444 -2.82949325 0.00892599 0 0 Z " fill="#62BBE6" transform="translate(196.1042022705078,213.85955810546875)"/>
<path d="M0 0 C-1.55747898 16.03377186 -4.35553397 31.88830782 -7.00335693 47.76873779 C-7.97919098 53.6274281 -8.94705073 59.48744537 -9.91684723 65.34713745 C-10.27103716 67.48550831 -10.62601841 69.6237466 -10.98114014 71.76196289 C-12.6240984 81.66436972 -14.22537054 91.57291548 -15.7762146 101.49023438 C-15.99841171 102.89885742 -15.99841171 102.89885742 -16.22509766 104.3359375 C-16.35163727 105.14595215 -16.47817688 105.9559668 -16.60855103 106.79052734 C-16.97859022 108.87915581 -17.48554438 110.94217753 -18 113 C-26.58 113 -35.16 113 -44 113 C-43.3188351 104.82602121 -42.46741363 96.94033928 -41.109375 88.88671875 C-40.92437943 87.76559189 -40.73938385 86.64446503 -40.54878235 85.48936462 C-39.95359804 81.8879962 -39.35189955 78.28775157 -38.75 74.6875 C-38.3386272 72.20694873 -37.92774056 69.72631679 -37.51733398 67.24560547 C-36.90772634 63.56116068 -36.29780377 59.8767721 -35.6860199 56.19268799 C-34.55871054 49.40105598 -33.44555779 42.60754863 -32.36328125 35.80859375 C-32.18951462 34.7184623 -32.18951462 34.7184623 -32.01223755 33.60630798 C-31.50379923 30.41213464 -30.99854457 27.21749127 -30.49707031 24.0222168 C-30.01792538 21.01105414 -29.51201219 18.00570615 -29 15 C-28.87036865 14.11401123 -28.7407373 13.22802246 -28.60717773 12.31518555 C-27.60218403 6.44366037 -27.60218403 6.44366037 -24.71484375 4.31640625 C-23.79832031 4.06761719 -22.88179688 3.81882812 -21.9375 3.5625 C-20.95136719 3.28019531 -19.96523438 2.99789062 -18.94921875 2.70703125 C-17.97597656 2.47371094 -17.00273437 2.24039063 -16 2 C-14.77216797 1.66548828 -14.77216797 1.66548828 -13.51953125 1.32421875 C-8.91441686 0.15906933 -4.76520104 -0.02632708 0 0 Z " fill="#F7D223" transform="translate(334,95)"/>
<path d="M0 0 C5.64667148 -0.26853391 10.29143126 0.62975811 15.6875 2.25 C16.43322266 2.45496094 17.17894531 2.65992187 17.94726562 2.87109375 C19.03104492 3.19013672 19.03104492 3.19013672 20.13671875 3.515625 C21.10677856 3.79841309 21.10677856 3.79841309 22.09643555 4.08691406 C24.70326554 5.33733656 26.13022274 6.78603914 28 9 C28.8717041 11.85636902 28.8717041 11.85636902 29.40039062 15.20776367 C29.7109137 17.09835762 29.7109137 17.09835762 30.02770996 19.02714539 C30.2375444 20.40737106 30.44704841 21.78764701 30.65625 23.16796875 C30.88615019 24.60474605 31.11750098 26.0412919 31.35021973 27.47761536 C31.96148515 31.27493075 32.55313526 35.07505171 33.14068604 38.87609863 C33.72679827 42.64645202 34.33079691 46.41392536 34.93359375 50.18164062 C35.86924386 56.04174253 36.79261866 61.9036387 37.70703125 67.76708984 C38.51691635 72.95848007 39.34590001 78.14608668 40.19921875 83.33056641 C40.38311157 84.45328445 40.56700439 85.5760025 40.75646973 86.73274231 C41.09050295 88.765176 41.42793811 90.79705564 41.76989746 92.82817078 C42.87614975 99.58898838 43.42631166 106.1157399 44 113 C35.42 113 26.84 113 18 113 C15.08811954 98.07823035 12.4936097 83.1415015 10.125 68.125 C9.77944134 65.94781235 9.43373604 63.77064797 9.08789062 61.59350586 C8.05231421 55.06332004 7.02472469 48.53189658 6 42 C5.84108276 40.98766296 5.68216553 39.97532593 5.51843262 38.93231201 C4.50578393 32.4767096 3.50045803 26.02000183 2.5 19.5625 C2.37030823 18.7292218 2.24061646 17.8959436 2.10699463 17.03741455 C1.74598126 14.71411229 1.38806612 12.39035634 1.03125 10.06640625 C0.83080078 8.76646729 0.63035156 7.46652832 0.42382812 6.12719727 C0 3 0 3 0 0 Z " fill="#F77023" transform="translate(178,95)"/>
<path d="M0 0 C1.27070469 -0.00260775 2.54140938 -0.00521549 3.85062027 -0.00790226 C5.27396916 -0.00573987 6.6973179 -0.0034832 8.1206665 -0.0011425 C9.62239495 -0.00229367 11.12412311 -0.00388116 12.62585068 -0.00586975 C16.76765121 -0.01006371 20.90942884 -0.00797207 25.05122948 -0.00488353 C29.51208022 -0.00262992 33.97292691 -0.00610884 38.43377686 -0.00886345 C47.17857349 -0.01332056 55.92336156 -0.01234494 64.66815853 -0.00945081 C71.77240507 -0.00719655 78.8766492 -0.00688435 85.980896 -0.00797462 C86.99027906 -0.00812786 87.99966213 -0.00828109 89.03963256 -0.00843897 C91.08988603 -0.00875868 93.1401395 -0.00908289 95.19039297 -0.00941156 C114.43595832 -0.01226618 133.68151892 -0.00897961 152.92708349 -0.00361119 C169.45678282 0.00085683 185.98647512 0.00008089 202.51617432 -0.00452995 C221.69076274 -0.00987603 240.865347 -0.01199149 260.03993607 -0.00891769 C262.08283742 -0.00859912 264.12573878 -0.00828475 266.16864014 -0.00797462 C267.17390487 -0.00782035 268.17916961 -0.00766607 269.21489692 -0.00750712 C276.31430648 -0.00664207 283.4137134 -0.0081046 290.51312256 -0.01045418 C299.15961699 -0.01325275 307.80610233 -0.0125127 316.45259571 -0.00717343 C320.86794345 -0.0045372 325.28327602 -0.00353006 329.69862366 -0.00682259 C333.73504832 -0.00978713 337.77144365 -0.00819007 341.80786562 -0.00284503 C343.27351111 -0.00172153 344.73915905 -0.00231057 346.20480299 -0.00472082 C348.18637904 -0.0077313 350.16796197 -0.0040666 352.14953613 0 C353.25343815 0.00016235 354.35734016 0.0003247 355.49469376 0.00049198 C358.07476807 0.12584114 358.07476807 0.12584114 360.07476807 1.12584114 C360.11748907 2.79196019 360.11540639 4.45966999 360.07476807 6.12584114 C358.28949488 7.91111433 355.65107894 7.2513297 353.23855591 7.25168228 C351.96225878 7.25429003 350.68596165 7.25689778 349.37098885 7.25958455 C347.93614819 7.25742202 346.50130767 7.25516534 345.06646729 7.25282478 C343.55663961 7.25397562 342.04681221 7.25556288 340.5369854 7.25755203 C336.36819182 7.26175056 332.19942094 7.25965231 328.03062725 7.25656581 C323.54251128 7.25431405 319.05439936 7.2577902 314.56628418 7.26054573 C305.7662064 7.26500483 296.96613713 7.26402634 288.16605902 7.26113309 C281.01744358 7.2588796 273.86883053 7.2585663 266.72021484 7.25965691 C265.19717784 7.25988676 265.19717784 7.25988676 263.64337242 7.26012125 C261.58103768 7.26044096 259.51870294 7.26076517 257.45636821 7.26109384 C238.09352191 7.26394904 218.73068033 7.26066098 199.36783481 7.25529347 C182.73433623 7.2508254 166.10084464 7.25160132 149.46734619 7.25621223 C130.17631223 7.26155729 110.88528242 7.26367435 91.59424782 7.26059997 C89.53927231 7.2602814 87.4842968 7.25996703 85.42932129 7.25965691 C84.41809263 7.25950263 83.40686397 7.25934836 82.36499202 7.2591894 C75.22054055 7.25832404 68.07609169 7.25978754 60.93164062 7.26213646 C52.23129461 7.2649339 43.53095763 7.26419739 34.83061266 7.25885572 C30.38704207 7.25621793 25.94348657 7.25521492 21.49991608 7.25850487 C17.4388316 7.26146627 13.3777763 7.25987765 9.3166945 7.25452732 C7.84094276 7.25340246 6.3651886 7.25399581 4.88943839 7.2564031 C2.89662064 7.25940659 0.90379607 7.25575403 -1.08901978 7.25168228 C-2.19991911 7.25151993 -3.31081844 7.25135758 -4.45538139 7.2511903 C-6.92523193 7.12584114 -6.92523193 7.12584114 -7.92523193 6.12584114 C-7.96587025 4.45966999 -7.96795293 2.79196019 -7.92523193 1.12584114 C-5.19833227 -0.23760869 -3.05434732 0.00044921 0 0 Z " fill="#3F3678" transform="translate(79.92523193359375,471.87415885925293)"/>
<path d="M0 0 C1.44235211 4.32705633 -0.42424618 7.31040698 -2.06640625 11.3515625 C-2.57752457 12.64274239 -2.57752457 12.64274239 -3.09896851 13.96000671 C-3.84787525 15.84910952 -4.60105487 17.73652245 -5.35787964 19.62246704 C-7.01014831 23.74076962 -8.64151288 27.86724873 -10.27400208 31.99342346 C-11.14945865 34.205926 -12.02593882 36.41802374 -12.90336609 38.62974548 C-17.52871689 50.29895534 -22.04720135 62.00874486 -26.55606079 73.72335815 C-28.85917793 79.70712787 -31.16601583 85.68946275 -33.47265625 91.671875 C-33.92777084 92.85249008 -34.38288544 94.03310516 -34.85179138 95.24949646 C-39.84302175 108.19356227 -44.85724237 121.12869869 -49.875 134.0625 C-50.29208221 135.13762848 -50.70916443 136.21275696 -51.1388855 137.32046509 C-53.42529116 143.213889 -55.71232966 149.1070669 -58 155 C-61.91600342 151.3951311 -62.73416849 147.59086533 -63.26171875 142.44921875 C-63.74673469 130.6248646 -57.47087206 120.64497085 -52.37426758 110.28439331 C-47.4332618 100.23551346 -42.52815613 90.1807646 -38 79.9375 C-35.24827385 73.71866238 -32.36288807 67.60483798 -29.2878418 61.53979492 C-19.02993422 41.26933683 -9.50733432 20.63018649 0 0 Z " fill="#F6AC23" transform="translate(216,245)"/>
<path d="M0 0 C2.52874978 3.11852657 4.19312665 6.28852812 5.86328125 9.93359375 C6.41314697 11.12484863 6.9630127 12.31610352 7.52954102 13.54345703 C7.81950958 14.17689026 8.10947815 14.81032349 8.40823364 15.46295166 C9.96472521 18.86169343 11.53719547 22.25302446 13.109375 25.64453125 C13.43249161 26.34221619 13.75560822 27.03990112 14.08851624 27.75872803 C17.33488512 34.7524627 20.69128171 41.69080171 24.0625 48.625 C29.11865623 59.03280439 34.03331614 69.49937767 38.87060547 80.01074219 C42.018175 86.81883268 45.23650526 93.58639757 48.5234375 100.328125 C48.9101915 101.12145233 49.2969455 101.91477966 49.69541931 102.73214722 C51.60377227 106.64199085 53.5186254 110.54853199 55.44067383 114.45166016 C56.1414671 115.88182207 56.84223337 117.31199722 57.54296875 118.7421875 C57.86321014 119.38786682 58.18345154 120.03354614 58.51339722 120.6987915 C62.67016713 129.2000971 65.29919471 138.29234935 62.1015625 147.62109375 C61 149.8125 61 149.8125 59 153 C56.60989026 149.41483538 55.18737355 145.64279061 53.640625 141.6484375 C53.30403366 140.78742432 52.96744232 139.92641113 52.62065125 139.03930664 C51.49344796 136.1526144 50.37164835 133.26385477 49.25 130.375 C48.4501512 128.32235043 47.65009783 126.26978057 46.84985352 124.21728516 C39.11042818 104.3487652 31.4340406 84.45566607 23.77075195 64.55767822 C23.31659912 63.37848816 22.86244629 62.1992981 22.39453125 60.984375 C21.94392334 59.81436951 21.49331543 58.64436401 21.02905273 57.43890381 C17.97724776 49.5205176 14.90570719 41.61000084 11.82421875 33.703125 C10.63432915 30.64458054 9.44480459 27.58589437 8.25540161 24.52716064 C7.50742321 22.60682238 6.75767357 20.68717299 6.006073 18.76824951 C4.98138969 16.15188779 3.96270521 13.53326597 2.9453125 10.9140625 C2.64336472 10.14821838 2.34141693 9.38237427 2.03031921 8.59332275 C0.86713572 5.58452529 0 3.25580986 0 0 Z " fill="#F5AE24" transform="translate(296,247)"/>
<path d="M0 0 C1.1875 0.79166667 2.375 1.58333333 3.5625 2.375 C4.39910156 2.92800781 5.23570312 3.48101562 6.09765625 4.05078125 C8.10236482 5.39714676 10.08845272 6.77150863 12.05859375 8.16796875 C36.17887191 25.10160473 63.40637722 36.28993994 92 43 C92 43.99 92 44.98 92 46 C84.53583908 45.47630993 77.36280827 44.44346042 70.0625 42.8125 C68.57314941 42.48149292 68.57314941 42.48149292 67.05371094 42.14379883 C41.82882656 36.39607709 18.38318315 26.97076767 -4 14 C-3.71390693 12.60301364 -3.42083095 11.2074567 -3.125 9.8125 C-2.96257812 9.03519531 -2.80015625 8.25789063 -2.6328125 7.45703125 C-1.9638008 4.8594488 -1.04347512 2.46838862 0 0 Z " fill="#F36F25" transform="translate(161,406)"/>
<path d="M0 0 C3.12586967 2.77007962 4.5226864 4.62855629 5.25 8.75 C5.39953125 9.54921875 5.5490625 10.3484375 5.703125 11.171875 C5.80109375 11.77515625 5.8990625 12.3784375 6 13 C-4.58051391 19.30452691 -15.28566 24.56459416 -26.73632812 29.10205078 C-28.81513005 29.92666613 -30.88423665 30.77200937 -32.953125 31.62109375 C-50.42142381 38.63532208 -71.03673672 45 -90 45 C-90 44.34 -90 43.68 -90 43 C-84.34012261 40.88194685 -78.66775546 38.86368879 -72.8984375 37.0625 C-46.26660639 28.69923839 -22.23329161 16.86338643 0 0 Z " fill="#F4CF24" transform="translate(349,407)"/>
<path d="M0 0 C3.72901814 -0.08736736 7.45777165 -0.14051482 11.1875 -0.1875 C12.24259766 -0.21263672 13.29769531 -0.23777344 14.38476562 -0.26367188 C15.91713867 -0.27817383 15.91713867 -0.27817383 17.48046875 -0.29296875 C18.41785889 -0.3086792 19.35524902 -0.32438965 20.32104492 -0.34057617 C24.58115181 0.20101219 27.20818366 2.27238498 30.3125 5.125 C32.6566375 9.11871574 32.82160059 12.47298075 32 17 C29.85354749 20.60297385 27.85299641 22.45178354 24 24 C21.43457031 24.22705078 21.43457031 24.22705078 18.578125 24.1953125 C17.04091797 24.18564453 17.04091797 24.18564453 15.47265625 24.17578125 C14.40917969 24.15902344 13.34570312 24.14226562 12.25 24.125 C10.63158203 24.11146484 10.63158203 24.11146484 8.98046875 24.09765625 C6.32008722 24.07411305 3.66015664 24.04122799 1 24 C1.28294922 23.39309326 1.56589844 22.78618652 1.85742188 22.16088867 C2.4075293 20.95783081 2.4075293 20.95783081 2.96875 19.73046875 C3.33419922 18.93793701 3.69964844 18.14540527 4.07617188 17.32885742 C5.39749643 13.99796023 5.53340124 11.53378321 5 8 C3.16682624 4.70751892 3.16682624 4.70751892 1 2 C0.67 1.34 0.34 0.68 0 0 Z " fill="#62E0E6" transform="translate(297,214)"/>
<path d="M0 0 C1.07636719 0.00322266 2.15273437 0.00644531 3.26171875 0.00976562 C4.38964844 0.01814453 5.51757812 0.02652344 6.6796875 0.03515625 C7.81535156 0.03966797 8.95101562 0.04417969 10.12109375 0.04882812 C12.93234388 0.0606401 15.7434898 0.07711118 18.5546875 0.09765625 C18.20027588 0.62875 17.84586426 1.15984375 17.48071289 1.70703125 C17.02172607 2.4134375 16.56273926 3.11984375 16.08984375 3.84765625 C15.63230713 4.54375 15.17477051 5.23984375 14.70336914 5.95703125 C12.85660555 9.39856646 12.72202118 12.31422578 13.5546875 16.09765625 C14.46223102 18.25776057 14.46223102 18.25776057 15.58984375 20.34765625 C15.95601807 21.0540625 16.32219238 21.76046875 16.69946289 22.48828125 C16.98168701 23.019375 17.26391113 23.55046875 17.5546875 24.09765625 C13.65910662 24.21408929 9.76397492 24.28498534 5.8671875 24.34765625 C4.76439453 24.38117188 3.66160156 24.4146875 2.52539062 24.44921875 C-5.69141668 24.54851552 -5.69141668 24.54851552 -9.6328125 22.19140625 C-12.96689892 18.33996159 -14.00460252 15.45124308 -13.90625 10.19921875 C-13.05335132 6.310579 -10.34707751 3.6912027 -7.4453125 1.09765625 C-4.83580014 -0.20709993 -2.91829965 -0.01535947 0 0 Z " fill="#6276E5" transform="translate(196.4453125,213.90234375)"/>
<path d="M0 0 C1.25472107 0.00607269 1.25472107 0.00607269 2.53479004 0.01226807 C3.39286255 0.01035461 4.25093506 0.00844116 5.13500977 0.00646973 C6.95072726 0.00510763 8.76645449 0.00880579 10.58215332 0.01715088 C13.36736854 0.02785015 16.15193872 0.01725653 18.93713379 0.00445557 C20.69885397 0.00577716 22.46057374 0.00833954 24.22229004 0.01226807 C25.05877075 0.0082196 25.89525146 0.00417114 26.75708008 0 C32.6486217 0.04797473 32.6486217 0.04797473 34.87854004 2.27789307 C34.54854004 3.92789307 34.21854004 5.57789307 33.87854004 7.27789307 C20.34854004 7.27789307 6.81854004 7.27789307 -7.12145996 7.27789307 C-7.45145996 5.62789307 -7.78145996 3.97789307 -8.12145996 2.27789307 C-5.48960727 -0.35395963 -3.58277127 0.02917445 0 0 Z " fill="#3E3578" transform="translate(462.1214599609375,471.72210693359375)"/>
<path d="M0 0 C1.25472107 0.00607269 1.25472107 0.00607269 2.53479004 0.01226807 C3.39286255 0.01035461 4.25093506 0.00844116 5.13500977 0.00646973 C6.95072726 0.00510763 8.76645449 0.00880579 10.58215332 0.01715088 C13.36736854 0.02785015 16.15193872 0.01725653 18.93713379 0.00445557 C20.69885397 0.00577716 22.46057374 0.00833954 24.22229004 0.01226807 C25.05877075 0.0082196 25.89525146 0.00417114 26.75708008 0 C32.6486217 0.04797473 32.6486217 0.04797473 34.87854004 2.27789307 C34.54854004 3.92789307 34.21854004 5.57789307 33.87854004 7.27789307 C20.34854004 7.27789307 6.81854004 7.27789307 -7.12145996 7.27789307 C-7.45145996 5.62789307 -7.78145996 3.97789307 -8.12145996 2.27789307 C-5.48960727 -0.35395963 -3.58277127 0.02917445 0 0 Z " fill="#3E3578" transform="translate(23.1214599609375,471.72210693359375)"/>
<path d="M0 0 C1.14680101 3.44040303 0.87124738 4.00270384 -0.43359375 7.23046875 C-0.75263672 8.03291016 -1.07167969 8.83535156 -1.40039062 9.66210938 C-1.74263672 10.49548828 -2.08488281 11.32886719 -2.4375 12.1875 C-2.77587891 13.03248047 -3.11425781 13.87746094 -3.46289062 14.74804688 C-4.30025552 16.83556216 -5.14620197 18.91916409 -6 21 C-7.09716797 19.25683594 -7.09716797 19.25683594 -8 17 C-7.49267578 14.98535156 -7.49267578 14.98535156 -6.4453125 12.890625 C-6.07792969 12.13652344 -5.71054688 11.38242187 -5.33203125 10.60546875 C-4.93371094 9.82816406 -4.53539062 9.05085937 -4.125 8.25 C-3.73441406 7.45722656 -3.34382812 6.66445312 -2.94140625 5.84765625 C-1.97484642 3.89096197 -0.99419152 1.94276049 0 0 Z " fill="#ECA128" transform="translate(216,245)"/>
</svg>
