<?xml version="1.0" encoding="UTF-8"?>
<svg version="1.1" xmlns="http://www.w3.org/2000/svg" width="400" height="400">
<path d="M0 0 C0.99 0.33 1.98 0.66 3 1 C5.87617972 1.08662666 8.72741205 1.1154765 11.60327148 1.09765625 C12.92838981 1.09549984 12.92838981 1.09549984 14.28027821 1.09329987 C16.20940263 1.08952235 18.13852354 1.08341972 20.06763458 1.07530212 C23.16169229 1.06232978 26.25571287 1.05534789 29.34979248 1.04992676 C33.75992708 1.04166268 38.17004552 1.03097087 42.58016968 1.01831055 C53.92322006 0.98666075 65.26628406 0.97394411 76.609375 0.96875 C77.72178747 0.96820114 78.83419994 0.96765228 79.98032188 0.96708679 C104.6626386 0.96044633 129.32715895 1.29275076 154 2 C154.16762152 7.35666676 154.32818051 12.71348085 154.48217773 18.07055664 C154.53557027 19.89320583 154.5908975 21.71579941 154.64819336 23.53833008 C154.73018093 26.15694182 154.80522482 28.77567427 154.87890625 31.39453125 C154.91945885 32.61811089 154.91945885 32.61811089 154.96083069 33.8664093 C155.04887557 37.19854745 155.06287474 39.81137578 154 43 C154.66 43 155.32 43 156 43 C156.57097821 45.20234452 157.07408187 47.3889298 157.5 49.625 C157.89587313 52.00287908 157.89587313 52.00287908 159 54 C158.67 54.66 158.34 55.32 158 56 C158.66 56 159.32 56 160 56 C160.2475 56.78375 160.495 57.5675 160.75 58.375 C163.30354086 65.7802685 166.33922486 72.78298212 169.90625 79.75390625 C171.21146216 82.43425264 172.11514802 85.15583292 173 88 C174.84695539 92.88921416 174.84695539 92.88921416 178 97 C177.67 97.66 177.34 98.32 177 99 C177.66 99.33 178.32 99.66 179 100 C179 100.99 179 101.98 179 103 C179.66 103.33 180.32 103.66 181 104 C186.52449014 111.35546402 191.09027178 119.27081534 194 128 C194.66 128.33 195.32 128.66 196 129 C195.34 129.99 194.68 130.98 194 132 C194.66 132.33 195.32 132.66 196 133 C197.96634129 136.20440803 199.09968466 138.08290114 198.6875 141.875 C198.460625 142.57625 198.23375 143.2775 198 144 C198.66 144 199.32 144 200 144 C199.67 145.32 199.34 146.64 199 148 C199.99 148.33 200.98 148.66 202 149 C201.67 151.31 201.34 153.62 201 156 C201.66 156 202.32 156 203 156 C203 157.32 203 158.64 203 160 C207.67486793 160.1488256 207.67486793 160.1488256 212.25 159.375 C212.8275 159.25125 213.405 159.1275 214 159 C214.99 159.66 215.98 160.32 217 161 C217 161.66 217 162.32 217 163 C217.66 163.33 218.32 163.66 219 164 C221.75880873 167.00656074 222.36699872 168.93740343 222.29296875 172.984375 C222.28330078 173.91894531 222.27363281 174.85351562 222.26367188 175.81640625 C222.23853516 176.78449219 222.21339844 177.75257813 222.1875 178.75 C222.17396484 179.73355469 222.16042969 180.71710938 222.14648438 181.73046875 C222.11118726 184.15420415 222.06188054 186.57682145 222 189 C221.01 188.67 220.02 188.34 219 188 C219.33 188.99 219.66 189.98 220 191 C219.67 191.66 219.34 192.32 219 193 C218.34 193 217.68 193 217 193 C216.67 193.66 216.34 194.32 216 195 C211.45848221 197.61481327 207.95982808 196.84064883 203 196 C203.33 196.33 203.66 196.66 204 197 C203.5625 199.0625 203.5625 199.0625 203 201 C202.67 201 202.34 201 202 201 C201.7834375 202.60875 201.7834375 202.60875 201.5625 204.25 C201.16250558 206.91662949 200.72408076 209.41399729 200 212 C199.34 212 198.68 212 198 212 C198.99 214.475 198.99 214.475 200 217 C199.34 217 198.68 217 198 217 C197.896875 217.70125 197.79375 218.4025 197.6875 219.125 C196.90540169 222.39559295 195.52569663 225.01217743 194 228 C193.64830932 229.32860925 193.31229724 230.66158328 193 232 C191.94431362 234.33759126 190.72711335 236.44081689 189.375 238.625 C187.83298791 240.83109005 187.83298791 240.83109005 188 243 C186.66666667 244.33333333 185.33333333 245.66666667 184 247 C183.30251417 248.31747324 182.63040043 249.64914193 182 251 C181.34 251.66 180.68 252.32 180 253 C180 254.32 180 255.64 180 257 C179.34 257 178.68 257 178 257 C177.6596875 258.2065625 177.6596875 258.2065625 177.3125 259.4375 C176.2238259 262.39247257 175.05445242 264.79002543 173.5 267.5 C171.52615613 270.94848886 170.2350813 274.21756352 169 278 C167.71431182 280.5672818 166.38561497 283.10530402 165.0234375 285.6328125 C163.73543855 288.182099 163.73543855 288.182099 164 292 C163.34 292.33 162.68 292.66 162 293 C162 294.32 162 295.64 162 297 C161.34 297.33 160.68 297.66 160 298 C160.061875 299.0725 160.12375 300.145 160.1875 301.25 C159.99456691 305.10866187 159.60334924 306.28817788 157 309 C156.34 308.67 155.68 308.34 155 308 C155.33 309.65 155.66 311.3 156 313 C155.34 313 154.68 313 154 313 C154.16749756 313.978479 154.33499512 314.95695801 154.50756836 315.96508789 C155.10834715 320.19334288 155.03214865 324.29985934 154.87890625 328.55859375 C154.85529526 329.34774673 154.83168427 330.13689972 154.80735779 330.94996643 C154.73138964 333.44602521 154.6470823 335.94171979 154.5625 338.4375 C154.50921218 340.13995673 154.45647237 341.8424307 154.40429688 343.54492188 C154.27586626 347.69684086 154.13996114 351.84845437 154 356 C153.41684525 355.83766876 152.83369049 355.67533752 152.23286438 355.50808716 C148.76226419 354.71835384 145.27169193 354.85815429 141.73046875 354.8671875 C140.50009132 354.86520859 140.50009132 354.86520859 139.24485779 354.8631897 C136.55903397 354.86126656 133.87331336 354.86763721 131.1875 354.875 C130.26773376 354.87588623 129.34796753 354.87677246 128.40032959 354.87768555 C115.22010303 354.89256714 102.07273918 355.14563234 88.90185547 355.63964844 C80.20370911 355.95729366 71.51650558 356.11097448 62.8125 356.125 C61.67699707 356.12951172 60.54149414 356.13402344 59.37158203 356.13867188 C57.80512939 356.13577148 57.80512939 356.13577148 56.20703125 356.1328125 C54.83768433 356.13112061 54.83768433 356.13112061 53.44067383 356.12939453 C51 356 51 356 49.10235596 355.49801636 C46.95398497 354.98909973 45.125111 354.88568458 42.92163086 354.90234375 C42.13078598 354.90564697 41.3399411 354.9089502 40.52513123 354.91235352 C39.68023636 354.92065186 38.83534149 354.9289502 37.96484375 354.9375 C37.08977676 354.94128662 36.21470978 354.94507324 35.31312561 354.94897461 C32.52120011 354.96117777 29.72937848 354.97980906 26.9375 355 C23.25911736 355.02655187 19.58078597 355.04656509 15.90234375 355.0625 C15.05542465 355.07079834 14.20850555 355.07909668 13.33592224 355.08764648 C9.9664904 355.10177634 7.21989302 355.07329767 4 354 C4 354.66 4 355.32 4 356 C3.01 356.33 2.02 356.66 1 357 C1.33 342.81 1.66 328.62 2 314 C1.01 313.67 0.02 313.34 -1 313 C-1 311.68 -1 310.36 -1 309 C-1.33 308.34 -1.66 307.68 -2 307 C-2.89778361 304.30664917 -3.56897081 301.8016897 -4 299 C-3.67 298.34 -3.34 297.68 -3 297 C-3.99 296.67 -4.98 296.34 -6 296 C-6 295.34 -6 294.68 -6 294 C-6.66 293.34 -7.32 292.68 -8 292 C-8 290.68 -8 289.36 -8 288 C-9.06784629 285.406659 -9.997499 284.002501 -12 282 C-12 281.01 -12 280.02 -12 279 C-12.474375 278.38125 -12.94875 277.7625 -13.4375 277.125 C-15 275 -15 275 -15.5 272.4375 C-16.07843888 269.61761046 -16.92984171 268.8976451 -19 267 C-20 264 -20 264 -20 261 C-20.33 260.01 -20.66 259.02 -21 258 C-21.66 258.33 -22.32 258.66 -23 259 C-23.33 258.01 -23.66 257.02 -24 256 C-23.34 256 -22.68 256 -22 256 C-22.495 255.01 -22.495 255.01 -23 254 C-23.66 254.33 -24.32 254.66 -25 255 C-25.103125 254.46375 -25.20625 253.9275 -25.3125 253.375 C-26.19428339 250.3288392 -27.41416174 247.74472006 -29 245 C-29.99 244.67 -30.98 244.34 -32 244 C-32.12375 242.88625 -32.2475 241.7725 -32.375 240.625 C-32.6465813 236.96896323 -32.6465813 236.96896323 -35 235 C-35.495 233.4840625 -35.495 233.4840625 -36 231.9375 C-36.65752556 228.87849194 -36.65752556 228.87849194 -39 228 C-39 227.01 -39 226.02 -39 225 C-39.66 224.67 -40.32 224.34 -41 224 C-40.67 223.67 -40.34 223.34 -40 223 C-40.66 222.34 -41.32 221.68 -42 221 C-43.25714286 215.51428571 -43.25714286 215.51428571 -42 213 C-42.66 213 -43.32 213 -44 213 C-43.67 211.35 -43.34 209.7 -43 208 C-43.66 208 -44.32 208 -45 208 C-45 207.34 -45 206.68 -45 206 C-45.66 205.67 -46.32 205.34 -47 205 C-47.08159574 200.83861737 -46.98248524 197.0527516 -46 193 C-46.66 193 -47.32 193 -48 193 C-48.02481344 188.96151684 -48.0429136 184.92306353 -48.05493164 180.88452148 C-48.05994454 179.51211778 -48.06675658 178.13971938 -48.07543945 176.76733398 C-48.08763857 174.78892349 -48.09272248 172.8104732 -48.09765625 170.83203125 C-48.10289307 169.64327393 -48.10812988 168.4545166 -48.11352539 167.22973633 C-48.01199297 164.34119348 -47.59843537 161.81468739 -47 159 C-47 157.68 -47 156.36 -47 155 C-46.34 155 -45.68 155 -45 155 C-45.33 153.68 -45.66 152.36 -46 151 C-45.34 151 -44.68 151 -44 151 C-44.33 149.68 -44.66 148.36 -45 147 C-44.34 147 -43.68 147 -43 147 C-43.33 145.68 -43.66 144.36 -44 143 C-43.34 143 -42.68 143 -42 143 C-42.226875 142.319375 -42.45375 141.63875 -42.6875 140.9375 C-43.12290176 136.84472345 -41.79836785 134.66867041 -40 131 C-39.34 131 -38.68 131 -38 131 C-38.226875 130.401875 -38.45375 129.80375 -38.6875 129.1875 C-38.790625 128.465625 -38.89375 127.74375 -39 127 C-38.02149805 125.97895449 -37.02019573 124.9793879 -36 124 C-36 122.68 -36 121.36 -36 120 C-34.37873325 117.96302383 -32.71140469 115.96185416 -31 114 C-30.505 112.515 -30.505 112.515 -30 111 C-29.01 110.01 -29.01 110.01 -28 109 C-27.505 107.515 -27.505 107.515 -27 106 C-26.34 106 -25.68 106 -25 106 C-24.814375 104.88625 -24.814375 104.88625 -24.625 103.75 C-23.77764014 100.02161661 -22.7058547 97.7058547 -20 95 C-19.31974363 93.00458132 -18.65509503 91.00382009 -18 89 C-17.01642648 86.99187074 -16.01691264 84.99145391 -15 83 C-14.31867549 81.33927151 -13.65257873 79.672233 -13 78 C-12.505 76.865625 -12.01 75.73125 -11.5 74.5625 C-9.98641833 71.0950717 -9.98641833 71.0950717 -8.9375 67.8125 C-7.86847565 64.60542696 -6.45686568 61.81754911 -4.8125 58.875 C-4.544375 58.25625 -4.27625 57.6375 -4 57 C-4.33 56.34 -4.66 55.68 -5 55 C-4.34 54.67 -3.68 54.34 -3 54 C-3.33 53.01 -3.66 52.02 -4 51 C-3.34 51 -2.68 51 -2 51 C-0.52952664 47.08936776 -0.52952664 47.08936776 0 43 C0.66 43 1.32 43 2 43 C1.88194465 37.19744647 1.75771038 31.39507112 1.62768555 25.59277344 C1.58430797 23.61787538 1.542635 21.64293913 1.50268555 19.66796875 C1.44505127 16.8332161 1.3813373 13.99865622 1.31640625 11.1640625 C1.29969376 10.27756012 1.28298126 9.39105774 1.26576233 8.47769165 C1.28914789 4.10074845 1.28914789 4.10074845 0 0 Z " fill="#F8F7F6" transform="translate(122,22)"/>
<path d="M0 0 C0.99 0.33 1.98 0.66 3 1 C5.87617972 1.08662666 8.72741205 1.1154765 11.60327148 1.09765625 C12.92838981 1.09549984 12.92838981 1.09549984 14.28027821 1.09329987 C16.20940263 1.08952235 18.13852354 1.08341972 20.06763458 1.07530212 C23.16169229 1.06232978 26.25571287 1.05534789 29.34979248 1.04992676 C33.75992708 1.04166268 38.17004552 1.03097087 42.58016968 1.01831055 C53.92322006 0.98666075 65.26628406 0.97394411 76.609375 0.96875 C77.72178747 0.96820114 78.83419994 0.96765228 79.98032188 0.96708679 C104.6626386 0.96044633 129.32715895 1.29275076 154 2 C154.16762152 7.35666676 154.32818051 12.71348085 154.48217773 18.07055664 C154.53557027 19.89320583 154.5908975 21.71579941 154.64819336 23.53833008 C154.73018093 26.15694182 154.80522482 28.77567427 154.87890625 31.39453125 C154.91945885 32.61811089 154.91945885 32.61811089 154.96083069 33.8664093 C155.04887557 37.19854745 155.06287474 39.81137578 154 43 C154.66 43 155.32 43 156 43 C156.57097821 45.20234452 157.07408187 47.3889298 157.5 49.625 C157.89587313 52.00287908 157.89587313 52.00287908 159 54 C158.67 54.66 158.34 55.32 158 56 C158.66 56 159.32 56 160 56 C160.2475 56.78375 160.495 57.5675 160.75 58.375 C163.30354086 65.7802685 166.33922486 72.78298212 169.90625 79.75390625 C171.21146216 82.43425264 172.11514802 85.15583292 173 88 C174.84695539 92.88921416 174.84695539 92.88921416 178 97 C177.67 97.66 177.34 98.32 177 99 C177.66 99.33 178.32 99.66 179 100 C179 100.99 179 101.98 179 103 C179.66 103.33 180.32 103.66 181 104 C186.52449014 111.35546402 191.09027178 119.27081534 194 128 C194.66 128.33 195.32 128.66 196 129 C195.34 129.99 194.68 130.98 194 132 C194.66 132.33 195.32 132.66 196 133 C197.96634129 136.20440803 199.09968466 138.08290114 198.6875 141.875 C198.460625 142.57625 198.23375 143.2775 198 144 C198.66 144 199.32 144 200 144 C199.67 145.32 199.34 146.64 199 148 C199.99 148.33 200.98 148.66 202 149 C201.67 151.31 201.34 153.62 201 156 C201.66 156 202.32 156 203 156 C203 157.32 203 158.64 203 160 C207.67486793 160.1488256 207.67486793 160.1488256 212.25 159.375 C212.8275 159.25125 213.405 159.1275 214 159 C214.99 159.66 215.98 160.32 217 161 C217 161.66 217 162.32 217 163 C217.66 163.33 218.32 163.66 219 164 C221.75880873 167.00656074 222.36699872 168.93740343 222.29296875 172.984375 C222.28330078 173.91894531 222.27363281 174.85351562 222.26367188 175.81640625 C222.23853516 176.78449219 222.21339844 177.75257813 222.1875 178.75 C222.17396484 179.73355469 222.16042969 180.71710938 222.14648438 181.73046875 C222.11118726 184.15420415 222.06188054 186.57682145 222 189 C221.01 188.67 220.02 188.34 219 188 C219.33 188.99 219.66 189.98 220 191 C219.67 191.66 219.34 192.32 219 193 C218.34 193 217.68 193 217 193 C216.67 193.66 216.34 194.32 216 195 C211.45848221 197.61481327 207.95982808 196.84064883 203 196 C203.33 196.33 203.66 196.66 204 197 C203.5625 199.0625 203.5625 199.0625 203 201 C202.67 201 202.34 201 202 201 C201.7834375 202.60875 201.7834375 202.60875 201.5625 204.25 C201.16250558 206.91662949 200.72408076 209.41399729 200 212 C199.34 212 198.68 212 198 212 C198.99 214.475 198.99 214.475 200 217 C199.34 217 198.68 217 198 217 C197.896875 217.70125 197.79375 218.4025 197.6875 219.125 C196.90540169 222.39559295 195.52569663 225.01217743 194 228 C193.64830932 229.32860925 193.31229724 230.66158328 193 232 C191.94431362 234.33759126 190.72711335 236.44081689 189.375 238.625 C187.83298791 240.83109005 187.83298791 240.83109005 188 243 C186.66666667 244.33333333 185.33333333 245.66666667 184 247 C183.30251417 248.31747324 182.63040043 249.64914193 182 251 C181.34 251.66 180.68 252.32 180 253 C180 254.32 180 255.64 180 257 C179.34 257 178.68 257 178 257 C177.6596875 258.2065625 177.6596875 258.2065625 177.3125 259.4375 C176.2238259 262.39247257 175.05445242 264.79002543 173.5 267.5 C171.52615613 270.94848886 170.2350813 274.21756352 169 278 C167.71431182 280.5672818 166.38561497 283.10530402 165.0234375 285.6328125 C163.73543855 288.182099 163.73543855 288.182099 164 292 C163.34 292.33 162.68 292.66 162 293 C162 294.32 162 295.64 162 297 C161.34 297.33 160.68 297.66 160 298 C160.061875 299.0725 160.12375 300.145 160.1875 301.25 C159.99456691 305.10866187 159.60334924 306.28817788 157 309 C156.34 308.67 155.68 308.34 155 308 C155.33 309.65 155.66 311.3 156 313 C155.34 313 154.68 313 154 313 C154.16749756 313.978479 154.33499512 314.95695801 154.50756836 315.96508789 C155.10834715 320.19334288 155.03214865 324.29985934 154.87890625 328.55859375 C154.85529526 329.34774673 154.83168427 330.13689972 154.80735779 330.94996643 C154.73138964 333.44602521 154.6470823 335.94171979 154.5625 338.4375 C154.50921218 340.13995673 154.45647237 341.8424307 154.40429688 343.54492188 C154.27586626 347.69684086 154.13996114 351.84845437 154 356 C153.41684525 355.83766876 152.83369049 355.67533752 152.23286438 355.50808716 C148.76226419 354.71835384 145.27169193 354.85815429 141.73046875 354.8671875 C140.50009132 354.86520859 140.50009132 354.86520859 139.24485779 354.8631897 C136.55903397 354.86126656 133.87331336 354.86763721 131.1875 354.875 C130.26773376 354.87588623 129.34796753 354.87677246 128.40032959 354.87768555 C115.22010303 354.89256714 102.07273918 355.14563234 88.90185547 355.63964844 C80.20370911 355.95729366 71.51650558 356.11097448 62.8125 356.125 C61.67699707 356.12951172 60.54149414 356.13402344 59.37158203 356.13867188 C57.80512939 356.13577148 57.80512939 356.13577148 56.20703125 356.1328125 C54.83768433 356.13112061 54.83768433 356.13112061 53.44067383 356.12939453 C51 356 51 356 49.10235596 355.49801636 C46.95398497 354.98909973 45.125111 354.88568458 42.92163086 354.90234375 C42.13078598 354.90564697 41.3399411 354.9089502 40.52513123 354.91235352 C39.68023636 354.92065186 38.83534149 354.9289502 37.96484375 354.9375 C37.08977676 354.94128662 36.21470978 354.94507324 35.31312561 354.94897461 C32.52120011 354.96117777 29.72937848 354.97980906 26.9375 355 C23.25911736 355.02655187 19.58078597 355.04656509 15.90234375 355.0625 C15.05542465 355.07079834 14.20850555 355.07909668 13.33592224 355.08764648 C9.9664904 355.10177634 7.21989302 355.07329767 4 354 C4 354.66 4 355.32 4 356 C3.01 356.33 2.02 356.66 1 357 C1.33 342.81 1.66 328.62 2 314 C1.01 313.67 0.02 313.34 -1 313 C-1 311.68 -1 310.36 -1 309 C-1.33 308.34 -1.66 307.68 -2 307 C-2.89778361 304.30664917 -3.56897081 301.8016897 -4 299 C-3.67 298.34 -3.34 297.68 -3 297 C-3.99 296.67 -4.98 296.34 -6 296 C-6 295.34 -6 294.68 -6 294 C-6.66 293.34 -7.32 292.68 -8 292 C-8 290.68 -8 289.36 -8 288 C-9.06784629 285.406659 -9.997499 284.002501 -12 282 C-12 281.01 -12 280.02 -12 279 C-12.474375 278.38125 -12.94875 277.7625 -13.4375 277.125 C-15 275 -15 275 -15.5 272.4375 C-16.07843888 269.61761046 -16.92984171 268.8976451 -19 267 C-20 264 -20 264 -20 261 C-20.33 260.01 -20.66 259.02 -21 258 C-21.66 258.33 -22.32 258.66 -23 259 C-23.33 258.01 -23.66 257.02 -24 256 C-23.34 256 -22.68 256 -22 256 C-22.495 255.01 -22.495 255.01 -23 254 C-23.66 254.33 -24.32 254.66 -25 255 C-25.103125 254.46375 -25.20625 253.9275 -25.3125 253.375 C-26.19428339 250.3288392 -27.41416174 247.74472006 -29 245 C-29.99 244.67 -30.98 244.34 -32 244 C-32.12375 242.88625 -32.2475 241.7725 -32.375 240.625 C-32.6465813 236.96896323 -32.6465813 236.96896323 -35 235 C-35.495 233.4840625 -35.495 233.4840625 -36 231.9375 C-36.65752556 228.87849194 -36.65752556 228.87849194 -39 228 C-39 227.01 -39 226.02 -39 225 C-39.66 224.67 -40.32 224.34 -41 224 C-40.67 223.67 -40.34 223.34 -40 223 C-40.66 222.34 -41.32 221.68 -42 221 C-43.25714286 215.51428571 -43.25714286 215.51428571 -42 213 C-42.66 213 -43.32 213 -44 213 C-43.67 211.35 -43.34 209.7 -43 208 C-43.66 208 -44.32 208 -45 208 C-45 207.34 -45 206.68 -45 206 C-45.66 205.67 -46.32 205.34 -47 205 C-47.08159574 200.83861737 -46.98248524 197.0527516 -46 193 C-46.66 193 -47.32 193 -48 193 C-48.02481344 188.96151684 -48.0429136 184.92306353 -48.05493164 180.88452148 C-48.05994454 179.51211778 -48.06675658 178.13971938 -48.07543945 176.76733398 C-48.08763857 174.78892349 -48.09272248 172.8104732 -48.09765625 170.83203125 C-48.10289307 169.64327393 -48.10812988 168.4545166 -48.11352539 167.22973633 C-48.01199297 164.34119348 -47.59843537 161.81468739 -47 159 C-47 157.68 -47 156.36 -47 155 C-46.34 155 -45.68 155 -45 155 C-45.33 153.68 -45.66 152.36 -46 151 C-45.34 151 -44.68 151 -44 151 C-44.33 149.68 -44.66 148.36 -45 147 C-44.34 147 -43.68 147 -43 147 C-43.33 145.68 -43.66 144.36 -44 143 C-43.34 143 -42.68 143 -42 143 C-42.226875 142.319375 -42.45375 141.63875 -42.6875 140.9375 C-43.12290176 136.84472345 -41.79836785 134.66867041 -40 131 C-39.34 131 -38.68 131 -38 131 C-38.226875 130.401875 -38.45375 129.80375 -38.6875 129.1875 C-38.790625 128.465625 -38.89375 127.74375 -39 127 C-38.02149805 125.97895449 -37.02019573 124.9793879 -36 124 C-36 122.68 -36 121.36 -36 120 C-34.37873325 117.96302383 -32.71140469 115.96185416 -31 114 C-30.505 112.515 -30.505 112.515 -30 111 C-29.01 110.01 -29.01 110.01 -28 109 C-27.505 107.515 -27.505 107.515 -27 106 C-26.34 106 -25.68 106 -25 106 C-24.814375 104.88625 -24.814375 104.88625 -24.625 103.75 C-23.77764014 100.02161661 -22.7058547 97.7058547 -20 95 C-19.31974363 93.00458132 -18.65509503 91.00382009 -18 89 C-17.01642648 86.99187074 -16.01691264 84.99145391 -15 83 C-14.31867549 81.33927151 -13.65257873 79.672233 -13 78 C-12.505 76.865625 -12.01 75.73125 -11.5 74.5625 C-9.98641833 71.0950717 -9.98641833 71.0950717 -8.9375 67.8125 C-7.86847565 64.60542696 -6.45686568 61.81754911 -4.8125 58.875 C-4.544375 58.25625 -4.27625 57.6375 -4 57 C-4.33 56.34 -4.66 55.68 -5 55 C-4.34 54.67 -3.68 54.34 -3 54 C-3.33 53.01 -3.66 52.02 -4 51 C-3.34 51 -2.68 51 -2 51 C-0.52952664 47.08936776 -0.52952664 47.08936776 0 43 C0.66 43 1.32 43 2 43 C1.88194465 37.19744647 1.75771038 31.39507112 1.62768555 25.59277344 C1.58430797 23.61787538 1.542635 21.64293913 1.50268555 19.66796875 C1.44505127 16.8332161 1.3813373 13.99865622 1.31640625 11.1640625 C1.29969376 10.27756012 1.28298126 9.39105774 1.26576233 8.47769165 C1.28914789 4.10074845 1.28914789 4.10074845 0 0 Z M7 96 C6.34515625 96.50015625 5.6903125 97.0003125 5.015625 97.515625 C-13.72043268 112.47009305 -24.79483025 136.84983421 -29 160 C-29.30925709 163.47715984 -29.28568372 166.51465861 -29 170 C-24.71 170.33 -20.42 170.66 -16 171 C-14.62516319 180.34889034 -14.62516319 180.34889034 -17 184 C-19.56893838 185.28446919 -21.76576337 185.32977144 -24.625 185.5625 C-25.62789062 185.64628906 -26.63078125 185.73007813 -27.6640625 185.81640625 C-28.43492188 185.87699219 -29.20578125 185.93757813 -30 186 C-28.47650839 198.6957634 -26.65675352 210.43409189 -21 222 C-20.18595703 223.73830078 -20.18595703 223.73830078 -19.35546875 225.51171875 C-14.32557505 235.8398943 -7.56978287 244.41064366 0 253 C0.7734375 253.88816406 1.546875 254.77632812 2.34375 255.69140625 C7.45879434 261.17862732 13.31192592 265.06921402 19.66796875 268.95703125 C21.80902352 270.26977643 23.91780946 271.63753475 25.98046875 273.0703125 C34.90769561 278.77542255 45.70909949 281.8392218 56 284 C56.83660156 284.18820312 57.67320312 284.37640625 58.53515625 284.5703125 C61.0186587 285.0032527 63.29508269 285.10007339 65.8125 285.0625 C66.60269531 285.05347656 67.39289063 285.04445313 68.20703125 285.03515625 C68.79871094 285.02355469 69.39039063 285.01195312 70 285 C70.04898438 284.22914063 70.09796875 283.45828125 70.1484375 282.6640625 C70.26058594 281.15972656 70.26058594 281.15972656 70.375 279.625 C70.44460937 278.62726563 70.51421875 277.62953125 70.5859375 276.6015625 C71 274 71 274 73 272 C75.3125 271.734375 75.3125 271.734375 78 271.75 C78.886875 271.74484375 79.77375 271.7396875 80.6875 271.734375 C83 272 83 272 85 274 C85.4140625 276.8203125 85.4140625 276.8203125 85.625 280.125 C85.73714844 281.76855469 85.73714844 281.76855469 85.8515625 283.4453125 C85.90054688 284.28835938 85.94953125 285.13140625 86 286 C116.23474609 282.4594134 142.5229172 269.9406955 162.2890625 246.26953125 C175.66419982 228.52762535 183.68932432 208.07212589 186 186 C185.16855469 185.96261719 184.33710938 185.92523438 183.48046875 185.88671875 C182.39378906 185.82097656 181.30710937 185.75523437 180.1875 185.6875 C179.10855469 185.62949219 178.02960938 185.57148438 176.91796875 185.51171875 C174 185 174 185 172.1328125 183.70703125 C170.75965347 181.63782264 170.62675076 180.46735359 170.6875 178 C170.69136719 177.319375 170.69523438 176.63875 170.69921875 175.9375 C171 174 171 174 173 171 C175.8203125 170.48828125 175.8203125 170.48828125 179.125 170.3125 C180.22070312 170.24675781 181.31640625 170.18101562 182.4453125 170.11328125 C183.28835938 170.07589844 184.13140625 170.03851563 185 170 C184.02108878 157.14535001 182.573696 145.74033839 177 134 C176.4946875 132.8759375 175.989375 131.751875 175.46875 130.59375 C164.18608324 106.53825295 142.8444305 86.83584387 117.99023438 77.22265625 C102.31745691 71.65790121 102.31745691 71.65790121 86 70 C85.96261719 70.67546875 85.92523438 71.3509375 85.88671875 72.046875 C85.82097656 72.93890625 85.75523437 73.8309375 85.6875 74.75 C85.62949219 75.63171875 85.57148438 76.5134375 85.51171875 77.421875 C84.91986776 80.40371968 84.15020583 81.85963493 82 84 C80.0625 84.49609375 80.0625 84.49609375 78 84.4375 C76.9790625 84.43556641 76.9790625 84.43556641 75.9375 84.43359375 C73.36888849 83.85876335 72.5199767 83.14909092 71 81 C70.48828125 78.30078125 70.48828125 78.30078125 70.3125 75.3125 C70.24675781 74.31863281 70.18101562 73.32476562 70.11328125 72.30078125 C70.05720703 71.16189453 70.05720703 71.16189453 70 70 C46.43722581 70 24.91099329 81.73555624 7 96 Z " fill="#FC9E7D" transform="translate(122,22)"/>
<path d="M0 0 C1.04027344 1.06154297 1.04027344 1.06154297 2.1015625 2.14453125 C29.46028783 29.45525882 61.60347961 43.24950295 100.23464966 43.25003052 C133.3420235 43.16681112 161.25836019 30.81692363 186.03515625 9.08203125 C188 8 188 8 190.74609375 8.32421875 C191.48988281 8.54722656 192.23367188 8.77023437 193 9 C190.76771027 15.55968936 188.28132247 21.7236062 184.953125 27.80859375 C183.7341029 30.21306057 183.7341029 30.21306057 184 34 C183.01 34.495 183.01 34.495 182 35 C182 36.32 182 37.64 182 39 C181.01 39.495 181.01 39.495 180 40 C180.061875 41.0725 180.12375 42.145 180.1875 43.25 C179.99456691 47.10866187 179.60334924 48.28817788 177 51 C176.34 50.67 175.68 50.34 175 50 C175.33 51.65 175.66 53.3 176 55 C175.34 55 174.68 55 174 55 C174.16749756 55.978479 174.33499512 56.95695801 174.50756836 57.96508789 C175.10834715 62.19334288 175.03214865 66.29985934 174.87890625 70.55859375 C174.85529526 71.34774673 174.83168427 72.13689972 174.80735779 72.94996643 C174.73138964 75.44602521 174.6470823 77.94171979 174.5625 80.4375 C174.50921218 82.13995673 174.45647237 83.8424307 174.40429688 85.54492188 C174.27586626 89.69684086 174.13996114 93.84845437 174 98 C173.41684525 97.83766876 172.83369049 97.67533752 172.23286438 97.50808716 C168.76226419 96.71835384 165.27169193 96.85815429 161.73046875 96.8671875 C160.50009132 96.86520859 160.50009132 96.86520859 159.24485779 96.8631897 C156.55903397 96.86126656 153.87331336 96.86763721 151.1875 96.875 C150.26773376 96.87588623 149.34796753 96.87677246 148.40032959 96.87768555 C135.22010303 96.89256714 122.07273918 97.14563234 108.90185547 97.63964844 C100.20370911 97.95729366 91.51650558 98.11097448 82.8125 98.125 C81.67699707 98.12951172 80.54149414 98.13402344 79.37158203 98.13867188 C78.32728027 98.13673828 77.28297852 98.13480469 76.20703125 98.1328125 C74.83768433 98.13112061 74.83768433 98.13112061 73.44067383 98.12939453 C71 98 71 98 69.10235596 97.49801636 C66.95398497 96.98909973 65.125111 96.88568458 62.92163086 96.90234375 C61.73536354 96.90729858 61.73536354 96.90729858 60.52513123 96.91235352 C59.68023636 96.92065186 58.83534149 96.9289502 57.96484375 96.9375 C57.08977676 96.94128662 56.21470978 96.94507324 55.31312561 96.94897461 C52.52120011 96.96117777 49.72937848 96.97980906 46.9375 97 C43.25911736 97.02655187 39.58078597 97.04656509 35.90234375 97.0625 C35.05542465 97.07079834 34.20850555 97.07909668 33.33592224 97.08764648 C29.9664904 97.10177634 27.21989302 97.07329767 24 96 C24 96.66 24 97.32 24 98 C22.515 98.495 22.515 98.495 21 99 C21.33 84.81 21.66 70.62 22 56 C20.515 55.505 20.515 55.505 19 55 C19 53.68 19 52.36 19 51 C18.67 50.34 18.34 49.68 18 49 C17.10221639 46.30664917 16.43102919 43.8016897 16 41 C16.33 40.34 16.66 39.68 17 39 C15.515 38.505 15.515 38.505 14 38 C14 37.34 14 36.68 14 36 C13.34 35.34 12.68 34.68 12 34 C12 32.68 12 31.36 12 30 C10.93215371 27.406659 10.002501 26.002501 8 24 C8 23.01 8 22.02 8 21 C7.525625 20.38125 7.05125 19.7625 6.5625 19.125 C5 17 5 17 4.5 14.4375 C3.92156112 11.61761046 3.07015829 10.8976451 1 9 C-0.07077375 5.78767875 0 3.36062193 0 0 Z " fill="#D8CCC7" transform="translate(102,280)"/>
<path d="M0 0 C0.99 0.33 1.98 0.66 3 1 C5.87617972 1.08662666 8.72741205 1.1154765 11.60327148 1.09765625 C12.92838981 1.09549984 12.92838981 1.09549984 14.28027821 1.09329987 C16.20940263 1.08952235 18.13852354 1.08341972 20.06763458 1.07530212 C23.16169229 1.06232978 26.25571287 1.05534789 29.34979248 1.04992676 C33.75992708 1.04166268 38.17004552 1.03097087 42.58016968 1.01831055 C53.92322006 0.98666075 65.26628406 0.97394411 76.609375 0.96875 C77.72178747 0.96820114 78.83419994 0.96765228 79.98032188 0.96708679 C104.6626386 0.96044633 129.32715895 1.29275076 154 2 C154.16762152 7.35666676 154.32818051 12.71348085 154.48217773 18.07055664 C154.53557027 19.89320583 154.5908975 21.71579941 154.64819336 23.53833008 C154.73018093 26.15694182 154.80522482 28.77567427 154.87890625 31.39453125 C154.91945885 32.61811089 154.91945885 32.61811089 154.96083069 33.8664093 C155.04887557 37.19854745 155.06287474 39.81137578 154 43 C154.66 43 155.32 43 156 43 C156.57097821 45.20234452 157.07408187 47.3889298 157.5 49.625 C157.89587313 52.00287908 157.89587313 52.00287908 159 54 C158.67 54.66 158.34 55.32 158 56 C158.66 56 159.32 56 160 56 C160.2475 56.78375 160.495 57.5675 160.75 58.375 C163.30354086 65.7802685 166.33922486 72.78298212 169.90625 79.75390625 C171.21146216 82.43425264 172.11514802 85.15583292 173 88 C174.84695539 92.88921416 174.84695539 92.88921416 178 97 C177.34 97.99 176.68 98.98 176 100 C175.16094435 98.87926138 174.32892169 97.75325453 173.5 96.625 C173.0359375 95.99851562 172.571875 95.37203125 172.09375 94.7265625 C171 93 171 93 171 91 C170.05125 90.505 169.1025 90.01 168.125 89.5 C164.92898855 87.68102755 162.15378421 85.5817809 159.3125 83.25 C143.19963698 70.16587063 126.05433684 62.01311411 106 57 C105.34278961 56.83227585 104.68557922 56.6645517 104.00845337 56.491745 C98.72572517 55.21713387 93.75394223 54.66999834 88.328125 54.62890625 C87.53168076 54.61770248 86.73523651 54.60649872 85.91465759 54.59495544 C83.3595522 54.56785634 80.80524268 54.56130141 78.25 54.5625 C76.94042831 54.56189575 76.94042831 54.56189575 75.60440063 54.5612793 C62.20739221 54.5969665 49.6731465 55.25976919 37 60 C36.2251123 60.28939453 35.45022461 60.57878906 34.65185547 60.87695312 C19.45664022 66.76381011 5.94097195 74.76697212 -6.1953125 85.6171875 C-9 88 -9 88 -11.72265625 89.62109375 C-14.80751288 91.48894005 -16.16847029 93.94745048 -18 97 C-18.66 96.67 -19.32 96.34 -20 96 C-19.47602605 91.80820844 -17.89581406 88.60367993 -15.9765625 84.91015625 C-14.82543371 82.65854834 -13.90749286 80.35948142 -13 78 C-12.505 76.865625 -12.01 75.73125 -11.5 74.5625 C-9.98641833 71.0950717 -9.98641833 71.0950717 -8.9375 67.8125 C-7.86847565 64.60542696 -6.45686568 61.81754911 -4.8125 58.875 C-4.544375 58.25625 -4.27625 57.6375 -4 57 C-4.33 56.34 -4.66 55.68 -5 55 C-4.01 54.505 -4.01 54.505 -3 54 C-3.33 53.01 -3.66 52.02 -4 51 C-3.34 51 -2.68 51 -2 51 C-0.52952664 47.08936776 -0.52952664 47.08936776 0 43 C0.66 43 1.32 43 2 43 C1.88194465 37.19744647 1.75771038 31.39507112 1.62768555 25.59277344 C1.58430797 23.61787538 1.542635 21.64293913 1.50268555 19.66796875 C1.44505127 16.8332161 1.3813373 13.99865622 1.31640625 11.1640625 C1.29969376 10.27756012 1.28298126 9.39105774 1.26576233 8.47769165 C1.28914789 4.10074845 1.28914789 4.10074845 0 0 Z " fill="#D7CBC7" transform="translate(122,22)"/>
<path d="M0 0 C2 2 2 2 2.13525391 5.80712891 C2.09287412 7.44724562 2.03919625 9.08709433 1.9765625 10.7265625 C1.95153656 11.58937836 1.92651062 12.45219421 1.90072632 13.34115601 C1.81841184 16.10283029 1.72186733 18.86380152 1.625 21.625 C1.56677209 23.49476275 1.50946857 25.36455452 1.453125 27.234375 C1.3128161 31.8233226 1.15974165 36.4116894 1 41 C0.41684525 40.83766876 -0.16630951 40.67533752 -0.76713562 40.50808716 C-4.23773581 39.71835384 -7.72830807 39.85815429 -11.26953125 39.8671875 C-12.49990868 39.86520859 -12.49990868 39.86520859 -13.75514221 39.8631897 C-16.44096603 39.86126656 -19.12668664 39.86763721 -21.8125 39.875 C-22.73226624 39.87588623 -23.65203247 39.87677246 -24.59967041 39.87768555 C-37.77989697 39.89256714 -50.92726082 40.14563234 -64.09814453 40.63964844 C-72.79629089 40.95729366 -81.48349442 41.11097448 -90.1875 41.125 C-91.32300293 41.12951172 -92.45850586 41.13402344 -93.62841797 41.13867188 C-94.67271973 41.13673828 -95.71702148 41.13480469 -96.79296875 41.1328125 C-97.7058667 41.13168457 -98.61876465 41.13055664 -99.55932617 41.12939453 C-102 41 -102 41 -103.89764404 40.49801636 C-106.04601503 39.98909973 -107.874889 39.88568458 -110.07836914 39.90234375 C-111.26463646 39.90729858 -111.26463646 39.90729858 -112.47486877 39.91235352 C-113.31976364 39.92065186 -114.16465851 39.9289502 -115.03515625 39.9375 C-115.91022324 39.94128662 -116.78529022 39.94507324 -117.68687439 39.94897461 C-120.47879989 39.96117777 -123.27062152 39.97980906 -126.0625 40 C-129.74088264 40.02655187 -133.41921403 40.04656509 -137.09765625 40.0625 C-138.3680349 40.07494751 -138.3680349 40.07494751 -139.66407776 40.08764648 C-143.0335096 40.10177634 -145.78010698 40.07329767 -149 39 C-149 39.66 -149 40.32 -149 41 C-150.485 41.495 -150.485 41.495 -152 42 C-151.84152588 41.42926758 -151.68305176 40.85853516 -151.51977539 40.27050781 C-151.00638657 38.02789812 -150.79834104 35.96682085 -150.68359375 33.671875 C-150.64169922 32.87265625 -150.59980469 32.0734375 -150.55664062 31.25 C-150.51732422 30.425 -150.47800781 29.6 -150.4375 28.75 C-150.39431641 27.90953125 -150.35113281 27.0690625 -150.30664062 26.203125 C-150.20091457 24.13559329 -150.09998705 22.06781719 -150 20 C-148.68 19.67 -147.36 19.34 -146 19 C-146.185625 17.948125 -146.37125 16.89625 -146.5625 15.8125 C-147.03057896 11.73352617 -147.34252801 8.69992465 -144.72111511 5.38066101 C-142.55760683 3.6451167 -141.46073796 3.63524277 -138.7121582 3.65942383 C-137.85149246 3.65965042 -136.99082672 3.65987701 -136.1040802 3.66011047 C-134.71644722 3.68333626 -134.71644722 3.68333626 -133.30078125 3.70703125 C-131.87550362 3.71339851 -131.87550362 3.71339851 -130.4214325 3.71989441 C-127.38483412 3.73669516 -124.34889798 3.77435008 -121.3125 3.8125 C-119.25456687 3.82754503 -117.19662335 3.84123375 -115.13867188 3.85351562 C-110.09198716 3.88405224 -105.04673534 3.94277117 -100 4 C-100 14.23 -100 24.46 -100 35 C-115.18 35.33 -130.36 35.66 -146 36 C-146 36.33 -146 36.66 -146 37 C-114.32 37.66 -82.64 38.32 -50 39 C-50 27.45 -50 15.9 -50 4 C-35.15 4 -20.3 4 -5 4 C-4.11252807 7.54988771 -3.89454533 10.14180778 -3.9375 13.75 C-3.94652344 14.73484375 -3.95554687 15.7196875 -3.96484375 16.734375 C-3.98224609 17.85585938 -3.98224609 17.85585938 -4 19 C-2.02 18.505 -2.02 18.505 0 18 C0 12.06 0 6.12 0 0 Z " fill="#FCAD93" transform="translate(275,337)"/>
<path d="M0 0 C0.93147858 0.00359528 1.86295715 0.00719055 2.82266235 0.01089478 C3.79816544 0.01074875 4.77366852 0.01060272 5.7787323 0.01045227 C9.01987899 0.01115184 12.260969 0.01894626 15.50210571 0.02676392 C17.74270089 0.02862794 19.98329648 0.03005192 22.22389221 0.03105164 C28.13404456 0.03487804 34.04417251 0.04470936 39.95431519 0.05575562 C45.98000763 0.06596711 52.005704 0.07054869 58.03140259 0.07559204 C69.86409563 0.08633152 81.69677052 0.10340941 93.52944946 0.12442017 C93.52944946 4.08442017 93.52944946 8.04442017 93.52944946 12.12442017 C93.19944946 12.12442017 92.86944946 12.12442017 92.52944946 12.12442017 C92.52944946 9.48442017 92.52944946 6.84442017 92.52944946 4.12442017 C88.96262704 7.69124259 90.8888373 14.09299047 90.52944946 19.12442017 C74.68944946 19.12442017 58.84944946 19.12442017 42.52944946 19.12442017 C42.19944946 24.73442017 41.86944946 30.34442017 41.52944946 36.12442017 C34.71182522 36.14906264 27.89422667 36.16725261 21.0765686 36.17935181 C18.75527495 36.1843935 16.43398449 36.19122668 14.11270142 36.19985962 C10.78416152 36.21193241 7.45566344 36.21764995 4.12710571 36.22207642 C2.55993553 36.22981834 2.55993553 36.22981834 0.96110535 36.23771667 C0.00018478 36.23779221 -0.96073578 36.23786774 -1.95077515 36.23794556 C-2.80126938 36.24016617 -3.65176361 36.24238678 -4.5280304 36.24467468 C-6.47055054 36.12442017 -6.47055054 36.12442017 -7.47055054 35.12442017 C-7.57142266 32.61517863 -7.61027086 30.13405633 -7.60336304 27.62442017 C-7.60431976 26.87354126 -7.60527649 26.12266235 -7.60626221 25.34902954 C-7.60694392 23.7585339 -7.60509025 22.16803549 -7.60092163 20.57754517 C-7.59557321 18.13477362 -7.60086688 15.69218595 -7.60726929 13.24942017 C-7.6066085 11.70775309 -7.60532734 10.16608613 -7.60336304 8.62442017 C-7.60538727 7.88901001 -7.6074115 7.15359985 -7.60949707 6.39590454 C-7.57780249 -0.41529024 -6.6864524 0.01090619 0 0 Z " fill="#FECCBA" transform="translate(182.47055053710938,23.875579833984375)"/>
<path d="M0 0 C6.96008302 -0.02290338 13.92003633 -0.04283219 20.88012695 -0.05493164 C23.24992312 -0.05997341 25.61971615 -0.06680665 27.98950195 -0.07543945 C31.38754039 -0.0875119 34.78553785 -0.09322971 38.18359375 -0.09765625 C39.25024765 -0.10281754 40.31690155 -0.10797882 41.4158783 -0.11329651 C42.88729027 -0.11340981 42.88729027 -0.11340981 44.38842773 -0.11352539 C45.25668686 -0.115746 46.12494598 -0.11796661 47.01951599 -0.12025452 C49 0 49 0 50 1 C50.27462613 3.48689216 50.47336651 5.94223718 50.625 8.4375 C50.6765625 9.09298828 50.728125 9.74847656 50.78125 10.42382812 C51.31182183 18.95199002 50.54819071 27.48804086 50 36 C17.65555303 36.17208718 -14.6630883 35.67998307 -47 35 C-47 34.01 -47 33.02 -47 32 C-31.49 32 -15.98 32 0 32 C0 21.44 0 10.88 0 0 Z " fill="#FECCBA" transform="translate(175,340)"/>
<path d="M0 0 C3.5625 0.9375 3.5625 0.9375 6 3.1875 C7.7636109 6.29145518 8.06916167 7.44111841 7.5625 10.9375 C5.65063477 13.54980469 5.65063477 13.54980469 2.94140625 16.359375 C2.45160782 16.8729657 1.96180939 17.3865564 1.45716858 17.91571045 C-0.16092184 19.60326479 -1.79762095 21.27112827 -3.4375 22.9375 C-4.57324539 24.10465623 -5.70882273 25.27197602 -6.84423828 26.43945312 C-9.77430832 29.43885783 -12.727988 32.41369542 -15.69311523 35.37841797 C-17.53462002 37.22216212 -19.36790753 39.07384723 -21.20117188 40.92578125 C-22.37451326 42.10204823 -23.54832296 43.27784829 -24.72265625 44.453125 C-25.54129906 45.28254608 -25.54129906 45.28254608 -26.3764801 46.12872314 C-30.20860798 49.9375 -30.20860798 49.9375 -32.4375 49.9375 C-33.35927543 52.7028263 -33.55736312 54.31433585 -33.54760742 57.16186523 C-33.54818649 58.00962021 -33.54876556 58.85737518 -33.54936218 59.7308197 C-33.54725235 60.64336014 -33.54514252 61.55590057 -33.54296875 62.49609375 C-33.55642084 64.42774557 -33.57144327 66.35938698 -33.58789062 68.29101562 C-33.61075852 71.33736316 -33.62496929 74.38253243 -33.61254883 77.42895508 C-33.60375027 80.36886381 -33.63258404 83.30642769 -33.66796875 86.24609375 C-33.65573776 87.15660995 -33.64350677 88.06712616 -33.63090515 89.00523376 C-33.67802175 91.45885398 -33.78197479 93.57223438 -34.4375 95.9375 C-37.64646685 98.87294259 -39.19911656 99.96226767 -43.5625 99.875 C-46.52844743 98.90784323 -48.17126489 98.05748672 -50.4375 95.9375 C-50.96562195 93.77033997 -50.96562195 93.77033997 -51.00268555 91.22583008 C-51.02497726 90.27086136 -51.04726898 89.31589264 -51.07023621 88.33198547 C-51.07155045 87.30075058 -51.07286469 86.26951569 -51.07421875 85.20703125 C-51.08516068 84.14264328 -51.0961026 83.07825531 -51.1073761 81.98161316 C-51.12325607 79.72631678 -51.12843347 77.47092366 -51.1237793 75.21557617 C-51.12498963 71.77943282 -51.18463239 68.34759551 -51.24804688 64.91210938 C-51.25619299 62.71876039 -51.26086137 60.52539519 -51.26171875 58.33203125 C-51.28529953 57.31091751 -51.30888031 56.28980377 -51.33317566 55.23774719 C-51.25099215 48.79471353 -50.08952032 45.42025109 -45.50361633 40.86351013 C-44.82179794 40.22792679 -44.13997955 39.59234344 -43.4375 38.9375 C-42.05337031 37.51604513 -40.67228577 36.09161999 -39.29394531 34.66455078 C-37.78718957 33.15129378 -36.27763715 31.64081744 -34.765625 30.1328125 C-33.55927399 28.9250264 -33.55927399 28.9250264 -32.32855225 27.69284058 C-30.64230048 26.00591282 -28.95480333 24.3202291 -27.26611328 22.63574219 C-24.67754658 20.05256732 -22.09440581 17.46405197 -19.51171875 14.875 C-17.86750835 13.23144979 -16.2229881 11.58820949 -14.578125 9.9453125 C-13.8062384 9.17140167 -13.03435181 8.39749084 -12.23907471 7.60012817 C-11.52112732 6.88533295 -10.80317993 6.17053772 -10.06347656 5.43408203 C-9.11918793 4.49098679 -9.11918793 4.49098679 -8.15582275 3.52883911 C-5.28973942 0.87455866 -3.98490883 -0.07245289 0 0 Z " fill="#9F8277" transform="translate(242.4375,150.0625)"/>
<path d="M0 0 C0.99 0.33 1.98 0.66 3 1 C4.37082098 1.08806964 5.74554038 1.12199551 7.1191864 1.12025452 C8.37487427 1.12231651 8.37487427 1.12231651 9.65592957 1.12442017 C10.57086685 1.12082489 11.48580414 1.11722961 12.4284668 1.11352539 C13.39450836 1.11367142 14.36054993 1.11381744 15.35586548 1.1139679 C18.55367263 1.11327041 21.75142176 1.10548562 24.94921875 1.09765625 C27.1645352 1.09579149 29.37985206 1.09436786 31.59516907 1.09336853 C37.42966854 1.08954793 43.26414317 1.07972151 49.09863281 1.06866455 C55.05077783 1.05844063 61.00292686 1.0538688 66.95507812 1.04882812 C78.63672967 1.03809886 90.31836277 1.02102789 102 1 C102 1.33 102 1.66 102 2 C86.16 2.33 70.32 2.66 54 3 C53.67 14.22 53.34 25.44 53 37 C46.77029937 37.02292204 40.54074432 37.04284544 34.31103516 37.05493164 C32.19058741 37.05996872 30.07014315 37.06679859 27.94970703 37.07543945 C24.90656678 37.08753234 21.86347234 37.09323447 18.8203125 37.09765625 C17.86818878 37.10281754 16.91606506 37.10797882 15.93508911 37.11329651 C15.05432709 37.11337204 14.17356506 37.11344757 13.26611328 37.11352539 C12.48889923 37.115746 11.71168518 37.11796661 10.91091919 37.12025452 C9 37 9 37 7 36 C7.05220703 34.98679687 7.05220703 34.98679687 7.10546875 33.953125 C7.14607422 32.61507812 7.14607422 32.61507812 7.1875 31.25 C7.22230469 30.36828125 7.25710937 29.4865625 7.29296875 28.578125 C6.94308144 25.49911665 5.87887837 24.40420709 4 22 C2.53450802 16.88378539 2.6415348 11.46578562 2.37890625 6.1796875 C2.22493607 2.84735954 2.22493607 2.84735954 0 0 Z " fill="#FCAE91" transform="translate(122,22)"/>
<path d="M0 0 C0.86066574 0.00022659 1.72133148 0.00045319 2.608078 0.00068665 C3.99571098 0.02391243 3.99571098 0.02391243 5.41137695 0.04760742 C6.83665459 0.05397469 6.83665459 0.05397469 8.29072571 0.06047058 C11.32732408 0.07727133 14.36326022 0.11492625 17.3996582 0.15307617 C19.45759133 0.1681212 21.51553485 0.18180992 23.57348633 0.1940918 C28.62017104 0.22462841 33.66542286 0.28334734 38.7121582 0.34057617 C38.7121582 10.57057617 38.7121582 20.80057617 38.7121582 31.34057617 C23.5321582 31.67057617 8.3521582 32.00057617 -7.2878418 32.34057617 C-7.2878418 32.67057617 -7.2878418 33.00057617 -7.2878418 33.34057617 C26.3721582 34.00057617 60.0321582 34.66057617 94.7121582 35.34057617 C94.7121582 35.67057617 94.7121582 36.00057617 94.7121582 36.34057617 C79.31750772 36.92520283 63.931894 37.44011843 48.5246582 37.46557617 C47.3924585 37.47008789 46.26025879 37.47459961 45.09375 37.47924805 C44.04614502 37.47731445 42.99854004 37.47538086 41.91918945 37.47338867 C41.0062915 37.47226074 40.09339355 37.47113281 39.15283203 37.4699707 C36.7121582 37.34057617 36.7121582 37.34057617 34.81451416 36.83859253 C32.66614317 36.32967591 30.83726921 36.22626075 28.63378906 36.24291992 C27.44752174 36.24787476 27.44752174 36.24787476 26.23728943 36.25292969 C25.39239456 36.26122803 24.54749969 36.26952637 23.67700195 36.27807617 C22.80193497 36.28186279 21.92686798 36.28564941 21.02528381 36.28955078 C18.23335831 36.30175395 15.44153668 36.32038523 12.6496582 36.34057617 C8.97127557 36.36712804 5.29294418 36.38714126 1.61450195 36.40307617 C0.34412331 36.41552368 0.34412331 36.41552368 -0.95191956 36.42822266 C-4.3213514 36.44235251 -7.06794877 36.41387385 -10.2878418 35.34057617 C-10.2878418 36.00057617 -10.2878418 36.66057617 -10.2878418 37.34057617 C-11.7728418 37.83557617 -11.7728418 37.83557617 -13.2878418 38.34057617 C-13.12936768 37.76984375 -12.97089355 37.19911133 -12.80761719 36.61108398 C-12.29422837 34.36847429 -12.08618284 32.30739703 -11.97143555 30.01245117 C-11.92954102 29.21323242 -11.88764648 28.41401367 -11.84448242 27.59057617 C-11.80516602 26.76557617 -11.76584961 25.94057617 -11.7253418 25.09057617 C-11.6821582 24.25010742 -11.63897461 23.40963867 -11.59448242 22.54370117 C-11.48875637 20.47616946 -11.38782884 18.40839337 -11.2878418 16.34057617 C-9.9678418 16.01057617 -8.6478418 15.68057617 -7.2878418 15.34057617 C-7.5662793 13.76276367 -7.5662793 13.76276367 -7.8503418 12.15307617 C-8.31842076 8.07410234 -8.63036981 5.04050083 -6.00895691 1.72123718 C-3.84544862 -0.01430713 -2.74857976 -0.02418105 0 0 Z " fill="#E19B83" transform="translate(136.287841796875,340.659423828125)"/>
<path d="M0 0 C0.99 0 1.98 0 3 0 C4.05357378 7.15367744 4.32045599 14.27835896 4.5625 21.5 C4.60568359 22.70398438 4.64886719 23.90796875 4.69335938 25.1484375 C4.79873168 28.09886193 4.90085903 31.04936071 5 34 C4.34 34 3.68 34 3 34 C2.505 25.09 2.505 25.09 2 16 C1.67 20.62 1.34 25.24 1 30 C-3.80156435 30.80026072 -8.17599133 31.14650355 -12.99609375 31.1328125 C-14.12374901 31.13424759 -14.12374901 31.13424759 -15.27418518 31.13571167 C-16.85670048 31.13638905 -18.43921863 31.13456574 -20.02172852 31.13037109 C-22.42665944 31.1250241 -24.831403 31.13032725 -27.23632812 31.13671875 C-28.78125041 31.13605774 -30.32617257 31.13477612 -31.87109375 31.1328125 C-32.5817247 31.13483673 -33.29235565 31.13686096 -34.02452087 31.13894653 C-38.51628518 31.11815025 -42.48768007 30.64461713 -47 30 C-47 25.05 -47 20.1 -47 15 C-31.16 15 -15.32 15 1 15 C1 12.03 1 9.06 1 6 C1.5 2.9375 1.5 2.9375 2 1 C1.34 0.67 0.68 0.34 0 0 Z " fill="#C1ADA6" transform="translate(272,28)"/>
<path d="M0 0 C15.51 0 31.02 0 47 0 C47 5.28 47 10.56 47 16 C40.77034801 16.02466963 34.54072429 16.04284548 28.31103516 16.05493164 C26.19058741 16.05996872 24.07014315 16.06679859 21.94970703 16.07543945 C18.90656678 16.08753234 15.86347234 16.09323447 12.8203125 16.09765625 C11.86818878 16.10281754 10.91606506 16.10797882 9.93508911 16.11329651 C9.05432709 16.11337204 8.17356506 16.11344757 7.26611328 16.11352539 C6.10029221 16.11685631 6.10029221 16.11685631 4.91091919 16.12025452 C3 16 3 16 1 15 C1.01740234 14.00419922 1.01740234 14.00419922 1.03515625 12.98828125 C1.04417969 12.10527344 1.05320313 11.22226562 1.0625 10.3125 C1.07410156 9.44238281 1.08570313 8.57226562 1.09765625 7.67578125 C1.05652358 4.58832321 1.05652358 4.58832321 0 0 Z " fill="#C2ADA6" transform="translate(128,43)"/>
<path d="M0 0 C14.85 0 29.7 0 45 0 C46 4 46 4 46 16 C30.82 16 15.64 16 0 16 C0 10.72 0 5.44 0 0 Z " fill="#C1ACA6" transform="translate(225,341)"/>
<path d="M0 0 C0.86066574 0.00022659 1.72133148 0.00045319 2.608078 0.00068665 C3.99571098 0.02391243 3.99571098 0.02391243 5.41137695 0.04760742 C6.83665459 0.05397469 6.83665459 0.05397469 8.29072571 0.06047058 C11.32732408 0.07727133 14.36326022 0.11492625 17.3996582 0.15307617 C19.45759133 0.1681212 21.51553485 0.18180992 23.57348633 0.1940918 C28.61996568 0.22717947 33.66594964 0.27897155 38.7121582 0.34057617 C38.7121582 5.62057617 38.7121582 10.90057617 38.7121582 16.34057617 C32.6432322 16.36527286 26.57433537 16.3834346 20.50537109 16.39550781 C18.44026174 16.40054031 16.37515596 16.40736686 14.31005859 16.41601562 C11.34382243 16.42812853 8.37763332 16.43381529 5.41137695 16.43823242 C4.4862883 16.44339371 3.56119965 16.44855499 2.608078 16.45387268 C1.74741226 16.45394821 0.88674652 16.45402374 0 16.45410156 C-0.75722855 16.45632217 -1.51445709 16.45854279 -2.29463196 16.46083069 C-4.2878418 16.34057617 -4.2878418 16.34057617 -7.2878418 15.34057617 C-8.67245718 7.49442233 -8.67245718 7.49442233 -7.2878418 3.34057617 C-5.0307712 0.48264701 -3.6001058 -0.03167249 0 0 Z " fill="#C2ADA6" transform="translate(136.287841796875,340.659423828125)"/>
<path d="M0 0 C5.85326838 -0.02480684 11.70650582 -0.04291055 17.55981445 -0.05493164 C19.54907769 -0.05994564 21.53833727 -0.06675849 23.52758789 -0.07543945 C26.39470322 -0.08763384 29.26176962 -0.09325777 32.12890625 -0.09765625 C33.45276085 -0.10539818 33.45276085 -0.10539818 34.80335999 -0.11329651 C39.64645572 -0.11373181 44.22468478 0.18194066 49 1 C48.67 5.62 48.34 10.24 48 15 C32.16 15 16.32 15 0 15 C0 10.05 0 5.1 0 0 Z " fill="#FCAD91" transform="translate(225,28)"/>
<path d="M0 0 C0 0.66 0 1.32 0 2 C0.66 2.33 1.32 2.66 2 3 C4.75880873 6.00656074 5.36699872 7.93740343 5.29296875 11.984375 C5.28330078 12.91894531 5.27363281 13.85351562 5.26367188 14.81640625 C5.23853516 15.78449219 5.21339844 16.75257813 5.1875 17.75 C5.16719727 19.22533203 5.16719727 19.22533203 5.14648438 20.73046875 C5.11118726 23.15420415 5.06188054 25.57682145 5 28 C4.01 27.67 3.02 27.34 2 27 C2.33 27.99 2.66 28.98 3 30 C2.67 30.66 2.34 31.32 2 32 C1.34 32 0.68 32 0 32 C-0.33 32.66 -0.66 33.32 -1 34 C-5.54338031 36.61588563 -9.04074273 35.90919717 -14 35 C-15 34 -15 34 -15.11352539 30.76538086 C-15.11336631 29.33185874 -15.10767407 27.89833088 -15.09765625 26.46484375 C-15.0962413 25.71159317 -15.09482635 24.95834259 -15.09336853 24.18226624 C-15.08775376 21.7673044 -15.07519883 19.35243399 -15.0625 16.9375 C-15.0574869 15.30403779 -15.05292366 13.67057414 -15.04882812 12.03710938 C-15.03777954 8.02470415 -15.02050506 4.01236759 -15 0 C-14.21753906 -0.15210938 -13.43507813 -0.30421875 -12.62890625 -0.4609375 C-10.07618084 -0.94243975 -10.07618084 -0.94243975 -7.9375 -1.625 C-4.89066019 -2.21471093 -2.72147856 -1.36073928 0 0 Z " fill="#A58B80" transform="translate(339,183)"/>
<path d="M0 0 C0.66 0.33 1.32 0.66 2 1 C-4.02440118 8.25212275 -10.6760244 14.89579679 -17.32617188 21.56640625 C-19.26633771 23.51642064 -21.19559274 25.47684728 -23.125 27.4375 C-24.35871846 28.67773676 -25.59307042 29.91734377 -26.828125 31.15625 C-27.40314758 31.74361938 -27.97817017 32.33098877 -28.57061768 32.93615723 C-32.65726695 37 -32.65726695 37 -36 37 C-36.2475 37.5775 -36.495 38.155 -36.75 38.75 C-38 41 -38 41 -40.04974365 42.81964111 C-42.43132447 45.48221463 -42.48893734 46.61732821 -42.45410156 50.13574219 C-42.45379944 51.15649841 -42.45349731 52.17725464 -42.45318604 53.22894287 C-42.43254089 54.32386047 -42.41189575 55.41877808 -42.390625 56.546875 C-42.38496521 57.6732135 -42.37930542 58.799552 -42.37347412 59.96002197 C-42.35108545 63.55711382 -42.30088213 67.15320926 -42.25 70.75 C-42.22993833 73.1887877 -42.21168698 75.62759101 -42.1953125 78.06640625 C-42.15121244 84.04461074 -42.08427463 90.02223419 -42 96 C-43.32 95.67 -44.64 95.34 -46 95 C-46.17813849 88.1685301 -46.30034423 81.33766329 -46.38452148 74.50439453 C-46.41962741 72.18222675 -46.46732516 69.86021263 -46.52807617 67.53857422 C-46.6134261 64.19199655 -46.65278832 60.84747106 -46.68359375 57.5 C-46.71972275 56.4694751 -46.75585175 55.4389502 -46.79307556 54.37719727 C-46.7958724 49.19095479 -46.43748197 45.84621585 -43.00146484 41.83374023 C-41.68885834 40.53404529 -40.35383194 39.25669481 -39 38 C-37.61025776 36.57357019 -36.22389642 35.14384021 -34.84057617 33.71118164 C-33.32739089 32.19149607 -31.81141023 30.67458994 -30.29296875 29.16015625 C-29.08306023 27.94881264 -29.08306023 27.94881264 -27.84870911 26.71299744 C-26.15826114 25.02187355 -24.46656805 23.33199344 -22.77368164 21.64331055 C-20.1741252 19.04915298 -17.58000325 16.44964575 -14.98632812 13.84960938 C-13.33886258 12.20280389 -11.69108726 10.55630824 -10.04296875 8.91015625 C-9.26592087 8.13108414 -8.48887299 7.35201202 -7.6882782 6.54933167 C-6.61124382 5.47702553 -6.61124382 5.47702553 -5.51245117 4.38305664 C-4.8807048 3.75210587 -4.24895844 3.12115509 -3.59806824 2.47108459 C-2 1 -2 1 0 0 Z " fill="#896A61" transform="translate(238,151)"/>
<path d="M0 0 C2 2 2 2 2.13525391 5.80712891 C2.09287412 7.44724562 2.03919625 9.08709433 1.9765625 10.7265625 C1.93902359 12.02078629 1.93902359 12.02078629 1.90072632 13.34115601 C1.81841184 16.10283029 1.72186733 18.86380152 1.625 21.625 C1.56677209 23.49476275 1.50946857 25.36455452 1.453125 27.234375 C1.3128161 31.8233226 1.15974165 36.4116894 1 41 C0.43835144 40.83923477 -0.12329712 40.67846954 -0.70196533 40.51283264 C-3.11833597 39.97359198 -5.29454564 39.84123167 -7.76855469 39.79467773 C-8.70922791 39.77473251 -9.64990112 39.75478729 -10.61907959 39.73423767 C-11.62650208 39.71752518 -12.63392456 39.70081268 -13.671875 39.68359375 C-14.70942932 39.66281265 -15.74698364 39.64203156 -16.815979 39.62062073 C-20.12725258 39.55528592 -23.43860482 39.49631483 -26.75 39.4375 C-28.99610185 39.39429951 -31.24219578 39.35068473 -33.48828125 39.30664062 C-38.99210457 39.19962097 -44.49600598 39.09782478 -50 39 C-50 37.35 -50 35.7 -50 34 C-48.71834961 34.00523682 -47.43669922 34.01047363 -46.11621094 34.01586914 C-41.36019591 34.03397207 -36.60418392 34.04545142 -31.84814453 34.05493164 C-29.78987109 34.05995973 -27.73160122 34.06678306 -25.67333984 34.07543945 C-22.71450926 34.08757166 -19.75572592 34.09324357 -16.796875 34.09765625 C-15.87694763 34.10281754 -14.95702026 34.10797882 -14.00921631 34.11329651 C-12.71833099 34.11340981 -12.71833099 34.11340981 -11.40136719 34.11352539 C-10.26885529 34.11685631 -10.26885529 34.11685631 -9.11346436 34.12025452 C-6.65620508 34.04653279 -6.65620508 34.04653279 -3 33 C-3.99 26.565 -3.99 26.565 -5 20 C-3.35 19.34 -1.7 18.68 0 18 C0 12.06 0 6.12 0 0 Z " fill="#FEC2A3" transform="translate(275,337)"/>
<path d="M0 0 C0.99 0.33 1.98 0.66 3 1 C4.37082098 1.08806964 5.74554038 1.12199551 7.1191864 1.12025452 C8.37487427 1.12231651 8.37487427 1.12231651 9.65592957 1.12442017 C10.57086685 1.12082489 11.48580414 1.11722961 12.4284668 1.11352539 C13.39450836 1.11367142 14.36054993 1.11381744 15.35586548 1.1139679 C18.55367263 1.11327041 21.75142176 1.10548562 24.94921875 1.09765625 C27.1645352 1.09579149 29.37985206 1.09436786 31.59516907 1.09336853 C37.42966854 1.08954793 43.26414317 1.07972151 49.09863281 1.06866455 C55.05077783 1.05844063 61.00292686 1.0538688 66.95507812 1.04882812 C78.63672967 1.03809886 90.31836277 1.02102789 102 1 C102 1.33 102 1.66 102 2 C86.16 2.33 70.32 2.66 54 3 C53.34 4.32 52.68 5.64 52 7 C47.67668037 7.02480062 43.35339894 7.04290758 39.0300293 7.05493164 C37.56062091 7.05994669 36.09121748 7.06676033 34.62182617 7.07543945 C32.50438205 7.08762928 30.38700417 7.09325669 28.26953125 7.09765625 C26.36071167 7.10551147 26.36071167 7.10551147 24.41333008 7.11352539 C21.45736487 7.01521169 18.87588725 6.62330837 16 6 C13.98045559 6.33820153 13.98045559 6.33820153 12 7 C10.33480481 7.34060811 8.66842534 7.67558396 7 8 C6.01 10.97 5.02 13.94 4 17 C3.67 17 3.34 17 3 17 C2.92652344 15.53626953 2.92652344 15.53626953 2.8515625 14.04296875 C2.77679688 12.77066406 2.70203125 11.49835937 2.625 10.1875 C2.55539063 8.92292969 2.48578125 7.65835937 2.4140625 6.35546875 C2.23897061 2.87244766 2.23897061 2.87244766 0 0 Z " fill="#C5987F" transform="translate(122,22)"/>
<path d="M0 0 C3.28776042 0.13020833 6.57552083 0.26041667 9.86328125 0.390625 C9.86328125 5.670625 9.86328125 10.950625 9.86328125 16.390625 C-1.47677874 16.88367109 -1.47677874 16.88367109 -4.5 14.625 C-6.23794764 12.25243186 -6.65881761 11.27826625 -6.57421875 8.390625 C-6.57292969 7.730625 -6.57164062 7.070625 -6.5703125 6.390625 C-5.6588722 2.18650397 -4.33028673 0.5392636 0 0 Z " fill="#BBA7A0" transform="translate(298.13671875,191.609375)"/>
<path d="M0 0 C0.33 0 0.66 0 1 0 C1 1.65 1 3.3 1 5 C1.74765625 4.95359375 2.4953125 4.9071875 3.265625 4.859375 C11.17634546 4.56945331 11.17634546 4.56945331 14.75 6.4375 C16.39068826 9.80091094 16.14525535 12.2166184 15.75 15.87890625 C14.73947474 18.73679801 13.65822287 19.57143125 11 21 C7.28911458 21.38871006 3.74349839 21.13369637 0 21 C0 14.07 0 7.14 0 0 Z " fill="#BDA9A1" transform="translate(92,187)"/>
<path d="M0 0 C0.86625 -0.00773437 1.7325 -0.01546875 2.625 -0.0234375 C5 0.375 5 0.375 6.80078125 1.51171875 C9.33543728 5.44993024 8.1441325 10.90689251 8 15.375 C1.4 15.375 -5.2 15.375 -12 15.375 C-10.68 15.045 -9.36 14.715 -8 14.375 C-8.05220703 13.23611328 -8.05220703 13.23611328 -8.10546875 12.07421875 C-8.13253906 11.08035156 -8.15960938 10.08648437 -8.1875 9.0625 C-8.23970703 7.58330078 -8.23970703 7.58330078 -8.29296875 6.07421875 C-8 3.375 -8 3.375 -6.80078125 1.54296875 C-4.42604892 0.00274106 -2.81615143 -0.02514421 0 0 Z " fill="#A58B81" transform="translate(200,292.625)"/>
<path d="M0 0 C3.71599191 -0.20086443 4.77208445 -0.1519437 8 2 C8 1.34 8 0.68 8 0 C8.556875 0.185625 9.11375 0.37125 9.6875 0.5625 C11.98433054 1.15075898 11.98433054 1.15075898 14.19921875 0.53515625 C17.55332069 -0.10572515 20.71154488 -0.13224725 24.125 -0.125 C25.34445313 -0.12757812 26.56390625 -0.13015625 27.8203125 -0.1328125 C31 0 31 0 34 1 C35.32 1 36.64 1 38 1 C50.33333333 1 62.66666667 1 75 1 C75 1.99 75 2.98 75 4 C72.67979926 4.77340025 71.2406514 5.05141385 68.82421875 4.53515625 C65.34160727 3.87524232 62.04341984 3.86791316 58.5 3.875 C57.2109375 3.87242188 55.921875 3.86984375 54.59375 3.8671875 C51.17580239 3.89347855 51.17580239 3.89347855 48.58328247 4.50120544 C46.00666935 4.99871224 43.69421705 5.12051475 41.07373047 5.11352539 C40.1227951 5.11344986 39.17185974 5.11337433 38.19210815 5.11329651 C36.67002243 5.10555458 36.67002243 5.10555458 35.1171875 5.09765625 C34.0659671 5.0962413 33.0147467 5.09482635 31.93167114 5.09336853 C28.57941821 5.08778212 25.22723264 5.07523973 21.875 5.0625 C19.61067806 5.05748256 17.34635506 5.05292008 15.08203125 5.04882812 C10.1044627 5.03900218 5.12692873 5.02479628 0.14938354 5.00672913 C-1.56707069 5.00135538 -3.28353735 5 -5 5 C-5.66 4.01 -6.32 3.02 -7 2 C-2.25 0.875 -2.25 0.875 0 2 C0 1.34 0 0.68 0 0 Z " fill="#010000" transform="translate(133,13)"/>
<path d="M0 0 C5.28 0 10.56 0 16 0 C16.48 9 16.48 9 14.5 13.125 C11.46042303 15.40468273 9.63732716 15.69079802 5.90625 15.3984375 C4 15 4 15 1.5 13.6875 C-0.97006814 9.26196125 -0.23817761 5.00172975 0 0 Z " fill="#B0968E" transform="translate(192,92)"/>
<path d="M0 0 C16.17 0 32.34 0 49 0 C49 3.96 49 7.92 49 12 C48.67 12 48.34 12 48 12 C48 9.36 48 6.72 48 4 C46.88560547 4.16749756 45.77121094 4.33499512 44.62304688 4.50756836 C39.73375123 5.11537707 34.94759383 5.03039063 30.03125 4.87890625 C29.11033569 4.85529526 28.18942139 4.83168427 27.24060059 4.80735779 C24.32688425 4.7313708 21.41347853 4.64707087 18.5 4.5625 C16.51303555 4.50921411 14.52605637 4.45647427 12.5390625 4.40429688 C7.69251523 4.27584469 2.84622858 4.13994151 -2 4 C-1.34 2.68 -0.68 1.36 0 0 Z " fill="#FDC7AA" transform="translate(227,24)"/>
<path d="M0 0 C5.26529604 -0.02485795 10.53055735 -0.04293442 15.79589844 -0.05493164 C17.58431596 -0.05993714 19.37272943 -0.06674355 21.16113281 -0.07543945 C23.74284874 -0.08767166 26.32451021 -0.09326628 28.90625 -0.09765625 C29.69616333 -0.10281754 30.48607666 -0.10797882 31.29992676 -0.11329651 C36.28751558 -0.11379207 41.06202819 0.28930585 46 1 C45.34 1.33 44.68 1.66 44 2 C43.67 2.99 43.34 3.98 43 5 C28.48 5 13.96 5 -1 5 C-0.67 3.35 -0.34 1.7 0 0 Z " fill="#FFE0C8" transform="translate(176,24)"/>
<path d="M0 0 C0.0505963 6.37203593 0.08568957 12.7440203 0.10986328 19.11621094 C0.11993789 21.28517594 0.13359798 23.45412731 0.15087891 25.62304688 C0.17506323 28.73571126 0.18646832 31.84819651 0.1953125 34.9609375 C0.20563507 35.934935 0.21595764 36.9089325 0.22659302 37.91244507 C0.22674408 38.81322784 0.22689514 39.71401062 0.22705078 40.64208984 C0.231492 41.43706879 0.23593323 42.23204773 0.24050903 43.05111694 C0 45 0 45 -2 47 C-2.99 47 -3.98 47 -5 47 C-4.88087614 41.89529383 -4.75657902 36.79074815 -4.62768555 31.6862793 C-4.58462968 29.95324034 -4.54293686 28.22016691 -4.50268555 26.48706055 C-4.44426417 23.98215388 -4.38078526 21.47741607 -4.31640625 18.97265625 C-4.29969376 18.20977798 -4.28298126 17.44689972 -4.26576233 16.66090393 C-4.16072162 12.76325967 -3.95445987 8.88556741 -3.60522461 5.00170898 C-3.53847031 4.25896225 -3.471716 3.51621552 -3.40293884 2.7509613 C-3.26996902 2.17314407 -3.13699921 1.59532684 -3 1 C-1 0 -1 0 0 0 Z " fill="#91746A" transform="translate(208,201)"/>
<path d="M0 0 C2 2 2 2 2.13525391 5.80712891 C2.09287412 7.44724562 2.03919625 9.08709433 1.9765625 10.7265625 C1.93902359 12.02078629 1.93902359 12.02078629 1.90072632 13.34115601 C1.81841184 16.10283029 1.72186733 18.86380152 1.625 21.625 C1.56677209 23.49476275 1.50946857 25.36455452 1.453125 27.234375 C1.3128161 31.8233226 1.15974165 36.4116894 1 41 C0.43835144 40.83923477 -0.12329712 40.67846954 -0.70196533 40.51283264 C-3.11833597 39.97359198 -5.29454564 39.84123167 -7.76855469 39.79467773 C-8.70922791 39.77473251 -9.64990112 39.75478729 -10.61907959 39.73423767 C-11.62650208 39.71752518 -12.63392456 39.70081268 -13.671875 39.68359375 C-14.70942932 39.66281265 -15.74698364 39.64203156 -16.815979 39.62062073 C-20.12725258 39.55528592 -23.43860482 39.49631483 -26.75 39.4375 C-28.99610185 39.39429951 -31.24219578 39.35068473 -33.48828125 39.30664062 C-38.99210457 39.19962097 -44.49600598 39.09782478 -50 39 C-50 38.67 -50 38.34 -50 38 C-27.725 37.505 -27.725 37.505 -5 37 C-4.67 36.01 -4.34 35.02 -4 34 C-3.34 34 -2.68 34 -2 34 C-2.14183696 32.24967156 -2.28863429 30.49974466 -2.4375 28.75 C-2.51871094 27.77546875 -2.59992188 26.8009375 -2.68359375 25.796875 C-2.95074584 23.43538247 -3.35371968 21.28098935 -4 19 C-2.68 18.67 -1.36 18.34 0 18 C0 12.06 0 6.12 0 0 Z " fill="#E1BCA1" transform="translate(275,337)"/>
<path d="M0 0 C0.88945312 0.09023438 1.77890625 0.18046875 2.6953125 0.2734375 C4.875 0.625 4.875 0.625 5.875 1.625 C7.89094582 1.85927778 9.913474 2.03836124 11.9375 2.1875 C13.04222656 2.27128906 14.14695313 2.35507812 15.28515625 2.44140625 C16.13980469 2.50199219 16.99445313 2.56257813 17.875 2.625 C14.11637775 5.13074817 10.93256277 5.07720588 6.5625 5.25 C5.36113403 5.30583252 5.36113403 5.30583252 4.13549805 5.36279297 C-15.74775931 6.22066489 -15.74775931 6.22066489 -24.125 4.625 C-24.125 3.635 -24.125 2.645 -24.125 1.625 C-23.00480469 1.56441406 -21.88460937 1.50382812 -20.73046875 1.44140625 C-19.25780016 1.35698576 -17.78514456 1.27233851 -16.3125 1.1875 C-15.57451172 1.14818359 -14.83652344 1.10886719 -14.07617188 1.06835938 C-9.14587049 0.77834165 -4.91529271 -0.53022108 0 0 Z " fill="#FBE2CA" transform="translate(200.125,370.375)"/>
<path d="M0 0 C0.66 0.33 1.32 0.66 2 1 C-4.60852243 9.0065094 -12.08145736 16.19285618 -19.4375 23.5 C-20.75479059 24.81226585 -22.07184986 26.12476395 -23.38867188 27.4375 C-26.5897861 30.62768506 -29.79401865 33.81470651 -33 37 C-33.67451477 35.21098328 -33.67451477 35.21098328 -34 33 C-32.91886902 31.31086731 -32.91886902 31.31086731 -31.20776367 29.62426758 C-30.25633736 28.66856621 -30.25633736 28.66856621 -29.28569031 27.69355774 C-28.58684219 27.017379 -27.88799408 26.34120026 -27.16796875 25.64453125 C-26.46102371 24.94228928 -25.75407867 24.2400473 -25.02571106 23.51652527 C-22.75772478 21.26994201 -20.47269296 19.04156457 -18.1875 16.8125 C-16.6571205 15.29861968 -15.12780931 13.78365859 -13.59960938 12.26757812 C-10.79932151 9.50130879 -7.99869457 6.73550053 -5.18041992 3.98754883 C-4.32984261 3.15626213 -4.32984261 3.15626213 -3.46208191 2.30818176 C-2 1 -2 1 0 0 Z " fill="#8F7269" transform="translate(238,151)"/>
<path d="M0 0 C15.18 0 30.36 0 46 0 C46 0.99 46 1.98 46 3 C30.82 3 15.64 3 0 3 C0 2.01 0 1.02 0 0 Z " fill="#FEC4A4" transform="translate(128,372)"/>
<path d="M0 0 C0.66 0 1.32 0 2 0 C2.495 1.485 2.495 1.485 3 3 C-3.09953606 9.90617245 -9.37090254 16.61226939 -15.85864258 23.15380859 C-16.84126464 24.14814621 -17.81935412 25.14698036 -18.79321289 26.14990234 C-20.22365692 27.62274569 -21.66665836 29.08212836 -23.11328125 30.5390625 C-23.95673096 31.39709473 -24.80018066 32.25512695 -25.66918945 33.13916016 C-28 35 -28 35 -32 35 C-31 33 -31 33 -28 32 C-28 31.34 -28 30.68 -28 30 C-27.34 30 -26.68 30 -26 30 C-26 29.34 -26 28.68 -26 28 C-25.34 28 -24.68 28 -24 28 C-24 27.34 -24 26.68 -24 26 C-23.34 26 -22.68 26 -22 26 C-22 25.01 -22 24.02 -22 23 C-21.34 23 -20.68 23 -20 23 C-20 22.34 -20 21.68 -20 21 C-18.68 20.67 -17.36 20.34 -16 20 C-16 19.01 -16 18.02 -16 17 C-14.68 16.67 -13.36 16.34 -12 16 C-12 15.34 -12 14.68 -12 14 C-11.34 14 -10.68 14 -10 14 C-10 13.34 -10 12.68 -10 12 C-9.34 12 -8.68 12 -8 12 C-8 11.01 -8 10.02 -8 9 C-7.01 9 -6.02 9 -5 9 C-4.9175 8.443125 -4.835 7.88625 -4.75 7.3125 C-3.76104459 4.26322081 -2.15242534 2.34810037 0 0 Z " fill="#94786D" transform="translate(246,159)"/>
<path d="M0 0 C1.55471732 0.00667834 3.10941852 0.01864451 4.6640625 0.03515625 C5.44523437 0.03966797 6.22640625 0.04417969 7.03125 0.04882812 C9.11721354 0.06132962 11.20314302 0.07921492 13.2890625 0.09765625 C14.2790625 0.09765625 15.2690625 0.09765625 16.2890625 0.09765625 C17.95712073 0.22660154 19.62379972 0.37408172 21.2890625 0.53515625 C22.5884375 0.65697266 22.5884375 0.65697266 23.9140625 0.78125 C26.2890625 1.09765625 26.2890625 1.09765625 29.2890625 2.09765625 C28.03410339 3.58210754 28.03410339 3.58210754 26.2890625 5.09765625 C23.268373 5.28932962 20.47361927 5.30606985 17.46484375 5.171875 C16.60344284 5.14543411 15.74204193 5.11899323 14.85453796 5.0917511 C12.10284254 5.00396869 9.35246406 4.89482754 6.6015625 4.78515625 C4.73637534 4.7218994 2.87114046 4.66003328 1.00585938 4.59960938 C-3.56711642 4.44842483 -8.13902576 4.27808072 -12.7109375 4.09765625 C-13.0409375 3.43765625 -13.3709375 2.77765625 -13.7109375 2.09765625 C-12.75380859 2.00677734 -12.75380859 2.00677734 -11.77734375 1.9140625 C-10.53791016 1.78837891 -10.53791016 1.78837891 -9.2734375 1.66015625 C-8.44972656 1.57894531 -7.62601563 1.49773438 -6.77734375 1.4140625 C-3.42947241 0.90143948 -4.06966458 0.10709644 0 0 Z " fill="#010000" transform="translate(237.7109375,12.90234375)"/>
<path d="M0 0 C0.33 0.66 0.66 1.32 1 2 C0.67 2.66 0.34 3.32 0 4 C0.66 4 1.32 4 2 4 C2.2475 4.78375 2.495 5.5675 2.75 6.375 C5.41118691 14.09244205 8.6262067 21.57047645 12 29 C10.34385343 29.38218767 8.67542976 29.71395102 7 30 C6 29 6 29 5.9375 25.9375 C5.958125 24.968125 5.97875 23.99875 6 23 C5.36320312 22.76410156 4.72640625 22.52820313 4.0703125 22.28515625 C2 21 2 21 1.2421875 18.87109375 C1.12101562 18.06800781 0.99984375 17.26492187 0.875 16.4375 C0.53771341 14.05747874 0.53771341 14.05747874 0 12 C-0.66 11.67 -1.32 11.34 -2 11 C-2 7.7 -2 4.4 -2 1 C-1.34 0.67 -0.68 0.34 0 0 Z " fill="#DDD3CE" transform="translate(280,74)"/>
<path d="M0 0 C2.625 -0.1875 2.625 -0.1875 5 0 C5.125 7.625 5.125 7.625 4 11 C5.65 11 7.3 11 9 11 C9 7.37 9 3.74 9 0 C9.33 0 9.66 0 10 0 C10 3.96 10 7.92 10 12 C3.4 12 -3.2 12 -10 12 C-10 11.67 -10 11.34 -10 11 C-7.36 11 -4.72 11 -2 11 C-2.061875 9.1128125 -2.061875 9.1128125 -2.125 7.1875 C-2.2390374 3.70935927 -2.05925681 3.08888522 0 0 Z " fill="#C8B0AB" transform="translate(198,296)"/>
<path d="M0 0 C0.33 0 0.66 0 1 0 C1.81069405 9.55110716 2.21363091 19.03648158 2.24023438 28.61816406 C2.25018355 30.79006993 2.28146193 32.96111739 2.3125 35.1328125 C2.31901088 36.52082783 2.3242688 37.90884975 2.328125 39.296875 C2.34214355 41.15844238 2.34214355 41.15844238 2.35644531 43.05761719 C2.23881836 44.02860352 2.12119141 44.99958984 2 46 C1.01 46.66 0.02 47.32 -1 48 C-1.66 48.99 -2.32 49.98 -3 51 C-4.23595506 46.5505618 -4.23595506 46.5505618 -3.0625 43.8125 C-2.711875 43.214375 -2.36125 42.61625 -2 42 C-2 41.34 -2 40.68 -2 40 C-1.34 40 -0.68 40 0 40 C0 26.8 0 13.6 0 0 Z " fill="#F5D7BF" transform="translate(124,25)"/>
<path d="M0 0 C5.28 0 10.56 0 16 0 C16 3.3 16 6.6 16 10 C15.67 10 15.34 10 15 10 C15 7.03 15 4.06 15 1 C14.01 1 13.02 1 12 1 C12.03480469 1.62648438 12.06960937 2.25296875 12.10546875 2.8984375 C12.13253906 3.71570313 12.15960938 4.53296875 12.1875 5.375 C12.22230469 6.18710938 12.25710937 6.99921875 12.29296875 7.8359375 C12.19628906 8.55007812 12.09960938 9.26421875 12 10 C9 12 9 12 6.3125 11.625 C5.549375 11.41875 4.78625 11.2125 4 11 C3.73781251 7.85375007 3.75245633 6.38162983 5.5 3.6875 C5.995 3.130625 6.49 2.57375 7 2 C4.69 1.67 2.38 1.34 0 1 C0 0.67 0 0.34 0 0 Z " fill="#BFABA5" transform="translate(192,92)"/>
<path d="M0 0 C0.75341675 0.00142502 1.5068335 0.00285004 2.28308105 0.00431824 C3.13736694 0.00124161 3.99165283 -0.00183502 4.87182617 -0.00500488 C5.795802 0.00218063 6.71977783 0.00936615 7.67175293 0.01676941 C8.61860962 0.01722763 9.56546631 0.01768585 10.54101562 0.01815796 C12.54505667 0.02118206 14.54909534 0.02907306 16.55310059 0.04142761 C19.62789194 0.05966337 22.70238195 0.06193747 25.77722168 0.06169128 C27.72123471 0.06660718 29.66524569 0.07243582 31.60925293 0.07926941 C32.99521667 0.08093864 32.99521667 0.08093864 34.40917969 0.0826416 C35.69060852 0.09221138 35.69060852 0.09221138 36.9979248 0.10197449 C38.12804993 0.10769218 38.12804993 0.10769218 39.28100586 0.11352539 C41.14050293 0.24723816 41.14050293 0.24723816 43.14050293 1.24723816 C43.14050293 1.90723816 43.14050293 2.56723816 43.14050293 3.24723816 C19.87550293 2.75223816 19.87550293 2.75223816 -3.85949707 2.24723816 C-1.85949707 0.24723816 -1.85949707 0.24723816 0 0 Z " fill="#FFC09D" transform="translate(228.8594970703125,25.752761840820313)"/>
<path d="M0 0 C0.99 0 1.98 0 3 0 C4.05357378 7.15367744 4.32045599 14.27835896 4.5625 21.5 C4.60568359 22.70398438 4.64886719 23.90796875 4.69335938 25.1484375 C4.79873168 28.09886193 4.90085903 31.04936071 5 34 C4.34 34 3.68 34 3 34 C2.67 28.06 2.34 22.12 2 16 C1.67 20.62 1.34 25.24 1 30 C0.01 30.33 -0.98 30.66 -2 31 C-2 25.66666667 -2 20.33333333 -2 15 C-1.01 15 -0.02 15 1 15 C0.98839844 14.40832031 0.97679687 13.81664062 0.96484375 13.20703125 C0.91677614 8.99768215 0.93993117 5.1077667 2 1 C1.34 0.67 0.68 0.34 0 0 Z " fill="#D4B49D" transform="translate(272,28)"/>
<path d="M0 0 C1.32 0.66 2.64 1.32 4 2 C4 2.33 4 2.66 4 3 C21.82 3.33 39.64 3.66 58 4 C58 4.33 58 4.66 58 5 C50.36464676 5.16811334 42.72915363 5.32802473 35.09350586 5.48217773 C32.49483328 5.53561628 29.89619891 5.59094704 27.29760742 5.64819336 C23.56697835 5.73005223 19.83626574 5.80515196 16.10546875 5.87890625 C14.93976852 5.90594131 13.7740683 5.93297638 12.57304382 5.96083069 C10.9517028 5.99097511 10.9517028 5.99097511 9.29760742 6.02172852 C8.34496506 6.04171402 7.39232269 6.06169952 6.41081238 6.08229065 C4 6 4 6 1 5 C1 5.66 1 6.32 1 7 C0.01 7.33 -0.98 7.66 -2 8 C-1.34 5.36 -0.68 2.72 0 0 Z " fill="#E6C1A1" transform="translate(125,371)"/>
<path d="M0 0 C0.66 0.33 1.32 0.66 2 1 C-1.88934426 15.36065574 -1.88934426 15.36065574 -7 21 C-8.61472474 10.98434247 -8.61472474 10.98434247 -6 7 C-3.875 6.1875 -3.875 6.1875 -2 6 C-2 5.01 -2 4.02 -2 3 C-1.34 3 -0.68 3 0 3 C0 2.01 0 1.02 0 0 Z " fill="#E5D9D0" transform="translate(120,80)"/>
<path d="M0 0 C0.33 0 0.66 0 1 0 C1.33 7.59 1.66 15.18 2 23 C2.66 23 3.32 23 4 23 C3.67 25.64 3.34 28.28 3 31 C-0.74464227 27.25535773 -1.9235797 22.13177649 -2.05126953 16.89892578 C-1.77265011 3.54530022 -1.77265011 3.54530022 0 0 Z " fill="#F0DBCE" transform="translate(274,42)"/>
<path d="M0 0 C0.99 0 1.98 0 3 0 C2.48257177 5.30363934 0.67389377 8.51475883 -2 13 C-2 13.66 -2 14.32 -2 15 C-3.9375 14.6875 -3.9375 14.6875 -6 14 C-7 11 -7 11 -5.8125 8.125 C-4.07056112 5.1216571 -2.37999359 2.52874319 0 0 Z " fill="#E8DFDA" transform="translate(288,297)"/>
<path d="M0 0 C2.79192205 -0.05380578 5.5828141 -0.09357669 8.375 -0.125 C9.1690625 -0.14175781 9.963125 -0.15851563 10.78125 -0.17578125 C12.85492015 -0.19335473 14.92883241 -0.10335168 17 0 C19 2 19 2 19 5 C12.73 5 6.46 5 0 5 C0 4.67 0 4.34 0 4 C4.455 3.505 4.455 3.505 9 3 C6.03 2.67 3.06 2.34 0 2 C0 1.34 0 0.68 0 0 Z " fill="#F4D8BF" transform="translate(206,371)"/>
<path d="M0 0 C0.66 0 1.32 0 2 0 C2 0.66 2 1.32 2 2 C2.99 2 3.98 2 5 2 C4.1654738 4.50357861 3.20628008 6.66785852 2 9 C1.34 8.67 0.68 8.34 0 8 C0.33 9.65 0.66 11.3 1 13 C-0.32 13.33 -1.64 13.66 -3 14 C-3.57293869 4.26004228 -3.57293869 4.26004228 0 0 Z " fill="#D1C9C2" transform="translate(277,322)"/>
<path d="M0 0 C1 4 1 4 0 6 C0.66 6.33 1.32 6.66 2 7 C1.67 12.94 1.34 18.88 1 25 C0.34 25 -0.32 25 -1 25 C-1 20.38 -1 15.76 -1 11 C-1.66 11 -2.32 11 -3 11 C-2.01 7.37 -1.02 3.74 0 0 Z " fill="#EBDACE" transform="translate(274,330)"/>
<path d="M0 0 C5.5398318 5.5398318 7.25352848 7.28646096 8 15 C6.68 14.67 5.36 14.34 4 14 C4 13.34 4 12.68 4 12 C3.525625 11.525625 3.05125 11.05125 2.5625 10.5625 C1 9 1 9 0 6 C0 4 0 2 0 0 Z " fill="#E2DDD3" transform="translate(102,280)"/>
<path d="M0 0 C3.69837969 1.23279323 4.355774 2.89059739 6.15625 6.21875 C7.05479059 8.11566903 7.54575379 9.95589204 8 12 C8.66 12.66 9.32 13.32 10 14 C9.01 15.485 9.01 15.485 8 17 C7.16094435 15.87926138 6.32892169 14.75325453 5.5 13.625 C4.80390625 12.68527344 4.80390625 12.68527344 4.09375 11.7265625 C3 10 3 10 3 8 C2.01 7.67 1.02 7.34 0 7 C0 4.69 0 2.38 0 0 Z " fill="#EDE7E6" transform="translate(290,105)"/>
<path d="M0 0 C0.33 0 0.66 0 1 0 C1.81289372 3.59902137 2.18960958 6.99865158 2.25 10.6875 C2.27578125 11.64011719 2.3015625 12.59273437 2.328125 13.57421875 C2.21984375 14.37472656 2.1115625 15.17523438 2 16 C1.01 16.66 0.02 17.32 -1 18 C-1.66 18.99 -2.32 19.98 -3 21 C-4.23595506 16.5505618 -4.23595506 16.5505618 -3.0625 13.8125 C-2.5365625 12.9153125 -2.5365625 12.9153125 -2 12 C-2 11.34 -2 10.68 -2 10 C-1.34 10 -0.68 10 0 10 C0 6.7 0 3.4 0 0 Z " fill="#E2D7CD" transform="translate(124,55)"/>
<path d="M0 0 C-0.95132813 0.33644531 -0.95132813 0.33644531 -1.921875 0.6796875 C-4.22016157 1.83785757 -4.22016157 1.83785757 -4.828125 4.3828125 C-4.96734375 5.28773438 -5.1065625 6.19265625 -5.25 7.125 C-5.39953125 8.03507812 -5.5490625 8.94515625 -5.703125 9.8828125 C-5.80109375 10.58148438 -5.8990625 11.28015625 -6 12 C-7.32 12 -8.64 12 -10 12 C-10 8.37 -10 4.74 -10 1 C-9.34 1.66 -8.68 2.32 -8 3 C-7.608125 2.505 -7.21625 2.01 -6.8125 1.5 C-4.44908285 -0.45593143 -2.98564997 -0.24207973 0 0 Z " fill="#B19D99" transform="translate(202,295)"/>
<path d="M0 0 C0.66 0 1.32 0 2 0 C1.62257767 6.16456476 -0.15870308 9.17375515 -4 14 C-4.66 13.67 -5.32 13.34 -6 13 C-5.53198701 8.00786149 -3.08284263 3.87036007 0 0 Z " fill="#F8F2E7" transform="translate(108,105)"/>
<path d="M0 0 C2.64 0 5.28 0 8 0 C7.54625 0.7425 7.0925 1.485 6.625 2.25 C5.31359204 4.46930578 4.11719197 6.67967822 3 9 C2.67 8.67 2.34 8.34 2 8 C1.34 8.66 0.68 9.32 0 10 C0 6.7 0 3.4 0 0 Z " fill="#AF9F9B" transform="translate(192,93)"/>
<path d="M0 0 C0.99 0.33 1.98 0.66 3 1 C4.1577506 4.47325181 4.06866652 7.36067448 4 11 C2.35 11 0.7 11 -1 11 C-0.67 7.37 -0.34 3.74 0 0 Z " fill="#AF9D9A" transform="translate(203,296)"/>
<path d="M0 0 C1.4540625 0.0309375 1.4540625 0.0309375 2.9375 0.0625 C2.091875 0.97 1.24625 1.8775 0.375 2.8125 C-1.02639357 4.40963449 -1.02639357 4.40963449 -2.0625 6.0625 C-1.92608623 8.28108253 -1.92608623 8.28108253 -1.0625 10.0625 C-1.3925 10.7225 -1.7225 11.3825 -2.0625 12.0625 C-1.66311233 14.16071215 -1.66311233 14.16071215 -1.0625 16.0625 C-2.0525 15.7325 -3.0425 15.4025 -4.0625 15.0625 C-4.08935412 12.75006208 -4.10882841 10.4375373 -4.125 8.125 C-4.13660156 6.83722656 -4.14820312 5.54945313 -4.16015625 4.22265625 C-4.03220921 0.08228998 -4.03220921 0.08228998 0 0 Z " fill="#FDC5A3" transform="translate(129.0625,355.9375)"/>
<path d="M0 0 C0.99 0 1.98 0 3 0 C3 4.95 3 9.9 3 15 C2.01 15.33 1.02 15.66 0 16 C0 10.66666667 0 5.33333333 0 0 Z " fill="#D6BEB3" transform="translate(270,43)"/>
<path d="M0 0 C0.99 0.495 0.99 0.495 2 1 C2.33 1.99 2.66 2.98 3 4 C4.45880109 3.85892253 5.91703551 3.71197585 7.375 3.5625 C8.18710938 3.48128906 8.99921875 3.40007812 9.8359375 3.31640625 C12.04272805 3.10909886 12.04272805 3.10909886 14 2 C12.125 5.875 12.125 5.875 11 7 C3.54135338 7.36090226 3.54135338 7.36090226 0 5 C-0.1875 2.375 -0.1875 2.375 0 0 Z " fill="#AA8A80" transform="translate(193,100)"/>
<path d="M0 0 C0.99 0 1.98 0 3 0 C3 4.95 3 9.9 3 15 C2.34 15 1.68 15 1 15 C0.67 10.05 0.34 5.1 0 0 Z " fill="#D5BDB4" transform="translate(270,341)"/>
<path d="M0 0 C0.66 0 1.32 0 2 0 C2 1.32 2 2.64 2 4 C2.66 4.33 3.32 4.66 4 5 C3.01 5.495 3.01 5.495 2 6 C2 7.32 2 8.64 2 10 C1.01 10 0.02 10 -1 10 C-2.38125018 7.23749964 -2.19079306 5.05268901 -2 2 C-1.34 1.34 -0.68 0.68 0 0 Z " fill="#EFE5DF" transform="translate(280,314)"/>
<path d="M0 0 C0.99 0.33 1.98 0.66 3 1 C2.690625 1.7425 2.38125 2.485 2.0625 3.25 C0.95610347 5.87403082 0.95610347 5.87403082 0.5625 8.25 C0.376875 8.8275 0.19125 9.405 0 10 C-0.99 10.33 -1.98 10.66 -3 11 C-3.80967438 8.08517222 -4.21845993 6.53886783 -3.0625 3.6875 C-2.711875 3.130625 -2.36125 2.57375 -2 2 C-1.34 2 -0.68 2 0 2 C0 1.34 0 0.68 0 0 Z " fill="#DC9775" transform="translate(310,255)"/>
<path d="M0 0 C1.32 0.66 2.64 1.32 4 2 C4 2.33 4 2.66 4 3 C6.64 3.33 9.28 3.66 12 4 C12 4.33 12 4.66 12 5 C10.741875 5.185625 9.48375 5.37125 8.1875 5.5625 C7.12595703 5.71912109 7.12595703 5.71912109 6.04296875 5.87890625 C4 6 4 6 1 5 C1 5.66 1 6.32 1 7 C0.01 7.33 -0.98 7.66 -2 8 C-1.34 5.36 -0.68 2.72 0 0 Z " fill="#BA997A" transform="translate(125,371)"/>
<path d="M0 0 C2.0625 0.4375 2.0625 0.4375 4 1 C3.50886719 1.55171875 3.01773438 2.1034375 2.51171875 2.671875 C0.69890576 5.46370069 0.6827049 6.96185741 0.8125 10.25 C0.83957031 11.14203125 0.86664063 12.0340625 0.89453125 12.953125 C0.92933594 13.62859375 0.96414062 14.3040625 1 15 C0.34 14.67 -0.32 14.34 -1 14 C-1.02685938 11.85423363 -1.04633088 9.70837355 -1.0625 7.5625 C-1.07410156 6.36753906 -1.08570312 5.17257812 -1.09765625 3.94140625 C-1 1 -1 1 0 0 Z " fill="#D6BDB2" transform="translate(128,341)"/>
<path d="M0 0 C2.475 0.99 2.475 0.99 5 2 C5 3.32 5 4.64 5 6 C5.66 6.33 6.32 6.66 7 7 C7.99 8.485 7.99 8.485 9 10 C7.35 9.67 5.7 9.34 4 9 C4 8.01 4 7.02 4 6 C2.68 5.67 1.36 5.34 0 5 C0 3.35 0 1.7 0 0 Z " fill="#F1B399" transform="translate(296,119)"/>
<path d="M0 0 C3.01327566 1.50663783 3.61056618 4.03166411 5 7 C3.34385343 7.38218767 1.67542976 7.71395102 0 8 C-1 7 -1 7 -1.125 4 C-1 1 -1 1 0 0 Z " fill="#EFE5DF" transform="translate(287,96)"/>
<path d="M0 0 C0.90492188 0.02320312 1.80984375 0.04640625 2.7421875 0.0703125 C4.10730469 0.09738281 4.10730469 0.09738281 5.5 0.125 C6.19867188 0.14820312 6.89734375 0.17140625 7.6171875 0.1953125 C5.6171875 2.1953125 5.6171875 2.1953125 2.4921875 2.3203125 C1.5434375 2.2790625 0.5946875 2.2378125 -0.3828125 2.1953125 C-1.3728125 4.8353125 -2.3628125 7.4753125 -3.3828125 10.1953125 C-3.7128125 10.1953125 -4.0428125 10.1953125 -4.3828125 10.1953125 C-4.578125 4.140625 -4.578125 4.140625 -4.3828125 2.1953125 C-2.3828125 0.1953125 -2.3828125 0.1953125 0 0 Z " fill="#FFBD97" transform="translate(130.3828125,26.8046875)"/>
<path d="M0 0 C2.67927341 4.01891012 2.15601248 6.24161923 2 11 C0.35 9.35 -1.3 7.7 -3 6 C-2.01 4.02 -1.02 2.04 0 0 Z " fill="#F3E8DF" transform="translate(124,328)"/>
<path d="M0 0 C1.32 0.66 2.64 1.32 4 2 C3.67 3.98 3.34 5.96 3 8 C2.34 8 1.68 8 1 8 C1 8.66 1 9.32 1 10 C0.01 9.67 -0.98 9.34 -2 9 C-2 8.34 -2 7.68 -2 7 C-1.01 7 -0.02 7 1 7 C0.67 4.69 0.34 2.38 0 0 Z " fill="#D0C4BA" transform="translate(109,288)"/>
<path d="M0 0 C1.98 0.495 1.98 0.495 4 1 C3.34 3.31 2.68 5.62 2 8 C1.01 7.67 0.02 7.34 -1 7 C-0.67 4.69 -0.34 2.38 0 0 Z " fill="#F9F4F2" transform="translate(291,288)"/>
<path d="M0 0 C3.125 6.25 3.125 6.25 2.5625 10.625 C2.40974609 11.85089844 2.40974609 11.85089844 2.25390625 13.1015625 C2.17011719 13.72804688 2.08632812 14.35453125 2 15 C1.34 14.67 0.68 14.34 0 14 C0 9.38 0 4.76 0 0 Z " fill="#D5BCB1" transform="translate(127,43)"/>
<path d="M0 0 C0.66 0 1.32 0 2 0 C1.67 4.62 1.34 9.24 1 14 C0.34 14 -0.32 14 -1 14 C-1.027193 12.41676312 -1.04648306 10.83338938 -1.0625 9.25 C-1.07410156 8.36828125 -1.08570313 7.4865625 -1.09765625 6.578125 C-1.00826198 4.2181162 -0.66912821 2.25501476 0 0 Z " fill="#FEBF9E" transform="translate(272,29)"/>
<path d="M0 0 C2 2 2 2 2.125 5.625 C2.08375 6.73875 2.0425 7.8525 2 9 C1.34 9 0.68 9 0 9 C-1.0625 7.125 -1.0625 7.125 -2 5 C-1.67 4.34 -1.34 3.68 -1 3 C-1.66 2.67 -2.32 2.34 -3 2 C-2.01 1.34 -1.02 0.68 0 0 Z " fill="#F1E3DE" transform="translate(120,316)"/>
<path d="M0 0 C3 1 3 1 4.25 2.9375 C4.4975 3.618125 4.745 4.29875 5 5 C4.67 5.66 4.34 6.32 4 7 C2.68 7 1.36 7 0 7 C0 4.69 0 2.38 0 0 Z " fill="#FBF4F3" transform="translate(290,105)"/>
<path d="M0 0 C2.64 0 5.28 0 8 0 C8 0.33 8 0.66 8 1 C7.030625 1.309375 6.06125 1.61875 5.0625 1.9375 C2.15934208 2.69523342 2.15934208 2.69523342 1 4 C0.76712992 5.68183948 0.58735834 7.3712416 0.4375 9.0625 C0.35371094 9.98160156 0.26992187 10.90070312 0.18359375 11.84765625 C0.12300781 12.55792969 0.06242187 13.26820312 0 14 C-0.33 14 -0.66 14 -1 14 C-1.02705729 12.22925083 -1.04642195 10.45838289 -1.0625 8.6875 C-1.07410156 7.70136719 -1.08570312 6.71523438 -1.09765625 5.69921875 C-1 3 -1 3 0 0 Z " fill="#FFCEA8" transform="translate(126,25)"/>
<path d="M0 0 C0.66 0 1.32 0 2 0 C2 0.66 2 1.32 2 2 C2.66 2 3.32 2 4 2 C3.67 4.64 3.34 7.28 3 10 C-0.00617269 6.99382731 0.40414684 4.17618402 0 0 Z " fill="#F0E6DF" transform="translate(274,63)"/>
<path d="M0 0 C0.6875 1.625 0.6875 1.625 1 4 C-0.4375 7.25 -0.4375 7.25 -2 10 C-2.66 9.67 -3.32 9.34 -4 9 C-3.46930939 5.17902761 -2.50298434 2.93828597 0 0 Z " fill="#FDF9F6" transform="translate(298,278)"/>
<path d="M0 0 C0.66 0 1.32 0 2 0 C2 0.66 2 1.32 2 2 C2.99 2.33 3.98 2.66 5 3 C5 3.66 5 4.32 5 5 C4.34 5 3.68 5 3 5 C2.67 5.66 2.34 6.32 2 7 C1.67 6.34 1.34 5.68 1 5 C0.01 5.495 0.01 5.495 -1 6 C-0.67 4.02 -0.34 2.04 0 0 Z " fill="#AF816D" transform="translate(297,274)"/>
<path d="M0 0 C1.65 1.65 3.3 3.3 5 5 C4.67 5.99 4.34 6.98 4 8 C2.68 7.67 1.36 7.34 0 7 C0 6.01 0 5.02 0 4 C-0.33 3.01 -0.66 2.02 -1 1 C-0.67 0.67 -0.34 0.34 0 0 Z " fill="#FAF8F6" transform="translate(102,280)"/>
<path d="M0 0 C0.33 0 0.66 0 1 0 C1.33 3.63 1.66 7.26 2 11 C0.68 11.33 -0.64 11.66 -2 12 C-2 11.34 -2 10.68 -2 10 C-1.34 10 -0.68 10 0 10 C0 6.7 0 3.4 0 0 Z " fill="#EFE2D8" transform="translate(124,55)"/>
<path d="M0 0 C1.5625 1.125 1.5625 1.125 3 3 C2.8125 6.125 2.8125 6.125 2 9 C1.01 9.495 1.01 9.495 0 10 C0 9.34 0 8.68 0 8 C-0.66 7.34 -1.32 6.68 -2 6 C-1.01 5.67 -0.02 5.34 1 5 C0.67 3.35 0.34 1.7 0 0 Z " fill="#CABFB8" transform="translate(112,298)"/>
<path d="M0 0 C1.32 0 2.64 0 4 0 C4 1.65 4 3.3 4 5 C3.01 5.33 2.02 5.66 1 6 C0 5 0 5 -0.0625 2.4375 C-0.041875 1.633125 -0.02125 0.82875 0 0 Z " fill="#CCB9B0" transform="translate(198,297)"/>
<path d="M0 0 C1.65 0 3.3 0 5 0 C5 3.63 5 7.26 5 11 C4.67 11 4.34 11 4 11 C4 8.36 4 5.72 4 3 C3.01 3 2.02 3 1 3 C0.67 2.01 0.34 1.02 0 0 Z " fill="#FCD5B3" transform="translate(271,25)"/>
<path d="M0 0 C0.66 0 1.32 0 2 0 C2.33 2.64 2.66 5.28 3 8 C2.01 7.67 1.02 7.34 0 7 C-1.17755913 4.05610218 -1.03348696 3.10046087 0 0 Z " fill="#F4E8E1" transform="translate(114,305)"/>
<path d="M0 0 C0.66 0 1.32 0 2 0 C2 1.65 2 3.3 2 5 C0.02 5.99 0.02 5.99 -2 7 C-1.125 1.125 -1.125 1.125 0 0 Z " fill="#FEF3F2" transform="translate(104,112)"/>
<path d="M0 0 C3.875 1.75 3.875 1.75 5 4 C4.34 4 3.68 4 3 4 C3 4.66 3 5.32 3 6 C2.34 6 1.68 6 1 6 C1 5.01 1 4.02 1 3 C0.34 3 -0.32 3 -1 3 C-0.67 2.01 -0.34 1.02 0 0 Z " fill="#B8B0A9" transform="translate(281,311)"/>
<path d="M0 0 C3 1 3 1 4.75 3.3125 C6 6 6 6 5 10 C3.35 6.7 1.7 3.4 0 0 Z " fill="#FEB495" transform="translate(100,274)"/>
<path d="M0 0 C0 1.98 0 3.96 0 6 C-0.99 6.33 -1.98 6.66 -3 7 C-3.6875 5.1875 -3.6875 5.1875 -4 3 C-1.64285714 0 -1.64285714 0 0 0 Z " fill="#F2E8DE" transform="translate(116,89)"/>
<path d="M0 0 C1.98 0 3.96 0 6 0 C6 0.66 6 1.32 6 2 C3.03 1.505 3.03 1.505 0 1 C0 0.67 0 0.34 0 0 Z " fill="#040002" transform="translate(268,383)"/>
<path d="M0 0 C0.66 0 1.32 0 2 0 C1.67 0.66 1.34 1.32 1 2 C0.67 1.34 0.34 0.68 0 0 Z " fill="#63504B" transform="translate(302,274)"/>
<path d="" fill="#000707" transform="translate(0,0)"/>
<path d="M0 0 C2 1 2 1 2 1 Z " fill="#020204" transform="translate(340,182)"/>
<path d="" fill="#1B1818" transform="translate(0,0)"/>
<path d="" fill="#000001" transform="translate(0,0)"/>
<path d="" fill="#010001" transform="translate(0,0)"/>
<path d="M0 0 C2 1 2 1 2 1 Z " fill="#010000" transform="translate(229,13)"/>
<path d="" fill="#030101" transform="translate(0,0)"/>
<path d="" fill="#21201F" transform="translate(0,0)"/>
<path d="" fill="#FEFFFF" transform="translate(0,0)"/>
<path d="" fill="#FFBEA2" transform="translate(0,0)"/>
<path d="" fill="#000000" transform="translate(0,0)"/>
<path d="" fill="#000000" transform="translate(0,0)"/>
<path d="" fill="#FFC39A" transform="translate(0,0)"/>
<path d="" fill="#FCFCFB" transform="translate(0,0)"/>
<path d="" fill="#000002" transform="translate(0,0)"/>
<path d="" fill="#020000" transform="translate(0,0)"/>
<path d="" fill="#020000" transform="translate(0,0)"/>
<path d="" fill="#010001" transform="translate(0,0)"/>
<path d="" fill="#010001" transform="translate(0,0)"/>
<path d="" fill="#010001" transform="translate(0,0)"/>
<path d="" fill="#010001" transform="translate(0,0)"/>
<path d="" fill="#020101" transform="translate(0,0)"/>
<path d="" fill="#020101" transform="translate(0,0)"/>
<path d="" fill="#020101" transform="translate(0,0)"/>
<path d="" fill="#020101" transform="translate(0,0)"/>
<path d="" fill="#020101" transform="translate(0,0)"/>
<path d="" fill="#020101" transform="translate(0,0)"/>
<path d="" fill="#020101" transform="translate(0,0)"/>
<path d="" fill="#020101" transform="translate(0,0)"/>
<path d="" fill="#020101" transform="translate(0,0)"/>
<path d="" fill="#020101" transform="translate(0,0)"/>
<path d="" fill="#020101" transform="translate(0,0)"/>
<path d="" fill="#020101" transform="translate(0,0)"/>
<path d="" fill="#020101" transform="translate(0,0)"/>
<path d="" fill="#020101" transform="translate(0,0)"/>
<path d="" fill="#020101" transform="translate(0,0)"/>
<path d="" fill="#010000" transform="translate(0,0)"/>
<path d="" fill="#010001" transform="translate(0,0)"/>
<path d="" fill="#020100" transform="translate(0,0)"/>
<path d="" fill="#020100" transform="translate(0,0)"/>
<path d="" fill="#020100" transform="translate(0,0)"/>
<path d="" fill="#020100" transform="translate(0,0)"/>
<path d="" fill="#010000" transform="translate(0,0)"/>
<path d="" fill="#010000" transform="translate(0,0)"/>
<path d="" fill="#010000" transform="translate(0,0)"/>
<path d="" fill="#010000" transform="translate(0,0)"/>
<path d="" fill="#010000" transform="translate(0,0)"/>
<path d="" fill="#010000" transform="translate(0,0)"/>
<path d="" fill="#010000" transform="translate(0,0)"/>
<path d="" fill="#010000" transform="translate(0,0)"/>
<path d="" fill="#010101" transform="translate(0,0)"/>
</svg>
