<?xml version="1.0" encoding="UTF-8"?>
<svg version="1.1" xmlns="http://www.w3.org/2000/svg" width="512" height="512">
<path d="M0 0 C7.69933581 5.67037817 15.62053751 12.72633967 19.57666016 21.61181641 C20.91775787 24.58293 22.00558895 26.58676175 24.35400391 28.86572266 C28.4474612 30.12419954 32.41015723 30.65893209 36.64697266 31.18212891 C55.07517178 33.54158084 72.42239533 43.31702406 87.35400391 53.86572266 C88.34400391 54.52572266 89.33400391 55.18572266 90.35400391 55.86572266 C91.03462891 55.18509766 91.71525391 54.50447266 92.41650391 53.80322266 C95.35400391 51.86572266 95.35400391 51.86572266 98.97900391 51.86572266 C102.79916371 52.99762186 103.4674493 53.47215697 105.35400391 56.86572266 C105.79256801 60.44170688 105.85622435 63.95306029 105.94775391 67.55322266 C106.38291686 71.10147441 106.62275517 72.56720263 109.35400391 74.86572266 C112.60556805 75.45753468 112.60556805 75.45753468 116.22900391 75.42822266 C121.20927215 75.51810011 124.32110865 75.8224493 128.35400391 78.86572266 C129.77442211 81.70655907 129.66852663 83.72049543 129.35400391 86.86572266 C126.95881873 90.03078878 125.15286753 91.05966126 121.35400391 91.86572266 C121.86189453 92.73970703 122.36978516 93.61369141 122.89306641 94.51416016 C139.7386097 124.29063987 144.06172281 159.96015089 135.28759766 193.04150391 C132.44125243 203.01393356 128.84900515 214.65518779 122.73866272 223.0975647 C120.93336778 226.70664262 121.18533947 229.68335829 121.55102539 233.58203125 C121.60837325 234.32731268 121.66572111 235.07259411 121.72480679 235.84045982 C121.91300527 238.18468555 122.12872115 240.52478843 122.35400391 242.86572266 C122.42204853 243.58542488 122.49009315 244.30512711 122.56019974 245.04663849 C122.98066036 249.4005087 123.45062669 253.74788125 123.94130135 258.09434891 C124.21073131 260.48528299 124.47384461 262.8768449 124.73545837 265.26864624 C125.47865411 272.05489977 126.2314001 278.84007169 126.9909668 285.62451172 C127.45941174 289.81255308 127.91977337 294.0014235 128.37548637 298.19086838 C128.5482316 299.76415065 128.72396008 301.33710888 128.90300179 302.90968704 C132.20221674 331.90113157 132.20221674 331.90113157 127.05712891 340.77197266 C123.63036385 344.984693 119.1476387 347.46890526 114.35400391 349.86572266 C112.659318 349.96415086 110.96075842 349.99853532 109.26322174 350.00273705 C107.63626995 350.01034886 107.63626995 350.01034886 105.97645044 350.01811445 C104.77512146 350.0186122 103.57379247 350.01910996 102.33605957 350.0196228 C101.06733804 350.02400506 99.79861651 350.02838731 98.49144888 350.03290236 C94.9579836 350.04488692 91.42453198 350.05052069 87.89105034 350.05508351 C84.08444189 350.06103272 80.27784984 350.07264449 76.47125244 350.08337402 C67.27062853 350.10791716 58.06999917 350.12252976 48.86935258 350.13543409 C46.27072442 350.1391452 43.67209679 350.14311852 41.07346916 350.14718676 C24.93852393 350.17242693 8.80357787 350.19448154 -7.33138275 350.2069149 C-11.07036848 350.20984465 -14.80935418 350.2128063 -18.54833984 350.21582031 C-19.47765755 350.21656636 -20.40697525 350.21731241 -21.36445409 350.21808107 C-36.41170275 350.23072887 -51.45883308 350.26394258 -66.50602645 350.30562215 C-81.95340836 350.34805939 -97.40072975 350.37161217 -112.8481698 350.37683547 C-121.52175995 350.380248 -130.19516536 350.39198419 -138.86869812 350.4249382 C-146.2575178 350.45296478 -153.64611487 350.46392676 -161.03498358 350.45274274 C-164.80341012 350.44756229 -168.57137071 350.450402 -172.33972931 350.47520828 C-176.43086892 350.50191372 -180.5209869 350.48961937 -184.61218262 350.47372437 C-185.79566583 350.48760645 -186.97914905 350.50148854 -188.19849539 350.5157913 C-195.72437047 350.44382082 -201.33525691 349.08074128 -207.64599609 344.86572266 C-209.89990234 342.51416016 -209.89990234 342.51416016 -211.20849609 340.24072266 C-211.66353516 339.48533203 -212.11857422 338.72994141 -212.58740234 337.95166016 C-217.57006828 328.13341805 -214.37519285 314.31791439 -213.20898438 303.77319336 C-213.05397209 302.32108087 -212.89960315 300.86889958 -212.74581909 299.41665649 C-212.33099026 295.51735903 -211.9070013 291.61910994 -211.48099375 287.72101998 C-211.03392807 283.61745307 -210.59476942 279.51303889 -210.1545105 275.40873718 C-209.4147413 268.52331717 -208.66921007 261.63854067 -207.91992188 254.75415039 C-207.05647749 246.82046502 -206.20108645 238.88594421 -205.35024083 230.95089847 C-204.52761987 223.2799596 -203.70036578 215.60952793 -202.87066269 207.93935204 C-202.51933656 204.69138418 -202.16940457 201.44327074 -201.82059097 198.19503212 C-201.40906107 194.36547506 -200.99338588 190.53638882 -200.57463455 186.7076149 C-200.42251139 185.31106112 -200.27171336 183.91436218 -200.12241364 182.51750374 C-197.36995077 156.79615735 -197.36995077 156.79615735 -190.64599609 149.86572266 C-183.45839886 144.77154372 -176.66211876 144.17740013 -168.07568359 144.37744141 C-166.33232224 144.38805351 -166.33232224 144.38805351 -164.55374146 144.39888 C-160.87547901 144.42666051 -157.19879121 144.48937205 -153.52099609 144.55322266 C-151.01320572 144.57832647 -148.50539127 144.60113597 -145.99755859 144.62158203 C-139.87984229 144.67643358 -133.76303173 144.75989574 -127.64599609 144.86572266 C-127.59483643 144.25519043 -127.54367676 143.6446582 -127.4909668 143.015625 C-127.41450928 142.2107666 -127.33805176 141.4059082 -127.25927734 140.57666016 C-127.18749268 139.78050293 -127.11570801 138.9843457 -127.04174805 138.1640625 C-126.28136182 133.74809956 -123.79660157 130.88096279 -120.52099609 127.99072266 C-118.64599609 126.86572266 -118.64599609 126.86572266 -116.64599609 126.86572266 C-115.93239741 122.34761477 -115.51271387 117.9907026 -115.47241211 113.41821289 C-115.45892227 112.18260117 -115.44543243 110.94698944 -115.43153381 109.67393494 C-115.42109543 108.35406082 -115.41065704 107.03418671 -115.39990234 105.67431641 C-115.38436264 104.28295654 -115.36815049 102.89160404 -115.3513031 101.5002594 C-115.28114048 95.62729452 -115.2208666 89.75425968 -115.16918945 83.88110352 C-115.13699046 80.27431275 -115.0956176 76.66771453 -115.04899406 73.06108284 C-115.02564589 71.05083489 -115.01235985 69.0404779 -114.99940491 67.03013611 C-114.68203992 43.0460812 -108.77950099 23.26325217 -91.49560547 6.10107422 C-67.02216483 -16.83325216 -27.37516935 -18.8645857 0 0 Z M-88.45849609 25.24072266 C-98.49164873 38.86220283 -100.11578998 53.78528774 -99.83349609 70.11572266 C-99.8184075 71.65086564 -99.80472655 73.18602312 -99.79248047 74.72119141 C-99.75983887 78.43634286 -99.70829257 82.15093599 -99.64599609 85.86572266 C-96.72830516 82.98124121 -94.04024872 80.19685674 -91.64599609 76.86572266 C-70.81312851 49.89499946 -39.87275416 34.81453853 -6.64599609 29.86572266 C-2.32372106 29.34017331 2.00263291 29.02453182 6.35400391 28.86572266 C-3.7261812 14.65007699 -15.7167343 5.96893172 -32.90771484 2.49072266 C-54.8262441 -1.17381724 -74.56970477 8.47218195 -88.45849609 25.24072266 Z " fill="#4D251E" transform="translate(294.64599609375,87.13427734375)"/>
<path d="M0 0 C1.30517578 0.10441406 1.30517578 0.10441406 2.63671875 0.2109375 C3.51972656 0.26507813 4.40273437 0.31921875 5.3125 0.375 C5.97636719 0.44460937 6.64023438 0.51421875 7.32421875 0.5859375 C7.35338379 1.13830078 7.38254883 1.69066406 7.41259766 2.25976562 C8.40883007 19.25556095 11.02274375 34.17904852 22.32421875 47.5859375 C23.18080078 48.62621094 23.18080078 48.62621094 24.0546875 49.6875 C33.88298132 60.54263049 48.94038691 67.28747827 63.46833801 68.11468506 C67.02444551 68.24958589 70.57843547 68.30134811 74.13671875 68.3359375 C75.61917408 68.36418093 77.10159811 68.39411958 78.58398438 68.42578125 C82.1639157 68.49863723 85.74371712 68.54881064 89.32421875 68.5859375 C89.3492749 69.26696533 89.37433105 69.94799316 89.40014648 70.6496582 C89.51612827 73.73277505 89.63884491 76.81558796 89.76171875 79.8984375 C89.80103516 80.97029297 89.84035156 82.04214844 89.88085938 83.14648438 C89.92275391 84.17451172 89.96464844 85.20253906 90.0078125 86.26171875 C90.04447021 87.20958252 90.08112793 88.15744629 90.11889648 89.1340332 C90.23852062 91.7221085 90.23852062 91.7221085 91.32421875 94.5859375 C102.09422108 94.6553821 112.86417034 94.70872057 123.63435078 94.74137402 C128.63513904 94.75704434 133.63577437 94.77830754 138.63647461 94.81225586 C143.46049189 94.84480059 148.28436188 94.86278021 153.10848045 94.87056923 C154.95093289 94.87612154 156.79337708 94.88696358 158.63576698 94.90312767 C161.21219059 94.92483715 163.78800192 94.92790717 166.36450195 94.92651367 C167.12982742 94.9372995 167.89515289 94.94808533 168.68367004 94.959198 C172.73404014 94.95163557 172.73404014 94.95163557 176.29467773 93.21789551 C177.76917351 90.88062564 177.75999081 89.01098881 177.8359375 86.26171875 C177.87138672 85.23369141 177.90683594 84.20566406 177.94335938 83.14648438 C177.97719727 81.53870117 177.97719727 81.53870117 178.01171875 79.8984375 C178.04587891 78.81498047 178.08003906 77.73152344 178.11523438 76.61523438 C178.19776435 73.9389053 178.26689812 71.26290591 178.32421875 68.5859375 C179.66045288 68.57977417 179.66045288 68.57977417 181.02368164 68.57348633 C184.40724019 68.54612012 187.7891106 68.49664292 191.17211914 68.43334961 C192.62155408 68.41049996 194.07114725 68.39585357 195.52075195 68.39038086 C212.03114138 68.31588066 227.56645832 64.31130603 239.9140625 52.72265625 C241.32421875 51.5859375 241.32421875 51.5859375 243.32421875 51.5859375 C243.58589844 51.02003906 243.84757812 50.45414062 244.1171875 49.87109375 C245.42649444 47.39230877 246.96526117 45.27304893 248.63671875 43.0234375 C258.00365299 29.69507065 259.42837055 16.52260552 260.32421875 0.5859375 C261.69631539 0.44872784 263.07257284 0.35294675 264.44921875 0.2734375 C265.21492188 0.21542969 265.980625 0.15742188 266.76953125 0.09765625 C270.47240632 0.80539231 272.93200848 2.76647204 275.32421875 5.5859375 C276.06332046 8.33472935 276.40929273 10.37076077 276.5546875 13.1484375 C276.68445008 14.67976694 276.81518591 16.21101414 276.94677734 17.7421875 C277.00621521 18.53882813 277.06565308 19.33546875 277.12689209 20.15625 C277.45259491 24.16663598 277.95511755 28.1544355 278.4375 32.1484375 C278.63402246 33.84271491 278.82930524 35.53713651 279.0234375 37.23168945 C279.12317871 38.1013736 279.22291992 38.97105774 279.32568359 39.86709595 C281.50288881 58.89862948 283.52345052 77.94222638 285.4375 97.00195312 C286.50410748 107.61106753 287.59759987 118.21623022 288.75 128.81640625 C288.86677094 129.89440994 288.98354187 130.97241364 289.10385132 132.08308411 C289.66366965 137.24786677 290.22827568 142.41204801 290.80078125 147.57543945 C291.00280802 149.43308331 291.20464136 151.29074822 291.40625 153.1484375 C291.54647331 154.38734993 291.54647331 154.38734993 291.68952942 155.65129089 C291.93749618 157.96135017 292.14121413 160.26989327 292.32421875 162.5859375 C292.43895035 163.7613208 292.43895035 163.7613208 292.55599976 164.96044922 C292.60157013 165.73275879 292.6471405 166.50506836 292.6940918 167.30078125 C292.74381638 167.98132568 292.79354095 168.66187012 292.84477234 169.36303711 C291.99192297 173.00492766 290.33026521 175.45126365 287.32421875 177.5859375 C283.26318194 178.50364371 279.25027424 178.3950335 275.10168457 178.34783936 C273.8472897 178.3571993 272.59289483 178.36655924 271.300488 178.37620282 C267.82082701 178.40126186 264.34215267 178.3888667 260.86248803 178.37028551 C257.10913914 178.35672019 253.35596095 178.37765899 249.60264587 178.39416504 C242.25081473 178.42086138 234.89935086 178.41507498 227.54750526 178.39768919 C221.57318916 178.38414526 215.59897609 178.38229838 209.62464905 178.38883209 C208.77473421 178.38975149 207.92481937 178.39067089 207.04914954 178.39161815 C205.32262684 178.39353648 203.59610416 178.39548176 201.86958152 178.3974537 C185.67547315 178.4145678 169.48156849 178.3948835 153.28749353 178.3626515 C139.38866319 178.33584441 125.49013351 178.34050043 111.59130859 178.36816406 C95.45563095 178.40026474 79.3201319 178.4129198 63.18442678 178.39449048 C61.46421403 178.39257916 59.74400126 178.39069294 58.02378845 178.38883209 C57.1773851 178.38790644 56.33098175 178.38698079 55.45892981 178.38602708 C49.49097332 178.38084397 43.52313 178.38959631 37.55519104 178.40370941 C30.28332753 178.42052785 23.01185266 178.41600441 15.74003375 178.38402495 C12.02887367 178.36824282 8.3183618 178.36210253 4.60720634 178.38191986 C0.58648956 178.4030657 -3.43258713 178.3778404 -7.45324707 178.34783936 C-8.62979339 178.36122369 -9.80633971 178.37460802 -11.01853895 178.38839793 C-18.70089774 178.27671459 -18.70089774 178.27671459 -21.51762611 176.28085417 C-24.05352525 173.36277197 -25.31114792 170.88006852 -25.07299805 167.02563477 C-25.02726654 166.1606839 -24.98153503 165.29573303 -24.93441772 164.40457153 C-24.80639267 163.00934769 -24.80639267 163.00934769 -24.67578125 161.5859375 C-24.59099518 160.60269501 -24.50620911 159.61945251 -24.41885376 158.60641479 C-24.09354035 155.24888355 -23.71301562 151.90108424 -23.3203125 148.55078125 C-23.17852066 147.29965042 -23.03672882 146.04851959 -22.89064026 144.75947571 C-22.5861227 142.07564412 -22.27975997 139.39210368 -21.97015381 136.7088623 C-21.23223946 130.31035431 -20.51113922 123.90994363 -19.79035187 117.50948715 C-19.62772804 116.06555028 -19.46492115 114.62163401 -19.30193329 113.17773819 C-17.8977306 100.73065022 -16.59177671 88.27547688 -15.34848022 75.81121826 C-14.76269748 69.95675359 -14.162193 64.10378291 -13.56187439 58.25079346 C-13.05498647 53.30727165 -12.5529621 48.36334566 -12.05957031 43.41845703 C-11.55327989 38.36413059 -11.02414845 33.31263967 -10.47930908 28.2623291 C-10.27954292 26.37746524 -10.08724065 24.49179288 -9.90301514 22.60534668 C-9.64938451 20.01947164 -9.36904304 17.43782138 -9.08203125 14.85546875 C-8.98053268 13.72474693 -8.98053268 13.72474693 -8.87698364 12.57118225 C-8.18773795 6.7778655 -6.23802876 1.3659917 0 0 Z " fill="#6A4E5A" transform="translate(118.67578125,245.4140625)"/>
<path d="M0 0 C0.95390668 1.74111122 1.88701961 3.49361385 2.8125 5.25 C3.33457031 6.22453125 3.85664063 7.1990625 4.39453125 8.203125 C9.18735045 18.69374009 9.51350086 29.65480638 9.57421875 40.96484375 C9.58897389 42.57239391 9.60385352 44.17994293 9.61885071 45.78749084 C9.64563697 49.13156114 9.65934403 52.47541269 9.66577148 55.81958008 C9.67672052 60.09973078 9.73875401 64.37756913 9.8124876 68.65703487 C9.86084283 71.96596709 9.87329686 75.27433416 9.87583351 78.58358955 C9.88304933 80.1621207 9.90346674 81.74065055 9.93753624 83.31883049 C10.18385771 95.65205053 10.18385771 95.65205053 7.24258423 99.00100708 C5.09301758 100.32641602 5.09301758 100.32641602 2.95075989 101.19532776 C-0.33900788 102.55232962 -1.43337067 104.92699631 -3 108 C-3.66 110.64 -4.32 113.28 -5 116 C-34.37 116 -63.74 116 -94 116 C-94.66 113.36 -95.32 110.72 -96 108 C-98.05630209 104.11587383 -99.84656037 102.01616856 -103.57983398 99.87304688 C-105.69087931 98.38921386 -106.80304566 97.54586268 -107.68533325 95.10058594 C-107.9765242 92.78246332 -108.04890984 90.55520104 -108.03515625 88.21875 C-108.04896835 87.3688147 -108.06278046 86.51887939 -108.07701111 85.64318848 C-108.09488819 83.84457126 -108.0946066 82.045694 -108.07739258 80.24707031 C-108.06267532 77.53234007 -108.13786049 74.83046917 -108.22070312 72.1171875 C-108.34273739 61.46798266 -106.999383 54.54402425 -99.6315918 46.65136719 C-98.7631665 45.77641602 -97.89474121 44.90146484 -97 44 C-96.3500708 43.2668457 -95.7001416 42.53369141 -95.03051758 41.77832031 C-93.36887349 39.90817738 -91.65358334 38.13371511 -89.875 36.375 C-89.2459375 35.75165771 -88.616875 35.12831543 -87.96875 34.48608398 C-65.21822102 12.57015321 -31.80611174 -1.89572851 0 0 Z " fill="#FDE6DA" transform="translate(302,116)"/>
<path d="M0 0 C23.83728804 3.21211683 44.33893992 11.11009686 64 25 C64.99 25.66 65.98 26.32 67 27 C67.680625 26.319375 68.36125 25.63875 69.0625 24.9375 C72 23 72 23 75.625 23 C79.44515981 24.1318992 80.11344539 24.60643431 82 28 C82.4385641 31.57598423 82.50222045 35.08733763 82.59375 38.6875 C83.02891295 42.23575175 83.26875127 43.70147998 86 46 C89.25156415 46.59181202 89.25156415 46.59181202 92.875 46.5625 C97.85526825 46.65237745 100.96710474 46.95672664 105 50 C106.42041821 52.84083641 106.31452272 54.85477278 106 58 C103.60481483 61.16506612 101.79886362 62.1939386 98 63 C98.50789063 63.87398437 99.01578125 64.74796875 99.5390625 65.6484375 C116.38460579 95.42491722 120.7077189 131.09442823 111.93359375 164.17578125 C108.60235623 175.85060014 104.17594906 188.13875921 97 198 C96.67 198 96.34 198 96 198 C95.1620755 190.65359945 94.32610838 183.306978 93.49145508 175.96020508 C93.20771849 173.46471195 92.92354583 170.96926836 92.63891602 168.47387695 C92.22816122 164.87203937 91.81901283 161.27002224 91.41015625 157.66796875 C91.22103416 156.01416451 91.22103416 156.01416451 91.02809143 154.32695007 C90.34689533 148.3106465 89.74059202 142.29826979 89.26148987 136.26225281 C88.64486834 130.92761482 86.13061167 126.07223875 82.2890625 122.3359375 C77.46756878 118.73560813 72.72101658 116.76964988 66.65893555 116.68115234 C65.6182341 116.66128265 64.57753265 116.64141296 63.5052948 116.62094116 C62.3936647 116.60938995 61.28203461 116.59783875 60.13671875 116.5859375 C58.98959915 116.56657135 57.84247955 116.5472052 56.66059875 116.5272522 C53.0029744 116.46755533 49.34531841 116.42110998 45.6875 116.375 C43.20506453 116.33681117 40.72264218 116.29775892 38.24023438 116.2578125 C32.16027288 116.16186181 26.08023211 116.07678522 20 116 C19.80374023 115.31147949 19.60748047 114.62295898 19.40527344 113.91357422 C19.14262695 113.0113916 18.87998047 112.10920898 18.609375 111.1796875 C18.35124023 110.28491699 18.09310547 109.39014648 17.82714844 108.46826172 C16.75006863 105.25418944 15.46590216 103.32890759 13 101 C11.22335213 100.16961967 11.22335213 100.16961967 9.41081238 99.32246399 C7.53438377 98.26284218 7.53438377 98.26284218 6 97 C5.14717102 93.69670105 5.14717102 93.69670105 5.17700195 89.71557617 C5.17265137 88.98806152 5.16830078 88.26054687 5.16381836 87.51098633 C5.1568025 85.10378658 5.19821438 82.6998048 5.23828125 80.29296875 C5.23905432 78.6082589 5.23616279 76.92354377 5.2297821 75.23884583 C5.22017749 70.79390794 5.24882942 66.35013393 5.28894043 61.90539551 C5.35025452 54.83203713 5.37003111 47.75901086 5.35912132 40.68541908 C5.36316996 38.23531962 5.39331898 35.78657461 5.42610168 33.3367157 C5.48656826 23.18295324 3.97640748 14.70801759 1 5 C0.64259004 3.33833005 0.29925713 1.67312105 0 0 Z " fill="#FDE6DA" transform="translate(318,116)"/>
<path d="M0 0 C8.91 0 17.82 0 27 0 C27.3125 10.75 27.3125 10.75 27.38793945 14.12011719 C27.42105225 15.00344727 27.45416504 15.88677734 27.48828125 16.796875 C27.51446533 17.69760742 27.54064941 18.59833984 27.56762695 19.52636719 C28.10557088 22.60397752 28.64438439 23.91899276 31 26 C33.6110595 26.39430682 35.79696921 26.53815277 38.40625 26.49609375 C39.12735962 26.49754898 39.84846924 26.49900421 40.59143066 26.50050354 C42.11454309 26.49884512 43.63767237 26.48728985 45.16064453 26.46655273 C47.49193501 26.43760016 49.82095092 26.44594196 52.15234375 26.45898438 C53.63282355 26.45274662 55.11329617 26.44435539 56.59375 26.43359375 C57.63915955 26.43799721 57.63915955 26.43799721 58.70568848 26.44248962 C63.01454067 26.35850635 63.78798273 26.21201727 67 23 C67.33 15.41 67.66 7.82 68 0 C97.37 0 126.74 0 157 0 C157.33 7.59 157.66 15.18 158 23 C161.21201727 26.21201727 161.98545933 26.35850635 166.29431152 26.44248962 C166.99125122 26.43955399 167.68819092 26.43661835 168.40625 26.43359375 C169.12735962 26.4388356 169.84846924 26.44407745 170.59143066 26.44947815 C172.11448886 26.4558953 173.63759664 26.45456524 175.16064453 26.44604492 C177.49210682 26.43752883 179.82112325 26.46630448 182.15234375 26.49804688 C183.63281177 26.49965887 185.11328412 26.49908139 186.59375 26.49609375 C187.2906897 26.50732773 187.98762939 26.51856171 188.70568848 26.53013611 C191.80716561 26.48542819 193.56441242 26.3848085 195.9309082 24.29418945 C197.16715498 21.64129817 197.42676877 19.71915416 197.51171875 16.796875 C197.56138794 15.47187988 197.56138794 15.47187988 197.61206055 14.12011719 C197.63695557 13.00797852 197.66185059 11.89583984 197.6875 10.75 C197.8421875 5.42875 197.8421875 5.42875 198 0 C206.91 0 215.82 0 225 0 C225.52049458 14.96421905 224.22943927 27.2224272 214 39 C206.59608047 46.89667185 197.32936856 53.59890735 186.15466404 54.13701439 C185.04696124 54.14258669 183.93925844 54.14815899 182.79798889 54.15390015 C181.52391174 54.16250061 180.24983459 54.17110107 178.93714905 54.17996216 C177.52719157 54.18439715 176.11723366 54.18869553 174.70727539 54.19287109 C173.22040619 54.20077618 171.73353889 54.20904538 170.24667358 54.21765137 C165.36368635 54.24383674 160.48069072 54.25918111 155.59765625 54.2734375 C153.91271904 54.27879967 152.22778188 54.28417718 150.54284477 54.28956985 C143.52819212 54.31119844 136.51354172 54.32993076 129.49886417 54.34119225 C119.47006292 54.35740163 109.44165091 54.39050608 99.41299635 54.44759309 C92.34950142 54.48641878 85.28611001 54.50584013 78.22251123 54.51111281 C74.01056553 54.51475063 69.7990353 54.52660232 65.58720589 54.55921555 C61.61682942 54.58951746 57.64711495 54.5955304 53.67664719 54.58383179 C52.22916495 54.58361285 50.78165 54.59176703 49.3342762 54.60948563 C35.55921679 54.76876773 24.17975775 51.53977298 14 42 C13.37480469 41.41605469 12.74960938 40.83210938 12.10546875 40.23046875 C3.36195956 31.18217492 -0.20437641 19.99559232 -0.0625 7.6875 C-0.041875 5.150625 -0.02125 2.61375 0 0 Z " fill="#F3ADAA" transform="translate(140,246)"/>
<path d="M0 0 C6.17558902 3.34610422 10.20032492 7.73692951 12.3671875 14.484375 C13.89708077 22.78950991 13.33645162 29.38400739 8.52734375 36.43359375 C3.97914907 41.88143133 -1.41399298 44.94012692 -8.49609375 45.8515625 C-15.40801803 46.26131776 -20.56103177 44.46630923 -26.25 40.5625 C-31.37995892 36.00489187 -33.8490028 31.32068305 -34.5859375 24.4140625 C-34.68196709 16.48201835 -34.16208948 10.80382473 -28.671875 4.8515625 C-20.0217511 -3.13616453 -10.68576781 -4.76688527 0 0 Z " fill="#4F2821" transform="translate(270.25,152.4375)"/>
<path d="M0 0 C2.26518619 1.48781547 4.02186726 3.11606406 6 5 C8.26118705 3.95016316 9.97525665 3.02303691 11.8125 1.3125 C14 0 14 0 17.5625 0.0625 C21 1 21 1 23 2.625 C24.47326389 6.12400175 23.97114747 8.37438276 23 12 C20.9375 14.4375 20.9375 14.4375 19 16 C20.04983684 18.26118705 20.97696309 19.97525665 22.6875 21.8125 C24 24 24 24 23.9375 27.5625 C23 31 23 31 21.375 33 C17.87599825 34.47326389 15.62561724 33.97114747 12 33 C9.5625 30.9375 9.5625 30.9375 8 29 C5.76889149 30.03587181 3.99362603 31.00552411 2.125 32.625 C-0.79560904 34.51480585 -2.58511593 34.49800393 -6 34 C-9.02352411 31.93127298 -9.85787938 30.72639431 -10.5625 27.125 C-9.791155 22.83974998 -7.97932689 21.12829324 -5 18 C-6.03587181 15.76889149 -7.00552411 13.99362603 -8.625 12.125 C-10.51480585 9.20439096 -10.49800393 7.41488407 -10 4 C-7.21365651 -0.07234818 -4.81698377 -0.86705708 0 0 Z " fill="#4B231C" transform="translate(88,164)"/>
<path d="M0 0 C1.18488007 -0.01591187 2.36976013 -0.03182373 3.59054565 -0.04821777 C4.87180328 -0.04841919 6.15306091 -0.04862061 7.47314453 -0.04882812 C8.78880402 -0.05644165 10.1044635 -0.06405518 11.45999146 -0.07189941 C14.24587523 -0.08534758 17.03147565 -0.08691221 19.81738281 -0.08105469 C23.38101528 -0.07516472 26.9432824 -0.10571596 30.50665092 -0.14617157 C33.91219188 -0.17830325 37.31745247 -0.17393225 40.72314453 -0.17382812 C42.0003537 -0.19022339 43.27756287 -0.20661865 44.59347534 -0.22351074 C54.44223709 -0.14657315 54.44223709 -0.14657315 57.57128906 2.76171875 C59.23095703 5.41992188 59.23095703 5.41992188 59.29345703 8.54492188 C58.06040447 11.88141705 57.25628325 12.64732884 54.23095703 14.41992188 C51.5369873 14.80760193 51.5369873 14.80760193 48.42431641 14.82397461 C46.67229919 14.84300087 46.67229919 14.84300087 44.8848877 14.8624115 C43.62752808 14.85947586 42.37016846 14.85654022 41.07470703 14.85351562 C39.13307678 14.8613784 39.13307678 14.8613784 37.15222168 14.86940002 C34.41518393 14.87832461 31.67843807 14.8759153 28.94140625 14.8659668 C25.43728058 14.85446985 21.93416158 14.87470104 18.43016815 14.90388393 C15.08246099 14.92665925 11.73498985 14.91977932 8.38720703 14.91601562 C7.12984741 14.9272496 5.87248779 14.93848358 4.57702637 14.95005798 C3.40901489 14.94067703 2.24100342 14.93129608 1.03759766 14.92163086 C0.01041626 14.92146469 -1.01676514 14.92129852 -2.07507324 14.92112732 C-5.4982163 14.28426124 -6.68337484 13.16580301 -8.76904297 10.41992188 C-9.49896323 4.47628544 -9.49896323 4.47628544 -7.6022644 1.73132324 C-5.02375823 -0.11322017 -3.15506358 0.02543989 0 0 Z " fill="#4D251E" transform="translate(326.76904296875,395.580078125)"/>
<path d="M0 0 C20.13 0 40.26 0 61 0 C61 4.62 61 9.24 61 14 C40.87 14 20.74 14 0 14 C0 9.38 0 4.76 0 0 Z " fill="#FAC954" transform="translate(222,314)"/>
<path d="M0 0 C3.375 0.875 3.375 0.875 5.375 2.875 C5.60205078 5.94775391 5.60205078 5.94775391 5.5703125 9.8515625 C5.5674826 10.53681 5.56465271 11.2220575 5.56173706 11.92807007 C5.55053281 14.11889027 5.52542859 16.30930316 5.5 18.5 C5.48997048 19.9843691 5.48084458 21.4687446 5.47265625 22.953125 C5.45059294 26.59388261 5.41606176 30.23440156 5.375 33.875 C1.085 33.875 -3.205 33.875 -7.625 33.875 C-7.7169778 29.67468033 -7.7965554 25.47786927 -7.84472656 21.27734375 C-7.86480982 19.84948879 -7.89208252 18.42171575 -7.92675781 16.99414062 C-7.97542669 14.93859632 -7.99799967 12.88414145 -8.015625 10.828125 C-8.03657227 9.59223633 -8.05751953 8.35634766 -8.07910156 7.08300781 C-7.625 3.875 -7.625 3.875 -5.82714844 1.43261719 C-3.625 -0.125 -3.625 -0.125 0 0 Z " fill="#FDCC55" transform="translate(188.625,225.125)"/>
<path d="M0 0 C3.3717228 0.67434456 4.39750399 1.79522076 6.5 4.5 C6.95410156 7.70800781 6.95410156 7.70800781 6.890625 11.453125 C6.88496521 12.11334656 6.87930542 12.77356812 6.87347412 13.45379639 C6.8511623 15.55328263 6.80098314 17.6510337 6.75 19.75 C6.72992794 21.1770586 6.71167839 22.60414408 6.6953125 24.03125 C6.65472201 27.52203219 6.5764434 31.00908481 6.5 34.5 C2.21 34.5 -2.08 34.5 -6.5 34.5 C-6.5919778 30.29968033 -6.6715554 26.10286927 -6.71972656 21.90234375 C-6.73980982 20.47448879 -6.76708252 19.04671575 -6.80175781 17.61914062 C-6.85042669 15.56359632 -6.87299967 13.50914145 -6.890625 11.453125 C-6.91157227 10.21723633 -6.93251953 8.98134766 -6.95410156 7.70800781 C-6.5 4.5 -6.5 4.5 -4.63183594 2.09667969 C-2.5 0.5 -2.5 0.5 0 0 Z " fill="#FDCC55" transform="translate(317.5,224.5)"/>
<path d="M0 0 C4.55115114 0.82748203 7.19570403 2.38320403 10.4375 5.625 C11.16987373 9.60376114 11.51370636 13.83264161 9.375 17.39453125 C6.68632228 19.92977899 3.96927267 20.97718993 0.375 21.25 C-4.29202305 20.50920269 -5.68653757 19.28531582 -8.5625 15.625 C-10.04146861 12.66706277 -9.9980582 10.92279776 -9.5625 7.625 C-7.129115 3.28836031 -4.97158731 0.8722083 0 0 Z " fill="#FAE3D7" transform="translate(258.5625,163.375)"/>
<path d="M0 0 C4.64963504 2.29927007 4.64963504 2.29927007 6 5 C6.37238514 8.42594327 6.47274616 10.30083332 4.515625 13.1953125 C0.82758503 15.8410803 -2.16799637 15.3634273 -6.5625 15 C-7.33013672 14.96777344 -8.09777344 14.93554688 -8.88867188 14.90234375 C-12.31653227 14.66923729 -14.46305176 14.5138311 -16.99609375 12.08984375 C-18.29965674 9.37620094 -18.58069984 7.97608669 -18 5 C-13.98641786 -1.68930356 -6.98715001 -1.03769555 0 0 Z " fill="#4E261F" transform="translate(418,163)"/>
<path d="M0 0 C2.47615532 2.38997822 2.97708242 3.83976791 3.46875 7.27734375 C3.56360057 18.3867165 3.56360057 18.3867165 0.9375 21.4375 C-2.89802889 23.47767494 -4.88260071 23.24298846 -9 22 C-11.55804005 18.16293993 -11.36757251 14.94906733 -11.375 10.5 C-11.39949219 9.72785156 -11.42398437 8.95570313 -11.44921875 8.16015625 C-11.478436 2.54070533 -11.478436 2.54070533 -9.19921875 -0.03515625 C-5.81477829 -1.51998182 -3.50492978 -0.95588994 0 0 Z " fill="#4D251E" transform="translate(397,140)"/>
<path d="M0 0 C1.07411133 -0.0299707 1.07411133 -0.0299707 2.16992188 -0.06054688 C5.66406329 -0.05730856 7.70614946 0.18201384 10.57421875 2.23828125 C12.0625 4.4375 12.0625 4.4375 11.9375 8.0625 C11.0625 11.4375 11.0625 11.4375 9.0625 13.4375 C6.20684641 13.66302341 3.4799649 13.76178763 0.625 13.75 C-0.53999023 13.77416992 -0.53999023 13.77416992 -1.72851562 13.79882812 C-7.45356598 13.80375926 -7.45356598 13.80375926 -9.66040039 12.13354492 C-11.77707332 9.32250939 -11.29976888 6.81867624 -10.9375 3.4375 C-8.45227013 -0.65415222 -4.29085911 -0.04225555 0 0 Z " fill="#4F2720" transform="translate(372.9375,163.5625)"/>
<path d="M0 0 C1.6953125 1.0234375 1.6953125 1.0234375 3 3 C3.29834873 5.76118825 3.41911153 8.24548016 3.375 11 C3.38660156 11.72445312 3.39820313 12.44890625 3.41015625 13.1953125 C3.39353737 16.19778969 3.37716456 18.42860698 1.6953125 20.9765625 C-1.19631927 22.72220196 -3.7296961 22.3503897 -7 22 C-8.6953125 20.9765625 -8.6953125 20.9765625 -10 19 C-10.29834873 16.23881175 -10.41911153 13.75451984 -10.375 11 C-10.38660156 10.27554688 -10.39820313 9.55109375 -10.41015625 8.8046875 C-10.39353737 5.80221031 -10.37716456 3.57139302 -8.6953125 1.0234375 C-5.80368073 -0.72220196 -3.2703039 -0.3503897 0 0 Z " fill="#4D251E" transform="translate(396,179)"/>
<path d="M0 0 C2.99097304 2.54232708 3.84202557 4.1574697 4.5625 8 C3.79301948 12.10389613 2.32878632 13.53959272 -1 16 C-4.86719695 16.72509943 -6.43721126 16.33767324 -9.8125 14.3125 C-12.29855004 11.68438995 -13 10.60241706 -13 7 C-10.29610878 0.3046503 -7.21376287 -1.25456746 0 0 Z " fill="#4B231C" transform="translate(134,98)"/>
<path d="M0 0 C0.33 0 0.66 0 1 0 C1 2.97 1 5.94 1 9 C0.01 9.33 -0.98 9.66 -2 10 C-1.54177532 6.53058454 -1.10868317 3.32604951 0 0 Z " fill="#F1D9CD" transform="translate(180,204)"/>
</svg>
